G04 Layer_Physical_Order=1*
G04 Layer_Color=255*
%FSLAX44Y44*%
%MOMM*%
G71*
G01*
G75*
%ADD10C,3.0000*%
%ADD11C,0.1560*%
%ADD12C,2.0000*%
%ADD13R,4.4500X4.4500*%
%ADD14O,0.8600X0.2200*%
%ADD15O,0.2200X0.8600*%
%ADD16R,1.0000X1.5500*%
%ADD17R,0.7000X0.6000*%
%ADD18R,0.6000X0.7000*%
%ADD19R,0.5000X0.7000*%
%ADD20R,1.0000X1.4500*%
%ADD21R,1.4500X1.0000*%
%ADD22R,1.2200X1.2500*%
%ADD23R,2.1800X2.0000*%
%ADD24O,2.4000X0.7500*%
%ADD25R,2.4000X0.7500*%
%ADD26R,6.3000X2.1500*%
%ADD27R,0.2750X0.3000*%
%ADD28R,0.3000X0.2750*%
%ADD29R,1.1000X1.3000*%
%ADD30R,0.7000X0.5000*%
%ADD31R,0.4750X0.2500*%
%ADD32R,0.2500X0.4750*%
%ADD33R,0.3500X0.3500*%
%ADD34R,0.8000X0.9000*%
%ADD35R,0.3000X0.6000*%
%ADD36R,1.6000X0.7000*%
%ADD37R,0.8500X0.7500*%
G04:AMPARAMS|DCode=38|XSize=0.85mm|YSize=0.75mm|CornerRadius=0.1875mm|HoleSize=0mm|Usage=FLASHONLY|Rotation=0.000|XOffset=0mm|YOffset=0mm|HoleType=Round|Shape=RoundedRectangle|*
%AMROUNDEDRECTD38*
21,1,0.8500,0.3750,0,0,0.0*
21,1,0.4750,0.7500,0,0,0.0*
1,1,0.3750,0.2375,-0.1875*
1,1,0.3750,-0.2375,-0.1875*
1,1,0.3750,-0.2375,0.1875*
1,1,0.3750,0.2375,0.1875*
%
%ADD38ROUNDEDRECTD38*%
%ADD39R,1.0000X0.5500*%
%ADD40C,0.3000*%
%ADD41C,0.1500*%
%ADD42C,0.2000*%
%ADD43C,0.2500*%
%ADD44C,0.2934*%
%ADD45C,0.2540*%
%ADD46C,0.1000*%
%ADD47C,1.8000*%
%ADD48R,1.8000X1.8000*%
%ADD49C,2.3000*%
%ADD50C,2.1000*%
%ADD51C,0.7000*%
%ADD52C,0.4500*%
%ADD53C,0.5000*%
G36*
X1150196Y1736620D02*
Y1693161D01*
X1133728Y1676693D01*
X1132804Y1677076D01*
Y1692000D01*
X1137500D01*
Y1702000D01*
X1126500D01*
Y1693522D01*
X1125576Y1693139D01*
X1123250Y1695465D01*
Y1702000D01*
X1112250D01*
Y1693704D01*
X1110761D01*
X1109000Y1695465D01*
Y1702000D01*
X1098000D01*
Y1692000D01*
X1104535D01*
X1107617Y1688918D01*
X1108527Y1688310D01*
X1109118Y1688192D01*
X1109632Y1687161D01*
X1109497Y1686958D01*
X1109167Y1685300D01*
X1109497Y1683642D01*
X1110436Y1682236D01*
X1110696Y1682062D01*
Y1666161D01*
X1102589Y1658054D01*
X1068250D01*
X1067177Y1657840D01*
X1066267Y1657233D01*
X1055583Y1646548D01*
X1054659Y1646931D01*
Y1669500D01*
X1056300D01*
Y1680500D01*
X1050559D01*
Y1684005D01*
X1060750D01*
Y1685446D01*
X1070829D01*
X1070836Y1685436D01*
X1072242Y1684497D01*
X1073900Y1684167D01*
X1074082Y1684203D01*
X1077970Y1680315D01*
X1077768Y1680052D01*
X1076559Y1677133D01*
X1076146Y1674000D01*
X1076559Y1670867D01*
X1077768Y1667948D01*
X1079691Y1665441D01*
X1082198Y1663518D01*
X1085117Y1662309D01*
X1088250Y1661896D01*
X1091383Y1662309D01*
X1094302Y1663518D01*
X1096808Y1665441D01*
X1098732Y1667948D01*
X1099941Y1670867D01*
X1100354Y1674000D01*
X1099941Y1677133D01*
X1098732Y1680052D01*
X1096808Y1682558D01*
X1094302Y1684482D01*
X1091383Y1685691D01*
X1088250Y1686104D01*
X1085117Y1685691D01*
X1082198Y1684482D01*
X1081935Y1684280D01*
X1078147Y1688068D01*
X1078233Y1688500D01*
X1077903Y1690158D01*
X1077523Y1690727D01*
X1077983Y1691839D01*
X1078413Y1691924D01*
X1079406Y1692587D01*
X1081963Y1695145D01*
X1081963Y1695145D01*
X1082626Y1696137D01*
X1082859Y1697307D01*
X1082859Y1697307D01*
Y1704450D01*
X1082859Y1704450D01*
X1082626Y1705621D01*
X1082539Y1705750D01*
X1083074Y1706750D01*
X1092500D01*
Y1716750D01*
X1086326D01*
X1083509Y1719567D01*
Y1721275D01*
X1083276Y1722445D01*
X1082613Y1723438D01*
X1081278Y1724772D01*
X1081661Y1725696D01*
X1125000D01*
X1126073Y1725910D01*
X1126983Y1726517D01*
X1131935Y1731470D01*
X1132198Y1731268D01*
X1135117Y1730059D01*
X1138250Y1729646D01*
X1141383Y1730059D01*
X1144302Y1731268D01*
X1146808Y1733192D01*
X1148732Y1735698D01*
X1149196Y1736819D01*
X1150196Y1736620D01*
D02*
G37*
G36*
X1149196Y1845671D02*
Y1816957D01*
X1148272Y1816574D01*
X1142164Y1822683D01*
X1141254Y1823290D01*
X1140181Y1823504D01*
X1125900D01*
Y1825700D01*
X1114900D01*
Y1825386D01*
X1113900Y1824775D01*
X1112600Y1825033D01*
X1110942Y1824703D01*
X1109536Y1823764D01*
X1108597Y1822358D01*
X1108267Y1820700D01*
X1108597Y1819042D01*
X1109536Y1817636D01*
X1110942Y1816697D01*
X1112600Y1816367D01*
X1113900Y1816625D01*
X1114900Y1816014D01*
Y1815700D01*
X1125900D01*
Y1817896D01*
X1139020D01*
X1146618Y1810298D01*
Y1793278D01*
X1146832Y1792205D01*
X1147439Y1791295D01*
X1150196Y1788539D01*
Y1746880D01*
X1149196Y1746681D01*
X1148732Y1747802D01*
X1146808Y1750309D01*
X1144302Y1752232D01*
X1141383Y1753441D01*
X1138250Y1753854D01*
X1135117Y1753441D01*
X1132198Y1752232D01*
X1129691Y1750309D01*
X1127768Y1747802D01*
X1126559Y1744883D01*
X1126146Y1741750D01*
X1126559Y1738617D01*
X1127768Y1735698D01*
X1127970Y1735435D01*
X1123839Y1731304D01*
X1053600D01*
X1052527Y1731090D01*
X1051617Y1730483D01*
X1045117Y1723983D01*
X1044510Y1723073D01*
X1044296Y1722000D01*
Y1721638D01*
X1044036Y1721464D01*
X1043097Y1720058D01*
X1042767Y1718400D01*
X1043045Y1717000D01*
X1042481Y1716000D01*
X1039250D01*
Y1708250D01*
X1036500D01*
X1036500Y1708250D01*
Y1708250D01*
X1035720Y1708745D01*
X1021052Y1723413D01*
X1021374Y1724360D01*
X1022883Y1724559D01*
X1025802Y1725768D01*
X1028308Y1727691D01*
X1030232Y1730198D01*
X1031441Y1733117D01*
X1031854Y1736250D01*
X1031441Y1739383D01*
X1030232Y1742302D01*
X1028603Y1744425D01*
X1028659Y1745532D01*
X1028753Y1745728D01*
X1029364Y1746136D01*
X1030303Y1747542D01*
X1030633Y1749200D01*
X1030303Y1750858D01*
X1029364Y1752264D01*
X1029440Y1753242D01*
X1029570Y1753419D01*
X1029958Y1753497D01*
X1031364Y1754436D01*
X1032303Y1755842D01*
X1032633Y1757500D01*
X1032541Y1757963D01*
X1033448Y1758527D01*
X1034542Y1757797D01*
X1036200Y1757467D01*
X1037074Y1757641D01*
X1037882Y1756782D01*
X1037667Y1755700D01*
X1037997Y1754042D01*
X1038936Y1752636D01*
X1040342Y1751697D01*
X1042000Y1751367D01*
X1043658Y1751697D01*
X1045064Y1752636D01*
X1046003Y1754042D01*
X1046333Y1755700D01*
X1046256Y1756086D01*
X1047157Y1756687D01*
X1047442Y1756497D01*
X1049100Y1756167D01*
X1050758Y1756497D01*
X1052164Y1757436D01*
X1053103Y1758842D01*
X1054100Y1758726D01*
Y1758000D01*
X1065100D01*
Y1768000D01*
X1062659D01*
Y1774000D01*
X1062659Y1774000D01*
X1062426Y1775170D01*
X1061763Y1776163D01*
X1061763Y1776163D01*
X1057063Y1780863D01*
X1056070Y1781526D01*
X1055401Y1781659D01*
X1055280Y1781998D01*
X1055936Y1782839D01*
X1061800D01*
X1063009Y1783080D01*
X1064035Y1783765D01*
X1064460Y1784400D01*
X1065632Y1784642D01*
X1068100Y1782174D01*
Y1776100D01*
X1078183D01*
X1078454Y1775919D01*
X1080600Y1775492D01*
X1082431Y1775856D01*
X1082500Y1775800D01*
Y1775800D01*
X1093500D01*
Y1783260D01*
X1094500Y1783674D01*
X1096900Y1781274D01*
Y1775600D01*
X1107900D01*
Y1777740D01*
X1108071Y1777774D01*
X1109063Y1778437D01*
X1116076Y1785450D01*
X1130550D01*
Y1787297D01*
X1131432Y1787768D01*
X1131954Y1787419D01*
X1134100Y1786992D01*
X1136246Y1787419D01*
X1138065Y1788635D01*
X1139281Y1790454D01*
X1139708Y1792600D01*
X1139281Y1794746D01*
X1138065Y1796565D01*
X1136246Y1797781D01*
X1134100Y1798208D01*
X1131954Y1797781D01*
X1131432Y1797432D01*
X1130550Y1797903D01*
Y1799450D01*
X1112050D01*
Y1790076D01*
X1107574Y1785600D01*
X1101226D01*
X1097063Y1789763D01*
X1096070Y1790426D01*
X1094900Y1790659D01*
X1094900Y1790659D01*
X1076067D01*
X1068708Y1798017D01*
X1069091Y1798941D01*
X1071400D01*
X1071400Y1798941D01*
X1072570Y1799174D01*
X1073563Y1799837D01*
X1076526Y1802800D01*
X1082700D01*
Y1804741D01*
X1085900D01*
Y1802800D01*
X1096683D01*
X1096954Y1802619D01*
X1099100Y1802192D01*
X1101246Y1802619D01*
X1103065Y1803835D01*
X1104281Y1805654D01*
X1104708Y1807800D01*
X1104281Y1809946D01*
X1103069Y1811760D01*
Y1819770D01*
X1103465Y1820035D01*
X1104681Y1821854D01*
X1105108Y1824000D01*
X1104681Y1826146D01*
X1103465Y1827965D01*
X1101646Y1829181D01*
X1099500Y1829608D01*
X1097354Y1829181D01*
X1097083Y1829000D01*
X1086200D01*
Y1827059D01*
X1082700D01*
Y1829000D01*
X1072279D01*
X1071865Y1830000D01*
X1072483Y1830617D01*
X1073090Y1831527D01*
X1073304Y1832600D01*
Y1845003D01*
X1078177Y1849876D01*
X1091180D01*
X1092253Y1850090D01*
X1093163Y1850697D01*
X1095165Y1852700D01*
X1111600D01*
Y1863700D01*
X1112498Y1863946D01*
X1130921D01*
X1149196Y1845671D01*
D02*
G37*
G36*
X1044441Y1679419D02*
Y1678800D01*
X1044441Y1678800D01*
X1044674Y1677630D01*
X1045337Y1676637D01*
X1046300Y1675674D01*
Y1669500D01*
X1048541D01*
Y1645170D01*
X1041430Y1638059D01*
X991000D01*
Y1642200D01*
X989059D01*
Y1651733D01*
X997186Y1659861D01*
X998083Y1659418D01*
X997896Y1658000D01*
X998309Y1654867D01*
X999518Y1651948D01*
X1001441Y1649442D01*
X1003948Y1647518D01*
X1006867Y1646309D01*
X1010000Y1645896D01*
X1013133Y1646309D01*
X1016052Y1647518D01*
X1018559Y1649442D01*
X1020482Y1651948D01*
X1021230Y1653755D01*
X1022313D01*
X1023268Y1651448D01*
X1025191Y1648941D01*
X1027698Y1647018D01*
X1030617Y1645809D01*
X1033750Y1645397D01*
X1036883Y1645809D01*
X1039802Y1647018D01*
X1042309Y1648941D01*
X1044232Y1651448D01*
X1045441Y1654367D01*
X1045854Y1657500D01*
X1045441Y1660633D01*
X1044232Y1663552D01*
X1042309Y1666059D01*
X1039802Y1667982D01*
X1036883Y1669191D01*
X1036554Y1669234D01*
Y1678196D01*
X1040750D01*
X1041823Y1678410D01*
X1042733Y1679017D01*
X1043517Y1679802D01*
X1044441Y1679419D01*
D02*
G37*
G36*
X1009500Y1696500D02*
Y1689000D01*
X1009691D01*
Y1685750D01*
X1007750D01*
Y1679076D01*
X998927Y1670252D01*
X997769Y1670509D01*
X997064Y1671564D01*
X995658Y1672503D01*
X994000Y1672833D01*
X992342Y1672503D01*
X990936Y1671564D01*
X989997Y1670158D01*
X989667Y1668500D01*
X989728Y1668193D01*
X987596Y1666061D01*
X986416Y1666296D01*
X985482Y1668552D01*
X983559Y1671059D01*
X981052Y1672982D01*
X978133Y1674191D01*
X975000Y1674604D01*
X971867Y1674191D01*
X968948Y1672982D01*
X966441Y1671059D01*
X964518Y1668552D01*
X963309Y1665633D01*
X962896Y1662500D01*
X963309Y1659367D01*
X964518Y1656448D01*
X966441Y1653941D01*
X968948Y1652018D01*
X971867Y1650809D01*
X975000Y1650396D01*
X978133Y1650809D01*
X981052Y1652018D01*
X981941Y1652701D01*
X982941Y1652207D01*
Y1642200D01*
X981000D01*
Y1635626D01*
X978633Y1633259D01*
X970967D01*
X958559Y1645667D01*
Y1674233D01*
X972826Y1688500D01*
X979000D01*
Y1690441D01*
X982000D01*
Y1688500D01*
X993000D01*
Y1689691D01*
X996500D01*
Y1689000D01*
X1004000D01*
Y1695006D01*
X1004500Y1695417D01*
X1006158Y1695747D01*
X1007564Y1696686D01*
X1007738Y1696946D01*
X1008685D01*
X1009500Y1696500D01*
D02*
G37*
G36*
X1008550Y1884300D02*
Y1877150D01*
X1011246D01*
Y1872200D01*
X999300D01*
Y1864522D01*
X996517Y1861739D01*
X996403Y1861568D01*
X995937Y1861475D01*
X994425Y1861776D01*
X989675D01*
X988163Y1861475D01*
X986881Y1860619D01*
X986025Y1859337D01*
X985724Y1857825D01*
Y1857048D01*
X984800Y1856665D01*
X983733Y1857733D01*
X982823Y1858340D01*
X982550Y1858395D01*
Y1860750D01*
X971550D01*
Y1859304D01*
X965238D01*
X965064Y1859564D01*
X963658Y1860503D01*
X962000Y1860833D01*
X960342Y1860503D01*
X958936Y1859564D01*
X957997Y1858158D01*
X957667Y1856500D01*
X957997Y1854842D01*
X958936Y1853436D01*
X960342Y1852497D01*
X962000Y1852167D01*
X963658Y1852497D01*
X965064Y1853436D01*
X965238Y1853696D01*
X971550D01*
Y1850750D01*
X982550D01*
X982550Y1850750D01*
Y1850750D01*
X983311Y1850224D01*
X997196Y1836339D01*
Y1833161D01*
X996800D01*
X995591Y1832920D01*
X994565Y1832235D01*
X993880Y1831210D01*
X993639Y1830000D01*
X993673Y1829832D01*
X993038Y1829059D01*
X988850D01*
Y1831300D01*
X977850D01*
Y1829869D01*
X974600D01*
Y1831300D01*
X963600D01*
Y1829239D01*
X960850D01*
Y1834024D01*
X961315Y1834335D01*
X962531Y1836154D01*
X962958Y1838300D01*
X962531Y1840446D01*
X961315Y1842265D01*
X959496Y1843481D01*
X957350Y1843908D01*
X955204Y1843481D01*
X953385Y1842265D01*
X952169Y1840446D01*
X951742Y1838300D01*
X952169Y1836154D01*
X953385Y1834335D01*
X953850Y1834024D01*
Y1822550D01*
X960850D01*
Y1822611D01*
X963600D01*
Y1821300D01*
X974600D01*
Y1822731D01*
X977850D01*
Y1821300D01*
X988850D01*
Y1822941D01*
X996287D01*
X996800Y1822839D01*
X1003200D01*
X1004409Y1823080D01*
X1005435Y1823765D01*
X1006120Y1824790D01*
X1006361Y1826000D01*
X1006120Y1827209D01*
X1005592Y1828000D01*
X1006120Y1828790D01*
X1006361Y1830000D01*
X1006303Y1830290D01*
X1007010Y1830997D01*
X1007300Y1830939D01*
X1008510Y1831180D01*
X1009300Y1831708D01*
X1010090Y1831180D01*
X1011300Y1830939D01*
X1012510Y1831180D01*
X1013300Y1831708D01*
X1014090Y1831180D01*
X1015300Y1830939D01*
X1016510Y1831180D01*
X1017300Y1831708D01*
X1018091Y1831180D01*
X1019300Y1830939D01*
X1020510Y1831180D01*
X1021300Y1831708D01*
X1022091Y1831180D01*
X1023300Y1830939D01*
X1024510Y1831180D01*
X1025300Y1831708D01*
X1026090Y1831180D01*
X1027300Y1830939D01*
X1028510Y1831180D01*
X1029300Y1831708D01*
X1030090Y1831180D01*
X1031300Y1830939D01*
X1032510Y1831180D01*
X1033300Y1831708D01*
X1034090Y1831180D01*
X1035300Y1830939D01*
X1036509Y1831180D01*
X1037300Y1831708D01*
X1038090Y1831180D01*
X1039300Y1830939D01*
X1040509Y1831180D01*
X1041300Y1831708D01*
X1042090Y1831180D01*
X1043300Y1830939D01*
X1044510Y1831180D01*
X1045300Y1831708D01*
X1046090Y1831180D01*
X1047300Y1830939D01*
X1048510Y1831180D01*
X1049300Y1831708D01*
X1050090Y1831180D01*
X1051300Y1830939D01*
X1051590Y1830997D01*
X1052297Y1830290D01*
X1052239Y1830000D01*
X1052480Y1828790D01*
X1053008Y1828000D01*
X1052480Y1827209D01*
X1052239Y1826000D01*
X1052480Y1824790D01*
X1053008Y1824000D01*
X1052480Y1823210D01*
X1052239Y1822000D01*
X1052480Y1820790D01*
X1053008Y1820000D01*
X1052480Y1819209D01*
X1052239Y1818000D01*
X1052480Y1816790D01*
X1053008Y1816000D01*
X1052480Y1815210D01*
X1052239Y1814000D01*
X1052480Y1812790D01*
X1053008Y1812000D01*
X1052480Y1811210D01*
X1052239Y1810000D01*
X1052480Y1808790D01*
X1053008Y1808000D01*
X1052480Y1807209D01*
X1052239Y1806000D01*
X1052480Y1804790D01*
X1053008Y1804000D01*
X1052480Y1803210D01*
X1052239Y1802000D01*
X1052480Y1800791D01*
X1053008Y1800000D01*
X1052480Y1799210D01*
X1052239Y1798000D01*
X1052480Y1796790D01*
X1053165Y1795765D01*
X1054190Y1795080D01*
X1055400Y1794839D01*
X1061800D01*
X1062313Y1794941D01*
X1063133D01*
X1064015Y1794059D01*
X1063601Y1793059D01*
X1062313D01*
X1061800Y1793161D01*
X1055400D01*
X1054190Y1792920D01*
X1053165Y1792235D01*
X1052480Y1791210D01*
X1052239Y1790000D01*
X1052480Y1788790D01*
X1053008Y1788000D01*
X1052480Y1787210D01*
X1052239Y1786000D01*
X1052297Y1785710D01*
X1051590Y1785003D01*
X1051300Y1785061D01*
X1050090Y1784820D01*
X1049300Y1784292D01*
X1048510Y1784820D01*
X1047300Y1785061D01*
X1046090Y1784820D01*
X1045300Y1784292D01*
X1044510Y1784820D01*
X1043300Y1785061D01*
X1042090Y1784820D01*
X1041300Y1784292D01*
X1040509Y1784820D01*
X1039300Y1785061D01*
X1038090Y1784820D01*
X1037300Y1784292D01*
X1036509Y1784820D01*
X1035300Y1785061D01*
X1034090Y1784820D01*
X1033300Y1784292D01*
X1032510Y1784820D01*
X1031300Y1785061D01*
X1030090Y1784820D01*
X1029300Y1784292D01*
X1028510Y1784820D01*
X1027300Y1785061D01*
X1026090Y1784820D01*
X1025300Y1784292D01*
X1024510Y1784820D01*
X1023300Y1785061D01*
X1022091Y1784820D01*
X1021300Y1784292D01*
X1020510Y1784820D01*
X1019300Y1785061D01*
X1018091Y1784820D01*
X1017300Y1784292D01*
X1016510Y1784820D01*
X1015300Y1785061D01*
X1014090Y1784820D01*
X1013300Y1784292D01*
X1012510Y1784820D01*
X1011300Y1785061D01*
X1010090Y1784820D01*
X1009300Y1784292D01*
X1008510Y1784820D01*
X1007300Y1785061D01*
X1007010Y1785003D01*
X1006303Y1785710D01*
X1006361Y1786000D01*
X1006120Y1787210D01*
X1005592Y1788000D01*
X1006120Y1788790D01*
X1006361Y1790000D01*
X1006120Y1791210D01*
X1005592Y1792000D01*
X1006120Y1792791D01*
X1006361Y1794000D01*
X1006120Y1795210D01*
X1005592Y1796000D01*
X1006120Y1796790D01*
X1006361Y1798000D01*
X1006120Y1799210D01*
X1005592Y1800000D01*
X1006120Y1800791D01*
X1006361Y1802000D01*
X1006120Y1803210D01*
X1005592Y1804000D01*
X1006120Y1804790D01*
X1006361Y1806000D01*
X1006120Y1807209D01*
X1005592Y1808000D01*
X1006120Y1808790D01*
X1006361Y1810000D01*
X1006120Y1811210D01*
X1005592Y1812000D01*
X1006120Y1812790D01*
X1006361Y1814000D01*
X1006120Y1815210D01*
X1005592Y1816000D01*
X1006120Y1816790D01*
X1006361Y1818000D01*
X1006120Y1819209D01*
X1005435Y1820235D01*
X1004409Y1820920D01*
X1003200Y1821161D01*
X996800D01*
X995591Y1820920D01*
X994565Y1820235D01*
X993880Y1819209D01*
X993639Y1818000D01*
X993717Y1817607D01*
X993083Y1816834D01*
X959802D01*
Y1819602D01*
X949802D01*
Y1808602D01*
X959802D01*
Y1811165D01*
X993083D01*
X993717Y1810392D01*
X993639Y1810000D01*
X993717Y1809608D01*
X993083Y1808834D01*
X988684D01*
Y1808895D01*
X985195Y1808436D01*
X981944Y1807089D01*
X979153Y1804947D01*
X979196Y1804904D01*
X979196Y1804904D01*
X971641Y1797350D01*
X971636Y1797342D01*
X969815Y1795944D01*
X967685Y1795062D01*
X965409Y1794763D01*
X965400Y1794765D01*
X961702D01*
Y1797002D01*
X951702D01*
Y1786002D01*
X961702D01*
Y1789096D01*
X965400D01*
Y1789025D01*
X969170Y1789522D01*
X972683Y1790977D01*
X973337Y1791479D01*
X974244Y1790914D01*
X974241Y1790900D01*
X974241Y1790900D01*
Y1783317D01*
X973174Y1782250D01*
X967000D01*
Y1771250D01*
X968941D01*
Y1768250D01*
X963220D01*
Y1768064D01*
X953651D01*
X953215Y1768715D01*
X951396Y1769931D01*
X949250Y1770358D01*
X947104Y1769931D01*
X945285Y1768715D01*
X944069Y1766896D01*
X943642Y1764750D01*
X944069Y1762604D01*
X945285Y1760785D01*
X947104Y1759569D01*
X949250Y1759142D01*
X951396Y1759569D01*
X953215Y1760785D01*
X953651Y1761436D01*
X963220D01*
Y1761250D01*
X963281D01*
Y1758250D01*
X962250D01*
Y1747250D01*
X963681D01*
Y1744000D01*
X962250D01*
Y1733000D01*
X967879D01*
X968334Y1732000D01*
X968162Y1731804D01*
X927000D01*
X925927Y1731590D01*
X925017Y1730983D01*
X922696Y1728661D01*
X922378Y1728652D01*
X921583Y1728894D01*
X920482Y1731552D01*
X918559Y1734059D01*
X916052Y1735982D01*
X913133Y1737191D01*
X910000Y1737604D01*
X906867Y1737191D01*
X903948Y1735982D01*
X901441Y1734059D01*
X899518Y1731552D01*
X898309Y1728633D01*
X897896Y1725500D01*
X898309Y1722367D01*
X899518Y1719448D01*
X901441Y1716942D01*
X903948Y1715018D01*
X906867Y1713809D01*
X907282Y1713754D01*
Y1712746D01*
X906867Y1712691D01*
X903948Y1711482D01*
X901441Y1709559D01*
X899518Y1707052D01*
X898309Y1704133D01*
X897896Y1701000D01*
X898309Y1697867D01*
X899518Y1694948D01*
X901441Y1692442D01*
X903948Y1690518D01*
X906867Y1689309D01*
X910000Y1688896D01*
X913133Y1689309D01*
X916052Y1690518D01*
X918559Y1692442D01*
X920482Y1694948D01*
X921691Y1697867D01*
X922104Y1701000D01*
X921691Y1704133D01*
X920482Y1707052D01*
X920280Y1707315D01*
X930661Y1717696D01*
X955762D01*
X955936Y1717436D01*
X957342Y1716497D01*
X958614Y1716243D01*
X959012Y1715227D01*
X919089Y1675304D01*
X912484D01*
X912441Y1675633D01*
X911232Y1678552D01*
X909308Y1681059D01*
X906802Y1682982D01*
X903883Y1684191D01*
X900750Y1684604D01*
X897617Y1684191D01*
X894698Y1682982D01*
X892191Y1681059D01*
X890268Y1678552D01*
X889059Y1675633D01*
X888646Y1672500D01*
X889059Y1669367D01*
X890268Y1666448D01*
X892191Y1663941D01*
X894698Y1662018D01*
X897617Y1660809D01*
X900750Y1660397D01*
X903883Y1660809D01*
X906802Y1662018D01*
X909308Y1663941D01*
X911232Y1666448D01*
X912441Y1669367D01*
X912484Y1669696D01*
X920250D01*
X921323Y1669910D01*
X922233Y1670517D01*
X923429Y1671714D01*
X924376Y1671247D01*
X924146Y1669500D01*
X924559Y1666367D01*
X925768Y1663448D01*
X927691Y1660941D01*
X930198Y1659018D01*
X933117Y1657809D01*
X936250Y1657396D01*
X939383Y1657809D01*
X942302Y1659018D01*
X944809Y1660941D01*
X946732Y1663448D01*
X947941Y1666367D01*
X948354Y1669500D01*
X947941Y1672633D01*
X946732Y1675552D01*
X946530Y1675815D01*
X947733Y1677017D01*
X948340Y1677927D01*
X948554Y1679000D01*
Y1686089D01*
X975411Y1712946D01*
X978012D01*
X978186Y1712686D01*
X979592Y1711747D01*
X981250Y1711417D01*
X982908Y1711747D01*
X984314Y1712686D01*
X985156Y1713946D01*
X999339D01*
X1003000Y1710285D01*
Y1703785D01*
X1002842Y1703753D01*
X1001436Y1702814D01*
X1000497Y1701408D01*
X1000167Y1699750D01*
X1000497Y1698092D01*
X1000892Y1697500D01*
X1000358Y1696500D01*
X996500D01*
Y1695809D01*
X993000D01*
Y1698500D01*
X982000D01*
Y1696559D01*
X979000D01*
Y1698500D01*
X968000D01*
Y1692326D01*
X953337Y1677663D01*
X952674Y1676671D01*
X952441Y1675500D01*
X952441Y1675500D01*
Y1644400D01*
X952441Y1644400D01*
X952674Y1643230D01*
X953337Y1642237D01*
X967537Y1628037D01*
X967537Y1628037D01*
X968530Y1627374D01*
X969700Y1627141D01*
X969700Y1627141D01*
X979900D01*
X979900Y1627141D01*
X980900Y1627340D01*
X981546Y1627002D01*
X981900Y1626726D01*
Y1625359D01*
X962067D01*
X955313Y1632113D01*
X954321Y1632776D01*
X953150Y1633009D01*
X953150Y1633009D01*
X949717D01*
X946337Y1636389D01*
X946382Y1636448D01*
X947591Y1639367D01*
X948004Y1642500D01*
X947591Y1645633D01*
X946382Y1648552D01*
X944458Y1651059D01*
X941952Y1652982D01*
X939033Y1654191D01*
X935900Y1654603D01*
X932767Y1654191D01*
X929848Y1652982D01*
X927342Y1651059D01*
X925418Y1648552D01*
X924209Y1645633D01*
X923796Y1642500D01*
X924209Y1639367D01*
X925418Y1636448D01*
X927342Y1633941D01*
X929848Y1632018D01*
X932767Y1630809D01*
X935900Y1630396D01*
X939033Y1630809D01*
X941952Y1632018D01*
X942011Y1632063D01*
X946287Y1627787D01*
X946287Y1627787D01*
X947279Y1627124D01*
X948450Y1626891D01*
X951883D01*
X958637Y1620137D01*
X958637Y1620137D01*
X959629Y1619474D01*
X960800Y1619241D01*
X981900D01*
Y1618004D01*
X953861D01*
X944133Y1627733D01*
X943223Y1628340D01*
X942150Y1628554D01*
X921911D01*
X918500Y1631965D01*
Y1638500D01*
X908500D01*
Y1627500D01*
X910196D01*
Y1614500D01*
X907500D01*
Y1607965D01*
X901918Y1602383D01*
X901000Y1602500D01*
Y1602500D01*
X901000Y1602500D01*
X887500D01*
Y1593143D01*
X884267Y1589911D01*
X883993Y1589500D01*
X881250D01*
Y1587569D01*
X879730D01*
X879465Y1587965D01*
X877646Y1589181D01*
X875500Y1589608D01*
X873354Y1589181D01*
X871535Y1587965D01*
X870319Y1586146D01*
X869892Y1584000D01*
X870319Y1581854D01*
X871535Y1580035D01*
X873354Y1578819D01*
X875500Y1578392D01*
X877646Y1578819D01*
X879465Y1580035D01*
X879730Y1580431D01*
X881250D01*
Y1578500D01*
X891250D01*
Y1588963D01*
X892983Y1590695D01*
X893590Y1591605D01*
X893768Y1592500D01*
X901000D01*
Y1594696D01*
X902073Y1594910D01*
X902983Y1595517D01*
X906576Y1599111D01*
X907500Y1598728D01*
Y1593500D01*
X910196D01*
Y1582411D01*
X904589Y1576804D01*
X869192D01*
X869085Y1576964D01*
X869004Y1577155D01*
X868948Y1577211D01*
X868737Y1577526D01*
X868700Y1577712D01*
X868700Y1590706D01*
Y1599339D01*
X868700Y1599339D01*
X868700Y1599339D01*
Y1610750D01*
X877250D01*
Y1613696D01*
X881000D01*
Y1611500D01*
X894500D01*
Y1621500D01*
X881000D01*
Y1619304D01*
X877250D01*
Y1620750D01*
X869407D01*
X868700Y1621457D01*
Y1622577D01*
X868700Y1783329D01*
Y1784743D01*
X869407Y1785450D01*
X882550D01*
Y1789616D01*
X885800D01*
Y1786600D01*
X896800D01*
Y1788667D01*
X900802D01*
Y1786002D01*
X910802D01*
Y1797002D01*
X900802D01*
Y1794336D01*
X896800D01*
Y1796600D01*
X885800D01*
Y1795284D01*
X882550D01*
Y1799450D01*
X869407D01*
X868700Y1800157D01*
Y1805950D01*
X882550D01*
Y1811267D01*
X938802D01*
Y1808602D01*
X948802D01*
Y1819602D01*
X938802D01*
Y1816936D01*
X882550D01*
Y1819950D01*
X869407D01*
X868700Y1820657D01*
X868700Y1884099D01*
X868733Y1884267D01*
X868901Y1884300D01*
X1008550D01*
D02*
G37*
G36*
X1006943Y1889073D02*
X1004731Y1886339D01*
X869040D01*
X868901Y1886339D01*
X868901Y1886339D01*
X868704Y1886300D01*
X868503Y1886300D01*
X868503Y1886300D01*
X868335Y1886267D01*
X868335Y1886267D01*
X868335Y1886267D01*
X868150Y1886190D01*
X868120Y1886184D01*
X868120Y1886184D01*
X868095Y1886167D01*
X867600Y1885962D01*
X867038Y1885399D01*
X866833Y1884905D01*
X866816Y1884880D01*
X866810Y1884850D01*
X866733Y1884665D01*
X866733Y1884664D01*
X866733Y1884664D01*
X866700Y1884497D01*
X866700Y1884497D01*
X866700Y1884296D01*
X866661Y1884099D01*
X866661Y1884099D01*
X866661Y1884023D01*
X866661Y1820657D01*
X864050Y1819950D01*
Y1815778D01*
X861706Y1815469D01*
X859241Y1814449D01*
X858147Y1813609D01*
X858066Y1813610D01*
X855106Y1814870D01*
X854802Y1817174D01*
X853442Y1820458D01*
X851278Y1823278D01*
X848458Y1825442D01*
X845174Y1826803D01*
X841650Y1827267D01*
X838126Y1826803D01*
X834842Y1825442D01*
X832022Y1823278D01*
X829858Y1820458D01*
X828497Y1817174D01*
X828034Y1813650D01*
X828497Y1810126D01*
X829858Y1806842D01*
X832022Y1804022D01*
X834842Y1801858D01*
X838126Y1800497D01*
X841650Y1800034D01*
X845174Y1800497D01*
X848458Y1801858D01*
X851166Y1803935D01*
X851690Y1803855D01*
X854166Y1802856D01*
Y1798500D01*
X854153D01*
X853913Y1796674D01*
X853208Y1794973D01*
X852087Y1793513D01*
X850627Y1792392D01*
X848926Y1791687D01*
X847100Y1791447D01*
Y1791434D01*
X828439D01*
X828428Y1791513D01*
X827169Y1794554D01*
X825165Y1797165D01*
X822554Y1799169D01*
X819513Y1800428D01*
X816250Y1800858D01*
X812987Y1800428D01*
X810904Y1799565D01*
X807904Y1801046D01*
Y1876989D01*
X821261Y1890346D01*
X1006494D01*
X1006943Y1889073D01*
D02*
G37*
G36*
X1068600Y1863700D02*
Y1852700D01*
X1068600Y1852700D01*
X1068600D01*
X1068554Y1851719D01*
X1066017Y1849183D01*
X1065410Y1848273D01*
X1065196Y1847200D01*
Y1846755D01*
X1064196Y1846095D01*
X1063000Y1846333D01*
X1061342Y1846003D01*
X1059936Y1845064D01*
X1058997Y1843658D01*
X1058667Y1842000D01*
X1058728Y1841693D01*
X1057139Y1840104D01*
X1054461D01*
Y1840500D01*
X1054220Y1841709D01*
X1053535Y1842735D01*
X1052510Y1843420D01*
X1051300Y1843661D01*
X1050694Y1844506D01*
X1050670Y1844955D01*
X1053943Y1848228D01*
X1054250Y1848167D01*
X1055908Y1848497D01*
X1057314Y1849436D01*
X1058253Y1850842D01*
X1058583Y1852500D01*
X1058253Y1854158D01*
X1057314Y1855564D01*
X1055908Y1856503D01*
X1054250Y1856833D01*
X1052592Y1856503D01*
X1051186Y1855564D01*
X1051088Y1855417D01*
X1050146Y1855807D01*
X1050333Y1856750D01*
X1050003Y1858408D01*
X1049064Y1859814D01*
X1047794Y1860663D01*
X1047428Y1861711D01*
X1049663Y1863946D01*
X1067702D01*
X1068600Y1863700D01*
D02*
G37*
G36*
X1158330Y1884300D02*
X1159151Y1883300D01*
X1158892Y1882000D01*
X1159290Y1880000D01*
X1158925Y1879117D01*
X1158863Y1879000D01*
X1157250D01*
Y1859500D01*
X1157396D01*
Y1854876D01*
X1156472Y1854493D01*
X1138483Y1872483D01*
X1137573Y1873090D01*
X1136500Y1873304D01*
X1058576D01*
X1058193Y1874228D01*
X1058783Y1874817D01*
X1059390Y1875727D01*
X1059604Y1876800D01*
Y1877150D01*
X1062300D01*
Y1883593D01*
X1063007Y1884300D01*
X1158330D01*
D02*
G37*
G36*
X1173196Y1801339D02*
Y1628860D01*
X1173410Y1627787D01*
X1174017Y1626877D01*
X1174700Y1626195D01*
Y1617904D01*
X1161382D01*
X1156804Y1622482D01*
Y1631321D01*
X1156590Y1632394D01*
X1155983Y1633304D01*
X1153054Y1636233D01*
X1152144Y1636840D01*
X1151071Y1637054D01*
X1146929D01*
X1145856Y1636841D01*
X1144946Y1636233D01*
X1141953Y1633239D01*
X1140958Y1633903D01*
X1139300Y1634233D01*
X1137642Y1633903D01*
X1137186Y1633599D01*
X1136304Y1634070D01*
Y1671339D01*
X1154983Y1690017D01*
X1155590Y1690927D01*
X1155804Y1692000D01*
Y1703383D01*
X1156804Y1703871D01*
X1157250Y1703523D01*
Y1688500D01*
X1157346D01*
Y1655500D01*
X1157250D01*
Y1636000D01*
X1171250D01*
Y1655500D01*
X1162954D01*
Y1688500D01*
X1171250D01*
Y1708000D01*
X1160965D01*
X1159304Y1709661D01*
Y1722000D01*
X1171250D01*
Y1741500D01*
X1163354D01*
Y1774500D01*
X1171250D01*
Y1794000D01*
X1160965D01*
X1158304Y1796661D01*
Y1807000D01*
X1167535D01*
X1173196Y1801339D01*
D02*
G37*
G36*
X1112000Y1493000D02*
X1112000Y1454000D01*
X1015000Y1454000D01*
X1015000Y1493000D01*
X1112000Y1493000D01*
D02*
G37*
G36*
X1112000Y1496000D02*
X1015000Y1496000D01*
Y1531000D01*
X1112000Y1531000D01*
Y1496000D01*
D02*
G37*
G36*
X779563Y1210000D02*
X699437Y1082750D01*
X639188Y1121250D01*
X721312Y1247750D01*
X779563Y1210000D01*
D02*
G37*
G36*
X1130696Y1545174D02*
Y1476411D01*
X1119267Y1464983D01*
X1118660Y1464073D01*
X1118446Y1463000D01*
Y1452682D01*
X1117739Y1451975D01*
X1117739Y1451975D01*
X1114433D01*
X1114318Y1451997D01*
X1114246D01*
X1114213Y1452062D01*
X1114140Y1452153D01*
X1113764Y1452889D01*
X1113709Y1452958D01*
X1113884Y1453220D01*
X1114039Y1454000D01*
X1114039Y1493000D01*
X1113884Y1493780D01*
X1113442Y1494558D01*
X1113884Y1495220D01*
X1114039Y1496000D01*
Y1531000D01*
X1114285Y1531300D01*
X1117000D01*
Y1533586D01*
X1117623Y1533710D01*
X1118533Y1534317D01*
X1129772Y1545557D01*
X1130696Y1545174D01*
D02*
G37*
G36*
X1040052Y1631017D02*
X1027039Y1618004D01*
X1009900D01*
Y1627800D01*
X1000900D01*
Y1618004D01*
X990900D01*
Y1627800D01*
X989459D01*
Y1631200D01*
X991000D01*
Y1631941D01*
X1039669D01*
X1040052Y1631017D01*
D02*
G37*
G36*
X1145255Y1627205D02*
X1145936Y1626186D01*
X1146196Y1626012D01*
Y1619273D01*
X1143867Y1616944D01*
X1143260Y1616034D01*
X1143046Y1614961D01*
Y1600650D01*
X1143260Y1599577D01*
X1143867Y1598667D01*
X1155997Y1586538D01*
X1155567Y1585554D01*
X1150000D01*
X1148927Y1585340D01*
X1148017Y1584733D01*
X1147362Y1584077D01*
X1146299Y1584428D01*
X1146255Y1584721D01*
X1147003Y1585842D01*
X1147333Y1587500D01*
X1147003Y1589158D01*
X1146064Y1590564D01*
X1144658Y1591503D01*
X1143000Y1591833D01*
X1141342Y1591503D01*
X1139936Y1590564D01*
X1138997Y1589158D01*
X1138667Y1587500D01*
X1138997Y1585842D01*
X1139936Y1584436D01*
X1140196Y1584262D01*
Y1524750D01*
X1140410Y1523677D01*
X1141017Y1522767D01*
X1162017Y1501767D01*
X1162927Y1501160D01*
X1164000Y1500946D01*
X1173993D01*
X1174700Y1500239D01*
X1174700Y1454055D01*
Y1452883D01*
X1174663Y1452697D01*
X1174558Y1452540D01*
X1174135Y1452117D01*
X1173978Y1452012D01*
X1173792Y1451975D01*
X1124054Y1451975D01*
Y1461839D01*
X1135483Y1473267D01*
X1136090Y1474177D01*
X1136304Y1475250D01*
Y1625730D01*
X1137186Y1626201D01*
X1137642Y1625897D01*
X1139300Y1625567D01*
X1140958Y1625897D01*
X1142364Y1626836D01*
X1142538Y1627096D01*
X1142579D01*
X1143652Y1627310D01*
X1143988Y1627534D01*
X1144885Y1627585D01*
X1145255Y1627205D01*
D02*
G37*
G36*
X1156196Y1532200D02*
Y1527750D01*
X1155500D01*
Y1517750D01*
X1162500D01*
Y1527750D01*
X1161804D01*
Y1533361D01*
X1161590Y1534434D01*
X1160983Y1535343D01*
X1160500Y1535826D01*
X1160883Y1536750D01*
X1173993D01*
X1174700Y1536043D01*
Y1527750D01*
X1168500D01*
Y1517750D01*
X1173993D01*
X1174700Y1517043D01*
Y1506554D01*
X1165161D01*
X1145804Y1525911D01*
Y1541285D01*
X1146728Y1541668D01*
X1156196Y1532200D01*
D02*
G37*
G36*
X1119196Y1686639D02*
Y1621961D01*
X1117882Y1620647D01*
X1117000Y1620300D01*
Y1620300D01*
X1117000Y1620300D01*
X1106000D01*
Y1618869D01*
X1102250D01*
Y1623300D01*
X1090250D01*
Y1610300D01*
X1102250D01*
Y1611731D01*
X1106000D01*
Y1610300D01*
X1117000D01*
Y1612596D01*
X1117573Y1612710D01*
X1118483Y1613317D01*
X1121772Y1616607D01*
X1122696Y1616224D01*
Y1584461D01*
X1118000Y1579765D01*
X1117000Y1580179D01*
Y1581300D01*
X1106000D01*
Y1579869D01*
X1102250D01*
Y1584300D01*
X1090250D01*
Y1571300D01*
X1102250D01*
Y1572731D01*
X1106000D01*
Y1571300D01*
X1117000D01*
Y1573496D01*
X1118500D01*
X1119573Y1573710D01*
X1120483Y1574317D01*
X1126272Y1580107D01*
X1127196Y1579724D01*
Y1550911D01*
X1117902Y1541617D01*
X1117000Y1541300D01*
Y1541300D01*
X1117000Y1541300D01*
X1106000D01*
Y1539869D01*
X1102250D01*
Y1544300D01*
X1090250D01*
Y1533039D01*
X1015000Y1533039D01*
X1014220Y1532884D01*
X1013558Y1532442D01*
X1013116Y1531780D01*
X1012961Y1531000D01*
Y1496000D01*
X1013116Y1495220D01*
X1013558Y1494442D01*
X1013116Y1493780D01*
X1012961Y1493000D01*
X1012961Y1458176D01*
X1009598Y1454813D01*
X1008598Y1455228D01*
Y1464500D01*
X1004033D01*
Y1475500D01*
X1005500D01*
Y1484500D01*
X994500D01*
Y1483535D01*
X981900D01*
Y1486965D01*
X982001D01*
X983354Y1487234D01*
X984501Y1488000D01*
X991998Y1495498D01*
X994500D01*
Y1494500D01*
X1005500D01*
Y1503500D01*
X994500D01*
Y1502567D01*
X990534D01*
X989181Y1502298D01*
X988034Y1501532D01*
X982824Y1496322D01*
X981900Y1496704D01*
Y1502500D01*
X976785D01*
Y1512250D01*
X980250D01*
Y1523501D01*
X1007899Y1551150D01*
X1008666Y1552297D01*
X1008935Y1553650D01*
Y1590800D01*
X1009900D01*
Y1594165D01*
X1016800D01*
Y1592700D01*
X1027800D01*
Y1602700D01*
X1016800D01*
Y1601235D01*
X1009900D01*
Y1601800D01*
X1006302D01*
X1002336Y1605766D01*
X1001189Y1606533D01*
X999836Y1606802D01*
X991964D01*
X991964Y1606802D01*
X990611Y1606533D01*
X989464Y1605766D01*
X989464Y1605766D01*
X985498Y1601800D01*
X981900D01*
Y1590800D01*
X990900D01*
Y1597204D01*
X993428Y1599732D01*
X998372D01*
X1000900Y1597204D01*
Y1590800D01*
X1001865D01*
Y1587450D01*
X988600D01*
Y1585784D01*
X974237D01*
X973815Y1586415D01*
X971996Y1587631D01*
X969850Y1588058D01*
X967704Y1587631D01*
X965885Y1586415D01*
X964669Y1584596D01*
X964242Y1582450D01*
X964669Y1580304D01*
X965885Y1578485D01*
X967704Y1577269D01*
X969850Y1576842D01*
X971996Y1577269D01*
X973509Y1578280D01*
X974230Y1577559D01*
X973419Y1576346D01*
X972992Y1574200D01*
X973419Y1572054D01*
X974320Y1570705D01*
X973878Y1569629D01*
X973843Y1569624D01*
X973815Y1569665D01*
X971996Y1570881D01*
X969850Y1571308D01*
X967704Y1570881D01*
X965885Y1569665D01*
X964669Y1567846D01*
X964242Y1565700D01*
X964669Y1563554D01*
X965885Y1561735D01*
X967704Y1560519D01*
X969850Y1560092D01*
X971996Y1560519D01*
X973815Y1561735D01*
X974237Y1562366D01*
X988600D01*
Y1560950D01*
X1001865D01*
Y1555114D01*
X977501Y1530750D01*
X966250D01*
Y1512250D01*
X969715D01*
Y1502500D01*
X956100D01*
Y1478500D01*
X976001D01*
X977001Y1477500D01*
X978147Y1476734D01*
X979500Y1476465D01*
X979500Y1476465D01*
X994500D01*
Y1475500D01*
X996964D01*
Y1464500D01*
X992398D01*
Y1452682D01*
X991917Y1452201D01*
X991691Y1451975D01*
X981900D01*
Y1464500D01*
X956100D01*
Y1456035D01*
X942500D01*
X941147Y1455766D01*
X940001Y1455000D01*
X936976Y1451975D01*
X935009D01*
X933883Y1452441D01*
X930750Y1452854D01*
X927617Y1452441D01*
X926491Y1451975D01*
X868901Y1451975D01*
X868733Y1452008D01*
X868700Y1452176D01*
X868700Y1570995D01*
X868737Y1571181D01*
X868747Y1571196D01*
X905750D01*
X906823Y1571410D01*
X907733Y1572017D01*
X914983Y1579267D01*
X915591Y1580177D01*
X915804Y1581250D01*
Y1593500D01*
X918500D01*
Y1603500D01*
X913333D01*
X912861Y1604382D01*
X912940Y1604500D01*
X918500D01*
Y1614500D01*
X915804D01*
Y1625424D01*
X916728Y1625807D01*
X918767Y1623767D01*
X919677Y1623160D01*
X920750Y1622946D01*
X940989D01*
X950717Y1613217D01*
X951627Y1612610D01*
X952700Y1612396D01*
X1028200D01*
X1029273Y1612610D01*
X1030183Y1613217D01*
X1069411Y1652446D01*
X1103750D01*
X1104823Y1652660D01*
X1105733Y1653267D01*
X1115483Y1663017D01*
X1116090Y1663927D01*
X1116304Y1665000D01*
Y1682062D01*
X1116564Y1682236D01*
X1117503Y1683642D01*
X1117833Y1685300D01*
X1117514Y1686907D01*
X1117556Y1686970D01*
X1118427Y1687408D01*
X1119196Y1686639D01*
D02*
G37*
G36*
X1468677Y2477008D02*
X1477244Y2475552D01*
X1485595Y2473146D01*
X1493624Y2469821D01*
X1501230Y2465617D01*
X1508317Y2460588D01*
X1514797Y2454797D01*
X1520588Y2448317D01*
X1525617Y2441230D01*
X1529821Y2433624D01*
X1533146Y2425595D01*
X1535552Y2417244D01*
X1537008Y2408677D01*
X1537495Y2400000D01*
X1537008Y2391323D01*
X1535552Y2382756D01*
X1533146Y2374405D01*
X1529821Y2366376D01*
X1526582Y2360516D01*
X1525054Y2357977D01*
X1525054D01*
Y2357977D01*
X1523437Y2355454D01*
X1263260Y1950733D01*
X1263170Y1950504D01*
X1260025Y1944463D01*
X1255984Y1934707D01*
X1252809Y1924637D01*
X1250524Y1914329D01*
X1249145Y1903860D01*
X1248814Y1896274D01*
X1248685Y1893311D01*
X1248685Y1893300D01*
X1248751Y1890327D01*
Y1864584D01*
X1245979Y1863436D01*
X1205533Y1903883D01*
X1204623Y1904490D01*
X1203550Y1904704D01*
X1111609D01*
X1111600Y1907700D01*
X1111600Y1907704D01*
Y1918700D01*
X1091600D01*
Y1918700D01*
X1088600Y1918700D01*
X1088600Y1918700D01*
Y1918700D01*
X1068600D01*
Y1907704D01*
X1068600Y1907700D01*
X1068591Y1904704D01*
X1065550D01*
X1064477Y1904490D01*
X1063567Y1903883D01*
X1057835Y1898150D01*
X1051300D01*
Y1890150D01*
X1051300Y1888150D01*
X1051300Y1885150D01*
Y1880226D01*
X1049675Y1879287D01*
X1048050Y1880226D01*
X1048050Y1887150D01*
X1048050Y1890150D01*
Y1898150D01*
X1045354D01*
Y1919889D01*
X1061561Y1936096D01*
X1091400D01*
X1092473Y1936310D01*
X1093383Y1936917D01*
X1170885Y2014420D01*
X1171148Y2014218D01*
X1174067Y2013009D01*
X1177200Y2012596D01*
X1180333Y2013009D01*
X1183252Y2014218D01*
X1185759Y2016142D01*
X1187682Y2018648D01*
X1188891Y2021567D01*
X1189304Y2024700D01*
X1188891Y2027833D01*
X1187682Y2030752D01*
X1187480Y2031015D01*
X1269983Y2113517D01*
X1270590Y2114427D01*
X1270804Y2115500D01*
Y2122959D01*
X1271965Y2123735D01*
X1273181Y2125554D01*
X1273608Y2127700D01*
X1273181Y2129846D01*
X1271965Y2131665D01*
X1270146Y2132881D01*
X1268000Y2133308D01*
X1265854Y2132881D01*
X1264035Y2131665D01*
X1262819Y2129846D01*
X1262392Y2127700D01*
X1262819Y2125554D01*
X1264035Y2123735D01*
X1265196Y2122959D01*
Y2116661D01*
X1183515Y2034980D01*
X1183252Y2035182D01*
X1180333Y2036391D01*
X1177200Y2036803D01*
X1174067Y2036391D01*
X1171148Y2035182D01*
X1168642Y2033259D01*
X1166718Y2030752D01*
X1165509Y2027833D01*
X1165097Y2024700D01*
X1165509Y2021567D01*
X1166718Y2018648D01*
X1166920Y2018385D01*
X1090239Y1941704D01*
X1060400D01*
X1059327Y1941490D01*
X1058417Y1940883D01*
X1040567Y1923033D01*
X1039960Y1922123D01*
X1039746Y1921050D01*
Y1898150D01*
X1037050D01*
Y1890150D01*
X1037050Y1888150D01*
X1037050Y1885150D01*
Y1877150D01*
X1037050Y1877150D01*
X1037050D01*
X1036444Y1874270D01*
X1033876Y1871702D01*
X1031104Y1872850D01*
Y1877150D01*
X1033800D01*
Y1885150D01*
X1033800Y1887150D01*
X1033800Y1890150D01*
Y1898150D01*
X1031064D01*
X1030891Y1899023D01*
X1030283Y1899933D01*
X913780Y2016435D01*
X913982Y2016698D01*
X915191Y2019617D01*
X915604Y2022750D01*
X915191Y2025883D01*
X913982Y2028802D01*
X912058Y2031308D01*
X909552Y2033232D01*
X906633Y2034441D01*
X903500Y2034854D01*
X900367Y2034441D01*
X897448Y2033232D01*
X897185Y2033030D01*
X791579Y2138637D01*
X792229Y2140456D01*
X792905Y2141553D01*
X794746Y2141919D01*
X796565Y2143135D01*
X797781Y2144954D01*
X798208Y2147100D01*
X797781Y2149246D01*
X796565Y2151065D01*
X794746Y2152281D01*
X792600Y2152708D01*
X790454Y2152281D01*
X788635Y2151065D01*
X787419Y2149246D01*
X787053Y2147405D01*
X785499Y2146395D01*
X784163Y2145946D01*
X783572Y2146341D01*
X782499Y2146554D01*
X774363D01*
X773587Y2147716D01*
X771768Y2148931D01*
X769622Y2149358D01*
X767476Y2148931D01*
X765656Y2147716D01*
X764441Y2145896D01*
X764014Y2143750D01*
X764441Y2141604D01*
X765560Y2139929D01*
X765539Y2139560D01*
X765473Y2139301D01*
X764567Y2136905D01*
X763245Y2136642D01*
X761426Y2135427D01*
X760210Y2133607D01*
X759783Y2131461D01*
X760210Y2129316D01*
X761426Y2127496D01*
X763245Y2126281D01*
X765391Y2125854D01*
X767537Y2126281D01*
X769357Y2127496D01*
X770572Y2129316D01*
X770999Y2131461D01*
X770572Y2133607D01*
X769453Y2135283D01*
X769474Y2135652D01*
X769540Y2135911D01*
X770446Y2138307D01*
X771768Y2138570D01*
X773587Y2139785D01*
X774363Y2140947D01*
X781338D01*
X893220Y2029065D01*
X893018Y2028802D01*
X891809Y2025883D01*
X891396Y2022750D01*
X891809Y2019617D01*
X893018Y2016698D01*
X894941Y2014191D01*
X897448Y2012268D01*
X900367Y2011059D01*
X903500Y2010646D01*
X906633Y2011059D01*
X909552Y2012268D01*
X909815Y2012470D01*
X1021599Y1900686D01*
X1022800Y1898150D01*
X1022800D01*
X1022800Y1898150D01*
Y1890150D01*
X1022800Y1888150D01*
X1022800Y1885150D01*
Y1877150D01*
X1025496D01*
Y1869261D01*
X1019725Y1863490D01*
X1018783Y1863583D01*
X1016854Y1865511D01*
Y1877150D01*
X1019550D01*
Y1887150D01*
X1019550D01*
Y1888150D01*
X1019550D01*
Y1898150D01*
X1008550D01*
Y1895954D01*
X820100D01*
X819027Y1895740D01*
X818117Y1895133D01*
X803117Y1880133D01*
X802510Y1879223D01*
X802296Y1878150D01*
Y1825665D01*
X799296Y1824185D01*
X797658Y1825442D01*
X794374Y1826803D01*
X790850Y1827267D01*
X787326Y1826803D01*
X784042Y1825442D01*
X781222Y1823278D01*
X779058Y1820458D01*
X777698Y1817174D01*
X777234Y1813650D01*
X777698Y1810126D01*
X779058Y1806842D01*
X781222Y1804022D01*
X784042Y1801858D01*
X787326Y1800497D01*
X790850Y1800034D01*
X794374Y1800497D01*
X797658Y1801858D01*
X799296Y1803115D01*
X802296Y1801635D01*
Y1797000D01*
X801017Y1795721D01*
X800410Y1794811D01*
X800196Y1793738D01*
Y1782762D01*
X800410Y1781689D01*
X801017Y1780779D01*
X802296Y1779500D01*
Y1774865D01*
X799296Y1773385D01*
X797658Y1774642D01*
X794374Y1776003D01*
X790850Y1776467D01*
X787326Y1776003D01*
X784042Y1774642D01*
X781222Y1772478D01*
X779058Y1769658D01*
X777698Y1766374D01*
X777234Y1762850D01*
X777698Y1759326D01*
X779058Y1756042D01*
X781222Y1753222D01*
X784042Y1751058D01*
X787326Y1749698D01*
X790850Y1749234D01*
X794374Y1749698D01*
X797658Y1751058D01*
X799296Y1752315D01*
X802296Y1750835D01*
Y1501761D01*
X798517Y1497983D01*
X797910Y1497073D01*
X797696Y1496000D01*
Y1405000D01*
Y1319861D01*
X752770Y1274935D01*
X751400Y1275208D01*
X749254Y1274781D01*
X747435Y1273565D01*
X746219Y1271746D01*
X745792Y1269600D01*
X746219Y1267454D01*
X747435Y1265635D01*
X749254Y1264419D01*
X751400Y1263992D01*
X753546Y1264419D01*
X755365Y1265635D01*
X756581Y1267454D01*
X757008Y1269600D01*
X757941Y1270285D01*
X757997Y1270284D01*
X761053Y1268847D01*
X761203Y1268094D01*
X762419Y1266275D01*
X764238Y1265060D01*
X766384Y1264633D01*
X768530Y1265060D01*
X770349Y1266275D01*
X771565Y1268094D01*
X771992Y1270240D01*
X771565Y1272386D01*
X770349Y1274206D01*
X768530Y1275421D01*
X766384Y1275848D01*
X765725Y1275717D01*
X764247Y1278482D01*
X771363Y1285597D01*
X774471Y1284877D01*
X774686Y1284678D01*
X775785Y1283035D01*
X777604Y1281819D01*
X779750Y1281392D01*
X781896Y1281819D01*
X783715Y1283035D01*
X784931Y1284854D01*
X785358Y1287000D01*
X784931Y1289146D01*
X783715Y1290965D01*
X782072Y1292064D01*
X781873Y1292279D01*
X781153Y1295388D01*
X802483Y1316717D01*
X803090Y1317627D01*
X803304Y1318700D01*
Y1402196D01*
X807516D01*
X807559Y1401867D01*
X808768Y1398948D01*
X810692Y1396441D01*
X813198Y1394518D01*
X816117Y1393309D01*
X819250Y1392897D01*
X822383Y1393309D01*
X825302Y1394518D01*
X827809Y1396441D01*
X829732Y1398948D01*
X830941Y1401867D01*
X831354Y1405000D01*
X830941Y1408133D01*
X829732Y1411052D01*
X827809Y1413559D01*
X825302Y1415482D01*
X822383Y1416691D01*
X819250Y1417104D01*
X816117Y1416691D01*
X813198Y1415482D01*
X810692Y1413559D01*
X808768Y1411052D01*
X807559Y1408133D01*
X807516Y1407804D01*
X803304D01*
Y1494839D01*
X807083Y1498617D01*
X807690Y1499527D01*
X807904Y1500600D01*
Y1775454D01*
X810904Y1776935D01*
X812987Y1776072D01*
X816250Y1775642D01*
X819513Y1776072D01*
X822554Y1777331D01*
X825165Y1779335D01*
X827169Y1781946D01*
X828428Y1784987D01*
X828531Y1785766D01*
X847100D01*
Y1785711D01*
X850410Y1786146D01*
X853495Y1787424D01*
X856143Y1789456D01*
X858176Y1792105D01*
X859454Y1795190D01*
X859889Y1798500D01*
X859834D01*
Y1805600D01*
X859827Y1805636D01*
X859910Y1806054D01*
X861050Y1806719D01*
X864050Y1805950D01*
Y1805950D01*
X866661D01*
Y1800157D01*
X866080Y1799450D01*
X864050D01*
Y1785450D01*
X864539D01*
X866661Y1782450D01*
X866661Y1622577D01*
X864282Y1620474D01*
X864019Y1620365D01*
X862750Y1620725D01*
Y1620750D01*
X851750D01*
Y1610750D01*
X862750D01*
Y1610750D01*
X865750Y1611316D01*
X866250Y1610750D01*
Y1609750D01*
X866250D01*
Y1599750D01*
X866250D01*
X866661Y1599339D01*
Y1590706D01*
X866661Y1577712D01*
X866700Y1577515D01*
Y1577314D01*
X866737Y1577128D01*
Y1577128D01*
X866814Y1576943D01*
X866816Y1576931D01*
X866822Y1576922D01*
X867041Y1576393D01*
X867252Y1576078D01*
X867305Y1576024D01*
X867315Y1576010D01*
X867326Y1575985D01*
X867475Y1575308D01*
X867505Y1574779D01*
X867386Y1573315D01*
X867364Y1573191D01*
X867109Y1572489D01*
X867041Y1572314D01*
X867040Y1572313D01*
X866964Y1572128D01*
X866863Y1571976D01*
X866827Y1571797D01*
X866822Y1571786D01*
X866816Y1571776D01*
X866814Y1571764D01*
X866737Y1571579D01*
X866737Y1571577D01*
X866737Y1571577D01*
X866737Y1571577D01*
X866700Y1571393D01*
X866700Y1571192D01*
X866661Y1570995D01*
X866661Y1452314D01*
X866661Y1452176D01*
X866661Y1452175D01*
X866700Y1451979D01*
X866700Y1451778D01*
X866700Y1451778D01*
X866733Y1451610D01*
X866733Y1451610D01*
X866733Y1451610D01*
X866810Y1451425D01*
X866816Y1451395D01*
X866816Y1451395D01*
X866833Y1451370D01*
X867038Y1450875D01*
X867600Y1450312D01*
X868095Y1450108D01*
X868120Y1450091D01*
X868150Y1450085D01*
X868335Y1450008D01*
X868335Y1450008D01*
X868336Y1450008D01*
X868503Y1449975D01*
X868503Y1449975D01*
X868704Y1449975D01*
X868901Y1449936D01*
X868901Y1449935D01*
X868977Y1449936D01*
X918891Y1449936D01*
X920371Y1446936D01*
X920268Y1446802D01*
X919059Y1443883D01*
X918646Y1440750D01*
X919059Y1437617D01*
X920268Y1434698D01*
X922191Y1432191D01*
X924698Y1430268D01*
X927617Y1429059D01*
X930750Y1428646D01*
X933883Y1429059D01*
X936802Y1430268D01*
X939308Y1432191D01*
X941232Y1434698D01*
X942441Y1437617D01*
X942854Y1440750D01*
X942441Y1443883D01*
X941399Y1446400D01*
X943964Y1448965D01*
X956100D01*
Y1440500D01*
X965465D01*
Y1407800D01*
X965734Y1406447D01*
X966501Y1405300D01*
X987417Y1384384D01*
X986583Y1382372D01*
X986205Y1379500D01*
X986583Y1376628D01*
X987691Y1373953D01*
X989455Y1371655D01*
X991753Y1369892D01*
X994428Y1368783D01*
X997300Y1368405D01*
X1000172Y1368783D01*
X1002848Y1369892D01*
X1005145Y1371655D01*
X1006908Y1373953D01*
X1008017Y1376628D01*
X1008395Y1379500D01*
X1008017Y1382372D01*
X1006908Y1385047D01*
X1005145Y1387345D01*
X1002848Y1389108D01*
X1000172Y1390217D01*
X997300Y1390595D01*
X994428Y1390217D01*
X992416Y1389383D01*
X972535Y1409264D01*
Y1440500D01*
X981900D01*
Y1449935D01*
X991691D01*
X992398Y1448000D01*
X1007666D01*
Y1438631D01*
X1004035Y1435000D01*
X992400D01*
Y1418500D01*
X1008600D01*
Y1430135D01*
X1011033Y1432568D01*
X1013750Y1433250D01*
X1013750Y1433250D01*
Y1433250D01*
X1013750Y1433250D01*
X1017228D01*
X1017667Y1432694D01*
X1018557Y1430250D01*
X1017819Y1429146D01*
X1017392Y1427000D01*
X1017819Y1424854D01*
X1019035Y1423035D01*
X1020854Y1421819D01*
X1023000Y1421392D01*
X1025146Y1421819D01*
X1026965Y1423035D01*
X1028181Y1424854D01*
X1028608Y1427000D01*
X1028181Y1429146D01*
X1027443Y1430250D01*
X1028333Y1432694D01*
X1028772Y1433250D01*
X1032250D01*
Y1447250D01*
X1015387D01*
X1014970Y1449624D01*
X1017057Y1451961D01*
X1074941Y1451961D01*
Y1448451D01*
X1074867Y1448441D01*
X1071948Y1447232D01*
X1069442Y1445309D01*
X1067518Y1442802D01*
X1066309Y1439883D01*
X1065896Y1436750D01*
X1066309Y1433617D01*
X1067518Y1430698D01*
X1069442Y1428192D01*
X1071948Y1426268D01*
X1074867Y1425059D01*
X1078000Y1424646D01*
X1081133Y1425059D01*
X1084052Y1426268D01*
X1086559Y1428192D01*
X1088482Y1430698D01*
X1089691Y1433617D01*
X1090104Y1436750D01*
X1089691Y1439883D01*
X1088482Y1442802D01*
X1086559Y1445309D01*
X1084052Y1447232D01*
X1083029Y1447656D01*
X1082759Y1449135D01*
X1085175Y1451961D01*
X1111948D01*
X1111998Y1451864D01*
X1112014Y1451825D01*
X1112022Y1451818D01*
X1112325Y1451225D01*
X1112397Y1451133D01*
X1112430Y1451069D01*
X1112483Y1451003D01*
X1112541Y1450889D01*
X1112613Y1450797D01*
X1112681Y1450739D01*
X1112804Y1450556D01*
X1112872Y1450510D01*
X1112924Y1450445D01*
X1113201Y1450290D01*
X1113465Y1450114D01*
X1113546Y1450097D01*
X1113618Y1450057D01*
X1113838Y1450031D01*
X1113921Y1449997D01*
X1114035Y1449975D01*
X1114163D01*
X1114246Y1449958D01*
X1114318D01*
X1114433Y1449935D01*
X1117739D01*
X1118446Y1447017D01*
Y1397411D01*
X1113317Y1392283D01*
X1112710Y1391373D01*
X1112496Y1390300D01*
Y1388241D01*
X1111335Y1387465D01*
X1111214Y1387285D01*
X1107601Y1387191D01*
X1106859Y1388159D01*
X1104358Y1390078D01*
X1104352Y1390083D01*
X1103447Y1393704D01*
X1103481Y1393754D01*
X1103908Y1395900D01*
X1103481Y1398046D01*
X1102265Y1399865D01*
X1100446Y1401081D01*
X1098300Y1401508D01*
X1096154Y1401081D01*
X1094335Y1399865D01*
X1093119Y1398046D01*
X1092692Y1395900D01*
X1093119Y1393754D01*
X1093153Y1393704D01*
X1092248Y1390083D01*
X1092242Y1390078D01*
X1089742Y1388159D01*
X1087818Y1385652D01*
X1086609Y1382733D01*
X1086196Y1379600D01*
X1086609Y1376467D01*
X1087818Y1373548D01*
X1089742Y1371042D01*
X1092248Y1369118D01*
X1095167Y1367909D01*
X1098300Y1367496D01*
X1101433Y1367909D01*
X1104352Y1369118D01*
X1106859Y1371042D01*
X1108782Y1373548D01*
X1109991Y1376467D01*
X1110034Y1376796D01*
X1113137Y1378311D01*
X1113258Y1378298D01*
X1115300Y1377892D01*
X1117446Y1378319D01*
X1119265Y1379535D01*
X1120481Y1381354D01*
X1120908Y1383500D01*
X1120481Y1385646D01*
X1119265Y1387465D01*
X1119713Y1390747D01*
X1123233Y1394267D01*
X1123840Y1395177D01*
X1124054Y1396250D01*
Y1447222D01*
X1126414Y1449359D01*
X1128791Y1449007D01*
X1128809Y1448867D01*
X1130018Y1445948D01*
X1131942Y1443441D01*
X1134448Y1441518D01*
X1137367Y1440309D01*
X1140500Y1439896D01*
X1143633Y1440309D01*
X1146552Y1441518D01*
X1149059Y1443441D01*
X1150982Y1445948D01*
X1151706Y1447696D01*
X1156759D01*
X1157535Y1446535D01*
X1159354Y1445319D01*
X1161500Y1444892D01*
X1163646Y1445319D01*
X1165465Y1446535D01*
X1166681Y1448354D01*
X1166995Y1449935D01*
X1173792D01*
X1173989Y1449975D01*
X1174190D01*
X1174375Y1450011D01*
X1174561Y1450088D01*
X1174572Y1450091D01*
X1174582Y1450097D01*
X1174903Y1450230D01*
X1174915Y1450233D01*
X1174925Y1450239D01*
X1175110Y1450316D01*
X1175110Y1450316D01*
X1175268Y1450421D01*
X1175410Y1450563D01*
X1175576Y1450675D01*
X1176000Y1451098D01*
X1176111Y1451265D01*
X1176253Y1451407D01*
X1176358Y1451564D01*
X1176435Y1451750D01*
X1176442Y1451759D01*
X1176444Y1451771D01*
X1176577Y1452092D01*
X1176584Y1452102D01*
X1176586Y1452114D01*
X1176663Y1452299D01*
X1176700Y1452485D01*
Y1452686D01*
X1176739Y1452883D01*
Y1454055D01*
X1176739Y1500239D01*
X1176740Y1500239D01*
X1179657Y1500946D01*
X1187750D01*
X1188823Y1501160D01*
X1189733Y1501767D01*
X1198233Y1510267D01*
X1198840Y1511177D01*
X1199054Y1512250D01*
Y1517750D01*
X1199500D01*
Y1526335D01*
X1204183Y1531017D01*
X1204790Y1531927D01*
X1205004Y1533000D01*
Y1543039D01*
X1210012Y1548047D01*
X1220051D01*
X1221124Y1548260D01*
X1222033Y1548868D01*
X1225183Y1552017D01*
X1225790Y1552927D01*
X1226004Y1554000D01*
Y1568300D01*
X1225790Y1569373D01*
X1225183Y1570283D01*
X1223233Y1572233D01*
X1222323Y1572840D01*
X1221433Y1573017D01*
X1220646Y1574196D01*
X1219849Y1574728D01*
Y1578072D01*
X1220646Y1578604D01*
X1221916Y1580506D01*
X1222363Y1582750D01*
X1221916Y1584993D01*
X1220646Y1586895D01*
X1220196Y1587196D01*
Y1590703D01*
X1220646Y1591004D01*
X1221916Y1592906D01*
X1222363Y1595149D01*
X1221916Y1597393D01*
X1220646Y1599295D01*
X1219616Y1599982D01*
X1219503Y1600339D01*
Y1602960D01*
X1219616Y1603316D01*
X1220646Y1604004D01*
X1221916Y1605906D01*
X1222363Y1608149D01*
X1221916Y1610393D01*
X1220646Y1612295D01*
X1218744Y1613566D01*
X1216500Y1614012D01*
X1211054D01*
Y1619850D01*
X1210840Y1620923D01*
X1210233Y1621833D01*
X1199065Y1633000D01*
X1199576Y1636000D01*
X1203250D01*
Y1655500D01*
X1202763D01*
X1202349Y1655762D01*
X1200534Y1658500D01*
X1200583Y1658750D01*
X1200253Y1660408D01*
X1199314Y1661814D01*
X1199054Y1661988D01*
Y1688500D01*
X1203250D01*
Y1708000D01*
X1199054D01*
Y1722000D01*
X1203250D01*
Y1741500D01*
X1199054D01*
Y1774500D01*
X1203250D01*
Y1794000D01*
X1199054D01*
Y1807000D01*
X1203250D01*
Y1826500D01*
X1199054D01*
Y1859500D01*
X1203250D01*
Y1879000D01*
X1189250D01*
Y1859500D01*
X1193446D01*
Y1826500D01*
X1189250D01*
Y1807000D01*
X1193446D01*
Y1794000D01*
X1189250D01*
Y1774500D01*
X1193446D01*
Y1741500D01*
X1189250D01*
Y1722000D01*
X1193446D01*
Y1708000D01*
X1189250D01*
Y1688500D01*
X1193446D01*
Y1661988D01*
X1193186Y1661814D01*
X1192247Y1660408D01*
X1191917Y1658750D01*
X1191966Y1658500D01*
X1190151Y1655762D01*
X1189737Y1655500D01*
X1189250D01*
Y1636000D01*
X1193096D01*
Y1632200D01*
X1193310Y1631127D01*
X1193917Y1630217D01*
X1205446Y1618689D01*
Y1614012D01*
X1200000D01*
X1199200Y1613853D01*
X1196090Y1614573D01*
X1195483Y1615483D01*
X1193883Y1617083D01*
X1192973Y1617690D01*
X1191900Y1617904D01*
X1189910D01*
X1189391Y1618292D01*
X1187742Y1620904D01*
X1187833Y1621360D01*
X1187503Y1623018D01*
X1186564Y1624424D01*
X1185158Y1625363D01*
X1183500Y1625693D01*
X1183193Y1625632D01*
X1178804Y1630021D01*
Y1802500D01*
X1178590Y1803573D01*
X1177983Y1804483D01*
X1171250Y1811215D01*
Y1826500D01*
X1163004D01*
Y1859500D01*
X1171250D01*
Y1879000D01*
X1171250Y1879000D01*
X1171250D01*
X1170108Y1882000D01*
X1169681Y1884146D01*
X1168465Y1885965D01*
X1166646Y1887181D01*
X1164500Y1887608D01*
X1162354Y1887181D01*
X1162352Y1887179D01*
X1160231Y1885998D01*
X1159291Y1886098D01*
X1159195Y1886128D01*
X1159110Y1886184D01*
X1158817Y1886242D01*
X1158530Y1886329D01*
X1158429Y1886319D01*
X1158330Y1886339D01*
X1064550D01*
X1062633Y1887882D01*
X1062300Y1889257D01*
X1062300Y1890150D01*
Y1894685D01*
X1066711Y1899096D01*
X1202389D01*
X1244796Y1856689D01*
Y1461934D01*
X1244467Y1461891D01*
X1241548Y1460682D01*
X1239042Y1458759D01*
X1237118Y1456252D01*
X1235909Y1453333D01*
X1235496Y1450200D01*
X1235909Y1447067D01*
X1237118Y1444148D01*
X1239042Y1441642D01*
X1241548Y1439718D01*
X1244467Y1438509D01*
X1244796Y1438466D01*
Y1420011D01*
X1231017Y1406233D01*
X1230410Y1405323D01*
X1230196Y1404250D01*
Y1276400D01*
X1229895Y1275949D01*
X1228633Y1275698D01*
X1227145Y1274704D01*
X1226150Y1273215D01*
X1225801Y1271459D01*
X1226150Y1269704D01*
X1227145Y1268215D01*
X1228633Y1267221D01*
X1230389Y1266871D01*
X1232145Y1267221D01*
X1233633Y1268215D01*
X1237168Y1268267D01*
X1244165Y1261270D01*
X1243892Y1259900D01*
X1244319Y1257754D01*
X1245535Y1255935D01*
X1247354Y1254719D01*
X1249500Y1254292D01*
X1251646Y1254719D01*
X1253465Y1255935D01*
X1254681Y1257754D01*
X1255108Y1259900D01*
X1254681Y1262046D01*
X1253465Y1263865D01*
X1251646Y1265081D01*
X1249500Y1265508D01*
X1248130Y1265235D01*
X1235804Y1277561D01*
Y1403089D01*
X1249583Y1416867D01*
X1250190Y1417777D01*
X1250404Y1418850D01*
Y1438466D01*
X1250733Y1438509D01*
X1253652Y1439718D01*
X1256159Y1441642D01*
X1258082Y1444148D01*
X1259291Y1447067D01*
X1259340Y1447435D01*
X1262595Y1449472D01*
X1263260Y1449266D01*
X1523437Y1044546D01*
X1525054Y1042023D01*
Y1042023D01*
X1525054D01*
X1526582Y1039484D01*
X1529821Y1033624D01*
X1533146Y1025595D01*
X1535552Y1017244D01*
X1537008Y1008677D01*
X1537495Y1000000D01*
X1537008Y991323D01*
X1535552Y982756D01*
X1533146Y974405D01*
X1529821Y966376D01*
X1525617Y958770D01*
X1520588Y951683D01*
X1514797Y945203D01*
X1508317Y939412D01*
X1501230Y934383D01*
X1493624Y930179D01*
X1485595Y926854D01*
X1477244Y924448D01*
X1468677Y922992D01*
X1460000Y922505D01*
X1451323Y922992D01*
X1442756Y924448D01*
X1434405Y926854D01*
X1426376Y930179D01*
X1418770Y934383D01*
X1411683Y939412D01*
X1405203Y945203D01*
X1399412Y951683D01*
X1394946Y957976D01*
X1394946Y957976D01*
X1393321Y960497D01*
X1174366Y1301093D01*
X1174260Y1301202D01*
X1170658Y1306279D01*
X1165681Y1311848D01*
X1160111Y1316826D01*
X1154019Y1321148D01*
X1147482Y1324762D01*
X1140581Y1327620D01*
X1133403Y1329688D01*
X1126039Y1330939D01*
X1118580Y1331358D01*
X1116587Y1331246D01*
X1116479Y1331268D01*
X903521D01*
X903412Y1331246D01*
X901420Y1331358D01*
X893961Y1330939D01*
X886597Y1329688D01*
X879419Y1327620D01*
X872518Y1324762D01*
X865981Y1321148D01*
X859889Y1316826D01*
X854319Y1311848D01*
X849341Y1306279D01*
X845740Y1301202D01*
X845634Y1301093D01*
X774722Y1190786D01*
X771533Y1191372D01*
X771209Y1192906D01*
X781288Y1208913D01*
X781426Y1209273D01*
X781568Y1209630D01*
X781568Y1209644D01*
X781572Y1209657D01*
X781562Y1210042D01*
X781557Y1210426D01*
X781551Y1210438D01*
X781551Y1210452D01*
X781394Y1210804D01*
X781242Y1211157D01*
X781232Y1211166D01*
X781227Y1211178D01*
X780947Y1211443D01*
X780671Y1211711D01*
X722421Y1249461D01*
X722047Y1249610D01*
X721684Y1249755D01*
X721683D01*
X721682Y1249755D01*
X721290Y1249750D01*
X720888Y1249745D01*
X720887Y1249744D01*
X720887D01*
X720523Y1249588D01*
X720157Y1249430D01*
X720157Y1249430D01*
X720156Y1249429D01*
X719876Y1249141D01*
X719602Y1248860D01*
X714246Y1240610D01*
X711081Y1241146D01*
X709865Y1242965D01*
X708046Y1244181D01*
X705900Y1244608D01*
X703754Y1244181D01*
X701935Y1242965D01*
X700719Y1241146D01*
X700292Y1239000D01*
X700719Y1236854D01*
X701935Y1235035D01*
X703754Y1233819D01*
X705900Y1233392D01*
X705996Y1233411D01*
X707823Y1230716D01*
X672313Y1176019D01*
X671426Y1175426D01*
X670210Y1173607D01*
X669973Y1172415D01*
X637533Y1122446D01*
X637477Y1122360D01*
X637477Y1122360D01*
X637474Y1122354D01*
X637469Y1122348D01*
Y1122348D01*
X637326Y1121982D01*
X637182Y1121621D01*
X637183Y1121614D01*
X637180Y1121607D01*
X637188Y1121214D01*
X637193Y1120826D01*
X637196Y1120819D01*
X637196Y1120811D01*
X637354Y1120452D01*
X637507Y1120095D01*
X637512Y1120090D01*
X637515Y1120083D01*
Y1120083D01*
X637797Y1119812D01*
X638077Y1119540D01*
X638084Y1119537D01*
X638089Y1119532D01*
X638089Y1119532D01*
X638175Y1119477D01*
X698253Y1081087D01*
X698339Y1081032D01*
X698339D01*
X698346Y1081029D01*
X698351Y1081024D01*
X698716Y1080885D01*
X699081Y1080742D01*
X699088Y1080742D01*
X699094Y1080740D01*
X699487Y1080751D01*
X699876Y1080759D01*
X699882Y1080761D01*
X699889Y1080761D01*
X700248Y1080921D01*
X700605Y1081078D01*
X700610Y1081083D01*
X700616Y1081086D01*
X700673Y1081146D01*
X703045Y1079287D01*
X626679Y960497D01*
X625053Y957976D01*
X625053D01*
X625053Y957976D01*
X620588Y951683D01*
X614797Y945203D01*
X608317Y939412D01*
X601230Y934383D01*
X593624Y930179D01*
X585595Y926854D01*
X577244Y924448D01*
X568677Y922992D01*
X560000Y922505D01*
X551323Y922992D01*
X542756Y924448D01*
X534405Y926854D01*
X526376Y930179D01*
X518770Y934383D01*
X511683Y939412D01*
X505203Y945203D01*
X499412Y951683D01*
X494383Y958770D01*
X490179Y966376D01*
X486854Y974405D01*
X484448Y982756D01*
X482992Y991323D01*
X482505Y1000000D01*
X482992Y1008677D01*
X484448Y1017244D01*
X486854Y1025595D01*
X490179Y1033624D01*
X493418Y1039484D01*
X494946Y1042023D01*
X494946D01*
Y1042023D01*
X496563Y1044546D01*
X756740Y1449267D01*
X756830Y1449496D01*
X759975Y1455537D01*
X764016Y1465293D01*
X767191Y1475363D01*
X769476Y1485671D01*
X770855Y1496140D01*
X771186Y1503726D01*
X771315Y1506689D01*
X771315Y1506700D01*
X771249Y1509673D01*
Y1890327D01*
X771315Y1893300D01*
X771315Y1893311D01*
X771187Y1896247D01*
X770855Y1903860D01*
X769476Y1914329D01*
X767191Y1924637D01*
X764016Y1934707D01*
X759975Y1944463D01*
X756830Y1950504D01*
X756740Y1950733D01*
X496563Y2355454D01*
X494946Y2357977D01*
Y2357977D01*
X494946D01*
X493418Y2360516D01*
X490179Y2366376D01*
X486854Y2374405D01*
X484448Y2382756D01*
X482992Y2391323D01*
X482505Y2400000D01*
X482992Y2408677D01*
X484448Y2417244D01*
X486854Y2425595D01*
X490179Y2433624D01*
X494383Y2441230D01*
X499412Y2448317D01*
X505203Y2454797D01*
X511683Y2460588D01*
X518770Y2465617D01*
X526376Y2469821D01*
X534405Y2473146D01*
X542756Y2475552D01*
X551323Y2477008D01*
X560000Y2477495D01*
X568677Y2477008D01*
X577244Y2475552D01*
X585595Y2473146D01*
X593624Y2469821D01*
X601230Y2465617D01*
X608317Y2460588D01*
X614797Y2454797D01*
X620588Y2448317D01*
X625053Y2442024D01*
X625053Y2442024D01*
X626679Y2439503D01*
X845634Y2098907D01*
X845740Y2098798D01*
X849341Y2093721D01*
X854319Y2088152D01*
X859889Y2083174D01*
X865981Y2078852D01*
X872518Y2075238D01*
X879419Y2072380D01*
X886597Y2070312D01*
X893961Y2069061D01*
X901420Y2068642D01*
X903412Y2068754D01*
X903521Y2068732D01*
X1116479D01*
X1116587Y2068754D01*
X1118580Y2068642D01*
X1126039Y2069061D01*
X1133403Y2070312D01*
X1140581Y2072380D01*
X1147482Y2075238D01*
X1154019Y2078852D01*
X1160111Y2083174D01*
X1165681Y2088152D01*
X1170658Y2093721D01*
X1174260Y2098798D01*
X1174366Y2098907D01*
X1393321Y2439503D01*
X1394946Y2442024D01*
X1394946D01*
X1394946Y2442024D01*
X1399412Y2448317D01*
X1405203Y2454797D01*
X1411683Y2460588D01*
X1418770Y2465617D01*
X1426376Y2469821D01*
X1434405Y2473146D01*
X1442756Y2475552D01*
X1451323Y2477008D01*
X1460000Y2477495D01*
X1468677Y2477008D01*
D02*
G37*
%LPC*%
G36*
X742634Y1319348D02*
X740488Y1318921D01*
X738669Y1317706D01*
X737453Y1315886D01*
X737026Y1313740D01*
X737453Y1311594D01*
X738669Y1309775D01*
X740488Y1308560D01*
X742634Y1308133D01*
X744780Y1308560D01*
X746599Y1309775D01*
X747815Y1311594D01*
X748242Y1313740D01*
X747815Y1315886D01*
X746599Y1317706D01*
X744780Y1318921D01*
X742634Y1319348D01*
D02*
G37*
G36*
X1215400Y1381458D02*
X1213254Y1381031D01*
X1213074Y1380911D01*
X1211096Y1379928D01*
X1208546Y1380781D01*
X1206400Y1381208D01*
X1204254Y1380781D01*
X1202435Y1379565D01*
X1201615D01*
X1199796Y1380781D01*
X1197650Y1381208D01*
X1195504Y1380781D01*
X1193685Y1379565D01*
X1192469Y1377746D01*
X1192227Y1376530D01*
X1190129Y1375723D01*
X1189338Y1375533D01*
X1189202Y1375530D01*
X1187538Y1376642D01*
X1185391Y1377069D01*
X1183245Y1376642D01*
X1181426Y1375426D01*
X1180211Y1373607D01*
X1179784Y1371461D01*
X1180211Y1369315D01*
X1181271Y1367728D01*
X1181558Y1366985D01*
X1182145Y1364704D01*
X1181150Y1363215D01*
X1180801Y1361459D01*
X1181150Y1359704D01*
X1182145Y1358215D01*
X1183633Y1357220D01*
X1185389Y1356871D01*
X1187145Y1357220D01*
X1188633Y1358215D01*
X1189628Y1359704D01*
X1189977Y1361459D01*
X1189628Y1363215D01*
X1188633Y1364704D01*
X1189227Y1366996D01*
X1189510Y1367726D01*
X1190572Y1369315D01*
X1190814Y1370531D01*
X1192912Y1371338D01*
X1193703Y1371528D01*
X1193839Y1371532D01*
X1195504Y1370419D01*
X1197650Y1369992D01*
X1198497Y1370161D01*
X1200908Y1367883D01*
X1200935Y1367820D01*
X1200792Y1367100D01*
X1201219Y1364954D01*
X1202435Y1363135D01*
X1204254Y1361919D01*
X1206400Y1361492D01*
X1208546Y1361919D01*
X1208610Y1361962D01*
X1210900Y1362913D01*
X1213190Y1361962D01*
X1213254Y1361919D01*
X1215400Y1361492D01*
X1217546Y1361919D01*
X1219365Y1363135D01*
X1220581Y1364954D01*
X1221008Y1367100D01*
X1220581Y1369246D01*
X1219365Y1371065D01*
Y1371885D01*
X1220581Y1373704D01*
X1221008Y1375850D01*
X1220581Y1377996D01*
X1219365Y1379815D01*
X1217546Y1381031D01*
X1215400Y1381458D01*
D02*
G37*
G36*
X1279000Y1319608D02*
X1276854Y1319181D01*
X1275035Y1317965D01*
X1273819Y1316146D01*
X1273392Y1314000D01*
X1273819Y1311854D01*
X1275035Y1310035D01*
X1276854Y1308819D01*
X1279000Y1308392D01*
X1281146Y1308819D01*
X1282965Y1310035D01*
X1284181Y1311854D01*
X1284608Y1314000D01*
X1284181Y1316146D01*
X1282965Y1317965D01*
X1281146Y1319181D01*
X1279000Y1319608D01*
D02*
G37*
G36*
X755634Y1310848D02*
X753488Y1310421D01*
X751669Y1309206D01*
X750453Y1307386D01*
X750026Y1305240D01*
X750453Y1303094D01*
X751669Y1301275D01*
X753488Y1300060D01*
X755634Y1299633D01*
X757780Y1300060D01*
X759599Y1301275D01*
X760815Y1303094D01*
X761242Y1305240D01*
X760815Y1307386D01*
X759599Y1309206D01*
X757780Y1310421D01*
X755634Y1310848D01*
D02*
G37*
G36*
X743884Y1289098D02*
X741738Y1288671D01*
X739919Y1287456D01*
X738703Y1285636D01*
X738276Y1283490D01*
X738703Y1281344D01*
X739919Y1279525D01*
X741738Y1278309D01*
X743884Y1277883D01*
X746030Y1278309D01*
X747849Y1279525D01*
X749065Y1281344D01*
X749492Y1283490D01*
X749065Y1285636D01*
X747849Y1287456D01*
X746030Y1288671D01*
X743884Y1289098D01*
D02*
G37*
G36*
X1266000Y1311108D02*
X1263854Y1310681D01*
X1262035Y1309465D01*
X1260819Y1307646D01*
X1260392Y1305500D01*
X1260819Y1303354D01*
X1262035Y1301535D01*
X1263285Y1300699D01*
X1263703Y1300420D01*
X1263848Y1300280D01*
X1263260Y1296650D01*
X1263245Y1296642D01*
X1262973Y1296460D01*
X1261426Y1295426D01*
X1260211Y1293607D01*
X1259784Y1291461D01*
X1260211Y1289315D01*
X1261426Y1287496D01*
X1261877Y1287194D01*
X1262051Y1287078D01*
X1260880Y1284253D01*
X1260669Y1284295D01*
X1260100Y1284408D01*
X1257954Y1283981D01*
X1256135Y1282765D01*
X1254919Y1280946D01*
X1254492Y1278800D01*
X1254919Y1276654D01*
X1256135Y1274835D01*
X1257954Y1273619D01*
X1260100Y1273192D01*
X1262246Y1273619D01*
X1264065Y1274835D01*
X1265281Y1276654D01*
X1265708Y1278800D01*
X1265281Y1280946D01*
X1264065Y1282765D01*
X1263614Y1283067D01*
X1263441Y1283183D01*
X1264611Y1286008D01*
X1264822Y1285966D01*
X1265391Y1285853D01*
X1267538Y1286280D01*
X1269357Y1287496D01*
X1270572Y1289315D01*
X1270999Y1291461D01*
X1270572Y1293607D01*
X1269357Y1295426D01*
X1268106Y1296262D01*
X1267689Y1296541D01*
X1267544Y1296681D01*
X1268131Y1300311D01*
X1268146Y1300319D01*
X1268419Y1300501D01*
X1269965Y1301535D01*
X1271181Y1303354D01*
X1271608Y1305500D01*
X1271181Y1307646D01*
X1269965Y1309465D01*
X1268146Y1310681D01*
X1266000Y1311108D01*
D02*
G37*
G36*
X1250200Y1302408D02*
X1248054Y1301981D01*
X1246235Y1300765D01*
X1245019Y1298946D01*
X1244592Y1296800D01*
X1245019Y1294654D01*
X1246235Y1292835D01*
X1248054Y1291619D01*
X1250200Y1291192D01*
X1252346Y1291619D01*
X1254165Y1292835D01*
X1255381Y1294654D01*
X1255808Y1296800D01*
X1255381Y1298946D01*
X1254165Y1300765D01*
X1252346Y1301981D01*
X1250200Y1302408D01*
D02*
G37*
G36*
X1195391Y1397069D02*
X1193245Y1396642D01*
X1191426Y1395426D01*
X1190211Y1393607D01*
X1189784Y1391461D01*
X1190211Y1389315D01*
X1191426Y1387496D01*
X1193245Y1386280D01*
X1195391Y1385853D01*
X1197538Y1386280D01*
X1199357Y1387496D01*
X1200572Y1389315D01*
X1200999Y1391461D01*
X1200572Y1393607D01*
X1199357Y1395426D01*
X1197538Y1396642D01*
X1195391Y1397069D01*
D02*
G37*
G36*
X1216000Y1430558D02*
X1213854Y1430131D01*
X1213674Y1430011D01*
X1211696Y1429028D01*
X1209146Y1429881D01*
X1207000Y1430308D01*
X1204854Y1429881D01*
X1203035Y1428665D01*
X1202215D01*
X1200396Y1429881D01*
X1198250Y1430308D01*
X1196104Y1429881D01*
X1194285Y1428665D01*
X1193069Y1426846D01*
X1192642Y1424700D01*
X1193069Y1422554D01*
X1194285Y1420735D01*
X1196104Y1419519D01*
X1198250Y1419092D01*
X1199097Y1419261D01*
X1201507Y1416983D01*
X1201535Y1416920D01*
X1201392Y1416200D01*
X1201819Y1414054D01*
X1203035Y1412235D01*
X1204854Y1411019D01*
X1207000Y1410592D01*
X1209146Y1411019D01*
X1209210Y1411062D01*
X1211500Y1412013D01*
X1213790Y1411062D01*
X1213854Y1411019D01*
X1216000Y1410592D01*
X1218146Y1411019D01*
X1219965Y1412235D01*
X1221181Y1414054D01*
X1221608Y1416200D01*
X1221181Y1418346D01*
X1219965Y1420165D01*
Y1420985D01*
X1221181Y1422804D01*
X1221608Y1424950D01*
X1221181Y1427096D01*
X1219965Y1428915D01*
X1218146Y1430131D01*
X1216000Y1430558D01*
D02*
G37*
G36*
X1460000Y2462098D02*
X1453047Y2461707D01*
X1446182Y2460541D01*
X1439490Y2458613D01*
X1433057Y2455948D01*
X1426962Y2452580D01*
X1421283Y2448550D01*
X1416090Y2443910D01*
X1411450Y2438717D01*
X1407420Y2433038D01*
X1404052Y2426943D01*
X1401387Y2420510D01*
X1399459Y2413818D01*
X1398293Y2406953D01*
X1397902Y2400000D01*
X1398293Y2393047D01*
X1399459Y2386182D01*
X1401387Y2379490D01*
X1404052Y2373057D01*
X1407420Y2366962D01*
X1411450Y2361283D01*
X1416090Y2356090D01*
X1421283Y2351450D01*
X1426962Y2347420D01*
X1433057Y2344052D01*
X1439490Y2341387D01*
X1446182Y2339459D01*
X1453047Y2338293D01*
X1460000Y2337902D01*
X1466953Y2338293D01*
X1473818Y2339459D01*
X1480510Y2341387D01*
X1486943Y2344052D01*
X1493038Y2347420D01*
X1498717Y2351450D01*
X1503910Y2356090D01*
X1508550Y2361283D01*
X1512580Y2366962D01*
X1515948Y2373057D01*
X1518613Y2379490D01*
X1520541Y2386182D01*
X1521707Y2393047D01*
X1522098Y2400000D01*
X1521707Y2406953D01*
X1520541Y2413818D01*
X1518613Y2420510D01*
X1515948Y2426943D01*
X1512580Y2433038D01*
X1508550Y2438717D01*
X1503910Y2443910D01*
X1498717Y2448550D01*
X1493038Y2452580D01*
X1486943Y2455948D01*
X1480510Y2458613D01*
X1473818Y2460541D01*
X1466953Y2461707D01*
X1460000Y2462098D01*
D02*
G37*
G36*
X560000D02*
X553047Y2461707D01*
X546182Y2460541D01*
X539490Y2458613D01*
X533057Y2455948D01*
X526962Y2452580D01*
X521283Y2448550D01*
X516090Y2443910D01*
X511450Y2438717D01*
X507420Y2433038D01*
X504052Y2426943D01*
X501387Y2420510D01*
X499459Y2413818D01*
X498293Y2406953D01*
X497902Y2400000D01*
X498293Y2393047D01*
X499459Y2386182D01*
X501387Y2379490D01*
X504052Y2373057D01*
X507420Y2366962D01*
X511450Y2361283D01*
X516090Y2356090D01*
X521283Y2351450D01*
X526962Y2347420D01*
X533057Y2344052D01*
X539490Y2341387D01*
X546182Y2339459D01*
X553047Y2338293D01*
X560000Y2337902D01*
X566953Y2338293D01*
X573818Y2339459D01*
X580510Y2341387D01*
X586943Y2344052D01*
X593038Y2347420D01*
X598717Y2351450D01*
X603910Y2356090D01*
X608550Y2361283D01*
X612580Y2366962D01*
X615948Y2373057D01*
X618613Y2379490D01*
X620541Y2386182D01*
X621707Y2393047D01*
X622098Y2400000D01*
X621707Y2406953D01*
X620541Y2413818D01*
X618613Y2420510D01*
X615948Y2426943D01*
X612580Y2433038D01*
X608550Y2438717D01*
X603910Y2443910D01*
X598717Y2448550D01*
X593038Y2452580D01*
X586943Y2455948D01*
X580510Y2458613D01*
X573818Y2460541D01*
X566953Y2461707D01*
X560000Y2462098D01*
D02*
G37*
G36*
X1144050Y1427858D02*
X1141904Y1427431D01*
X1140085Y1426215D01*
X1138869Y1424396D01*
X1138549Y1422785D01*
X1136805Y1421681D01*
X1135581Y1421257D01*
X1134946Y1421681D01*
X1132800Y1422108D01*
X1130654Y1421681D01*
X1128835Y1420465D01*
X1127619Y1418646D01*
X1127192Y1416500D01*
X1127619Y1414354D01*
X1128835Y1412535D01*
X1130654Y1411319D01*
X1132800Y1410892D01*
X1134946Y1411319D01*
X1135349Y1411588D01*
X1135451Y1411585D01*
X1138471Y1410099D01*
X1138619Y1409354D01*
X1139835Y1407535D01*
X1141654Y1406319D01*
X1143800Y1405892D01*
X1145946Y1406319D01*
X1147765Y1407535D01*
X1150085Y1407285D01*
X1151904Y1406069D01*
X1154050Y1405642D01*
X1156196Y1406069D01*
X1158015Y1407285D01*
X1159231Y1409104D01*
X1159658Y1411250D01*
X1159231Y1413396D01*
X1158015Y1415215D01*
X1158265Y1418035D01*
X1159481Y1419854D01*
X1159908Y1422000D01*
X1159481Y1424146D01*
X1158265Y1425965D01*
X1156446Y1427181D01*
X1154300Y1427608D01*
X1152154Y1427181D01*
X1150335Y1425965D01*
X1148015Y1426215D01*
X1146196Y1427431D01*
X1144050Y1427858D01*
D02*
G37*
G36*
X1215391Y1397069D02*
X1213245Y1396642D01*
X1211426Y1395426D01*
X1210211Y1393607D01*
X1209784Y1391461D01*
X1210211Y1389315D01*
X1211426Y1387496D01*
X1213245Y1386280D01*
X1215391Y1385853D01*
X1217538Y1386280D01*
X1219357Y1387496D01*
X1220572Y1389315D01*
X1220999Y1391461D01*
X1220572Y1393607D01*
X1219357Y1395426D01*
X1217538Y1396642D01*
X1215391Y1397069D01*
D02*
G37*
G36*
X1165000Y1392108D02*
X1162854Y1391681D01*
X1161035Y1390465D01*
X1158215Y1390215D01*
X1156396Y1391431D01*
X1154250Y1391858D01*
X1152104Y1391431D01*
X1151348Y1390926D01*
X1149250Y1390450D01*
X1147152Y1390926D01*
X1146396Y1391431D01*
X1144250Y1391858D01*
X1142104Y1391431D01*
X1140285Y1390215D01*
X1139069Y1388396D01*
X1138642Y1386250D01*
X1139069Y1384104D01*
X1140285Y1382285D01*
X1142104Y1381069D01*
X1144250Y1380642D01*
X1146396Y1381069D01*
X1147152Y1381574D01*
X1147394Y1381629D01*
X1149493Y1379530D01*
X1149069Y1378896D01*
X1148642Y1376750D01*
X1149069Y1374604D01*
X1150285Y1372785D01*
X1152104Y1371569D01*
X1154250Y1371142D01*
X1156396Y1371569D01*
X1158215Y1372785D01*
X1160785Y1372285D01*
X1161059Y1372102D01*
X1162604Y1371069D01*
X1164750Y1370642D01*
X1166896Y1371069D01*
X1168715Y1372285D01*
X1169931Y1374104D01*
X1170358Y1376250D01*
X1169931Y1378396D01*
X1168715Y1380215D01*
X1169483Y1383310D01*
X1170181Y1384354D01*
X1170608Y1386500D01*
X1170181Y1388646D01*
X1168965Y1390465D01*
X1167146Y1391681D01*
X1165000Y1392108D01*
D02*
G37*
G36*
X1185389Y1426048D02*
X1183633Y1425698D01*
X1182145Y1424704D01*
X1181150Y1423215D01*
X1180801Y1421459D01*
X1181150Y1419704D01*
X1182145Y1418215D01*
X1181564Y1415960D01*
X1181270Y1415192D01*
X1180211Y1413607D01*
X1179784Y1411461D01*
X1180211Y1409315D01*
X1181426Y1407496D01*
X1183245Y1406280D01*
X1185391Y1405853D01*
X1187538Y1406280D01*
X1189357Y1407496D01*
X1190572Y1409315D01*
X1190999Y1411461D01*
X1190572Y1413607D01*
X1189512Y1415194D01*
X1189221Y1415948D01*
X1188633Y1418215D01*
X1189628Y1419704D01*
X1189977Y1421459D01*
X1189628Y1423215D01*
X1188633Y1424704D01*
X1187145Y1425698D01*
X1185389Y1426048D01*
D02*
G37*
G36*
X765389Y1246048D02*
X763633Y1245698D01*
X762145Y1244704D01*
X761150Y1243215D01*
X760801Y1241459D01*
X761150Y1239704D01*
X762145Y1238215D01*
X763633Y1237221D01*
X765389Y1236871D01*
X767145Y1237221D01*
X768634Y1238215D01*
X769628Y1239704D01*
X769977Y1241459D01*
X769628Y1243215D01*
X768634Y1244704D01*
X767145Y1245698D01*
X765389Y1246048D01*
D02*
G37*
G36*
X1245389D02*
X1243633Y1245698D01*
X1242145Y1244704D01*
X1241150Y1243215D01*
X1240801Y1241459D01*
X1241150Y1239704D01*
X1242145Y1238215D01*
X1243633Y1237221D01*
X1245389Y1236871D01*
X1247145Y1237221D01*
X1248633Y1238215D01*
X1249628Y1239704D01*
X1249977Y1241459D01*
X1249628Y1243215D01*
X1248633Y1244704D01*
X1247145Y1245698D01*
X1245389Y1246048D01*
D02*
G37*
G36*
X791384Y1251598D02*
X789238Y1251171D01*
X787419Y1249956D01*
X786203Y1248136D01*
X785776Y1245990D01*
X786203Y1243844D01*
X787419Y1242025D01*
X789238Y1240809D01*
X791384Y1240383D01*
X793530Y1240809D01*
X795349Y1242025D01*
X796565Y1243844D01*
X796992Y1245990D01*
X796565Y1248136D01*
X795349Y1249956D01*
X793530Y1251171D01*
X791384Y1251598D01*
D02*
G37*
G36*
X1242750Y1230858D02*
X1240604Y1230431D01*
X1238785Y1229215D01*
X1237569Y1227396D01*
X1237142Y1225250D01*
X1237569Y1223104D01*
X1238785Y1221285D01*
X1240604Y1220069D01*
X1242750Y1219642D01*
X1244896Y1220069D01*
X1246715Y1221285D01*
X1247931Y1223104D01*
X1248358Y1225250D01*
X1247931Y1227396D01*
X1246715Y1229215D01*
X1244896Y1230431D01*
X1242750Y1230858D01*
D02*
G37*
G36*
X560000Y1062098D02*
X553047Y1061707D01*
X546182Y1060541D01*
X539490Y1058613D01*
X533057Y1055948D01*
X526962Y1052580D01*
X521283Y1048550D01*
X516090Y1043910D01*
X511450Y1038717D01*
X507420Y1033038D01*
X504052Y1026943D01*
X501387Y1020510D01*
X499459Y1013818D01*
X498293Y1006953D01*
X497902Y1000000D01*
X498293Y993047D01*
X499459Y986182D01*
X501387Y979490D01*
X504052Y973057D01*
X507420Y966962D01*
X511450Y961283D01*
X516090Y956090D01*
X521283Y951450D01*
X526962Y947420D01*
X533057Y944052D01*
X539490Y941387D01*
X546182Y939459D01*
X553047Y938293D01*
X560000Y937902D01*
X566953Y938293D01*
X573818Y939459D01*
X580510Y941387D01*
X586943Y944052D01*
X593038Y947420D01*
X598717Y951450D01*
X603910Y956090D01*
X608550Y961283D01*
X612580Y966962D01*
X615948Y973057D01*
X618613Y979490D01*
X620541Y986182D01*
X621707Y993047D01*
X622098Y1000000D01*
X621707Y1006953D01*
X620541Y1013818D01*
X618613Y1020510D01*
X615948Y1026943D01*
X612580Y1033038D01*
X608550Y1038717D01*
X603910Y1043910D01*
X598717Y1048550D01*
X593038Y1052580D01*
X586943Y1055948D01*
X580510Y1058613D01*
X573818Y1060541D01*
X566953Y1061707D01*
X560000Y1062098D01*
D02*
G37*
G36*
X1460000D02*
X1453047Y1061707D01*
X1446182Y1060541D01*
X1439490Y1058613D01*
X1433057Y1055948D01*
X1426962Y1052580D01*
X1421283Y1048550D01*
X1416090Y1043910D01*
X1411450Y1038717D01*
X1407420Y1033038D01*
X1404052Y1026943D01*
X1401387Y1020510D01*
X1399459Y1013818D01*
X1398293Y1006953D01*
X1397902Y1000000D01*
X1398293Y993047D01*
X1399459Y986182D01*
X1401387Y979490D01*
X1404052Y973057D01*
X1407420Y966962D01*
X1411450Y961283D01*
X1416090Y956090D01*
X1421283Y951450D01*
X1426962Y947420D01*
X1433057Y944052D01*
X1439490Y941387D01*
X1446182Y939459D01*
X1453047Y938293D01*
X1460000Y937902D01*
X1466953Y938293D01*
X1473818Y939459D01*
X1480510Y941387D01*
X1486943Y944052D01*
X1493038Y947420D01*
X1498717Y951450D01*
X1503910Y956090D01*
X1508550Y961283D01*
X1512580Y966962D01*
X1515948Y973057D01*
X1518613Y979490D01*
X1520541Y986182D01*
X1521707Y993047D01*
X1522098Y1000000D01*
X1521707Y1006953D01*
X1520541Y1013818D01*
X1518613Y1020510D01*
X1515948Y1026943D01*
X1512580Y1033038D01*
X1508550Y1038717D01*
X1503910Y1043910D01*
X1498717Y1048550D01*
X1493038Y1052580D01*
X1486943Y1055948D01*
X1480510Y1058613D01*
X1473818Y1060541D01*
X1466953Y1061707D01*
X1460000Y1062098D01*
D02*
G37*
G36*
X778884Y1230598D02*
X776738Y1230171D01*
X774919Y1228956D01*
X773703Y1227136D01*
X773276Y1224990D01*
X773703Y1222844D01*
X774919Y1221025D01*
X776738Y1219809D01*
X778884Y1219383D01*
X781030Y1219809D01*
X782849Y1221025D01*
X784065Y1222844D01*
X784492Y1224990D01*
X784065Y1227136D01*
X782849Y1228956D01*
X781030Y1230171D01*
X778884Y1230598D01*
D02*
G37*
G36*
X1230250Y1251858D02*
X1228104Y1251431D01*
X1226285Y1250215D01*
X1225069Y1248396D01*
X1224642Y1246250D01*
X1225069Y1244104D01*
X1226285Y1242285D01*
X1228104Y1241069D01*
X1230250Y1240642D01*
X1232396Y1241069D01*
X1234215Y1242285D01*
X1235431Y1244104D01*
X1235858Y1246250D01*
X1235431Y1248396D01*
X1234215Y1250215D01*
X1232396Y1251431D01*
X1230250Y1251858D01*
D02*
G37*
G36*
X795391Y1277069D02*
X793245Y1276642D01*
X791426Y1275426D01*
X790210Y1273607D01*
X789783Y1271461D01*
X790210Y1269315D01*
X791426Y1267496D01*
X793245Y1266280D01*
X795391Y1265853D01*
X797537Y1266280D01*
X799357Y1267496D01*
X799902Y1268312D01*
X803080Y1267715D01*
X803203Y1267094D01*
X804419Y1265275D01*
X806238Y1264060D01*
X808384Y1263633D01*
X810530Y1264060D01*
X812349Y1265275D01*
X813565Y1267094D01*
X813992Y1269240D01*
X813565Y1271386D01*
X812349Y1273206D01*
X810530Y1274421D01*
X808384Y1274848D01*
X806238Y1274421D01*
X804419Y1273206D01*
X803873Y1272389D01*
X800695Y1272987D01*
X800572Y1273607D01*
X799357Y1275426D01*
X797537Y1276642D01*
X795391Y1277069D01*
D02*
G37*
G36*
X1213250Y1275108D02*
X1211104Y1274681D01*
X1209285Y1273465D01*
X1208069Y1271646D01*
X1207642Y1269500D01*
X1208069Y1267354D01*
X1209285Y1265535D01*
X1211104Y1264319D01*
X1213250Y1263892D01*
X1215396Y1264319D01*
X1217215Y1265535D01*
X1218431Y1267354D01*
X1218858Y1269500D01*
X1218431Y1271646D01*
X1217215Y1273465D01*
X1215396Y1274681D01*
X1213250Y1275108D01*
D02*
G37*
G36*
X780389Y1276048D02*
X778633Y1275698D01*
X777145Y1274704D01*
X776150Y1273215D01*
X775801Y1271459D01*
X776150Y1269704D01*
X777145Y1268215D01*
X778633Y1267221D01*
X780389Y1266871D01*
X782145Y1267221D01*
X783634Y1268215D01*
X784628Y1269704D01*
X784977Y1271459D01*
X784628Y1273215D01*
X783634Y1274704D01*
X782145Y1275698D01*
X780389Y1276048D01*
D02*
G37*
G36*
X1293250Y1273858D02*
X1291104Y1273431D01*
X1289285Y1272215D01*
X1288069Y1270396D01*
X1287642Y1268250D01*
X1288069Y1266104D01*
X1289285Y1264285D01*
X1291104Y1263069D01*
X1293250Y1262642D01*
X1295396Y1263069D01*
X1297215Y1264285D01*
X1298431Y1266104D01*
X1298858Y1268250D01*
X1298431Y1270396D01*
X1297215Y1272215D01*
X1295396Y1273431D01*
X1293250Y1273858D01*
D02*
G37*
G36*
X1313100Y1251208D02*
X1310954Y1250781D01*
X1309135Y1249565D01*
X1307919Y1247746D01*
X1307492Y1245600D01*
X1307708Y1244515D01*
X1304878Y1243364D01*
X1301148Y1249110D01*
X1300866Y1249399D01*
X1300594Y1249679D01*
X1300593Y1249680D01*
X1300593Y1249680D01*
X1300213Y1249843D01*
X1299863Y1249994D01*
X1299863D01*
X1299862Y1249995D01*
X1299444Y1250000D01*
X1299068Y1250005D01*
X1299067Y1250005D01*
X1299066D01*
X1298689Y1249855D01*
X1298329Y1249711D01*
X1282657Y1239555D01*
X1279962Y1241384D01*
X1279977Y1241459D01*
X1279628Y1243215D01*
X1278633Y1244704D01*
X1277145Y1245698D01*
X1275389Y1246048D01*
X1273633Y1245698D01*
X1272145Y1244704D01*
X1271150Y1243215D01*
X1270801Y1241459D01*
X1271150Y1239704D01*
X1272145Y1238215D01*
X1273633Y1237221D01*
X1274170Y1234055D01*
X1240079Y1211961D01*
X1239803Y1211693D01*
X1239523Y1211428D01*
X1239518Y1211416D01*
X1239508Y1211407D01*
X1239356Y1211054D01*
X1239199Y1210702D01*
X1239199Y1210688D01*
X1239193Y1210676D01*
X1239188Y1210291D01*
X1239177Y1209906D01*
X1239182Y1209894D01*
X1239182Y1209880D01*
X1239325Y1209522D01*
X1239462Y1209163D01*
X1319532Y1082001D01*
X1319587Y1081913D01*
X1319587Y1081913D01*
X1319592Y1081908D01*
X1319594Y1081902D01*
X1319866Y1081619D01*
X1320134Y1081336D01*
X1320140Y1081333D01*
X1320145Y1081328D01*
X1320504Y1081171D01*
X1320861Y1081012D01*
X1320868Y1081011D01*
X1320874Y1081009D01*
X1321263Y1081001D01*
X1321656Y1080990D01*
X1321662Y1080992D01*
X1321669Y1080992D01*
X1322033Y1081134D01*
X1322399Y1081274D01*
X1322404Y1081279D01*
X1322410Y1081282D01*
X1322410Y1081282D01*
X1322497Y1081337D01*
X1382575Y1119727D01*
X1382661Y1119782D01*
X1382661Y1119782D01*
X1382666Y1119787D01*
X1382673Y1119790D01*
X1382673Y1119790D01*
X1382953Y1120062D01*
X1383235Y1120333D01*
Y1120333D01*
X1383237Y1120340D01*
X1383243Y1120345D01*
X1383398Y1120705D01*
X1383554Y1121061D01*
X1383554Y1121069D01*
X1383557Y1121076D01*
X1383562Y1121468D01*
X1383570Y1121857D01*
X1383568Y1121864D01*
X1383568Y1121871D01*
X1383568Y1121871D01*
X1383423Y1122234D01*
X1383281Y1122598D01*
Y1122598D01*
X1383276Y1122604D01*
X1383273Y1122610D01*
X1383273Y1122610D01*
X1383218Y1122695D01*
X1307737Y1238960D01*
X1309917Y1241112D01*
X1310954Y1240419D01*
X1313100Y1239992D01*
X1315246Y1240419D01*
X1317065Y1241635D01*
X1318281Y1243454D01*
X1318708Y1245600D01*
X1318281Y1247746D01*
X1317065Y1249565D01*
X1315246Y1250781D01*
X1313100Y1251208D01*
D02*
G37*
G36*
X735391Y1277069D02*
X733245Y1276642D01*
X731426Y1275426D01*
X730210Y1273607D01*
X729783Y1271461D01*
X730210Y1269315D01*
X731426Y1267496D01*
X732057Y1267074D01*
X732254Y1266942D01*
X731495Y1263841D01*
X731400Y1263808D01*
X730770Y1263682D01*
X729254Y1263381D01*
X727435Y1262165D01*
X726219Y1260346D01*
X725792Y1258200D01*
X726219Y1256054D01*
X727435Y1254235D01*
X729254Y1253019D01*
X731400Y1252592D01*
X733546Y1253019D01*
X735365Y1254235D01*
X736581Y1256054D01*
X737008Y1258200D01*
X736581Y1260346D01*
X735365Y1262165D01*
X734735Y1262587D01*
X734537Y1262719D01*
X735296Y1265820D01*
X735391Y1265853D01*
X736021Y1265978D01*
X737537Y1266280D01*
X739357Y1267496D01*
X740572Y1269315D01*
X740999Y1271461D01*
X740572Y1273607D01*
X739357Y1275426D01*
X737537Y1276642D01*
X735391Y1277069D01*
D02*
G37*
G36*
X1277750Y1289358D02*
X1275604Y1288931D01*
X1273785Y1287715D01*
X1272569Y1285896D01*
X1272142Y1283750D01*
X1272569Y1281604D01*
X1273785Y1279785D01*
X1273245Y1276642D01*
X1271426Y1275426D01*
X1270211Y1273607D01*
X1269784Y1271461D01*
X1270211Y1269315D01*
X1271426Y1267496D01*
X1273245Y1266280D01*
X1274670Y1265997D01*
X1275532Y1263625D01*
X1275572Y1262991D01*
X1274785Y1262465D01*
X1273569Y1260646D01*
X1273142Y1258500D01*
X1273569Y1256354D01*
X1274785Y1254535D01*
X1276604Y1253319D01*
X1278750Y1252892D01*
X1280896Y1253319D01*
X1282715Y1254535D01*
X1283931Y1256354D01*
X1284358Y1258500D01*
X1283931Y1260646D01*
X1282715Y1262465D01*
X1280896Y1263681D01*
X1279471Y1263964D01*
X1278609Y1266336D01*
X1278569Y1266970D01*
X1279357Y1267496D01*
X1280572Y1269315D01*
X1280999Y1271461D01*
X1280572Y1273607D01*
X1279357Y1275426D01*
X1279896Y1278569D01*
X1281715Y1279785D01*
X1282931Y1281604D01*
X1283358Y1283750D01*
X1282931Y1285896D01*
X1281715Y1287715D01*
X1279896Y1288931D01*
X1277750Y1289358D01*
D02*
G37*
G36*
X1240200Y2148208D02*
X1238054Y2147781D01*
X1236235Y2146565D01*
X1235019Y2144746D01*
X1234592Y2142600D01*
X1235019Y2140454D01*
X1236235Y2138635D01*
X1238054Y2137419D01*
X1239106Y2137210D01*
X1240485Y2134558D01*
X1240539Y2134099D01*
X1240211Y2133607D01*
X1239784Y2131461D01*
X1240211Y2129316D01*
X1241426Y2127496D01*
X1243245Y2126281D01*
X1245391Y2125854D01*
X1247538Y2126281D01*
X1249357Y2127496D01*
X1250572Y2129316D01*
X1250999Y2131461D01*
X1250572Y2133607D01*
X1249357Y2135427D01*
X1247538Y2136642D01*
X1246486Y2136852D01*
X1245106Y2139504D01*
X1245053Y2139963D01*
X1245381Y2140454D01*
X1245808Y2142600D01*
X1245381Y2144746D01*
X1244165Y2146565D01*
X1242346Y2147781D01*
X1240200Y2148208D01*
D02*
G37*
G36*
X1225391Y2137069D02*
X1223245Y2136642D01*
X1221426Y2135427D01*
X1220211Y2133607D01*
X1219784Y2131461D01*
X1220211Y2129316D01*
X1221426Y2127496D01*
X1223245Y2126281D01*
X1225391Y2125854D01*
X1227538Y2126281D01*
X1229357Y2127496D01*
X1230572Y2129316D01*
X1230999Y2131461D01*
X1230572Y2133607D01*
X1229357Y2135427D01*
X1227538Y2136642D01*
X1225391Y2137069D01*
D02*
G37*
G36*
X1211000Y2132208D02*
X1208854Y2131781D01*
X1207035Y2130565D01*
X1205819Y2128746D01*
X1205392Y2126600D01*
X1205819Y2124454D01*
X1207035Y2122635D01*
X1208854Y2121419D01*
X1211000Y2120992D01*
X1213146Y2121419D01*
X1214965Y2122635D01*
X1216181Y2124454D01*
X1216608Y2126600D01*
X1216181Y2128746D01*
X1214965Y2130565D01*
X1213146Y2131781D01*
X1211000Y2132208D01*
D02*
G37*
G36*
X1129800Y1815308D02*
X1127654Y1814881D01*
X1126724Y1814260D01*
X1125900Y1814700D01*
Y1814700D01*
X1125900Y1814700D01*
X1114900D01*
Y1804700D01*
X1125900D01*
X1125900Y1804700D01*
Y1804700D01*
X1126724Y1805141D01*
X1127654Y1804519D01*
X1129800Y1804092D01*
X1131946Y1804519D01*
X1133765Y1805735D01*
X1134981Y1807554D01*
X1135408Y1809700D01*
X1134981Y1811846D01*
X1133765Y1813665D01*
X1131946Y1814881D01*
X1129800Y1815308D01*
D02*
G37*
G36*
X1292700Y2142208D02*
X1290554Y2141781D01*
X1288735Y2140565D01*
X1287519Y2138746D01*
X1287092Y2136600D01*
X1287519Y2134454D01*
X1288735Y2132635D01*
X1290554Y2131419D01*
X1292700Y2130992D01*
X1294846Y2131419D01*
X1296665Y2132635D01*
X1297881Y2134454D01*
X1298308Y2136600D01*
X1297881Y2138746D01*
X1296665Y2140565D01*
X1294846Y2141781D01*
X1292700Y2142208D01*
D02*
G37*
G36*
X841650Y1776467D02*
X838126Y1776003D01*
X834842Y1774642D01*
X832022Y1772478D01*
X829858Y1769658D01*
X828497Y1766374D01*
X828034Y1762850D01*
X828497Y1759326D01*
X829858Y1756042D01*
X832022Y1753222D01*
X834842Y1751058D01*
X838126Y1749698D01*
X841650Y1749234D01*
X845174Y1749698D01*
X848458Y1751058D01*
X851278Y1753222D01*
X853442Y1756042D01*
X854802Y1759326D01*
X855266Y1762850D01*
X854802Y1766374D01*
X853442Y1769658D01*
X851278Y1772478D01*
X848458Y1774642D01*
X845174Y1776003D01*
X841650Y1776467D01*
D02*
G37*
G36*
X950702Y1797002D02*
X940702D01*
Y1794336D01*
X936900D01*
Y1796500D01*
X925900D01*
Y1794336D01*
X921802D01*
Y1797002D01*
X911802D01*
Y1786002D01*
X921802D01*
Y1788667D01*
X925900D01*
Y1786500D01*
X936900D01*
Y1788667D01*
X940702D01*
Y1786002D01*
X950702D01*
Y1797002D01*
D02*
G37*
G36*
X739800Y2129508D02*
X737654Y2129081D01*
X735835Y2127865D01*
X734619Y2126046D01*
X734192Y2123900D01*
X734619Y2121754D01*
X735835Y2119935D01*
X737654Y2118719D01*
X739800Y2118292D01*
X741946Y2118719D01*
X743765Y2119935D01*
X744981Y2121754D01*
X745408Y2123900D01*
X744981Y2126046D01*
X743765Y2127865D01*
X741946Y2129081D01*
X739800Y2129508D01*
D02*
G37*
G36*
X1240700Y2116308D02*
X1238554Y2115881D01*
X1236735Y2114665D01*
X1235519Y2112846D01*
X1235092Y2110700D01*
X1235519Y2108554D01*
X1236735Y2106735D01*
X1238554Y2105519D01*
X1240700Y2105092D01*
X1242846Y2105519D01*
X1244665Y2106735D01*
X1245881Y2108554D01*
X1246308Y2110700D01*
X1245881Y2112846D01*
X1244665Y2114665D01*
X1242846Y2115881D01*
X1240700Y2116308D01*
D02*
G37*
G36*
X755391Y2117069D02*
X753245Y2116642D01*
X751426Y2115427D01*
X750210Y2113607D01*
X749783Y2111461D01*
X750210Y2109315D01*
X751426Y2107496D01*
X753245Y2106281D01*
X755391Y2105854D01*
X757537Y2106281D01*
X759357Y2107496D01*
X760572Y2109315D01*
X760999Y2111461D01*
X760572Y2113607D01*
X759357Y2115427D01*
X757537Y2116642D01*
X755391Y2117069D01*
D02*
G37*
G36*
X1281900Y2120508D02*
X1279754Y2120081D01*
X1277935Y2118865D01*
X1276719Y2117046D01*
X1276292Y2114900D01*
X1276719Y2112754D01*
X1277935Y2110935D01*
X1279754Y2109719D01*
X1281900Y2109292D01*
X1284046Y2109719D01*
X1285865Y2110935D01*
X1287081Y2112754D01*
X1287508Y2114900D01*
X1287081Y2117046D01*
X1285865Y2118865D01*
X1284046Y2120081D01*
X1281900Y2120508D01*
D02*
G37*
G36*
X743200Y2102608D02*
X741054Y2102181D01*
X739235Y2100965D01*
X738019Y2099146D01*
X737592Y2097000D01*
X738019Y2094854D01*
X739235Y2093035D01*
X741054Y2091819D01*
X743200Y2091392D01*
X745346Y2091819D01*
X747165Y2093035D01*
X748381Y2094854D01*
X748808Y2097000D01*
X748381Y2099146D01*
X747165Y2100965D01*
X745346Y2102181D01*
X743200Y2102608D01*
D02*
G37*
G36*
X977050Y1880358D02*
X974904Y1879931D01*
X973085Y1878715D01*
X971869Y1876896D01*
X971442Y1874750D01*
X971840Y1872750D01*
X971550Y1871750D01*
X971550D01*
X971550Y1871750D01*
Y1861750D01*
X982550D01*
Y1871750D01*
X982550Y1871750D01*
X982260Y1872750D01*
X982658Y1874750D01*
X982231Y1876896D01*
X981015Y1878715D01*
X979196Y1879931D01*
X977050Y1880358D01*
D02*
G37*
G36*
X777800Y2129208D02*
X775654Y2128781D01*
X773835Y2127565D01*
X772619Y2125746D01*
X772192Y2123600D01*
X772619Y2121454D01*
X773835Y2119635D01*
X775654Y2118419D01*
X777800Y2117992D01*
X779946Y2118419D01*
X781765Y2119635D01*
X782981Y2121454D01*
X783408Y2123600D01*
X782981Y2125746D01*
X781765Y2127565D01*
X779946Y2128781D01*
X777800Y2129208D01*
D02*
G37*
G36*
X1265391Y2097069D02*
X1263245Y2096642D01*
X1261426Y2095427D01*
X1260211Y2093607D01*
X1259784Y2091461D01*
X1260211Y2089315D01*
X1261426Y2087496D01*
X1263245Y2086281D01*
X1265391Y2085854D01*
X1267538Y2086281D01*
X1268842Y2087153D01*
X1270789Y2086330D01*
X1271605Y2085665D01*
X1271592Y2085600D01*
X1272019Y2083454D01*
X1273235Y2081635D01*
X1275054Y2080419D01*
X1277200Y2079992D01*
X1279346Y2080419D01*
X1281165Y2081635D01*
X1282381Y2083454D01*
X1282808Y2085600D01*
X1282381Y2087746D01*
X1281165Y2089565D01*
X1279346Y2090781D01*
X1277200Y2091208D01*
X1275054Y2090781D01*
X1273749Y2089909D01*
X1271803Y2090731D01*
X1270986Y2091396D01*
X1270999Y2091461D01*
X1270572Y2093607D01*
X1269357Y2095427D01*
X1267538Y2096642D01*
X1265391Y2097069D01*
D02*
G37*
G36*
X1132000Y1719583D02*
X1130342Y1719253D01*
X1128936Y1718314D01*
X1127997Y1716908D01*
X1127667Y1715250D01*
X1127915Y1714000D01*
X1127281Y1713000D01*
X1126500D01*
Y1703000D01*
X1137500D01*
Y1713000D01*
X1136719D01*
X1136085Y1714000D01*
X1136333Y1715250D01*
X1136003Y1716908D01*
X1135064Y1718314D01*
X1133658Y1719253D01*
X1132000Y1719583D01*
D02*
G37*
G36*
X1082250Y1632800D02*
X1070250D01*
Y1619800D01*
X1072681D01*
Y1613828D01*
X1061053Y1602200D01*
X1051100D01*
Y1585200D01*
X1066100D01*
Y1597153D01*
X1078773Y1609827D01*
X1079547Y1610984D01*
X1079819Y1612350D01*
Y1619800D01*
X1082250D01*
Y1632800D01*
D02*
G37*
G36*
X935300Y1603808D02*
X933154Y1603381D01*
X931335Y1602165D01*
X930119Y1600346D01*
X929692Y1598200D01*
X930119Y1596054D01*
X931335Y1594235D01*
X933154Y1593019D01*
X935300Y1592592D01*
X937446Y1593019D01*
X939265Y1594235D01*
X940481Y1596054D01*
X940908Y1598200D01*
X940481Y1600346D01*
X939265Y1602165D01*
X937446Y1603381D01*
X935300Y1603808D01*
D02*
G37*
G36*
X774400Y2183308D02*
X772254Y2182881D01*
X770435Y2181665D01*
X769219Y2179846D01*
X768792Y2177700D01*
X769219Y2175554D01*
X770435Y2173735D01*
X772254Y2172519D01*
X774400Y2172092D01*
X776546Y2172519D01*
X778365Y2173735D01*
X779581Y2175554D01*
X780008Y2177700D01*
X779581Y2179846D01*
X778365Y2181665D01*
X776546Y2182881D01*
X774400Y2183308D01*
D02*
G37*
G36*
X1066100Y1561200D02*
X1051100D01*
Y1544200D01*
X1066100D01*
Y1544931D01*
X1070250D01*
Y1540800D01*
X1082250D01*
Y1553800D01*
X1070250D01*
Y1552069D01*
X1066100D01*
Y1561200D01*
D02*
G37*
G36*
X1050100Y1602200D02*
X1035100D01*
Y1591247D01*
X1031303Y1587450D01*
X1017600D01*
Y1577950D01*
Y1569450D01*
Y1560950D01*
X1031403D01*
X1035100Y1557253D01*
Y1544200D01*
X1050100D01*
Y1561200D01*
X1041247D01*
X1038671Y1563776D01*
X1039053Y1564700D01*
X1050100D01*
Y1581700D01*
X1036953D01*
X1036571Y1582624D01*
X1039147Y1585200D01*
X1050100D01*
Y1602200D01*
D02*
G37*
G36*
X1082250Y1593800D02*
X1070250D01*
Y1580800D01*
X1072681D01*
Y1578928D01*
X1070522Y1576769D01*
X1066100D01*
Y1581700D01*
X1051100D01*
Y1564700D01*
X1066100D01*
Y1569631D01*
X1072000D01*
X1073366Y1569903D01*
X1074523Y1570677D01*
X1078773Y1574927D01*
X1079547Y1576084D01*
X1079819Y1577450D01*
Y1580800D01*
X1082250D01*
Y1593800D01*
D02*
G37*
G36*
X696323Y2321788D02*
X696317Y2321786D01*
X696310Y2321786D01*
X695946Y2321644D01*
X695580Y2321504D01*
X695575Y2321499D01*
X695569Y2321497D01*
X695568Y2321497D01*
X695482Y2321441D01*
X635404Y2283051D01*
X635318Y2282997D01*
X635318Y2282997D01*
X635313Y2282991D01*
X635306Y2282989D01*
X635306Y2282988D01*
X635026Y2282716D01*
X634744Y2282446D01*
Y2282445D01*
X634742Y2282439D01*
X634736Y2282433D01*
X634581Y2282074D01*
X634425Y2281717D01*
X634425Y2281709D01*
X634422Y2281703D01*
X634417Y2281310D01*
X634409Y2280921D01*
X634412Y2280914D01*
X634412Y2280907D01*
X634411Y2280907D01*
X634556Y2280544D01*
X634698Y2280180D01*
Y2280180D01*
X634703Y2280175D01*
X634706Y2280168D01*
X634706Y2280168D01*
X634761Y2280083D01*
X709967Y2164241D01*
X708558Y2160902D01*
X708454Y2160881D01*
X706635Y2159665D01*
X705419Y2157846D01*
X704992Y2155700D01*
X705419Y2153554D01*
X706635Y2151735D01*
X708454Y2150519D01*
X710600Y2150092D01*
X712746Y2150519D01*
X714565Y2151735D01*
X714598Y2151784D01*
X715145Y2152131D01*
X717288Y2153057D01*
X718116Y2152784D01*
X718116D01*
X718117Y2152784D01*
X718535Y2152778D01*
X718911Y2152773D01*
X718912Y2152773D01*
X718913D01*
X719290Y2152923D01*
X719651Y2153067D01*
X777901Y2190817D01*
X778176Y2191085D01*
X778456Y2191350D01*
X778461Y2191362D01*
X778471Y2191372D01*
X778623Y2191724D01*
X778780Y2192076D01*
X778780Y2192090D01*
X778786Y2192102D01*
X778791Y2192487D01*
X778802Y2192872D01*
X778797Y2192884D01*
X778797Y2192898D01*
X778654Y2193256D01*
X778517Y2193615D01*
X698447Y2320778D01*
X698392Y2320865D01*
X698392Y2320865D01*
X698387Y2320870D01*
X698385Y2320876D01*
X698113Y2321159D01*
X697845Y2321443D01*
X697839Y2321445D01*
X697834Y2321450D01*
X697475Y2321608D01*
X697118Y2321767D01*
X697112Y2321767D01*
X697105Y2321770D01*
X696716Y2321778D01*
X696323Y2321788D01*
D02*
G37*
G36*
X1215389Y2146047D02*
X1213633Y2145698D01*
X1212145Y2144704D01*
X1211150Y2143215D01*
X1210801Y2141459D01*
X1211150Y2139703D01*
X1212145Y2138215D01*
X1213633Y2137220D01*
X1215389Y2136871D01*
X1217145Y2137220D01*
X1218633Y2138215D01*
X1219628Y2139703D01*
X1219977Y2141459D01*
X1219628Y2143215D01*
X1218633Y2144704D01*
X1217145Y2145698D01*
X1215389Y2146047D01*
D02*
G37*
G36*
X1103500Y1720333D02*
X1101842Y1720003D01*
X1100436Y1719064D01*
X1099497Y1717658D01*
X1099167Y1716000D01*
X1099497Y1714342D01*
X1099804Y1713882D01*
X1099333Y1713000D01*
X1098000D01*
Y1703000D01*
X1109000D01*
Y1713000D01*
X1107667D01*
X1107196Y1713882D01*
X1107503Y1714342D01*
X1107833Y1716000D01*
X1107503Y1717658D01*
X1106564Y1719064D01*
X1105158Y1720003D01*
X1103500Y1720333D01*
D02*
G37*
G36*
X1117750Y1719833D02*
X1116092Y1719503D01*
X1114686Y1718564D01*
X1113747Y1717158D01*
X1113417Y1715500D01*
X1113715Y1714000D01*
X1113243Y1713000D01*
X1112250D01*
Y1703000D01*
X1123250D01*
Y1713000D01*
X1122257D01*
X1121785Y1714000D01*
X1122083Y1715500D01*
X1121753Y1717158D01*
X1120814Y1718564D01*
X1119408Y1719503D01*
X1117750Y1719833D01*
D02*
G37*
G36*
X1324727Y2320388D02*
X1324334Y2320378D01*
X1323945Y2320370D01*
X1323939Y2320367D01*
X1323932Y2320367D01*
X1323573Y2320207D01*
X1323216Y2320050D01*
X1323211Y2320045D01*
X1323205Y2320043D01*
X1322936Y2319758D01*
X1322665Y2319476D01*
X1322663Y2319470D01*
X1322658Y2319465D01*
X1322658Y2319465D01*
X1322603Y2319378D01*
X1242533Y2192215D01*
X1242395Y2191855D01*
X1242253Y2191498D01*
X1242253Y2191485D01*
X1242249Y2191472D01*
X1242259Y2191086D01*
X1242264Y2190702D01*
X1242270Y2190690D01*
X1242270Y2190676D01*
X1242427Y2190324D01*
X1242579Y2189972D01*
X1242589Y2189962D01*
X1242594Y2189950D01*
X1242874Y2189685D01*
X1243149Y2189417D01*
X1247724Y2186453D01*
X1246446Y2183881D01*
X1245775Y2184014D01*
X1244300Y2184308D01*
X1242154Y2183881D01*
X1240335Y2182665D01*
X1239119Y2180846D01*
X1238692Y2178700D01*
X1239119Y2176554D01*
X1240335Y2174735D01*
X1242154Y2173519D01*
X1244300Y2173092D01*
X1246446Y2173519D01*
X1248265Y2174735D01*
X1249481Y2176554D01*
X1249908Y2178700D01*
X1249481Y2180846D01*
X1248635Y2182112D01*
X1248265Y2182665D01*
X1250095Y2184916D01*
X1301400Y2151667D01*
X1301774Y2151518D01*
X1302137Y2151373D01*
X1302138D01*
X1302139Y2151373D01*
X1302531Y2151378D01*
X1302933Y2151384D01*
X1302934Y2151384D01*
X1302934D01*
X1303748Y2151678D01*
X1305930Y2151138D01*
X1306138Y2151049D01*
X1306751Y2150659D01*
X1306835Y2150535D01*
X1308654Y2149319D01*
X1310800Y2148892D01*
X1312946Y2149319D01*
X1314765Y2150535D01*
X1315981Y2152354D01*
X1316408Y2154500D01*
X1315981Y2156646D01*
X1314765Y2158465D01*
X1312946Y2159681D01*
X1312647Y2159740D01*
X1311194Y2163012D01*
X1386288Y2278683D01*
X1386344Y2278768D01*
X1386344Y2278768D01*
X1386347Y2278775D01*
X1386352Y2278780D01*
Y2278780D01*
X1386495Y2279146D01*
X1386639Y2279507D01*
X1386638Y2279514D01*
X1386641Y2279521D01*
X1386633Y2279914D01*
X1386628Y2280302D01*
X1386625Y2280309D01*
X1386625Y2280317D01*
X1386467Y2280677D01*
X1386314Y2281033D01*
X1386309Y2281039D01*
X1386306Y2281045D01*
Y2281046D01*
X1386024Y2281316D01*
X1385744Y2281589D01*
X1385737Y2281591D01*
X1385732Y2281597D01*
X1385732Y2281597D01*
X1385646Y2281651D01*
X1325568Y2320041D01*
X1325482Y2320097D01*
X1325481Y2320097D01*
X1325475Y2320099D01*
X1325470Y2320104D01*
X1325105Y2320244D01*
X1324740Y2320386D01*
X1324733Y2320386D01*
X1324727Y2320388D01*
D02*
G37*
G36*
X1255391Y2157069D02*
X1253245Y2156642D01*
X1251426Y2155427D01*
X1250211Y2153608D01*
X1249784Y2151462D01*
X1250211Y2149316D01*
X1251426Y2147496D01*
X1253245Y2146281D01*
X1255391Y2145854D01*
X1257538Y2146281D01*
X1259357Y2147496D01*
X1260572Y2149316D01*
X1260999Y2151462D01*
X1260572Y2153608D01*
X1259357Y2155427D01*
X1257538Y2156642D01*
X1255391Y2157069D01*
D02*
G37*
G36*
X740600Y2148808D02*
X738454Y2148381D01*
X736635Y2147165D01*
X735419Y2145346D01*
X734992Y2143200D01*
X735419Y2141054D01*
X736635Y2139235D01*
X738454Y2138019D01*
X740600Y2137592D01*
X742746Y2138019D01*
X744565Y2139235D01*
X745781Y2141054D01*
X746208Y2143200D01*
X745781Y2145346D01*
X744565Y2147165D01*
X742746Y2148381D01*
X740600Y2148808D01*
D02*
G37*
%LPD*%
G36*
X1384633Y2279878D02*
X1302509Y2153378D01*
X1244258Y2191128D01*
X1324384Y2318378D01*
X1384633Y2279878D01*
D02*
G37*
G36*
X776792Y2192528D02*
X718541Y2154778D01*
X636417Y2281278D01*
X696667Y2319778D01*
X776792Y2192528D01*
D02*
G37*
G36*
X1381562Y1121500D02*
X1321313Y1083000D01*
X1241188Y1210250D01*
X1299438Y1248000D01*
X1381562Y1121500D01*
D02*
G37*
D10*
X605000Y1000000D02*
G03*
X605000Y1000000I-45000J0D01*
G01*
X1505000D02*
G03*
X1505000Y1000000I-45000J0D01*
G01*
Y2400000D02*
G03*
X1505000Y2400000I-45000J0D01*
G01*
X605000D02*
G03*
X605000Y2400000I-45000J0D01*
G01*
D11*
X988684Y1806000D02*
G03*
X981200Y1802900I0J-10584D01*
G01*
X965400Y1791930D02*
G03*
X973645Y1795345I0J11661D01*
G01*
X891300Y1791502D02*
G03*
X890352Y1792450I-948J0D01*
G01*
X864350Y1812950D02*
G03*
X857000Y1805600I0J-7350D01*
G01*
X874452Y1814102D02*
G03*
X873300Y1812950I0J-1151D01*
G01*
X847100Y1788600D02*
G03*
X857000Y1798500I0J9900D01*
G01*
X816600Y1788600D02*
G03*
X816250Y1788250I0J-350D01*
G01*
X988684Y1806000D02*
X1000000D01*
X956702Y1791502D02*
Y1791930D01*
X973645Y1795345D02*
X981200Y1802900D01*
X956702Y1791930D02*
X965400D01*
X954802Y1814000D02*
Y1814102D01*
Y1814000D02*
X1000000D01*
X931400Y1791502D02*
X945702D01*
X916802D02*
X931400D01*
Y1791500D02*
Y1791502D01*
X873300Y1792450D02*
X890352D01*
X891300Y1791502D02*
X905802D01*
X864350Y1812950D02*
X873300D01*
X874452Y1814102D02*
X943802D01*
X857000Y1798500D02*
Y1805600D01*
X816600Y1788600D02*
X847100D01*
D12*
X1062300Y1379600D02*
D03*
X903500Y2022750D02*
D03*
X1247600Y1450200D02*
D03*
X819250Y1405000D02*
D03*
X1177200Y2024700D02*
D03*
X1140500Y1452000D02*
D03*
X1098300Y1379600D02*
D03*
X930750Y1440750D02*
D03*
X1078000Y1436750D02*
D03*
X975000Y1662500D02*
D03*
X1019750Y1736250D02*
D03*
X1088250Y1674000D02*
D03*
X1138250Y1741750D02*
D03*
X1033750Y1657500D02*
D03*
X1010000Y1658000D02*
D03*
X910000Y1725500D02*
D03*
X936250Y1669500D02*
D03*
X900750Y1672500D02*
D03*
X910000Y1701000D02*
D03*
X935900Y1642500D02*
D03*
D13*
X1029300Y1808000D02*
D03*
D14*
X1058600Y1810000D02*
D03*
Y1806000D02*
D03*
Y1814000D02*
D03*
Y1822000D02*
D03*
Y1818000D02*
D03*
X1000000Y1830000D02*
D03*
Y1826000D02*
D03*
X1058600Y1802000D02*
D03*
Y1794000D02*
D03*
Y1798000D02*
D03*
Y1790000D02*
D03*
Y1786000D02*
D03*
X1000000D02*
D03*
Y1790000D02*
D03*
Y1798000D02*
D03*
Y1794000D02*
D03*
Y1802000D02*
D03*
X1058600Y1826000D02*
D03*
Y1830000D02*
D03*
X1000000Y1818000D02*
D03*
Y1822000D02*
D03*
Y1814000D02*
D03*
Y1806000D02*
D03*
Y1810000D02*
D03*
D15*
X1027300Y1778700D02*
D03*
X1031300D02*
D03*
X1023300D02*
D03*
X1015300D02*
D03*
X1019300D02*
D03*
X1007300Y1837300D02*
D03*
X1011300D02*
D03*
X1035300Y1778700D02*
D03*
X1043300D02*
D03*
X1039300D02*
D03*
X1047300D02*
D03*
X1051300D02*
D03*
Y1837300D02*
D03*
X1047300D02*
D03*
X1039300D02*
D03*
X1043300D02*
D03*
X1035300D02*
D03*
X1011300Y1778700D02*
D03*
X1007300D02*
D03*
X1019300Y1837300D02*
D03*
X1015300D02*
D03*
X1023300D02*
D03*
X1031300D02*
D03*
X1027300D02*
D03*
D16*
X1164250Y1816750D02*
D03*
Y1869250D02*
D03*
X1196250D02*
D03*
Y1816750D02*
D03*
X1164250Y1731750D02*
D03*
Y1784250D02*
D03*
X1196250D02*
D03*
Y1731750D02*
D03*
X1164250Y1645750D02*
D03*
Y1698250D02*
D03*
X1196250D02*
D03*
Y1645750D02*
D03*
D17*
X1022300Y1597700D02*
D03*
Y1608700D02*
D03*
X1028300Y1882150D02*
D03*
Y1893150D02*
D03*
X1042550Y1882150D02*
D03*
Y1893150D02*
D03*
X1014050Y1882150D02*
D03*
Y1893150D02*
D03*
X1056800Y1882150D02*
D03*
Y1893150D02*
D03*
X1120400Y1820700D02*
D03*
Y1809700D02*
D03*
X1072500Y1700750D02*
D03*
Y1711750D02*
D03*
X1087000Y1700750D02*
D03*
Y1711750D02*
D03*
X987500Y1704500D02*
D03*
Y1693500D02*
D03*
X973500Y1704500D02*
D03*
Y1693500D02*
D03*
X931400Y1780500D02*
D03*
Y1791500D02*
D03*
X891300Y1791600D02*
D03*
Y1780600D02*
D03*
X1077200Y1824000D02*
D03*
Y1835000D02*
D03*
X1091700Y1824000D02*
D03*
Y1835000D02*
D03*
X1077200Y1807800D02*
D03*
Y1796800D02*
D03*
X1091400Y1807800D02*
D03*
Y1796800D02*
D03*
X1102400Y1780600D02*
D03*
Y1769600D02*
D03*
X1088000Y1780800D02*
D03*
Y1769800D02*
D03*
X1073600Y1781100D02*
D03*
Y1770100D02*
D03*
X969100Y1837300D02*
D03*
Y1826300D02*
D03*
X983350Y1837300D02*
D03*
Y1826300D02*
D03*
X1117750Y1697000D02*
D03*
Y1708000D02*
D03*
X1103500Y1697000D02*
D03*
Y1708000D02*
D03*
X1132000Y1697000D02*
D03*
Y1708000D02*
D03*
X1111500Y1576300D02*
D03*
Y1587300D02*
D03*
Y1615300D02*
D03*
Y1626300D02*
D03*
Y1536300D02*
D03*
Y1547300D02*
D03*
X913000Y1598500D02*
D03*
Y1609500D02*
D03*
X857250Y1604750D02*
D03*
Y1615750D02*
D03*
X977050Y1866750D02*
D03*
Y1855750D02*
D03*
X871750Y1615750D02*
D03*
Y1604750D02*
D03*
X1059600Y1752000D02*
D03*
Y1763000D02*
D03*
D18*
X986000Y1636700D02*
D03*
X975000D02*
D03*
X956702Y1791502D02*
D03*
X945702D02*
D03*
X1051300Y1675000D02*
D03*
X1062300D02*
D03*
X1012750Y1680250D02*
D03*
X1001750D02*
D03*
X956250Y1752750D02*
D03*
X967250D02*
D03*
X956250Y1738500D02*
D03*
X967250D02*
D03*
X961000Y1776750D02*
D03*
X972000D02*
D03*
X943802Y1814102D02*
D03*
X954802D02*
D03*
X905802Y1791502D02*
D03*
X916802D02*
D03*
X913500Y1633000D02*
D03*
X902500D02*
D03*
X886250Y1584000D02*
D03*
X897250D02*
D03*
D19*
X986400Y1596300D02*
D03*
X995900D02*
D03*
X1005400D02*
D03*
X986400Y1622300D02*
D03*
X1005400D02*
D03*
D20*
X973250Y1521500D02*
D03*
X952750D02*
D03*
D21*
X1023000Y1440250D02*
D03*
Y1460750D02*
D03*
X873300Y1812950D02*
D03*
Y1792450D02*
D03*
X1121300Y1771950D02*
D03*
Y1792450D02*
D03*
D22*
X1000498Y1456250D02*
D03*
X1000500Y1426750D02*
D03*
D23*
X969000Y1452500D02*
D03*
Y1490500D02*
D03*
D24*
X1208250Y1582750D02*
D03*
Y1570050D02*
D03*
Y1557351D02*
D03*
X1169250D02*
D03*
Y1570050D02*
D03*
X1208250Y1595149D02*
D03*
X1169250Y1595449D02*
D03*
Y1582750D02*
D03*
X1208250Y1608149D02*
D03*
D25*
X1169250D02*
D03*
D26*
X1071000Y1509750D02*
D03*
Y1468250D02*
D03*
D27*
X966595Y1764750D02*
D03*
X971875D02*
D03*
D28*
X957350Y1831205D02*
D03*
Y1825925D02*
D03*
D29*
X1058600Y1573200D02*
D03*
X1042600D02*
D03*
X1058600Y1593700D02*
D03*
X1042600D02*
D03*
X1058600Y1552700D02*
D03*
X1042600D02*
D03*
D30*
X1026000Y1480000D02*
D03*
Y1499000D02*
D03*
X1000000Y1480000D02*
D03*
Y1489500D02*
D03*
Y1499000D02*
D03*
D31*
X1059130Y1705000D02*
D03*
Y1695000D02*
D03*
Y1700000D02*
D03*
X1040875D02*
D03*
Y1695000D02*
D03*
Y1705000D02*
D03*
D32*
X1057500Y1688380D02*
D03*
X1052500D02*
D03*
X1047500D02*
D03*
X1042500D02*
D03*
Y1711625D02*
D03*
X1047500D02*
D03*
X1052500D02*
D03*
X1057500D02*
D03*
D33*
X1006750Y1692750D02*
D03*
Y1707250D02*
D03*
X1013250Y1692750D02*
D03*
Y1707250D02*
D03*
X1000250Y1692750D02*
D03*
Y1707250D02*
D03*
X1019750Y1692750D02*
D03*
Y1707250D02*
D03*
D34*
X1076250Y1587300D02*
D03*
X1096250Y1577800D02*
D03*
Y1596800D02*
D03*
X1076250Y1626300D02*
D03*
X1096250Y1616800D02*
D03*
Y1635800D02*
D03*
X1076250Y1547300D02*
D03*
X1096250Y1537800D02*
D03*
Y1556800D02*
D03*
D35*
X884500Y1597500D02*
D03*
Y1616500D02*
D03*
X891000Y1597500D02*
D03*
X897500D02*
D03*
X891000Y1616500D02*
D03*
X897500D02*
D03*
X1183000Y1522750D02*
D03*
Y1541750D02*
D03*
X1189500Y1522750D02*
D03*
X1196000D02*
D03*
X1189500Y1541750D02*
D03*
X1196000D02*
D03*
X1159000Y1522750D02*
D03*
Y1541750D02*
D03*
X1165500Y1522750D02*
D03*
X1172000D02*
D03*
X1165500Y1541750D02*
D03*
X1172000D02*
D03*
D36*
X1078600Y1913200D02*
D03*
X1101600Y1858200D02*
D03*
Y1913200D02*
D03*
X1078600Y1858200D02*
D03*
D37*
X1005550Y1866450D02*
D03*
Y1855950D02*
D03*
X992050Y1866450D02*
D03*
D38*
Y1855950D02*
D03*
D39*
X1024600Y1565700D02*
D03*
Y1574200D02*
D03*
Y1582700D02*
D03*
X995600D02*
D03*
Y1574200D02*
D03*
Y1565700D02*
D03*
D40*
X1098300Y1379600D02*
Y1395900D01*
X1022700Y1379500D02*
X1022800Y1379600D01*
X1062300D01*
X983350Y1826300D02*
X983850Y1826800D01*
X875500Y1584000D02*
X886250D01*
X1097750Y1536300D02*
X1111500D01*
X1096250Y1537800D02*
X1097750Y1536300D01*
X1097750Y1576300D02*
X1111500D01*
X1096250Y1577800D02*
X1097750Y1576300D01*
Y1615300D02*
X1111500D01*
X1096250Y1616800D02*
X1097750Y1615300D01*
X1111500Y1587300D02*
Y1596300D01*
Y1547800D02*
Y1556800D01*
X969100Y1826300D02*
X983350D01*
X969100Y1826300D02*
X969100Y1826300D01*
X968725Y1825925D02*
X969100Y1826300D01*
Y1837300D02*
Y1844300D01*
X978850Y1841800D02*
Y1845300D01*
Y1841800D02*
X983350Y1837300D01*
X967250Y1738500D02*
Y1752750D01*
X947000D02*
X956250D01*
X948250Y1738500D02*
X956250D01*
X1024600Y1582700D02*
X1031600D01*
X1042600Y1593700D01*
X1024600Y1574200D02*
X1041600D01*
X1024600Y1565700D02*
X1031700D01*
X1042600Y1554800D01*
Y1552700D02*
Y1554800D01*
X1058600Y1548700D02*
Y1552700D01*
X1058400Y1548500D02*
X1058600Y1548700D01*
X1058400Y1548500D02*
X1075050D01*
X1076250Y1547300D01*
X1111500Y1626300D02*
X1111600Y1626400D01*
X1072000Y1573200D02*
X1076250Y1577450D01*
Y1587300D01*
X1058600Y1573200D02*
X1072000D01*
X1058600Y1593700D02*
Y1594700D01*
X1076250Y1612350D01*
Y1626300D01*
X1094250Y1598800D02*
X1096250Y1596800D01*
X1085500Y1598800D02*
X1094250D01*
X1168571Y1608828D02*
X1169250Y1608149D01*
X1152100Y1611400D02*
X1155700Y1607800D01*
X1168901D01*
X1169250Y1608149D01*
X1103000Y1626300D02*
X1111500D01*
X1059600Y1752000D02*
X1065842Y1745758D01*
X1099500Y1808200D02*
Y1824000D01*
X1099100Y1807800D02*
X1099500Y1808200D01*
D41*
X1066000Y1823500D02*
X1068600D01*
X1064500Y1822000D02*
X1066000Y1823500D01*
X1058600Y1822000D02*
X1064500D01*
X1058600Y1818000D02*
X1064100D01*
X1067600Y1814500D01*
X1063900Y1826000D02*
X1070500Y1832600D01*
X1058600Y1826000D02*
X1063900D01*
X1064364Y1830000D02*
X1068000Y1833636D01*
X1058600Y1830000D02*
X1064364D01*
X1068000Y1833636D02*
Y1847200D01*
X977050Y1855750D02*
X981750D01*
X1000000Y1837500D01*
Y1830000D02*
Y1837500D01*
X981250Y1737500D02*
X987500Y1731250D01*
X994600Y1786000D02*
X1000000D01*
X993250Y1784650D02*
X994600Y1786000D01*
X993250Y1757500D02*
Y1784650D01*
X992500Y1790000D02*
X1000000D01*
X988750Y1786250D02*
X992500Y1790000D01*
X988750Y1754500D02*
Y1786250D01*
X985250Y1788290D02*
X990960Y1794000D01*
X1000000D01*
X1019300Y1772500D02*
Y1778700D01*
X1010000Y1763200D02*
X1019300Y1772500D01*
X1004299Y1761549D02*
X1015300Y1772550D01*
Y1778700D01*
X1011300Y1772600D02*
Y1778700D01*
X1003200Y1764500D02*
X1011300Y1772600D01*
X998250Y1764500D02*
X1003200D01*
X1053600Y1728500D02*
X1125000D01*
X1047100Y1722000D02*
X1053600Y1728500D01*
X1125000D02*
X1138250Y1741750D01*
X1029300Y1808000D02*
X1043300Y1794000D01*
X1058600D01*
X1005550Y1850050D02*
Y1855950D01*
Y1850050D02*
X1006500Y1849100D01*
X1010900D01*
X1002300Y1844100D02*
X1009500D01*
X998500Y1847900D02*
X1002300Y1844100D01*
X1009500D02*
X1011300Y1842300D01*
Y1837300D02*
Y1842300D01*
X1015300Y1837300D02*
Y1845129D01*
X1019700Y1837700D02*
Y1859500D01*
X1019300Y1837300D02*
X1019700Y1837700D01*
X1058300Y1837300D02*
X1063000Y1842000D01*
X1051300Y1837300D02*
X1058300D01*
X1047300D02*
Y1845550D01*
X1046000Y1848429D02*
Y1856750D01*
X1043500Y1845929D02*
X1046000Y1848429D01*
X1043500Y1837500D02*
Y1845929D01*
X1043300Y1837300D02*
X1043500Y1837500D01*
X1039300Y1848800D02*
X1041000Y1850500D01*
X1039300Y1837300D02*
Y1848800D01*
X1023300Y1837300D02*
Y1857161D01*
X1027300Y1837300D02*
Y1856250D01*
X1031300Y1855261D02*
X1046538Y1870500D01*
X1031300Y1837300D02*
Y1855261D01*
X1035300Y1837300D02*
Y1853548D01*
X1048502Y1866750D01*
X1004900Y1837300D02*
X1007300D01*
X992050Y1850150D02*
X1004900Y1837300D01*
X992050Y1850150D02*
Y1855950D01*
X998500Y1847900D02*
Y1859757D01*
X1005193Y1866450D01*
X1005550D01*
X1011300Y1837300D02*
X1011300Y1837300D01*
X857930Y1574000D02*
X905750D01*
X1195900Y1645400D02*
X1196250Y1645750D01*
X1195900Y1632200D02*
Y1645400D01*
Y1632200D02*
X1208250Y1619850D01*
Y1608149D02*
Y1619850D01*
X1196250Y1698250D02*
Y1731750D01*
Y1784250D01*
Y1816750D01*
Y1869250D01*
X800500Y1318700D02*
Y1405000D01*
X751400Y1269600D02*
X800500Y1318700D01*
X1115300Y1390300D02*
X1121250Y1396250D01*
X1115300Y1383500D02*
Y1390300D01*
X1233000Y1276400D02*
Y1404250D01*
Y1276400D02*
X1249500Y1259900D01*
X1221250Y1570250D02*
X1223200Y1568300D01*
Y1554000D02*
Y1568300D01*
X1220051Y1550851D02*
X1223200Y1554000D01*
X1208450Y1570250D02*
X1221250D01*
X769622Y2143750D02*
X782499D01*
X1177200Y2024700D02*
Y2024700D01*
X1268000Y2115500D01*
Y2127700D01*
X1113500Y1665000D02*
Y1685300D01*
X1103750Y1655250D02*
X1113500Y1665000D01*
X1208851Y1550851D02*
X1220051D01*
X1202200Y1544200D02*
X1208851Y1550851D01*
X1202200Y1533000D02*
Y1544200D01*
X1196000Y1526800D02*
X1202200Y1533000D01*
X1196000Y1522750D02*
Y1526800D01*
X1190000Y1552500D02*
Y1591750D01*
X1183000Y1545500D02*
X1190000Y1552500D01*
X1186500Y1554500D02*
Y1591000D01*
X1175125Y1543125D02*
X1186500Y1554500D01*
X1196000Y1541750D02*
Y1552158D01*
X1143000Y1524750D02*
Y1587500D01*
Y1524750D02*
X1164000Y1503750D01*
X1199000Y1582250D02*
Y1584750D01*
X1195000Y1588750D02*
X1199000Y1584750D01*
X1121250Y1396250D02*
Y1463000D01*
X1133500Y1475250D01*
X1111500Y1576300D02*
X1118500D01*
X1125500Y1583300D02*
Y1689250D01*
X1118900Y1690900D02*
X1122000Y1687800D01*
Y1620800D02*
Y1687800D01*
X1116500Y1615300D02*
X1122000Y1620800D01*
X1117750Y1697000D02*
X1125500Y1689250D01*
X1111500Y1615300D02*
X1116500D01*
X1033750Y1657500D02*
Y1681000D01*
X1028000D02*
X1033750D01*
X1022500Y1688103D02*
X1025479Y1691082D01*
X1022500Y1683679D02*
Y1688103D01*
Y1683679D02*
X1022550Y1683629D01*
X1004299Y1754336D02*
Y1761549D01*
X999250Y1741250D02*
Y1751500D01*
X993250Y1757500D02*
X999250Y1751500D01*
X987500Y1704500D02*
X988000Y1705000D01*
X1013000Y1727500D02*
X1019750Y1736250D01*
X1002250Y1720750D02*
X1013250Y1709750D01*
X959250Y1720750D02*
X1002250D01*
X1000500Y1716750D02*
X1006750Y1710500D01*
X982250Y1716750D02*
X1000500D01*
X981250Y1715750D02*
X982250Y1716750D01*
X1048502Y1866750D02*
X1132083D01*
X1047300Y1845550D02*
X1054250Y1852500D01*
X1046538Y1870500D02*
X1136500D01*
X891000Y1592678D02*
Y1597500D01*
X886250Y1587928D02*
X891000Y1592678D01*
X886250Y1584000D02*
Y1587928D01*
X973500Y1704500D02*
X975250Y1706250D01*
X980750D01*
X1016000Y1699750D02*
X1019750Y1696000D01*
X1004500Y1699750D02*
X1016000D01*
X988000Y1662500D02*
X994000Y1668500D01*
X975000Y1662500D02*
X988000D01*
X993250Y1742300D02*
Y1750000D01*
X988750Y1754500D02*
X993250Y1750000D01*
X999250Y1741250D02*
X1013000Y1727500D01*
X985250Y1742500D02*
Y1788290D01*
Y1742500D02*
X988500Y1739250D01*
X1013000Y1727500D02*
X1035500Y1705000D01*
X1035300Y1700250D02*
X1040625D01*
X1035500Y1705000D02*
X1040875D01*
X1033750Y1681000D02*
X1040750D01*
X1034051Y1686653D02*
Y1693050D01*
X1025479Y1691082D02*
X1029621D01*
X1034051Y1686653D01*
X945750Y1687250D02*
X974250Y1715750D01*
X945750Y1679000D02*
Y1687250D01*
X936250Y1669500D02*
X945750Y1679000D01*
X974250Y1715750D02*
X981250D01*
X959000Y1720500D02*
X959250Y1720750D01*
X929500Y1720500D02*
X959000D01*
X910000Y1701000D02*
X929500Y1720500D01*
X923500Y1725500D02*
X927000Y1729000D01*
X910000Y1725500D02*
X923500D01*
X927000Y1729000D02*
X972250D01*
X1019750Y1692750D02*
Y1696000D01*
X1013250Y1707250D02*
Y1709750D01*
X1006750Y1707250D02*
Y1710500D01*
X972250Y1729000D02*
X977000Y1724250D01*
X1042500Y1682750D02*
Y1688380D01*
X1040750Y1681000D02*
X1042500Y1682750D01*
X1036000Y1695000D02*
X1040875D01*
X1034051Y1693050D02*
X1036000Y1695000D01*
X1040625Y1700250D02*
X1040875Y1700000D01*
X981250Y1737500D02*
Y1789240D01*
X1177949Y1595449D02*
X1182051D01*
X1177949D02*
X1187500Y1605000D01*
X1169250Y1595449D02*
X1177949D01*
X1193500Y1601750D02*
Y1613500D01*
Y1601750D02*
X1200101Y1595149D01*
X1208250D01*
X1193399D02*
X1198101D01*
X1150000Y1582750D02*
X1160750D01*
X1160050Y1570050D02*
X1169250D01*
X1156050D02*
X1160050D01*
X1152000Y1566000D02*
X1156050Y1570050D01*
X1154500Y1554658D02*
X1159000Y1550158D01*
X1156750Y1562293D02*
Y1566750D01*
X1154500Y1560043D02*
X1156750Y1562293D01*
X1154500Y1554658D02*
Y1560043D01*
X1156750Y1566750D02*
X1160050Y1570050D01*
X1146750Y1545611D02*
Y1579500D01*
Y1545611D02*
X1159000Y1533361D01*
X1146750Y1579500D02*
X1150000Y1582750D01*
X1196000Y1522750D02*
X1196250Y1522500D01*
Y1512250D02*
Y1522500D01*
X1187750Y1503750D02*
X1196250Y1512250D01*
X1164000Y1503750D02*
X1187750D01*
X1109600Y1690900D02*
X1118900D01*
X1103500Y1697000D02*
X1109600Y1690900D01*
X1117750Y1708000D02*
Y1715500D01*
X1132000Y1708000D02*
Y1715250D01*
X1103500Y1708000D02*
Y1716000D01*
X1041000Y1850500D02*
X1041000Y1850500D01*
X1160150Y1645350D02*
Y1697850D01*
X1156500Y1708500D02*
X1161250Y1703750D01*
Y1701250D02*
Y1703750D01*
X1160150Y1697850D02*
X1161250Y1701250D01*
X1132083Y1866750D02*
X1152000Y1846833D01*
X1160550Y1731850D02*
Y1784350D01*
X1164250Y1786750D01*
X1155500Y1795500D02*
X1164250Y1786750D01*
X1155500Y1795500D02*
Y1851500D01*
X1136500Y1870500D02*
X1155500Y1851500D01*
X1164500Y1869500D02*
Y1882000D01*
X838000Y1604750D02*
X857250D01*
X872500Y1616500D02*
X884500D01*
X891000D01*
X902500Y1627500D02*
Y1633000D01*
X897250Y1584000D02*
X905000D01*
X913000Y1609500D02*
Y1632500D01*
X913500Y1633000D01*
X897500Y1597500D02*
X901000D01*
X913000Y1609500D01*
X905750Y1574000D02*
X913000Y1581250D01*
Y1598500D01*
X857250Y1615750D02*
X871750D01*
X938750Y1521750D02*
X952500D01*
X1142000Y1450500D02*
X1161500D01*
X800500Y1405000D02*
X819250D01*
X1208250Y1570050D02*
X1208450Y1570250D01*
X1165500Y1515000D02*
Y1522750D01*
X1189500Y1515000D02*
Y1522750D01*
X1162199Y1595449D02*
X1169250D01*
X800500Y1405000D02*
Y1496000D01*
X977050Y1866750D02*
Y1874750D01*
X1183000Y1541750D02*
Y1545500D01*
X1193500Y1554658D02*
X1196000Y1552158D01*
X1193500Y1554658D02*
Y1576750D01*
X1190000Y1591750D02*
X1193399Y1595149D01*
X1182051Y1595449D02*
X1186500Y1591000D01*
X1173375Y1543125D02*
X1175125D01*
X1193500Y1576750D02*
X1199000Y1582250D01*
X1159000Y1541750D02*
Y1550158D01*
Y1522750D02*
Y1533361D01*
X995500Y1707250D02*
X1000250D01*
X1068250Y1655250D02*
X1103750D01*
X993250Y1742300D02*
X1035300Y1700250D01*
X1019750Y1707250D02*
Y1710000D01*
X977000Y1724250D02*
X1005500D01*
X1019750Y1710000D01*
X1133500Y1475250D02*
Y1672500D01*
X1153000Y1692000D01*
X1130000Y1695000D02*
X1132000Y1697000D01*
X1130000Y1549750D02*
Y1695000D01*
X1010000Y1658000D02*
X1022550Y1670550D01*
Y1683629D01*
X1074000Y1688250D02*
X1088250Y1674000D01*
X1034051Y1686332D02*
Y1686653D01*
X1047100Y1718400D02*
X1050600D01*
X1052500Y1716500D01*
Y1711625D02*
Y1716500D01*
X1052500Y1711625D02*
X1052500Y1711625D01*
X1028200Y1615200D02*
X1068250Y1655250D01*
X913500Y1633000D02*
X920750Y1625750D01*
X942150D01*
X952700Y1615200D01*
X1028200D01*
X1116550Y1536300D02*
X1130000Y1549750D01*
X1111500Y1536300D02*
X1116550D01*
X1118500Y1576300D02*
X1125500Y1583300D01*
X1058600Y1593700D02*
Y1594900D01*
X962500Y1714750D02*
X965750D01*
X900750Y1672500D02*
X920250D01*
X962500Y1714750D01*
X1146929Y1634250D02*
X1151071D01*
X1154000Y1631321D01*
Y1621321D02*
Y1631321D01*
X1142579Y1629900D02*
X1146929Y1634250D01*
X1149000Y1618111D02*
Y1629250D01*
X1191900Y1615100D02*
X1193500Y1613500D01*
X1154000Y1621321D02*
X1160221Y1615100D01*
X1191900D01*
X1057630Y1688250D02*
X1074000D01*
X1139300Y1629900D02*
X1142579D01*
X1163750Y1582750D02*
X1169250D01*
X1145850Y1600650D02*
Y1614961D01*
Y1600650D02*
X1163750Y1582750D01*
X1145850Y1614961D02*
X1149000Y1618111D01*
X1047100Y1718400D02*
Y1722000D01*
X1233000Y1404250D02*
X1247600Y1418850D01*
Y1857850D01*
X1031300Y1773300D02*
Y1778700D01*
X1043300Y1772471D02*
Y1778700D01*
Y1772471D02*
X1049100Y1766671D01*
X1023300Y1754700D02*
Y1778700D01*
X1032300Y1768900D02*
Y1772300D01*
X1031300Y1773300D02*
X1032300Y1772300D01*
X1035300Y1772971D02*
Y1778700D01*
X1037300Y1766829D02*
Y1770971D01*
X1035300Y1772971D02*
X1037300Y1770971D01*
X1039300Y1772507D02*
Y1778700D01*
Y1772507D02*
X1039800Y1772007D01*
Y1769800D02*
Y1772007D01*
Y1769800D02*
X1042000Y1767600D01*
X1010000Y1747250D02*
Y1763200D01*
X1112600Y1820700D02*
X1120400D01*
X1058600Y1822000D02*
X1058700Y1821900D01*
X1072200Y1858200D02*
X1078600D01*
X1072000Y1858400D02*
X1072200Y1858200D01*
X1072000Y1851200D02*
Y1858400D01*
X1068000Y1847200D02*
X1072000Y1851200D01*
X1070500Y1846165D02*
X1077015Y1852680D01*
X1091180D01*
X1096700Y1858200D01*
X1101600D01*
X1070500Y1832600D02*
Y1846165D01*
X1027300Y1856250D02*
X1044250Y1873200D01*
X1053200D01*
X1056800Y1876800D01*
Y1882150D01*
X1042550Y1876411D02*
Y1882150D01*
X1023300Y1857161D02*
X1042550Y1876411D01*
X1019700Y1859500D02*
X1028300Y1868100D01*
Y1882150D01*
X1014050Y1864350D02*
Y1882150D01*
X1015300Y1845129D02*
X1016800Y1846629D01*
Y1861600D01*
X1014050Y1864350D02*
X1016800Y1861600D01*
X1091400Y1938900D02*
X1177200Y2024700D01*
X1060400Y1938900D02*
X1091400D01*
X1042550Y1921050D02*
X1060400Y1938900D01*
X1042550Y1893150D02*
Y1921050D01*
X1028300Y1893150D02*
Y1897950D01*
X903500Y2022750D02*
X1028300Y1897950D01*
X1196250Y1645750D02*
Y1658750D01*
Y1698250D01*
X855390Y1571460D02*
X857930Y1574000D01*
X897500Y1622300D02*
X900100Y1624900D01*
X897500Y1616500D02*
Y1622300D01*
X900100Y1624900D02*
Y1625100D01*
X902500Y1627500D01*
X871750Y1599300D02*
X879300D01*
X881100Y1597500D01*
X884500D01*
X871750Y1599300D02*
Y1604750D01*
X1140181Y1820700D02*
X1149422Y1811459D01*
X1120400Y1820700D02*
X1140181D01*
X1152000Y1794800D02*
Y1846833D01*
Y1794800D02*
X1156500Y1790300D01*
Y1708500D02*
Y1790300D01*
X1149422Y1793278D02*
Y1811459D01*
Y1793278D02*
X1153000Y1789700D01*
Y1692000D02*
Y1789700D01*
X962000Y1856500D02*
X976300D01*
X977050Y1855750D01*
X991704Y1866796D02*
X992050Y1866450D01*
X984898Y1866796D02*
X991704D01*
X981250Y1789240D02*
X990010Y1798000D01*
X1000000D01*
X891300Y1780600D02*
X899300D01*
X883300Y1780600D02*
X891300D01*
Y1773600D02*
Y1780600D01*
Y1780600D01*
X931400Y1780500D02*
Y1780500D01*
Y1773500D02*
Y1780500D01*
X923400D02*
X931400D01*
Y1780500D02*
X939400D01*
X954000Y1776750D02*
X961000D01*
X782499Y2143750D02*
X903500Y2022750D01*
X803000Y1782762D02*
Y1793738D01*
X805100Y1500600D02*
Y1780662D01*
X803000Y1782762D02*
X805100Y1780662D01*
X803000Y1793738D02*
X805100Y1795838D01*
X800500Y1496000D02*
X805100Y1500600D01*
Y1878150D02*
X820100Y1893150D01*
X805100Y1795838D02*
Y1878150D01*
X820100Y1893150D02*
X1014050D01*
X1078800Y1913000D02*
X1090400D01*
X1078600Y1913200D02*
X1078800Y1913000D01*
X1090400D02*
X1101400D01*
X1036200Y1761800D02*
Y1765729D01*
X1037300Y1766829D01*
X1042000Y1755700D02*
Y1767600D01*
X1047300Y1773300D02*
X1050200Y1770400D01*
X1047300Y1773300D02*
Y1778700D01*
X1027300Y1766600D02*
X1028300Y1765600D01*
Y1757500D02*
Y1765600D01*
X1027300Y1766600D02*
Y1778700D01*
X1026300Y1749200D02*
Y1751700D01*
X1023300Y1754700D02*
X1026300Y1751700D01*
X1050200Y1770400D02*
X1053200D01*
X1049100Y1760500D02*
Y1766671D01*
X1176000Y1628860D02*
X1183500Y1621360D01*
X1176000Y1628860D02*
Y1802500D01*
X1164250Y1814250D02*
X1176000Y1802500D01*
X1160200Y1817234D02*
X1164250Y1814250D01*
X1160200Y1817234D02*
Y1869561D01*
X1164500Y1869500D01*
X1056800Y1893150D02*
X1065550Y1901900D01*
X1203550D01*
X1247600Y1857850D01*
D42*
X1066526Y1806000D02*
X1077200Y1816674D01*
X1058600Y1806000D02*
X1066526D01*
X1077200Y1816674D02*
Y1824000D01*
X972000Y1764875D02*
Y1776750D01*
X977300Y1782050D02*
Y1790900D01*
X972000Y1776750D02*
X977300Y1782050D01*
X1015300Y1822000D02*
X1029300Y1808000D01*
X1000000Y1822000D02*
X1015300D01*
X1077375Y1724350D02*
X1080450Y1721275D01*
X1063750Y1724350D02*
X1077375D01*
X1057500Y1718100D02*
X1063750Y1724350D01*
X983650Y1826000D02*
X1000000D01*
X1012750Y1679750D02*
Y1680250D01*
X986000Y1653000D02*
X1012750Y1679750D01*
X955500Y1644400D02*
Y1675500D01*
X973500Y1693500D01*
X1071000Y1468250D02*
X1078000Y1461250D01*
Y1436750D02*
Y1461250D01*
X987500Y1693500D02*
X988250Y1692750D01*
X1000250D01*
X973500Y1693500D02*
X987500D01*
X1012750Y1680250D02*
Y1692250D01*
X1013250Y1692750D01*
X1057500Y1711625D02*
X1057625Y1711750D01*
X1047500Y1688380D02*
X1052500D01*
X1059130Y1700000D02*
Y1705000D01*
X995900Y1595557D02*
Y1596300D01*
X981700Y1588300D02*
X988643D01*
X995900Y1595557D01*
X1022300Y1608700D02*
X1031400D01*
X986400Y1622300D02*
Y1636300D01*
X987700Y1635000D02*
X1042697D01*
X986000Y1636700D02*
X986400Y1636300D01*
X987700Y1635000D01*
X986000Y1636700D02*
Y1653000D01*
Y1636300D02*
Y1636700D01*
X975000D02*
Y1643300D01*
X1024600Y1574200D02*
X1025600Y1573200D01*
X1083400Y1635800D02*
X1096250D01*
X1047500Y1678800D02*
X1051300Y1675000D01*
X1047500Y1678800D02*
Y1688380D01*
X960800Y1622300D02*
X986400D01*
X953150Y1629950D02*
X960800Y1622300D01*
X948450Y1629950D02*
X953150D01*
X935900Y1642500D02*
X948450Y1629950D01*
X969700Y1630200D02*
X979900D01*
X955500Y1644400D02*
X969700Y1630200D01*
X979900D02*
X986000Y1636300D01*
X1042697Y1635000D02*
X1051600Y1643903D01*
Y1671900D01*
X1050098Y1673402D02*
X1051600Y1671900D01*
X1059130Y1700000D02*
X1071750D01*
X1072500Y1700750D01*
X1059130Y1694750D02*
Y1695000D01*
X1077243Y1694750D02*
X1079800Y1697307D01*
Y1704450D01*
X1072500Y1711750D02*
X1079800Y1704450D01*
X1072500Y1711750D02*
X1087000D01*
X1088400Y1694300D02*
Y1699350D01*
X1087000Y1700750D02*
X1088400Y1699350D01*
X1069107Y1719100D02*
X1075200D01*
X1065900Y1715893D02*
X1069107Y1719100D01*
X1059130Y1705000D02*
X1060800D01*
X1065900Y1710100D01*
Y1715893D01*
X1057500Y1711625D02*
Y1718100D01*
X1080450Y1718300D02*
Y1721275D01*
Y1718300D02*
X1087000Y1711750D01*
X1052500Y1688380D02*
Y1693200D01*
X1054300Y1695000D01*
X1059130D01*
Y1694750D02*
X1077243D01*
X1058600Y1790000D02*
X1064600D01*
X1073500Y1781100D01*
X1058600Y1798000D02*
X1064400D01*
X1101900Y1780600D02*
X1102400D01*
X1064400Y1798000D02*
X1074800Y1787600D01*
X1094900D01*
X1101900Y1780600D01*
X1102400D02*
X1106900D01*
X1118750Y1792450D01*
X1121300D01*
X1133950D01*
X1077200Y1807800D02*
X1091400D01*
X1077200Y1824000D02*
X1091700D01*
X1099500D01*
X1091400Y1807800D02*
X1099100D01*
X1077200Y1796800D02*
X1091400D01*
X1099400D01*
X1077200Y1835000D02*
X1091700D01*
X1091800Y1834900D01*
X1100100D01*
X1058600Y1802000D02*
X1071400D01*
X1077200Y1807800D01*
X1051300Y1778700D02*
X1054900D01*
X1059600Y1774000D01*
Y1763000D02*
Y1774000D01*
X1120400Y1809700D02*
X1129800D01*
X1129900Y1809600D01*
X1102500Y1769500D02*
X1110200D01*
X1102400Y1769600D02*
X1102500Y1769500D01*
X1110200D02*
X1118850D01*
X1121300Y1771950D01*
X1073900Y1769800D02*
X1080700D01*
X1073600Y1770100D02*
X1073900Y1769800D01*
X1080700D02*
X1088000D01*
X1088000Y1769800D01*
X1080600Y1781100D02*
X1087700D01*
X1073500D02*
X1080600D01*
X988400Y1802000D02*
X1000000D01*
X977300Y1790900D02*
X988400Y1802000D01*
D43*
X949250Y1764750D02*
X966595D01*
X957350Y1825925D02*
X968725D01*
X957350Y1831205D02*
Y1838300D01*
X966595Y1753405D02*
Y1764750D01*
D44*
X979500Y1480000D02*
X1000000D01*
X969000Y1490500D02*
X979500Y1480000D01*
X999967Y1499033D02*
X1000000Y1499000D01*
X990534Y1499033D02*
X999967D01*
X982001Y1490500D02*
X990534Y1499033D01*
X969000Y1490500D02*
X982001D01*
X969000Y1407800D02*
X997300Y1379500D01*
X969000Y1407800D02*
Y1452500D01*
X930750Y1440750D02*
X942500Y1452500D01*
X969000D01*
X973250Y1494750D02*
Y1521500D01*
X969000Y1490500D02*
X973250Y1494750D01*
X1000498Y1456250D02*
Y1479502D01*
X1000000Y1480000D02*
X1000498Y1479502D01*
X1023000Y1427000D02*
Y1440250D01*
X1000000Y1489500D02*
X1000497Y1489997D01*
X1007998D01*
X1090750Y1562300D02*
X1096250Y1556800D01*
X1085250Y1562300D02*
X1090750D01*
X1005400Y1553650D02*
Y1596300D01*
X973250Y1521500D02*
X1005400Y1553650D01*
X1006800Y1597700D02*
X1022300D01*
X1005400Y1596300D02*
X1006800Y1597700D01*
X986400Y1596300D02*
Y1597703D01*
X991964Y1603267D01*
X999836D01*
X1005400Y1597703D01*
Y1596300D02*
Y1597703D01*
X816250Y1788250D02*
X816311Y1788311D01*
D45*
X1020250Y1460750D02*
X1023000D01*
X1011000Y1451500D02*
X1020250Y1460750D01*
X1011000Y1437250D02*
Y1451500D01*
X1000500Y1426750D02*
X1011000Y1437250D01*
X978600Y1574200D02*
X995600D01*
X969850Y1565700D02*
X995600D01*
X969850Y1582450D02*
X995600D01*
D46*
X627198Y2443409D02*
G03*
X492801Y2356591I-67198J-43409D01*
G01*
X847800Y2100300D02*
G03*
X903521Y2071281I53619J34952D01*
G01*
X768700Y1893300D02*
G03*
X754598Y1949357I-118419J12D01*
G01*
X1265402D02*
G03*
X1251300Y1893300I104316J-56045D01*
G01*
X1116479Y2071281D02*
G03*
X1172200Y2100300I2102J63971D01*
G01*
X1527199Y2356591D02*
G03*
X1392802Y2443409I-67199J43409D01*
G01*
X754598Y1450644D02*
G03*
X768700Y1506700I-104316J56045D01*
G01*
X903521Y1328719D02*
G03*
X847800Y1299700I-2102J-63971D01*
G01*
X492801Y1043409D02*
G03*
X627198Y956591I67199J-43409D01*
G01*
X1251300Y1506700D02*
G03*
X1265402Y1450644I118419J-12D01*
G01*
X1172200Y1299700D02*
G03*
X1116479Y1328719I-53619J-34952D01*
G01*
X1392802Y956591D02*
G03*
X1527199Y1043409I67198J43409D01*
G01*
X627294Y2443260D02*
X847778Y2100286D01*
X492801Y2356591D02*
X754596Y1949355D01*
X1265404D02*
X1527199Y2356591D01*
X1172222Y2100286D02*
X1392706Y2443260D01*
X492801Y1043409D02*
X754596Y1450645D01*
X627294Y956740D02*
X847778Y1299714D01*
X1265404Y1450645D02*
X1527199Y1043409D01*
X1172222Y1299714D02*
X1392706Y956740D01*
X903521Y1328719D02*
X1116479D01*
X768700Y1506700D02*
Y1893300D01*
X903521Y2071281D02*
X1116479D01*
X1251300Y1506700D02*
Y1893300D01*
D47*
X997300Y1379500D02*
D03*
D48*
X1022700D02*
D03*
D49*
X841650Y1813650D02*
D03*
X790850Y1762850D02*
D03*
X841650D02*
D03*
X790850Y1813650D02*
D03*
D50*
X816250Y1788250D02*
D03*
D51*
X1098300Y1395900D02*
D03*
X751400Y1269600D02*
D03*
X1115300Y1383500D02*
D03*
X1207000Y1416200D02*
D03*
X1216000D02*
D03*
Y1424950D02*
D03*
X1207000Y1424700D02*
D03*
X1198250D02*
D03*
X1249500Y1259900D02*
D03*
X777800Y2123600D02*
D03*
X740600Y2143200D02*
D03*
X1277200Y2085600D02*
D03*
X1211000Y2126600D02*
D03*
X1244300Y2178700D02*
D03*
X1284400Y2175500D02*
D03*
X734200Y2175900D02*
D03*
X769200Y2195300D02*
D03*
X646400Y2279000D02*
D03*
X1254600Y2193400D02*
D03*
X743200Y2097000D02*
D03*
X792600Y2147100D02*
D03*
X710600Y2155700D02*
D03*
X739800Y2123900D02*
D03*
X774400Y2177700D02*
D03*
X769622Y2143750D02*
D03*
X1268000Y2127700D02*
D03*
X1148250Y1873500D02*
D03*
X949250Y1764750D02*
D03*
X1060000Y1484000D02*
D03*
X1051750D02*
D03*
X1043750D02*
D03*
X1068000D02*
D03*
X875500Y1584000D02*
D03*
X1310800Y2154500D02*
D03*
X1281900Y2114900D02*
D03*
X1240200Y2142600D02*
D03*
X1292700Y2136600D02*
D03*
X1240700Y2110700D02*
D03*
X1132800Y1416500D02*
D03*
X1144050Y1422250D02*
D03*
X1154300Y1422000D02*
D03*
X1154050Y1411250D02*
D03*
X1143800Y1411500D02*
D03*
X1197650Y1375600D02*
D03*
X1206400D02*
D03*
X1215400Y1375850D02*
D03*
Y1367100D02*
D03*
X1206400D02*
D03*
X1154250Y1376750D02*
D03*
X1164750Y1376250D02*
D03*
X1165000Y1386500D02*
D03*
X1154250Y1386250D02*
D03*
X1144250D02*
D03*
X1164500Y1882000D02*
D03*
X905000Y1584000D02*
D03*
X838000Y1604750D02*
D03*
X1335392Y1171461D02*
D03*
X1325392Y1191461D02*
D03*
X1315392Y1131461D02*
D03*
X1325392Y1111461D02*
D03*
X1295392Y1211461D02*
D03*
X1305392Y1151461D02*
D03*
X1295392Y1131461D02*
D03*
X1275391Y1171461D02*
D03*
X1285392Y1151461D02*
D03*
X1255391Y1211461D02*
D03*
X1265391Y1191461D02*
D03*
X1310750Y1215250D02*
D03*
X710000Y1215000D02*
D03*
X765391Y1191461D02*
D03*
X735391Y1211461D02*
D03*
X745391Y1191461D02*
D03*
X735391Y1171461D02*
D03*
X725391Y1151461D02*
D03*
X715391Y1131461D02*
D03*
X705391Y1111461D02*
D03*
X695391Y1091461D02*
D03*
X675391Y1171461D02*
D03*
X685391Y1111461D02*
D03*
X665391Y1151461D02*
D03*
X969850Y1582450D02*
D03*
X978600Y1574200D02*
D03*
X969850Y1565700D02*
D03*
X560000Y2445000D02*
D03*
X515000Y2400000D02*
D03*
X605000D02*
D03*
X560000Y2355000D02*
D03*
X527500Y2430000D02*
D03*
X592500Y2427500D02*
D03*
Y2370000D02*
D03*
X530000Y2367500D02*
D03*
X1460000Y2445000D02*
D03*
X1415000Y2400000D02*
D03*
X1505000D02*
D03*
X1460000Y2355000D02*
D03*
X1427500Y2430000D02*
D03*
X1492500Y2427500D02*
D03*
Y2370000D02*
D03*
X1430000Y2367500D02*
D03*
X1460000Y1045000D02*
D03*
X1415000Y1000000D02*
D03*
X1505000D02*
D03*
X1460000Y955000D02*
D03*
X1427500Y1030000D02*
D03*
X1492500Y1027500D02*
D03*
Y970000D02*
D03*
X1430000Y967500D02*
D03*
X530000D02*
D03*
X592500Y970000D02*
D03*
Y1027500D02*
D03*
X527500Y1030000D02*
D03*
X560000Y955000D02*
D03*
X605000Y1000000D02*
D03*
X515000D02*
D03*
X560000Y1045000D02*
D03*
X1007998Y1489997D02*
D03*
X1023000Y1427000D02*
D03*
X1100000Y1484000D02*
D03*
X1092000D02*
D03*
X1084000D02*
D03*
X1076000D02*
D03*
X1085250Y1562300D02*
D03*
X1111500Y1596300D02*
D03*
Y1556800D02*
D03*
X938750Y1521750D02*
D03*
X1161500Y1450500D02*
D03*
X1278750Y1258500D02*
D03*
X1250200Y1296800D02*
D03*
X1279000Y1314000D02*
D03*
X1266000Y1305500D02*
D03*
X1277750Y1283750D02*
D03*
X1260100Y1278800D02*
D03*
X1293250Y1268250D02*
D03*
X1213250Y1269500D02*
D03*
X1230250Y1246250D02*
D03*
X1242750Y1225250D02*
D03*
X1189500Y1515000D02*
D03*
X1165500Y1515000D02*
D03*
X778884Y1224990D02*
D03*
X791384Y1245990D02*
D03*
X808384Y1269240D02*
D03*
X731400Y1258200D02*
D03*
X705900Y1239000D02*
D03*
X766384Y1270240D02*
D03*
X743884Y1283490D02*
D03*
X755634Y1305240D02*
D03*
X742634Y1313740D02*
D03*
X779750Y1287000D02*
D03*
X1115750Y1745250D02*
D03*
X969100Y1844300D02*
D03*
X978850Y1845300D02*
D03*
X947000Y1752750D02*
D03*
X948250Y1738500D02*
D03*
X1085500Y1598800D02*
D03*
X1124100Y1519300D02*
D03*
X1122100Y1482900D02*
D03*
X1152600Y1495600D02*
D03*
X1142198Y1622097D02*
D03*
X1152100Y1611400D02*
D03*
X935300Y1598200D02*
D03*
X1313100Y1245600D02*
D03*
X1080600Y1781100D02*
D03*
X1134100Y1792600D02*
D03*
X1099100Y1807800D02*
D03*
X1099500Y1824000D02*
D03*
X1084300Y1796800D02*
D03*
X1099400D02*
D03*
X1084450Y1835000D02*
D03*
X1100100Y1834900D02*
D03*
X1129800Y1809700D02*
D03*
X1110200Y1769500D02*
D03*
X1080700Y1769800D02*
D03*
X1065842Y1745758D02*
D03*
X1046100Y1790000D02*
D03*
X1029100D02*
D03*
X1012100D02*
D03*
X1029300Y1808000D02*
D03*
X1046300D02*
D03*
Y1825000D02*
D03*
X957350Y1838300D02*
D03*
X977050Y1874750D02*
D03*
X735391Y1271461D02*
D03*
X755391Y2111461D02*
D03*
X765391Y2131461D02*
D03*
X795391Y1271461D02*
D03*
X875391Y1471461D02*
D03*
X885391Y1491461D02*
D03*
X875391Y1511461D02*
D03*
X885391Y1531461D02*
D03*
X875391Y1551461D02*
D03*
Y1631461D02*
D03*
X885391Y1651461D02*
D03*
X875391Y1671461D02*
D03*
X885391Y1691461D02*
D03*
X875391Y1711461D02*
D03*
X885391Y1731461D02*
D03*
X875391Y1751461D02*
D03*
Y1831461D02*
D03*
X885391Y1851461D02*
D03*
X875391Y1871461D02*
D03*
X915391Y1471461D02*
D03*
X925391Y1491461D02*
D03*
X915391Y1511461D02*
D03*
X925391Y1531461D02*
D03*
X915391Y1551461D02*
D03*
X925391Y1571461D02*
D03*
X915391Y1751461D02*
D03*
Y1831461D02*
D03*
X925391Y1851461D02*
D03*
X915391Y1871461D02*
D03*
X935391Y1471461D02*
D03*
X945391Y1491461D02*
D03*
X935391Y1551461D02*
D03*
X945391Y1571461D02*
D03*
X935391Y1831461D02*
D03*
X945391Y1851461D02*
D03*
X935391Y1871461D02*
D03*
X955391Y1471461D02*
D03*
Y1551461D02*
D03*
X995391Y1511461D02*
D03*
X1005391Y1531461D02*
D03*
X1015391Y1551461D02*
D03*
X1045391Y1611461D02*
D03*
X1125391Y1851461D02*
D03*
X1145391Y1651461D02*
D03*
X1135391Y1831461D02*
D03*
X1155391Y1471461D02*
D03*
X1185391Y1371461D02*
D03*
Y1411461D02*
D03*
X1195391Y1391461D02*
D03*
X1215391D02*
D03*
X1225391Y2131461D02*
D03*
X1245391D02*
D03*
X1265391Y1291461D02*
D03*
Y2091461D02*
D03*
X1255391Y2151462D02*
D03*
X1275391Y1271461D02*
D03*
X555390Y1071460D02*
D03*
X535390Y2311460D02*
D03*
X595390Y1071460D02*
D03*
X575390Y1111460D02*
D03*
X595390Y1151460D02*
D03*
Y2271460D02*
D03*
X575390Y2311460D02*
D03*
X635390Y991460D02*
D03*
Y1071460D02*
D03*
X615390Y1111460D02*
D03*
Y1191460D02*
D03*
X635390Y1231460D02*
D03*
X615390Y2231460D02*
D03*
Y2311460D02*
D03*
X635390Y2351460D02*
D03*
X655390Y1031460D02*
D03*
X675390Y1071460D02*
D03*
X655390Y1271460D02*
D03*
X675390Y2111460D02*
D03*
X655390Y2151460D02*
D03*
X675390Y2191460D02*
D03*
X655390Y2311460D02*
D03*
X675390Y2351460D02*
D03*
X715390Y2031460D02*
D03*
X695390Y2071460D02*
D03*
X735390Y1351460D02*
D03*
X755390Y1391460D02*
D03*
Y2031460D02*
D03*
X735390Y2071460D02*
D03*
X775390Y1351460D02*
D03*
Y1431460D02*
D03*
X795390Y1551460D02*
D03*
Y1631460D02*
D03*
Y1711460D02*
D03*
Y1871460D02*
D03*
Y1951460D02*
D03*
X775390Y1991460D02*
D03*
X795390Y2031460D02*
D03*
X775390Y2071460D02*
D03*
X795390Y2111460D02*
D03*
X835390Y1311460D02*
D03*
X815390Y1351460D02*
D03*
X835390Y1391460D02*
D03*
X815390Y1431460D02*
D03*
X835390Y1471460D02*
D03*
X815390Y1511460D02*
D03*
X835390Y1551460D02*
D03*
X815390Y1591460D02*
D03*
X835390Y1631460D02*
D03*
X815390Y1671460D02*
D03*
X835390Y1711460D02*
D03*
X815390Y1751460D02*
D03*
Y1831460D02*
D03*
X835390Y1871460D02*
D03*
X815390Y1911460D02*
D03*
X835390Y1951460D02*
D03*
X815390Y1991460D02*
D03*
X835390Y2031460D02*
D03*
X815390Y2071460D02*
D03*
X855390Y1351460D02*
D03*
X875390Y1391460D02*
D03*
X855390Y1431460D02*
D03*
Y1511460D02*
D03*
Y1591460D02*
D03*
Y1671460D02*
D03*
Y1831460D02*
D03*
Y1911460D02*
D03*
X875390Y1951460D02*
D03*
X855390Y1991460D02*
D03*
X875390Y2031460D02*
D03*
X895390Y1351460D02*
D03*
X915390Y1391460D02*
D03*
X895390Y1431460D02*
D03*
Y1911460D02*
D03*
X915390Y1951460D02*
D03*
X895390Y1991460D02*
D03*
X935390Y1351460D02*
D03*
X955390Y1391460D02*
D03*
X935390Y1911460D02*
D03*
X955390Y1951460D02*
D03*
Y2031460D02*
D03*
X975390Y1351460D02*
D03*
Y1911460D02*
D03*
X995390Y1951460D02*
D03*
X975390Y1991460D02*
D03*
X995390Y2031460D02*
D03*
X1015390Y1351460D02*
D03*
X1035390Y1951460D02*
D03*
X1015390Y1991460D02*
D03*
X1035390Y2031460D02*
D03*
X1055390Y1351460D02*
D03*
Y1431460D02*
D03*
Y1911460D02*
D03*
X1075390Y1951460D02*
D03*
X1055390Y1991460D02*
D03*
X1075390Y2031460D02*
D03*
X1095390Y1991460D02*
D03*
X1115390Y2031460D02*
D03*
X1135390Y1911460D02*
D03*
X1155390Y1951460D02*
D03*
Y2031460D02*
D03*
X1195390Y1311460D02*
D03*
Y1471460D02*
D03*
X1175390Y1911460D02*
D03*
X1195390Y1951460D02*
D03*
X1175390Y1991460D02*
D03*
Y2071460D02*
D03*
X1195390Y2111460D02*
D03*
X1235390Y1471460D02*
D03*
X1215390Y1511460D02*
D03*
X1235390Y1551460D02*
D03*
Y1631460D02*
D03*
X1215390Y1671460D02*
D03*
X1235390Y1711460D02*
D03*
X1215390Y1751460D02*
D03*
X1235390Y1791460D02*
D03*
X1215390Y1831460D02*
D03*
Y1911460D02*
D03*
X1235390Y1951460D02*
D03*
X1215390Y1991460D02*
D03*
X1235390Y2031460D02*
D03*
X1255390Y1351460D02*
D03*
X1275390Y1391460D02*
D03*
X1255390Y1991460D02*
D03*
X1275390Y2031460D02*
D03*
X1255390Y2071460D02*
D03*
X1295390Y1351460D02*
D03*
Y2071460D02*
D03*
X1355390Y1071460D02*
D03*
X1335390Y1271460D02*
D03*
X1355390Y2111460D02*
D03*
Y2351460D02*
D03*
X1375390Y1031460D02*
D03*
X1395390Y1071460D02*
D03*
Y1231460D02*
D03*
X1375390Y2151460D02*
D03*
X1395390Y2191460D02*
D03*
X1375390Y2311460D02*
D03*
X1395390Y2351460D02*
D03*
X1375390Y2391460D02*
D03*
X1435390Y1071460D02*
D03*
X1415390Y1111460D02*
D03*
X1435390Y1151460D02*
D03*
X1415390Y1191460D02*
D03*
Y2231460D02*
D03*
X1435390Y2271460D02*
D03*
X1415390Y2311460D02*
D03*
X1475390Y1071460D02*
D03*
X1455390Y1111460D02*
D03*
Y2311460D02*
D03*
D52*
X1067600Y1814500D02*
D03*
X1068600Y1823500D02*
D03*
X1010900Y1849100D02*
D03*
X1183500Y1621360D02*
D03*
X1163400Y1802100D02*
D03*
X1113500Y1685300D02*
D03*
X1136600Y1686400D02*
D03*
X924800Y1691200D02*
D03*
X948300Y1713200D02*
D03*
X1170700Y1624600D02*
D03*
X1143000Y1587500D02*
D03*
X1195000Y1588750D02*
D03*
X1028000Y1681000D02*
D03*
X1004299Y1754336D02*
D03*
X998250Y1764500D02*
D03*
X1010000Y1747250D02*
D03*
X1046000Y1856750D02*
D03*
X1054250Y1852500D02*
D03*
X980750Y1706250D02*
D03*
X1004500Y1699750D02*
D03*
X994000Y1668500D02*
D03*
X987500Y1731250D02*
D03*
X993250Y1750000D02*
D03*
X965750Y1714750D02*
D03*
X1123250Y1839250D02*
D03*
X1063800Y1858200D02*
D03*
X972250Y1729000D02*
D03*
X959000Y1720500D02*
D03*
X981250Y1715750D02*
D03*
X988500Y1739250D02*
D03*
X1187500Y1605000D02*
D03*
X1152000Y1566000D02*
D03*
X1117750Y1715500D02*
D03*
X1132000Y1715250D02*
D03*
X1103500Y1716000D02*
D03*
X1063000Y1842000D02*
D03*
X1041000Y1850500D02*
D03*
X995500Y1707250D02*
D03*
X1034051Y1686332D02*
D03*
X1047100Y1718400D02*
D03*
X981700Y1588300D02*
D03*
X1031400Y1608700D02*
D03*
X975000Y1643300D02*
D03*
X1083400Y1635800D02*
D03*
X1022500Y1626400D02*
D03*
X996000Y1623300D02*
D03*
X1022300Y1644100D02*
D03*
X992400Y1648700D02*
D03*
X1044200Y1645100D02*
D03*
X958100Y1633200D02*
D03*
X924000Y1632300D02*
D03*
X964100Y1627700D02*
D03*
X955400Y1620200D02*
D03*
X1149000Y1629250D02*
D03*
X1073900Y1688500D02*
D03*
X1139300Y1629900D02*
D03*
X1153600Y1680600D02*
D03*
X1088400Y1694300D02*
D03*
X1110600Y1702300D02*
D03*
X1104500Y1678200D02*
D03*
X1058400Y1655000D02*
D03*
X1090500Y1720600D02*
D03*
X1124800Y1702500D02*
D03*
X1059200Y1666900D02*
D03*
X962100Y1652500D02*
D03*
X991000Y1681400D02*
D03*
X972500Y1683200D02*
D03*
X1040600Y1673900D02*
D03*
X957400Y1688000D02*
D03*
X948600Y1655500D02*
D03*
X1116400Y1658900D02*
D03*
X1171000Y1673700D02*
D03*
X1145400Y1722800D02*
D03*
X1075200Y1719100D02*
D03*
X1028300Y1757500D02*
D03*
X1036200Y1761800D02*
D03*
X1042000Y1755700D02*
D03*
X1032300Y1768900D02*
D03*
X1026300Y1749200D02*
D03*
X1112600Y1820700D02*
D03*
X1103000Y1626300D02*
D03*
X1196250Y1658750D02*
D03*
X871750Y1599300D02*
D03*
X900100Y1624900D02*
D03*
X962000Y1856500D02*
D03*
X984898Y1866796D02*
D03*
X968400Y1867700D02*
D03*
X967500Y1878000D02*
D03*
X964300Y1797300D02*
D03*
X964900Y1786900D02*
D03*
X979200Y1808500D02*
D03*
X976300Y1819600D02*
D03*
X963100Y1819100D02*
D03*
Y1808400D02*
D03*
X899300Y1780600D02*
D03*
X891300Y1773600D02*
D03*
X883300Y1780600D02*
D03*
X923400Y1780500D02*
D03*
X931400Y1773500D02*
D03*
X939400Y1780500D02*
D03*
X939100Y1798100D02*
D03*
X923100D02*
D03*
X887700Y1808200D02*
D03*
X903700D02*
D03*
X887700Y1820200D02*
D03*
X903700D02*
D03*
X885200Y1800500D02*
D03*
X901200D02*
D03*
X918800Y1807900D02*
D03*
X934800D02*
D03*
X918800Y1819900D02*
D03*
X934800D02*
D03*
X954000Y1776750D02*
D03*
X1090400Y1913000D02*
D03*
X1053200Y1770400D02*
D03*
X1049100Y1760500D02*
D03*
D53*
X1275389Y1241459D02*
D03*
X1245389D02*
D03*
X1215389Y2141459D02*
D03*
X1230389Y1271459D02*
D03*
X1185389Y1421459D02*
D03*
Y1361459D02*
D03*
X1170389Y1751459D02*
D03*
X780389Y1271459D02*
D03*
X765389Y1241459D02*
D03*
X755391Y2191462D02*
D03*
X735391Y2231462D02*
D03*
X745391Y2211462D02*
D03*
X715391Y2271462D02*
D03*
X725391Y2251462D02*
D03*
X695391Y2311462D02*
D03*
X705391Y2291462D02*
D03*
X695391Y2271462D02*
D03*
X705391Y2251462D02*
D03*
X685391Y2291462D02*
D03*
X675391Y2231462D02*
D03*
X685391Y2211462D02*
D03*
X1375392Y2271462D02*
D03*
X1335392Y2231462D02*
D03*
X1325392Y2291462D02*
D03*
X1315392Y2271462D02*
D03*
X1325392Y2211462D02*
D03*
X1315392Y2191462D02*
D03*
X1305392Y2251462D02*
D03*
X1295392Y2191462D02*
D03*
X1285392Y2251462D02*
D03*
X1275391Y2231462D02*
D03*
M02*
