G04 Layer_Color=8388736*
%FSLAX44Y44*%
%MOMM*%
G71*
G01*
G75*
%ADD46C,0.1000*%
%ADD70C,1.1000*%
%ADD72C,2.1000*%
%ADD73R,4.5260X4.5260*%
%ADD74O,0.9360X0.2960*%
%ADD75O,0.2960X0.9360*%
%ADD76R,1.1000X1.6500*%
%ADD77R,0.8000X0.7000*%
%ADD78R,0.7000X0.8000*%
%ADD79R,0.6000X0.8000*%
%ADD80R,1.1000X1.5500*%
%ADD81R,1.5500X1.1000*%
%ADD82R,1.3200X1.3500*%
%ADD83R,2.2800X2.1000*%
%ADD84O,2.5000X0.8500*%
%ADD85R,2.5000X0.8500*%
%ADD86R,6.4000X2.2500*%
%ADD87R,0.3750X0.4000*%
%ADD88R,0.4000X0.3750*%
%ADD89R,1.2000X1.4000*%
%ADD90R,0.8000X0.6000*%
%ADD91R,0.5750X0.3500*%
%ADD92R,0.3500X0.5750*%
%ADD93R,0.4500X0.4500*%
%ADD94R,0.9000X1.0000*%
%ADD95R,0.4000X0.7000*%
%ADD96R,1.7000X0.8000*%
%ADD97R,0.9500X0.8500*%
G04:AMPARAMS|DCode=98|XSize=0.95mm|YSize=0.85mm|CornerRadius=0.2375mm|HoleSize=0mm|Usage=FLASHONLY|Rotation=0.000|XOffset=0mm|YOffset=0mm|HoleType=Round|Shape=RoundedRectangle|*
%AMROUNDEDRECTD98*
21,1,0.9500,0.3750,0,0,0.0*
21,1,0.4750,0.8500,0,0,0.0*
1,1,0.4750,0.2375,-0.1875*
1,1,0.4750,-0.2375,-0.1875*
1,1,0.4750,-0.2375,0.1875*
1,1,0.4750,0.2375,0.1875*
%
%ADD98ROUNDEDRECTD98*%
%ADD99R,1.1000X0.6500*%
%ADD100C,0.1000*%
%ADD101C,1.9000*%
%ADD102R,1.9000X1.9000*%
%ADD103C,2.4000*%
%ADD104C,2.2000*%
D46*
X627198Y2443409D02*
G03*
X492801Y2356591I-67198J-43409D01*
G01*
X847800Y2100300D02*
G03*
X903521Y2071281I53619J34952D01*
G01*
X768700Y1893300D02*
G03*
X754598Y1949357I-118419J12D01*
G01*
X1265402D02*
G03*
X1251300Y1893300I104316J-56045D01*
G01*
X1116479Y2071281D02*
G03*
X1172200Y2100300I2102J63971D01*
G01*
X1527199Y2356591D02*
G03*
X1392802Y2443409I-67199J43409D01*
G01*
X754598Y1450644D02*
G03*
X768700Y1506700I-104316J56045D01*
G01*
X903521Y1328719D02*
G03*
X847800Y1299700I-2102J-63971D01*
G01*
X492801Y1043409D02*
G03*
X627198Y956591I67199J-43409D01*
G01*
X1251300Y1506700D02*
G03*
X1265402Y1450644I118419J-12D01*
G01*
X1172200Y1299700D02*
G03*
X1116479Y1328719I-53619J-34952D01*
G01*
X1392802Y956591D02*
G03*
X1527199Y1043409I67198J43409D01*
G01*
X627294Y2443260D02*
X847778Y2100286D01*
X492801Y2356591D02*
X754596Y1949355D01*
X1265404D02*
X1527199Y2356591D01*
X1172222Y2100286D02*
X1392706Y2443260D01*
X492801Y1043409D02*
X754596Y1450645D01*
X627294Y956740D02*
X847778Y1299714D01*
X1265404Y1450645D02*
X1527199Y1043409D01*
X1172222Y1299714D02*
X1392706Y956740D01*
X903521Y1328719D02*
X1116479D01*
X768700Y1506700D02*
Y1893300D01*
X903521Y2071281D02*
X1116479D01*
X1251300Y1506700D02*
Y1893300D01*
D70*
X614500Y1000000D02*
G03*
X614500Y1000000I-54500J0D01*
G01*
X1514500D02*
G03*
X1514500Y1000000I-54500J0D01*
G01*
Y2400000D02*
G03*
X1514500Y2400000I-54500J0D01*
G01*
X614500D02*
G03*
X614500Y2400000I-54500J0D01*
G01*
D72*
X1062300Y1379600D02*
D03*
X903500Y2022750D02*
D03*
X1247600Y1450200D02*
D03*
X819250Y1405000D02*
D03*
X1177200Y2024700D02*
D03*
X1140500Y1452000D02*
D03*
X1098300Y1379600D02*
D03*
X930750Y1440750D02*
D03*
X1078000Y1436750D02*
D03*
X975000Y1662500D02*
D03*
X1019750Y1736250D02*
D03*
X1088250Y1674000D02*
D03*
X1138250Y1741750D02*
D03*
X1033750Y1657500D02*
D03*
X1010000Y1658000D02*
D03*
X910000Y1725500D02*
D03*
X936250Y1669500D02*
D03*
X900750Y1672500D02*
D03*
X910000Y1701000D02*
D03*
X935900Y1642500D02*
D03*
D73*
X1029300Y1808000D02*
D03*
D74*
X1058600Y1810000D02*
D03*
Y1806000D02*
D03*
Y1814000D02*
D03*
Y1822000D02*
D03*
Y1818000D02*
D03*
X1000000Y1830000D02*
D03*
Y1826000D02*
D03*
X1058600Y1802000D02*
D03*
Y1794000D02*
D03*
Y1798000D02*
D03*
Y1790000D02*
D03*
Y1786000D02*
D03*
X1000000D02*
D03*
Y1790000D02*
D03*
Y1798000D02*
D03*
Y1794000D02*
D03*
Y1802000D02*
D03*
X1058600Y1826000D02*
D03*
Y1830000D02*
D03*
X1000000Y1818000D02*
D03*
Y1822000D02*
D03*
Y1814000D02*
D03*
Y1806000D02*
D03*
Y1810000D02*
D03*
D75*
X1027300Y1778700D02*
D03*
X1031300D02*
D03*
X1023300D02*
D03*
X1015300D02*
D03*
X1019300D02*
D03*
X1007300Y1837300D02*
D03*
X1011300D02*
D03*
X1035300Y1778700D02*
D03*
X1043300D02*
D03*
X1039300D02*
D03*
X1047300D02*
D03*
X1051300D02*
D03*
Y1837300D02*
D03*
X1047300D02*
D03*
X1039300D02*
D03*
X1043300D02*
D03*
X1035300D02*
D03*
X1011300Y1778700D02*
D03*
X1007300D02*
D03*
X1019300Y1837300D02*
D03*
X1015300D02*
D03*
X1023300D02*
D03*
X1031300D02*
D03*
X1027300D02*
D03*
D76*
X1164250Y1816750D02*
D03*
Y1869250D02*
D03*
X1196250D02*
D03*
Y1816750D02*
D03*
X1164250Y1731750D02*
D03*
Y1784250D02*
D03*
X1196250D02*
D03*
Y1731750D02*
D03*
X1164250Y1645750D02*
D03*
Y1698250D02*
D03*
X1196250D02*
D03*
Y1645750D02*
D03*
D77*
X1022300Y1597700D02*
D03*
Y1608700D02*
D03*
X1028300Y1882150D02*
D03*
Y1893150D02*
D03*
X1042550Y1882150D02*
D03*
Y1893150D02*
D03*
X1014050Y1882150D02*
D03*
Y1893150D02*
D03*
X1056800Y1882150D02*
D03*
Y1893150D02*
D03*
X1120400Y1820700D02*
D03*
Y1809700D02*
D03*
X1072500Y1700750D02*
D03*
Y1711750D02*
D03*
X1087000Y1700750D02*
D03*
Y1711750D02*
D03*
X987500Y1704500D02*
D03*
Y1693500D02*
D03*
X973500Y1704500D02*
D03*
Y1693500D02*
D03*
X931400Y1780500D02*
D03*
Y1791500D02*
D03*
X891300Y1791600D02*
D03*
Y1780600D02*
D03*
X1077200Y1824000D02*
D03*
Y1835000D02*
D03*
X1091700Y1824000D02*
D03*
Y1835000D02*
D03*
X1077200Y1807800D02*
D03*
Y1796800D02*
D03*
X1091400Y1807800D02*
D03*
Y1796800D02*
D03*
X1102400Y1780600D02*
D03*
Y1769600D02*
D03*
X1088000Y1780800D02*
D03*
Y1769800D02*
D03*
X1073600Y1781100D02*
D03*
Y1770100D02*
D03*
X969100Y1837300D02*
D03*
Y1826300D02*
D03*
X983350Y1837300D02*
D03*
Y1826300D02*
D03*
X1117750Y1697000D02*
D03*
Y1708000D02*
D03*
X1103500Y1697000D02*
D03*
Y1708000D02*
D03*
X1132000Y1697000D02*
D03*
Y1708000D02*
D03*
X1111500Y1576300D02*
D03*
Y1587300D02*
D03*
Y1615300D02*
D03*
Y1626300D02*
D03*
Y1536300D02*
D03*
Y1547300D02*
D03*
X913000Y1598500D02*
D03*
Y1609500D02*
D03*
X857250Y1604750D02*
D03*
Y1615750D02*
D03*
X977050Y1866750D02*
D03*
Y1855750D02*
D03*
X871750Y1615750D02*
D03*
Y1604750D02*
D03*
X1059600Y1752000D02*
D03*
Y1763000D02*
D03*
D78*
X986000Y1636700D02*
D03*
X975000D02*
D03*
X956702Y1791502D02*
D03*
X945702D02*
D03*
X1051300Y1675000D02*
D03*
X1062300D02*
D03*
X1012750Y1680250D02*
D03*
X1001750D02*
D03*
X956250Y1752750D02*
D03*
X967250D02*
D03*
X956250Y1738500D02*
D03*
X967250D02*
D03*
X961000Y1776750D02*
D03*
X972000D02*
D03*
X943802Y1814102D02*
D03*
X954802D02*
D03*
X905802Y1791502D02*
D03*
X916802D02*
D03*
X913500Y1633000D02*
D03*
X902500D02*
D03*
X886250Y1584000D02*
D03*
X897250D02*
D03*
D79*
X986400Y1596300D02*
D03*
X995900D02*
D03*
X1005400D02*
D03*
X986400Y1622300D02*
D03*
X1005400D02*
D03*
D80*
X973250Y1521500D02*
D03*
X952750D02*
D03*
D81*
X1023000Y1440250D02*
D03*
Y1460750D02*
D03*
X873300Y1812950D02*
D03*
Y1792450D02*
D03*
X1121300Y1771950D02*
D03*
Y1792450D02*
D03*
D82*
X1000498Y1456250D02*
D03*
X1000500Y1426750D02*
D03*
D83*
X969000Y1452500D02*
D03*
Y1490500D02*
D03*
D84*
X1208250Y1582750D02*
D03*
Y1570050D02*
D03*
Y1557351D02*
D03*
X1169250D02*
D03*
Y1570050D02*
D03*
X1208250Y1595149D02*
D03*
X1169250Y1595449D02*
D03*
Y1582750D02*
D03*
X1208250Y1608149D02*
D03*
D85*
X1169250D02*
D03*
D86*
X1071000Y1509750D02*
D03*
Y1468250D02*
D03*
D87*
X966595Y1764750D02*
D03*
X971875D02*
D03*
D88*
X957350Y1831205D02*
D03*
Y1825925D02*
D03*
D89*
X1058600Y1573200D02*
D03*
X1042600D02*
D03*
X1058600Y1593700D02*
D03*
X1042600D02*
D03*
X1058600Y1552700D02*
D03*
X1042600D02*
D03*
D90*
X1026000Y1480000D02*
D03*
Y1499000D02*
D03*
X1000000Y1480000D02*
D03*
Y1489500D02*
D03*
Y1499000D02*
D03*
D91*
X1059130Y1705000D02*
D03*
Y1695000D02*
D03*
Y1700000D02*
D03*
X1040875D02*
D03*
Y1695000D02*
D03*
Y1705000D02*
D03*
D92*
X1057500Y1688380D02*
D03*
X1052500D02*
D03*
X1047500D02*
D03*
X1042500D02*
D03*
Y1711625D02*
D03*
X1047500D02*
D03*
X1052500D02*
D03*
X1057500D02*
D03*
D93*
X1006750Y1692750D02*
D03*
Y1707250D02*
D03*
X1013250Y1692750D02*
D03*
Y1707250D02*
D03*
X1000250Y1692750D02*
D03*
Y1707250D02*
D03*
X1019750Y1692750D02*
D03*
Y1707250D02*
D03*
D94*
X1076250Y1587300D02*
D03*
X1096250Y1577800D02*
D03*
Y1596800D02*
D03*
X1076250Y1626300D02*
D03*
X1096250Y1616800D02*
D03*
Y1635800D02*
D03*
X1076250Y1547300D02*
D03*
X1096250Y1537800D02*
D03*
Y1556800D02*
D03*
D95*
X884500Y1597500D02*
D03*
Y1616500D02*
D03*
X891000Y1597500D02*
D03*
X897500D02*
D03*
X891000Y1616500D02*
D03*
X897500D02*
D03*
X1183000Y1522750D02*
D03*
Y1541750D02*
D03*
X1189500Y1522750D02*
D03*
X1196000D02*
D03*
X1189500Y1541750D02*
D03*
X1196000D02*
D03*
X1159000Y1522750D02*
D03*
Y1541750D02*
D03*
X1165500Y1522750D02*
D03*
X1172000D02*
D03*
X1165500Y1541750D02*
D03*
X1172000D02*
D03*
D96*
X1078600Y1913200D02*
D03*
X1101600Y1858200D02*
D03*
Y1913200D02*
D03*
X1078600Y1858200D02*
D03*
D97*
X1005550Y1866450D02*
D03*
Y1855950D02*
D03*
X992050Y1866450D02*
D03*
D98*
Y1855950D02*
D03*
D99*
X1024600Y1565700D02*
D03*
Y1574200D02*
D03*
Y1582700D02*
D03*
X995600D02*
D03*
Y1574200D02*
D03*
Y1565700D02*
D03*
D100*
X1460000Y1000000D02*
D03*
X560000D02*
D03*
X1460000Y2400000D02*
D03*
X560000D02*
D03*
D101*
X997300Y1379500D02*
D03*
D102*
X1022700D02*
D03*
D103*
X841650Y1813650D02*
D03*
X790850Y1762850D02*
D03*
X841650D02*
D03*
X790850Y1813650D02*
D03*
D104*
X816250Y1788250D02*
D03*
M02*
