G04 Layer_Physical_Order=2*
G04 Layer_Color=36540*
%FSLAX44Y44*%
%MOMM*%
G71*
G01*
G75*
%ADD10C,3.0000*%
%ADD45C,0.1000*%
%ADD48C,2.3000*%
%ADD50C,0.4500*%
%ADD51C,0.5000*%
%ADD52C,0.7000*%
G36*
X1468677Y2477008D02*
X1477244Y2475552D01*
X1485595Y2473146D01*
X1493624Y2469821D01*
X1501230Y2465617D01*
X1508317Y2460588D01*
X1514797Y2454797D01*
X1520588Y2448317D01*
X1525617Y2441230D01*
X1529821Y2433624D01*
X1533146Y2425595D01*
X1535552Y2417244D01*
X1537008Y2408677D01*
X1537495Y2400000D01*
X1537008Y2391323D01*
X1535552Y2382756D01*
X1533146Y2374405D01*
X1529821Y2366376D01*
X1525757Y2359023D01*
X1525054Y2357977D01*
X1525054Y2357977D01*
X1524372Y2356908D01*
X1380765Y2133519D01*
X1379339Y2133649D01*
X1378634Y2134704D01*
X1377146Y2135699D01*
X1375390Y2136048D01*
X1373634Y2135699D01*
X1372145Y2134704D01*
X1371151Y2133215D01*
X1370802Y2131460D01*
X1371151Y2129704D01*
X1372145Y2128215D01*
X1373634Y2127221D01*
X1375028Y2126944D01*
X1375771Y2125751D01*
X1263260Y1950733D01*
X1263170Y1950504D01*
X1260025Y1944463D01*
X1255984Y1934707D01*
X1252809Y1924637D01*
X1250524Y1914329D01*
X1249145Y1903860D01*
X1248740Y1894570D01*
X1248685Y1893311D01*
X1248685Y1893300D01*
X1248751Y1892057D01*
Y1507943D01*
X1248685Y1506700D01*
X1248685Y1506689D01*
X1248739Y1505452D01*
X1249145Y1496140D01*
X1250524Y1485671D01*
X1252809Y1475363D01*
X1255984Y1465293D01*
X1260025Y1455537D01*
X1263170Y1449496D01*
X1263260Y1449267D01*
X1335257Y1337271D01*
X1334631Y1335897D01*
X1333634Y1335699D01*
X1332145Y1334704D01*
X1331151Y1333216D01*
X1330802Y1331460D01*
X1331151Y1329704D01*
X1332145Y1328215D01*
X1333634Y1327221D01*
X1335390Y1326872D01*
X1337146Y1327221D01*
X1338634Y1328215D01*
X1339110Y1328928D01*
X1340629Y1328915D01*
X1515257Y1057271D01*
X1514631Y1055897D01*
X1513634Y1055699D01*
X1512145Y1054704D01*
X1511151Y1053216D01*
X1510802Y1051460D01*
X1511151Y1049704D01*
X1512145Y1048215D01*
X1513634Y1047221D01*
X1515390Y1046872D01*
X1517146Y1047221D01*
X1518634Y1048215D01*
X1519110Y1048928D01*
X1520629Y1048915D01*
X1524372Y1043092D01*
X1525054Y1042023D01*
Y1042023D01*
X1525054D01*
X1525757Y1040977D01*
X1529821Y1033624D01*
X1533146Y1025595D01*
X1535552Y1017244D01*
X1537008Y1008677D01*
X1537495Y1000000D01*
X1537008Y991323D01*
X1535552Y982756D01*
X1533146Y974405D01*
X1529821Y966376D01*
X1525617Y958770D01*
X1520588Y951683D01*
X1514797Y945203D01*
X1508317Y939412D01*
X1501230Y934383D01*
X1493624Y930179D01*
X1485595Y926854D01*
X1477244Y924448D01*
X1468677Y922992D01*
X1460000Y922505D01*
X1451323Y922992D01*
X1442756Y924448D01*
X1434405Y926854D01*
X1426376Y930179D01*
X1418770Y934383D01*
X1411683Y939412D01*
X1405203Y945203D01*
X1399412Y951683D01*
X1394946Y957976D01*
X1394946Y957976D01*
X1394256Y959042D01*
X1174366Y1301093D01*
X1174260Y1301202D01*
X1170658Y1306279D01*
X1165681Y1311848D01*
X1160111Y1316826D01*
X1154019Y1321148D01*
X1147482Y1324762D01*
X1140581Y1327620D01*
X1133403Y1329688D01*
X1126039Y1330939D01*
X1118580Y1331358D01*
X1116587Y1331246D01*
X1116479Y1331268D01*
X903521D01*
X903412Y1331246D01*
X901420Y1331358D01*
X893961Y1330939D01*
X886597Y1329688D01*
X879419Y1327620D01*
X872518Y1324762D01*
X865981Y1321148D01*
X859889Y1316826D01*
X854319Y1311848D01*
X849341Y1306279D01*
X845740Y1301202D01*
X845634Y1301093D01*
X840765Y1293519D01*
X839339Y1293649D01*
X838634Y1294704D01*
X837146Y1295699D01*
X835390Y1296048D01*
X833634Y1295699D01*
X832145Y1294704D01*
X831151Y1293216D01*
X830802Y1291460D01*
X831151Y1289704D01*
X832145Y1288215D01*
X833634Y1287221D01*
X835028Y1286944D01*
X835771Y1285751D01*
X660765Y1013519D01*
X659339Y1013649D01*
X658634Y1014704D01*
X657146Y1015699D01*
X655390Y1016048D01*
X653634Y1015699D01*
X652145Y1014704D01*
X651151Y1013216D01*
X650802Y1011460D01*
X651151Y1009704D01*
X652145Y1008215D01*
X653634Y1007221D01*
X655028Y1006944D01*
X655771Y1005751D01*
X625744Y959042D01*
X625053Y957976D01*
X625053D01*
X625053Y957976D01*
X620588Y951683D01*
X614797Y945203D01*
X608317Y939412D01*
X601230Y934383D01*
X593624Y930179D01*
X585595Y926854D01*
X577244Y924448D01*
X568677Y922992D01*
X560000Y922505D01*
X551323Y922992D01*
X542756Y924448D01*
X534405Y926854D01*
X526376Y930179D01*
X518770Y934383D01*
X511683Y939412D01*
X505203Y945203D01*
X499412Y951683D01*
X494383Y958770D01*
X490179Y966376D01*
X486854Y974405D01*
X484448Y982756D01*
X482992Y991323D01*
X482505Y1000000D01*
X482992Y1008677D01*
X484448Y1017244D01*
X486854Y1025595D01*
X490179Y1033624D01*
X494243Y1040977D01*
X494946Y1042023D01*
X494946Y1042023D01*
X495628Y1043092D01*
X550604Y1128611D01*
X551874Y1128622D01*
X552146Y1128215D01*
X553634Y1127221D01*
X555390Y1126872D01*
X557146Y1127221D01*
X558634Y1128215D01*
X559629Y1129704D01*
X559978Y1131460D01*
X559629Y1133216D01*
X558634Y1134704D01*
X557146Y1135699D01*
X556724Y1135782D01*
X556124Y1137197D01*
X730604Y1408611D01*
X731874Y1408622D01*
X732145Y1408215D01*
X733634Y1407221D01*
X735390Y1406872D01*
X737146Y1407221D01*
X738634Y1408215D01*
X739629Y1409704D01*
X739978Y1411460D01*
X739629Y1413216D01*
X738634Y1414704D01*
X737146Y1415699D01*
X736724Y1415782D01*
X736124Y1417197D01*
X756740Y1449267D01*
X756830Y1449496D01*
X759975Y1455537D01*
X764016Y1465293D01*
X767191Y1475363D01*
X769476Y1485671D01*
X769963Y1489369D01*
X770565Y1489539D01*
X771266Y1489532D01*
X772145Y1488215D01*
X773634Y1487221D01*
X775390Y1486872D01*
X777146Y1487221D01*
X778634Y1488215D01*
X779629Y1489704D01*
X779978Y1491460D01*
X779629Y1493216D01*
X778634Y1494704D01*
X777146Y1495699D01*
X775390Y1496048D01*
X773634Y1495699D01*
X772145Y1494704D01*
X771898Y1494333D01*
X770677Y1494793D01*
X770855Y1496140D01*
X771260Y1505430D01*
X771315Y1506689D01*
X771315Y1506700D01*
X771249Y1507943D01*
Y1887445D01*
X772519Y1887966D01*
X773634Y1887221D01*
X775390Y1886872D01*
X777146Y1887221D01*
X778634Y1888215D01*
X779629Y1889704D01*
X779978Y1891460D01*
X779629Y1893216D01*
X778634Y1894704D01*
X777146Y1895699D01*
X775390Y1896048D01*
X773634Y1895699D01*
X772515Y1894951D01*
X771223Y1895435D01*
X770855Y1903860D01*
X769476Y1914329D01*
X767191Y1924637D01*
X764016Y1934707D01*
X759975Y1944463D01*
X756830Y1950504D01*
X756740Y1950733D01*
X695726Y2045644D01*
X696327Y2047058D01*
X697146Y2047221D01*
X698634Y2048215D01*
X699629Y2049704D01*
X699978Y2051460D01*
X699629Y2053216D01*
X698634Y2054704D01*
X697146Y2055699D01*
X695390Y2056048D01*
X693634Y2055699D01*
X692145Y2054704D01*
X691771Y2054144D01*
X690253Y2054158D01*
X515726Y2325644D01*
X516327Y2327058D01*
X517146Y2327221D01*
X518634Y2328215D01*
X519629Y2329704D01*
X519978Y2331460D01*
X519629Y2333215D01*
X518634Y2334704D01*
X517146Y2335699D01*
X515390Y2336048D01*
X513634Y2335699D01*
X512146Y2334704D01*
X511771Y2334144D01*
X510253Y2334158D01*
X495628Y2356908D01*
X494946Y2357977D01*
Y2357977D01*
X494946D01*
X494243Y2359023D01*
X490179Y2366376D01*
X486854Y2374405D01*
X484448Y2382756D01*
X482992Y2391323D01*
X482505Y2400000D01*
X482992Y2408677D01*
X484448Y2417244D01*
X486854Y2425595D01*
X490179Y2433624D01*
X494383Y2441230D01*
X499412Y2448317D01*
X505203Y2454797D01*
X511683Y2460588D01*
X518770Y2465617D01*
X526376Y2469821D01*
X534405Y2473146D01*
X542756Y2475552D01*
X551323Y2477008D01*
X560000Y2477495D01*
X568677Y2477008D01*
X577244Y2475552D01*
X585595Y2473146D01*
X593624Y2469821D01*
X601230Y2465617D01*
X608317Y2460588D01*
X614797Y2454797D01*
X620588Y2448317D01*
X625053Y2442024D01*
X625053Y2442024D01*
X625744Y2440958D01*
X795257Y2177271D01*
X794631Y2175897D01*
X793634Y2175699D01*
X792145Y2174704D01*
X791151Y2173215D01*
X790802Y2171460D01*
X791151Y2169704D01*
X792145Y2168215D01*
X793634Y2167221D01*
X795390Y2166872D01*
X797146Y2167221D01*
X798634Y2168215D01*
X799110Y2168928D01*
X800629Y2168915D01*
X845634Y2098907D01*
X845740Y2098798D01*
X849341Y2093721D01*
X854319Y2088152D01*
X859889Y2083174D01*
X865981Y2078852D01*
X872518Y2075238D01*
X879419Y2072380D01*
X886597Y2070312D01*
X893961Y2069061D01*
X901420Y2068642D01*
X903412Y2068754D01*
X903521Y2068732D01*
X1116479D01*
X1116587Y2068754D01*
X1118580Y2068642D01*
X1126039Y2069061D01*
X1133403Y2070312D01*
X1140581Y2072380D01*
X1147482Y2075238D01*
X1154019Y2078852D01*
X1160111Y2083174D01*
X1165681Y2088152D01*
X1170658Y2093721D01*
X1174260Y2098798D01*
X1174366Y2098907D01*
X1270604Y2248611D01*
X1271874Y2248622D01*
X1272145Y2248215D01*
X1273634Y2247221D01*
X1275390Y2246872D01*
X1275456Y2246885D01*
X1276239Y2245746D01*
X1242533Y2192215D01*
X1242395Y2191855D01*
X1242253Y2191498D01*
X1242253Y2191485D01*
X1242249Y2191472D01*
X1242259Y2191086D01*
X1242264Y2190702D01*
X1242270Y2190690D01*
X1242270Y2190676D01*
X1242427Y2190324D01*
X1242579Y2189972D01*
X1242589Y2189962D01*
X1242594Y2189950D01*
X1242874Y2189685D01*
X1243149Y2189417D01*
X1301400Y2151667D01*
X1301774Y2151518D01*
X1302137Y2151373D01*
X1302138D01*
X1302139Y2151373D01*
X1302531Y2151378D01*
X1302933Y2151384D01*
X1302934Y2151384D01*
X1302934D01*
X1303298Y2151541D01*
X1303664Y2151698D01*
X1303664Y2151698D01*
X1303665Y2151699D01*
X1303945Y2151987D01*
X1304219Y2152268D01*
X1386344Y2278768D01*
X1386347Y2278775D01*
X1386352Y2278780D01*
X1386495Y2279146D01*
X1386639Y2279507D01*
X1386638Y2279514D01*
X1386641Y2279521D01*
X1386633Y2279914D01*
X1386628Y2280302D01*
X1386625Y2280309D01*
X1386625Y2280317D01*
X1386467Y2280677D01*
X1386314Y2281033D01*
X1386309Y2281039D01*
X1386306Y2281046D01*
X1386024Y2281316D01*
X1385744Y2281589D01*
X1385737Y2281591D01*
X1385732Y2281597D01*
X1378209Y2286404D01*
X1378193Y2287921D01*
X1378634Y2288215D01*
X1379629Y2289704D01*
X1379978Y2291460D01*
X1379629Y2293215D01*
X1378634Y2294704D01*
X1377146Y2295699D01*
X1375390Y2296048D01*
X1373634Y2295699D01*
X1372145Y2294704D01*
X1371151Y2293215D01*
X1371011Y2292511D01*
X1369596Y2291907D01*
X1325482Y2320097D01*
X1325475Y2320099D01*
X1325470Y2320104D01*
X1325105Y2320244D01*
X1324740Y2320386D01*
X1324733Y2320386D01*
X1324727Y2320388D01*
X1324334Y2320378D01*
X1323945Y2320370D01*
X1323939Y2320367D01*
X1323932Y2320367D01*
X1323573Y2320207D01*
X1323216Y2320050D01*
X1323211Y2320045D01*
X1323205Y2320043D01*
X1322936Y2319758D01*
X1322665Y2319476D01*
X1322663Y2319470D01*
X1322658Y2319465D01*
X1280853Y2253073D01*
X1279533Y2253359D01*
X1278634Y2254704D01*
X1277146Y2255699D01*
X1276724Y2255782D01*
X1276124Y2257197D01*
X1394256Y2440958D01*
X1394946Y2442024D01*
X1394946D01*
X1394946Y2442024D01*
X1399412Y2448317D01*
X1405203Y2454797D01*
X1411683Y2460588D01*
X1418770Y2465617D01*
X1426376Y2469821D01*
X1434405Y2473146D01*
X1442756Y2475552D01*
X1451323Y2477008D01*
X1460000Y2477495D01*
X1468677Y2477008D01*
D02*
G37*
G36*
X1384633Y2279878D02*
X1302509Y2153378D01*
X1244258Y2191128D01*
X1324384Y2318378D01*
X1384633Y2279878D01*
D02*
G37*
%LPC*%
G36*
X1143000Y1591833D02*
X1141342Y1591503D01*
X1139936Y1590564D01*
X1138997Y1589158D01*
X1138667Y1587500D01*
X1138997Y1585842D01*
X1139936Y1584436D01*
X1141342Y1583497D01*
X1143000Y1583167D01*
X1144658Y1583497D01*
X1146064Y1584436D01*
X1147003Y1585842D01*
X1147333Y1587500D01*
X1147003Y1589158D01*
X1146064Y1590564D01*
X1144658Y1591503D01*
X1143000Y1591833D01*
D02*
G37*
G36*
X1195000Y1593083D02*
X1193342Y1592753D01*
X1191936Y1591814D01*
X1190997Y1590408D01*
X1190667Y1588750D01*
X1190997Y1587092D01*
X1191936Y1585686D01*
X1193342Y1584747D01*
X1195000Y1584417D01*
X1196658Y1584747D01*
X1198064Y1585686D01*
X1199003Y1587092D01*
X1199333Y1588750D01*
X1199003Y1590408D01*
X1198064Y1591814D01*
X1196658Y1592753D01*
X1195000Y1593083D01*
D02*
G37*
G36*
X935300Y1603808D02*
X933154Y1603381D01*
X931335Y1602165D01*
X930119Y1600346D01*
X929692Y1598200D01*
X930119Y1596054D01*
X931335Y1594235D01*
X933154Y1593019D01*
X935300Y1592592D01*
X937446Y1593019D01*
X939265Y1594235D01*
X940481Y1596054D01*
X940908Y1598200D01*
X940481Y1600346D01*
X939265Y1602165D01*
X937446Y1603381D01*
X935300Y1603808D01*
D02*
G37*
G36*
X855390Y1576048D02*
X853634Y1575699D01*
X852145Y1574704D01*
X851151Y1573216D01*
X850802Y1571460D01*
X851151Y1569704D01*
X852145Y1568215D01*
X853634Y1567221D01*
X855390Y1566872D01*
X857146Y1567221D01*
X858634Y1568215D01*
X859629Y1569704D01*
X859978Y1571460D01*
X859629Y1573216D01*
X858634Y1574704D01*
X857146Y1575699D01*
X855390Y1576048D01*
D02*
G37*
G36*
X969850Y1588058D02*
X967704Y1587631D01*
X965885Y1586415D01*
X964669Y1584596D01*
X964242Y1582450D01*
X964669Y1580304D01*
X965885Y1578485D01*
X967704Y1577269D01*
X969850Y1576842D01*
X971996Y1577269D01*
X972922Y1577888D01*
X973838Y1576972D01*
X973419Y1576346D01*
X972992Y1574200D01*
X973419Y1572054D01*
X974139Y1570976D01*
X973224Y1570060D01*
X971996Y1570881D01*
X969850Y1571308D01*
X967704Y1570881D01*
X965885Y1569665D01*
X964669Y1567846D01*
X964242Y1565700D01*
X964669Y1563554D01*
X965885Y1561735D01*
X967704Y1560519D01*
X969850Y1560092D01*
X971996Y1560519D01*
X973815Y1561735D01*
X975031Y1563554D01*
X975458Y1565700D01*
X975031Y1567846D01*
X974311Y1568924D01*
X975226Y1569839D01*
X976454Y1569019D01*
X978600Y1568592D01*
X980746Y1569019D01*
X982565Y1570235D01*
X983781Y1572054D01*
X984208Y1574200D01*
X983781Y1576346D01*
X982565Y1578165D01*
X980746Y1579381D01*
X978600Y1579808D01*
X976454Y1579381D01*
X975528Y1578762D01*
X974613Y1579678D01*
X975031Y1580304D01*
X975458Y1582450D01*
X975031Y1584596D01*
X973815Y1586415D01*
X971996Y1587631D01*
X969850Y1588058D01*
D02*
G37*
G36*
X875500Y1589608D02*
X873354Y1589181D01*
X871535Y1587965D01*
X870319Y1586146D01*
X869892Y1584000D01*
X870319Y1581854D01*
X871535Y1580035D01*
X873354Y1578819D01*
X875500Y1578392D01*
X877646Y1578819D01*
X879465Y1580035D01*
X880681Y1581854D01*
X881108Y1584000D01*
X880681Y1586146D01*
X879465Y1587965D01*
X877646Y1589181D01*
X875500Y1589608D01*
D02*
G37*
G36*
X795390Y1616048D02*
X793634Y1615699D01*
X792145Y1614704D01*
X791151Y1613216D01*
X790802Y1611460D01*
X791151Y1609704D01*
X792145Y1608215D01*
X793634Y1607221D01*
X795390Y1606872D01*
X797146Y1607221D01*
X798634Y1608215D01*
X799629Y1609704D01*
X799978Y1611460D01*
X799629Y1613216D01*
X798634Y1614704D01*
X797146Y1615699D01*
X795390Y1616048D01*
D02*
G37*
G36*
X1183500Y1625693D02*
X1181842Y1625363D01*
X1180436Y1624424D01*
X1179497Y1623018D01*
X1179167Y1621360D01*
X1179497Y1619702D01*
X1180436Y1618296D01*
X1181842Y1617357D01*
X1183500Y1617027D01*
X1185158Y1617357D01*
X1186564Y1618296D01*
X1187503Y1619702D01*
X1187833Y1621360D01*
X1187503Y1623018D01*
X1186564Y1624424D01*
X1185158Y1625363D01*
X1183500Y1625693D01*
D02*
G37*
G36*
X1139300Y1634233D02*
X1137642Y1633903D01*
X1136236Y1632964D01*
X1135297Y1631558D01*
X1134967Y1629900D01*
X1135297Y1628242D01*
X1136236Y1626836D01*
X1137642Y1625897D01*
X1139300Y1625567D01*
X1140958Y1625897D01*
X1142364Y1626836D01*
X1143303Y1628242D01*
X1143438Y1628918D01*
X1144733D01*
X1144997Y1627592D01*
X1145936Y1626186D01*
X1147342Y1625247D01*
X1149000Y1624917D01*
X1150658Y1625247D01*
X1152064Y1626186D01*
X1153003Y1627592D01*
X1153333Y1629250D01*
X1153003Y1630908D01*
X1152064Y1632314D01*
X1150658Y1633253D01*
X1149000Y1633583D01*
X1147342Y1633253D01*
X1145936Y1632314D01*
X1144997Y1630908D01*
X1144862Y1630232D01*
X1143567D01*
X1143303Y1631558D01*
X1142364Y1632964D01*
X1140958Y1633903D01*
X1139300Y1634233D01*
D02*
G37*
G36*
X838000Y1610358D02*
X835854Y1609931D01*
X834035Y1608715D01*
X832819Y1606896D01*
X832392Y1604750D01*
X832819Y1602604D01*
X834035Y1600785D01*
X835854Y1599569D01*
X838000Y1599142D01*
X840146Y1599569D01*
X841965Y1600785D01*
X843181Y1602604D01*
X843608Y1604750D01*
X843181Y1606896D01*
X841965Y1608715D01*
X840146Y1609931D01*
X838000Y1610358D01*
D02*
G37*
G36*
X1187500Y1609333D02*
X1185842Y1609003D01*
X1184436Y1608064D01*
X1183497Y1606658D01*
X1183167Y1605000D01*
X1183497Y1603342D01*
X1184436Y1601936D01*
X1185842Y1600997D01*
X1187500Y1600667D01*
X1189158Y1600997D01*
X1190564Y1601936D01*
X1191503Y1603342D01*
X1191833Y1605000D01*
X1191503Y1606658D01*
X1190564Y1608064D01*
X1189158Y1609003D01*
X1187500Y1609333D01*
D02*
G37*
G36*
X1152100Y1617008D02*
X1149954Y1616581D01*
X1148135Y1615365D01*
X1146919Y1613546D01*
X1146492Y1611400D01*
X1146919Y1609254D01*
X1148135Y1607435D01*
X1149954Y1606219D01*
X1152100Y1605792D01*
X1154246Y1606219D01*
X1156065Y1607435D01*
X1157281Y1609254D01*
X1157708Y1611400D01*
X1157281Y1613546D01*
X1156065Y1615365D01*
X1154246Y1616581D01*
X1152100Y1617008D01*
D02*
G37*
G36*
X815390Y1576048D02*
X813634Y1575699D01*
X812145Y1574704D01*
X811151Y1573216D01*
X810802Y1571460D01*
X811151Y1569704D01*
X812145Y1568215D01*
X813634Y1567221D01*
X815390Y1566872D01*
X817146Y1567221D01*
X818634Y1568215D01*
X819629Y1569704D01*
X819978Y1571460D01*
X819629Y1573216D01*
X818634Y1574704D01*
X817146Y1575699D01*
X815390Y1576048D01*
D02*
G37*
G36*
X1255390Y1416048D02*
X1253634Y1415699D01*
X1252145Y1414704D01*
X1251151Y1413216D01*
X1250802Y1411460D01*
X1251151Y1409704D01*
X1252145Y1408215D01*
X1253634Y1407221D01*
X1255390Y1406872D01*
X1257145Y1407221D01*
X1258634Y1408215D01*
X1259629Y1409704D01*
X1259978Y1411460D01*
X1259629Y1413216D01*
X1258634Y1414704D01*
X1257145Y1415699D01*
X1255390Y1416048D01*
D02*
G37*
G36*
X835390Y1456048D02*
X833634Y1455699D01*
X832145Y1454704D01*
X831151Y1453216D01*
X830802Y1451460D01*
X831151Y1449704D01*
X832145Y1448215D01*
X833634Y1447221D01*
X835390Y1446872D01*
X837146Y1447221D01*
X838634Y1448215D01*
X839629Y1449704D01*
X839978Y1451460D01*
X839629Y1453216D01*
X838634Y1454704D01*
X837146Y1455699D01*
X835390Y1456048D01*
D02*
G37*
G36*
X1195390D02*
X1193634Y1455699D01*
X1192145Y1454704D01*
X1191151Y1453216D01*
X1190802Y1451460D01*
X1191151Y1449704D01*
X1192145Y1448215D01*
X1193634Y1447221D01*
X1195390Y1446872D01*
X1197146Y1447221D01*
X1198634Y1448215D01*
X1199629Y1449704D01*
X1199978Y1451460D01*
X1199629Y1453216D01*
X1198634Y1454704D01*
X1197146Y1455699D01*
X1195390Y1456048D01*
D02*
G37*
G36*
X1015390Y1416048D02*
X1013634Y1415699D01*
X1012145Y1414704D01*
X1011151Y1413216D01*
X1010802Y1411460D01*
X1011151Y1409704D01*
X1012145Y1408215D01*
X1013634Y1407221D01*
X1015390Y1406872D01*
X1017146Y1407221D01*
X1018634Y1408215D01*
X1019629Y1409704D01*
X1019978Y1411460D01*
X1019629Y1413216D01*
X1018634Y1414704D01*
X1017146Y1415699D01*
X1015390Y1416048D01*
D02*
G37*
G36*
X1055390D02*
X1053634Y1415699D01*
X1052145Y1414704D01*
X1051151Y1413216D01*
X1050802Y1411460D01*
X1051151Y1409704D01*
X1052145Y1408215D01*
X1053634Y1407221D01*
X1055390Y1406872D01*
X1057146Y1407221D01*
X1058634Y1408215D01*
X1059629Y1409704D01*
X1059978Y1411460D01*
X1059629Y1413216D01*
X1058634Y1414704D01*
X1057146Y1415699D01*
X1055390Y1416048D01*
D02*
G37*
G36*
X1095390D02*
X1093634Y1415699D01*
X1092145Y1414704D01*
X1091151Y1413216D01*
X1090802Y1411460D01*
X1091151Y1409704D01*
X1092145Y1408215D01*
X1093634Y1407221D01*
X1095390Y1406872D01*
X1097146Y1407221D01*
X1098634Y1408215D01*
X1099629Y1409704D01*
X1099978Y1411460D01*
X1099629Y1413216D01*
X1098634Y1414704D01*
X1097146Y1415699D01*
X1095390Y1416048D01*
D02*
G37*
G36*
X815390Y1496048D02*
X813634Y1495699D01*
X812145Y1494704D01*
X811151Y1493216D01*
X810802Y1491460D01*
X811151Y1489704D01*
X812145Y1488215D01*
X813634Y1487221D01*
X815390Y1486872D01*
X817146Y1487221D01*
X818634Y1488215D01*
X819629Y1489704D01*
X819978Y1491460D01*
X819629Y1493216D01*
X818634Y1494704D01*
X817146Y1495699D01*
X815390Y1496048D01*
D02*
G37*
G36*
X795390Y1536048D02*
X793634Y1535699D01*
X792145Y1534704D01*
X791151Y1533216D01*
X790802Y1531460D01*
X791151Y1529704D01*
X792145Y1528215D01*
X793634Y1527221D01*
X795390Y1526872D01*
X797146Y1527221D01*
X798634Y1528215D01*
X799629Y1529704D01*
X799978Y1531460D01*
X799629Y1533216D01*
X798634Y1534704D01*
X797146Y1535699D01*
X795390Y1536048D01*
D02*
G37*
G36*
X835390D02*
X833634Y1535699D01*
X832145Y1534704D01*
X831151Y1533216D01*
X830802Y1531460D01*
X831151Y1529704D01*
X832145Y1528215D01*
X833634Y1527221D01*
X835390Y1526872D01*
X837146Y1527221D01*
X838634Y1528215D01*
X839629Y1529704D01*
X839978Y1531460D01*
X839629Y1533216D01*
X838634Y1534704D01*
X837146Y1535699D01*
X835390Y1536048D01*
D02*
G37*
G36*
X1152000Y1570333D02*
X1150342Y1570003D01*
X1148936Y1569064D01*
X1147997Y1567658D01*
X1147667Y1566000D01*
X1147997Y1564342D01*
X1148936Y1562936D01*
X1150342Y1561997D01*
X1152000Y1561667D01*
X1153658Y1561997D01*
X1155064Y1562936D01*
X1156003Y1564342D01*
X1156333Y1566000D01*
X1156003Y1567658D01*
X1155064Y1569064D01*
X1153658Y1570003D01*
X1152000Y1570333D01*
D02*
G37*
G36*
X855390Y1496048D02*
X853634Y1495699D01*
X852145Y1494704D01*
X851151Y1493216D01*
X850802Y1491460D01*
X851151Y1489704D01*
X852145Y1488215D01*
X853634Y1487221D01*
X855390Y1486872D01*
X857146Y1487221D01*
X858634Y1488215D01*
X859629Y1489704D01*
X859978Y1491460D01*
X859629Y1493216D01*
X858634Y1494704D01*
X857146Y1495699D01*
X855390Y1496048D01*
D02*
G37*
G36*
X1215390D02*
X1213634Y1495699D01*
X1212145Y1494704D01*
X1211151Y1493216D01*
X1210802Y1491460D01*
X1211151Y1489704D01*
X1212145Y1488215D01*
X1213634Y1487221D01*
X1215390Y1486872D01*
X1217145Y1487221D01*
X1218634Y1488215D01*
X1219629Y1489704D01*
X1219978Y1491460D01*
X1219629Y1493216D01*
X1218634Y1494704D01*
X1217145Y1495699D01*
X1215390Y1496048D01*
D02*
G37*
G36*
X1100000Y1489608D02*
X1097854Y1489181D01*
X1097043Y1488639D01*
X1096000Y1487987D01*
X1094957Y1488639D01*
X1094146Y1489181D01*
X1092000Y1489608D01*
X1089854Y1489181D01*
X1089043Y1488639D01*
X1088000Y1487987D01*
X1086957Y1488639D01*
X1086146Y1489181D01*
X1084000Y1489608D01*
X1081854Y1489181D01*
X1081043Y1488639D01*
X1080000Y1487987D01*
X1078957Y1488639D01*
X1078146Y1489181D01*
X1076000Y1489608D01*
X1073854Y1489181D01*
X1073043Y1488639D01*
X1072000Y1487987D01*
X1070957Y1488639D01*
X1070146Y1489181D01*
X1068000Y1489608D01*
X1065854Y1489181D01*
X1065043Y1488639D01*
X1064000Y1487987D01*
X1062957Y1488639D01*
X1062146Y1489181D01*
X1060000Y1489608D01*
X1057854Y1489181D01*
X1056870Y1488523D01*
X1055875Y1488042D01*
X1054880Y1488523D01*
X1053896Y1489181D01*
X1051750Y1489608D01*
X1049604Y1489181D01*
X1048793Y1488639D01*
X1047750Y1487987D01*
X1046707Y1488639D01*
X1045896Y1489181D01*
X1043750Y1489608D01*
X1041604Y1489181D01*
X1039785Y1487965D01*
X1038569Y1486146D01*
X1038142Y1484000D01*
X1038569Y1481854D01*
X1039785Y1480035D01*
X1041604Y1478819D01*
X1043750Y1478392D01*
X1045896Y1478819D01*
X1046707Y1479361D01*
X1047750Y1480013D01*
X1048793Y1479361D01*
X1049604Y1478819D01*
X1051750Y1478392D01*
X1053896Y1478819D01*
X1054880Y1479477D01*
X1055875Y1479957D01*
X1056870Y1479477D01*
X1057854Y1478819D01*
X1060000Y1478392D01*
X1062146Y1478819D01*
X1062957Y1479361D01*
X1064000Y1480013D01*
X1065043Y1479361D01*
X1065854Y1478819D01*
X1068000Y1478392D01*
X1070146Y1478819D01*
X1070957Y1479361D01*
X1072000Y1480013D01*
X1073043Y1479361D01*
X1073854Y1478819D01*
X1076000Y1478392D01*
X1078146Y1478819D01*
X1078957Y1479361D01*
X1080000Y1480013D01*
X1081043Y1479361D01*
X1081854Y1478819D01*
X1084000Y1478392D01*
X1086146Y1478819D01*
X1086957Y1479361D01*
X1088000Y1480013D01*
X1089043Y1479361D01*
X1089854Y1478819D01*
X1092000Y1478392D01*
X1094146Y1478819D01*
X1094957Y1479361D01*
X1096000Y1480013D01*
X1097043Y1479361D01*
X1097854Y1478819D01*
X1100000Y1478392D01*
X1102146Y1478819D01*
X1103965Y1480035D01*
X1105181Y1481854D01*
X1105608Y1484000D01*
X1105181Y1486146D01*
X1103965Y1487965D01*
X1102146Y1489181D01*
X1100000Y1489608D01*
D02*
G37*
G36*
X815390Y1736048D02*
X813634Y1735699D01*
X812145Y1734704D01*
X811151Y1733216D01*
X810802Y1731460D01*
X811151Y1729704D01*
X812145Y1728215D01*
X813634Y1727221D01*
X815390Y1726872D01*
X817146Y1727221D01*
X818634Y1728215D01*
X819629Y1729704D01*
X819978Y1731460D01*
X819629Y1733216D01*
X818634Y1734704D01*
X817146Y1735699D01*
X815390Y1736048D01*
D02*
G37*
G36*
X855390D02*
X853634Y1735699D01*
X852145Y1734704D01*
X851151Y1733216D01*
X850802Y1731460D01*
X851151Y1729704D01*
X852145Y1728215D01*
X853634Y1727221D01*
X855390Y1726872D01*
X857146Y1727221D01*
X858634Y1728215D01*
X859629Y1729704D01*
X859978Y1731460D01*
X859629Y1733216D01*
X858634Y1734704D01*
X857146Y1735699D01*
X855390Y1736048D01*
D02*
G37*
G36*
X1215390D02*
X1213634Y1735699D01*
X1212145Y1734704D01*
X1211151Y1733216D01*
X1210802Y1731460D01*
X1211151Y1729704D01*
X1212145Y1728215D01*
X1213634Y1727221D01*
X1215390Y1726872D01*
X1217145Y1727221D01*
X1218634Y1728215D01*
X1219629Y1729704D01*
X1219978Y1731460D01*
X1219629Y1733216D01*
X1218634Y1734704D01*
X1217145Y1735699D01*
X1215390Y1736048D01*
D02*
G37*
G36*
X1103500Y1720333D02*
X1101842Y1720003D01*
X1100436Y1719064D01*
X1099497Y1717658D01*
X1099167Y1716000D01*
X1099497Y1714342D01*
X1100436Y1712936D01*
X1101842Y1711997D01*
X1103500Y1711667D01*
X1105158Y1711997D01*
X1106564Y1712936D01*
X1107503Y1714342D01*
X1107833Y1716000D01*
X1107503Y1717658D01*
X1106564Y1719064D01*
X1105158Y1720003D01*
X1103500Y1720333D01*
D02*
G37*
G36*
X1047100Y1722733D02*
X1045442Y1722403D01*
X1044036Y1721464D01*
X1043097Y1720058D01*
X1042767Y1718400D01*
X1043097Y1716742D01*
X1044036Y1715336D01*
X1045442Y1714397D01*
X1047100Y1714067D01*
X1048758Y1714397D01*
X1050164Y1715336D01*
X1051103Y1716742D01*
X1051433Y1718400D01*
X1051103Y1720058D01*
X1050164Y1721464D01*
X1048758Y1722403D01*
X1047100Y1722733D01*
D02*
G37*
G36*
X972250Y1733333D02*
X970592Y1733003D01*
X969186Y1732064D01*
X968247Y1730658D01*
X967917Y1729000D01*
X968247Y1727342D01*
X969186Y1725936D01*
X970592Y1724997D01*
X972250Y1724667D01*
X973908Y1724997D01*
X975314Y1725936D01*
X976253Y1727342D01*
X976583Y1729000D01*
X976253Y1730658D01*
X975314Y1732064D01*
X973908Y1733003D01*
X972250Y1733333D01*
D02*
G37*
G36*
X988500Y1743583D02*
X986842Y1743253D01*
X985436Y1742314D01*
X984497Y1740908D01*
X984167Y1739250D01*
X984497Y1737592D01*
X985340Y1736329D01*
X985428Y1736141D01*
X985194Y1734820D01*
X984436Y1734314D01*
X983497Y1732908D01*
X983167Y1731250D01*
X983497Y1729592D01*
X984436Y1728186D01*
X985842Y1727247D01*
X987500Y1726917D01*
X989158Y1727247D01*
X990564Y1728186D01*
X991503Y1729592D01*
X991833Y1731250D01*
X991503Y1732908D01*
X990660Y1734171D01*
X990572Y1734359D01*
X990806Y1735680D01*
X991564Y1736186D01*
X992503Y1737592D01*
X992833Y1739250D01*
X992503Y1740908D01*
X991564Y1742314D01*
X990158Y1743253D01*
X988500Y1743583D01*
D02*
G37*
G36*
X1036750Y1759833D02*
X1035092Y1759503D01*
X1033686Y1758564D01*
X1032747Y1757158D01*
X1032417Y1755500D01*
X1032747Y1753842D01*
X1033686Y1752436D01*
X1035092Y1751497D01*
X1036750Y1751167D01*
X1038408Y1751497D01*
X1039814Y1752436D01*
X1040753Y1753842D01*
X1041083Y1755500D01*
X1040753Y1757158D01*
X1039814Y1758564D01*
X1038408Y1759503D01*
X1036750Y1759833D01*
D02*
G37*
G36*
X1064000Y1762858D02*
X1061854Y1762431D01*
X1060035Y1761215D01*
X1058819Y1759396D01*
X1058392Y1757250D01*
X1058819Y1755104D01*
X1060035Y1753285D01*
X1061854Y1752069D01*
X1064000Y1751642D01*
X1066146Y1752069D01*
X1067965Y1753285D01*
X1069181Y1755104D01*
X1069608Y1757250D01*
X1069181Y1759396D01*
X1067965Y1761215D01*
X1066146Y1762431D01*
X1064000Y1762858D01*
D02*
G37*
G36*
X1026550Y1761669D02*
X1024892Y1761339D01*
X1023486Y1760400D01*
X1022547Y1758994D01*
X1022217Y1757336D01*
X1022346Y1756686D01*
X1021433Y1755374D01*
X1021395Y1755368D01*
X1020414Y1756149D01*
X1020583Y1757000D01*
X1020253Y1758658D01*
X1019314Y1760064D01*
X1017908Y1761003D01*
X1016250Y1761333D01*
X1014592Y1761003D01*
X1013186Y1760064D01*
X1012247Y1758658D01*
X1011917Y1757000D01*
X1012247Y1755342D01*
X1013186Y1753936D01*
X1014592Y1752997D01*
X1016155Y1752686D01*
X1016284Y1752623D01*
X1017125Y1751546D01*
X1016917Y1750500D01*
X1017247Y1748842D01*
X1018186Y1747436D01*
X1019592Y1746497D01*
X1021250Y1746167D01*
X1022908Y1746497D01*
X1024314Y1747436D01*
X1025253Y1748842D01*
X1025583Y1750500D01*
X1025293Y1751958D01*
X1025735Y1752644D01*
X1026166Y1753079D01*
X1026550Y1753002D01*
X1028208Y1753332D01*
X1029614Y1754272D01*
X1030554Y1755677D01*
X1030883Y1757336D01*
X1030554Y1758994D01*
X1029614Y1760400D01*
X1028208Y1761339D01*
X1026550Y1761669D01*
D02*
G37*
G36*
X1095500Y1750608D02*
X1093354Y1750181D01*
X1091535Y1748965D01*
X1090319Y1747146D01*
X1089892Y1745000D01*
X1090319Y1742854D01*
X1091535Y1741035D01*
X1093354Y1739819D01*
X1095500Y1739392D01*
X1097646Y1739819D01*
X1099465Y1741035D01*
X1100681Y1742854D01*
X1101108Y1745000D01*
X1100681Y1747146D01*
X1099465Y1748965D01*
X1097646Y1750181D01*
X1095500Y1750608D01*
D02*
G37*
G36*
X1004299Y1758669D02*
X1002641Y1758339D01*
X1001235Y1757400D01*
X1000296Y1755994D01*
X999966Y1754336D01*
X1000296Y1752677D01*
X1001235Y1751272D01*
X1002641Y1750332D01*
X1004299Y1750002D01*
X1005338Y1750209D01*
X1006102Y1749066D01*
X1005997Y1748908D01*
X1005667Y1747250D01*
X1005997Y1745592D01*
X1006936Y1744186D01*
X1008342Y1743247D01*
X1010000Y1742917D01*
X1011658Y1743247D01*
X1013064Y1744186D01*
X1014003Y1745592D01*
X1014333Y1747250D01*
X1014003Y1748908D01*
X1013064Y1750314D01*
X1011658Y1751253D01*
X1010000Y1751583D01*
X1008961Y1751376D01*
X1008197Y1752520D01*
X1008302Y1752677D01*
X1008632Y1754336D01*
X1008302Y1755994D01*
X1007363Y1757400D01*
X1005957Y1758339D01*
X1004299Y1758669D01*
D02*
G37*
G36*
X993250Y1754333D02*
X991592Y1754003D01*
X990186Y1753064D01*
X989247Y1751658D01*
X988917Y1750000D01*
X989247Y1748342D01*
X990186Y1746936D01*
X991592Y1745997D01*
X993250Y1745667D01*
X994908Y1745997D01*
X996314Y1746936D01*
X997253Y1748342D01*
X997583Y1750000D01*
X997253Y1751658D01*
X996314Y1753064D01*
X994908Y1754003D01*
X993250Y1754333D01*
D02*
G37*
G36*
X981250Y1720083D02*
X979592Y1719753D01*
X978186Y1718814D01*
X977247Y1717408D01*
X976917Y1715750D01*
X977247Y1714092D01*
X978186Y1712686D01*
X979592Y1711747D01*
X981250Y1711417D01*
X982908Y1711747D01*
X984314Y1712686D01*
X985253Y1714092D01*
X985583Y1715750D01*
X985253Y1717408D01*
X984314Y1718814D01*
X982908Y1719753D01*
X981250Y1720083D01*
D02*
G37*
G36*
X994000Y1672833D02*
X992342Y1672503D01*
X990936Y1671564D01*
X989997Y1670158D01*
X989667Y1668500D01*
X989997Y1666842D01*
X990936Y1665436D01*
X992342Y1664497D01*
X994000Y1664167D01*
X995658Y1664497D01*
X997064Y1665436D01*
X998003Y1666842D01*
X998333Y1668500D01*
X998003Y1670158D01*
X997064Y1671564D01*
X995658Y1672503D01*
X994000Y1672833D01*
D02*
G37*
G36*
X1113500Y1689633D02*
X1111842Y1689303D01*
X1110436Y1688364D01*
X1109497Y1686958D01*
X1109167Y1685300D01*
X1109497Y1683642D01*
X1110436Y1682236D01*
X1111842Y1681297D01*
X1113500Y1680967D01*
X1115158Y1681297D01*
X1116564Y1682236D01*
X1117503Y1683642D01*
X1117833Y1685300D01*
X1117503Y1686958D01*
X1116564Y1688364D01*
X1115158Y1689303D01*
X1113500Y1689633D01*
D02*
G37*
G36*
X1073900Y1692833D02*
X1072242Y1692503D01*
X1070836Y1691564D01*
X1069897Y1690158D01*
X1069567Y1688500D01*
X1069897Y1686842D01*
X1070836Y1685436D01*
X1072242Y1684497D01*
X1073900Y1684167D01*
X1075558Y1684497D01*
X1076964Y1685436D01*
X1077903Y1686842D01*
X1078233Y1688500D01*
X1077903Y1690158D01*
X1076964Y1691564D01*
X1075558Y1692503D01*
X1073900Y1692833D01*
D02*
G37*
G36*
X815390Y1656048D02*
X813634Y1655699D01*
X812145Y1654704D01*
X811151Y1653216D01*
X810802Y1651460D01*
X811151Y1649704D01*
X812145Y1648215D01*
X813634Y1647221D01*
X815390Y1646872D01*
X817146Y1647221D01*
X818634Y1648215D01*
X819629Y1649704D01*
X819978Y1651460D01*
X819629Y1653216D01*
X818634Y1654704D01*
X817146Y1655699D01*
X815390Y1656048D01*
D02*
G37*
G36*
X855390D02*
X853634Y1655699D01*
X852145Y1654704D01*
X851151Y1653216D01*
X850802Y1651460D01*
X851151Y1649704D01*
X852145Y1648215D01*
X853634Y1647221D01*
X855390Y1646872D01*
X857146Y1647221D01*
X858634Y1648215D01*
X859629Y1649704D01*
X859978Y1651460D01*
X859629Y1653216D01*
X858634Y1654704D01*
X857146Y1655699D01*
X855390Y1656048D01*
D02*
G37*
G36*
X1215390D02*
X1213634Y1655699D01*
X1212145Y1654704D01*
X1211151Y1653216D01*
X1210802Y1651460D01*
X1211151Y1649704D01*
X1212145Y1648215D01*
X1213634Y1647221D01*
X1215390Y1646872D01*
X1217145Y1647221D01*
X1218634Y1648215D01*
X1219629Y1649704D01*
X1219978Y1651460D01*
X1219629Y1653216D01*
X1218634Y1654704D01*
X1217145Y1655699D01*
X1215390Y1656048D01*
D02*
G37*
G36*
X1034051Y1690665D02*
X1032392Y1690336D01*
X1030986Y1689396D01*
X1030047Y1687991D01*
X1029717Y1686332D01*
X1029727Y1686285D01*
X1028647Y1685205D01*
X1028000Y1685333D01*
X1026342Y1685003D01*
X1024936Y1684064D01*
X1023997Y1682658D01*
X1023667Y1681000D01*
X1023997Y1679342D01*
X1024936Y1677936D01*
X1026342Y1676997D01*
X1028000Y1676667D01*
X1029658Y1676997D01*
X1031064Y1677936D01*
X1032003Y1679342D01*
X1032333Y1681000D01*
X1032324Y1681048D01*
X1033404Y1682128D01*
X1034051Y1681999D01*
X1035709Y1682329D01*
X1037114Y1683268D01*
X1038054Y1684674D01*
X1038384Y1686332D01*
X1038054Y1687991D01*
X1037114Y1689396D01*
X1035709Y1690336D01*
X1034051Y1690665D01*
D02*
G37*
G36*
X959000Y1724833D02*
X957342Y1724503D01*
X955936Y1723564D01*
X954997Y1722158D01*
X954667Y1720500D01*
X954997Y1718842D01*
X955936Y1717436D01*
X957342Y1716497D01*
X959000Y1716167D01*
X960462Y1716458D01*
X961141Y1716022D01*
X961583Y1715587D01*
X961417Y1714750D01*
X961747Y1713092D01*
X962686Y1711686D01*
X964092Y1710747D01*
X965750Y1710417D01*
X967408Y1710747D01*
X968814Y1711686D01*
X969753Y1713092D01*
X970083Y1714750D01*
X969753Y1716408D01*
X968814Y1717814D01*
X967408Y1718753D01*
X965750Y1719083D01*
X964288Y1718793D01*
X963609Y1719228D01*
X963167Y1719663D01*
X963333Y1720500D01*
X963003Y1722158D01*
X962064Y1723564D01*
X960658Y1724503D01*
X959000Y1724833D01*
D02*
G37*
G36*
X1132000Y1719583D02*
X1130342Y1719253D01*
X1128936Y1718314D01*
X1127997Y1716908D01*
X1127667Y1715250D01*
X1127997Y1713592D01*
X1128936Y1712186D01*
X1130342Y1711247D01*
X1132000Y1710917D01*
X1133658Y1711247D01*
X1135064Y1712186D01*
X1136003Y1713592D01*
X1136333Y1715250D01*
X1136003Y1716908D01*
X1135064Y1718314D01*
X1133658Y1719253D01*
X1132000Y1719583D01*
D02*
G37*
G36*
X1117750Y1719833D02*
X1116092Y1719503D01*
X1114686Y1718564D01*
X1113747Y1717158D01*
X1113417Y1715500D01*
X1113747Y1713842D01*
X1114686Y1712436D01*
X1116092Y1711497D01*
X1117750Y1711167D01*
X1119408Y1711497D01*
X1120814Y1712436D01*
X1121753Y1713842D01*
X1122083Y1715500D01*
X1121753Y1717158D01*
X1120814Y1718564D01*
X1119408Y1719503D01*
X1117750Y1719833D01*
D02*
G37*
G36*
X795390Y1696048D02*
X793634Y1695699D01*
X792145Y1694704D01*
X791151Y1693216D01*
X790802Y1691460D01*
X791151Y1689704D01*
X792145Y1688215D01*
X793634Y1687221D01*
X795390Y1686872D01*
X797146Y1687221D01*
X798634Y1688215D01*
X799629Y1689704D01*
X799978Y1691460D01*
X799629Y1693216D01*
X798634Y1694704D01*
X797146Y1695699D01*
X795390Y1696048D01*
D02*
G37*
G36*
X835390D02*
X833634Y1695699D01*
X832145Y1694704D01*
X831151Y1693216D01*
X830802Y1691460D01*
X831151Y1689704D01*
X832145Y1688215D01*
X833634Y1687221D01*
X835390Y1686872D01*
X837146Y1687221D01*
X838634Y1688215D01*
X839629Y1689704D01*
X839978Y1691460D01*
X839629Y1693216D01*
X838634Y1694704D01*
X837146Y1695699D01*
X835390Y1696048D01*
D02*
G37*
G36*
X1004500Y1704083D02*
X1002842Y1703753D01*
X1001436Y1702814D01*
X1000497Y1701408D01*
X1000167Y1699750D01*
X1000497Y1698092D01*
X1001436Y1696686D01*
X1002842Y1695747D01*
X1004500Y1695417D01*
X1006158Y1695747D01*
X1007564Y1696686D01*
X1008503Y1698092D01*
X1008833Y1699750D01*
X1008503Y1701408D01*
X1007564Y1702814D01*
X1006158Y1703753D01*
X1004500Y1704083D01*
D02*
G37*
G36*
X975390Y1416048D02*
X973634Y1415699D01*
X972145Y1414704D01*
X971151Y1413216D01*
X970802Y1411460D01*
X971151Y1409704D01*
X972145Y1408215D01*
X973634Y1407221D01*
X975390Y1406872D01*
X977146Y1407221D01*
X978634Y1408215D01*
X979629Y1409704D01*
X979978Y1411460D01*
X979629Y1413216D01*
X978634Y1414704D01*
X977146Y1415699D01*
X975390Y1416048D01*
D02*
G37*
G36*
X1455390Y1096048D02*
X1453634Y1095699D01*
X1452145Y1094704D01*
X1451151Y1093216D01*
X1450802Y1091460D01*
X1451151Y1089704D01*
X1452145Y1088215D01*
X1453634Y1087221D01*
X1455390Y1086872D01*
X1457146Y1087221D01*
X1458634Y1088215D01*
X1459629Y1089704D01*
X1459978Y1091460D01*
X1459629Y1093216D01*
X1458634Y1094704D01*
X1457146Y1095699D01*
X1455390Y1096048D01*
D02*
G37*
G36*
X595390Y1136048D02*
X593634Y1135699D01*
X592146Y1134704D01*
X591151Y1133216D01*
X590802Y1131460D01*
X591151Y1129704D01*
X592146Y1128215D01*
X593634Y1127221D01*
X595390Y1126872D01*
X597146Y1127221D01*
X598634Y1128215D01*
X599629Y1129704D01*
X599978Y1131460D01*
X599629Y1133216D01*
X598634Y1134704D01*
X597146Y1135699D01*
X595390Y1136048D01*
D02*
G37*
G36*
X1435390D02*
X1433634Y1135699D01*
X1432145Y1134704D01*
X1431151Y1133216D01*
X1430802Y1131460D01*
X1431151Y1129704D01*
X1432145Y1128215D01*
X1433634Y1127221D01*
X1435390Y1126872D01*
X1437146Y1127221D01*
X1438634Y1128215D01*
X1439629Y1129704D01*
X1439978Y1131460D01*
X1439629Y1133216D01*
X1438634Y1134704D01*
X1437146Y1135699D01*
X1435390Y1136048D01*
D02*
G37*
G36*
X655390Y1096048D02*
X653634Y1095699D01*
X652145Y1094704D01*
X651151Y1093216D01*
X650802Y1091460D01*
X651151Y1089704D01*
X652145Y1088215D01*
X653634Y1087221D01*
X655390Y1086872D01*
X657146Y1087221D01*
X658634Y1088215D01*
X659629Y1089704D01*
X659978Y1091460D01*
X659629Y1093216D01*
X658634Y1094704D01*
X657146Y1095699D01*
X655390Y1096048D01*
D02*
G37*
G36*
X1375390D02*
X1373634Y1095699D01*
X1372145Y1094704D01*
X1371151Y1093216D01*
X1370802Y1091460D01*
X1371151Y1089704D01*
X1372145Y1088215D01*
X1373634Y1087221D01*
X1375390Y1086872D01*
X1377146Y1087221D01*
X1378634Y1088215D01*
X1379629Y1089704D01*
X1379978Y1091460D01*
X1379629Y1093216D01*
X1378634Y1094704D01*
X1377146Y1095699D01*
X1375390Y1096048D01*
D02*
G37*
G36*
X1415390D02*
X1413634Y1095699D01*
X1412145Y1094704D01*
X1411151Y1093216D01*
X1410802Y1091460D01*
X1411151Y1089704D01*
X1412145Y1088215D01*
X1413634Y1087221D01*
X1415390Y1086872D01*
X1417146Y1087221D01*
X1418634Y1088215D01*
X1419629Y1089704D01*
X1419978Y1091460D01*
X1419629Y1093216D01*
X1418634Y1094704D01*
X1417146Y1095699D01*
X1415390Y1096048D01*
D02*
G37*
G36*
X615390Y1176048D02*
X613634Y1175699D01*
X612146Y1174704D01*
X611151Y1173216D01*
X610802Y1171460D01*
X611151Y1169704D01*
X612146Y1168215D01*
X613634Y1167221D01*
X615390Y1166872D01*
X617146Y1167221D01*
X618634Y1168215D01*
X619629Y1169704D01*
X619978Y1171460D01*
X619629Y1173216D01*
X618634Y1174704D01*
X617146Y1175699D01*
X615390Y1176048D01*
D02*
G37*
G36*
X655390Y1256048D02*
X653634Y1255699D01*
X652145Y1254704D01*
X651151Y1253216D01*
X650802Y1251460D01*
X651151Y1249704D01*
X652145Y1248215D01*
X653634Y1247221D01*
X655390Y1246872D01*
X657146Y1247221D01*
X658634Y1248215D01*
X659629Y1249704D01*
X659978Y1251460D01*
X659629Y1253216D01*
X658634Y1254704D01*
X657146Y1255699D01*
X655390Y1256048D01*
D02*
G37*
G36*
X1375390D02*
X1373634Y1255699D01*
X1372145Y1254704D01*
X1371151Y1253216D01*
X1370802Y1251460D01*
X1371151Y1249704D01*
X1372145Y1248215D01*
X1373634Y1247221D01*
X1375390Y1246872D01*
X1377146Y1247221D01*
X1378634Y1248215D01*
X1379629Y1249704D01*
X1379978Y1251460D01*
X1379629Y1253216D01*
X1378634Y1254704D01*
X1377146Y1255699D01*
X1375390Y1256048D01*
D02*
G37*
G36*
X1299130Y1250005D02*
X1299129Y1250005D01*
X1299129D01*
X1298752Y1249855D01*
X1298391Y1249711D01*
X1240141Y1211961D01*
X1239866Y1211693D01*
X1239586Y1211428D01*
X1239580Y1211416D01*
X1239570Y1211407D01*
X1239419Y1211054D01*
X1239261Y1210702D01*
X1239261Y1210688D01*
X1239256Y1210676D01*
X1239250Y1210291D01*
X1239240Y1209906D01*
X1239245Y1209894D01*
X1239245Y1209880D01*
X1239387Y1209522D01*
X1239524Y1209163D01*
X1319649Y1081913D01*
X1319654Y1081908D01*
X1319657Y1081902D01*
X1319928Y1081619D01*
X1320197Y1081336D01*
X1320203Y1081333D01*
X1320208Y1081328D01*
X1320566Y1081171D01*
X1320923Y1081012D01*
X1320930Y1081011D01*
X1320936Y1081009D01*
X1321326Y1081001D01*
X1321718Y1080990D01*
X1321725Y1080992D01*
X1321732Y1080992D01*
X1322096Y1081134D01*
X1322462Y1081274D01*
X1322466Y1081279D01*
X1322473Y1081282D01*
X1382723Y1119782D01*
X1382728Y1119787D01*
X1382735Y1119790D01*
X1383015Y1120062D01*
X1383297Y1120333D01*
X1383300Y1120340D01*
X1383305Y1120345D01*
X1383460Y1120705D01*
X1383616Y1121061D01*
X1383617Y1121069D01*
X1383620Y1121076D01*
X1383625Y1121468D01*
X1383633Y1121857D01*
X1383630Y1121864D01*
X1383630Y1121871D01*
X1383485Y1122234D01*
X1383343Y1122598D01*
X1383338Y1122603D01*
X1383335Y1122610D01*
X1301210Y1249110D01*
X1300929Y1249399D01*
X1300657Y1249679D01*
X1300656Y1249680D01*
X1300655Y1249680D01*
X1300276Y1249843D01*
X1299926Y1249994D01*
X1299925D01*
X1299924Y1249995D01*
X1299507Y1250000D01*
X1299130Y1250005D01*
D02*
G37*
G36*
X1415390Y1176048D02*
X1413634Y1175699D01*
X1412145Y1174704D01*
X1411151Y1173216D01*
X1410802Y1171460D01*
X1411151Y1169704D01*
X1412145Y1168215D01*
X1413634Y1167221D01*
X1415390Y1166872D01*
X1417146Y1167221D01*
X1418634Y1168215D01*
X1419629Y1169704D01*
X1419978Y1171460D01*
X1419629Y1173216D01*
X1418634Y1174704D01*
X1417146Y1175699D01*
X1415390Y1176048D01*
D02*
G37*
G36*
X635390Y1216048D02*
X633634Y1215699D01*
X632146Y1214704D01*
X631151Y1213216D01*
X630802Y1211460D01*
X631151Y1209704D01*
X632146Y1208215D01*
X633634Y1207221D01*
X635390Y1206872D01*
X637146Y1207221D01*
X638634Y1208215D01*
X639629Y1209704D01*
X639978Y1211460D01*
X639629Y1213216D01*
X638634Y1214704D01*
X637146Y1215699D01*
X635390Y1216048D01*
D02*
G37*
G36*
X1395390D02*
X1393634Y1215699D01*
X1392145Y1214704D01*
X1391151Y1213216D01*
X1390802Y1211460D01*
X1391151Y1209704D01*
X1392145Y1208215D01*
X1393634Y1207221D01*
X1395390Y1206872D01*
X1397146Y1207221D01*
X1398634Y1208215D01*
X1399629Y1209704D01*
X1399978Y1211460D01*
X1399629Y1213216D01*
X1398634Y1214704D01*
X1397146Y1215699D01*
X1395390Y1216048D01*
D02*
G37*
G36*
X1375390Y1016048D02*
X1373634Y1015699D01*
X1372145Y1014704D01*
X1371151Y1013216D01*
X1370802Y1011460D01*
X1371151Y1009704D01*
X1372145Y1008215D01*
X1373634Y1007221D01*
X1375390Y1006872D01*
X1377146Y1007221D01*
X1378634Y1008215D01*
X1379629Y1009704D01*
X1379978Y1011460D01*
X1379629Y1013216D01*
X1378634Y1014704D01*
X1377146Y1015699D01*
X1375390Y1016048D01*
D02*
G37*
G36*
X515390Y1056048D02*
X513634Y1055699D01*
X512146Y1054704D01*
X511151Y1053216D01*
X510802Y1051460D01*
X511151Y1049704D01*
X512146Y1048215D01*
X513634Y1047221D01*
X515390Y1046872D01*
X517146Y1047221D01*
X518634Y1048215D01*
X519629Y1049704D01*
X519978Y1051460D01*
X519629Y1053216D01*
X518634Y1054704D01*
X517146Y1055699D01*
X515390Y1056048D01*
D02*
G37*
G36*
X635390D02*
X633634Y1055699D01*
X632146Y1054704D01*
X631151Y1053216D01*
X630802Y1051460D01*
X631151Y1049704D01*
X632146Y1048215D01*
X633634Y1047221D01*
X635390Y1046872D01*
X637146Y1047221D01*
X638634Y1048215D01*
X639629Y1049704D01*
X639978Y1051460D01*
X639629Y1053216D01*
X638634Y1054704D01*
X637146Y1055699D01*
X635390Y1056048D01*
D02*
G37*
G36*
X560000Y1062098D02*
X553047Y1061707D01*
X546182Y1060541D01*
X539490Y1058613D01*
X533057Y1055948D01*
X526962Y1052580D01*
X521283Y1048550D01*
X516090Y1043910D01*
X511450Y1038717D01*
X507420Y1033038D01*
X504052Y1026943D01*
X501387Y1020510D01*
X499459Y1013818D01*
X498293Y1006953D01*
X497902Y1000000D01*
X498293Y993047D01*
X499459Y986182D01*
X501387Y979490D01*
X504052Y973057D01*
X507420Y966962D01*
X511450Y961283D01*
X516090Y956090D01*
X521283Y951450D01*
X526962Y947420D01*
X533057Y944052D01*
X539490Y941387D01*
X546182Y939459D01*
X553047Y938293D01*
X560000Y937902D01*
X566953Y938293D01*
X573818Y939459D01*
X580510Y941387D01*
X586943Y944052D01*
X593038Y947420D01*
X598717Y951450D01*
X603910Y956090D01*
X608550Y961283D01*
X612580Y966962D01*
X615948Y973057D01*
X618613Y979490D01*
X620541Y986182D01*
X621707Y993047D01*
X622098Y1000000D01*
X621707Y1006953D01*
X620541Y1013818D01*
X618613Y1020510D01*
X615948Y1026943D01*
X612580Y1033038D01*
X608550Y1038717D01*
X603910Y1043910D01*
X598717Y1048550D01*
X593038Y1052580D01*
X586943Y1055948D01*
X580510Y1058613D01*
X573818Y1060541D01*
X566953Y1061707D01*
X560000Y1062098D01*
D02*
G37*
G36*
X1460000D02*
X1453047Y1061707D01*
X1446182Y1060541D01*
X1439490Y1058613D01*
X1433057Y1055948D01*
X1426962Y1052580D01*
X1421283Y1048550D01*
X1416090Y1043910D01*
X1411450Y1038717D01*
X1407420Y1033038D01*
X1404052Y1026943D01*
X1401387Y1020510D01*
X1399459Y1013818D01*
X1398293Y1006953D01*
X1397902Y1000000D01*
X1398293Y993047D01*
X1399459Y986182D01*
X1401387Y979490D01*
X1404052Y973057D01*
X1407420Y966962D01*
X1411450Y961283D01*
X1416090Y956090D01*
X1421283Y951450D01*
X1426962Y947420D01*
X1433057Y944052D01*
X1439490Y941387D01*
X1446182Y939459D01*
X1453047Y938293D01*
X1460000Y937902D01*
X1466953Y938293D01*
X1473818Y939459D01*
X1480510Y941387D01*
X1486943Y944052D01*
X1493038Y947420D01*
X1498717Y951450D01*
X1503910Y956090D01*
X1508550Y961283D01*
X1512580Y966962D01*
X1515948Y973057D01*
X1518613Y979490D01*
X1520541Y986182D01*
X1521707Y993047D01*
X1522098Y1000000D01*
X1521707Y1006953D01*
X1520541Y1013818D01*
X1518613Y1020510D01*
X1515948Y1026943D01*
X1512580Y1033038D01*
X1508550Y1038717D01*
X1503910Y1043910D01*
X1498717Y1048550D01*
X1493038Y1052580D01*
X1486943Y1055948D01*
X1480510Y1058613D01*
X1473818Y1060541D01*
X1466953Y1061707D01*
X1460000Y1062098D01*
D02*
G37*
G36*
X1395390Y976048D02*
X1393634Y975699D01*
X1392145Y974704D01*
X1391151Y973216D01*
X1390802Y971460D01*
X1391151Y969704D01*
X1392145Y968215D01*
X1393634Y967221D01*
X1395390Y966872D01*
X1397146Y967221D01*
X1398634Y968215D01*
X1399629Y969704D01*
X1399978Y971460D01*
X1399629Y973216D01*
X1398634Y974704D01*
X1397146Y975699D01*
X1395390Y976048D01*
D02*
G37*
G36*
X675390Y1056048D02*
X673634Y1055699D01*
X672145Y1054704D01*
X671151Y1053216D01*
X670802Y1051460D01*
X671151Y1049704D01*
X672145Y1048215D01*
X673634Y1047221D01*
X675390Y1046872D01*
X677146Y1047221D01*
X678634Y1048215D01*
X679629Y1049704D01*
X679978Y1051460D01*
X679629Y1053216D01*
X678634Y1054704D01*
X677146Y1055699D01*
X675390Y1056048D01*
D02*
G37*
G36*
X535390Y1096048D02*
X533634Y1095699D01*
X532146Y1094704D01*
X531151Y1093216D01*
X530802Y1091460D01*
X531151Y1089704D01*
X532146Y1088215D01*
X533634Y1087221D01*
X535390Y1086872D01*
X537146Y1087221D01*
X538634Y1088215D01*
X539629Y1089704D01*
X539978Y1091460D01*
X539629Y1093216D01*
X538634Y1094704D01*
X537146Y1095699D01*
X535390Y1096048D01*
D02*
G37*
G36*
X575390D02*
X573634Y1095699D01*
X572146Y1094704D01*
X571151Y1093216D01*
X570802Y1091460D01*
X571151Y1089704D01*
X572146Y1088215D01*
X573634Y1087221D01*
X575390Y1086872D01*
X577146Y1087221D01*
X578634Y1088215D01*
X579629Y1089704D01*
X579978Y1091460D01*
X579629Y1093216D01*
X578634Y1094704D01*
X577146Y1095699D01*
X575390Y1096048D01*
D02*
G37*
G36*
X615390D02*
X613634Y1095699D01*
X612146Y1094704D01*
X611151Y1093216D01*
X610802Y1091460D01*
X611151Y1089704D01*
X612146Y1088215D01*
X613634Y1087221D01*
X615390Y1086872D01*
X617146Y1087221D01*
X618634Y1088215D01*
X619629Y1089704D01*
X619978Y1091460D01*
X619629Y1093216D01*
X618634Y1094704D01*
X617146Y1095699D01*
X615390Y1096048D01*
D02*
G37*
G36*
X1355390Y1056048D02*
X1353634Y1055699D01*
X1352145Y1054704D01*
X1351151Y1053216D01*
X1350802Y1051460D01*
X1351151Y1049704D01*
X1352145Y1048215D01*
X1353634Y1047221D01*
X1355390Y1046872D01*
X1357146Y1047221D01*
X1358634Y1048215D01*
X1359629Y1049704D01*
X1359978Y1051460D01*
X1359629Y1053216D01*
X1358634Y1054704D01*
X1357146Y1055699D01*
X1355390Y1056048D01*
D02*
G37*
G36*
X1395390D02*
X1393634Y1055699D01*
X1392145Y1054704D01*
X1391151Y1053216D01*
X1390802Y1051460D01*
X1391151Y1049704D01*
X1392145Y1048215D01*
X1393634Y1047221D01*
X1395390Y1046872D01*
X1397146Y1047221D01*
X1398634Y1048215D01*
X1399629Y1049704D01*
X1399978Y1051460D01*
X1399629Y1053216D01*
X1398634Y1054704D01*
X1397146Y1055699D01*
X1395390Y1056048D01*
D02*
G37*
G36*
X721682Y1249755D02*
X721290Y1249750D01*
X720888Y1249745D01*
X720887Y1249744D01*
X720887D01*
X720523Y1249588D01*
X720157Y1249430D01*
X720157Y1249430D01*
X720156Y1249429D01*
X719876Y1249141D01*
X719602Y1248860D01*
X672313Y1176019D01*
X671426Y1175426D01*
X670210Y1173607D01*
X669973Y1172415D01*
X637477Y1122360D01*
X637474Y1122353D01*
X637469Y1122348D01*
X637326Y1121982D01*
X637182Y1121621D01*
X637183Y1121614D01*
X637180Y1121607D01*
X637188Y1121214D01*
X637193Y1120826D01*
X637196Y1120819D01*
X637196Y1120811D01*
X637354Y1120452D01*
X637507Y1120095D01*
X637512Y1120090D01*
X637515Y1120083D01*
X637797Y1119812D01*
X638077Y1119540D01*
X638084Y1119537D01*
X638089Y1119532D01*
X698339Y1081032D01*
X698346Y1081029D01*
X698351Y1081024D01*
X698716Y1080885D01*
X699081Y1080742D01*
X699088Y1080742D01*
X699094Y1080740D01*
X699487Y1080751D01*
X699876Y1080759D01*
X699882Y1080761D01*
X699889Y1080761D01*
X700248Y1080921D01*
X700605Y1081078D01*
X700610Y1081083D01*
X700616Y1081086D01*
X700885Y1081370D01*
X701156Y1081652D01*
X701158Y1081658D01*
X701163Y1081663D01*
X766965Y1186166D01*
X767537Y1186280D01*
X769357Y1187496D01*
X770572Y1189315D01*
X770999Y1191461D01*
X770831Y1192306D01*
X781288Y1208913D01*
X781426Y1209273D01*
X781568Y1209630D01*
X781568Y1209644D01*
X781572Y1209657D01*
X781562Y1210042D01*
X781557Y1210426D01*
X781551Y1210438D01*
X781551Y1210452D01*
X781394Y1210804D01*
X781242Y1211157D01*
X781232Y1211166D01*
X781227Y1211178D01*
X780947Y1211443D01*
X780671Y1211711D01*
X722421Y1249461D01*
X722047Y1249610D01*
X721684Y1249755D01*
X721683D01*
X721682Y1249755D01*
D02*
G37*
G36*
X1249500Y1265508D02*
X1247354Y1265081D01*
X1245535Y1263865D01*
X1244319Y1262046D01*
X1243892Y1259900D01*
X1244319Y1257754D01*
X1245535Y1255935D01*
X1247354Y1254719D01*
X1249500Y1254292D01*
X1251646Y1254719D01*
X1253465Y1255935D01*
X1254681Y1257754D01*
X1255108Y1259900D01*
X1254681Y1262046D01*
X1253465Y1263865D01*
X1251646Y1265081D01*
X1249500Y1265508D01*
D02*
G37*
G36*
X875390Y1376048D02*
X873634Y1375699D01*
X872145Y1374704D01*
X871151Y1373216D01*
X870802Y1371460D01*
X871151Y1369704D01*
X872145Y1368215D01*
X873634Y1367221D01*
X875390Y1366872D01*
X877146Y1367221D01*
X878634Y1368215D01*
X879629Y1369704D01*
X879978Y1371460D01*
X879629Y1373216D01*
X878634Y1374704D01*
X877146Y1375699D01*
X875390Y1376048D01*
D02*
G37*
G36*
X915390D02*
X913634Y1375699D01*
X912145Y1374704D01*
X911151Y1373216D01*
X910802Y1371460D01*
X911151Y1369704D01*
X912145Y1368215D01*
X913634Y1367221D01*
X915390Y1366872D01*
X917146Y1367221D01*
X918634Y1368215D01*
X919629Y1369704D01*
X919978Y1371460D01*
X919629Y1373216D01*
X918634Y1374704D01*
X917146Y1375699D01*
X915390Y1376048D01*
D02*
G37*
G36*
X1275390D02*
X1273634Y1375699D01*
X1272145Y1374704D01*
X1271151Y1373216D01*
X1270802Y1371460D01*
X1271151Y1369704D01*
X1272145Y1368215D01*
X1273634Y1367221D01*
X1275390Y1366872D01*
X1277146Y1367221D01*
X1278634Y1368215D01*
X1279629Y1369704D01*
X1279978Y1371460D01*
X1279629Y1373216D01*
X1278634Y1374704D01*
X1277146Y1375699D01*
X1275390Y1376048D01*
D02*
G37*
G36*
X715390D02*
X713634Y1375699D01*
X712145Y1374704D01*
X711151Y1373216D01*
X710802Y1371460D01*
X711151Y1369704D01*
X712145Y1368215D01*
X713634Y1367221D01*
X715390Y1366872D01*
X717146Y1367221D01*
X718634Y1368215D01*
X719629Y1369704D01*
X719978Y1371460D01*
X719629Y1373216D01*
X718634Y1374704D01*
X717146Y1375699D01*
X715390Y1376048D01*
D02*
G37*
G36*
X755390D02*
X753634Y1375699D01*
X752145Y1374704D01*
X751151Y1373216D01*
X750802Y1371460D01*
X751151Y1369704D01*
X752145Y1368215D01*
X753634Y1367221D01*
X755390Y1366872D01*
X757146Y1367221D01*
X758634Y1368215D01*
X759629Y1369704D01*
X759978Y1371460D01*
X759629Y1373216D01*
X758634Y1374704D01*
X757146Y1375699D01*
X755390Y1376048D01*
D02*
G37*
G36*
X835390D02*
X833634Y1375699D01*
X832145Y1374704D01*
X831151Y1373216D01*
X830802Y1371460D01*
X831151Y1369704D01*
X832145Y1368215D01*
X833634Y1367221D01*
X835390Y1366872D01*
X837146Y1367221D01*
X838634Y1368215D01*
X839629Y1369704D01*
X839978Y1371460D01*
X839629Y1373216D01*
X838634Y1374704D01*
X837146Y1375699D01*
X835390Y1376048D01*
D02*
G37*
G36*
X997300Y1390595D02*
X994428Y1390217D01*
X991753Y1389108D01*
X989455Y1387345D01*
X987691Y1385047D01*
X986583Y1382372D01*
X986205Y1379500D01*
X986583Y1376628D01*
X987691Y1373953D01*
X989455Y1371655D01*
X991753Y1369892D01*
X994428Y1368783D01*
X997300Y1368405D01*
X1000172Y1368783D01*
X1002848Y1369892D01*
X1005145Y1371655D01*
X1006908Y1373953D01*
X1008017Y1376628D01*
X1008395Y1379500D01*
X1008017Y1382372D01*
X1006908Y1385047D01*
X1005145Y1387345D01*
X1002848Y1389108D01*
X1000172Y1390217D01*
X997300Y1390595D01*
D02*
G37*
G36*
X855390Y1416048D02*
X853634Y1415699D01*
X852145Y1414704D01*
X851151Y1413216D01*
X850802Y1411460D01*
X851151Y1409704D01*
X852145Y1408215D01*
X853634Y1407221D01*
X855390Y1406872D01*
X857146Y1407221D01*
X858634Y1408215D01*
X859629Y1409704D01*
X859978Y1411460D01*
X859629Y1413216D01*
X858634Y1414704D01*
X857146Y1415699D01*
X855390Y1416048D01*
D02*
G37*
G36*
X895390D02*
X893634Y1415699D01*
X892145Y1414704D01*
X891151Y1413216D01*
X890802Y1411460D01*
X891151Y1409704D01*
X892145Y1408215D01*
X893634Y1407221D01*
X895390Y1406872D01*
X897146Y1407221D01*
X898634Y1408215D01*
X899629Y1409704D01*
X899978Y1411460D01*
X899629Y1413216D01*
X898634Y1414704D01*
X897146Y1415699D01*
X895390Y1416048D01*
D02*
G37*
G36*
X935390D02*
X933634Y1415699D01*
X932145Y1414704D01*
X931151Y1413216D01*
X930802Y1411460D01*
X931151Y1409704D01*
X932145Y1408215D01*
X933634Y1407221D01*
X935390Y1406872D01*
X937146Y1407221D01*
X938634Y1408215D01*
X939629Y1409704D01*
X939978Y1411460D01*
X939629Y1413216D01*
X938634Y1414704D01*
X937146Y1415699D01*
X935390Y1416048D01*
D02*
G37*
G36*
X1033700Y1390500D02*
X1011700D01*
Y1368500D01*
X1033700D01*
Y1390500D01*
D02*
G37*
G36*
X1115300Y1389108D02*
X1113154Y1388681D01*
X1111335Y1387465D01*
X1110119Y1385646D01*
X1109692Y1383500D01*
X1110119Y1381354D01*
X1111335Y1379535D01*
X1113154Y1378319D01*
X1115300Y1377892D01*
X1117446Y1378319D01*
X1119265Y1379535D01*
X1120481Y1381354D01*
X1120908Y1383500D01*
X1120481Y1385646D01*
X1119265Y1387465D01*
X1117446Y1388681D01*
X1115300Y1389108D01*
D02*
G37*
G36*
X775390Y1416048D02*
X773634Y1415699D01*
X772145Y1414704D01*
X771151Y1413216D01*
X770802Y1411460D01*
X771151Y1409704D01*
X772145Y1408215D01*
X773634Y1407221D01*
X775390Y1406872D01*
X777146Y1407221D01*
X778634Y1408215D01*
X779629Y1409704D01*
X779978Y1411460D01*
X779629Y1413216D01*
X778634Y1414704D01*
X777146Y1415699D01*
X775390Y1416048D01*
D02*
G37*
G36*
X1355390Y1296048D02*
X1353634Y1295699D01*
X1352145Y1294704D01*
X1351151Y1293216D01*
X1350802Y1291460D01*
X1351151Y1289704D01*
X1352145Y1288215D01*
X1353634Y1287221D01*
X1355390Y1286872D01*
X1357146Y1287221D01*
X1358634Y1288215D01*
X1359629Y1289704D01*
X1359978Y1291460D01*
X1359629Y1293216D01*
X1358634Y1294704D01*
X1357146Y1295699D01*
X1355390Y1296048D01*
D02*
G37*
G36*
X695390Y1336048D02*
X693634Y1335699D01*
X692145Y1334704D01*
X691151Y1333216D01*
X690802Y1331460D01*
X691151Y1329704D01*
X692145Y1328215D01*
X693634Y1327221D01*
X695390Y1326872D01*
X697146Y1327221D01*
X698634Y1328215D01*
X699629Y1329704D01*
X699978Y1331460D01*
X699629Y1333216D01*
X698634Y1334704D01*
X697146Y1335699D01*
X695390Y1336048D01*
D02*
G37*
G36*
X735390D02*
X733634Y1335699D01*
X732145Y1334704D01*
X731151Y1333216D01*
X730802Y1331460D01*
X731151Y1329704D01*
X732145Y1328215D01*
X733634Y1327221D01*
X735390Y1326872D01*
X737146Y1327221D01*
X738634Y1328215D01*
X739629Y1329704D01*
X739978Y1331460D01*
X739629Y1333216D01*
X738634Y1334704D01*
X737146Y1335699D01*
X735390Y1336048D01*
D02*
G37*
G36*
X751400Y1275208D02*
X749254Y1274781D01*
X747435Y1273565D01*
X746219Y1271746D01*
X745792Y1269600D01*
X746219Y1267454D01*
X747435Y1265635D01*
X749254Y1264419D01*
X751400Y1263992D01*
X753546Y1264419D01*
X755365Y1265635D01*
X756581Y1267454D01*
X757008Y1269600D01*
X756581Y1271746D01*
X755365Y1273565D01*
X753546Y1274781D01*
X751400Y1275208D01*
D02*
G37*
G36*
X675390Y1296048D02*
X673634Y1295699D01*
X672145Y1294704D01*
X671151Y1293216D01*
X670802Y1291460D01*
X671151Y1289704D01*
X672145Y1288215D01*
X673634Y1287221D01*
X675390Y1286872D01*
X677146Y1287221D01*
X678634Y1288215D01*
X679629Y1289704D01*
X679978Y1291460D01*
X679629Y1293216D01*
X678634Y1294704D01*
X677146Y1295699D01*
X675390Y1296048D01*
D02*
G37*
G36*
X1195390D02*
X1193634Y1295699D01*
X1192145Y1294704D01*
X1191151Y1293216D01*
X1190802Y1291460D01*
X1191151Y1289704D01*
X1192145Y1288215D01*
X1193634Y1287221D01*
X1195390Y1286872D01*
X1197146Y1287221D01*
X1198634Y1288215D01*
X1199629Y1289704D01*
X1199978Y1291460D01*
X1199629Y1293216D01*
X1198634Y1294704D01*
X1197146Y1295699D01*
X1195390Y1296048D01*
D02*
G37*
G36*
X775390Y1336048D02*
X773634Y1335699D01*
X772145Y1334704D01*
X771151Y1333216D01*
X770802Y1331460D01*
X771151Y1329704D01*
X772145Y1328215D01*
X773634Y1327221D01*
X775390Y1326872D01*
X777146Y1327221D01*
X778634Y1328215D01*
X779629Y1329704D01*
X779978Y1331460D01*
X779629Y1333216D01*
X778634Y1334704D01*
X777146Y1335699D01*
X775390Y1336048D01*
D02*
G37*
G36*
X1215390D02*
X1213634Y1335699D01*
X1212145Y1334704D01*
X1211151Y1333216D01*
X1210802Y1331460D01*
X1211151Y1329704D01*
X1212145Y1328215D01*
X1213634Y1327221D01*
X1215390Y1326872D01*
X1217145Y1327221D01*
X1218634Y1328215D01*
X1219629Y1329704D01*
X1219978Y1331460D01*
X1219629Y1333216D01*
X1218634Y1334704D01*
X1217145Y1335699D01*
X1215390Y1336048D01*
D02*
G37*
G36*
X1255390D02*
X1253634Y1335699D01*
X1252145Y1334704D01*
X1251151Y1333216D01*
X1250802Y1331460D01*
X1251151Y1329704D01*
X1252145Y1328215D01*
X1253634Y1327221D01*
X1255390Y1326872D01*
X1257145Y1327221D01*
X1258634Y1328215D01*
X1259629Y1329704D01*
X1259978Y1331460D01*
X1259629Y1333216D01*
X1258634Y1334704D01*
X1257145Y1335699D01*
X1255390Y1336048D01*
D02*
G37*
G36*
X1295390D02*
X1293634Y1335699D01*
X1292145Y1334704D01*
X1291151Y1333216D01*
X1290802Y1331460D01*
X1291151Y1329704D01*
X1292145Y1328215D01*
X1293634Y1327221D01*
X1295390Y1326872D01*
X1297146Y1327221D01*
X1298634Y1328215D01*
X1299629Y1329704D01*
X1299978Y1331460D01*
X1299629Y1333216D01*
X1298634Y1334704D01*
X1297146Y1335699D01*
X1295390Y1336048D01*
D02*
G37*
G36*
X815390D02*
X813634Y1335699D01*
X812145Y1334704D01*
X811151Y1333216D01*
X810802Y1331460D01*
X811151Y1329704D01*
X812145Y1328215D01*
X813634Y1327221D01*
X815390Y1326872D01*
X817146Y1327221D01*
X818634Y1328215D01*
X819629Y1329704D01*
X819978Y1331460D01*
X819629Y1333216D01*
X818634Y1334704D01*
X817146Y1335699D01*
X815390Y1336048D01*
D02*
G37*
G36*
X855390D02*
X853634Y1335699D01*
X852145Y1334704D01*
X851151Y1333216D01*
X850802Y1331460D01*
X851151Y1329704D01*
X852145Y1328215D01*
X853634Y1327221D01*
X855390Y1326872D01*
X857146Y1327221D01*
X858634Y1328215D01*
X859629Y1329704D01*
X859978Y1331460D01*
X859629Y1333216D01*
X858634Y1334704D01*
X857146Y1335699D01*
X855390Y1336048D01*
D02*
G37*
G36*
X1175390D02*
X1173634Y1335699D01*
X1172145Y1334704D01*
X1171151Y1333216D01*
X1170802Y1331460D01*
X1171151Y1329704D01*
X1172145Y1328215D01*
X1173634Y1327221D01*
X1175390Y1326872D01*
X1177146Y1327221D01*
X1178634Y1328215D01*
X1179629Y1329704D01*
X1179978Y1331460D01*
X1179629Y1333216D01*
X1178634Y1334704D01*
X1177146Y1335699D01*
X1175390Y1336048D01*
D02*
G37*
G36*
X949250Y1770358D02*
X947104Y1769931D01*
X945285Y1768715D01*
X944069Y1766896D01*
X943642Y1764750D01*
X944069Y1762604D01*
X945285Y1760785D01*
X947104Y1759569D01*
X949250Y1759142D01*
X951396Y1759569D01*
X953215Y1760785D01*
X954431Y1762604D01*
X954858Y1764750D01*
X954431Y1766896D01*
X953215Y1768715D01*
X951396Y1769931D01*
X949250Y1770358D01*
D02*
G37*
G36*
X1295390Y2056048D02*
X1293634Y2055699D01*
X1292145Y2054704D01*
X1291151Y2053216D01*
X1290802Y2051460D01*
X1291151Y2049704D01*
X1292145Y2048215D01*
X1293634Y2047221D01*
X1295390Y2046872D01*
X1297146Y2047221D01*
X1298634Y2048215D01*
X1299629Y2049704D01*
X1299978Y2051460D01*
X1299629Y2053216D01*
X1298634Y2054704D01*
X1297146Y2055699D01*
X1295390Y2056048D01*
D02*
G37*
G36*
X675390Y2096048D02*
X673634Y2095699D01*
X672145Y2094704D01*
X671151Y2093215D01*
X670802Y2091460D01*
X671151Y2089704D01*
X672145Y2088215D01*
X673634Y2087221D01*
X675390Y2086872D01*
X677146Y2087221D01*
X678634Y2088215D01*
X679629Y2089704D01*
X679978Y2091460D01*
X679629Y2093215D01*
X678634Y2094704D01*
X677146Y2095699D01*
X675390Y2096048D01*
D02*
G37*
G36*
X755390D02*
X753634Y2095699D01*
X752145Y2094704D01*
X751151Y2093215D01*
X750802Y2091460D01*
X751151Y2089704D01*
X752145Y2088215D01*
X753634Y2087221D01*
X755390Y2086872D01*
X757146Y2087221D01*
X758634Y2088215D01*
X759629Y2089704D01*
X759978Y2091460D01*
X759629Y2093215D01*
X758634Y2094704D01*
X757146Y2095699D01*
X755390Y2096048D01*
D02*
G37*
G36*
X1175390Y2056048D02*
X1173634Y2055699D01*
X1172145Y2054704D01*
X1171151Y2053216D01*
X1170802Y2051460D01*
X1171151Y2049704D01*
X1172145Y2048215D01*
X1173634Y2047221D01*
X1175390Y2046872D01*
X1177146Y2047221D01*
X1178634Y2048215D01*
X1179629Y2049704D01*
X1179978Y2051460D01*
X1179629Y2053216D01*
X1178634Y2054704D01*
X1177146Y2055699D01*
X1175390Y2056048D01*
D02*
G37*
G36*
X1215390D02*
X1213634Y2055699D01*
X1212145Y2054704D01*
X1211151Y2053216D01*
X1210802Y2051460D01*
X1211151Y2049704D01*
X1212145Y2048215D01*
X1213634Y2047221D01*
X1215390Y2046872D01*
X1217145Y2047221D01*
X1218634Y2048215D01*
X1219629Y2049704D01*
X1219978Y2051460D01*
X1219629Y2053216D01*
X1218634Y2054704D01*
X1217145Y2055699D01*
X1215390Y2056048D01*
D02*
G37*
G36*
X1255390D02*
X1253634Y2055699D01*
X1252145Y2054704D01*
X1251151Y2053216D01*
X1250802Y2051460D01*
X1251151Y2049704D01*
X1252145Y2048215D01*
X1253634Y2047221D01*
X1255390Y2046872D01*
X1257145Y2047221D01*
X1258634Y2048215D01*
X1259629Y2049704D01*
X1259978Y2051460D01*
X1259629Y2053216D01*
X1258634Y2054704D01*
X1257145Y2055699D01*
X1255390Y2056048D01*
D02*
G37*
G36*
X795390Y2096048D02*
X793634Y2095699D01*
X792145Y2094704D01*
X791151Y2093215D01*
X790802Y2091460D01*
X791151Y2089704D01*
X792145Y2088215D01*
X793634Y2087221D01*
X795390Y2086872D01*
X797146Y2087221D01*
X798634Y2088215D01*
X799629Y2089704D01*
X799978Y2091460D01*
X799629Y2093215D01*
X798634Y2094704D01*
X797146Y2095699D01*
X795390Y2096048D01*
D02*
G37*
G36*
X655390Y2136048D02*
X653634Y2135699D01*
X652145Y2134704D01*
X651151Y2133215D01*
X650802Y2131460D01*
X651151Y2129704D01*
X652145Y2128215D01*
X653634Y2127221D01*
X655390Y2126872D01*
X657146Y2127221D01*
X658634Y2128215D01*
X659629Y2129704D01*
X659978Y2131460D01*
X659629Y2133215D01*
X658634Y2134704D01*
X657146Y2135699D01*
X655390Y2136048D01*
D02*
G37*
G36*
X815390D02*
X813634Y2135699D01*
X812145Y2134704D01*
X811151Y2133215D01*
X810802Y2131460D01*
X811151Y2129704D01*
X812145Y2128215D01*
X813634Y2127221D01*
X815390Y2126872D01*
X817146Y2127221D01*
X818634Y2128215D01*
X819629Y2129704D01*
X819978Y2131460D01*
X819629Y2133215D01*
X818634Y2134704D01*
X817146Y2135699D01*
X815390Y2136048D01*
D02*
G37*
G36*
X1335390D02*
X1333634Y2135699D01*
X1332145Y2134704D01*
X1331151Y2133215D01*
X1330802Y2131460D01*
X1331151Y2129704D01*
X1332145Y2128215D01*
X1333634Y2127221D01*
X1335390Y2126872D01*
X1337146Y2127221D01*
X1338634Y2128215D01*
X1339629Y2129704D01*
X1339978Y2131460D01*
X1339629Y2133215D01*
X1338634Y2134704D01*
X1337146Y2135699D01*
X1335390Y2136048D01*
D02*
G37*
G36*
X1195390Y2096048D02*
X1193634Y2095699D01*
X1192145Y2094704D01*
X1191151Y2093215D01*
X1190802Y2091460D01*
X1191151Y2089704D01*
X1192145Y2088215D01*
X1193634Y2087221D01*
X1195390Y2086872D01*
X1197146Y2087221D01*
X1198634Y2088215D01*
X1199629Y2089704D01*
X1199978Y2091460D01*
X1199629Y2093215D01*
X1198634Y2094704D01*
X1197146Y2095699D01*
X1195390Y2096048D01*
D02*
G37*
G36*
X1235390D02*
X1233634Y2095699D01*
X1232145Y2094704D01*
X1231151Y2093215D01*
X1230802Y2091460D01*
X1231151Y2089704D01*
X1232145Y2088215D01*
X1233634Y2087221D01*
X1235390Y2086872D01*
X1237146Y2087221D01*
X1238634Y2088215D01*
X1239629Y2089704D01*
X1239978Y2091460D01*
X1239629Y2093215D01*
X1238634Y2094704D01*
X1237146Y2095699D01*
X1235390Y2096048D01*
D02*
G37*
G36*
X1268000Y2133308D02*
X1265854Y2132881D01*
X1264035Y2131665D01*
X1262819Y2129846D01*
X1262392Y2127700D01*
X1262819Y2125554D01*
X1264035Y2123735D01*
X1265854Y2122519D01*
X1268000Y2122092D01*
X1270146Y2122519D01*
X1271965Y2123735D01*
X1273181Y2125554D01*
X1273608Y2127700D01*
X1273181Y2129846D01*
X1271965Y2131665D01*
X1270146Y2132881D01*
X1268000Y2133308D01*
D02*
G37*
G36*
X775390Y2056048D02*
X773634Y2055699D01*
X772145Y2054704D01*
X771151Y2053216D01*
X770802Y2051460D01*
X771151Y2049704D01*
X772145Y2048215D01*
X773634Y2047221D01*
X775390Y2046872D01*
X777146Y2047221D01*
X778634Y2048215D01*
X779629Y2049704D01*
X779978Y2051460D01*
X779629Y2053216D01*
X778634Y2054704D01*
X777146Y2055699D01*
X775390Y2056048D01*
D02*
G37*
G36*
X815390D02*
X813634Y2055699D01*
X812145Y2054704D01*
X811151Y2053216D01*
X810802Y2051460D01*
X811151Y2049704D01*
X812145Y2048215D01*
X813634Y2047221D01*
X815390Y2046872D01*
X817146Y2047221D01*
X818634Y2048215D01*
X819629Y2049704D01*
X819978Y2051460D01*
X819629Y2053216D01*
X818634Y2054704D01*
X817146Y2055699D01*
X815390Y2056048D01*
D02*
G37*
G36*
X855390D02*
X853634Y2055699D01*
X852145Y2054704D01*
X851151Y2053216D01*
X850802Y2051460D01*
X851151Y2049704D01*
X852145Y2048215D01*
X853634Y2047221D01*
X855390Y2046872D01*
X857146Y2047221D01*
X858634Y2048215D01*
X859629Y2049704D01*
X859978Y2051460D01*
X859629Y2053216D01*
X858634Y2054704D01*
X857146Y2055699D01*
X855390Y2056048D01*
D02*
G37*
G36*
X1235390Y2016048D02*
X1233634Y2015699D01*
X1232145Y2014704D01*
X1231151Y2013216D01*
X1230802Y2011460D01*
X1231151Y2009704D01*
X1232145Y2008215D01*
X1233634Y2007221D01*
X1235390Y2006872D01*
X1237146Y2007221D01*
X1238634Y2008215D01*
X1239629Y2009704D01*
X1239978Y2011460D01*
X1239629Y2013216D01*
X1238634Y2014704D01*
X1237146Y2015699D01*
X1235390Y2016048D01*
D02*
G37*
G36*
X1275390D02*
X1273634Y2015699D01*
X1272145Y2014704D01*
X1271151Y2013216D01*
X1270802Y2011460D01*
X1271151Y2009704D01*
X1272145Y2008215D01*
X1273634Y2007221D01*
X1275390Y2006872D01*
X1277146Y2007221D01*
X1278634Y2008215D01*
X1279629Y2009704D01*
X1279978Y2011460D01*
X1279629Y2013216D01*
X1278634Y2014704D01*
X1277146Y2015699D01*
X1275390Y2016048D01*
D02*
G37*
G36*
X735390Y2056048D02*
X733634Y2055699D01*
X732145Y2054704D01*
X731151Y2053216D01*
X730802Y2051460D01*
X731151Y2049704D01*
X732145Y2048215D01*
X733634Y2047221D01*
X735390Y2046872D01*
X737146Y2047221D01*
X738634Y2048215D01*
X739629Y2049704D01*
X739978Y2051460D01*
X739629Y2053216D01*
X738634Y2054704D01*
X737146Y2055699D01*
X735390Y2056048D01*
D02*
G37*
G36*
X895390D02*
X893634Y2055699D01*
X892145Y2054704D01*
X891151Y2053216D01*
X890802Y2051460D01*
X891151Y2049704D01*
X892145Y2048215D01*
X893634Y2047221D01*
X895390Y2046872D01*
X897146Y2047221D01*
X898634Y2048215D01*
X899629Y2049704D01*
X899978Y2051460D01*
X899629Y2053216D01*
X898634Y2054704D01*
X897146Y2055699D01*
X895390Y2056048D01*
D02*
G37*
G36*
X1055390D02*
X1053634Y2055699D01*
X1052145Y2054704D01*
X1051151Y2053216D01*
X1050802Y2051460D01*
X1051151Y2049704D01*
X1052145Y2048215D01*
X1053634Y2047221D01*
X1055390Y2046872D01*
X1057146Y2047221D01*
X1058634Y2048215D01*
X1059629Y2049704D01*
X1059978Y2051460D01*
X1059629Y2053216D01*
X1058634Y2054704D01*
X1057146Y2055699D01*
X1055390Y2056048D01*
D02*
G37*
G36*
X1095390D02*
X1093634Y2055699D01*
X1092145Y2054704D01*
X1091151Y2053216D01*
X1090802Y2051460D01*
X1091151Y2049704D01*
X1092145Y2048215D01*
X1093634Y2047221D01*
X1095390Y2046872D01*
X1097146Y2047221D01*
X1098634Y2048215D01*
X1099629Y2049704D01*
X1099978Y2051460D01*
X1099629Y2053216D01*
X1098634Y2054704D01*
X1097146Y2055699D01*
X1095390Y2056048D01*
D02*
G37*
G36*
X1135390D02*
X1133634Y2055699D01*
X1132145Y2054704D01*
X1131151Y2053216D01*
X1130802Y2051460D01*
X1131151Y2049704D01*
X1132145Y2048215D01*
X1133634Y2047221D01*
X1135390Y2046872D01*
X1137146Y2047221D01*
X1138634Y2048215D01*
X1139629Y2049704D01*
X1139978Y2051460D01*
X1139629Y2053216D01*
X1138634Y2054704D01*
X1137146Y2055699D01*
X1135390Y2056048D01*
D02*
G37*
G36*
X935390D02*
X933634Y2055699D01*
X932145Y2054704D01*
X931151Y2053216D01*
X930802Y2051460D01*
X931151Y2049704D01*
X932145Y2048215D01*
X933634Y2047221D01*
X935390Y2046872D01*
X937146Y2047221D01*
X938634Y2048215D01*
X939629Y2049704D01*
X939978Y2051460D01*
X939629Y2053216D01*
X938634Y2054704D01*
X937146Y2055699D01*
X935390Y2056048D01*
D02*
G37*
G36*
X975390D02*
X973634Y2055699D01*
X972145Y2054704D01*
X971151Y2053216D01*
X970802Y2051460D01*
X971151Y2049704D01*
X972145Y2048215D01*
X973634Y2047221D01*
X975390Y2046872D01*
X977146Y2047221D01*
X978634Y2048215D01*
X979629Y2049704D01*
X979978Y2051460D01*
X979629Y2053216D01*
X978634Y2054704D01*
X977146Y2055699D01*
X975390Y2056048D01*
D02*
G37*
G36*
X1015390D02*
X1013634Y2055699D01*
X1012145Y2054704D01*
X1011151Y2053216D01*
X1010802Y2051460D01*
X1011151Y2049704D01*
X1012145Y2048215D01*
X1013634Y2047221D01*
X1015390Y2046872D01*
X1017146Y2047221D01*
X1018634Y2048215D01*
X1019629Y2049704D01*
X1019978Y2051460D01*
X1019629Y2053216D01*
X1018634Y2054704D01*
X1017146Y2055699D01*
X1015390Y2056048D01*
D02*
G37*
G36*
X769622Y2149358D02*
X767476Y2148931D01*
X765656Y2147716D01*
X764441Y2145896D01*
X764014Y2143750D01*
X764441Y2141604D01*
X765656Y2139785D01*
X767476Y2138570D01*
X769622Y2138143D01*
X771768Y2138570D01*
X773587Y2139785D01*
X774802Y2141604D01*
X775229Y2143750D01*
X774802Y2145896D01*
X773587Y2147716D01*
X771768Y2148931D01*
X769622Y2149358D01*
D02*
G37*
G36*
X1355390Y2336048D02*
X1353634Y2335699D01*
X1352145Y2334704D01*
X1351151Y2333215D01*
X1350802Y2331460D01*
X1351151Y2329704D01*
X1352145Y2328215D01*
X1353634Y2327221D01*
X1355390Y2326872D01*
X1357146Y2327221D01*
X1358634Y2328215D01*
X1359629Y2329704D01*
X1359978Y2331460D01*
X1359629Y2333215D01*
X1358634Y2334704D01*
X1357146Y2335699D01*
X1355390Y2336048D01*
D02*
G37*
G36*
X1395390D02*
X1393634Y2335699D01*
X1392145Y2334704D01*
X1391151Y2333215D01*
X1390802Y2331460D01*
X1391151Y2329704D01*
X1392145Y2328215D01*
X1393634Y2327221D01*
X1395390Y2326872D01*
X1397146Y2327221D01*
X1398634Y2328215D01*
X1399629Y2329704D01*
X1399978Y2331460D01*
X1399629Y2333215D01*
X1398634Y2334704D01*
X1397146Y2335699D01*
X1395390Y2336048D01*
D02*
G37*
G36*
X1435390D02*
X1433634Y2335699D01*
X1432145Y2334704D01*
X1431151Y2333215D01*
X1430802Y2331460D01*
X1431151Y2329704D01*
X1432145Y2328215D01*
X1433634Y2327221D01*
X1435390Y2326872D01*
X1437146Y2327221D01*
X1438634Y2328215D01*
X1439629Y2329704D01*
X1439978Y2331460D01*
X1439629Y2333215D01*
X1438634Y2334704D01*
X1437146Y2335699D01*
X1435390Y2336048D01*
D02*
G37*
G36*
X595390D02*
X593634Y2335699D01*
X592146Y2334704D01*
X591151Y2333215D01*
X590802Y2331460D01*
X591151Y2329704D01*
X592146Y2328215D01*
X593634Y2327221D01*
X595390Y2326872D01*
X597146Y2327221D01*
X598634Y2328215D01*
X599629Y2329704D01*
X599978Y2331460D01*
X599629Y2333215D01*
X598634Y2334704D01*
X597146Y2335699D01*
X595390Y2336048D01*
D02*
G37*
G36*
X635390D02*
X633634Y2335699D01*
X632146Y2334704D01*
X631151Y2333215D01*
X630802Y2331460D01*
X631151Y2329704D01*
X632146Y2328215D01*
X633634Y2327221D01*
X635390Y2326872D01*
X637146Y2327221D01*
X638634Y2328215D01*
X639629Y2329704D01*
X639978Y2331460D01*
X639629Y2333215D01*
X638634Y2334704D01*
X637146Y2335699D01*
X635390Y2336048D01*
D02*
G37*
G36*
X675390D02*
X673634Y2335699D01*
X672145Y2334704D01*
X671151Y2333215D01*
X670802Y2331460D01*
X671151Y2329704D01*
X672145Y2328215D01*
X673634Y2327221D01*
X675390Y2326872D01*
X677146Y2327221D01*
X678634Y2328215D01*
X679629Y2329704D01*
X679978Y2331460D01*
X679629Y2333215D01*
X678634Y2334704D01*
X677146Y2335699D01*
X675390Y2336048D01*
D02*
G37*
G36*
X1475390D02*
X1473634Y2335699D01*
X1472145Y2334704D01*
X1471151Y2333215D01*
X1470802Y2331460D01*
X1471151Y2329704D01*
X1472145Y2328215D01*
X1473634Y2327221D01*
X1475390Y2326872D01*
X1477146Y2327221D01*
X1478634Y2328215D01*
X1479629Y2329704D01*
X1479978Y2331460D01*
X1479629Y2333215D01*
X1478634Y2334704D01*
X1477146Y2335699D01*
X1475390Y2336048D01*
D02*
G37*
G36*
X635390Y2416048D02*
X633634Y2415699D01*
X632146Y2414704D01*
X631151Y2413215D01*
X630802Y2411460D01*
X631151Y2409704D01*
X632146Y2408215D01*
X633634Y2407221D01*
X635390Y2406872D01*
X637146Y2407221D01*
X638634Y2408215D01*
X639629Y2409704D01*
X639978Y2411460D01*
X639629Y2413215D01*
X638634Y2414704D01*
X637146Y2415699D01*
X635390Y2416048D01*
D02*
G37*
G36*
X1460000Y2462098D02*
X1453047Y2461707D01*
X1446182Y2460541D01*
X1439490Y2458613D01*
X1433057Y2455948D01*
X1426962Y2452580D01*
X1421283Y2448550D01*
X1416090Y2443910D01*
X1411450Y2438717D01*
X1407420Y2433038D01*
X1404052Y2426943D01*
X1401387Y2420510D01*
X1399849Y2415172D01*
X1399349Y2414979D01*
X1398432Y2414839D01*
X1397146Y2415699D01*
X1395390Y2416048D01*
X1393634Y2415699D01*
X1392145Y2414704D01*
X1391151Y2413215D01*
X1390802Y2411460D01*
X1391151Y2409704D01*
X1392145Y2408215D01*
X1393634Y2407221D01*
X1395390Y2406872D01*
X1397047Y2407201D01*
X1397190Y2407189D01*
X1398264Y2406441D01*
X1397902Y2400000D01*
X1398293Y2393047D01*
X1399459Y2386182D01*
X1401387Y2379490D01*
X1404052Y2373057D01*
X1407420Y2366962D01*
X1411450Y2361283D01*
X1416090Y2356090D01*
X1421283Y2351450D01*
X1426962Y2347420D01*
X1433057Y2344052D01*
X1439490Y2341387D01*
X1446182Y2339459D01*
X1453047Y2338293D01*
X1460000Y2337902D01*
X1466953Y2338293D01*
X1473818Y2339459D01*
X1480510Y2341387D01*
X1486943Y2344052D01*
X1493038Y2347420D01*
X1498717Y2351450D01*
X1503910Y2356090D01*
X1508550Y2361283D01*
X1512580Y2366962D01*
X1515948Y2373057D01*
X1518613Y2379490D01*
X1520541Y2386182D01*
X1521707Y2393047D01*
X1522098Y2400000D01*
X1521707Y2406953D01*
X1520541Y2413818D01*
X1518613Y2420510D01*
X1515948Y2426943D01*
X1512580Y2433038D01*
X1508550Y2438717D01*
X1503910Y2443910D01*
X1498717Y2448550D01*
X1493038Y2452580D01*
X1486943Y2455948D01*
X1480510Y2458613D01*
X1473818Y2460541D01*
X1466953Y2461707D01*
X1460000Y2462098D01*
D02*
G37*
G36*
X1415390Y2456048D02*
X1413634Y2455699D01*
X1412145Y2454704D01*
X1411151Y2453215D01*
X1410802Y2451460D01*
X1411151Y2449704D01*
X1412145Y2448215D01*
X1413634Y2447221D01*
X1415390Y2446872D01*
X1417146Y2447221D01*
X1418634Y2448215D01*
X1419629Y2449704D01*
X1419978Y2451460D01*
X1419629Y2453215D01*
X1418634Y2454704D01*
X1417146Y2455699D01*
X1415390Y2456048D01*
D02*
G37*
G36*
X560000Y2462098D02*
X553047Y2461707D01*
X546182Y2460541D01*
X539490Y2458613D01*
X533057Y2455948D01*
X526962Y2452580D01*
X521283Y2448550D01*
X516090Y2443910D01*
X511450Y2438717D01*
X507420Y2433038D01*
X504052Y2426943D01*
X501387Y2420510D01*
X499459Y2413818D01*
X498293Y2406953D01*
X497902Y2400000D01*
X498293Y2393047D01*
X499459Y2386182D01*
X501387Y2379490D01*
X504052Y2373057D01*
X507420Y2366962D01*
X511450Y2361283D01*
X516090Y2356090D01*
X521283Y2351450D01*
X526962Y2347420D01*
X533057Y2344052D01*
X539490Y2341387D01*
X546182Y2339459D01*
X553047Y2338293D01*
X560000Y2337902D01*
X566953Y2338293D01*
X573818Y2339459D01*
X580510Y2341387D01*
X586943Y2344052D01*
X593038Y2347420D01*
X598717Y2351450D01*
X603910Y2356090D01*
X608550Y2361283D01*
X612580Y2366962D01*
X615948Y2373057D01*
X618613Y2379490D01*
X620541Y2386182D01*
X621707Y2393047D01*
X622098Y2400000D01*
X621707Y2406953D01*
X620541Y2413818D01*
X618613Y2420510D01*
X615948Y2426943D01*
X612580Y2433038D01*
X608550Y2438717D01*
X603910Y2443910D01*
X598717Y2448550D01*
X593038Y2452580D01*
X586943Y2455948D01*
X580510Y2458613D01*
X573818Y2460541D01*
X566953Y2461707D01*
X560000Y2462098D01*
D02*
G37*
G36*
X655390Y2376048D02*
X653634Y2375699D01*
X652145Y2374704D01*
X651151Y2373215D01*
X650802Y2371460D01*
X651151Y2369704D01*
X652145Y2368215D01*
X653634Y2367221D01*
X655390Y2366872D01*
X657146Y2367221D01*
X658634Y2368215D01*
X659629Y2369704D01*
X659978Y2371460D01*
X659629Y2373215D01*
X658634Y2374704D01*
X657146Y2375699D01*
X655390Y2376048D01*
D02*
G37*
G36*
X1375390D02*
X1373634Y2375699D01*
X1372145Y2374704D01*
X1371151Y2373215D01*
X1370802Y2371460D01*
X1371151Y2369704D01*
X1372145Y2368215D01*
X1373634Y2367221D01*
X1375390Y2366872D01*
X1377146Y2367221D01*
X1378634Y2368215D01*
X1379629Y2369704D01*
X1379978Y2371460D01*
X1379629Y2373215D01*
X1378634Y2374704D01*
X1377146Y2375699D01*
X1375390Y2376048D01*
D02*
G37*
G36*
X655390Y2216048D02*
X653634Y2215699D01*
X652145Y2214704D01*
X651151Y2213215D01*
X650802Y2211460D01*
X651151Y2209704D01*
X652145Y2208215D01*
X653634Y2207221D01*
X655390Y2206872D01*
X657146Y2207221D01*
X658634Y2208215D01*
X659629Y2209704D01*
X659978Y2211460D01*
X659629Y2213215D01*
X658634Y2214704D01*
X657146Y2215699D01*
X655390Y2216048D01*
D02*
G37*
G36*
X1415390D02*
X1413634Y2215699D01*
X1412145Y2214704D01*
X1411151Y2213215D01*
X1410802Y2211460D01*
X1411151Y2209704D01*
X1412145Y2208215D01*
X1413634Y2207221D01*
X1415390Y2206872D01*
X1417146Y2207221D01*
X1418634Y2208215D01*
X1419629Y2209704D01*
X1419978Y2211460D01*
X1419629Y2213215D01*
X1418634Y2214704D01*
X1417146Y2215699D01*
X1415390Y2216048D01*
D02*
G37*
G36*
X595390Y2256048D02*
X593634Y2255699D01*
X592146Y2254704D01*
X591151Y2253215D01*
X590802Y2251460D01*
X591151Y2249704D01*
X592146Y2248215D01*
X593634Y2247221D01*
X595390Y2246872D01*
X597146Y2247221D01*
X598634Y2248215D01*
X599629Y2249704D01*
X599978Y2251460D01*
X599629Y2253215D01*
X598634Y2254704D01*
X597146Y2255699D01*
X595390Y2256048D01*
D02*
G37*
G36*
X635390Y2176048D02*
X633634Y2175699D01*
X632146Y2174704D01*
X631151Y2173215D01*
X630802Y2171460D01*
X631151Y2169704D01*
X632146Y2168215D01*
X633634Y2167221D01*
X635390Y2166872D01*
X637146Y2167221D01*
X638634Y2168215D01*
X639629Y2169704D01*
X639978Y2171460D01*
X639629Y2173215D01*
X638634Y2174704D01*
X637146Y2175699D01*
X635390Y2176048D01*
D02*
G37*
G36*
X1395390D02*
X1393634Y2175699D01*
X1392145Y2174704D01*
X1391151Y2173215D01*
X1390802Y2171460D01*
X1391151Y2169704D01*
X1392145Y2168215D01*
X1393634Y2167221D01*
X1395390Y2166872D01*
X1397146Y2167221D01*
X1398634Y2168215D01*
X1399629Y2169704D01*
X1399978Y2171460D01*
X1399629Y2173215D01*
X1398634Y2174704D01*
X1397146Y2175699D01*
X1395390Y2176048D01*
D02*
G37*
G36*
X615390Y2216048D02*
X613634Y2215699D01*
X612146Y2214704D01*
X611151Y2213215D01*
X610802Y2211460D01*
X611151Y2209704D01*
X612146Y2208215D01*
X613634Y2207221D01*
X615390Y2206872D01*
X617146Y2207221D01*
X618634Y2208215D01*
X619629Y2209704D01*
X619978Y2211460D01*
X619629Y2213215D01*
X618634Y2214704D01*
X617146Y2215699D01*
X615390Y2216048D01*
D02*
G37*
G36*
X1435390Y2256048D02*
X1433634Y2255699D01*
X1432145Y2254704D01*
X1431151Y2253215D01*
X1430802Y2251460D01*
X1431151Y2249704D01*
X1432145Y2248215D01*
X1433634Y2247221D01*
X1435390Y2246872D01*
X1437146Y2247221D01*
X1438634Y2248215D01*
X1439629Y2249704D01*
X1439978Y2251460D01*
X1439629Y2253215D01*
X1438634Y2254704D01*
X1437146Y2255699D01*
X1435390Y2256048D01*
D02*
G37*
G36*
X1455390Y2296048D02*
X1453634Y2295699D01*
X1452145Y2294704D01*
X1451151Y2293215D01*
X1450802Y2291460D01*
X1451151Y2289704D01*
X1452145Y2288215D01*
X1453634Y2287221D01*
X1455390Y2286872D01*
X1457146Y2287221D01*
X1458634Y2288215D01*
X1459629Y2289704D01*
X1459978Y2291460D01*
X1459629Y2293215D01*
X1458634Y2294704D01*
X1457146Y2295699D01*
X1455390Y2296048D01*
D02*
G37*
G36*
X696261Y2321788D02*
X696254Y2321786D01*
X696247Y2321786D01*
X695883Y2321644D01*
X695518Y2321504D01*
X695512Y2321499D01*
X695506Y2321497D01*
X635256Y2282997D01*
X635251Y2282991D01*
X635244Y2282989D01*
X634964Y2282716D01*
X634682Y2282446D01*
X634679Y2282439D01*
X634674Y2282433D01*
X634519Y2282074D01*
X634363Y2281717D01*
X634362Y2281709D01*
X634360Y2281703D01*
X634354Y2281310D01*
X634346Y2280921D01*
X634349Y2280914D01*
X634349Y2280907D01*
X634494Y2280544D01*
X634636Y2280180D01*
X634641Y2280175D01*
X634644Y2280168D01*
X716769Y2153668D01*
X717050Y2153379D01*
X717322Y2153099D01*
X717323Y2153098D01*
X717324Y2153098D01*
X717703Y2152935D01*
X718053Y2152784D01*
X718054D01*
X718055Y2152784D01*
X718472Y2152778D01*
X718849Y2152773D01*
X718849Y2152773D01*
X718850D01*
X719227Y2152923D01*
X719588Y2153067D01*
X777838Y2190817D01*
X778113Y2191085D01*
X778393Y2191350D01*
X778399Y2191362D01*
X778409Y2191372D01*
X778560Y2191724D01*
X778718Y2192076D01*
X778718Y2192090D01*
X778723Y2192102D01*
X778729Y2192487D01*
X778739Y2192872D01*
X778734Y2192884D01*
X778735Y2192898D01*
X778592Y2193256D01*
X778455Y2193615D01*
X698330Y2320865D01*
X698325Y2320870D01*
X698322Y2320876D01*
X698051Y2321159D01*
X697783Y2321443D01*
X697776Y2321445D01*
X697771Y2321450D01*
X697413Y2321608D01*
X697056Y2321767D01*
X697049Y2321767D01*
X697043Y2321770D01*
X696653Y2321778D01*
X696261Y2321788D01*
D02*
G37*
G36*
X555390Y2336048D02*
X553634Y2335699D01*
X552146Y2334704D01*
X551151Y2333215D01*
X550802Y2331460D01*
X551151Y2329704D01*
X552146Y2328215D01*
X553634Y2327221D01*
X555390Y2326872D01*
X557146Y2327221D01*
X558634Y2328215D01*
X559629Y2329704D01*
X559978Y2331460D01*
X559629Y2333215D01*
X558634Y2334704D01*
X557146Y2335699D01*
X555390Y2336048D01*
D02*
G37*
G36*
X575390Y2296048D02*
X573634Y2295699D01*
X572146Y2294704D01*
X571151Y2293215D01*
X570802Y2291460D01*
X571151Y2289704D01*
X572146Y2288215D01*
X573634Y2287221D01*
X575390Y2286872D01*
X577146Y2287221D01*
X578634Y2288215D01*
X579629Y2289704D01*
X579978Y2291460D01*
X579629Y2293215D01*
X578634Y2294704D01*
X577146Y2295699D01*
X575390Y2296048D01*
D02*
G37*
G36*
X615390D02*
X613634Y2295699D01*
X612146Y2294704D01*
X611151Y2293215D01*
X610802Y2291460D01*
X611151Y2289704D01*
X612146Y2288215D01*
X613634Y2287221D01*
X615390Y2286872D01*
X617146Y2287221D01*
X618634Y2288215D01*
X619629Y2289704D01*
X619978Y2291460D01*
X619629Y2293215D01*
X618634Y2294704D01*
X617146Y2295699D01*
X615390Y2296048D01*
D02*
G37*
G36*
X1415390D02*
X1413634Y2295699D01*
X1412145Y2294704D01*
X1411151Y2293215D01*
X1410802Y2291460D01*
X1411151Y2289704D01*
X1412145Y2288215D01*
X1413634Y2287221D01*
X1415390Y2286872D01*
X1417146Y2287221D01*
X1418634Y2288215D01*
X1419629Y2289704D01*
X1419978Y2291460D01*
X1419629Y2293215D01*
X1418634Y2294704D01*
X1417146Y2295699D01*
X1415390Y2296048D01*
D02*
G37*
G36*
X1164500Y1887608D02*
X1162354Y1887181D01*
X1160535Y1885965D01*
X1159319Y1884146D01*
X1158892Y1882000D01*
X1159319Y1879854D01*
X1160535Y1878035D01*
X1162354Y1876819D01*
X1164500Y1876392D01*
X1166646Y1876819D01*
X1168465Y1878035D01*
X1169681Y1879854D01*
X1170108Y1882000D01*
X1169681Y1884146D01*
X1168465Y1885965D01*
X1166646Y1887181D01*
X1164500Y1887608D01*
D02*
G37*
G36*
X795390Y1936048D02*
X793634Y1935699D01*
X792145Y1934704D01*
X791151Y1933216D01*
X790802Y1931460D01*
X791151Y1929704D01*
X792145Y1928215D01*
X793634Y1927221D01*
X795390Y1926872D01*
X797146Y1927221D01*
X798634Y1928215D01*
X799629Y1929704D01*
X799978Y1931460D01*
X799629Y1933216D01*
X798634Y1934704D01*
X797146Y1935699D01*
X795390Y1936048D01*
D02*
G37*
G36*
X835390D02*
X833634Y1935699D01*
X832145Y1934704D01*
X831151Y1933216D01*
X830802Y1931460D01*
X831151Y1929704D01*
X832145Y1928215D01*
X833634Y1927221D01*
X835390Y1926872D01*
X837146Y1927221D01*
X838634Y1928215D01*
X839629Y1929704D01*
X839978Y1931460D01*
X839629Y1933216D01*
X838634Y1934704D01*
X837146Y1935699D01*
X835390Y1936048D01*
D02*
G37*
G36*
X1046000Y1861083D02*
X1044342Y1860753D01*
X1042936Y1859814D01*
X1041997Y1858408D01*
X1041667Y1856750D01*
X1041823Y1855964D01*
X1041007Y1854843D01*
X1040857Y1854805D01*
X1039342Y1854503D01*
X1037936Y1853564D01*
X1036997Y1852158D01*
X1036667Y1850500D01*
X1036997Y1848842D01*
X1037936Y1847436D01*
X1039342Y1846497D01*
X1041000Y1846167D01*
X1042658Y1846497D01*
X1044064Y1847436D01*
X1045003Y1848842D01*
X1045333Y1850500D01*
X1045177Y1851286D01*
X1045993Y1852408D01*
X1046143Y1852445D01*
X1047658Y1852747D01*
X1048826Y1853527D01*
X1049722Y1853129D01*
X1049996Y1852897D01*
X1049917Y1852500D01*
X1050247Y1850842D01*
X1051186Y1849436D01*
X1052592Y1848497D01*
X1054250Y1848167D01*
X1055908Y1848497D01*
X1057314Y1849436D01*
X1058253Y1850842D01*
X1058583Y1852500D01*
X1058253Y1854158D01*
X1057314Y1855564D01*
X1055908Y1856503D01*
X1054250Y1856833D01*
X1052592Y1856503D01*
X1051424Y1855723D01*
X1050528Y1856121D01*
X1050254Y1856353D01*
X1050333Y1856750D01*
X1050003Y1858408D01*
X1049064Y1859814D01*
X1047658Y1860753D01*
X1046000Y1861083D01*
D02*
G37*
G36*
X962000Y1863858D02*
X959854Y1863431D01*
X958035Y1862215D01*
X956819Y1860396D01*
X956392Y1858250D01*
X956819Y1856104D01*
X958035Y1854285D01*
X959854Y1853069D01*
X962000Y1852642D01*
X964146Y1853069D01*
X965965Y1854285D01*
X967181Y1856104D01*
X967608Y1858250D01*
X967181Y1860396D01*
X965965Y1862215D01*
X964146Y1863431D01*
X962000Y1863858D01*
D02*
G37*
G36*
X971750Y1882858D02*
X969604Y1882431D01*
X967785Y1881215D01*
X966569Y1879396D01*
X966142Y1877250D01*
X966569Y1875104D01*
X967785Y1873285D01*
X969604Y1872069D01*
X971750Y1871642D01*
X973896Y1872069D01*
X975715Y1873285D01*
X976931Y1875104D01*
X977358Y1877250D01*
X976931Y1879396D01*
X975715Y1881215D01*
X973896Y1882431D01*
X971750Y1882858D01*
D02*
G37*
G36*
X875390Y1936048D02*
X873634Y1935699D01*
X872145Y1934704D01*
X871151Y1933216D01*
X870802Y1931460D01*
X871151Y1929704D01*
X872145Y1928215D01*
X873634Y1927221D01*
X875390Y1926872D01*
X877146Y1927221D01*
X878634Y1928215D01*
X879629Y1929704D01*
X879978Y1931460D01*
X879629Y1933216D01*
X878634Y1934704D01*
X877146Y1935699D01*
X875390Y1936048D01*
D02*
G37*
G36*
X1075390D02*
X1073634Y1935699D01*
X1072145Y1934704D01*
X1071151Y1933216D01*
X1070802Y1931460D01*
X1071151Y1929704D01*
X1072145Y1928215D01*
X1073634Y1927221D01*
X1075390Y1926872D01*
X1077146Y1927221D01*
X1078634Y1928215D01*
X1079629Y1929704D01*
X1079978Y1931460D01*
X1079629Y1933216D01*
X1078634Y1934704D01*
X1077146Y1935699D01*
X1075390Y1936048D01*
D02*
G37*
G36*
X1115390D02*
X1113634Y1935699D01*
X1112145Y1934704D01*
X1111151Y1933216D01*
X1110802Y1931460D01*
X1111151Y1929704D01*
X1112145Y1928215D01*
X1113634Y1927221D01*
X1115390Y1926872D01*
X1117146Y1927221D01*
X1118634Y1928215D01*
X1119629Y1929704D01*
X1119978Y1931460D01*
X1119629Y1933216D01*
X1118634Y1934704D01*
X1117146Y1935699D01*
X1115390Y1936048D01*
D02*
G37*
G36*
X998250Y1768833D02*
X996592Y1768503D01*
X995186Y1767564D01*
X994247Y1766158D01*
X993917Y1764500D01*
X994247Y1762842D01*
X995186Y1761436D01*
X996592Y1760497D01*
X998250Y1760167D01*
X999908Y1760497D01*
X1001314Y1761436D01*
X1002253Y1762842D01*
X1002583Y1764500D01*
X1002253Y1766158D01*
X1001314Y1767564D01*
X999908Y1768503D01*
X998250Y1768833D01*
D02*
G37*
G36*
X915390Y1936048D02*
X913634Y1935699D01*
X912145Y1934704D01*
X911151Y1933216D01*
X910802Y1931460D01*
X911151Y1929704D01*
X912145Y1928215D01*
X913634Y1927221D01*
X915390Y1926872D01*
X917146Y1927221D01*
X918634Y1928215D01*
X919629Y1929704D01*
X919978Y1931460D01*
X919629Y1933216D01*
X918634Y1934704D01*
X917146Y1935699D01*
X915390Y1936048D01*
D02*
G37*
G36*
X955390D02*
X953634Y1935699D01*
X952145Y1934704D01*
X951151Y1933216D01*
X950802Y1931460D01*
X951151Y1929704D01*
X952145Y1928215D01*
X953634Y1927221D01*
X955390Y1926872D01*
X957146Y1927221D01*
X958634Y1928215D01*
X959629Y1929704D01*
X959978Y1931460D01*
X959629Y1933216D01*
X958634Y1934704D01*
X957146Y1935699D01*
X955390Y1936048D01*
D02*
G37*
G36*
X1035390D02*
X1033634Y1935699D01*
X1032145Y1934704D01*
X1031151Y1933216D01*
X1030802Y1931460D01*
X1031151Y1929704D01*
X1032145Y1928215D01*
X1033634Y1927221D01*
X1035390Y1926872D01*
X1037146Y1927221D01*
X1038634Y1928215D01*
X1039629Y1929704D01*
X1039978Y1931460D01*
X1039629Y1933216D01*
X1038634Y1934704D01*
X1037146Y1935699D01*
X1035390Y1936048D01*
D02*
G37*
G36*
X815390Y1816048D02*
X813634Y1815699D01*
X812145Y1814704D01*
X811151Y1813216D01*
X810802Y1811460D01*
X811151Y1809704D01*
X812145Y1808215D01*
X813634Y1807221D01*
X815390Y1806872D01*
X817146Y1807221D01*
X818634Y1808215D01*
X819629Y1809704D01*
X819978Y1811460D01*
X819629Y1813216D01*
X818634Y1814704D01*
X817146Y1815699D01*
X815390Y1816048D01*
D02*
G37*
G36*
X1175390D02*
X1173634Y1815699D01*
X1172145Y1814704D01*
X1171151Y1813216D01*
X1170802Y1811460D01*
X1171151Y1809704D01*
X1172145Y1808215D01*
X1173634Y1807221D01*
X1175390Y1806872D01*
X1177146Y1807221D01*
X1178634Y1808215D01*
X1179629Y1809704D01*
X1179978Y1811460D01*
X1179629Y1813216D01*
X1178634Y1814704D01*
X1177146Y1815699D01*
X1175390Y1816048D01*
D02*
G37*
G36*
X1215390D02*
X1213634Y1815699D01*
X1212145Y1814704D01*
X1211151Y1813216D01*
X1210802Y1811460D01*
X1211151Y1809704D01*
X1212145Y1808215D01*
X1213634Y1807221D01*
X1215390Y1806872D01*
X1217145Y1807221D01*
X1218634Y1808215D01*
X1219629Y1809704D01*
X1219978Y1811460D01*
X1219629Y1813216D01*
X1218634Y1814704D01*
X1217145Y1815699D01*
X1215390Y1816048D01*
D02*
G37*
G36*
X816250Y1800858D02*
X812987Y1800428D01*
X809946Y1799169D01*
X807335Y1797165D01*
X805331Y1794554D01*
X804072Y1791513D01*
X803642Y1788250D01*
X804072Y1784987D01*
X805331Y1781946D01*
X807335Y1779335D01*
X809946Y1777331D01*
X812987Y1776072D01*
X816250Y1775642D01*
X819513Y1776072D01*
X822554Y1777331D01*
X825165Y1779335D01*
X827169Y1781946D01*
X828428Y1784987D01*
X828858Y1788250D01*
X828428Y1791513D01*
X827169Y1794554D01*
X825165Y1797165D01*
X822554Y1799169D01*
X819513Y1800428D01*
X816250Y1800858D01*
D02*
G37*
G36*
X1111250Y1795308D02*
X1109104Y1794881D01*
X1107285Y1793665D01*
X1106069Y1791846D01*
X1105642Y1789700D01*
X1106069Y1787554D01*
X1107285Y1785735D01*
X1109104Y1784519D01*
X1111250Y1784092D01*
X1113396Y1784519D01*
X1115215Y1785735D01*
X1116431Y1787554D01*
X1116858Y1789700D01*
X1116431Y1791846D01*
X1115215Y1793665D01*
X1113396Y1794881D01*
X1111250Y1795308D01*
D02*
G37*
G36*
Y1812608D02*
X1109104Y1812181D01*
X1107285Y1810965D01*
X1106069Y1809146D01*
X1105642Y1807000D01*
X1106069Y1804854D01*
X1107285Y1803035D01*
X1109104Y1801819D01*
X1111250Y1801392D01*
X1113396Y1801819D01*
X1115215Y1803035D01*
X1116431Y1804854D01*
X1116858Y1807000D01*
X1116431Y1809146D01*
X1115215Y1810965D01*
X1113396Y1812181D01*
X1111250Y1812608D01*
D02*
G37*
G36*
X1069250Y1829833D02*
X1067592Y1829503D01*
X1066186Y1828564D01*
X1065247Y1827158D01*
X1064917Y1825500D01*
X1065247Y1823842D01*
X1066186Y1822436D01*
X1067592Y1821497D01*
X1069250Y1821167D01*
X1070908Y1821497D01*
X1072314Y1822436D01*
X1073253Y1823842D01*
X1073583Y1825500D01*
X1073253Y1827158D01*
X1072314Y1828564D01*
X1070908Y1829503D01*
X1069250Y1829833D01*
D02*
G37*
G36*
X1063000Y1846333D02*
X1061342Y1846003D01*
X1059936Y1845064D01*
X1058997Y1843658D01*
X1058667Y1842000D01*
X1058997Y1840342D01*
X1059936Y1838936D01*
X1061342Y1837997D01*
X1063000Y1837667D01*
X1064658Y1837997D01*
X1066064Y1838936D01*
X1067003Y1840342D01*
X1067333Y1842000D01*
X1067003Y1843658D01*
X1066064Y1845064D01*
X1064658Y1846003D01*
X1063000Y1846333D01*
D02*
G37*
G36*
X795390Y1856048D02*
X793634Y1855699D01*
X792145Y1854704D01*
X791151Y1853216D01*
X790802Y1851460D01*
X791151Y1849704D01*
X792145Y1848215D01*
X793634Y1847221D01*
X795390Y1846872D01*
X797146Y1847221D01*
X798634Y1848215D01*
X799629Y1849704D01*
X799978Y1851460D01*
X799629Y1853216D01*
X798634Y1854704D01*
X797146Y1855699D01*
X795390Y1856048D01*
D02*
G37*
G36*
X835390D02*
X833634Y1855699D01*
X832145Y1854704D01*
X831151Y1853216D01*
X830802Y1851460D01*
X831151Y1849704D01*
X832145Y1848215D01*
X833634Y1847221D01*
X835390Y1846872D01*
X837146Y1847221D01*
X838634Y1848215D01*
X839629Y1849704D01*
X839978Y1851460D01*
X839629Y1853216D01*
X838634Y1854704D01*
X837146Y1855699D01*
X835390Y1856048D01*
D02*
G37*
G36*
X1052500Y1770833D02*
X1050842Y1770503D01*
X1049436Y1769564D01*
X1048497Y1768158D01*
X1048167Y1766500D01*
X1048276Y1765951D01*
X1047917Y1765559D01*
X1047160Y1765053D01*
X1045750Y1765333D01*
X1044092Y1765003D01*
X1042686Y1764064D01*
X1041747Y1762658D01*
X1041417Y1761000D01*
X1041747Y1759342D01*
X1042686Y1757936D01*
X1044092Y1756997D01*
X1045750Y1756667D01*
X1047408Y1756997D01*
X1048814Y1757936D01*
X1049753Y1759342D01*
X1050083Y1761000D01*
X1049974Y1761549D01*
X1050333Y1761941D01*
X1051090Y1762447D01*
X1052500Y1762167D01*
X1054158Y1762497D01*
X1055564Y1763436D01*
X1056503Y1764842D01*
X1056833Y1766500D01*
X1056503Y1768158D01*
X1055564Y1769564D01*
X1054158Y1770503D01*
X1052500Y1770833D01*
D02*
G37*
G36*
X1035500Y1772083D02*
X1033842Y1771753D01*
X1032436Y1770814D01*
X1031497Y1769408D01*
X1031167Y1767750D01*
X1031497Y1766092D01*
X1032436Y1764686D01*
X1033842Y1763747D01*
X1035500Y1763417D01*
X1037158Y1763747D01*
X1038564Y1764686D01*
X1039503Y1766092D01*
X1039833Y1767750D01*
X1039503Y1769408D01*
X1038564Y1770814D01*
X1037158Y1771753D01*
X1035500Y1772083D01*
D02*
G37*
G36*
X951750Y1847608D02*
X949604Y1847181D01*
X947785Y1845965D01*
X946569Y1844146D01*
X946142Y1842000D01*
X946569Y1839854D01*
X947785Y1838035D01*
X949604Y1836819D01*
X951750Y1836392D01*
X953896Y1836819D01*
X955715Y1838035D01*
X956931Y1839854D01*
X957358Y1842000D01*
X956931Y1844146D01*
X955715Y1845965D01*
X953896Y1847181D01*
X951750Y1847608D01*
D02*
G37*
G36*
X1155390Y1936048D02*
X1153634Y1935699D01*
X1152145Y1934704D01*
X1151151Y1933216D01*
X1150802Y1931460D01*
X1151151Y1929704D01*
X1152145Y1928215D01*
X1153634Y1927221D01*
X1155390Y1926872D01*
X1157146Y1927221D01*
X1158634Y1928215D01*
X1159629Y1929704D01*
X1159978Y1931460D01*
X1159629Y1933216D01*
X1158634Y1934704D01*
X1157146Y1935699D01*
X1155390Y1936048D01*
D02*
G37*
G36*
X795390Y2016048D02*
X793634Y2015699D01*
X792145Y2014704D01*
X791151Y2013216D01*
X790802Y2011460D01*
X791151Y2009704D01*
X792145Y2008215D01*
X793634Y2007221D01*
X795390Y2006872D01*
X797146Y2007221D01*
X798634Y2008215D01*
X799629Y2009704D01*
X799978Y2011460D01*
X799629Y2013216D01*
X798634Y2014704D01*
X797146Y2015699D01*
X795390Y2016048D01*
D02*
G37*
G36*
X835390D02*
X833634Y2015699D01*
X832145Y2014704D01*
X831151Y2013216D01*
X830802Y2011460D01*
X831151Y2009704D01*
X832145Y2008215D01*
X833634Y2007221D01*
X835390Y2006872D01*
X837146Y2007221D01*
X838634Y2008215D01*
X839629Y2009704D01*
X839978Y2011460D01*
X839629Y2013216D01*
X838634Y2014704D01*
X837146Y2015699D01*
X835390Y2016048D01*
D02*
G37*
G36*
X875390D02*
X873634Y2015699D01*
X872145Y2014704D01*
X871151Y2013216D01*
X870802Y2011460D01*
X871151Y2009704D01*
X872145Y2008215D01*
X873634Y2007221D01*
X875390Y2006872D01*
X877146Y2007221D01*
X878634Y2008215D01*
X879629Y2009704D01*
X879978Y2011460D01*
X879629Y2013216D01*
X878634Y2014704D01*
X877146Y2015699D01*
X875390Y2016048D01*
D02*
G37*
G36*
X1215390Y1976048D02*
X1213634Y1975699D01*
X1212145Y1974704D01*
X1211151Y1973216D01*
X1210802Y1971460D01*
X1211151Y1969704D01*
X1212145Y1968215D01*
X1213634Y1967221D01*
X1215390Y1966872D01*
X1217145Y1967221D01*
X1218634Y1968215D01*
X1219629Y1969704D01*
X1219978Y1971460D01*
X1219629Y1973216D01*
X1218634Y1974704D01*
X1217145Y1975699D01*
X1215390Y1976048D01*
D02*
G37*
G36*
X1255390D02*
X1253634Y1975699D01*
X1252145Y1974704D01*
X1251151Y1973216D01*
X1250802Y1971460D01*
X1251151Y1969704D01*
X1252145Y1968215D01*
X1253634Y1967221D01*
X1255390Y1966872D01*
X1257145Y1967221D01*
X1258634Y1968215D01*
X1259629Y1969704D01*
X1259978Y1971460D01*
X1259629Y1973216D01*
X1258634Y1974704D01*
X1257145Y1975699D01*
X1255390Y1976048D01*
D02*
G37*
G36*
X755390Y2016048D02*
X753634Y2015699D01*
X752145Y2014704D01*
X751151Y2013216D01*
X750802Y2011460D01*
X751151Y2009704D01*
X752145Y2008215D01*
X753634Y2007221D01*
X755390Y2006872D01*
X757146Y2007221D01*
X758634Y2008215D01*
X759629Y2009704D01*
X759978Y2011460D01*
X759629Y2013216D01*
X758634Y2014704D01*
X757146Y2015699D01*
X755390Y2016048D01*
D02*
G37*
G36*
X955390D02*
X953634Y2015699D01*
X952145Y2014704D01*
X951151Y2013216D01*
X950802Y2011460D01*
X951151Y2009704D01*
X952145Y2008215D01*
X953634Y2007221D01*
X955390Y2006872D01*
X957146Y2007221D01*
X958634Y2008215D01*
X959629Y2009704D01*
X959978Y2011460D01*
X959629Y2013216D01*
X958634Y2014704D01*
X957146Y2015699D01*
X955390Y2016048D01*
D02*
G37*
G36*
X1115390D02*
X1113634Y2015699D01*
X1112145Y2014704D01*
X1111151Y2013216D01*
X1110802Y2011460D01*
X1111151Y2009704D01*
X1112145Y2008215D01*
X1113634Y2007221D01*
X1115390Y2006872D01*
X1117146Y2007221D01*
X1118634Y2008215D01*
X1119629Y2009704D01*
X1119978Y2011460D01*
X1119629Y2013216D01*
X1118634Y2014704D01*
X1117146Y2015699D01*
X1115390Y2016048D01*
D02*
G37*
G36*
X1155390D02*
X1153634Y2015699D01*
X1152145Y2014704D01*
X1151151Y2013216D01*
X1150802Y2011460D01*
X1151151Y2009704D01*
X1152145Y2008215D01*
X1153634Y2007221D01*
X1155390Y2006872D01*
X1157146Y2007221D01*
X1158634Y2008215D01*
X1159629Y2009704D01*
X1159978Y2011460D01*
X1159629Y2013216D01*
X1158634Y2014704D01*
X1157146Y2015699D01*
X1155390Y2016048D01*
D02*
G37*
G36*
X1195390D02*
X1193634Y2015699D01*
X1192145Y2014704D01*
X1191151Y2013216D01*
X1190802Y2011460D01*
X1191151Y2009704D01*
X1192145Y2008215D01*
X1193634Y2007221D01*
X1195390Y2006872D01*
X1197146Y2007221D01*
X1198634Y2008215D01*
X1199629Y2009704D01*
X1199978Y2011460D01*
X1199629Y2013216D01*
X1198634Y2014704D01*
X1197146Y2015699D01*
X1195390Y2016048D01*
D02*
G37*
G36*
X995390D02*
X993634Y2015699D01*
X992145Y2014704D01*
X991151Y2013216D01*
X990802Y2011460D01*
X991151Y2009704D01*
X992145Y2008215D01*
X993634Y2007221D01*
X995390Y2006872D01*
X997146Y2007221D01*
X998634Y2008215D01*
X999629Y2009704D01*
X999978Y2011460D01*
X999629Y2013216D01*
X998634Y2014704D01*
X997146Y2015699D01*
X995390Y2016048D01*
D02*
G37*
G36*
X1035390D02*
X1033634Y2015699D01*
X1032145Y2014704D01*
X1031151Y2013216D01*
X1030802Y2011460D01*
X1031151Y2009704D01*
X1032145Y2008215D01*
X1033634Y2007221D01*
X1035390Y2006872D01*
X1037146Y2007221D01*
X1038634Y2008215D01*
X1039629Y2009704D01*
X1039978Y2011460D01*
X1039629Y2013216D01*
X1038634Y2014704D01*
X1037146Y2015699D01*
X1035390Y2016048D01*
D02*
G37*
G36*
X1075390D02*
X1073634Y2015699D01*
X1072145Y2014704D01*
X1071151Y2013216D01*
X1070802Y2011460D01*
X1071151Y2009704D01*
X1072145Y2008215D01*
X1073634Y2007221D01*
X1075390Y2006872D01*
X1077146Y2007221D01*
X1078634Y2008215D01*
X1079629Y2009704D01*
X1079978Y2011460D01*
X1079629Y2013216D01*
X1078634Y2014704D01*
X1077146Y2015699D01*
X1075390Y2016048D01*
D02*
G37*
G36*
X815390Y1976048D02*
X813634Y1975699D01*
X812145Y1974704D01*
X811151Y1973216D01*
X810802Y1971460D01*
X811151Y1969704D01*
X812145Y1968215D01*
X813634Y1967221D01*
X815390Y1966872D01*
X817146Y1967221D01*
X818634Y1968215D01*
X819629Y1969704D01*
X819978Y1971460D01*
X819629Y1973216D01*
X818634Y1974704D01*
X817146Y1975699D01*
X815390Y1976048D01*
D02*
G37*
G36*
X855390D02*
X853634Y1975699D01*
X852145Y1974704D01*
X851151Y1973216D01*
X850802Y1971460D01*
X851151Y1969704D01*
X852145Y1968215D01*
X853634Y1967221D01*
X855390Y1966872D01*
X857146Y1967221D01*
X858634Y1968215D01*
X859629Y1969704D01*
X859978Y1971460D01*
X859629Y1973216D01*
X858634Y1974704D01*
X857146Y1975699D01*
X855390Y1976048D01*
D02*
G37*
G36*
X895390D02*
X893634Y1975699D01*
X892145Y1974704D01*
X891151Y1973216D01*
X890802Y1971460D01*
X891151Y1969704D01*
X892145Y1968215D01*
X893634Y1967221D01*
X895390Y1966872D01*
X897146Y1967221D01*
X898634Y1968215D01*
X899629Y1969704D01*
X899978Y1971460D01*
X899629Y1973216D01*
X898634Y1974704D01*
X897146Y1975699D01*
X895390Y1976048D01*
D02*
G37*
G36*
X1195390Y1936048D02*
X1193634Y1935699D01*
X1192145Y1934704D01*
X1191151Y1933216D01*
X1190802Y1931460D01*
X1191151Y1929704D01*
X1192145Y1928215D01*
X1193634Y1927221D01*
X1195390Y1926872D01*
X1197146Y1927221D01*
X1198634Y1928215D01*
X1199629Y1929704D01*
X1199978Y1931460D01*
X1199629Y1933216D01*
X1198634Y1934704D01*
X1197146Y1935699D01*
X1195390Y1936048D01*
D02*
G37*
G36*
X1235390D02*
X1233634Y1935699D01*
X1232145Y1934704D01*
X1231151Y1933216D01*
X1230802Y1931460D01*
X1231151Y1929704D01*
X1232145Y1928215D01*
X1233634Y1927221D01*
X1235390Y1926872D01*
X1237146Y1927221D01*
X1238634Y1928215D01*
X1239629Y1929704D01*
X1239978Y1931460D01*
X1239629Y1933216D01*
X1238634Y1934704D01*
X1237146Y1935699D01*
X1235390Y1936048D01*
D02*
G37*
G36*
X775390Y1976048D02*
X773634Y1975699D01*
X772145Y1974704D01*
X771151Y1973216D01*
X770802Y1971460D01*
X771151Y1969704D01*
X772145Y1968215D01*
X773634Y1967221D01*
X775390Y1966872D01*
X777146Y1967221D01*
X778634Y1968215D01*
X779629Y1969704D01*
X779978Y1971460D01*
X779629Y1973216D01*
X778634Y1974704D01*
X777146Y1975699D01*
X775390Y1976048D01*
D02*
G37*
G36*
X935390D02*
X933634Y1975699D01*
X932145Y1974704D01*
X931151Y1973216D01*
X930802Y1971460D01*
X931151Y1969704D01*
X932145Y1968215D01*
X933634Y1967221D01*
X935390Y1966872D01*
X937146Y1967221D01*
X938634Y1968215D01*
X939629Y1969704D01*
X939978Y1971460D01*
X939629Y1973216D01*
X938634Y1974704D01*
X937146Y1975699D01*
X935390Y1976048D01*
D02*
G37*
G36*
X1095390D02*
X1093634Y1975699D01*
X1092145Y1974704D01*
X1091151Y1973216D01*
X1090802Y1971460D01*
X1091151Y1969704D01*
X1092145Y1968215D01*
X1093634Y1967221D01*
X1095390Y1966872D01*
X1097146Y1967221D01*
X1098634Y1968215D01*
X1099629Y1969704D01*
X1099978Y1971460D01*
X1099629Y1973216D01*
X1098634Y1974704D01*
X1097146Y1975699D01*
X1095390Y1976048D01*
D02*
G37*
G36*
X1135390D02*
X1133634Y1975699D01*
X1132145Y1974704D01*
X1131151Y1973216D01*
X1130802Y1971460D01*
X1131151Y1969704D01*
X1132145Y1968215D01*
X1133634Y1967221D01*
X1135390Y1966872D01*
X1137146Y1967221D01*
X1138634Y1968215D01*
X1139629Y1969704D01*
X1139978Y1971460D01*
X1139629Y1973216D01*
X1138634Y1974704D01*
X1137146Y1975699D01*
X1135390Y1976048D01*
D02*
G37*
G36*
X1175390D02*
X1173634Y1975699D01*
X1172145Y1974704D01*
X1171151Y1973216D01*
X1170802Y1971460D01*
X1171151Y1969704D01*
X1172145Y1968215D01*
X1173634Y1967221D01*
X1175390Y1966872D01*
X1177146Y1967221D01*
X1178634Y1968215D01*
X1179629Y1969704D01*
X1179978Y1971460D01*
X1179629Y1973216D01*
X1178634Y1974704D01*
X1177146Y1975699D01*
X1175390Y1976048D01*
D02*
G37*
G36*
X975390D02*
X973634Y1975699D01*
X972145Y1974704D01*
X971151Y1973216D01*
X970802Y1971460D01*
X971151Y1969704D01*
X972145Y1968215D01*
X973634Y1967221D01*
X975390Y1966872D01*
X977146Y1967221D01*
X978634Y1968215D01*
X979629Y1969704D01*
X979978Y1971460D01*
X979629Y1973216D01*
X978634Y1974704D01*
X977146Y1975699D01*
X975390Y1976048D01*
D02*
G37*
G36*
X1015390D02*
X1013634Y1975699D01*
X1012145Y1974704D01*
X1011151Y1973216D01*
X1010802Y1971460D01*
X1011151Y1969704D01*
X1012145Y1968215D01*
X1013634Y1967221D01*
X1015390Y1966872D01*
X1017146Y1967221D01*
X1018634Y1968215D01*
X1019629Y1969704D01*
X1019978Y1971460D01*
X1019629Y1973216D01*
X1018634Y1974704D01*
X1017146Y1975699D01*
X1015390Y1976048D01*
D02*
G37*
G36*
X1055390D02*
X1053634Y1975699D01*
X1052145Y1974704D01*
X1051151Y1973216D01*
X1050802Y1971460D01*
X1051151Y1969704D01*
X1052145Y1968215D01*
X1053634Y1967221D01*
X1055390Y1966872D01*
X1057146Y1967221D01*
X1058634Y1968215D01*
X1059629Y1969704D01*
X1059978Y1971460D01*
X1059629Y1973216D01*
X1058634Y1974704D01*
X1057146Y1975699D01*
X1055390Y1976048D01*
D02*
G37*
%LPD*%
G36*
X776729Y2192528D02*
X718479Y2154778D01*
X636354Y2281278D01*
X696604Y2319778D01*
X776729Y2192528D01*
D02*
G37*
G36*
X1381625Y1121500D02*
X1321375Y1083000D01*
X1241250Y1210250D01*
X1299500Y1248000D01*
X1381625Y1121500D01*
D02*
G37*
G36*
X779563Y1210000D02*
X699437Y1082750D01*
X639188Y1121250D01*
X721312Y1247750D01*
X779563Y1210000D01*
D02*
G37*
D10*
X605000Y1000000D02*
G03*
X605000Y1000000I-45000J0D01*
G01*
X1505000D02*
G03*
X1505000Y1000000I-45000J0D01*
G01*
Y2400000D02*
G03*
X1505000Y2400000I-45000J0D01*
G01*
X605000D02*
G03*
X605000Y2400000I-45000J0D01*
G01*
Y1000000D02*
G03*
X605000Y1000000I-45000J0D01*
G01*
D45*
X627198Y2443409D02*
G03*
X492801Y2356591I-67198J-43409D01*
G01*
X847800Y2100300D02*
G03*
X903521Y2071281I53619J34952D01*
G01*
X768700Y1893300D02*
G03*
X754598Y1949357I-118419J12D01*
G01*
X1265402D02*
G03*
X1251300Y1893300I104316J-56045D01*
G01*
X1116479Y2071281D02*
G03*
X1172200Y2100300I2102J63971D01*
G01*
X1527199Y2356591D02*
G03*
X1392802Y2443409I-67199J43409D01*
G01*
X754598Y1450644D02*
G03*
X768700Y1506700I-104316J56045D01*
G01*
X903521Y1328719D02*
G03*
X847800Y1299700I-2102J-63971D01*
G01*
X492801Y1043409D02*
G03*
X627198Y956591I67199J-43409D01*
G01*
X1251300Y1506700D02*
G03*
X1265402Y1450644I118419J-12D01*
G01*
X1172200Y1299700D02*
G03*
X1116479Y1328719I-53619J-34952D01*
G01*
X1392802Y956591D02*
G03*
X1527199Y1043409I67198J43409D01*
G01*
X627294Y2443260D02*
X847778Y2100286D01*
X492801Y2356591D02*
X754596Y1949355D01*
X1265404D02*
X1527199Y2356591D01*
X1172222Y2100286D02*
X1392706Y2443260D01*
X492801Y1043409D02*
X754596Y1450645D01*
X627294Y956740D02*
X847778Y1299714D01*
X1265404Y1450645D02*
X1527199Y1043409D01*
X1172222Y1299714D02*
X1392706Y956740D01*
X903521Y1328719D02*
X1116479D01*
X768700Y1506700D02*
Y1893300D01*
X903521Y2071281D02*
X1116479D01*
X1251300Y1506700D02*
Y1893300D01*
D48*
X841650Y1813650D02*
D03*
X790850Y1762850D02*
D03*
X841650D02*
D03*
X790850Y1813650D02*
D03*
D50*
X1196350Y1658810D02*
D03*
X1163400Y1802100D02*
D03*
X1136600Y1686400D02*
D03*
X1131600Y1806900D02*
D03*
X1145700Y1803000D02*
D03*
X998500Y1851400D02*
D03*
X924800Y1691200D02*
D03*
X948300Y1713200D02*
D03*
X1170700Y1624600D02*
D03*
X980750Y1706250D02*
D03*
X1123250Y1839250D02*
D03*
X1063800Y1858200D02*
D03*
X1104750Y1832000D02*
D03*
X976750Y1799000D02*
D03*
X954700Y1803400D02*
D03*
X928100Y1803100D02*
D03*
X900300Y1803300D02*
D03*
X909000Y1820000D02*
D03*
X955500Y1822000D02*
D03*
X979750D02*
D03*
X995500Y1707250D02*
D03*
X981700Y1588300D02*
D03*
X1031400Y1608700D02*
D03*
X975000Y1643300D02*
D03*
X1083400Y1635800D02*
D03*
X1022500Y1626400D02*
D03*
X996000Y1623300D02*
D03*
X1022300Y1644100D02*
D03*
X992400Y1648700D02*
D03*
X1044200Y1645100D02*
D03*
X958100Y1633200D02*
D03*
X924000Y1632300D02*
D03*
X964100Y1627700D02*
D03*
X955400Y1620200D02*
D03*
X1075300Y1765100D02*
D03*
X1153600Y1680600D02*
D03*
X1093400Y1798400D02*
D03*
X1088600Y1779400D02*
D03*
X999400Y1878200D02*
D03*
X1088400Y1694300D02*
D03*
X1078000Y1858700D02*
D03*
X1110600Y1702300D02*
D03*
X1104500Y1678200D02*
D03*
X1058400Y1655000D02*
D03*
X1090500Y1720600D02*
D03*
X1124800Y1702500D02*
D03*
X1059200Y1666900D02*
D03*
X962100Y1652500D02*
D03*
X991000Y1681400D02*
D03*
X972500Y1683200D02*
D03*
X1076300Y1735000D02*
D03*
X1072800Y1789400D02*
D03*
X1040600Y1673900D02*
D03*
X957400Y1688000D02*
D03*
X948600Y1655500D02*
D03*
X1116400Y1658900D02*
D03*
X1171000Y1673700D02*
D03*
X1145400Y1722800D02*
D03*
X1075200Y1719100D02*
D03*
X1079200Y1837200D02*
D03*
X1100600Y1860900D02*
D03*
D51*
X1275389Y1241459D02*
D03*
X1245389D02*
D03*
X1215389Y2141459D02*
D03*
X1230389Y1271459D02*
D03*
X1185389Y1421459D02*
D03*
X1200389Y1391459D02*
D03*
X1185389Y1361459D02*
D03*
X1170389Y1751459D02*
D03*
X780389Y1271459D02*
D03*
X765389Y1241459D02*
D03*
X750389Y2111459D02*
D03*
X755391Y2191462D02*
D03*
X735391Y2231462D02*
D03*
X745391Y2211462D02*
D03*
X715391Y2271462D02*
D03*
X725391Y2251462D02*
D03*
X695391Y2311462D02*
D03*
X705391Y2291462D02*
D03*
X695391Y2271462D02*
D03*
X705391Y2251462D02*
D03*
X685391Y2291462D02*
D03*
X675391Y2231462D02*
D03*
X685391Y2211462D02*
D03*
X1375392Y2271462D02*
D03*
X1335392Y2231462D02*
D03*
X1325392Y2291462D02*
D03*
X1315392Y2271462D02*
D03*
X1325392Y2211462D02*
D03*
X1315392Y2191462D02*
D03*
X1305392Y2251462D02*
D03*
X1295392Y2191462D02*
D03*
X1285392Y2251462D02*
D03*
X1275391Y2231462D02*
D03*
X902890Y1491460D02*
D03*
Y1541460D02*
D03*
Y1741460D02*
D03*
Y1841460D02*
D03*
X915390Y1466460D02*
D03*
X927890Y1491460D02*
D03*
X915390Y1516460D02*
D03*
X927890Y1541460D02*
D03*
X915390Y1566460D02*
D03*
X927890Y1591460D02*
D03*
X915390Y1666460D02*
D03*
X927890Y1741460D02*
D03*
X915390Y1766460D02*
D03*
X927890Y1841460D02*
D03*
X915390Y1866460D02*
D03*
X940390Y1466460D02*
D03*
X952890Y1491460D02*
D03*
Y1541460D02*
D03*
X940390Y1566460D02*
D03*
Y1866460D02*
D03*
X977890Y1541460D02*
D03*
X990390Y1466460D02*
D03*
Y1516460D02*
D03*
X1002890Y1541460D02*
D03*
Y1641460D02*
D03*
X1027890Y1541460D02*
D03*
X1052890D02*
D03*
X1040390Y1616460D02*
D03*
X1065390D02*
D03*
X1115390Y1766460D02*
D03*
X1127890Y1791460D02*
D03*
X1140390Y1516460D02*
D03*
X1152890Y1641460D02*
D03*
X1140390Y1666460D02*
D03*
Y1766460D02*
D03*
Y1816460D02*
D03*
X1012900Y1575100D02*
D03*
D52*
X1161800Y1846600D02*
D03*
X1207000Y1416200D02*
D03*
X1216000D02*
D03*
Y1424950D02*
D03*
X1207000Y1424700D02*
D03*
X1198250D02*
D03*
X777800Y2123600D02*
D03*
X740600Y2143200D02*
D03*
X1277200Y2085600D02*
D03*
X1211000Y2126600D02*
D03*
X1244300Y2178700D02*
D03*
X1284400Y2175500D02*
D03*
X734200Y2175900D02*
D03*
X769200Y2195300D02*
D03*
X646400Y2279000D02*
D03*
X1254600Y2193400D02*
D03*
X743200Y2097000D02*
D03*
X792600Y2147100D02*
D03*
X710600Y2155700D02*
D03*
X739800Y2123900D02*
D03*
X774400Y2177700D02*
D03*
X1048500Y1828000D02*
D03*
Y1808000D02*
D03*
Y1788000D02*
D03*
X1008500D02*
D03*
X1028500D02*
D03*
X1028500Y1808000D02*
D03*
X1148250Y1873500D02*
D03*
X1104250Y1879500D02*
D03*
X1080250Y1880750D02*
D03*
X1310800Y2154500D02*
D03*
X1281900Y2114900D02*
D03*
X1240200Y2142600D02*
D03*
X1292700Y2136600D02*
D03*
X1240700Y2110700D02*
D03*
X1132800Y1416500D02*
D03*
X1144050Y1422250D02*
D03*
X1154300Y1422000D02*
D03*
X1154050Y1411250D02*
D03*
X1143800Y1411500D02*
D03*
X1197650Y1375600D02*
D03*
X1206400D02*
D03*
X1215400Y1375850D02*
D03*
Y1367100D02*
D03*
X1206400D02*
D03*
X1154250Y1376750D02*
D03*
X1164750Y1376250D02*
D03*
X1165000Y1386500D02*
D03*
X1154250Y1386250D02*
D03*
X1144250D02*
D03*
X986250Y1878250D02*
D03*
X1106750Y1913000D02*
D03*
X1084000Y1910500D02*
D03*
X905000Y1584000D02*
D03*
X1335392Y1171461D02*
D03*
X1325392Y1191461D02*
D03*
X1315392Y1131461D02*
D03*
X1325392Y1111461D02*
D03*
X1295392Y1211461D02*
D03*
X1305392Y1151461D02*
D03*
X1295392Y1131461D02*
D03*
X1275391Y1171461D02*
D03*
X1285392Y1151461D02*
D03*
X1255391Y1211461D02*
D03*
X1265391Y1191461D02*
D03*
X1310750Y1215250D02*
D03*
X710000Y1215000D02*
D03*
X765391Y1191461D02*
D03*
X735391Y1211461D02*
D03*
X745391Y1191461D02*
D03*
X735391Y1171461D02*
D03*
X725391Y1151461D02*
D03*
X715391Y1131461D02*
D03*
X705391Y1111461D02*
D03*
X695391Y1091461D02*
D03*
X675391Y1171461D02*
D03*
X685391Y1111461D02*
D03*
X665391Y1151461D02*
D03*
X560000Y2445000D02*
D03*
X515000Y2400000D02*
D03*
X605000D02*
D03*
X560000Y2355000D02*
D03*
X527500Y2430000D02*
D03*
X592500Y2427500D02*
D03*
Y2370000D02*
D03*
X530000Y2367500D02*
D03*
X1460000Y2445000D02*
D03*
X1415000Y2400000D02*
D03*
X1505000D02*
D03*
X1460000Y2355000D02*
D03*
X1427500Y2430000D02*
D03*
X1492500Y2427500D02*
D03*
Y2370000D02*
D03*
X1430000Y2367500D02*
D03*
X1460000Y1045000D02*
D03*
X1415000Y1000000D02*
D03*
X1505000D02*
D03*
X1460000Y955000D02*
D03*
X1427500Y1030000D02*
D03*
X1492500Y1027500D02*
D03*
Y970000D02*
D03*
X1430000Y967500D02*
D03*
X530000D02*
D03*
X592500Y970000D02*
D03*
Y1027500D02*
D03*
X527500Y1030000D02*
D03*
X560000Y955000D02*
D03*
X605000Y1000000D02*
D03*
X515000D02*
D03*
X560000Y1045000D02*
D03*
X1007998Y1489997D02*
D03*
X1023000Y1427000D02*
D03*
X1085250Y1562300D02*
D03*
X1111500Y1596300D02*
D03*
Y1556800D02*
D03*
X938750Y1521750D02*
D03*
X1161500Y1450500D02*
D03*
X928000Y1379500D02*
D03*
X1278750Y1258500D02*
D03*
X1250200Y1296800D02*
D03*
X1279000Y1314000D02*
D03*
X1266000Y1305500D02*
D03*
X1277750Y1283750D02*
D03*
X1260100Y1278800D02*
D03*
X1293250Y1268250D02*
D03*
X1213250Y1269500D02*
D03*
X1230250Y1246250D02*
D03*
X1242750Y1225250D02*
D03*
X1189500Y1515000D02*
D03*
X1165500Y1515000D02*
D03*
X778884Y1224990D02*
D03*
X791384Y1245990D02*
D03*
X808384Y1269240D02*
D03*
X731400Y1258200D02*
D03*
X705900Y1239000D02*
D03*
X766384Y1270240D02*
D03*
X743884Y1283490D02*
D03*
X755634Y1305240D02*
D03*
X742634Y1313740D02*
D03*
X779750Y1287000D02*
D03*
X1110750Y1777250D02*
D03*
X1115750Y1745250D02*
D03*
X1104250Y1763250D02*
D03*
X963500Y1848000D02*
D03*
X973250Y1849000D02*
D03*
X904750Y1772500D02*
D03*
X936750Y1779750D02*
D03*
X947000Y1752750D02*
D03*
X948250Y1738500D02*
D03*
X1111304Y1819089D02*
D03*
X1085500Y1598800D02*
D03*
X1124100Y1519300D02*
D03*
X1122100Y1482900D02*
D03*
X1152600Y1495600D02*
D03*
X1142198Y1622097D02*
D03*
X1074498Y1814696D02*
D03*
X1313100Y1245600D02*
D03*
M02*
