G04 Layer_Physical_Order=2*
G04 Layer_Color=36540*
%FSLAX44Y44*%
%MOMM*%
G71*
G01*
G75*
%ADD10C,3.0000*%
%ADD46C,0.1000*%
%ADD49C,2.3000*%
%ADD51C,0.7000*%
%ADD52C,0.4500*%
%ADD53C,0.5000*%
G36*
X1468677Y2477008D02*
X1477244Y2475552D01*
X1485595Y2473146D01*
X1493624Y2469821D01*
X1501230Y2465617D01*
X1508317Y2460588D01*
X1514797Y2454797D01*
X1520588Y2448317D01*
X1525617Y2441230D01*
X1529821Y2433624D01*
X1533146Y2425595D01*
X1535552Y2417244D01*
X1537008Y2408677D01*
X1537495Y2400000D01*
X1537008Y2391323D01*
X1535552Y2382756D01*
X1533146Y2374405D01*
X1529821Y2366376D01*
X1525757Y2359023D01*
X1525054Y2357977D01*
X1525054Y2357977D01*
X1524372Y2356908D01*
X1263260Y1950733D01*
X1263170Y1950504D01*
X1260025Y1944463D01*
X1255984Y1934707D01*
X1252809Y1924637D01*
X1250524Y1914329D01*
X1249145Y1903860D01*
X1248740Y1894570D01*
X1248685Y1893311D01*
X1248685Y1893300D01*
X1248751Y1892057D01*
Y1507943D01*
X1248685Y1506700D01*
X1248685Y1506689D01*
X1248739Y1505452D01*
X1249145Y1496140D01*
X1250524Y1485671D01*
X1252809Y1475363D01*
X1255984Y1465293D01*
X1260025Y1455537D01*
X1263170Y1449496D01*
X1263260Y1449267D01*
X1400043Y1236493D01*
X1399118Y1235584D01*
X1397536Y1236641D01*
X1395390Y1237068D01*
X1393244Y1236641D01*
X1391424Y1235425D01*
X1390209Y1233606D01*
X1389782Y1231460D01*
X1390209Y1229314D01*
X1391424Y1227495D01*
X1393244Y1226279D01*
X1395390Y1225852D01*
X1397536Y1226279D01*
X1399355Y1227495D01*
X1400571Y1229314D01*
X1400997Y1231460D01*
X1400652Y1233197D01*
X1401850Y1233681D01*
X1524372Y1043092D01*
X1525054Y1042023D01*
Y1042023D01*
X1525054D01*
X1525757Y1040977D01*
X1529821Y1033624D01*
X1533146Y1025595D01*
X1535552Y1017244D01*
X1537008Y1008677D01*
X1537495Y1000000D01*
X1537008Y991323D01*
X1535552Y982756D01*
X1533146Y974405D01*
X1529821Y966376D01*
X1525617Y958770D01*
X1520588Y951683D01*
X1514797Y945203D01*
X1508317Y939412D01*
X1501230Y934383D01*
X1493624Y930179D01*
X1485595Y926854D01*
X1477244Y924448D01*
X1468677Y922992D01*
X1460000Y922505D01*
X1451323Y922992D01*
X1442756Y924448D01*
X1434405Y926854D01*
X1426376Y930179D01*
X1418770Y934383D01*
X1411683Y939412D01*
X1405203Y945203D01*
X1399412Y951683D01*
X1394946Y957976D01*
X1394946Y957976D01*
X1394256Y959042D01*
X1174366Y1301093D01*
X1174260Y1301202D01*
X1170658Y1306279D01*
X1165681Y1311848D01*
X1160111Y1316826D01*
X1154019Y1321148D01*
X1147482Y1324762D01*
X1140581Y1327620D01*
X1133403Y1329688D01*
X1126039Y1330939D01*
X1118580Y1331358D01*
X1116587Y1331246D01*
X1116479Y1331268D01*
X903521D01*
X903412Y1331246D01*
X901420Y1331358D01*
X893961Y1330939D01*
X886597Y1329688D01*
X879419Y1327620D01*
X872518Y1324762D01*
X865981Y1321148D01*
X859889Y1316826D01*
X854319Y1311848D01*
X849341Y1306279D01*
X845740Y1301202D01*
X845634Y1301093D01*
X625744Y959042D01*
X625053Y957976D01*
X625053D01*
X625053Y957976D01*
X620588Y951683D01*
X614797Y945203D01*
X608317Y939412D01*
X601230Y934383D01*
X593624Y930179D01*
X585595Y926854D01*
X577244Y924448D01*
X568677Y922992D01*
X560000Y922505D01*
X551323Y922992D01*
X542756Y924448D01*
X534405Y926854D01*
X526376Y930179D01*
X518770Y934383D01*
X511683Y939412D01*
X505203Y945203D01*
X499412Y951683D01*
X494383Y958770D01*
X490179Y966376D01*
X486854Y974405D01*
X484448Y982756D01*
X482992Y991323D01*
X482505Y1000000D01*
X482992Y1008677D01*
X484448Y1017244D01*
X486854Y1025595D01*
X490179Y1033624D01*
X494243Y1040977D01*
X494946Y1042023D01*
X494946Y1042023D01*
X495628Y1043092D01*
X756740Y1449267D01*
X756830Y1449496D01*
X759975Y1455537D01*
X764016Y1465293D01*
X767191Y1475363D01*
X769476Y1485671D01*
X770855Y1496140D01*
X771260Y1505430D01*
X771315Y1506689D01*
X771315Y1506700D01*
X771249Y1507943D01*
Y1892057D01*
X771315Y1893300D01*
X771315Y1893311D01*
X771261Y1894547D01*
X770855Y1903860D01*
X769476Y1914329D01*
X767191Y1924637D01*
X764016Y1934707D01*
X759975Y1944463D01*
X756830Y1950504D01*
X756740Y1950733D01*
X495628Y2356908D01*
X494946Y2357977D01*
Y2357977D01*
X494946D01*
X494243Y2359023D01*
X490179Y2366376D01*
X486854Y2374405D01*
X484448Y2382756D01*
X482992Y2391323D01*
X482505Y2400000D01*
X482992Y2408677D01*
X484448Y2417244D01*
X486854Y2425595D01*
X490179Y2433624D01*
X494383Y2441230D01*
X499412Y2448317D01*
X505203Y2454797D01*
X511683Y2460588D01*
X518770Y2465617D01*
X526376Y2469821D01*
X534405Y2473146D01*
X542756Y2475552D01*
X551323Y2477008D01*
X560000Y2477495D01*
X568677Y2477008D01*
X577244Y2475552D01*
X585595Y2473146D01*
X593624Y2469821D01*
X601230Y2465617D01*
X608317Y2460588D01*
X614797Y2454797D01*
X620588Y2448317D01*
X625053Y2442024D01*
X625053Y2442024D01*
X625744Y2440958D01*
X680043Y2356493D01*
X679118Y2355583D01*
X677536Y2356641D01*
X675390Y2357067D01*
X673244Y2356641D01*
X671424Y2355425D01*
X670209Y2353606D01*
X669782Y2351460D01*
X670209Y2349314D01*
X671424Y2347494D01*
X673244Y2346279D01*
X675390Y2345852D01*
X677536Y2346279D01*
X679355Y2347494D01*
X680571Y2349314D01*
X680997Y2351460D01*
X680652Y2353197D01*
X681851Y2353681D01*
X845634Y2098907D01*
X845740Y2098798D01*
X849341Y2093721D01*
X854319Y2088152D01*
X859889Y2083174D01*
X865981Y2078852D01*
X872518Y2075238D01*
X879419Y2072380D01*
X886597Y2070312D01*
X893961Y2069061D01*
X901420Y2068642D01*
X903412Y2068754D01*
X903521Y2068732D01*
X1116479D01*
X1116587Y2068754D01*
X1118580Y2068642D01*
X1126039Y2069061D01*
X1133403Y2070312D01*
X1140581Y2072380D01*
X1147482Y2075238D01*
X1154019Y2078852D01*
X1160111Y2083174D01*
X1165681Y2088152D01*
X1170658Y2093721D01*
X1174260Y2098798D01*
X1174366Y2098907D01*
X1394256Y2440958D01*
X1394946Y2442024D01*
X1394946D01*
X1394946Y2442024D01*
X1399412Y2448317D01*
X1405203Y2454797D01*
X1411683Y2460588D01*
X1418770Y2465617D01*
X1426376Y2469821D01*
X1434405Y2473146D01*
X1442756Y2475552D01*
X1451323Y2477008D01*
X1460000Y2477495D01*
X1468677Y2477008D01*
D02*
G37*
%LPC*%
G36*
X1195000Y1593083D02*
X1193342Y1592753D01*
X1191936Y1591814D01*
X1190997Y1590408D01*
X1190667Y1588750D01*
X1190997Y1587092D01*
X1191936Y1585686D01*
X1193342Y1584747D01*
X1195000Y1584417D01*
X1196658Y1584747D01*
X1198064Y1585686D01*
X1199003Y1587092D01*
X1199333Y1588750D01*
X1199003Y1590408D01*
X1198064Y1591814D01*
X1196658Y1592753D01*
X1195000Y1593083D01*
D02*
G37*
G36*
X815390Y1597068D02*
X813244Y1596641D01*
X811424Y1595425D01*
X810209Y1593606D01*
X809782Y1591460D01*
X810209Y1589314D01*
X811424Y1587495D01*
X813244Y1586279D01*
X815390Y1585852D01*
X817536Y1586279D01*
X819355Y1587495D01*
X820571Y1589314D01*
X820997Y1591460D01*
X820571Y1593606D01*
X819355Y1595425D01*
X817536Y1596641D01*
X815390Y1597068D01*
D02*
G37*
G36*
X855390D02*
X853244Y1596641D01*
X851424Y1595425D01*
X850209Y1593606D01*
X849782Y1591460D01*
X850209Y1589314D01*
X851424Y1587495D01*
X853244Y1586279D01*
X855390Y1585852D01*
X857536Y1586279D01*
X859355Y1587495D01*
X860571Y1589314D01*
X860997Y1591460D01*
X860571Y1593606D01*
X859355Y1595425D01*
X857536Y1596641D01*
X855390Y1597068D01*
D02*
G37*
G36*
X969850Y1588058D02*
X967704Y1587631D01*
X965885Y1586415D01*
X964669Y1584596D01*
X964242Y1582450D01*
X964669Y1580304D01*
X965885Y1578485D01*
X967704Y1577269D01*
X969850Y1576842D01*
X971996Y1577269D01*
X972922Y1577888D01*
X973838Y1576972D01*
X973419Y1576346D01*
X972992Y1574200D01*
X973419Y1572054D01*
X974139Y1570976D01*
X973224Y1570060D01*
X971996Y1570881D01*
X969850Y1571308D01*
X967704Y1570881D01*
X965885Y1569665D01*
X964669Y1567846D01*
X964242Y1565700D01*
X964669Y1563554D01*
X965885Y1561735D01*
X967704Y1560519D01*
X969850Y1560092D01*
X971996Y1560519D01*
X973815Y1561735D01*
X975031Y1563554D01*
X975458Y1565700D01*
X975031Y1567846D01*
X974311Y1568924D01*
X975226Y1569839D01*
X976454Y1569019D01*
X978600Y1568592D01*
X980746Y1569019D01*
X982565Y1570235D01*
X983781Y1572054D01*
X984208Y1574200D01*
X983781Y1576346D01*
X982565Y1578165D01*
X980746Y1579381D01*
X978600Y1579808D01*
X976454Y1579381D01*
X975528Y1578762D01*
X974613Y1579678D01*
X975031Y1580304D01*
X975458Y1582450D01*
X975031Y1584596D01*
X973815Y1586415D01*
X971996Y1587631D01*
X969850Y1588058D01*
D02*
G37*
G36*
X875500Y1589608D02*
X873354Y1589181D01*
X871535Y1587965D01*
X870319Y1586146D01*
X869892Y1584000D01*
X870319Y1581854D01*
X871535Y1580035D01*
X873354Y1578819D01*
X875500Y1578392D01*
X877646Y1578819D01*
X879465Y1580035D01*
X880681Y1581854D01*
X881108Y1584000D01*
X880681Y1586146D01*
X879465Y1587965D01*
X877646Y1589181D01*
X875500Y1589608D01*
D02*
G37*
G36*
X1143000Y1591833D02*
X1141342Y1591503D01*
X1139936Y1590564D01*
X1138997Y1589158D01*
X1138667Y1587500D01*
X1138997Y1585842D01*
X1139936Y1584436D01*
X1141342Y1583497D01*
X1143000Y1583167D01*
X1144658Y1583497D01*
X1146064Y1584436D01*
X1147003Y1585842D01*
X1147333Y1587500D01*
X1147003Y1589158D01*
X1146064Y1590564D01*
X1144658Y1591503D01*
X1143000Y1591833D01*
D02*
G37*
G36*
X935300Y1603808D02*
X933154Y1603381D01*
X931335Y1602165D01*
X930119Y1600346D01*
X929692Y1598200D01*
X930119Y1596054D01*
X931335Y1594235D01*
X933154Y1593019D01*
X935300Y1592592D01*
X937446Y1593019D01*
X939265Y1594235D01*
X940481Y1596054D01*
X940908Y1598200D01*
X940481Y1600346D01*
X939265Y1602165D01*
X937446Y1603381D01*
X935300Y1603808D01*
D02*
G37*
G36*
X1183500Y1625693D02*
X1181842Y1625363D01*
X1180436Y1624424D01*
X1179497Y1623018D01*
X1179167Y1621360D01*
X1179497Y1619702D01*
X1180436Y1618296D01*
X1181842Y1617357D01*
X1183500Y1617027D01*
X1185158Y1617357D01*
X1186564Y1618296D01*
X1187503Y1619702D01*
X1187833Y1621360D01*
X1187503Y1623018D01*
X1186564Y1624424D01*
X1185158Y1625363D01*
X1183500Y1625693D01*
D02*
G37*
G36*
X1139300Y1634233D02*
X1137642Y1633903D01*
X1136236Y1632964D01*
X1135297Y1631558D01*
X1134967Y1629900D01*
X1135297Y1628242D01*
X1136236Y1626836D01*
X1137642Y1625897D01*
X1139300Y1625567D01*
X1140958Y1625897D01*
X1142364Y1626836D01*
X1143303Y1628242D01*
X1143438Y1628918D01*
X1144733D01*
X1144997Y1627592D01*
X1145936Y1626186D01*
X1147342Y1625247D01*
X1149000Y1624917D01*
X1150658Y1625247D01*
X1152064Y1626186D01*
X1153003Y1627592D01*
X1153333Y1629250D01*
X1153003Y1630908D01*
X1152064Y1632314D01*
X1150658Y1633253D01*
X1149000Y1633583D01*
X1147342Y1633253D01*
X1145936Y1632314D01*
X1144997Y1630908D01*
X1144862Y1630232D01*
X1143567D01*
X1143303Y1631558D01*
X1142364Y1632964D01*
X1140958Y1633903D01*
X1139300Y1634233D01*
D02*
G37*
G36*
X795390Y1637068D02*
X793244Y1636641D01*
X791424Y1635425D01*
X790209Y1633606D01*
X789782Y1631460D01*
X790209Y1629314D01*
X791424Y1627495D01*
X793244Y1626279D01*
X795390Y1625852D01*
X797536Y1626279D01*
X799355Y1627495D01*
X800571Y1629314D01*
X800997Y1631460D01*
X800571Y1633606D01*
X799355Y1635425D01*
X797536Y1636641D01*
X795390Y1637068D01*
D02*
G37*
G36*
X838000Y1610358D02*
X835854Y1609931D01*
X834035Y1608715D01*
X832819Y1606896D01*
X832392Y1604750D01*
X832819Y1602604D01*
X834035Y1600785D01*
X835854Y1599569D01*
X838000Y1599142D01*
X840146Y1599569D01*
X841965Y1600785D01*
X843181Y1602604D01*
X843608Y1604750D01*
X843181Y1606896D01*
X841965Y1608715D01*
X840146Y1609931D01*
X838000Y1610358D01*
D02*
G37*
G36*
X1187500Y1609333D02*
X1185842Y1609003D01*
X1184436Y1608064D01*
X1183497Y1606658D01*
X1183167Y1605000D01*
X1183497Y1603342D01*
X1184436Y1601936D01*
X1185842Y1600997D01*
X1187500Y1600667D01*
X1189158Y1600997D01*
X1190564Y1601936D01*
X1191503Y1603342D01*
X1191833Y1605000D01*
X1191503Y1606658D01*
X1190564Y1608064D01*
X1189158Y1609003D01*
X1187500Y1609333D01*
D02*
G37*
G36*
X1152100Y1617008D02*
X1149954Y1616581D01*
X1148135Y1615365D01*
X1146919Y1613546D01*
X1146492Y1611400D01*
X1146919Y1609254D01*
X1148135Y1607435D01*
X1149954Y1606219D01*
X1152100Y1605792D01*
X1154246Y1606219D01*
X1156065Y1607435D01*
X1157281Y1609254D01*
X1157708Y1611400D01*
X1157281Y1613546D01*
X1156065Y1615365D01*
X1154246Y1616581D01*
X1152100Y1617008D01*
D02*
G37*
G36*
X1195390Y1477068D02*
X1193244Y1476641D01*
X1191424Y1475425D01*
X1190209Y1473606D01*
X1189782Y1471460D01*
X1190209Y1469314D01*
X1191424Y1467495D01*
X1193244Y1466279D01*
X1195390Y1465852D01*
X1197536Y1466279D01*
X1199355Y1467495D01*
X1200571Y1469314D01*
X1200997Y1471460D01*
X1200571Y1473606D01*
X1199355Y1475425D01*
X1197536Y1476641D01*
X1195390Y1477068D01*
D02*
G37*
G36*
X1235390D02*
X1233244Y1476641D01*
X1231424Y1475425D01*
X1230209Y1473606D01*
X1229782Y1471460D01*
X1230209Y1469314D01*
X1231424Y1467495D01*
X1233244Y1466279D01*
X1235390Y1465852D01*
X1237536Y1466279D01*
X1239355Y1467495D01*
X1240571Y1469314D01*
X1240997Y1471460D01*
X1240571Y1473606D01*
X1239355Y1475425D01*
X1237536Y1476641D01*
X1235390Y1477068D01*
D02*
G37*
G36*
X1100000Y1489608D02*
X1097854Y1489181D01*
X1097043Y1488639D01*
X1096000Y1487987D01*
X1094957Y1488639D01*
X1094146Y1489181D01*
X1092000Y1489608D01*
X1089854Y1489181D01*
X1089043Y1488639D01*
X1088000Y1487987D01*
X1086957Y1488639D01*
X1086146Y1489181D01*
X1084000Y1489608D01*
X1081854Y1489181D01*
X1081043Y1488639D01*
X1080000Y1487987D01*
X1078957Y1488639D01*
X1078146Y1489181D01*
X1076000Y1489608D01*
X1073854Y1489181D01*
X1073043Y1488639D01*
X1072000Y1487987D01*
X1070957Y1488639D01*
X1070146Y1489181D01*
X1068000Y1489608D01*
X1065854Y1489181D01*
X1065043Y1488639D01*
X1064000Y1487987D01*
X1062957Y1488639D01*
X1062146Y1489181D01*
X1060000Y1489608D01*
X1057854Y1489181D01*
X1056870Y1488523D01*
X1055875Y1488042D01*
X1054880Y1488523D01*
X1053896Y1489181D01*
X1051750Y1489608D01*
X1049604Y1489181D01*
X1048793Y1488639D01*
X1047750Y1487987D01*
X1046707Y1488639D01*
X1045896Y1489181D01*
X1043750Y1489608D01*
X1041604Y1489181D01*
X1039785Y1487965D01*
X1038569Y1486146D01*
X1038142Y1484000D01*
X1038569Y1481854D01*
X1039785Y1480035D01*
X1041604Y1478819D01*
X1043750Y1478392D01*
X1045896Y1478819D01*
X1046707Y1479361D01*
X1047750Y1480013D01*
X1048793Y1479361D01*
X1049604Y1478819D01*
X1051750Y1478392D01*
X1053896Y1478819D01*
X1054880Y1479477D01*
X1055875Y1479957D01*
X1056870Y1479477D01*
X1057854Y1478819D01*
X1060000Y1478392D01*
X1062146Y1478819D01*
X1062957Y1479361D01*
X1064000Y1480013D01*
X1065043Y1479361D01*
X1065854Y1478819D01*
X1068000Y1478392D01*
X1070146Y1478819D01*
X1070957Y1479361D01*
X1072000Y1480013D01*
X1073043Y1479361D01*
X1073854Y1478819D01*
X1076000Y1478392D01*
X1078146Y1478819D01*
X1078957Y1479361D01*
X1080000Y1480013D01*
X1081043Y1479361D01*
X1081854Y1478819D01*
X1084000Y1478392D01*
X1086146Y1478819D01*
X1086957Y1479361D01*
X1088000Y1480013D01*
X1089043Y1479361D01*
X1089854Y1478819D01*
X1092000Y1478392D01*
X1094146Y1478819D01*
X1094957Y1479361D01*
X1096000Y1480013D01*
X1097043Y1479361D01*
X1097854Y1478819D01*
X1100000Y1478392D01*
X1102146Y1478819D01*
X1103965Y1480035D01*
X1105181Y1481854D01*
X1105608Y1484000D01*
X1105181Y1486146D01*
X1103965Y1487965D01*
X1102146Y1489181D01*
X1100000Y1489608D01*
D02*
G37*
G36*
X895390Y1437068D02*
X893244Y1436641D01*
X891424Y1435425D01*
X890209Y1433606D01*
X889782Y1431460D01*
X890209Y1429314D01*
X891424Y1427495D01*
X893244Y1426279D01*
X895390Y1425852D01*
X897536Y1426279D01*
X899355Y1427495D01*
X900571Y1429314D01*
X900997Y1431460D01*
X900571Y1433606D01*
X899355Y1435425D01*
X897536Y1436641D01*
X895390Y1437068D01*
D02*
G37*
G36*
X1055390D02*
X1053244Y1436641D01*
X1051424Y1435425D01*
X1050209Y1433606D01*
X1049782Y1431460D01*
X1050209Y1429314D01*
X1051424Y1427495D01*
X1053244Y1426279D01*
X1055390Y1425852D01*
X1057536Y1426279D01*
X1059355Y1427495D01*
X1060571Y1429314D01*
X1060997Y1431460D01*
X1060571Y1433606D01*
X1059355Y1435425D01*
X1057536Y1436641D01*
X1055390Y1437068D01*
D02*
G37*
G36*
X835390Y1477068D02*
X833244Y1476641D01*
X831424Y1475425D01*
X830209Y1473606D01*
X829782Y1471460D01*
X830209Y1469314D01*
X831424Y1467495D01*
X833244Y1466279D01*
X835390Y1465852D01*
X837536Y1466279D01*
X839355Y1467495D01*
X840571Y1469314D01*
X840997Y1471460D01*
X840571Y1473606D01*
X839355Y1475425D01*
X837536Y1476641D01*
X835390Y1477068D01*
D02*
G37*
G36*
X815390Y1517068D02*
X813244Y1516641D01*
X811424Y1515425D01*
X810209Y1513606D01*
X809782Y1511460D01*
X810209Y1509314D01*
X811424Y1507495D01*
X813244Y1506279D01*
X815390Y1505852D01*
X817536Y1506279D01*
X819355Y1507495D01*
X820571Y1509314D01*
X820997Y1511460D01*
X820571Y1513606D01*
X819355Y1515425D01*
X817536Y1516641D01*
X815390Y1517068D01*
D02*
G37*
G36*
X835390Y1557068D02*
X833244Y1556641D01*
X831424Y1555425D01*
X830209Y1553606D01*
X829782Y1551460D01*
X830209Y1549314D01*
X831424Y1547495D01*
X833244Y1546279D01*
X835390Y1545852D01*
X837536Y1546279D01*
X839355Y1547495D01*
X840571Y1549314D01*
X840997Y1551460D01*
X840571Y1553606D01*
X839355Y1555425D01*
X837536Y1556641D01*
X835390Y1557068D01*
D02*
G37*
G36*
X1235390D02*
X1233244Y1556641D01*
X1231424Y1555425D01*
X1230209Y1553606D01*
X1229782Y1551460D01*
X1230209Y1549314D01*
X1231424Y1547495D01*
X1233244Y1546279D01*
X1235390Y1545852D01*
X1237536Y1546279D01*
X1239355Y1547495D01*
X1240571Y1549314D01*
X1240997Y1551460D01*
X1240571Y1553606D01*
X1239355Y1555425D01*
X1237536Y1556641D01*
X1235390Y1557068D01*
D02*
G37*
G36*
X1152000Y1570333D02*
X1150342Y1570003D01*
X1148936Y1569064D01*
X1147997Y1567658D01*
X1147667Y1566000D01*
X1147997Y1564342D01*
X1148936Y1562936D01*
X1150342Y1561997D01*
X1152000Y1561667D01*
X1153658Y1561997D01*
X1155064Y1562936D01*
X1156003Y1564342D01*
X1156333Y1566000D01*
X1156003Y1567658D01*
X1155064Y1569064D01*
X1153658Y1570003D01*
X1152000Y1570333D01*
D02*
G37*
G36*
X855390Y1517068D02*
X853244Y1516641D01*
X851424Y1515425D01*
X850209Y1513606D01*
X849782Y1511460D01*
X850209Y1509314D01*
X851424Y1507495D01*
X853244Y1506279D01*
X855390Y1505852D01*
X857536Y1506279D01*
X859355Y1507495D01*
X860571Y1509314D01*
X860997Y1511460D01*
X860571Y1513606D01*
X859355Y1515425D01*
X857536Y1516641D01*
X855390Y1517068D01*
D02*
G37*
G36*
X1215390D02*
X1213244Y1516641D01*
X1211424Y1515425D01*
X1210209Y1513606D01*
X1209782Y1511460D01*
X1210209Y1509314D01*
X1211424Y1507495D01*
X1213244Y1506279D01*
X1215390Y1505852D01*
X1217536Y1506279D01*
X1219355Y1507495D01*
X1220571Y1509314D01*
X1220997Y1511460D01*
X1220571Y1513606D01*
X1219355Y1515425D01*
X1217536Y1516641D01*
X1215390Y1517068D01*
D02*
G37*
G36*
X795390Y1557068D02*
X793244Y1556641D01*
X791424Y1555425D01*
X790209Y1553606D01*
X789782Y1551460D01*
X790209Y1549314D01*
X791424Y1547495D01*
X793244Y1546279D01*
X795390Y1545852D01*
X797536Y1546279D01*
X799355Y1547495D01*
X800571Y1549314D01*
X800997Y1551460D01*
X800571Y1553606D01*
X799355Y1555425D01*
X797536Y1556641D01*
X795390Y1557068D01*
D02*
G37*
G36*
X981250Y1720083D02*
X979592Y1719753D01*
X978186Y1718814D01*
X977247Y1717408D01*
X976917Y1715750D01*
X977247Y1714092D01*
X978186Y1712686D01*
X979592Y1711747D01*
X981250Y1711417D01*
X982908Y1711747D01*
X984314Y1712686D01*
X985253Y1714092D01*
X985583Y1715750D01*
X985253Y1717408D01*
X984314Y1718814D01*
X982908Y1719753D01*
X981250Y1720083D01*
D02*
G37*
G36*
X1103500Y1720333D02*
X1101842Y1720003D01*
X1100436Y1719064D01*
X1099497Y1717658D01*
X1099167Y1716000D01*
X1099497Y1714342D01*
X1100436Y1712936D01*
X1101842Y1711997D01*
X1103500Y1711667D01*
X1105158Y1711997D01*
X1106564Y1712936D01*
X1107503Y1714342D01*
X1107833Y1716000D01*
X1107503Y1717658D01*
X1106564Y1719064D01*
X1105158Y1720003D01*
X1103500Y1720333D01*
D02*
G37*
G36*
X1047100Y1722733D02*
X1045442Y1722403D01*
X1044036Y1721464D01*
X1043097Y1720058D01*
X1042767Y1718400D01*
X1043097Y1716742D01*
X1044036Y1715336D01*
X1045442Y1714397D01*
X1047100Y1714067D01*
X1048758Y1714397D01*
X1050164Y1715336D01*
X1051103Y1716742D01*
X1051433Y1718400D01*
X1051103Y1720058D01*
X1050164Y1721464D01*
X1048758Y1722403D01*
X1047100Y1722733D01*
D02*
G37*
G36*
X959000Y1724833D02*
X957342Y1724503D01*
X955936Y1723564D01*
X954997Y1722158D01*
X954667Y1720500D01*
X954997Y1718842D01*
X955936Y1717436D01*
X957342Y1716497D01*
X959000Y1716167D01*
X960462Y1716458D01*
X961141Y1716022D01*
X961583Y1715587D01*
X961417Y1714750D01*
X961747Y1713092D01*
X962686Y1711686D01*
X964092Y1710747D01*
X965750Y1710417D01*
X967408Y1710747D01*
X968814Y1711686D01*
X969753Y1713092D01*
X970083Y1714750D01*
X969753Y1716408D01*
X968814Y1717814D01*
X967408Y1718753D01*
X965750Y1719083D01*
X964288Y1718793D01*
X963609Y1719228D01*
X963167Y1719663D01*
X963333Y1720500D01*
X963003Y1722158D01*
X962064Y1723564D01*
X960658Y1724503D01*
X959000Y1724833D01*
D02*
G37*
G36*
X1132000Y1719583D02*
X1130342Y1719253D01*
X1128936Y1718314D01*
X1127997Y1716908D01*
X1127667Y1715250D01*
X1127997Y1713592D01*
X1128936Y1712186D01*
X1130342Y1711247D01*
X1132000Y1710917D01*
X1133658Y1711247D01*
X1135064Y1712186D01*
X1136003Y1713592D01*
X1136333Y1715250D01*
X1136003Y1716908D01*
X1135064Y1718314D01*
X1133658Y1719253D01*
X1132000Y1719583D01*
D02*
G37*
G36*
X1117750Y1719833D02*
X1116092Y1719503D01*
X1114686Y1718564D01*
X1113747Y1717158D01*
X1113417Y1715500D01*
X1113747Y1713842D01*
X1114686Y1712436D01*
X1116092Y1711497D01*
X1117750Y1711167D01*
X1119408Y1711497D01*
X1120814Y1712436D01*
X1121753Y1713842D01*
X1122083Y1715500D01*
X1121753Y1717158D01*
X1120814Y1718564D01*
X1119408Y1719503D01*
X1117750Y1719833D01*
D02*
G37*
G36*
X972250Y1733333D02*
X970592Y1733003D01*
X969186Y1732064D01*
X968247Y1730658D01*
X967917Y1729000D01*
X968247Y1727342D01*
X969186Y1725936D01*
X970592Y1724997D01*
X972250Y1724667D01*
X973908Y1724997D01*
X975314Y1725936D01*
X976253Y1727342D01*
X976583Y1729000D01*
X976253Y1730658D01*
X975314Y1732064D01*
X973908Y1733003D01*
X972250Y1733333D01*
D02*
G37*
G36*
X815390Y1757068D02*
X813244Y1756641D01*
X811424Y1755425D01*
X810209Y1753606D01*
X809782Y1751460D01*
X810209Y1749314D01*
X811424Y1747495D01*
X813244Y1746279D01*
X815390Y1745852D01*
X817536Y1746279D01*
X819355Y1747495D01*
X820571Y1749314D01*
X820997Y1751460D01*
X820571Y1753606D01*
X819355Y1755425D01*
X817536Y1756641D01*
X815390Y1757068D01*
D02*
G37*
G36*
X1215390D02*
X1213244Y1756641D01*
X1211424Y1755425D01*
X1210209Y1753606D01*
X1209782Y1751460D01*
X1210209Y1749314D01*
X1211424Y1747495D01*
X1213244Y1746279D01*
X1215390Y1745852D01*
X1217536Y1746279D01*
X1219355Y1747495D01*
X1220571Y1749314D01*
X1220997Y1751460D01*
X1220571Y1753606D01*
X1219355Y1755425D01*
X1217536Y1756641D01*
X1215390Y1757068D01*
D02*
G37*
G36*
X949250Y1770358D02*
X947104Y1769931D01*
X945285Y1768715D01*
X944069Y1766896D01*
X943642Y1764750D01*
X944069Y1762604D01*
X945285Y1760785D01*
X947104Y1759569D01*
X949250Y1759142D01*
X951396Y1759569D01*
X953215Y1760785D01*
X954431Y1762604D01*
X954858Y1764750D01*
X954431Y1766896D01*
X953215Y1768715D01*
X951396Y1769931D01*
X949250Y1770358D01*
D02*
G37*
G36*
X988500Y1743583D02*
X986842Y1743253D01*
X985436Y1742314D01*
X984497Y1740908D01*
X984167Y1739250D01*
X984497Y1737592D01*
X985340Y1736329D01*
X985428Y1736141D01*
X985194Y1734820D01*
X984436Y1734314D01*
X983497Y1732908D01*
X983167Y1731250D01*
X983497Y1729592D01*
X984436Y1728186D01*
X985842Y1727247D01*
X987500Y1726917D01*
X989158Y1727247D01*
X990564Y1728186D01*
X991503Y1729592D01*
X991833Y1731250D01*
X991503Y1732908D01*
X990660Y1734171D01*
X990572Y1734359D01*
X990806Y1735680D01*
X991564Y1736186D01*
X992503Y1737592D01*
X992833Y1739250D01*
X992503Y1740908D01*
X991564Y1742314D01*
X990158Y1743253D01*
X988500Y1743583D01*
D02*
G37*
G36*
X1004299Y1758669D02*
X1002641Y1758339D01*
X1001235Y1757400D01*
X1000296Y1755994D01*
X999966Y1754336D01*
X1000296Y1752677D01*
X1001235Y1751272D01*
X1002641Y1750332D01*
X1004299Y1750002D01*
X1005338Y1750209D01*
X1006102Y1749066D01*
X1005997Y1748908D01*
X1005667Y1747250D01*
X1005997Y1745592D01*
X1006936Y1744186D01*
X1008342Y1743247D01*
X1010000Y1742917D01*
X1011658Y1743247D01*
X1013064Y1744186D01*
X1014003Y1745592D01*
X1014333Y1747250D01*
X1014003Y1748908D01*
X1013064Y1750314D01*
X1011658Y1751253D01*
X1010000Y1751583D01*
X1008961Y1751376D01*
X1008197Y1752520D01*
X1008302Y1752677D01*
X1008632Y1754336D01*
X1008302Y1755994D01*
X1007363Y1757400D01*
X1005957Y1758339D01*
X1004299Y1758669D01*
D02*
G37*
G36*
X993250Y1754333D02*
X991592Y1754003D01*
X990186Y1753064D01*
X989247Y1751658D01*
X988917Y1750000D01*
X989247Y1748342D01*
X990186Y1746936D01*
X991592Y1745997D01*
X993250Y1745667D01*
X994908Y1745997D01*
X996314Y1746936D01*
X997253Y1748342D01*
X997583Y1750000D01*
X997253Y1751658D01*
X996314Y1753064D01*
X994908Y1754003D01*
X993250Y1754333D01*
D02*
G37*
G36*
X815390Y1677068D02*
X813244Y1676641D01*
X811424Y1675425D01*
X810209Y1673606D01*
X809782Y1671460D01*
X810209Y1669314D01*
X811424Y1667495D01*
X813244Y1666279D01*
X815390Y1665852D01*
X817536Y1666279D01*
X819355Y1667495D01*
X820571Y1669314D01*
X820997Y1671460D01*
X820571Y1673606D01*
X819355Y1675425D01*
X817536Y1676641D01*
X815390Y1677068D01*
D02*
G37*
G36*
X855390D02*
X853244Y1676641D01*
X851424Y1675425D01*
X850209Y1673606D01*
X849782Y1671460D01*
X850209Y1669314D01*
X851424Y1667495D01*
X853244Y1666279D01*
X855390Y1665852D01*
X857536Y1666279D01*
X859355Y1667495D01*
X860571Y1669314D01*
X860997Y1671460D01*
X860571Y1673606D01*
X859355Y1675425D01*
X857536Y1676641D01*
X855390Y1677068D01*
D02*
G37*
G36*
X1215390D02*
X1213244Y1676641D01*
X1211424Y1675425D01*
X1210209Y1673606D01*
X1209782Y1671460D01*
X1210209Y1669314D01*
X1211424Y1667495D01*
X1213244Y1666279D01*
X1215390Y1665852D01*
X1217536Y1666279D01*
X1219355Y1667495D01*
X1220571Y1669314D01*
X1220997Y1671460D01*
X1220571Y1673606D01*
X1219355Y1675425D01*
X1217536Y1676641D01*
X1215390Y1677068D01*
D02*
G37*
G36*
X835390Y1637068D02*
X833244Y1636641D01*
X831424Y1635425D01*
X830209Y1633606D01*
X829782Y1631460D01*
X830209Y1629314D01*
X831424Y1627495D01*
X833244Y1626279D01*
X835390Y1625852D01*
X837536Y1626279D01*
X839355Y1627495D01*
X840571Y1629314D01*
X840997Y1631460D01*
X840571Y1633606D01*
X839355Y1635425D01*
X837536Y1636641D01*
X835390Y1637068D01*
D02*
G37*
G36*
X1235390D02*
X1233244Y1636641D01*
X1231424Y1635425D01*
X1230209Y1633606D01*
X1229782Y1631460D01*
X1230209Y1629314D01*
X1231424Y1627495D01*
X1233244Y1626279D01*
X1235390Y1625852D01*
X1237536Y1626279D01*
X1239355Y1627495D01*
X1240571Y1629314D01*
X1240997Y1631460D01*
X1240571Y1633606D01*
X1239355Y1635425D01*
X1237536Y1636641D01*
X1235390Y1637068D01*
D02*
G37*
G36*
X994000Y1672833D02*
X992342Y1672503D01*
X990936Y1671564D01*
X989997Y1670158D01*
X989667Y1668500D01*
X989997Y1666842D01*
X990936Y1665436D01*
X992342Y1664497D01*
X994000Y1664167D01*
X995658Y1664497D01*
X997064Y1665436D01*
X998003Y1666842D01*
X998333Y1668500D01*
X998003Y1670158D01*
X997064Y1671564D01*
X995658Y1672503D01*
X994000Y1672833D01*
D02*
G37*
G36*
X1113500Y1689633D02*
X1111842Y1689303D01*
X1110436Y1688364D01*
X1109497Y1686958D01*
X1109167Y1685300D01*
X1109497Y1683642D01*
X1110436Y1682236D01*
X1111842Y1681297D01*
X1113500Y1680967D01*
X1115158Y1681297D01*
X1116564Y1682236D01*
X1117503Y1683642D01*
X1117833Y1685300D01*
X1117503Y1686958D01*
X1116564Y1688364D01*
X1115158Y1689303D01*
X1113500Y1689633D01*
D02*
G37*
G36*
X795390Y1717068D02*
X793244Y1716641D01*
X791424Y1715425D01*
X790209Y1713606D01*
X789782Y1711460D01*
X790209Y1709314D01*
X791424Y1707495D01*
X793244Y1706279D01*
X795390Y1705852D01*
X797536Y1706279D01*
X799355Y1707495D01*
X800571Y1709314D01*
X800997Y1711460D01*
X800571Y1713606D01*
X799355Y1715425D01*
X797536Y1716641D01*
X795390Y1717068D01*
D02*
G37*
G36*
X835390D02*
X833244Y1716641D01*
X831424Y1715425D01*
X830209Y1713606D01*
X829782Y1711460D01*
X830209Y1709314D01*
X831424Y1707495D01*
X833244Y1706279D01*
X835390Y1705852D01*
X837536Y1706279D01*
X839355Y1707495D01*
X840571Y1709314D01*
X840997Y1711460D01*
X840571Y1713606D01*
X839355Y1715425D01*
X837536Y1716641D01*
X835390Y1717068D01*
D02*
G37*
G36*
X1235390D02*
X1233244Y1716641D01*
X1231424Y1715425D01*
X1230209Y1713606D01*
X1229782Y1711460D01*
X1230209Y1709314D01*
X1231424Y1707495D01*
X1233244Y1706279D01*
X1235390Y1705852D01*
X1237536Y1706279D01*
X1239355Y1707495D01*
X1240571Y1709314D01*
X1240997Y1711460D01*
X1240571Y1713606D01*
X1239355Y1715425D01*
X1237536Y1716641D01*
X1235390Y1717068D01*
D02*
G37*
G36*
X1073900Y1692833D02*
X1072242Y1692503D01*
X1070836Y1691564D01*
X1069897Y1690158D01*
X1069567Y1688500D01*
X1069897Y1686842D01*
X1070836Y1685436D01*
X1072242Y1684497D01*
X1073900Y1684167D01*
X1075558Y1684497D01*
X1076964Y1685436D01*
X1077903Y1686842D01*
X1078233Y1688500D01*
X1077903Y1690158D01*
X1076964Y1691564D01*
X1075558Y1692503D01*
X1073900Y1692833D01*
D02*
G37*
G36*
X1034051Y1690665D02*
X1032392Y1690336D01*
X1030986Y1689396D01*
X1030047Y1687991D01*
X1029717Y1686332D01*
X1029727Y1686285D01*
X1028647Y1685205D01*
X1028000Y1685333D01*
X1026342Y1685003D01*
X1024936Y1684064D01*
X1023997Y1682658D01*
X1023667Y1681000D01*
X1023997Y1679342D01*
X1024936Y1677936D01*
X1026342Y1676997D01*
X1028000Y1676667D01*
X1029658Y1676997D01*
X1031064Y1677936D01*
X1032003Y1679342D01*
X1032333Y1681000D01*
X1032324Y1681048D01*
X1033404Y1682128D01*
X1034051Y1681999D01*
X1035709Y1682329D01*
X1037114Y1683268D01*
X1038054Y1684674D01*
X1038384Y1686332D01*
X1038054Y1687991D01*
X1037114Y1689396D01*
X1035709Y1690336D01*
X1034051Y1690665D01*
D02*
G37*
G36*
X1004500Y1704083D02*
X1002842Y1703753D01*
X1001436Y1702814D01*
X1000497Y1701408D01*
X1000167Y1699750D01*
X1000497Y1698092D01*
X1001436Y1696686D01*
X1002842Y1695747D01*
X1004500Y1695417D01*
X1006158Y1695747D01*
X1007564Y1696686D01*
X1008503Y1698092D01*
X1008833Y1699750D01*
X1008503Y1701408D01*
X1007564Y1702814D01*
X1006158Y1703753D01*
X1004500Y1704083D01*
D02*
G37*
G36*
X855390Y1437068D02*
X853244Y1436641D01*
X851424Y1435425D01*
X850209Y1433606D01*
X849782Y1431460D01*
X850209Y1429314D01*
X851424Y1427495D01*
X853244Y1426279D01*
X855390Y1425852D01*
X857536Y1426279D01*
X859355Y1427495D01*
X860571Y1429314D01*
X860997Y1431460D01*
X860571Y1433606D01*
X859355Y1435425D01*
X857536Y1436641D01*
X855390Y1437068D01*
D02*
G37*
G36*
X1415390Y1117068D02*
X1413244Y1116641D01*
X1411425Y1115425D01*
X1410209Y1113606D01*
X1409782Y1111460D01*
X1410209Y1109314D01*
X1411425Y1107495D01*
X1413244Y1106279D01*
X1415390Y1105852D01*
X1417536Y1106279D01*
X1419355Y1107495D01*
X1420571Y1109314D01*
X1420997Y1111460D01*
X1420571Y1113606D01*
X1419355Y1115425D01*
X1417536Y1116641D01*
X1415390Y1117068D01*
D02*
G37*
G36*
X1455390D02*
X1453244Y1116641D01*
X1451425Y1115425D01*
X1450209Y1113606D01*
X1449782Y1111460D01*
X1450209Y1109314D01*
X1451425Y1107495D01*
X1453244Y1106279D01*
X1455390Y1105852D01*
X1457536Y1106279D01*
X1459355Y1107495D01*
X1460571Y1109314D01*
X1460997Y1111460D01*
X1460571Y1113606D01*
X1459355Y1115425D01*
X1457536Y1116641D01*
X1455390Y1117068D01*
D02*
G37*
G36*
X595390Y1157068D02*
X593244Y1156641D01*
X591424Y1155425D01*
X590209Y1153606D01*
X589782Y1151460D01*
X590209Y1149314D01*
X591424Y1147495D01*
X593244Y1146279D01*
X595390Y1145852D01*
X597536Y1146279D01*
X599355Y1147495D01*
X600571Y1149314D01*
X600998Y1151460D01*
X600571Y1153606D01*
X599355Y1155425D01*
X597536Y1156641D01*
X595390Y1157068D01*
D02*
G37*
G36*
X721682Y1249755D02*
X721290Y1249750D01*
X720888Y1249745D01*
X720887Y1249744D01*
X720887D01*
X720523Y1249588D01*
X720157Y1249430D01*
X720157Y1249430D01*
X720156Y1249429D01*
X719876Y1249141D01*
X719602Y1248860D01*
X672313Y1176019D01*
X671426Y1175426D01*
X670210Y1173607D01*
X669973Y1172415D01*
X637477Y1122360D01*
X637474Y1122353D01*
X637469Y1122348D01*
X637326Y1121982D01*
X637182Y1121621D01*
X637183Y1121614D01*
X637180Y1121607D01*
X637188Y1121214D01*
X637193Y1120826D01*
X637196Y1120819D01*
X637196Y1120811D01*
X637354Y1120452D01*
X637507Y1120095D01*
X637512Y1120090D01*
X637515Y1120083D01*
X637797Y1119812D01*
X638077Y1119540D01*
X638084Y1119537D01*
X638089Y1119532D01*
X698339Y1081032D01*
X698346Y1081029D01*
X698351Y1081024D01*
X698716Y1080885D01*
X699081Y1080742D01*
X699088Y1080742D01*
X699094Y1080740D01*
X699487Y1080751D01*
X699876Y1080759D01*
X699882Y1080761D01*
X699889Y1080761D01*
X700248Y1080921D01*
X700605Y1081078D01*
X700610Y1081083D01*
X700616Y1081086D01*
X700885Y1081370D01*
X701156Y1081652D01*
X701158Y1081658D01*
X701163Y1081663D01*
X766965Y1186166D01*
X767537Y1186280D01*
X769357Y1187496D01*
X770572Y1189315D01*
X770999Y1191461D01*
X770831Y1192306D01*
X781288Y1208913D01*
X781426Y1209273D01*
X781568Y1209630D01*
X781568Y1209644D01*
X781572Y1209657D01*
X781562Y1210042D01*
X781557Y1210426D01*
X781551Y1210438D01*
X781551Y1210452D01*
X781394Y1210804D01*
X781242Y1211157D01*
X781232Y1211166D01*
X781227Y1211178D01*
X780947Y1211443D01*
X780671Y1211711D01*
X722421Y1249461D01*
X722047Y1249610D01*
X721684Y1249755D01*
X721683D01*
X721682Y1249755D01*
D02*
G37*
G36*
X575390Y1117068D02*
X573244Y1116641D01*
X571424Y1115425D01*
X570209Y1113606D01*
X569782Y1111460D01*
X570209Y1109314D01*
X571424Y1107495D01*
X573244Y1106279D01*
X575390Y1105852D01*
X577536Y1106279D01*
X579355Y1107495D01*
X580571Y1109314D01*
X580998Y1111460D01*
X580571Y1113606D01*
X579355Y1115425D01*
X577536Y1116641D01*
X575390Y1117068D01*
D02*
G37*
G36*
X615390D02*
X613244Y1116641D01*
X611424Y1115425D01*
X610209Y1113606D01*
X609782Y1111460D01*
X610209Y1109314D01*
X611424Y1107495D01*
X613244Y1106279D01*
X615390Y1105852D01*
X617536Y1106279D01*
X619355Y1107495D01*
X620571Y1109314D01*
X620998Y1111460D01*
X620571Y1113606D01*
X619355Y1115425D01*
X617536Y1116641D01*
X615390Y1117068D01*
D02*
G37*
G36*
X1435390Y1157068D02*
X1433244Y1156641D01*
X1431424Y1155425D01*
X1430209Y1153606D01*
X1429782Y1151460D01*
X1430209Y1149314D01*
X1431424Y1147495D01*
X1433244Y1146279D01*
X1435390Y1145852D01*
X1437536Y1146279D01*
X1439355Y1147495D01*
X1440571Y1149314D01*
X1440997Y1151460D01*
X1440571Y1153606D01*
X1439355Y1155425D01*
X1437536Y1156641D01*
X1435390Y1157068D01*
D02*
G37*
G36*
X1299130Y1250005D02*
X1299129Y1250005D01*
X1299129D01*
X1298752Y1249855D01*
X1298391Y1249711D01*
X1240141Y1211961D01*
X1239866Y1211693D01*
X1239586Y1211428D01*
X1239580Y1211416D01*
X1239570Y1211407D01*
X1239419Y1211054D01*
X1239261Y1210702D01*
X1239261Y1210688D01*
X1239256Y1210676D01*
X1239250Y1210291D01*
X1239240Y1209906D01*
X1239245Y1209894D01*
X1239245Y1209880D01*
X1239387Y1209522D01*
X1239524Y1209163D01*
X1319649Y1081913D01*
X1319654Y1081908D01*
X1319657Y1081902D01*
X1319928Y1081619D01*
X1320197Y1081336D01*
X1320203Y1081333D01*
X1320208Y1081328D01*
X1320566Y1081171D01*
X1320923Y1081012D01*
X1320930Y1081011D01*
X1320936Y1081009D01*
X1321326Y1081001D01*
X1321718Y1080990D01*
X1321725Y1080992D01*
X1321732Y1080992D01*
X1322096Y1081134D01*
X1322462Y1081274D01*
X1322466Y1081279D01*
X1322473Y1081282D01*
X1382723Y1119782D01*
X1382728Y1119787D01*
X1382735Y1119790D01*
X1383015Y1120062D01*
X1383297Y1120333D01*
X1383300Y1120340D01*
X1383305Y1120345D01*
X1383460Y1120705D01*
X1383616Y1121061D01*
X1383617Y1121069D01*
X1383620Y1121076D01*
X1383625Y1121468D01*
X1383633Y1121857D01*
X1383630Y1121864D01*
X1383630Y1121871D01*
X1383485Y1122234D01*
X1383343Y1122598D01*
X1383338Y1122603D01*
X1383335Y1122610D01*
X1301210Y1249110D01*
X1300929Y1249399D01*
X1300657Y1249679D01*
X1300656Y1249680D01*
X1300655Y1249680D01*
X1300276Y1249843D01*
X1299926Y1249994D01*
X1299925D01*
X1299924Y1249995D01*
X1299507Y1250000D01*
X1299130Y1250005D01*
D02*
G37*
G36*
X1249500Y1265508D02*
X1247354Y1265081D01*
X1245535Y1263865D01*
X1244319Y1262046D01*
X1243892Y1259900D01*
X1244319Y1257754D01*
X1245535Y1255935D01*
X1247354Y1254719D01*
X1249500Y1254292D01*
X1251646Y1254719D01*
X1253465Y1255935D01*
X1254681Y1257754D01*
X1255108Y1259900D01*
X1254681Y1262046D01*
X1253465Y1263865D01*
X1251646Y1265081D01*
X1249500Y1265508D01*
D02*
G37*
G36*
X751400Y1275208D02*
X749254Y1274781D01*
X747435Y1273565D01*
X746219Y1271746D01*
X745792Y1269600D01*
X746219Y1267454D01*
X747435Y1265635D01*
X749254Y1264419D01*
X751400Y1263992D01*
X753546Y1264419D01*
X755365Y1265635D01*
X756581Y1267454D01*
X757008Y1269600D01*
X756581Y1271746D01*
X755365Y1273565D01*
X753546Y1274781D01*
X751400Y1275208D01*
D02*
G37*
G36*
X615390Y1197068D02*
X613244Y1196641D01*
X611424Y1195425D01*
X610209Y1193606D01*
X609782Y1191460D01*
X610209Y1189314D01*
X611424Y1187495D01*
X613244Y1186279D01*
X615390Y1185852D01*
X617536Y1186279D01*
X619355Y1187495D01*
X620571Y1189314D01*
X620998Y1191460D01*
X620571Y1193606D01*
X619355Y1195425D01*
X617536Y1196641D01*
X615390Y1197068D01*
D02*
G37*
G36*
X1415390D02*
X1413244Y1196641D01*
X1411425Y1195425D01*
X1410209Y1193606D01*
X1409782Y1191460D01*
X1410209Y1189314D01*
X1411425Y1187495D01*
X1413244Y1186279D01*
X1415390Y1185852D01*
X1417536Y1186279D01*
X1419355Y1187495D01*
X1420571Y1189314D01*
X1420997Y1191460D01*
X1420571Y1193606D01*
X1419355Y1195425D01*
X1417536Y1196641D01*
X1415390Y1197068D01*
D02*
G37*
G36*
X635390Y1237068D02*
X633244Y1236641D01*
X631424Y1235425D01*
X630209Y1233606D01*
X629782Y1231460D01*
X630209Y1229314D01*
X631424Y1227495D01*
X633244Y1226279D01*
X635390Y1225852D01*
X637536Y1226279D01*
X639355Y1227495D01*
X640571Y1229314D01*
X640997Y1231460D01*
X640571Y1233606D01*
X639355Y1235425D01*
X637536Y1236641D01*
X635390Y1237068D01*
D02*
G37*
G36*
X655390Y1037068D02*
X653244Y1036641D01*
X651424Y1035425D01*
X650209Y1033606D01*
X649782Y1031460D01*
X650209Y1029314D01*
X651424Y1027495D01*
X653244Y1026279D01*
X655390Y1025852D01*
X657536Y1026279D01*
X659355Y1027495D01*
X660571Y1029314D01*
X660997Y1031460D01*
X660571Y1033606D01*
X659355Y1035425D01*
X657536Y1036641D01*
X655390Y1037068D01*
D02*
G37*
G36*
X1375390D02*
X1373244Y1036641D01*
X1371425Y1035425D01*
X1370209Y1033606D01*
X1369782Y1031460D01*
X1370209Y1029314D01*
X1371425Y1027495D01*
X1373244Y1026279D01*
X1375390Y1025852D01*
X1377536Y1026279D01*
X1379355Y1027495D01*
X1380571Y1029314D01*
X1380997Y1031460D01*
X1380571Y1033606D01*
X1379355Y1035425D01*
X1377536Y1036641D01*
X1375390Y1037068D01*
D02*
G37*
G36*
X555390Y1077068D02*
X553244Y1076641D01*
X551424Y1075425D01*
X550209Y1073606D01*
X549782Y1071460D01*
X550209Y1069314D01*
X551424Y1067495D01*
X553244Y1066279D01*
X555390Y1065852D01*
X557536Y1066279D01*
X559355Y1067495D01*
X560571Y1069314D01*
X560998Y1071460D01*
X560571Y1073606D01*
X559355Y1075425D01*
X557536Y1076641D01*
X555390Y1077068D01*
D02*
G37*
G36*
X560000Y1062098D02*
X553047Y1061707D01*
X546182Y1060541D01*
X539490Y1058613D01*
X533057Y1055948D01*
X526962Y1052580D01*
X521283Y1048550D01*
X516090Y1043910D01*
X511450Y1038717D01*
X507420Y1033038D01*
X504052Y1026943D01*
X501387Y1020510D01*
X499459Y1013818D01*
X498293Y1006953D01*
X497902Y1000000D01*
X498293Y993047D01*
X499459Y986182D01*
X501387Y979490D01*
X504052Y973057D01*
X507420Y966962D01*
X511450Y961283D01*
X516090Y956090D01*
X521283Y951450D01*
X526962Y947420D01*
X533057Y944052D01*
X539490Y941387D01*
X546182Y939459D01*
X553047Y938293D01*
X560000Y937902D01*
X566953Y938293D01*
X573818Y939459D01*
X580510Y941387D01*
X586943Y944052D01*
X593038Y947420D01*
X598717Y951450D01*
X603910Y956090D01*
X608550Y961283D01*
X612580Y966962D01*
X615948Y973057D01*
X618613Y979490D01*
X620541Y986182D01*
X621707Y993047D01*
X622098Y1000000D01*
X621707Y1006953D01*
X620541Y1013818D01*
X618613Y1020510D01*
X615948Y1026943D01*
X612580Y1033038D01*
X608550Y1038717D01*
X603910Y1043910D01*
X598717Y1048550D01*
X593038Y1052580D01*
X586943Y1055948D01*
X580510Y1058613D01*
X573818Y1060541D01*
X566953Y1061707D01*
X560000Y1062098D01*
D02*
G37*
G36*
X1460000D02*
X1453047Y1061707D01*
X1446182Y1060541D01*
X1439490Y1058613D01*
X1433057Y1055948D01*
X1426962Y1052580D01*
X1421283Y1048550D01*
X1416090Y1043910D01*
X1411450Y1038717D01*
X1407420Y1033038D01*
X1404052Y1026943D01*
X1401387Y1020510D01*
X1399459Y1013818D01*
X1398293Y1006953D01*
X1397902Y1000000D01*
X1398293Y993047D01*
X1399459Y986182D01*
X1401387Y979490D01*
X1404052Y973057D01*
X1407420Y966962D01*
X1411450Y961283D01*
X1416090Y956090D01*
X1421283Y951450D01*
X1426962Y947420D01*
X1433057Y944052D01*
X1439490Y941387D01*
X1446182Y939459D01*
X1453047Y938293D01*
X1460000Y937902D01*
X1466953Y938293D01*
X1473818Y939459D01*
X1480510Y941387D01*
X1486943Y944052D01*
X1493038Y947420D01*
X1498717Y951450D01*
X1503910Y956090D01*
X1508550Y961283D01*
X1512580Y966962D01*
X1515948Y973057D01*
X1518613Y979490D01*
X1520541Y986182D01*
X1521707Y993047D01*
X1522098Y1000000D01*
X1521707Y1006953D01*
X1520541Y1013818D01*
X1518613Y1020510D01*
X1515948Y1026943D01*
X1512580Y1033038D01*
X1508550Y1038717D01*
X1503910Y1043910D01*
X1498717Y1048550D01*
X1493038Y1052580D01*
X1486943Y1055948D01*
X1480510Y1058613D01*
X1473818Y1060541D01*
X1466953Y1061707D01*
X1460000Y1062098D01*
D02*
G37*
G36*
X635390Y997068D02*
X633244Y996641D01*
X631424Y995425D01*
X630209Y993606D01*
X629782Y991460D01*
X630209Y989314D01*
X631424Y987495D01*
X633244Y986279D01*
X635390Y985852D01*
X637536Y986279D01*
X639355Y987495D01*
X640571Y989314D01*
X640997Y991460D01*
X640571Y993606D01*
X639355Y995425D01*
X637536Y996641D01*
X635390Y997068D01*
D02*
G37*
G36*
X595390Y1077068D02*
X593244Y1076641D01*
X591424Y1075425D01*
X590209Y1073606D01*
X589782Y1071460D01*
X590209Y1069314D01*
X591424Y1067495D01*
X593244Y1066279D01*
X595390Y1065852D01*
X597536Y1066279D01*
X599355Y1067495D01*
X600571Y1069314D01*
X600998Y1071460D01*
X600571Y1073606D01*
X599355Y1075425D01*
X597536Y1076641D01*
X595390Y1077068D01*
D02*
G37*
G36*
X1395390D02*
X1393244Y1076641D01*
X1391424Y1075425D01*
X1390209Y1073606D01*
X1389782Y1071460D01*
X1390209Y1069314D01*
X1391424Y1067495D01*
X1393244Y1066279D01*
X1395390Y1065852D01*
X1397536Y1066279D01*
X1399355Y1067495D01*
X1400571Y1069314D01*
X1400997Y1071460D01*
X1400571Y1073606D01*
X1399355Y1075425D01*
X1397536Y1076641D01*
X1395390Y1077068D01*
D02*
G37*
G36*
X1435390D02*
X1433244Y1076641D01*
X1431424Y1075425D01*
X1430209Y1073606D01*
X1429782Y1071460D01*
X1430209Y1069314D01*
X1431424Y1067495D01*
X1433244Y1066279D01*
X1435390Y1065852D01*
X1437536Y1066279D01*
X1439355Y1067495D01*
X1440571Y1069314D01*
X1440997Y1071460D01*
X1440571Y1073606D01*
X1439355Y1075425D01*
X1437536Y1076641D01*
X1435390Y1077068D01*
D02*
G37*
G36*
X1475390D02*
X1473244Y1076641D01*
X1471424Y1075425D01*
X1470209Y1073606D01*
X1469782Y1071460D01*
X1470209Y1069314D01*
X1471424Y1067495D01*
X1473244Y1066279D01*
X1475390Y1065852D01*
X1477536Y1066279D01*
X1479355Y1067495D01*
X1480571Y1069314D01*
X1480997Y1071460D01*
X1480571Y1073606D01*
X1479355Y1075425D01*
X1477536Y1076641D01*
X1475390Y1077068D01*
D02*
G37*
G36*
X635390D02*
X633244Y1076641D01*
X631424Y1075425D01*
X630209Y1073606D01*
X629782Y1071460D01*
X630209Y1069314D01*
X631424Y1067495D01*
X633244Y1066279D01*
X635390Y1065852D01*
X637536Y1066279D01*
X639355Y1067495D01*
X640571Y1069314D01*
X640997Y1071460D01*
X640571Y1073606D01*
X639355Y1075425D01*
X637536Y1076641D01*
X635390Y1077068D01*
D02*
G37*
G36*
X675390D02*
X673244Y1076641D01*
X671424Y1075425D01*
X670209Y1073606D01*
X669782Y1071460D01*
X670209Y1069314D01*
X671424Y1067495D01*
X673244Y1066279D01*
X675390Y1065852D01*
X677536Y1066279D01*
X679355Y1067495D01*
X680571Y1069314D01*
X680997Y1071460D01*
X680571Y1073606D01*
X679355Y1075425D01*
X677536Y1076641D01*
X675390Y1077068D01*
D02*
G37*
G36*
X1355390D02*
X1353244Y1076641D01*
X1351424Y1075425D01*
X1350209Y1073606D01*
X1349782Y1071460D01*
X1350209Y1069314D01*
X1351424Y1067495D01*
X1353244Y1066279D01*
X1355390Y1065852D01*
X1357536Y1066279D01*
X1359355Y1067495D01*
X1360571Y1069314D01*
X1360997Y1071460D01*
X1360571Y1073606D01*
X1359355Y1075425D01*
X1357536Y1076641D01*
X1355390Y1077068D01*
D02*
G37*
G36*
X1033700Y1390500D02*
X1011700D01*
Y1368500D01*
X1033700D01*
Y1390500D01*
D02*
G37*
G36*
X1115300Y1389108D02*
X1113154Y1388681D01*
X1111335Y1387465D01*
X1110119Y1385646D01*
X1109692Y1383500D01*
X1110119Y1381354D01*
X1111335Y1379535D01*
X1113154Y1378319D01*
X1115300Y1377892D01*
X1117446Y1378319D01*
X1119265Y1379535D01*
X1120481Y1381354D01*
X1120908Y1383500D01*
X1120481Y1385646D01*
X1119265Y1387465D01*
X1117446Y1388681D01*
X1115300Y1389108D01*
D02*
G37*
G36*
X755390Y1397068D02*
X753244Y1396641D01*
X751424Y1395425D01*
X750209Y1393606D01*
X749782Y1391460D01*
X750209Y1389314D01*
X751424Y1387495D01*
X753244Y1386279D01*
X755390Y1385852D01*
X757536Y1386279D01*
X759355Y1387495D01*
X760571Y1389314D01*
X760997Y1391460D01*
X760571Y1393606D01*
X759355Y1395425D01*
X757536Y1396641D01*
X755390Y1397068D01*
D02*
G37*
G36*
X1255390Y1357068D02*
X1253244Y1356641D01*
X1251424Y1355425D01*
X1250209Y1353606D01*
X1249782Y1351460D01*
X1250209Y1349314D01*
X1251424Y1347495D01*
X1253244Y1346279D01*
X1255390Y1345852D01*
X1257536Y1346279D01*
X1259355Y1347495D01*
X1260571Y1349314D01*
X1260997Y1351460D01*
X1260571Y1353606D01*
X1259355Y1355425D01*
X1257536Y1356641D01*
X1255390Y1357068D01*
D02*
G37*
G36*
X1295390D02*
X1293244Y1356641D01*
X1291425Y1355425D01*
X1290209Y1353606D01*
X1289782Y1351460D01*
X1290209Y1349314D01*
X1291425Y1347495D01*
X1293244Y1346279D01*
X1295390Y1345852D01*
X1297536Y1346279D01*
X1299355Y1347495D01*
X1300571Y1349314D01*
X1300997Y1351460D01*
X1300571Y1353606D01*
X1299355Y1355425D01*
X1297536Y1356641D01*
X1295390Y1357068D01*
D02*
G37*
G36*
X997300Y1390595D02*
X994428Y1390217D01*
X991753Y1389108D01*
X989455Y1387345D01*
X987691Y1385047D01*
X986583Y1382372D01*
X986205Y1379500D01*
X986583Y1376628D01*
X987691Y1373953D01*
X989455Y1371655D01*
X991753Y1369892D01*
X994428Y1368783D01*
X997300Y1368405D01*
X1000172Y1368783D01*
X1002848Y1369892D01*
X1005145Y1371655D01*
X1006908Y1373953D01*
X1008017Y1376628D01*
X1008395Y1379500D01*
X1008017Y1382372D01*
X1006908Y1385047D01*
X1005145Y1387345D01*
X1002848Y1389108D01*
X1000172Y1390217D01*
X997300Y1390595D01*
D02*
G37*
G36*
X835390Y1397068D02*
X833244Y1396641D01*
X831424Y1395425D01*
X830209Y1393606D01*
X829782Y1391460D01*
X830209Y1389314D01*
X831424Y1387495D01*
X833244Y1386279D01*
X835390Y1385852D01*
X837536Y1386279D01*
X839355Y1387495D01*
X840571Y1389314D01*
X840997Y1391460D01*
X840571Y1393606D01*
X839355Y1395425D01*
X837536Y1396641D01*
X835390Y1397068D01*
D02*
G37*
G36*
X1275390D02*
X1273244Y1396641D01*
X1271424Y1395425D01*
X1270209Y1393606D01*
X1269782Y1391460D01*
X1270209Y1389314D01*
X1271424Y1387495D01*
X1273244Y1386279D01*
X1275390Y1385852D01*
X1277536Y1386279D01*
X1279355Y1387495D01*
X1280571Y1389314D01*
X1280997Y1391460D01*
X1280571Y1393606D01*
X1279355Y1395425D01*
X1277536Y1396641D01*
X1275390Y1397068D01*
D02*
G37*
G36*
X775390Y1437068D02*
X773244Y1436641D01*
X771424Y1435425D01*
X770209Y1433606D01*
X769782Y1431460D01*
X770209Y1429314D01*
X771424Y1427495D01*
X773244Y1426279D01*
X775390Y1425852D01*
X777536Y1426279D01*
X779355Y1427495D01*
X780571Y1429314D01*
X780997Y1431460D01*
X780571Y1433606D01*
X779355Y1435425D01*
X777536Y1436641D01*
X775390Y1437068D01*
D02*
G37*
G36*
X815390D02*
X813244Y1436641D01*
X811424Y1435425D01*
X810209Y1433606D01*
X809782Y1431460D01*
X810209Y1429314D01*
X811424Y1427495D01*
X813244Y1426279D01*
X815390Y1425852D01*
X817536Y1426279D01*
X819355Y1427495D01*
X820571Y1429314D01*
X820997Y1431460D01*
X820571Y1433606D01*
X819355Y1435425D01*
X817536Y1436641D01*
X815390Y1437068D01*
D02*
G37*
G36*
X875390Y1397068D02*
X873244Y1396641D01*
X871424Y1395425D01*
X870209Y1393606D01*
X869782Y1391460D01*
X870209Y1389314D01*
X871424Y1387495D01*
X873244Y1386279D01*
X875390Y1385852D01*
X877536Y1386279D01*
X879355Y1387495D01*
X880571Y1389314D01*
X880997Y1391460D01*
X880571Y1393606D01*
X879355Y1395425D01*
X877536Y1396641D01*
X875390Y1397068D01*
D02*
G37*
G36*
X915390D02*
X913244Y1396641D01*
X911424Y1395425D01*
X910209Y1393606D01*
X909782Y1391460D01*
X910209Y1389314D01*
X911424Y1387495D01*
X913244Y1386279D01*
X915390Y1385852D01*
X917536Y1386279D01*
X919355Y1387495D01*
X920571Y1389314D01*
X920997Y1391460D01*
X920571Y1393606D01*
X919355Y1395425D01*
X917536Y1396641D01*
X915390Y1397068D01*
D02*
G37*
G36*
X955390D02*
X953244Y1396641D01*
X951424Y1395425D01*
X950209Y1393606D01*
X949782Y1391460D01*
X950209Y1389314D01*
X951424Y1387495D01*
X953244Y1386279D01*
X955390Y1385852D01*
X957536Y1386279D01*
X959355Y1387495D01*
X960571Y1389314D01*
X960997Y1391460D01*
X960571Y1393606D01*
X959355Y1395425D01*
X957536Y1396641D01*
X955390Y1397068D01*
D02*
G37*
G36*
X1195390Y1317068D02*
X1193244Y1316641D01*
X1191424Y1315425D01*
X1190209Y1313606D01*
X1189782Y1311460D01*
X1190209Y1309314D01*
X1191424Y1307495D01*
X1193244Y1306279D01*
X1195390Y1305852D01*
X1197536Y1306279D01*
X1199355Y1307495D01*
X1200571Y1309314D01*
X1200997Y1311460D01*
X1200571Y1313606D01*
X1199355Y1315425D01*
X1197536Y1316641D01*
X1195390Y1317068D01*
D02*
G37*
G36*
X735390Y1357068D02*
X733244Y1356641D01*
X731424Y1355425D01*
X730209Y1353606D01*
X729782Y1351460D01*
X730209Y1349314D01*
X731424Y1347495D01*
X733244Y1346279D01*
X735390Y1345852D01*
X737536Y1346279D01*
X739355Y1347495D01*
X740571Y1349314D01*
X740997Y1351460D01*
X740571Y1353606D01*
X739355Y1355425D01*
X737536Y1356641D01*
X735390Y1357068D01*
D02*
G37*
G36*
X775390D02*
X773244Y1356641D01*
X771424Y1355425D01*
X770209Y1353606D01*
X769782Y1351460D01*
X770209Y1349314D01*
X771424Y1347495D01*
X773244Y1346279D01*
X775390Y1345852D01*
X777536Y1346279D01*
X779355Y1347495D01*
X780571Y1349314D01*
X780997Y1351460D01*
X780571Y1353606D01*
X779355Y1355425D01*
X777536Y1356641D01*
X775390Y1357068D01*
D02*
G37*
G36*
X655390Y1277068D02*
X653244Y1276641D01*
X651424Y1275425D01*
X650209Y1273606D01*
X649782Y1271460D01*
X650209Y1269314D01*
X651424Y1267495D01*
X653244Y1266279D01*
X655390Y1265852D01*
X657536Y1266279D01*
X659355Y1267495D01*
X660571Y1269314D01*
X660997Y1271460D01*
X660571Y1273606D01*
X659355Y1275425D01*
X657536Y1276641D01*
X655390Y1277068D01*
D02*
G37*
G36*
X1335390D02*
X1333244Y1276641D01*
X1331425Y1275425D01*
X1330209Y1273606D01*
X1329782Y1271460D01*
X1330209Y1269314D01*
X1331425Y1267495D01*
X1333244Y1266279D01*
X1335390Y1265852D01*
X1337536Y1266279D01*
X1339355Y1267495D01*
X1340571Y1269314D01*
X1340997Y1271460D01*
X1340571Y1273606D01*
X1339355Y1275425D01*
X1337536Y1276641D01*
X1335390Y1277068D01*
D02*
G37*
G36*
X835390Y1317068D02*
X833244Y1316641D01*
X831424Y1315425D01*
X830209Y1313606D01*
X829782Y1311460D01*
X830209Y1309314D01*
X831424Y1307495D01*
X833244Y1306279D01*
X835390Y1305852D01*
X837536Y1306279D01*
X839355Y1307495D01*
X840571Y1309314D01*
X840997Y1311460D01*
X840571Y1313606D01*
X839355Y1315425D01*
X837536Y1316641D01*
X835390Y1317068D01*
D02*
G37*
G36*
X815390Y1357068D02*
X813244Y1356641D01*
X811424Y1355425D01*
X810209Y1353606D01*
X809782Y1351460D01*
X810209Y1349314D01*
X811424Y1347495D01*
X813244Y1346279D01*
X815390Y1345852D01*
X817536Y1346279D01*
X819355Y1347495D01*
X820571Y1349314D01*
X820997Y1351460D01*
X820571Y1353606D01*
X819355Y1355425D01*
X817536Y1356641D01*
X815390Y1357068D01*
D02*
G37*
G36*
X975390D02*
X973244Y1356641D01*
X971424Y1355425D01*
X970209Y1353606D01*
X969782Y1351460D01*
X970209Y1349314D01*
X971424Y1347495D01*
X973244Y1346279D01*
X975390Y1345852D01*
X977536Y1346279D01*
X979355Y1347495D01*
X980571Y1349314D01*
X980997Y1351460D01*
X980571Y1353606D01*
X979355Y1355425D01*
X977536Y1356641D01*
X975390Y1357068D01*
D02*
G37*
G36*
X1015390D02*
X1013244Y1356641D01*
X1011424Y1355425D01*
X1010209Y1353606D01*
X1009782Y1351460D01*
X1010209Y1349314D01*
X1011424Y1347495D01*
X1013244Y1346279D01*
X1015390Y1345852D01*
X1017536Y1346279D01*
X1019355Y1347495D01*
X1020571Y1349314D01*
X1020997Y1351460D01*
X1020571Y1353606D01*
X1019355Y1355425D01*
X1017536Y1356641D01*
X1015390Y1357068D01*
D02*
G37*
G36*
X1055390D02*
X1053244Y1356641D01*
X1051424Y1355425D01*
X1050209Y1353606D01*
X1049782Y1351460D01*
X1050209Y1349314D01*
X1051424Y1347495D01*
X1053244Y1346279D01*
X1055390Y1345852D01*
X1057536Y1346279D01*
X1059355Y1347495D01*
X1060571Y1349314D01*
X1060997Y1351460D01*
X1060571Y1353606D01*
X1059355Y1355425D01*
X1057536Y1356641D01*
X1055390Y1357068D01*
D02*
G37*
G36*
X855390D02*
X853244Y1356641D01*
X851424Y1355425D01*
X850209Y1353606D01*
X849782Y1351460D01*
X850209Y1349314D01*
X851424Y1347495D01*
X853244Y1346279D01*
X855390Y1345852D01*
X857536Y1346279D01*
X859355Y1347495D01*
X860571Y1349314D01*
X860997Y1351460D01*
X860571Y1353606D01*
X859355Y1355425D01*
X857536Y1356641D01*
X855390Y1357068D01*
D02*
G37*
G36*
X895390D02*
X893244Y1356641D01*
X891424Y1355425D01*
X890209Y1353606D01*
X889782Y1351460D01*
X890209Y1349314D01*
X891424Y1347495D01*
X893244Y1346279D01*
X895390Y1345852D01*
X897536Y1346279D01*
X899355Y1347495D01*
X900571Y1349314D01*
X900997Y1351460D01*
X900571Y1353606D01*
X899355Y1355425D01*
X897536Y1356641D01*
X895390Y1357068D01*
D02*
G37*
G36*
X935390D02*
X933244Y1356641D01*
X931424Y1355425D01*
X930209Y1353606D01*
X929782Y1351460D01*
X930209Y1349314D01*
X931424Y1347495D01*
X933244Y1346279D01*
X935390Y1345852D01*
X937536Y1346279D01*
X939355Y1347495D01*
X940571Y1349314D01*
X940997Y1351460D01*
X940571Y1353606D01*
X939355Y1355425D01*
X937536Y1356641D01*
X935390Y1357068D01*
D02*
G37*
G36*
X735390Y2077068D02*
X733244Y2076641D01*
X731424Y2075425D01*
X730209Y2073606D01*
X729782Y2071460D01*
X730209Y2069314D01*
X731424Y2067495D01*
X733244Y2066279D01*
X735390Y2065852D01*
X737536Y2066279D01*
X739355Y2067495D01*
X740571Y2069314D01*
X740997Y2071460D01*
X740571Y2073606D01*
X739355Y2075425D01*
X737536Y2076641D01*
X735390Y2077068D01*
D02*
G37*
G36*
X775390D02*
X773244Y2076641D01*
X771424Y2075425D01*
X770209Y2073606D01*
X769782Y2071460D01*
X770209Y2069314D01*
X771424Y2067495D01*
X773244Y2066279D01*
X775390Y2065852D01*
X777536Y2066279D01*
X779355Y2067495D01*
X780571Y2069314D01*
X780997Y2071460D01*
X780571Y2073606D01*
X779355Y2075425D01*
X777536Y2076641D01*
X775390Y2077068D01*
D02*
G37*
G36*
X815390D02*
X813244Y2076641D01*
X811424Y2075425D01*
X810209Y2073606D01*
X809782Y2071460D01*
X810209Y2069314D01*
X811424Y2067495D01*
X813244Y2066279D01*
X815390Y2065852D01*
X817536Y2066279D01*
X819355Y2067495D01*
X820571Y2069314D01*
X820997Y2071460D01*
X820571Y2073606D01*
X819355Y2075425D01*
X817536Y2076641D01*
X815390Y2077068D01*
D02*
G37*
G36*
X1235390Y2037068D02*
X1233244Y2036641D01*
X1231424Y2035425D01*
X1230209Y2033606D01*
X1229782Y2031460D01*
X1230209Y2029314D01*
X1231424Y2027495D01*
X1233244Y2026279D01*
X1235390Y2025852D01*
X1237536Y2026279D01*
X1239355Y2027495D01*
X1240571Y2029314D01*
X1240997Y2031460D01*
X1240571Y2033606D01*
X1239355Y2035425D01*
X1237536Y2036641D01*
X1235390Y2037068D01*
D02*
G37*
G36*
X1275390D02*
X1273244Y2036641D01*
X1271424Y2035425D01*
X1270209Y2033606D01*
X1269782Y2031460D01*
X1270209Y2029314D01*
X1271424Y2027495D01*
X1273244Y2026279D01*
X1275390Y2025852D01*
X1277536Y2026279D01*
X1279355Y2027495D01*
X1280571Y2029314D01*
X1280997Y2031460D01*
X1280571Y2033606D01*
X1279355Y2035425D01*
X1277536Y2036641D01*
X1275390Y2037068D01*
D02*
G37*
G36*
X695390Y2077068D02*
X693244Y2076641D01*
X691424Y2075425D01*
X690209Y2073606D01*
X689782Y2071460D01*
X690209Y2069314D01*
X691424Y2067495D01*
X693244Y2066279D01*
X695390Y2065852D01*
X697536Y2066279D01*
X699355Y2067495D01*
X700571Y2069314D01*
X700997Y2071460D01*
X700571Y2073606D01*
X699355Y2075425D01*
X697536Y2076641D01*
X695390Y2077068D01*
D02*
G37*
G36*
X675390Y2117068D02*
X673244Y2116641D01*
X671424Y2115425D01*
X670209Y2113606D01*
X669782Y2111460D01*
X670209Y2109314D01*
X671424Y2107495D01*
X673244Y2106279D01*
X675390Y2105852D01*
X677536Y2106279D01*
X679355Y2107495D01*
X680571Y2109314D01*
X680997Y2111460D01*
X680571Y2113606D01*
X679355Y2115425D01*
X677536Y2116641D01*
X675390Y2117068D01*
D02*
G37*
G36*
X795390D02*
X793244Y2116641D01*
X791424Y2115425D01*
X790209Y2113606D01*
X789782Y2111460D01*
X790209Y2109314D01*
X791424Y2107495D01*
X793244Y2106279D01*
X795390Y2105852D01*
X797536Y2106279D01*
X799355Y2107495D01*
X800571Y2109314D01*
X800997Y2111460D01*
X800571Y2113606D01*
X799355Y2115425D01*
X797536Y2116641D01*
X795390Y2117068D01*
D02*
G37*
G36*
X1195390D02*
X1193244Y2116641D01*
X1191424Y2115425D01*
X1190209Y2113606D01*
X1189782Y2111460D01*
X1190209Y2109314D01*
X1191424Y2107495D01*
X1193244Y2106279D01*
X1195390Y2105852D01*
X1197536Y2106279D01*
X1199355Y2107495D01*
X1200571Y2109314D01*
X1200997Y2111460D01*
X1200571Y2113606D01*
X1199355Y2115425D01*
X1197536Y2116641D01*
X1195390Y2117068D01*
D02*
G37*
G36*
X1175390Y2077068D02*
X1173244Y2076641D01*
X1171424Y2075425D01*
X1170209Y2073606D01*
X1169782Y2071460D01*
X1170209Y2069314D01*
X1171424Y2067495D01*
X1173244Y2066279D01*
X1175390Y2065852D01*
X1177536Y2066279D01*
X1179355Y2067495D01*
X1180571Y2069314D01*
X1180997Y2071460D01*
X1180571Y2073606D01*
X1179355Y2075425D01*
X1177536Y2076641D01*
X1175390Y2077068D01*
D02*
G37*
G36*
X1255390D02*
X1253244Y2076641D01*
X1251424Y2075425D01*
X1250209Y2073606D01*
X1249782Y2071460D01*
X1250209Y2069314D01*
X1251424Y2067495D01*
X1253244Y2066279D01*
X1255390Y2065852D01*
X1257536Y2066279D01*
X1259355Y2067495D01*
X1260571Y2069314D01*
X1260997Y2071460D01*
X1260571Y2073606D01*
X1259355Y2075425D01*
X1257536Y2076641D01*
X1255390Y2077068D01*
D02*
G37*
G36*
X1295390D02*
X1293244Y2076641D01*
X1291425Y2075425D01*
X1290209Y2073606D01*
X1289782Y2071460D01*
X1290209Y2069314D01*
X1291425Y2067495D01*
X1293244Y2066279D01*
X1295390Y2065852D01*
X1297536Y2066279D01*
X1299355Y2067495D01*
X1300571Y2069314D01*
X1300997Y2071460D01*
X1300571Y2073606D01*
X1299355Y2075425D01*
X1297536Y2076641D01*
X1295390Y2077068D01*
D02*
G37*
G36*
X1155390Y2037068D02*
X1153244Y2036641D01*
X1151424Y2035425D01*
X1150209Y2033606D01*
X1149782Y2031460D01*
X1150209Y2029314D01*
X1151424Y2027495D01*
X1153244Y2026279D01*
X1155390Y2025852D01*
X1157536Y2026279D01*
X1159355Y2027495D01*
X1160571Y2029314D01*
X1160997Y2031460D01*
X1160571Y2033606D01*
X1159355Y2035425D01*
X1157536Y2036641D01*
X1155390Y2037068D01*
D02*
G37*
G36*
X755390D02*
X753244Y2036641D01*
X751424Y2035425D01*
X750209Y2033606D01*
X749782Y2031460D01*
X750209Y2029314D01*
X751424Y2027495D01*
X753244Y2026279D01*
X755390Y2025852D01*
X757536Y2026279D01*
X759355Y2027495D01*
X760571Y2029314D01*
X760997Y2031460D01*
X760571Y2033606D01*
X759355Y2035425D01*
X757536Y2036641D01*
X755390Y2037068D01*
D02*
G37*
G36*
X795390D02*
X793244Y2036641D01*
X791424Y2035425D01*
X790209Y2033606D01*
X789782Y2031460D01*
X790209Y2029314D01*
X791424Y2027495D01*
X793244Y2026279D01*
X795390Y2025852D01*
X797536Y2026279D01*
X799355Y2027495D01*
X800571Y2029314D01*
X800997Y2031460D01*
X800571Y2033606D01*
X799355Y2035425D01*
X797536Y2036641D01*
X795390Y2037068D01*
D02*
G37*
G36*
X835390D02*
X833244Y2036641D01*
X831424Y2035425D01*
X830209Y2033606D01*
X829782Y2031460D01*
X830209Y2029314D01*
X831424Y2027495D01*
X833244Y2026279D01*
X835390Y2025852D01*
X837536Y2026279D01*
X839355Y2027495D01*
X840571Y2029314D01*
X840997Y2031460D01*
X840571Y2033606D01*
X839355Y2035425D01*
X837536Y2036641D01*
X835390Y2037068D01*
D02*
G37*
G36*
X1215390Y1997068D02*
X1213244Y1996641D01*
X1211424Y1995425D01*
X1210209Y1993606D01*
X1209782Y1991460D01*
X1210209Y1989314D01*
X1211424Y1987495D01*
X1213244Y1986279D01*
X1215390Y1985852D01*
X1217536Y1986279D01*
X1219355Y1987495D01*
X1220571Y1989314D01*
X1220997Y1991460D01*
X1220571Y1993606D01*
X1219355Y1995425D01*
X1217536Y1996641D01*
X1215390Y1997068D01*
D02*
G37*
G36*
X1255390D02*
X1253244Y1996641D01*
X1251424Y1995425D01*
X1250209Y1993606D01*
X1249782Y1991460D01*
X1250209Y1989314D01*
X1251424Y1987495D01*
X1253244Y1986279D01*
X1255390Y1985852D01*
X1257536Y1986279D01*
X1259355Y1987495D01*
X1260571Y1989314D01*
X1260997Y1991460D01*
X1260571Y1993606D01*
X1259355Y1995425D01*
X1257536Y1996641D01*
X1255390Y1997068D01*
D02*
G37*
G36*
X715390Y2037068D02*
X713244Y2036641D01*
X711424Y2035425D01*
X710209Y2033606D01*
X709782Y2031460D01*
X710209Y2029314D01*
X711424Y2027495D01*
X713244Y2026279D01*
X715390Y2025852D01*
X717536Y2026279D01*
X719355Y2027495D01*
X720571Y2029314D01*
X720997Y2031460D01*
X720571Y2033606D01*
X719355Y2035425D01*
X717536Y2036641D01*
X715390Y2037068D01*
D02*
G37*
G36*
X1035390D02*
X1033244Y2036641D01*
X1031424Y2035425D01*
X1030209Y2033606D01*
X1029782Y2031460D01*
X1030209Y2029314D01*
X1031424Y2027495D01*
X1033244Y2026279D01*
X1035390Y2025852D01*
X1037536Y2026279D01*
X1039355Y2027495D01*
X1040571Y2029314D01*
X1040997Y2031460D01*
X1040571Y2033606D01*
X1039355Y2035425D01*
X1037536Y2036641D01*
X1035390Y2037068D01*
D02*
G37*
G36*
X1075390D02*
X1073244Y2036641D01*
X1071424Y2035425D01*
X1070209Y2033606D01*
X1069782Y2031460D01*
X1070209Y2029314D01*
X1071424Y2027495D01*
X1073244Y2026279D01*
X1075390Y2025852D01*
X1077536Y2026279D01*
X1079355Y2027495D01*
X1080571Y2029314D01*
X1080997Y2031460D01*
X1080571Y2033606D01*
X1079355Y2035425D01*
X1077536Y2036641D01*
X1075390Y2037068D01*
D02*
G37*
G36*
X1115390D02*
X1113244Y2036641D01*
X1111424Y2035425D01*
X1110209Y2033606D01*
X1109782Y2031460D01*
X1110209Y2029314D01*
X1111424Y2027495D01*
X1113244Y2026279D01*
X1115390Y2025852D01*
X1117536Y2026279D01*
X1119355Y2027495D01*
X1120571Y2029314D01*
X1120997Y2031460D01*
X1120571Y2033606D01*
X1119355Y2035425D01*
X1117536Y2036641D01*
X1115390Y2037068D01*
D02*
G37*
G36*
X875390D02*
X873244Y2036641D01*
X871424Y2035425D01*
X870209Y2033606D01*
X869782Y2031460D01*
X870209Y2029314D01*
X871424Y2027495D01*
X873244Y2026279D01*
X875390Y2025852D01*
X877536Y2026279D01*
X879355Y2027495D01*
X880571Y2029314D01*
X880997Y2031460D01*
X880571Y2033606D01*
X879355Y2035425D01*
X877536Y2036641D01*
X875390Y2037068D01*
D02*
G37*
G36*
X955390D02*
X953244Y2036641D01*
X951424Y2035425D01*
X950209Y2033606D01*
X949782Y2031460D01*
X950209Y2029314D01*
X951424Y2027495D01*
X953244Y2026279D01*
X955390Y2025852D01*
X957536Y2026279D01*
X959355Y2027495D01*
X960571Y2029314D01*
X960997Y2031460D01*
X960571Y2033606D01*
X959355Y2035425D01*
X957536Y2036641D01*
X955390Y2037068D01*
D02*
G37*
G36*
X995390D02*
X993244Y2036641D01*
X991424Y2035425D01*
X990209Y2033606D01*
X989782Y2031460D01*
X990209Y2029314D01*
X991424Y2027495D01*
X993244Y2026279D01*
X995390Y2025852D01*
X997536Y2026279D01*
X999355Y2027495D01*
X1000571Y2029314D01*
X1000997Y2031460D01*
X1000571Y2033606D01*
X999355Y2035425D01*
X997536Y2036641D01*
X995390Y2037068D01*
D02*
G37*
G36*
X1355390Y2117068D02*
X1353244Y2116641D01*
X1351424Y2115425D01*
X1350209Y2113606D01*
X1349782Y2111460D01*
X1350209Y2109314D01*
X1351424Y2107495D01*
X1353244Y2106279D01*
X1355390Y2105852D01*
X1357536Y2106279D01*
X1359355Y2107495D01*
X1360571Y2109314D01*
X1360997Y2111460D01*
X1360571Y2113606D01*
X1359355Y2115425D01*
X1357536Y2116641D01*
X1355390Y2117068D01*
D02*
G37*
G36*
X1415390Y2317068D02*
X1413244Y2316641D01*
X1411425Y2315425D01*
X1410209Y2313606D01*
X1409782Y2311460D01*
X1410209Y2309314D01*
X1411425Y2307494D01*
X1413244Y2306279D01*
X1415390Y2305852D01*
X1417536Y2306279D01*
X1419355Y2307494D01*
X1420571Y2309314D01*
X1420997Y2311460D01*
X1420571Y2313606D01*
X1419355Y2315425D01*
X1417536Y2316641D01*
X1415390Y2317068D01*
D02*
G37*
G36*
X1455390D02*
X1453244Y2316641D01*
X1451425Y2315425D01*
X1450209Y2313606D01*
X1449782Y2311460D01*
X1450209Y2309314D01*
X1451425Y2307494D01*
X1453244Y2306279D01*
X1455390Y2305852D01*
X1457536Y2306279D01*
X1459355Y2307494D01*
X1460571Y2309314D01*
X1460997Y2311460D01*
X1460571Y2313606D01*
X1459355Y2315425D01*
X1457536Y2316641D01*
X1455390Y2317068D01*
D02*
G37*
G36*
X696261Y2321788D02*
X696254Y2321786D01*
X696247Y2321786D01*
X695883Y2321644D01*
X695518Y2321504D01*
X695512Y2321499D01*
X695506Y2321497D01*
X635256Y2282997D01*
X635251Y2282991D01*
X635244Y2282989D01*
X634964Y2282716D01*
X634682Y2282446D01*
X634679Y2282439D01*
X634674Y2282433D01*
X634519Y2282074D01*
X634363Y2281717D01*
X634362Y2281709D01*
X634360Y2281703D01*
X634354Y2281310D01*
X634346Y2280921D01*
X634349Y2280914D01*
X634349Y2280907D01*
X634494Y2280544D01*
X634636Y2280180D01*
X634641Y2280175D01*
X634644Y2280168D01*
X716769Y2153668D01*
X717050Y2153379D01*
X717322Y2153099D01*
X717323Y2153098D01*
X717324Y2153098D01*
X717703Y2152935D01*
X718053Y2152784D01*
X718054D01*
X718055Y2152784D01*
X718472Y2152778D01*
X718849Y2152773D01*
X718849Y2152773D01*
X718850D01*
X719227Y2152923D01*
X719588Y2153067D01*
X777838Y2190817D01*
X778113Y2191085D01*
X778393Y2191350D01*
X778399Y2191362D01*
X778409Y2191372D01*
X778560Y2191724D01*
X778718Y2192076D01*
X778718Y2192090D01*
X778723Y2192102D01*
X778729Y2192487D01*
X778739Y2192872D01*
X778734Y2192884D01*
X778735Y2192898D01*
X778592Y2193256D01*
X778455Y2193615D01*
X698330Y2320865D01*
X698325Y2320870D01*
X698322Y2320876D01*
X698051Y2321159D01*
X697783Y2321443D01*
X697776Y2321445D01*
X697771Y2321450D01*
X697413Y2321608D01*
X697056Y2321767D01*
X697049Y2321767D01*
X697043Y2321770D01*
X696653Y2321778D01*
X696261Y2321788D01*
D02*
G37*
G36*
X615390Y2317068D02*
X613244Y2316641D01*
X611424Y2315425D01*
X610209Y2313606D01*
X609782Y2311460D01*
X610209Y2309314D01*
X611424Y2307494D01*
X613244Y2306279D01*
X615390Y2305852D01*
X617536Y2306279D01*
X619355Y2307494D01*
X620571Y2309314D01*
X620998Y2311460D01*
X620571Y2313606D01*
X619355Y2315425D01*
X617536Y2316641D01*
X615390Y2317068D01*
D02*
G37*
G36*
X655390D02*
X653244Y2316641D01*
X651424Y2315425D01*
X650209Y2313606D01*
X649782Y2311460D01*
X650209Y2309314D01*
X651424Y2307494D01*
X653244Y2306279D01*
X655390Y2305852D01*
X657536Y2306279D01*
X659355Y2307494D01*
X660571Y2309314D01*
X660997Y2311460D01*
X660571Y2313606D01*
X659355Y2315425D01*
X657536Y2316641D01*
X655390Y2317068D01*
D02*
G37*
G36*
X1375390D02*
X1373244Y2316641D01*
X1371425Y2315425D01*
X1370209Y2313606D01*
X1369782Y2311460D01*
X1370209Y2309314D01*
X1371425Y2307494D01*
X1373244Y2306279D01*
X1375390Y2305852D01*
X1377536Y2306279D01*
X1379355Y2307494D01*
X1380571Y2309314D01*
X1380997Y2311460D01*
X1380571Y2313606D01*
X1379355Y2315425D01*
X1377536Y2316641D01*
X1375390Y2317068D01*
D02*
G37*
G36*
X1355390Y2357067D02*
X1353244Y2356641D01*
X1351424Y2355425D01*
X1350209Y2353606D01*
X1349782Y2351460D01*
X1350209Y2349314D01*
X1351424Y2347494D01*
X1353244Y2346279D01*
X1355390Y2345852D01*
X1357536Y2346279D01*
X1359355Y2347494D01*
X1360571Y2349314D01*
X1360997Y2351460D01*
X1360571Y2353606D01*
X1359355Y2355425D01*
X1357536Y2356641D01*
X1355390Y2357067D01*
D02*
G37*
G36*
X1395390D02*
X1393244Y2356641D01*
X1391424Y2355425D01*
X1390209Y2353606D01*
X1389782Y2351460D01*
X1390209Y2349314D01*
X1391424Y2347494D01*
X1393244Y2346279D01*
X1395390Y2345852D01*
X1397536Y2346279D01*
X1399355Y2347494D01*
X1400571Y2349314D01*
X1400997Y2351460D01*
X1400571Y2353606D01*
X1399355Y2355425D01*
X1397536Y2356641D01*
X1395390Y2357067D01*
D02*
G37*
G36*
X1375390Y2397067D02*
X1373244Y2396641D01*
X1371425Y2395425D01*
X1370209Y2393606D01*
X1369782Y2391460D01*
X1370209Y2389314D01*
X1371425Y2387494D01*
X1373244Y2386279D01*
X1375390Y2385852D01*
X1377536Y2386279D01*
X1379355Y2387494D01*
X1380571Y2389314D01*
X1380997Y2391460D01*
X1380571Y2393606D01*
X1379355Y2395425D01*
X1377536Y2396641D01*
X1375390Y2397067D01*
D02*
G37*
G36*
X560000Y2462098D02*
X553047Y2461707D01*
X546182Y2460541D01*
X539490Y2458613D01*
X533057Y2455948D01*
X526962Y2452580D01*
X521283Y2448550D01*
X516090Y2443910D01*
X511450Y2438717D01*
X507420Y2433038D01*
X504052Y2426943D01*
X501387Y2420510D01*
X499459Y2413818D01*
X498293Y2406953D01*
X497902Y2400000D01*
X498293Y2393047D01*
X499459Y2386182D01*
X501387Y2379490D01*
X504052Y2373057D01*
X507420Y2366962D01*
X511450Y2361283D01*
X516090Y2356090D01*
X521283Y2351450D01*
X526962Y2347420D01*
X533057Y2344052D01*
X539490Y2341387D01*
X546182Y2339459D01*
X553047Y2338293D01*
X560000Y2337902D01*
X566953Y2338293D01*
X573818Y2339459D01*
X580510Y2341387D01*
X586943Y2344052D01*
X593038Y2347420D01*
X598717Y2351450D01*
X603910Y2356090D01*
X608550Y2361283D01*
X612580Y2366962D01*
X615948Y2373057D01*
X618613Y2379490D01*
X620541Y2386182D01*
X621707Y2393047D01*
X622098Y2400000D01*
X621707Y2406953D01*
X620541Y2413818D01*
X618613Y2420510D01*
X615948Y2426943D01*
X612580Y2433038D01*
X608550Y2438717D01*
X603910Y2443910D01*
X598717Y2448550D01*
X593038Y2452580D01*
X586943Y2455948D01*
X580510Y2458613D01*
X573818Y2460541D01*
X566953Y2461707D01*
X560000Y2462098D01*
D02*
G37*
G36*
X1460000D02*
X1453047Y2461707D01*
X1446182Y2460541D01*
X1439490Y2458613D01*
X1433057Y2455948D01*
X1426962Y2452580D01*
X1421283Y2448550D01*
X1416090Y2443910D01*
X1411450Y2438717D01*
X1407420Y2433038D01*
X1404052Y2426943D01*
X1401387Y2420510D01*
X1399459Y2413818D01*
X1398293Y2406953D01*
X1397902Y2400000D01*
X1398293Y2393047D01*
X1399459Y2386182D01*
X1401387Y2379490D01*
X1404052Y2373057D01*
X1407420Y2366962D01*
X1411450Y2361283D01*
X1416090Y2356090D01*
X1421283Y2351450D01*
X1426962Y2347420D01*
X1433057Y2344052D01*
X1439490Y2341387D01*
X1446182Y2339459D01*
X1453047Y2338293D01*
X1460000Y2337902D01*
X1466953Y2338293D01*
X1473818Y2339459D01*
X1480510Y2341387D01*
X1486943Y2344052D01*
X1493038Y2347420D01*
X1498717Y2351450D01*
X1503910Y2356090D01*
X1508550Y2361283D01*
X1512580Y2366962D01*
X1515948Y2373057D01*
X1518613Y2379490D01*
X1520541Y2386182D01*
X1521707Y2393047D01*
X1522098Y2400000D01*
X1521707Y2406953D01*
X1520541Y2413818D01*
X1518613Y2420510D01*
X1515948Y2426943D01*
X1512580Y2433038D01*
X1508550Y2438717D01*
X1503910Y2443910D01*
X1498717Y2448550D01*
X1493038Y2452580D01*
X1486943Y2455948D01*
X1480510Y2458613D01*
X1473818Y2460541D01*
X1466953Y2461707D01*
X1460000Y2462098D01*
D02*
G37*
G36*
X635390Y2357067D02*
X633244Y2356641D01*
X631424Y2355425D01*
X630209Y2353606D01*
X629782Y2351460D01*
X630209Y2349314D01*
X631424Y2347494D01*
X633244Y2346279D01*
X635390Y2345852D01*
X637536Y2346279D01*
X639355Y2347494D01*
X640571Y2349314D01*
X640997Y2351460D01*
X640571Y2353606D01*
X639355Y2355425D01*
X637536Y2356641D01*
X635390Y2357067D01*
D02*
G37*
G36*
X575390Y2317068D02*
X573244Y2316641D01*
X571424Y2315425D01*
X570209Y2313606D01*
X569782Y2311460D01*
X570209Y2309314D01*
X571424Y2307494D01*
X573244Y2306279D01*
X575390Y2305852D01*
X577536Y2306279D01*
X579355Y2307494D01*
X580571Y2309314D01*
X580998Y2311460D01*
X580571Y2313606D01*
X579355Y2315425D01*
X577536Y2316641D01*
X575390Y2317068D01*
D02*
G37*
G36*
X1375390Y2157068D02*
X1373244Y2156641D01*
X1371425Y2155425D01*
X1370209Y2153606D01*
X1369782Y2151460D01*
X1370209Y2149314D01*
X1371425Y2147495D01*
X1373244Y2146279D01*
X1375390Y2145852D01*
X1377536Y2146279D01*
X1379355Y2147495D01*
X1380571Y2149314D01*
X1380997Y2151460D01*
X1380571Y2153606D01*
X1379355Y2155425D01*
X1377536Y2156641D01*
X1375390Y2157068D01*
D02*
G37*
G36*
X1324727Y2320388D02*
X1324334Y2320378D01*
X1323945Y2320370D01*
X1323939Y2320367D01*
X1323932Y2320367D01*
X1323573Y2320207D01*
X1323216Y2320050D01*
X1323211Y2320045D01*
X1323205Y2320043D01*
X1322936Y2319758D01*
X1322665Y2319476D01*
X1322663Y2319470D01*
X1322658Y2319465D01*
X1242533Y2192215D01*
X1242395Y2191855D01*
X1242253Y2191498D01*
X1242253Y2191485D01*
X1242249Y2191472D01*
X1242259Y2191086D01*
X1242264Y2190702D01*
X1242270Y2190690D01*
X1242270Y2190676D01*
X1242427Y2190324D01*
X1242579Y2189972D01*
X1242589Y2189962D01*
X1242594Y2189950D01*
X1242874Y2189685D01*
X1243149Y2189417D01*
X1301400Y2151667D01*
X1301774Y2151518D01*
X1302137Y2151373D01*
X1302138D01*
X1302139Y2151373D01*
X1302531Y2151378D01*
X1302933Y2151384D01*
X1302934Y2151384D01*
X1302934D01*
X1303298Y2151541D01*
X1303664Y2151698D01*
X1303664Y2151698D01*
X1303665Y2151699D01*
X1303945Y2151987D01*
X1304219Y2152268D01*
X1386344Y2278768D01*
X1386347Y2278775D01*
X1386352Y2278780D01*
X1386495Y2279146D01*
X1386639Y2279507D01*
X1386638Y2279514D01*
X1386641Y2279521D01*
X1386633Y2279914D01*
X1386628Y2280302D01*
X1386625Y2280309D01*
X1386625Y2280317D01*
X1386467Y2280677D01*
X1386314Y2281033D01*
X1386309Y2281039D01*
X1386306Y2281046D01*
X1386024Y2281316D01*
X1385744Y2281589D01*
X1385737Y2281591D01*
X1385732Y2281597D01*
X1325482Y2320097D01*
X1325475Y2320099D01*
X1325470Y2320104D01*
X1325105Y2320244D01*
X1324740Y2320386D01*
X1324733Y2320386D01*
X1324727Y2320388D01*
D02*
G37*
G36*
X675390Y2197068D02*
X673244Y2196641D01*
X671424Y2195425D01*
X670209Y2193606D01*
X669782Y2191460D01*
X670209Y2189314D01*
X671424Y2187495D01*
X673244Y2186279D01*
X675390Y2185852D01*
X677536Y2186279D01*
X679355Y2187495D01*
X680571Y2189314D01*
X680997Y2191460D01*
X680571Y2193606D01*
X679355Y2195425D01*
X677536Y2196641D01*
X675390Y2197068D01*
D02*
G37*
G36*
X1268000Y2133308D02*
X1265854Y2132881D01*
X1264035Y2131665D01*
X1262819Y2129846D01*
X1262392Y2127700D01*
X1262819Y2125554D01*
X1264035Y2123735D01*
X1265854Y2122519D01*
X1268000Y2122092D01*
X1270146Y2122519D01*
X1271965Y2123735D01*
X1273181Y2125554D01*
X1273608Y2127700D01*
X1273181Y2129846D01*
X1271965Y2131665D01*
X1270146Y2132881D01*
X1268000Y2133308D01*
D02*
G37*
G36*
X769622Y2149358D02*
X767476Y2148931D01*
X765656Y2147716D01*
X764441Y2145896D01*
X764014Y2143750D01*
X764441Y2141604D01*
X765656Y2139785D01*
X767476Y2138570D01*
X769622Y2138143D01*
X771768Y2138570D01*
X773587Y2139785D01*
X774802Y2141604D01*
X775229Y2143750D01*
X774802Y2145896D01*
X773587Y2147716D01*
X771768Y2148931D01*
X769622Y2149358D01*
D02*
G37*
G36*
X655390Y2157068D02*
X653244Y2156641D01*
X651424Y2155425D01*
X650209Y2153606D01*
X649782Y2151460D01*
X650209Y2149314D01*
X651424Y2147495D01*
X653244Y2146279D01*
X655390Y2145852D01*
X657536Y2146279D01*
X659355Y2147495D01*
X660571Y2149314D01*
X660997Y2151460D01*
X660571Y2153606D01*
X659355Y2155425D01*
X657536Y2156641D01*
X655390Y2157068D01*
D02*
G37*
G36*
X595390Y2277068D02*
X593244Y2276641D01*
X591424Y2275425D01*
X590209Y2273606D01*
X589782Y2271460D01*
X590209Y2269314D01*
X591424Y2267494D01*
X593244Y2266279D01*
X595390Y2265852D01*
X597536Y2266279D01*
X599355Y2267494D01*
X600571Y2269314D01*
X600998Y2271460D01*
X600571Y2273606D01*
X599355Y2275425D01*
X597536Y2276641D01*
X595390Y2277068D01*
D02*
G37*
G36*
X1435390D02*
X1433244Y2276641D01*
X1431424Y2275425D01*
X1430209Y2273606D01*
X1429782Y2271460D01*
X1430209Y2269314D01*
X1431424Y2267494D01*
X1433244Y2266279D01*
X1435390Y2265852D01*
X1437536Y2266279D01*
X1439355Y2267494D01*
X1440571Y2269314D01*
X1440997Y2271460D01*
X1440571Y2273606D01*
X1439355Y2275425D01*
X1437536Y2276641D01*
X1435390Y2277068D01*
D02*
G37*
G36*
X535390Y2317068D02*
X533244Y2316641D01*
X531424Y2315425D01*
X530209Y2313606D01*
X529782Y2311460D01*
X530209Y2309314D01*
X531424Y2307494D01*
X533244Y2306279D01*
X535390Y2305852D01*
X537536Y2306279D01*
X539355Y2307494D01*
X540571Y2309314D01*
X540998Y2311460D01*
X540571Y2313606D01*
X539355Y2315425D01*
X537536Y2316641D01*
X535390Y2317068D01*
D02*
G37*
G36*
X1395390Y2197068D02*
X1393244Y2196641D01*
X1391424Y2195425D01*
X1390209Y2193606D01*
X1389782Y2191460D01*
X1390209Y2189314D01*
X1391424Y2187495D01*
X1393244Y2186279D01*
X1395390Y2185852D01*
X1397536Y2186279D01*
X1399355Y2187495D01*
X1400571Y2189314D01*
X1400997Y2191460D01*
X1400571Y2193606D01*
X1399355Y2195425D01*
X1397536Y2196641D01*
X1395390Y2197068D01*
D02*
G37*
G36*
X615390Y2237068D02*
X613244Y2236641D01*
X611424Y2235425D01*
X610209Y2233606D01*
X609782Y2231460D01*
X610209Y2229314D01*
X611424Y2227495D01*
X613244Y2226279D01*
X615390Y2225852D01*
X617536Y2226279D01*
X619355Y2227495D01*
X620571Y2229314D01*
X620998Y2231460D01*
X620571Y2233606D01*
X619355Y2235425D01*
X617536Y2236641D01*
X615390Y2237068D01*
D02*
G37*
G36*
X1415390D02*
X1413244Y2236641D01*
X1411425Y2235425D01*
X1410209Y2233606D01*
X1409782Y2231460D01*
X1410209Y2229314D01*
X1411425Y2227495D01*
X1413244Y2226279D01*
X1415390Y2225852D01*
X1417536Y2226279D01*
X1419355Y2227495D01*
X1420571Y2229314D01*
X1420997Y2231460D01*
X1420571Y2233606D01*
X1419355Y2235425D01*
X1417536Y2236641D01*
X1415390Y2237068D01*
D02*
G37*
G36*
X1175390Y1997068D02*
X1173244Y1996641D01*
X1171424Y1995425D01*
X1170209Y1993606D01*
X1169782Y1991460D01*
X1170209Y1989314D01*
X1171424Y1987495D01*
X1173244Y1986279D01*
X1175390Y1985852D01*
X1177536Y1986279D01*
X1179355Y1987495D01*
X1180571Y1989314D01*
X1180997Y1991460D01*
X1180571Y1993606D01*
X1179355Y1995425D01*
X1177536Y1996641D01*
X1175390Y1997068D01*
D02*
G37*
G36*
X1063000Y1846333D02*
X1061342Y1846003D01*
X1059936Y1845064D01*
X1058997Y1843658D01*
X1058667Y1842000D01*
X1058997Y1840342D01*
X1059936Y1838936D01*
X1061342Y1837997D01*
X1063000Y1837667D01*
X1064658Y1837997D01*
X1066064Y1838936D01*
X1067003Y1840342D01*
X1067333Y1842000D01*
X1067003Y1843658D01*
X1066064Y1845064D01*
X1064658Y1846003D01*
X1063000Y1846333D01*
D02*
G37*
G36*
X1046000Y1861083D02*
X1044342Y1860753D01*
X1042936Y1859814D01*
X1041997Y1858408D01*
X1041667Y1856750D01*
X1041823Y1855964D01*
X1041007Y1854843D01*
X1040857Y1854805D01*
X1039342Y1854503D01*
X1037936Y1853564D01*
X1036997Y1852158D01*
X1036667Y1850500D01*
X1036997Y1848842D01*
X1037936Y1847436D01*
X1039342Y1846497D01*
X1041000Y1846167D01*
X1042658Y1846497D01*
X1044064Y1847436D01*
X1045003Y1848842D01*
X1045333Y1850500D01*
X1045177Y1851286D01*
X1045993Y1852408D01*
X1046143Y1852445D01*
X1047658Y1852747D01*
X1048826Y1853527D01*
X1049722Y1853129D01*
X1049996Y1852897D01*
X1049917Y1852500D01*
X1050247Y1850842D01*
X1051186Y1849436D01*
X1052592Y1848497D01*
X1054250Y1848167D01*
X1055908Y1848497D01*
X1057314Y1849436D01*
X1058253Y1850842D01*
X1058583Y1852500D01*
X1058253Y1854158D01*
X1057314Y1855564D01*
X1055908Y1856503D01*
X1054250Y1856833D01*
X1052592Y1856503D01*
X1051424Y1855723D01*
X1050528Y1856121D01*
X1050254Y1856353D01*
X1050333Y1856750D01*
X1050003Y1858408D01*
X1049064Y1859814D01*
X1047658Y1860753D01*
X1046000Y1861083D01*
D02*
G37*
G36*
X962000Y1860833D02*
X960342Y1860503D01*
X958936Y1859564D01*
X957997Y1858158D01*
X957667Y1856500D01*
X957997Y1854842D01*
X958936Y1853436D01*
X960342Y1852497D01*
X962000Y1852167D01*
X963658Y1852497D01*
X965064Y1853436D01*
X966003Y1854842D01*
X966333Y1856500D01*
X966003Y1858158D01*
X965064Y1859564D01*
X963658Y1860503D01*
X962000Y1860833D01*
D02*
G37*
G36*
X855390Y1837068D02*
X853244Y1836641D01*
X851424Y1835425D01*
X850209Y1833606D01*
X849782Y1831460D01*
X850209Y1829314D01*
X851424Y1827495D01*
X853244Y1826279D01*
X855390Y1825852D01*
X857536Y1826279D01*
X859355Y1827495D01*
X860571Y1829314D01*
X860997Y1831460D01*
X860571Y1833606D01*
X859355Y1835425D01*
X857536Y1836641D01*
X855390Y1837068D01*
D02*
G37*
G36*
X1215390D02*
X1213244Y1836641D01*
X1211424Y1835425D01*
X1210209Y1833606D01*
X1209782Y1831460D01*
X1210209Y1829314D01*
X1211424Y1827495D01*
X1213244Y1826279D01*
X1215390Y1825852D01*
X1217536Y1826279D01*
X1219355Y1827495D01*
X1220571Y1829314D01*
X1220997Y1831460D01*
X1220571Y1833606D01*
X1219355Y1835425D01*
X1217536Y1836641D01*
X1215390Y1837068D01*
D02*
G37*
G36*
X957350Y1843908D02*
X955204Y1843481D01*
X953385Y1842265D01*
X952169Y1840446D01*
X951742Y1838300D01*
X952169Y1836154D01*
X953385Y1834335D01*
X955204Y1833119D01*
X957350Y1832692D01*
X959496Y1833119D01*
X961315Y1834335D01*
X962531Y1836154D01*
X962958Y1838300D01*
X962531Y1840446D01*
X961315Y1842265D01*
X959496Y1843481D01*
X957350Y1843908D01*
D02*
G37*
G36*
X1164500Y1887608D02*
X1162354Y1887181D01*
X1160535Y1885965D01*
X1159319Y1884146D01*
X1158892Y1882000D01*
X1159319Y1879854D01*
X1160535Y1878035D01*
X1162354Y1876819D01*
X1164500Y1876392D01*
X1166646Y1876819D01*
X1168465Y1878035D01*
X1169681Y1879854D01*
X1170108Y1882000D01*
X1169681Y1884146D01*
X1168465Y1885965D01*
X1166646Y1887181D01*
X1164500Y1887608D01*
D02*
G37*
G36*
X815390Y1917068D02*
X813244Y1916641D01*
X811424Y1915425D01*
X810209Y1913606D01*
X809782Y1911460D01*
X810209Y1909314D01*
X811424Y1907495D01*
X813244Y1906279D01*
X815390Y1905852D01*
X817536Y1906279D01*
X819355Y1907495D01*
X820571Y1909314D01*
X820997Y1911460D01*
X820571Y1913606D01*
X819355Y1915425D01*
X817536Y1916641D01*
X815390Y1917068D01*
D02*
G37*
G36*
X855390D02*
X853244Y1916641D01*
X851424Y1915425D01*
X850209Y1913606D01*
X849782Y1911460D01*
X850209Y1909314D01*
X851424Y1907495D01*
X853244Y1906279D01*
X855390Y1905852D01*
X857536Y1906279D01*
X859355Y1907495D01*
X860571Y1909314D01*
X860997Y1911460D01*
X860571Y1913606D01*
X859355Y1915425D01*
X857536Y1916641D01*
X855390Y1917068D01*
D02*
G37*
G36*
X795390Y1877068D02*
X793244Y1876641D01*
X791424Y1875425D01*
X790209Y1873606D01*
X789782Y1871460D01*
X790209Y1869314D01*
X791424Y1867495D01*
X793244Y1866279D01*
X795390Y1865852D01*
X797536Y1866279D01*
X799355Y1867495D01*
X800571Y1869314D01*
X800997Y1871460D01*
X800571Y1873606D01*
X799355Y1875425D01*
X797536Y1876641D01*
X795390Y1877068D01*
D02*
G37*
G36*
X835390D02*
X833244Y1876641D01*
X831424Y1875425D01*
X830209Y1873606D01*
X829782Y1871460D01*
X830209Y1869314D01*
X831424Y1867495D01*
X833244Y1866279D01*
X835390Y1865852D01*
X837536Y1866279D01*
X839355Y1867495D01*
X840571Y1869314D01*
X840997Y1871460D01*
X840571Y1873606D01*
X839355Y1875425D01*
X837536Y1876641D01*
X835390Y1877068D01*
D02*
G37*
G36*
X977050Y1880358D02*
X974904Y1879931D01*
X973085Y1878715D01*
X971869Y1876896D01*
X971442Y1874750D01*
X971869Y1872604D01*
X973085Y1870785D01*
X974904Y1869569D01*
X977050Y1869142D01*
X979196Y1869569D01*
X981015Y1870785D01*
X982231Y1872604D01*
X982658Y1874750D01*
X982231Y1876896D01*
X981015Y1878715D01*
X979196Y1879931D01*
X977050Y1880358D01*
D02*
G37*
G36*
X815390Y1837068D02*
X813244Y1836641D01*
X811424Y1835425D01*
X810209Y1833606D01*
X809782Y1831460D01*
X810209Y1829314D01*
X811424Y1827495D01*
X813244Y1826279D01*
X815390Y1825852D01*
X817536Y1826279D01*
X819355Y1827495D01*
X820571Y1829314D01*
X820997Y1831460D01*
X820571Y1833606D01*
X819355Y1835425D01*
X817536Y1836641D01*
X815390Y1837068D01*
D02*
G37*
G36*
X1080600Y1786708D02*
X1078454Y1786281D01*
X1076635Y1785065D01*
X1075419Y1783246D01*
X1074992Y1781100D01*
X1075419Y1778954D01*
X1076635Y1777135D01*
X1078454Y1775919D01*
X1080600Y1775492D01*
X1082746Y1775919D01*
X1084565Y1777135D01*
X1085781Y1778954D01*
X1086208Y1781100D01*
X1085781Y1783246D01*
X1084565Y1785065D01*
X1082746Y1786281D01*
X1080600Y1786708D01*
D02*
G37*
G36*
X816250Y1800858D02*
X812987Y1800428D01*
X809946Y1799169D01*
X807335Y1797165D01*
X805331Y1794554D01*
X804072Y1791513D01*
X803642Y1788250D01*
X804072Y1784987D01*
X805331Y1781946D01*
X807335Y1779335D01*
X809946Y1777331D01*
X812987Y1776072D01*
X816250Y1775642D01*
X819513Y1776072D01*
X822554Y1777331D01*
X825165Y1779335D01*
X827169Y1781946D01*
X828428Y1784987D01*
X828858Y1788250D01*
X828428Y1791513D01*
X827169Y1794554D01*
X825165Y1797165D01*
X822554Y1799169D01*
X819513Y1800428D01*
X816250Y1800858D01*
D02*
G37*
G36*
X1235390Y1797068D02*
X1233244Y1796641D01*
X1231424Y1795425D01*
X1230209Y1793606D01*
X1229782Y1791460D01*
X1230209Y1789314D01*
X1231424Y1787495D01*
X1233244Y1786279D01*
X1235390Y1785852D01*
X1237536Y1786279D01*
X1239355Y1787495D01*
X1240571Y1789314D01*
X1240997Y1791460D01*
X1240571Y1793606D01*
X1239355Y1795425D01*
X1237536Y1796641D01*
X1235390Y1797068D01*
D02*
G37*
G36*
X998250Y1768833D02*
X996592Y1768503D01*
X995186Y1767564D01*
X994247Y1766158D01*
X993917Y1764500D01*
X994247Y1762842D01*
X995186Y1761436D01*
X996592Y1760497D01*
X998250Y1760167D01*
X999908Y1760497D01*
X1001314Y1761436D01*
X1002253Y1762842D01*
X1002583Y1764500D01*
X1002253Y1766158D01*
X1001314Y1767564D01*
X999908Y1768503D01*
X998250Y1768833D01*
D02*
G37*
G36*
X1032300Y1773233D02*
X1030642Y1772903D01*
X1029236Y1771964D01*
X1028297Y1770558D01*
X1027967Y1768900D01*
X1028297Y1767242D01*
X1029236Y1765836D01*
X1030642Y1764897D01*
X1031514Y1764723D01*
X1032191Y1763468D01*
X1032184Y1763394D01*
X1031867Y1761800D01*
X1031877Y1761749D01*
X1030734Y1760985D01*
X1029958Y1761503D01*
X1028300Y1761833D01*
X1026642Y1761503D01*
X1025236Y1760564D01*
X1024297Y1759158D01*
X1023967Y1757500D01*
X1024297Y1755842D01*
X1025129Y1754595D01*
X1024993Y1753820D01*
X1024760Y1753227D01*
X1024642Y1753203D01*
X1023236Y1752264D01*
X1022297Y1750858D01*
X1021967Y1749200D01*
X1022297Y1747542D01*
X1023236Y1746136D01*
X1024642Y1745197D01*
X1026300Y1744867D01*
X1027958Y1745197D01*
X1029364Y1746136D01*
X1030303Y1747542D01*
X1030633Y1749200D01*
X1030303Y1750858D01*
X1029471Y1752105D01*
X1029607Y1752880D01*
X1029840Y1753473D01*
X1029958Y1753497D01*
X1031364Y1754436D01*
X1032303Y1755842D01*
X1032633Y1757500D01*
X1032623Y1757551D01*
X1033766Y1758315D01*
X1034542Y1757797D01*
X1036200Y1757467D01*
X1036745Y1757575D01*
X1037825Y1756495D01*
X1037667Y1755700D01*
X1037997Y1754042D01*
X1038936Y1752636D01*
X1040342Y1751697D01*
X1042000Y1751367D01*
X1043658Y1751697D01*
X1045064Y1752636D01*
X1046003Y1754042D01*
X1046333Y1755700D01*
X1046331Y1755711D01*
X1047442Y1756497D01*
X1049100Y1756167D01*
X1050758Y1756497D01*
X1052164Y1757436D01*
X1053103Y1758842D01*
X1053433Y1760500D01*
X1053103Y1762158D01*
X1052164Y1763564D01*
X1050758Y1764503D01*
X1049100Y1764833D01*
X1047442Y1764503D01*
X1046036Y1763564D01*
X1045097Y1762158D01*
X1044767Y1760500D01*
X1044769Y1760489D01*
X1043658Y1759703D01*
X1042000Y1760033D01*
X1041455Y1759925D01*
X1040375Y1761005D01*
X1040533Y1761800D01*
X1040203Y1763458D01*
X1039264Y1764864D01*
X1037858Y1765803D01*
X1036986Y1765977D01*
X1036309Y1767232D01*
X1036316Y1767306D01*
X1036633Y1768900D01*
X1036303Y1770558D01*
X1035364Y1771964D01*
X1033958Y1772903D01*
X1032300Y1773233D01*
D02*
G37*
G36*
X1053200Y1774733D02*
X1051542Y1774403D01*
X1050136Y1773464D01*
X1049197Y1772058D01*
X1048867Y1770400D01*
X1049197Y1768742D01*
X1050136Y1767336D01*
X1051542Y1766397D01*
X1053200Y1766067D01*
X1054858Y1766397D01*
X1056264Y1767336D01*
X1057203Y1768742D01*
X1057533Y1770400D01*
X1057203Y1772058D01*
X1056264Y1773464D01*
X1054858Y1774403D01*
X1053200Y1774733D01*
D02*
G37*
G36*
X1068600Y1827833D02*
X1066942Y1827503D01*
X1065536Y1826564D01*
X1064597Y1825158D01*
X1064267Y1823500D01*
X1064597Y1821842D01*
X1065536Y1820436D01*
X1066364Y1819882D01*
X1066096Y1818534D01*
X1065942Y1818503D01*
X1064536Y1817564D01*
X1063597Y1816158D01*
X1063267Y1814500D01*
X1063597Y1812842D01*
X1064536Y1811436D01*
X1065942Y1810497D01*
X1067600Y1810167D01*
X1069258Y1810497D01*
X1070664Y1811436D01*
X1071603Y1812842D01*
X1071933Y1814500D01*
X1071603Y1816158D01*
X1070664Y1817564D01*
X1069836Y1818118D01*
X1070104Y1819466D01*
X1070258Y1819497D01*
X1071664Y1820436D01*
X1072603Y1821842D01*
X1072933Y1823500D01*
X1072603Y1825158D01*
X1071664Y1826564D01*
X1070258Y1827503D01*
X1068600Y1827833D01*
D02*
G37*
G36*
X1112600Y1825033D02*
X1110942Y1824703D01*
X1109536Y1823764D01*
X1108597Y1822358D01*
X1108267Y1820700D01*
X1108597Y1819042D01*
X1109536Y1817636D01*
X1110942Y1816697D01*
X1112600Y1816367D01*
X1114258Y1816697D01*
X1115664Y1817636D01*
X1116603Y1819042D01*
X1116933Y1820700D01*
X1116603Y1822358D01*
X1115664Y1823764D01*
X1114258Y1824703D01*
X1112600Y1825033D01*
D02*
G37*
G36*
X1099500Y1829608D02*
X1097354Y1829181D01*
X1095535Y1827965D01*
X1094319Y1826146D01*
X1093892Y1824000D01*
X1094319Y1821854D01*
X1095535Y1820035D01*
X1097354Y1818819D01*
X1099500Y1818392D01*
X1101646Y1818819D01*
X1103465Y1820035D01*
X1104681Y1821854D01*
X1105108Y1824000D01*
X1104681Y1826146D01*
X1103465Y1827965D01*
X1101646Y1829181D01*
X1099500Y1829608D01*
D02*
G37*
G36*
X1134100Y1798208D02*
X1131954Y1797781D01*
X1130135Y1796565D01*
X1128919Y1794746D01*
X1128492Y1792600D01*
X1128919Y1790454D01*
X1130135Y1788635D01*
X1131954Y1787419D01*
X1134100Y1786992D01*
X1136246Y1787419D01*
X1138065Y1788635D01*
X1139281Y1790454D01*
X1139708Y1792600D01*
X1139281Y1794746D01*
X1138065Y1796565D01*
X1136246Y1797781D01*
X1134100Y1798208D01*
D02*
G37*
G36*
X1099100Y1813408D02*
X1096954Y1812981D01*
X1095135Y1811765D01*
X1093919Y1809946D01*
X1093492Y1807800D01*
X1093919Y1805654D01*
X1095135Y1803835D01*
X1096954Y1802619D01*
X1099100Y1802192D01*
X1101246Y1802619D01*
X1103065Y1803835D01*
X1104281Y1805654D01*
X1104708Y1807800D01*
X1104281Y1809946D01*
X1103065Y1811765D01*
X1101246Y1812981D01*
X1099100Y1813408D01*
D02*
G37*
G36*
X1129800Y1815308D02*
X1127654Y1814881D01*
X1125835Y1813665D01*
X1124619Y1811846D01*
X1124192Y1809700D01*
X1124619Y1807554D01*
X1125835Y1805735D01*
X1127654Y1804519D01*
X1129800Y1804092D01*
X1131946Y1804519D01*
X1133765Y1805735D01*
X1134981Y1807554D01*
X1135408Y1809700D01*
X1134981Y1811846D01*
X1133765Y1813665D01*
X1131946Y1814881D01*
X1129800Y1815308D01*
D02*
G37*
G36*
X895390Y1917068D02*
X893244Y1916641D01*
X891424Y1915425D01*
X890209Y1913606D01*
X889782Y1911460D01*
X890209Y1909314D01*
X891424Y1907495D01*
X893244Y1906279D01*
X895390Y1905852D01*
X897536Y1906279D01*
X899355Y1907495D01*
X900571Y1909314D01*
X900997Y1911460D01*
X900571Y1913606D01*
X899355Y1915425D01*
X897536Y1916641D01*
X895390Y1917068D01*
D02*
G37*
G36*
X1035390Y1957068D02*
X1033244Y1956641D01*
X1031424Y1955425D01*
X1030209Y1953606D01*
X1029782Y1951460D01*
X1030209Y1949314D01*
X1031424Y1947495D01*
X1033244Y1946279D01*
X1035390Y1945852D01*
X1037536Y1946279D01*
X1039355Y1947495D01*
X1040571Y1949314D01*
X1040997Y1951460D01*
X1040571Y1953606D01*
X1039355Y1955425D01*
X1037536Y1956641D01*
X1035390Y1957068D01*
D02*
G37*
G36*
X1075390D02*
X1073244Y1956641D01*
X1071424Y1955425D01*
X1070209Y1953606D01*
X1069782Y1951460D01*
X1070209Y1949314D01*
X1071424Y1947495D01*
X1073244Y1946279D01*
X1075390Y1945852D01*
X1077536Y1946279D01*
X1079355Y1947495D01*
X1080571Y1949314D01*
X1080997Y1951460D01*
X1080571Y1953606D01*
X1079355Y1955425D01*
X1077536Y1956641D01*
X1075390Y1957068D01*
D02*
G37*
G36*
X1155390D02*
X1153244Y1956641D01*
X1151424Y1955425D01*
X1150209Y1953606D01*
X1149782Y1951460D01*
X1150209Y1949314D01*
X1151424Y1947495D01*
X1153244Y1946279D01*
X1155390Y1945852D01*
X1157536Y1946279D01*
X1159355Y1947495D01*
X1160571Y1949314D01*
X1160997Y1951460D01*
X1160571Y1953606D01*
X1159355Y1955425D01*
X1157536Y1956641D01*
X1155390Y1957068D01*
D02*
G37*
G36*
X1015390Y1997068D02*
X1013244Y1996641D01*
X1011424Y1995425D01*
X1010209Y1993606D01*
X1009782Y1991460D01*
X1010209Y1989314D01*
X1011424Y1987495D01*
X1013244Y1986279D01*
X1015390Y1985852D01*
X1017536Y1986279D01*
X1019355Y1987495D01*
X1020571Y1989314D01*
X1020997Y1991460D01*
X1020571Y1993606D01*
X1019355Y1995425D01*
X1017536Y1996641D01*
X1015390Y1997068D01*
D02*
G37*
G36*
X975390D02*
X973244Y1996641D01*
X971424Y1995425D01*
X970209Y1993606D01*
X969782Y1991460D01*
X970209Y1989314D01*
X971424Y1987495D01*
X973244Y1986279D01*
X975390Y1985852D01*
X977536Y1986279D01*
X979355Y1987495D01*
X980571Y1989314D01*
X980997Y1991460D01*
X980571Y1993606D01*
X979355Y1995425D01*
X977536Y1996641D01*
X975390Y1997068D01*
D02*
G37*
G36*
X995390Y1957068D02*
X993244Y1956641D01*
X991424Y1955425D01*
X990209Y1953606D01*
X989782Y1951460D01*
X990209Y1949314D01*
X991424Y1947495D01*
X993244Y1946279D01*
X995390Y1945852D01*
X997536Y1946279D01*
X999355Y1947495D01*
X1000571Y1949314D01*
X1000997Y1951460D01*
X1000571Y1953606D01*
X999355Y1955425D01*
X997536Y1956641D01*
X995390Y1957068D01*
D02*
G37*
G36*
X815390Y1997068D02*
X813244Y1996641D01*
X811424Y1995425D01*
X810209Y1993606D01*
X809782Y1991460D01*
X810209Y1989314D01*
X811424Y1987495D01*
X813244Y1986279D01*
X815390Y1985852D01*
X817536Y1986279D01*
X819355Y1987495D01*
X820571Y1989314D01*
X820997Y1991460D01*
X820571Y1993606D01*
X819355Y1995425D01*
X817536Y1996641D01*
X815390Y1997068D01*
D02*
G37*
G36*
X855390D02*
X853244Y1996641D01*
X851424Y1995425D01*
X850209Y1993606D01*
X849782Y1991460D01*
X850209Y1989314D01*
X851424Y1987495D01*
X853244Y1986279D01*
X855390Y1985852D01*
X857536Y1986279D01*
X859355Y1987495D01*
X860571Y1989314D01*
X860997Y1991460D01*
X860571Y1993606D01*
X859355Y1995425D01*
X857536Y1996641D01*
X855390Y1997068D01*
D02*
G37*
G36*
X895390D02*
X893244Y1996641D01*
X891424Y1995425D01*
X890209Y1993606D01*
X889782Y1991460D01*
X890209Y1989314D01*
X891424Y1987495D01*
X893244Y1986279D01*
X895390Y1985852D01*
X897536Y1986279D01*
X899355Y1987495D01*
X900571Y1989314D01*
X900997Y1991460D01*
X900571Y1993606D01*
X899355Y1995425D01*
X897536Y1996641D01*
X895390Y1997068D01*
D02*
G37*
G36*
X1195390Y1957068D02*
X1193244Y1956641D01*
X1191424Y1955425D01*
X1190209Y1953606D01*
X1189782Y1951460D01*
X1190209Y1949314D01*
X1191424Y1947495D01*
X1193244Y1946279D01*
X1195390Y1945852D01*
X1197536Y1946279D01*
X1199355Y1947495D01*
X1200571Y1949314D01*
X1200997Y1951460D01*
X1200571Y1953606D01*
X1199355Y1955425D01*
X1197536Y1956641D01*
X1195390Y1957068D01*
D02*
G37*
G36*
X1235390D02*
X1233244Y1956641D01*
X1231424Y1955425D01*
X1230209Y1953606D01*
X1229782Y1951460D01*
X1230209Y1949314D01*
X1231424Y1947495D01*
X1233244Y1946279D01*
X1235390Y1945852D01*
X1237536Y1946279D01*
X1239355Y1947495D01*
X1240571Y1949314D01*
X1240997Y1951460D01*
X1240571Y1953606D01*
X1239355Y1955425D01*
X1237536Y1956641D01*
X1235390Y1957068D01*
D02*
G37*
G36*
X775390Y1997068D02*
X773244Y1996641D01*
X771424Y1995425D01*
X770209Y1993606D01*
X769782Y1991460D01*
X770209Y1989314D01*
X771424Y1987495D01*
X773244Y1986279D01*
X775390Y1985852D01*
X777536Y1986279D01*
X779355Y1987495D01*
X780571Y1989314D01*
X780997Y1991460D01*
X780571Y1993606D01*
X779355Y1995425D01*
X777536Y1996641D01*
X775390Y1997068D01*
D02*
G37*
G36*
X955390Y1957068D02*
X953244Y1956641D01*
X951424Y1955425D01*
X950209Y1953606D01*
X949782Y1951460D01*
X950209Y1949314D01*
X951424Y1947495D01*
X953244Y1946279D01*
X955390Y1945852D01*
X957536Y1946279D01*
X959355Y1947495D01*
X960571Y1949314D01*
X960997Y1951460D01*
X960571Y1953606D01*
X959355Y1955425D01*
X957536Y1956641D01*
X955390Y1957068D01*
D02*
G37*
G36*
X1135390Y1917068D02*
X1133244Y1916641D01*
X1131424Y1915425D01*
X1130209Y1913606D01*
X1129782Y1911460D01*
X1130209Y1909314D01*
X1131424Y1907495D01*
X1133244Y1906279D01*
X1135390Y1905852D01*
X1137536Y1906279D01*
X1139355Y1907495D01*
X1140571Y1909314D01*
X1140997Y1911460D01*
X1140571Y1913606D01*
X1139355Y1915425D01*
X1137536Y1916641D01*
X1135390Y1917068D01*
D02*
G37*
G36*
X1175390D02*
X1173244Y1916641D01*
X1171424Y1915425D01*
X1170209Y1913606D01*
X1169782Y1911460D01*
X1170209Y1909314D01*
X1171424Y1907495D01*
X1173244Y1906279D01*
X1175390Y1905852D01*
X1177536Y1906279D01*
X1179355Y1907495D01*
X1180571Y1909314D01*
X1180997Y1911460D01*
X1180571Y1913606D01*
X1179355Y1915425D01*
X1177536Y1916641D01*
X1175390Y1917068D01*
D02*
G37*
G36*
X1095390Y1997068D02*
X1093244Y1996641D01*
X1091424Y1995425D01*
X1090209Y1993606D01*
X1089782Y1991460D01*
X1090209Y1989314D01*
X1091424Y1987495D01*
X1093244Y1986279D01*
X1095390Y1985852D01*
X1097536Y1986279D01*
X1099355Y1987495D01*
X1100571Y1989314D01*
X1100997Y1991460D01*
X1100571Y1993606D01*
X1099355Y1995425D01*
X1097536Y1996641D01*
X1095390Y1997068D01*
D02*
G37*
G36*
X935390Y1917068D02*
X933244Y1916641D01*
X931424Y1915425D01*
X930209Y1913606D01*
X929782Y1911460D01*
X930209Y1909314D01*
X931424Y1907495D01*
X933244Y1906279D01*
X935390Y1905852D01*
X937536Y1906279D01*
X939355Y1907495D01*
X940571Y1909314D01*
X940997Y1911460D01*
X940571Y1913606D01*
X939355Y1915425D01*
X937536Y1916641D01*
X935390Y1917068D01*
D02*
G37*
G36*
X975390D02*
X973244Y1916641D01*
X971424Y1915425D01*
X970209Y1913606D01*
X969782Y1911460D01*
X970209Y1909314D01*
X971424Y1907495D01*
X973244Y1906279D01*
X975390Y1905852D01*
X977536Y1906279D01*
X979355Y1907495D01*
X980571Y1909314D01*
X980997Y1911460D01*
X980571Y1913606D01*
X979355Y1915425D01*
X977536Y1916641D01*
X975390Y1917068D01*
D02*
G37*
G36*
X1055390D02*
X1053244Y1916641D01*
X1051424Y1915425D01*
X1050209Y1913606D01*
X1049782Y1911460D01*
X1050209Y1909314D01*
X1051424Y1907495D01*
X1053244Y1906279D01*
X1055390Y1905852D01*
X1057536Y1906279D01*
X1059355Y1907495D01*
X1060571Y1909314D01*
X1060997Y1911460D01*
X1060571Y1913606D01*
X1059355Y1915425D01*
X1057536Y1916641D01*
X1055390Y1917068D01*
D02*
G37*
G36*
X835390Y1957068D02*
X833244Y1956641D01*
X831424Y1955425D01*
X830209Y1953606D01*
X829782Y1951460D01*
X830209Y1949314D01*
X831424Y1947495D01*
X833244Y1946279D01*
X835390Y1945852D01*
X837536Y1946279D01*
X839355Y1947495D01*
X840571Y1949314D01*
X840997Y1951460D01*
X840571Y1953606D01*
X839355Y1955425D01*
X837536Y1956641D01*
X835390Y1957068D01*
D02*
G37*
G36*
X875390D02*
X873244Y1956641D01*
X871424Y1955425D01*
X870209Y1953606D01*
X869782Y1951460D01*
X870209Y1949314D01*
X871424Y1947495D01*
X873244Y1946279D01*
X875390Y1945852D01*
X877536Y1946279D01*
X879355Y1947495D01*
X880571Y1949314D01*
X880997Y1951460D01*
X880571Y1953606D01*
X879355Y1955425D01*
X877536Y1956641D01*
X875390Y1957068D01*
D02*
G37*
G36*
X915390D02*
X913244Y1956641D01*
X911424Y1955425D01*
X910209Y1953606D01*
X909782Y1951460D01*
X910209Y1949314D01*
X911424Y1947495D01*
X913244Y1946279D01*
X915390Y1945852D01*
X917536Y1946279D01*
X919355Y1947495D01*
X920571Y1949314D01*
X920997Y1951460D01*
X920571Y1953606D01*
X919355Y1955425D01*
X917536Y1956641D01*
X915390Y1957068D01*
D02*
G37*
G36*
X1055390Y1997068D02*
X1053244Y1996641D01*
X1051424Y1995425D01*
X1050209Y1993606D01*
X1049782Y1991460D01*
X1050209Y1989314D01*
X1051424Y1987495D01*
X1053244Y1986279D01*
X1055390Y1985852D01*
X1057536Y1986279D01*
X1059355Y1987495D01*
X1060571Y1989314D01*
X1060997Y1991460D01*
X1060571Y1993606D01*
X1059355Y1995425D01*
X1057536Y1996641D01*
X1055390Y1997068D01*
D02*
G37*
G36*
X1215390Y1917068D02*
X1213244Y1916641D01*
X1211424Y1915425D01*
X1210209Y1913606D01*
X1209782Y1911460D01*
X1210209Y1909314D01*
X1211424Y1907495D01*
X1213244Y1906279D01*
X1215390Y1905852D01*
X1217536Y1906279D01*
X1219355Y1907495D01*
X1220571Y1909314D01*
X1220997Y1911460D01*
X1220571Y1913606D01*
X1219355Y1915425D01*
X1217536Y1916641D01*
X1215390Y1917068D01*
D02*
G37*
G36*
X795390Y1957068D02*
X793244Y1956641D01*
X791424Y1955425D01*
X790209Y1953606D01*
X789782Y1951460D01*
X790209Y1949314D01*
X791424Y1947495D01*
X793244Y1946279D01*
X795390Y1945852D01*
X797536Y1946279D01*
X799355Y1947495D01*
X800571Y1949314D01*
X800997Y1951460D01*
X800571Y1953606D01*
X799355Y1955425D01*
X797536Y1956641D01*
X795390Y1957068D01*
D02*
G37*
%LPD*%
G36*
X776729Y2192528D02*
X718479Y2154778D01*
X636354Y2281278D01*
X696604Y2319778D01*
X776729Y2192528D01*
D02*
G37*
G36*
X1384633Y2279878D02*
X1302509Y2153378D01*
X1244258Y2191128D01*
X1324384Y2318378D01*
X1384633Y2279878D01*
D02*
G37*
G36*
X779563Y1210000D02*
X699437Y1082750D01*
X639188Y1121250D01*
X721312Y1247750D01*
X779563Y1210000D01*
D02*
G37*
G36*
X1381625Y1121500D02*
X1321375Y1083000D01*
X1241250Y1210250D01*
X1299500Y1248000D01*
X1381625Y1121500D01*
D02*
G37*
D10*
X605000Y1000000D02*
G03*
X605000Y1000000I-45000J0D01*
G01*
X1505000D02*
G03*
X1505000Y1000000I-45000J0D01*
G01*
Y2400000D02*
G03*
X1505000Y2400000I-45000J0D01*
G01*
X605000D02*
G03*
X605000Y2400000I-45000J0D01*
G01*
Y1000000D02*
G03*
X605000Y1000000I-45000J0D01*
G01*
D46*
X627198Y2443409D02*
G03*
X492801Y2356591I-67198J-43409D01*
G01*
X847800Y2100300D02*
G03*
X903521Y2071281I53619J34952D01*
G01*
X768700Y1893300D02*
G03*
X754598Y1949357I-118419J12D01*
G01*
X1265402D02*
G03*
X1251300Y1893300I104316J-56045D01*
G01*
X1116479Y2071281D02*
G03*
X1172200Y2100300I2102J63971D01*
G01*
X1527199Y2356591D02*
G03*
X1392802Y2443409I-67199J43409D01*
G01*
X754598Y1450644D02*
G03*
X768700Y1506700I-104316J56045D01*
G01*
X903521Y1328719D02*
G03*
X847800Y1299700I-2102J-63971D01*
G01*
X492801Y1043409D02*
G03*
X627198Y956591I67199J-43409D01*
G01*
X1251300Y1506700D02*
G03*
X1265402Y1450644I118419J-12D01*
G01*
X1172200Y1299700D02*
G03*
X1116479Y1328719I-53619J-34952D01*
G01*
X1392802Y956591D02*
G03*
X1527199Y1043409I67198J43409D01*
G01*
X627294Y2443260D02*
X847778Y2100286D01*
X492801Y2356591D02*
X754596Y1949355D01*
X1265404D02*
X1527199Y2356591D01*
X1172222Y2100286D02*
X1392706Y2443260D01*
X492801Y1043409D02*
X754596Y1450645D01*
X627294Y956740D02*
X847778Y1299714D01*
X1265404Y1450645D02*
X1527199Y1043409D01*
X1172222Y1299714D02*
X1392706Y956740D01*
X903521Y1328719D02*
X1116479D01*
X768700Y1506700D02*
Y1893300D01*
X903521Y2071281D02*
X1116479D01*
X1251300Y1506700D02*
Y1893300D01*
D49*
X841650Y1813650D02*
D03*
X790850Y1762850D02*
D03*
X841650D02*
D03*
X790850Y1813650D02*
D03*
D51*
X1098300Y1395900D02*
D03*
X1207000Y1416200D02*
D03*
X1216000D02*
D03*
Y1424950D02*
D03*
X1207000Y1424700D02*
D03*
X1198250D02*
D03*
X777800Y2123600D02*
D03*
X740600Y2143200D02*
D03*
X1277200Y2085600D02*
D03*
X1211000Y2126600D02*
D03*
X1244300Y2178700D02*
D03*
X1284400Y2175500D02*
D03*
X734200Y2175900D02*
D03*
X769200Y2195300D02*
D03*
X646400Y2279000D02*
D03*
X1254600Y2193400D02*
D03*
X743200Y2097000D02*
D03*
X792600Y2147100D02*
D03*
X710600Y2155700D02*
D03*
X739800Y2123900D02*
D03*
X774400Y2177700D02*
D03*
X1148250Y1873500D02*
D03*
X1310800Y2154500D02*
D03*
X1281900Y2114900D02*
D03*
X1240200Y2142600D02*
D03*
X1292700Y2136600D02*
D03*
X1240700Y2110700D02*
D03*
X1132800Y1416500D02*
D03*
X1144050Y1422250D02*
D03*
X1154300Y1422000D02*
D03*
X1154050Y1411250D02*
D03*
X1143800Y1411500D02*
D03*
X1197650Y1375600D02*
D03*
X1206400D02*
D03*
X1215400Y1375850D02*
D03*
Y1367100D02*
D03*
X1206400D02*
D03*
X1154250Y1376750D02*
D03*
X1164750Y1376250D02*
D03*
X1165000Y1386500D02*
D03*
X1154250Y1386250D02*
D03*
X1144250D02*
D03*
X905000Y1584000D02*
D03*
X1335392Y1171461D02*
D03*
X1325392Y1191461D02*
D03*
X1315392Y1131461D02*
D03*
X1325392Y1111461D02*
D03*
X1295392Y1211461D02*
D03*
X1305392Y1151461D02*
D03*
X1295392Y1131461D02*
D03*
X1275391Y1171461D02*
D03*
X1285392Y1151461D02*
D03*
X1255391Y1211461D02*
D03*
X1265391Y1191461D02*
D03*
X1310750Y1215250D02*
D03*
X710000Y1215000D02*
D03*
X765391Y1191461D02*
D03*
X735391Y1211461D02*
D03*
X745391Y1191461D02*
D03*
X735391Y1171461D02*
D03*
X725391Y1151461D02*
D03*
X715391Y1131461D02*
D03*
X705391Y1111461D02*
D03*
X695391Y1091461D02*
D03*
X675391Y1171461D02*
D03*
X685391Y1111461D02*
D03*
X665391Y1151461D02*
D03*
X560000Y2445000D02*
D03*
X515000Y2400000D02*
D03*
X605000D02*
D03*
X560000Y2355000D02*
D03*
X527500Y2430000D02*
D03*
X592500Y2427500D02*
D03*
Y2370000D02*
D03*
X530000Y2367500D02*
D03*
X1460000Y2445000D02*
D03*
X1415000Y2400000D02*
D03*
X1505000D02*
D03*
X1460000Y2355000D02*
D03*
X1427500Y2430000D02*
D03*
X1492500Y2427500D02*
D03*
Y2370000D02*
D03*
X1430000Y2367500D02*
D03*
X1460000Y1045000D02*
D03*
X1415000Y1000000D02*
D03*
X1505000D02*
D03*
X1460000Y955000D02*
D03*
X1427500Y1030000D02*
D03*
X1492500Y1027500D02*
D03*
Y970000D02*
D03*
X1430000Y967500D02*
D03*
X530000D02*
D03*
X592500Y970000D02*
D03*
Y1027500D02*
D03*
X527500Y1030000D02*
D03*
X560000Y955000D02*
D03*
X605000Y1000000D02*
D03*
X515000D02*
D03*
X560000Y1045000D02*
D03*
X1007998Y1489997D02*
D03*
X1023000Y1427000D02*
D03*
X1085250Y1562300D02*
D03*
X1111500Y1596300D02*
D03*
Y1556800D02*
D03*
X938750Y1521750D02*
D03*
X1161500Y1450500D02*
D03*
X1278750Y1258500D02*
D03*
X1250200Y1296800D02*
D03*
X1279000Y1314000D02*
D03*
X1266000Y1305500D02*
D03*
X1277750Y1283750D02*
D03*
X1260100Y1278800D02*
D03*
X1293250Y1268250D02*
D03*
X1213250Y1269500D02*
D03*
X1230250Y1246250D02*
D03*
X1242750Y1225250D02*
D03*
X1189500Y1515000D02*
D03*
X1165500Y1515000D02*
D03*
X778884Y1224990D02*
D03*
X791384Y1245990D02*
D03*
X808384Y1269240D02*
D03*
X731400Y1258200D02*
D03*
X705900Y1239000D02*
D03*
X766384Y1270240D02*
D03*
X743884Y1283490D02*
D03*
X755634Y1305240D02*
D03*
X742634Y1313740D02*
D03*
X779750Y1287000D02*
D03*
X1115750Y1745250D02*
D03*
X969100Y1844300D02*
D03*
X978850Y1845300D02*
D03*
X947000Y1752750D02*
D03*
X948250Y1738500D02*
D03*
X1085500Y1598800D02*
D03*
X1124100Y1519300D02*
D03*
X1122100Y1482900D02*
D03*
X1152600Y1495600D02*
D03*
X1142198Y1622097D02*
D03*
X1313100Y1245600D02*
D03*
X1084300Y1796800D02*
D03*
X1099400D02*
D03*
X1084450Y1835000D02*
D03*
X1100100Y1834900D02*
D03*
X1110200Y1769500D02*
D03*
X1080700Y1769800D02*
D03*
X1065842Y1745758D02*
D03*
X1046100Y1790000D02*
D03*
X1029100D02*
D03*
X1012100D02*
D03*
X1029300Y1808000D02*
D03*
X1046300D02*
D03*
Y1825000D02*
D03*
X735391Y1271461D02*
D03*
X755391Y2111461D02*
D03*
X765391Y2131461D02*
D03*
X795391Y1271461D02*
D03*
X875391Y1471461D02*
D03*
X885391Y1491461D02*
D03*
X875391Y1511461D02*
D03*
X885391Y1531461D02*
D03*
X875391Y1551461D02*
D03*
Y1631461D02*
D03*
X885391Y1651461D02*
D03*
X875391Y1671461D02*
D03*
X885391Y1691461D02*
D03*
X875391Y1711461D02*
D03*
X885391Y1731461D02*
D03*
X875391Y1751461D02*
D03*
Y1831461D02*
D03*
X885391Y1851461D02*
D03*
X875391Y1871461D02*
D03*
X915391Y1471461D02*
D03*
X925391Y1491461D02*
D03*
X915391Y1511461D02*
D03*
X925391Y1531461D02*
D03*
X915391Y1551461D02*
D03*
X925391Y1571461D02*
D03*
X915391Y1751461D02*
D03*
Y1831461D02*
D03*
X925391Y1851461D02*
D03*
X915391Y1871461D02*
D03*
X935391Y1471461D02*
D03*
X945391Y1491461D02*
D03*
X935391Y1551461D02*
D03*
X945391Y1571461D02*
D03*
X935391Y1831461D02*
D03*
X945391Y1851461D02*
D03*
X935391Y1871461D02*
D03*
X955391Y1471461D02*
D03*
Y1551461D02*
D03*
X995391Y1511461D02*
D03*
X1005391Y1531461D02*
D03*
X1015391Y1551461D02*
D03*
X1045391Y1611461D02*
D03*
X1125391Y1851461D02*
D03*
X1145391Y1651461D02*
D03*
X1135391Y1831461D02*
D03*
X1155391Y1471461D02*
D03*
X1185391Y1371461D02*
D03*
Y1411461D02*
D03*
X1195391Y1391461D02*
D03*
X1215391D02*
D03*
X1225391Y2131461D02*
D03*
X1245391D02*
D03*
X1265391Y1291461D02*
D03*
Y2091461D02*
D03*
X1255391Y2151462D02*
D03*
X1275391Y1271461D02*
D03*
D52*
X1010900Y1849100D02*
D03*
X1163400Y1802100D02*
D03*
X1136600Y1686400D02*
D03*
X924800Y1691200D02*
D03*
X948300Y1713200D02*
D03*
X1170700Y1624600D02*
D03*
X980750Y1706250D02*
D03*
X1123250Y1839250D02*
D03*
X1063800Y1858200D02*
D03*
X995500Y1707250D02*
D03*
X981700Y1588300D02*
D03*
X1031400Y1608700D02*
D03*
X975000Y1643300D02*
D03*
X1083400Y1635800D02*
D03*
X1022500Y1626400D02*
D03*
X996000Y1623300D02*
D03*
X1022300Y1644100D02*
D03*
X992400Y1648700D02*
D03*
X1044200Y1645100D02*
D03*
X958100Y1633200D02*
D03*
X924000Y1632300D02*
D03*
X964100Y1627700D02*
D03*
X955400Y1620200D02*
D03*
X1153600Y1680600D02*
D03*
X1088400Y1694300D02*
D03*
X1110600Y1702300D02*
D03*
X1104500Y1678200D02*
D03*
X1058400Y1655000D02*
D03*
X1090500Y1720600D02*
D03*
X1124800Y1702500D02*
D03*
X1059200Y1666900D02*
D03*
X962100Y1652500D02*
D03*
X991000Y1681400D02*
D03*
X972500Y1683200D02*
D03*
X1040600Y1673900D02*
D03*
X957400Y1688000D02*
D03*
X948600Y1655500D02*
D03*
X1116400Y1658900D02*
D03*
X1171000Y1673700D02*
D03*
X1145400Y1722800D02*
D03*
X1075200Y1719100D02*
D03*
X1103000Y1626300D02*
D03*
X1196250Y1658750D02*
D03*
X871750Y1599300D02*
D03*
X900100Y1624900D02*
D03*
X984898Y1866796D02*
D03*
X968400Y1867700D02*
D03*
X967500Y1878000D02*
D03*
X964300Y1797300D02*
D03*
X964900Y1786900D02*
D03*
X979200Y1808500D02*
D03*
X976300Y1819600D02*
D03*
X963100Y1819100D02*
D03*
Y1808400D02*
D03*
X899300Y1780600D02*
D03*
X891300Y1773600D02*
D03*
X883300Y1780600D02*
D03*
X923400Y1780500D02*
D03*
X931400Y1773500D02*
D03*
X939400Y1780500D02*
D03*
X939100Y1798100D02*
D03*
X923100D02*
D03*
X887700Y1808200D02*
D03*
X903700D02*
D03*
X887700Y1820200D02*
D03*
X903700D02*
D03*
X885200Y1800500D02*
D03*
X901200D02*
D03*
X918800Y1807900D02*
D03*
X934800D02*
D03*
X918800Y1819900D02*
D03*
X934800D02*
D03*
X954000Y1776750D02*
D03*
X1090400Y1913000D02*
D03*
D53*
X1275389Y1241459D02*
D03*
X1245389D02*
D03*
X1215389Y2141459D02*
D03*
X1230389Y1271459D02*
D03*
X1185389Y1421459D02*
D03*
Y1361459D02*
D03*
X1170389Y1751459D02*
D03*
X780389Y1271459D02*
D03*
X765389Y1241459D02*
D03*
X755391Y2191462D02*
D03*
X735391Y2231462D02*
D03*
X745391Y2211462D02*
D03*
X715391Y2271462D02*
D03*
X725391Y2251462D02*
D03*
X695391Y2311462D02*
D03*
X705391Y2291462D02*
D03*
X695391Y2271462D02*
D03*
X705391Y2251462D02*
D03*
X685391Y2291462D02*
D03*
X675391Y2231462D02*
D03*
X685391Y2211462D02*
D03*
X1375392Y2271462D02*
D03*
X1335392Y2231462D02*
D03*
X1325392Y2291462D02*
D03*
X1315392Y2271462D02*
D03*
X1325392Y2211462D02*
D03*
X1315392Y2191462D02*
D03*
X1305392Y2251462D02*
D03*
X1295392Y2191462D02*
D03*
X1285392Y2251462D02*
D03*
X1275391Y2231462D02*
D03*
M02*
