M48
;Layer_Color=9474304
;FILE_FORMAT=4:4
METRIC,LZ
;TYPE=PLATED
T1F00S00C0.3000
T2F00S00C1.1000
T3F00S00C1.5000
T4F00S00C1.7000
;TYPE=NON_PLATED
T5F00S00C6.0000
%
T01
X0053Y009675
X0056Y00955
X005925Y0097
X00605Y01
X005925Y010275
X0056Y01045
X005275Y0103
X0051539Y0105146
X00515Y01
X0053539Y0109146
X0057539
X0061539
X0065539
X00695391Y01091461
X00685391Y01111461
X00705391
X00715391Y01131461
X00725391Y01151461
X00735391Y01171461
X00745391Y01191461
X00765391
X00778884Y0122499
X00765389Y01241459
X00791384Y0124599
X00735391Y01211461
X0071Y01215
X007059Y01239
X0065539Y0125146
X0063539Y0121146
X0061539Y0117146
X0059539Y0113146
X0055539
X00665391Y01151461
X00675391Y01171461
X0067539Y0105146
X0063539
X0065539Y0101146
X01265391Y01191461
X01255391Y01211461
X0124275Y0122525
X01245389Y01241459
X0123025Y0124625
X01275389Y01241459
X0131475Y01249
X0131075Y0121525
X01295392Y01211461
X01325392Y01191461
X01335392Y01171461
X01305392Y01151461
X01285392
X01275391Y01171461
X01295392Y01131461
X01315392
X01325392Y01111461
X0137539Y0109146
X0141539
X0145539
X0146Y01045
X014275Y0103
X01415Y01
X0143Y009675
X0139539Y0097146
X0137539Y0101146
X0135539Y0105146
X0139539
X0143539Y0113146
X0141539Y0117146
X0139539Y0121146
X0137539Y0125146
X0151539Y0105146
X014925Y010275
X01505Y01
X014925Y0097
X0146Y00955
X0135539Y0129146
X0133539Y0133146
X0129539
X01279Y01314
X0127775Y0128375
X0127875Y012585
X0129325Y0126825
X0127539Y0137146
X0125539Y0133146
X01266Y013055
X012502Y012968
X012601Y012788
X012495Y012599
X01230389Y01271459
X0121325Y012695
X0119539Y0129146
X0121539Y0133146
X012154Y013671
Y0137585
X012064Y013756
Y013671
X0119765Y013756
X01200389Y01391459
X01207Y014162
Y014247
X0119825
X01185389Y01421459
X011543Y01422
X0114405Y0142225
X011438Y014115
X0115405Y0141125
X0115425Y0138625
Y0137675
X0116475Y0137625
X01165Y013865
X0114425Y0138625
X011153Y013835
X0109539Y0141146
X0105539
X0101539
X01023Y01427
X0097539Y0141146
X0093539
X00928Y013795
X0091539Y0137146
X0089539Y0141146
X00885389Y01481459
Y01541459
X00905Y01584
X0096985Y0158245
Y015657
X009786Y015742
X009817Y015883
X00996Y016233
X009924Y016487
X00975Y016433
X009641Y016277
X009581Y016332
X009554Y016202
X00924Y016323
X010225Y016264
X010223Y016441
X010442Y016451
X010834Y016358
X011116Y016421
X011115Y015963
X010855Y015988
X0108525Y015623
X011115Y015568
X01152Y01566
X01143Y015875
X01148556Y01608828
X01143525Y01619975
X01149Y0162925
X011614Y016317
X011707Y016246
X011835Y0164
X011875Y01605
X01195Y0158875
X0120825Y0161925
X0121539Y0165146
Y0149146
X011895Y01515
X011655Y01515
X011615Y014505
X0119539Y0145146
X01216Y0142495
Y014162
X0125539Y0141146
X01185389Y01361459
X0117539Y0133146
X011328Y014165
X011Y01484
X01092
X01084
X01076
X01068
X0106
X0105175
X0104375
X01007998Y01489997
X0093875Y0152175
X010314Y016087
X00868Y0159525
X008755Y01584
X0085539Y0157146
X0081539
X00838Y0160475
X0079539Y0161146
X0081539Y0165146
X0085539
X00870389Y01631459
Y01511459
X0085539Y0149146
X0081539
X0077539
X0079539Y0153146
X0083539
Y0145146
X0085539Y0141146
X0083539Y0137146
X0087539
X0085539Y0133146
X0081539
X0077539
X0073539
X00742634Y0131374
X00755634Y0130524
X00743884Y0128349
X007514Y012696
X00766384Y0127024
X00780389Y01271459
X0077975Y01287
X00808384Y0126924
X0083539Y0129146
X007314Y012582
X0067539Y0129146
X0069539Y0133146
X0071539Y0137146
X0075539
X0077539Y0141146
X0073539
X0079539Y0169146
X0083539
X00870389Y01691459
X0085539Y0173146
X00870389Y01751459
X0081539Y0173146
Y0181146
X0079539Y0185146
X0083539
X00870389Y01871459
X0087539Y0193146
X0083539
X0079539
X0081539Y0197146
X0077539
X0075539Y0201146
X0079539
X0083539
X0087539
X0085539Y0197146
X0077539Y0189146
X00885389Y01841459
X00909Y0182
X009003Y018033
X009281Y018031
X009547Y018034
X009555Y01822
X0095175Y01842
X009635Y01848
X0097325Y01849
X00962Y0185825
X0097175Y0187725
X0098625Y0187825
X009985Y018514
X01041Y018505
X01046Y0185675
X0105425Y018525
X010638Y018582
X01063Y01842
X0106925Y018255
X010785Y0181825
X01111304Y01819089
X0111125Y01807
X0111Y0178975
X0111075Y0177725
X0110425Y0176325
X010955Y01745
X0111575Y0174525
X0111775Y017155
X01132Y0171525
X011035Y01716
X010925Y0169525
X011135Y016853
X011366Y016864
X0119625Y0168525
X0119625Y0165875
X011965Y01745
X0119625Y017715
X01170389Y01751459
X011634Y018021
X011457Y01803
X011316Y018069
X0112325Y0183925
X0110475Y01832
X0110425Y018795
X0108025Y0188075
X01084Y019105
X0110675Y01913
X0111539Y0193146
X0107539
X0103539
X0105539Y0197146
X0101539
X0097539
X0093539
X0089539
X0091539Y0193146
X0095539
Y0201146
X0099539
X0103539
X0107539
X0111539
X0115539
X0119539
X0123539
X0125539Y0197146
X0121539
X0117539
X0113539
X0109539
X0115539Y0193146
X0119539
X0123539
X011965Y01856
X0119675Y018295
X0121539Y0181146
X0117539
X011618Y018466
X011645Y01882
X0114825Y018735
X010485Y01828
Y01808
X010285
X010285Y01788
X010085
X0099825Y017645
X01004299Y01754336
X0101Y0174725
X0102125Y017505
X0101625Y01757
X0102655Y01757336
X0103675Y017555
X010355Y0176775
X0104575Y01761
X010525Y017665
X01064Y0175725
X010753Y017651
X010615Y0172925
X010471Y017184
X010494Y017043
X010635Y0168825
X01034051Y01686332
X01028Y01681
X010045Y0169975
X009955Y0170725
X0098075Y0170625
X0098125Y0171575
X0096575Y0171475
X00959Y017205
X009483Y017132
X0094825Y017385
X00947Y0175275
X0094925Y0176475
X0093675Y0177975
X0090475Y017725
X00885389Y01781459
Y01721459
Y01661459
X009248Y016912
X0097225Y01729
X009875Y0173125
X009885Y0173925
X0099325Y0175
X0097675Y01799
X0097975Y01822
X010485Y01788
X00994Y016685
X0121539Y0173146
X0127539Y0201146
X0129539Y0205146
X012772Y020856
X012819Y021149
X012927Y021366
X013108Y021545
X01315392Y02191462
X01295392
X012844Y021755
X01275391Y02231462
X0127539Y0225146
X01285392Y02251462
X01305392
X01315392Y02271462
X01325392Y02291462
X0137539Y0229146
X01375392Y02271462
X0141539Y0229146
X0145539
X0143539Y0225146
X0141539Y0221146
X0139539Y0217146
X0137539Y0213146
X0133539
X01325392Y02211462
X01335392Y02231462
X0135539Y0233146
X0139539
X0143539
X0147539
X0146Y02355
X0143Y023675
X01415Y024
X0139539Y0241146
X014275Y0243
X0146Y02445
X014925Y024275
X01505Y024
X014925Y0237
X0137539Y0237146
X012546Y021934
X012443Y021787
X012402Y021426
X01215389Y02141459
X01211Y021266
X012407Y021107
X0123539Y0209146
X0119539
X0121539Y0205146
X0117539
X0113539
X0109539
X0105539
X0101539
X0097539
X0093539
X0089539
X0125539
X01268Y021277
X0081539Y0213146
X007926Y021471
X00769622Y0214375
X007778Y021236
X007398Y021239
X007406Y021432
X007342Y021759
X00755391Y02191462
X007692Y021953
X007744Y021777
X0079539Y0217146
Y0209146
X0075539
X007432Y02097
X00750389Y02111459
X0073539Y0205146
X0069539
X0067539Y0209146
X0065539Y0213146
X0063539Y0217146
X0065539Y0221146
X00685391Y02211462
X00675391Y02231462
X00705391Y02251462
X00725391
X00715391Y02271462
X00695391
X00685391Y02291462
X00705391
X00695391Y02311462
X0067539Y0233146
X0063539
X0059539
X0055539
X0056Y02355
X0053Y023675
X00515Y024
X005275Y0243
X0056Y02445
X005925Y024275
X00605Y024
X0063539Y0241146
X0065539Y0237146
X005925Y0237
X0057539Y0229146
X0061539
X006464Y02279
X0059539Y0225146
X0061539Y0221146
X00745391Y02211462
X00735391Y02231462
X007106Y021557
X0077539Y0205146
X0081539
X0085539
X0051539Y0233146
X0141539Y0245146
T02
X009973Y013795
X010227
T03
X0081625Y0178825
T04
X0079085Y0176285
Y0181365
X0084165
Y0176285
T05
X0056Y01
X0146
Y024
X0056
M30
