G04 Layer_Color=65535*
%FSLAX44Y44*%
%MOMM*%
G71*
G01*
G75*
%ADD40C,0.3000*%
%ADD45C,0.2540*%
%ADD46C,0.1000*%
%ADD69C,0.4000*%
D40*
X1052550Y1852250D02*
X1053716D01*
Y1851084D01*
X1052550D01*
Y1852250D01*
X975000Y1595400D02*
X973834D01*
Y1596566D01*
X975000D01*
Y1595400D01*
X1000000Y1512000D02*
Y1513166D01*
X1001166D01*
Y1512000D01*
X1000000D01*
X1037000Y1676000D02*
X1035834D01*
Y1677166D01*
X1037000D01*
Y1676000D01*
X999250Y1718000D02*
X998084D01*
Y1719166D01*
X999250D01*
Y1718000D01*
X874000Y1592000D02*
X872834D01*
Y1593166D01*
X874000D01*
Y1592000D01*
X1121350Y1856450D02*
X1120184D01*
Y1857616D01*
X1121350D01*
Y1856450D01*
X1183250Y1511000D02*
X1182084D01*
Y1512166D01*
X1183250D01*
Y1511000D01*
X1159250D02*
X1158084D01*
Y1512166D01*
X1159250D01*
Y1511000D01*
X1025100Y1554700D02*
Y1553534D01*
X1023934D01*
Y1554700D01*
X1025100D01*
D45*
X1213743Y1471400D02*
X1223900Y1476478D01*
X1213743Y1481557D01*
X1223900Y1496792D02*
Y1486635D01*
X1213743Y1496792D01*
X1211204D01*
X1208665Y1494253D01*
Y1489174D01*
X1211204Y1486635D01*
X1223900Y1501870D02*
X1221361D01*
Y1504409D01*
X1223900D01*
Y1501870D01*
X1211204Y1514566D02*
X1208665Y1517105D01*
Y1522184D01*
X1211204Y1524723D01*
X1221361D01*
X1223900Y1522184D01*
Y1517105D01*
X1221361Y1514566D01*
X1211204D01*
X1208665Y1529801D02*
X1223900D01*
Y1537419D01*
X1221361Y1539958D01*
X1218822D01*
X1216283Y1537419D01*
Y1529801D01*
Y1537419D01*
X1213743Y1539958D01*
X1211204D01*
X1208665Y1537419D01*
Y1529801D01*
X1089300Y1426996D02*
X1091839Y1429535D01*
X1096917D01*
X1099457Y1426996D01*
Y1424457D01*
X1096917Y1421918D01*
X1094378D01*
X1096917D01*
X1099457Y1419378D01*
Y1416839D01*
X1096917Y1414300D01*
X1091839D01*
X1089300Y1416839D01*
X1104535Y1429535D02*
Y1419378D01*
X1109613Y1414300D01*
X1114692Y1419378D01*
Y1429535D01*
X1119770Y1426996D02*
X1122309Y1429535D01*
X1127388D01*
X1129927Y1426996D01*
Y1424457D01*
X1127388Y1421918D01*
X1124848D01*
X1127388D01*
X1129927Y1419378D01*
Y1416839D01*
X1127388Y1414300D01*
X1122309D01*
X1119770Y1416839D01*
X1036300Y1359235D02*
Y1344000D01*
X1043917D01*
X1046457Y1346539D01*
Y1349078D01*
X1043917Y1351617D01*
X1036300D01*
X1043917D01*
X1046457Y1354157D01*
Y1356696D01*
X1043917Y1359235D01*
X1036300D01*
X1051535Y1344000D02*
Y1354157D01*
X1056613Y1359235D01*
X1061692Y1354157D01*
Y1344000D01*
Y1351617D01*
X1051535D01*
X1066770Y1359235D02*
X1076927D01*
X1071849D01*
Y1344000D01*
X1082005Y1359235D02*
X1092162D01*
X1087084D01*
Y1344000D01*
X1121057Y1366396D02*
X1118518Y1368935D01*
X1113439D01*
X1110900Y1366396D01*
Y1356239D01*
X1113439Y1353700D01*
X1118518D01*
X1121057Y1356239D01*
Y1361317D01*
X1115978D01*
X1126135Y1353700D02*
Y1368935D01*
X1136292Y1353700D01*
Y1368935D01*
X1141370D02*
Y1353700D01*
X1148988D01*
X1151527Y1356239D01*
Y1366396D01*
X1148988Y1368935D01*
X1141370D01*
D46*
X1015300Y1591450D02*
G03*
X1029550Y1591450I7125J16166D01*
G01*
Y1614950D02*
G03*
X1015300Y1614950I-7125J-16166D01*
G01*
X992250Y1629700D02*
G03*
X992250Y1643950I-16166J7125D01*
G01*
X968750D02*
G03*
X968750Y1629700I16166J-7125D01*
G01*
X945500Y1532500D02*
G03*
X945500Y1510500I29250J-11000D01*
G01*
X982000D02*
G03*
X982000Y1532500I-29250J11000D01*
G01*
X1034000Y1468000D02*
G03*
X1012000Y1468000I-11000J-29250D01*
G01*
Y1431500D02*
G03*
X1034000Y1431500I11000J29250D01*
G01*
X1065250Y1694500D02*
G03*
X1079500Y1694500I7125J16166D01*
G01*
Y1718000D02*
G03*
X1065250Y1718000I-7125J-16166D01*
G01*
X1079750Y1694500D02*
G03*
X1094000Y1694500I7125J16166D01*
G01*
Y1718000D02*
G03*
X1079750Y1718000I-7125J-16166D01*
G01*
X1045050Y1682250D02*
G03*
X1045050Y1668000I16166J-7125D01*
G01*
X1068550D02*
G03*
X1068550Y1682250I-16166J7125D01*
G01*
X994750Y1710750D02*
G03*
X980500Y1710750I-7125J-16166D01*
G01*
Y1687250D02*
G03*
X994750Y1687250I7125J16166D01*
G01*
X980750Y1710750D02*
G03*
X966500Y1710750I-7125J-16166D01*
G01*
Y1687250D02*
G03*
X980750Y1687250I7125J16166D01*
G01*
X1019000Y1673000D02*
G03*
X1019000Y1687250I-16166J7125D01*
G01*
X995500D02*
G03*
X995500Y1673000I16166J-7125D01*
G01*
X862300Y1785200D02*
G03*
X884300Y1785200I11000J29250D01*
G01*
Y1821700D02*
G03*
X862300Y1821700I-11000J-29250D01*
G01*
X924150Y1774250D02*
G03*
X938400Y1774250I7125J16166D01*
G01*
Y1797750D02*
G03*
X924150Y1797750I-7125J-16166D01*
G01*
X898550Y1797850D02*
G03*
X884300Y1797850I-7125J-16166D01*
G01*
Y1774350D02*
G03*
X898550Y1774350I7125J16166D01*
G01*
X1069950Y1817750D02*
G03*
X1084200Y1817750I7125J16166D01*
G01*
Y1841250D02*
G03*
X1069950Y1841250I-7125J-16166D01*
G01*
X1084450Y1817750D02*
G03*
X1098700Y1817750I7125J16166D01*
G01*
Y1841250D02*
G03*
X1084450Y1841250I-7125J-16166D01*
G01*
X1084450Y1814050D02*
G03*
X1070200Y1814050I-7125J-16166D01*
G01*
Y1790550D02*
G03*
X1084450Y1790550I7125J16166D01*
G01*
X1098650Y1814050D02*
G03*
X1084400Y1814050I-7125J-16166D01*
G01*
Y1790550D02*
G03*
X1098650Y1790550I7125J16166D01*
G01*
X1109650Y1786850D02*
G03*
X1095400Y1786850I-7125J-16166D01*
G01*
Y1763350D02*
G03*
X1109650Y1763350I7125J16166D01*
G01*
X1132300Y1799700D02*
G03*
X1110300Y1799700I-11000J-29250D01*
G01*
Y1763200D02*
G03*
X1132300Y1763200I11000J29250D01*
G01*
X1095250Y1787050D02*
G03*
X1081000Y1787050I-7125J-16166D01*
G01*
Y1763550D02*
G03*
X1095250Y1763550I7125J16166D01*
G01*
X1080850Y1787350D02*
G03*
X1066600Y1787350I-7125J-16166D01*
G01*
Y1763850D02*
G03*
X1080850Y1763850I7125J16166D01*
G01*
X950000Y1760000D02*
G03*
X950000Y1745750I16166J-7125D01*
G01*
X973500D02*
G03*
X973500Y1760000I-16166J7125D01*
G01*
X950000Y1745750D02*
G03*
X950000Y1731500I16166J-7125D01*
G01*
X973500D02*
G03*
X973500Y1745750I-16166J7125D01*
G01*
X954750Y1784000D02*
G03*
X954750Y1769750I16166J-7125D01*
G01*
X978250D02*
G03*
X978250Y1784000I-16166J7125D01*
G01*
X976350Y1843550D02*
G03*
X962100Y1843550I-7125J-16166D01*
G01*
Y1820050D02*
G03*
X976350Y1820050I7125J16166D01*
G01*
X990600Y1843550D02*
G03*
X976350Y1843550I-7125J-16166D01*
G01*
Y1820050D02*
G03*
X990600Y1820050I7125J16166D01*
G01*
X1052350Y1745750D02*
G03*
X1066600Y1745750I7125J16166D01*
G01*
Y1769250D02*
G03*
X1052350Y1769250I-7125J-16166D01*
G01*
X992050Y1845250D02*
X1066550D01*
X992050Y1770750D02*
X1066550D01*
X992050D02*
Y1845250D01*
X1066550Y1770750D02*
Y1845250D01*
X1155000Y1805250D02*
Y1880750D01*
Y1805250D02*
X1205500D01*
Y1861500D01*
X1155000Y1880750D02*
X1205500D01*
Y1861500D02*
Y1880750D01*
X1029550Y1591450D02*
Y1614950D01*
X1015300Y1591450D02*
Y1614950D01*
X968750Y1643950D02*
X992250D01*
X968750Y1629700D02*
X992250D01*
X1012900Y1589300D02*
Y1629300D01*
X978900D02*
X1012900D01*
X978900Y1589300D02*
X1012900D01*
X978900D02*
Y1629300D01*
X1035300Y1874900D02*
Y1900400D01*
X1021050Y1874900D02*
Y1900400D01*
X1035300D01*
X1021050Y1874900D02*
X1035300D01*
X1049550D02*
Y1900400D01*
X1035300Y1874900D02*
Y1900400D01*
X1049550D01*
X1035300Y1874900D02*
X1049550D01*
X1021050D02*
Y1900400D01*
X1006800Y1874900D02*
Y1900400D01*
X1021050D01*
X1006800Y1874900D02*
X1021050D01*
X1063800D02*
Y1900400D01*
X1049550Y1874900D02*
Y1900400D01*
X1063800D01*
X1049550Y1874900D02*
X1063800D01*
X963950Y1784250D02*
Y1798500D01*
X938450Y1784250D02*
X963950D01*
X938450D02*
Y1796398D01*
X940552Y1798500D01*
X963950D01*
X1113400Y1802450D02*
Y1827950D01*
X1127650Y1802450D02*
Y1827950D01*
X1113400Y1802450D02*
X1127650D01*
X1113400Y1827950D02*
X1127650D01*
X1037750Y1364750D02*
Y1394500D01*
X983000D02*
X1037750D01*
X983000Y1364750D02*
X1037750D01*
X983000D02*
Y1394500D01*
X1155000Y1720250D02*
Y1795750D01*
Y1720250D02*
X1205500D01*
Y1776500D01*
X1155000Y1795750D02*
X1205500D01*
Y1776500D02*
Y1795750D01*
X945500Y1532500D02*
X982000D01*
X945500Y1510500D02*
X982000D01*
X1034000Y1431500D02*
Y1468000D01*
X1012000Y1431500D02*
Y1468000D01*
X1079500Y1694500D02*
Y1718000D01*
X1065250Y1694500D02*
Y1718000D01*
X1094000Y1694500D02*
Y1718000D01*
X1079750Y1694500D02*
Y1718000D01*
X1045050Y1668000D02*
X1068550D01*
X1045050Y1682250D02*
X1068550D01*
X980500Y1687250D02*
Y1710750D01*
X994750Y1687250D02*
Y1710750D01*
X966500Y1687250D02*
Y1710750D01*
X980750Y1687250D02*
Y1710750D01*
X995500Y1687250D02*
X1019000D01*
X995500Y1673000D02*
X1019000D01*
X862300Y1785200D02*
Y1821700D01*
X884300Y1785200D02*
Y1821700D01*
X938400Y1774250D02*
Y1797750D01*
X924150Y1774250D02*
Y1797750D01*
X884300Y1774350D02*
Y1797850D01*
X898550Y1774350D02*
Y1797850D01*
X1084200Y1817750D02*
Y1841250D01*
X1069950Y1817750D02*
Y1841250D01*
X1098700Y1817750D02*
Y1841250D01*
X1084450Y1817750D02*
Y1841250D01*
X1070200Y1790550D02*
Y1814050D01*
X1084450Y1790550D02*
Y1814050D01*
X1084400Y1790550D02*
Y1814050D01*
X1098650Y1790550D02*
Y1814050D01*
X1095400Y1763350D02*
Y1786850D01*
X1109650Y1763350D02*
Y1786850D01*
X1132300Y1763200D02*
Y1799700D01*
X1110300Y1763200D02*
Y1799700D01*
X1081000Y1763550D02*
Y1787050D01*
X1095250Y1763550D02*
Y1787050D01*
X1066600Y1763850D02*
Y1787350D01*
X1080850Y1763850D02*
Y1787350D01*
X950000Y1745750D02*
X973500D01*
X950000Y1760000D02*
X973500D01*
X950000Y1731500D02*
X973500D01*
X950000Y1745750D02*
X973500D01*
X954750Y1769750D02*
X978250D01*
X954750Y1784000D02*
X978250D01*
X962100Y1820050D02*
Y1843550D01*
X976350Y1820050D02*
Y1843550D01*
X976350Y1820050D02*
Y1843550D01*
X990600Y1820050D02*
Y1843550D01*
X990248Y1416750D02*
X1010748D01*
X990248D02*
Y1466250D01*
X1010748Y1416750D02*
Y1466250D01*
X990248D02*
X1010748D01*
X990250Y1469250D02*
X1010750D01*
X990248Y1466250D02*
Y1469248D01*
X1010748Y1466250D02*
Y1469248D01*
X949000Y1504500D02*
Y1508000D01*
X989000D01*
Y1504500D02*
Y1508000D01*
X949000Y1504500D02*
X989000D01*
Y1438500D02*
Y1504500D01*
X949000Y1438500D02*
Y1504500D01*
Y1438500D02*
X989000D01*
X1153500Y1548249D02*
Y1617249D01*
Y1548249D02*
X1224000D01*
Y1617249D01*
X1153500D02*
X1224000D01*
X1106500Y1453500D02*
Y1524500D01*
X1035500D02*
X1106500D01*
X1035500Y1453500D02*
Y1524250D01*
Y1453500D02*
X1106500D01*
X938652Y1821100D02*
X962050D01*
X936550Y1818998D02*
X938652Y1821100D01*
X936550Y1806850D02*
Y1818998D01*
Y1806850D02*
X962050D01*
Y1821100D01*
X900652Y1798500D02*
X924050D01*
X898550Y1796398D02*
X900652Y1798500D01*
X898550Y1784250D02*
Y1796398D01*
Y1784250D02*
X924050D01*
Y1798500D01*
X971625Y1760000D02*
X975250D01*
X976625Y1761375D01*
Y1769500D01*
X970625D02*
X976625D01*
X961875Y1760000D02*
X971625D01*
X961875D02*
Y1769500D01*
X970625D01*
X952600Y1822550D02*
Y1826175D01*
Y1822550D02*
X953975Y1821175D01*
X962100D01*
Y1827175D01*
X952600Y1826175D02*
Y1835925D01*
X962100D01*
Y1827175D02*
Y1835925D01*
X1033350Y1583450D02*
X1067850D01*
X1033350Y1562950D02*
Y1583450D01*
Y1562950D02*
X1067850D01*
Y1583450D01*
X1033350Y1603950D02*
X1067850D01*
X1033350Y1583450D02*
Y1603950D01*
Y1583450D02*
X1067850D01*
Y1603950D01*
X1033350Y1562950D02*
X1067850D01*
X1033350Y1542450D02*
Y1562950D01*
Y1542450D02*
X1067850D01*
Y1562950D01*
X1110750Y1715250D02*
X1125000D01*
X1110750Y1689750D02*
X1125000D01*
Y1715250D01*
X1110750Y1689750D02*
Y1715250D01*
X1096500D02*
X1110750D01*
X1096500Y1689750D02*
X1110750D01*
Y1715250D01*
X1096500Y1689750D02*
Y1715250D01*
X1125000D02*
X1139250D01*
X1125000Y1689750D02*
X1139250D01*
Y1715250D01*
X1125000Y1689750D02*
Y1715250D01*
X1104500Y1594550D02*
X1118750D01*
X1104500Y1569050D02*
X1118750D01*
Y1594550D01*
X1104500Y1569050D02*
Y1594550D01*
Y1633550D02*
X1118750D01*
X1104500Y1608050D02*
X1118750D01*
Y1633550D01*
X1104500Y1608050D02*
Y1633550D01*
Y1554550D02*
X1118750D01*
X1104500Y1529050D02*
X1118750D01*
Y1554550D01*
X1104500Y1529050D02*
Y1554550D01*
X906000Y1616750D02*
X920250D01*
X906000Y1591250D02*
X920250D01*
Y1616750D01*
X906000Y1591250D02*
Y1616750D01*
X850250Y1623000D02*
X864500D01*
X850250Y1597500D02*
X864500D01*
Y1623000D01*
X850250Y1597500D02*
Y1623000D01*
X895250Y1626000D02*
Y1640250D01*
X920750Y1626000D02*
Y1640250D01*
X895250D02*
X920750D01*
X895250Y1626000D02*
X920750D01*
X904500Y1576750D02*
Y1591000D01*
X879000Y1576750D02*
Y1591000D01*
Y1576750D02*
X904500D01*
X879000Y1591000D02*
X904500D01*
X969800Y1848500D02*
X984050D01*
X969800Y1874000D02*
X984050D01*
X969800Y1848500D02*
Y1874000D01*
X984050Y1848500D02*
Y1874000D01*
X993000Y1506500D02*
X1033000D01*
X993000Y1472500D02*
Y1506500D01*
X1033000Y1472500D02*
Y1506500D01*
X993000Y1472500D02*
X1033000D01*
X1034750Y1717750D02*
X1065250D01*
Y1682250D02*
Y1717750D01*
X1034750Y1682250D02*
Y1717750D01*
Y1682250D02*
X1065250D01*
X994750Y1687250D02*
Y1694750D01*
Y1687250D02*
X1025250D01*
X994750Y1694750D02*
Y1712750D01*
X1025250Y1687250D02*
Y1712750D01*
X994750D02*
X1025250D01*
X1104500Y1569050D02*
Y1605550D01*
X1068000D02*
X1104500D01*
X1068000Y1569050D02*
X1104500D01*
X1068000D02*
Y1605550D01*
X1104500Y1608050D02*
Y1644550D01*
X1068000D02*
X1104500D01*
X1068000Y1608050D02*
X1104500D01*
X1068000D02*
Y1644550D01*
X1104500Y1529050D02*
Y1565550D01*
X1068000D02*
X1104500D01*
X1068000Y1529050D02*
X1104500D01*
X1068000D02*
Y1565550D01*
X879000Y1591000D02*
Y1623000D01*
X903000D01*
Y1591000D02*
Y1623000D01*
X879000Y1591000D02*
X903000D01*
X1113350Y1842950D02*
Y1928450D01*
X1066850D02*
X1113350D01*
X1066850Y1842950D02*
X1113350D01*
X1066850D02*
Y1928450D01*
X1013550Y1848450D02*
Y1873700D01*
X993300Y1873950D02*
X1013550D01*
X1009800Y1848450D02*
X1013550D01*
X984050Y1873950D02*
X993300D01*
X984050Y1848450D02*
X1009800D01*
X984050D02*
Y1873950D01*
X864500Y1597500D02*
X878750D01*
X864500Y1623000D02*
X878750D01*
X864500Y1597500D02*
Y1623000D01*
X878750Y1597500D02*
Y1623000D01*
X1155000Y1634250D02*
Y1709750D01*
Y1634250D02*
X1205500D01*
Y1690500D01*
X1155000Y1709750D02*
X1205500D01*
Y1690500D02*
Y1709750D01*
X1177500Y1516250D02*
Y1548250D01*
X1201500D01*
Y1516250D02*
Y1548250D01*
X1177500Y1516250D02*
X1201500D01*
X1153500D02*
Y1548250D01*
X1177500D01*
Y1516250D02*
Y1548250D01*
X1153500Y1516250D02*
X1177500D01*
X986850Y1559200D02*
X1033350D01*
Y1589200D01*
X986850D02*
X1033100D01*
X986850Y1559450D02*
Y1589200D01*
X855500Y1749000D02*
Y1827500D01*
X777000D02*
X855500D01*
X777000Y1749000D02*
X855500D01*
X777000D02*
Y1827500D01*
X1066600Y1745750D02*
Y1769250D01*
X1052350Y1745750D02*
Y1769250D01*
X1137632Y1437765D02*
X1136799Y1438598D01*
X1135133D01*
X1134300Y1437765D01*
Y1434433D01*
X1135133Y1433600D01*
X1136799D01*
X1137632Y1434433D01*
Y1436099D01*
X1135966D01*
X1139298Y1433600D02*
Y1438598D01*
X1142631Y1433600D01*
Y1438598D01*
X1144297D02*
Y1433600D01*
X1146796D01*
X1147629Y1434433D01*
Y1437765D01*
X1146796Y1438598D01*
X1144297D01*
X919500Y1426198D02*
Y1422866D01*
X921166Y1421200D01*
X922832Y1422866D01*
Y1426198D01*
X924498D02*
Y1421200D01*
X926998D01*
X927831Y1422033D01*
Y1422866D01*
X926998Y1423699D01*
X924498D01*
X926998D01*
X927831Y1424532D01*
Y1425365D01*
X926998Y1426198D01*
X924498D01*
X929497Y1421200D02*
Y1424532D01*
X931163Y1426198D01*
X932829Y1424532D01*
Y1421200D01*
Y1423699D01*
X929497D01*
X934495Y1426198D02*
X937827D01*
X936161D01*
Y1421200D01*
X939493Y1426198D02*
X942826D01*
X941160D01*
Y1421200D01*
X1130600Y1759298D02*
X1132266D01*
X1131433D01*
Y1754300D01*
X1130600D01*
X1132266D01*
X1134765D02*
Y1759298D01*
X1138098Y1754300D01*
Y1759298D01*
X1139764D02*
X1143096D01*
X1141430D01*
Y1754300D01*
X1148094D02*
X1144762D01*
X1148094Y1757632D01*
Y1758465D01*
X1147261Y1759298D01*
X1145595D01*
X1144762Y1758465D01*
X1061900Y1663898D02*
X1063566D01*
X1062733D01*
Y1658900D01*
X1061900D01*
X1063566D01*
X1066065D02*
Y1663898D01*
X1069398Y1658900D01*
Y1663898D01*
X1071064D02*
X1074396D01*
X1072730D01*
Y1658900D01*
X1076062D02*
X1077728D01*
X1076895D01*
Y1663898D01*
X1076062Y1663065D01*
X1028232Y1724265D02*
X1027399Y1725098D01*
X1025733D01*
X1024900Y1724265D01*
Y1720933D01*
X1025733Y1720100D01*
X1027399D01*
X1028232Y1720933D01*
X1033231Y1724265D02*
X1032398Y1725098D01*
X1030731D01*
X1029898Y1724265D01*
Y1723432D01*
X1030731Y1722599D01*
X1032398D01*
X1033231Y1721766D01*
Y1720933D01*
X1032398Y1720100D01*
X1030731D01*
X1029898Y1720933D01*
X1031000Y1636300D02*
Y1641298D01*
X1032666Y1639632D01*
X1034332Y1641298D01*
Y1636300D01*
X1035998Y1641298D02*
X1037664D01*
X1036831D01*
Y1636300D01*
X1035998D01*
X1037664D01*
X1043496Y1640465D02*
X1042663Y1641298D01*
X1040997D01*
X1040164Y1640465D01*
Y1639632D01*
X1040997Y1638799D01*
X1042663D01*
X1043496Y1637966D01*
Y1637133D01*
X1042663Y1636300D01*
X1040997D01*
X1040164Y1637133D01*
X1047661Y1641298D02*
X1045995D01*
X1045162Y1640465D01*
Y1637133D01*
X1045995Y1636300D01*
X1047661D01*
X1048494Y1637133D01*
Y1640465D01*
X1047661Y1641298D01*
X999100Y1638200D02*
Y1643198D01*
X1000766Y1641532D01*
X1002432Y1643198D01*
Y1638200D01*
X1006598Y1643198D02*
X1004931D01*
X1004098Y1642365D01*
Y1639033D01*
X1004931Y1638200D01*
X1006598D01*
X1007431Y1639033D01*
Y1642365D01*
X1006598Y1643198D01*
X1012429Y1642365D02*
X1011596Y1643198D01*
X1009930D01*
X1009097Y1642365D01*
Y1641532D01*
X1009930Y1640699D01*
X1011596D01*
X1012429Y1639866D01*
Y1639033D01*
X1011596Y1638200D01*
X1009930D01*
X1009097Y1639033D01*
X1014095Y1643198D02*
X1015761D01*
X1014928D01*
Y1638200D01*
X1014095D01*
X1015761D01*
X972032Y1679465D02*
X971199Y1680298D01*
X969533D01*
X968700Y1679465D01*
Y1676133D01*
X969533Y1675300D01*
X971199D01*
X972032Y1676133D01*
X973698Y1680298D02*
Y1675300D01*
X977031D01*
X978697Y1680298D02*
Y1675300D01*
Y1676966D01*
X982029Y1680298D01*
X979530Y1677799D01*
X982029Y1675300D01*
X907100Y1656500D02*
Y1659832D01*
X908766Y1661498D01*
X910432Y1659832D01*
Y1656500D01*
Y1658999D01*
X907100D01*
X915431Y1660665D02*
X914597Y1661498D01*
X912931D01*
X912098Y1660665D01*
Y1657333D01*
X912931Y1656500D01*
X914597D01*
X915431Y1657333D01*
X920429Y1660665D02*
X919596Y1661498D01*
X917930D01*
X917097Y1660665D01*
Y1659832D01*
X917930Y1658999D01*
X919596D01*
X920429Y1658166D01*
Y1657333D01*
X919596Y1656500D01*
X917930D01*
X917097Y1657333D01*
X922928Y1656500D02*
Y1661498D01*
X924594D02*
Y1656500D01*
X922095Y1659832D02*
X924594D01*
X925427D01*
X922095Y1658166D02*
X925427D01*
X864000Y1670600D02*
Y1673932D01*
X865666Y1675598D01*
X867332Y1673932D01*
Y1670600D01*
Y1673099D01*
X864000D01*
X868998Y1670600D02*
Y1675598D01*
X870665Y1673932D01*
X872331Y1675598D01*
Y1670600D01*
X873997Y1675598D02*
X875663D01*
X874830D01*
Y1670600D01*
X873997D01*
X875663D01*
X881494Y1674765D02*
X880661Y1675598D01*
X878995D01*
X878162Y1674765D01*
Y1673932D01*
X878995Y1673099D01*
X880661D01*
X881494Y1672266D01*
Y1671433D01*
X880661Y1670600D01*
X878995D01*
X878162Y1671433D01*
X885660Y1675598D02*
X883994D01*
X883160Y1674765D01*
Y1671433D01*
X883994Y1670600D01*
X885660D01*
X886493Y1671433D01*
Y1674765D01*
X885660Y1675598D01*
X874200Y1697600D02*
Y1700932D01*
X875866Y1702598D01*
X877532Y1700932D01*
Y1697600D01*
Y1700099D01*
X874200D01*
X879198Y1697600D02*
Y1702598D01*
X880864Y1700932D01*
X882531Y1702598D01*
Y1697600D01*
X886696Y1702598D02*
X885030D01*
X884197Y1701765D01*
Y1698433D01*
X885030Y1697600D01*
X886696D01*
X887529Y1698433D01*
Y1701765D01*
X886696Y1702598D01*
X892527Y1701765D02*
X891694Y1702598D01*
X890028D01*
X889195Y1701765D01*
Y1700932D01*
X890028Y1700099D01*
X891694D01*
X892527Y1699266D01*
Y1698433D01*
X891694Y1697600D01*
X890028D01*
X889195Y1698433D01*
X894193Y1702598D02*
X895860D01*
X895026D01*
Y1697600D01*
X894193D01*
X895860D01*
X876000Y1726800D02*
Y1730132D01*
X877666Y1731798D01*
X879332Y1730132D01*
Y1726800D01*
Y1729299D01*
X876000D01*
X884331Y1730965D02*
X883497Y1731798D01*
X881831D01*
X880998Y1730965D01*
Y1727633D01*
X881831Y1726800D01*
X883497D01*
X884331Y1727633D01*
X885997Y1731798D02*
Y1726800D01*
X889329D01*
X890995Y1731798D02*
Y1726800D01*
Y1728466D01*
X894327Y1731798D01*
X891828Y1729299D01*
X894327Y1726800D01*
X902800Y1649498D02*
Y1646166D01*
X904466Y1644500D01*
X906132Y1646166D01*
Y1649498D01*
X907798D02*
Y1644500D01*
X911131D01*
X912797Y1649498D02*
Y1644500D01*
X915296D01*
X916129Y1645333D01*
Y1648665D01*
X915296Y1649498D01*
X912797D01*
X920294D02*
X918628D01*
X917795Y1648665D01*
Y1645333D01*
X918628Y1644500D01*
X920294D01*
X921127Y1645333D01*
Y1648665D01*
X920294Y1649498D01*
X627198Y2443409D02*
G03*
X492801Y2356591I-67198J-43409D01*
G01*
X847800Y2100300D02*
G03*
X903521Y2071281I53619J34952D01*
G01*
X768700Y1893300D02*
G03*
X754598Y1949357I-118419J12D01*
G01*
X1265402D02*
G03*
X1251300Y1893300I104316J-56045D01*
G01*
X1116479Y2071281D02*
G03*
X1172200Y2100300I2102J63971D01*
G01*
X1527199Y2356591D02*
G03*
X1392802Y2443409I-67199J43409D01*
G01*
X754598Y1450644D02*
G03*
X768700Y1506700I-104316J56045D01*
G01*
X903521Y1328719D02*
G03*
X847800Y1299700I-2102J-63971D01*
G01*
X492801Y1043409D02*
G03*
X627198Y956591I67199J-43409D01*
G01*
X1251300Y1506700D02*
G03*
X1265402Y1450644I118419J-12D01*
G01*
X1172200Y1299700D02*
G03*
X1116479Y1328719I-53619J-34952D01*
G01*
X1392802Y956591D02*
G03*
X1527199Y1043409I67198J43409D01*
G01*
X627294Y2443260D02*
X847778Y2100286D01*
X492801Y2356591D02*
X754596Y1949355D01*
X1265404D02*
X1527199Y2356591D01*
X1172222Y2100286D02*
X1392706Y2443260D01*
X492801Y1043409D02*
X754596Y1450645D01*
X627294Y956740D02*
X847778Y1299714D01*
X1265404Y1450645D02*
X1527199Y1043409D01*
X1172222Y1299714D02*
X1392706Y956740D01*
X903521Y1328719D02*
X1116479D01*
X768700Y1506700D02*
Y1893300D01*
X903521Y2071281D02*
X1116479D01*
X1251300Y1506700D02*
Y1893300D01*
D69*
X1021700Y1357300D02*
Y1360632D01*
X1025032D01*
Y1357300D01*
X1021700D01*
X1163750Y1625750D02*
X1166249D01*
Y1623251D01*
X1163750D01*
Y1625750D01*
M02*
