G04 Layer_Color=255*
%FSLAX44Y44*%
%MOMM*%
G71*
G01*
G75*
%ADD12C,2.0000*%
%ADD13R,1.0000X0.5500*%
%ADD14R,0.3000X0.6000*%
%ADD15R,5.4000X5.4000*%
%ADD16R,0.3000X0.6500*%
%ADD17R,0.6500X0.3000*%
%ADD18R,1.0000X1.5500*%
%ADD19R,0.7000X0.6000*%
%ADD20R,0.8500X0.7500*%
G04:AMPARAMS|DCode=21|XSize=0.85mm|YSize=0.75mm|CornerRadius=0.1875mm|HoleSize=0mm|Usage=FLASHONLY|Rotation=0.000|XOffset=0mm|YOffset=0mm|HoleType=Round|Shape=RoundedRectangle|*
%AMROUNDEDRECTD21*
21,1,0.8500,0.3750,0,0,0.0*
21,1,0.4750,0.7500,0,0,0.0*
1,1,0.3750,0.2375,-0.1875*
1,1,0.3750,-0.2375,-0.1875*
1,1,0.3750,-0.2375,0.1875*
1,1,0.3750,0.2375,0.1875*
%
%ADD21ROUNDEDRECTD21*%
%ADD22R,1.6000X0.7000*%
%ADD23R,0.8000X0.9000*%
%ADD24R,0.3500X0.3500*%
%ADD25R,0.2500X0.4750*%
%ADD26R,0.4750X0.2500*%
%ADD27R,0.7000X0.5000*%
%ADD28R,0.6000X0.7000*%
%ADD29R,1.1000X1.3000*%
%ADD30R,0.3000X0.2750*%
%ADD31R,0.2750X0.3000*%
%ADD32R,6.3000X2.1500*%
%ADD33O,2.4000X0.7500*%
%ADD34R,2.4000X0.7500*%
%ADD35R,2.1800X2.0000*%
%ADD36R,1.2200X1.2500*%
%ADD37R,1.0000X1.4500*%
%ADD38R,1.4500X1.0000*%
%ADD39R,0.5000X0.7000*%
%ADD45C,0.1000*%
%ADD46C,2.1000*%
%ADD47C,2.3000*%
%ADD48R,1.8000X1.8000*%
%ADD49C,1.8000*%
D12*
X935900Y1642500D02*
D03*
X910000Y1701000D02*
D03*
X900750Y1672500D02*
D03*
X936250Y1669500D02*
D03*
X910000Y1725500D02*
D03*
X1010000Y1658000D02*
D03*
X1033750Y1657500D02*
D03*
X1138250Y1741750D02*
D03*
X1088250Y1674000D02*
D03*
X1019750Y1736250D02*
D03*
X975000Y1662500D02*
D03*
X1078000Y1436750D02*
D03*
X1067500Y1379500D02*
D03*
X930750Y1440750D02*
D03*
X952500Y1379500D02*
D03*
X1140500Y1452000D02*
D03*
X1177200Y2024700D02*
D03*
X819250Y1405000D02*
D03*
X1233000Y1451700D02*
D03*
X903500Y2022750D02*
D03*
D13*
X995600Y1565700D02*
D03*
Y1574200D02*
D03*
Y1582700D02*
D03*
X1024600D02*
D03*
Y1574200D02*
D03*
Y1565700D02*
D03*
D14*
X1172000Y1541750D02*
D03*
X1165500D02*
D03*
X1172000Y1522750D02*
D03*
X1165500D02*
D03*
X1159000Y1541750D02*
D03*
Y1522750D02*
D03*
X1196000Y1541750D02*
D03*
X1189500D02*
D03*
X1196000Y1522750D02*
D03*
X1189500D02*
D03*
X1183000Y1541750D02*
D03*
Y1522750D02*
D03*
X897500Y1616500D02*
D03*
X891000D02*
D03*
X897500Y1597500D02*
D03*
X891000D02*
D03*
X884500Y1616500D02*
D03*
Y1597500D02*
D03*
D15*
X1028500Y1808000D02*
D03*
D16*
X1021000Y1774250D02*
D03*
X1041000Y1841750D02*
D03*
X1011000Y1774250D02*
D03*
X1006000D02*
D03*
X1001000Y1841750D02*
D03*
X1056000D02*
D03*
X1051000D02*
D03*
X1046000D02*
D03*
X1016000Y1774250D02*
D03*
X1031000Y1841750D02*
D03*
X1036000Y1774250D02*
D03*
X1026000Y1841750D02*
D03*
Y1774250D02*
D03*
X1036000Y1841750D02*
D03*
X1031000Y1774250D02*
D03*
X1016000Y1841750D02*
D03*
X1046000Y1774250D02*
D03*
X1051000D02*
D03*
X1056000D02*
D03*
X1001000D02*
D03*
X1006000Y1841750D02*
D03*
X1011000D02*
D03*
X1041000Y1774250D02*
D03*
X1021000Y1841750D02*
D03*
D17*
X994750Y1810500D02*
D03*
Y1815500D02*
D03*
Y1795500D02*
D03*
X1062250Y1790500D02*
D03*
X994750Y1785500D02*
D03*
Y1780500D02*
D03*
X1062250Y1835500D02*
D03*
Y1830500D02*
D03*
Y1825500D02*
D03*
Y1820500D02*
D03*
Y1800500D02*
D03*
Y1805500D02*
D03*
X994750D02*
D03*
Y1800500D02*
D03*
Y1820500D02*
D03*
Y1825500D02*
D03*
Y1830500D02*
D03*
Y1835500D02*
D03*
X1062250Y1780500D02*
D03*
Y1785500D02*
D03*
X994750Y1790500D02*
D03*
X1062250Y1795500D02*
D03*
Y1815500D02*
D03*
Y1810500D02*
D03*
D18*
X1196250Y1645750D02*
D03*
Y1698250D02*
D03*
X1164250D02*
D03*
Y1645750D02*
D03*
X1196250Y1816750D02*
D03*
Y1869250D02*
D03*
X1164250D02*
D03*
Y1816750D02*
D03*
X1196250Y1731750D02*
D03*
Y1784250D02*
D03*
X1164250D02*
D03*
Y1731750D02*
D03*
D19*
X871750Y1604750D02*
D03*
Y1615750D02*
D03*
X971750Y1858250D02*
D03*
Y1869250D02*
D03*
X857250Y1615750D02*
D03*
Y1604750D02*
D03*
X913000Y1609500D02*
D03*
Y1598500D02*
D03*
X1111500Y1547300D02*
D03*
Y1536300D02*
D03*
Y1626300D02*
D03*
Y1615300D02*
D03*
Y1587300D02*
D03*
Y1576300D02*
D03*
X1132000Y1708000D02*
D03*
Y1697000D02*
D03*
X1103500Y1708000D02*
D03*
Y1697000D02*
D03*
X1117750Y1708000D02*
D03*
Y1697000D02*
D03*
X1041000Y1748250D02*
D03*
Y1737250D02*
D03*
X977750Y1830000D02*
D03*
Y1841000D02*
D03*
X963500Y1830000D02*
D03*
Y1841000D02*
D03*
X1055000Y1737250D02*
D03*
Y1748250D02*
D03*
X1069250Y1737500D02*
D03*
Y1748500D02*
D03*
X1100750Y1778750D02*
D03*
Y1789750D02*
D03*
X1086250Y1778750D02*
D03*
Y1789750D02*
D03*
X1100750Y1818000D02*
D03*
Y1807000D02*
D03*
X1086500Y1818000D02*
D03*
Y1807000D02*
D03*
X904750Y1780500D02*
D03*
Y1791500D02*
D03*
X944750Y1791000D02*
D03*
Y1780000D02*
D03*
X973500Y1693500D02*
D03*
Y1704500D02*
D03*
X987500Y1693500D02*
D03*
Y1704500D02*
D03*
X1087000Y1711750D02*
D03*
Y1700750D02*
D03*
X1072500Y1711750D02*
D03*
Y1700750D02*
D03*
X1123250Y1807000D02*
D03*
Y1818000D02*
D03*
X1064000Y1890750D02*
D03*
Y1879750D02*
D03*
X1021250Y1890750D02*
D03*
Y1879750D02*
D03*
X1049750Y1890750D02*
D03*
Y1879750D02*
D03*
X1035500Y1890750D02*
D03*
Y1879750D02*
D03*
X1022300Y1608700D02*
D03*
Y1597700D02*
D03*
D20*
X986750Y1869000D02*
D03*
X1000250Y1858500D02*
D03*
Y1869000D02*
D03*
D21*
X986750Y1858500D02*
D03*
D22*
X1084000Y1846750D02*
D03*
X1107000Y1901750D02*
D03*
Y1846750D02*
D03*
X1084000Y1901750D02*
D03*
D23*
X1096250Y1556800D02*
D03*
Y1537800D02*
D03*
X1076250Y1547300D02*
D03*
X1096250Y1635800D02*
D03*
Y1616800D02*
D03*
X1076250Y1626300D02*
D03*
X1096250Y1596800D02*
D03*
Y1577800D02*
D03*
X1076250Y1587300D02*
D03*
D24*
X1019750Y1707250D02*
D03*
Y1692750D02*
D03*
X1000250Y1707250D02*
D03*
Y1692750D02*
D03*
X1013250Y1707250D02*
D03*
Y1692750D02*
D03*
X1006750Y1707250D02*
D03*
Y1692750D02*
D03*
D25*
X1057500Y1711625D02*
D03*
X1052500D02*
D03*
X1047500D02*
D03*
X1042500D02*
D03*
Y1688380D02*
D03*
X1047500D02*
D03*
X1052500D02*
D03*
X1057500D02*
D03*
D26*
X1040875Y1705000D02*
D03*
Y1695000D02*
D03*
Y1700000D02*
D03*
X1059130D02*
D03*
Y1695000D02*
D03*
Y1705000D02*
D03*
D27*
X1000000Y1499000D02*
D03*
Y1489500D02*
D03*
Y1480000D02*
D03*
X1026000Y1499000D02*
D03*
Y1480000D02*
D03*
D28*
X897250Y1584000D02*
D03*
X886250D02*
D03*
X902500Y1633000D02*
D03*
X913500D02*
D03*
X930252Y1791002D02*
D03*
X919252D02*
D03*
X940252Y1813502D02*
D03*
X929252D02*
D03*
X972000Y1776750D02*
D03*
X961000D02*
D03*
X967250Y1738500D02*
D03*
X956250D02*
D03*
X967250Y1752750D02*
D03*
X956250D02*
D03*
X1097250Y1763250D02*
D03*
X1086250D02*
D03*
X1001750Y1680250D02*
D03*
X1012750D02*
D03*
X1062300Y1675000D02*
D03*
X1051300D02*
D03*
X959002Y1791252D02*
D03*
X970002D02*
D03*
X975000Y1636700D02*
D03*
X986000D02*
D03*
D29*
X1042600Y1552700D02*
D03*
X1058600D02*
D03*
X1042600Y1593700D02*
D03*
X1058600D02*
D03*
X1042600Y1573200D02*
D03*
X1058600D02*
D03*
D30*
X951750Y1829625D02*
D03*
Y1834905D02*
D03*
D31*
X971875Y1764750D02*
D03*
X966595D02*
D03*
D32*
X1071000Y1468250D02*
D03*
Y1509750D02*
D03*
D33*
X1208250Y1608149D02*
D03*
X1169250Y1582750D02*
D03*
Y1595449D02*
D03*
X1208250Y1595149D02*
D03*
X1169250Y1570050D02*
D03*
Y1557351D02*
D03*
X1208250D02*
D03*
Y1570050D02*
D03*
Y1582750D02*
D03*
D34*
X1169250Y1608149D02*
D03*
D35*
X969000Y1490500D02*
D03*
Y1452500D02*
D03*
D36*
X1000500Y1426750D02*
D03*
X1000498Y1456250D02*
D03*
D37*
X1086000Y1745250D02*
D03*
X1106500D02*
D03*
X952750Y1521500D02*
D03*
X973250D02*
D03*
D38*
X886750Y1792250D02*
D03*
Y1812750D02*
D03*
X1023000Y1460750D02*
D03*
Y1440250D02*
D03*
D39*
X1005400Y1622300D02*
D03*
X986400D02*
D03*
X1005400Y1596300D02*
D03*
X995900D02*
D03*
X986400D02*
D03*
D45*
X1392802Y956591D02*
G03*
X1527199Y1043409I67198J43409D01*
G01*
X1172200Y1299700D02*
G03*
X1116479Y1328719I-53619J-34952D01*
G01*
X1251300Y1506700D02*
G03*
X1265402Y1450644I118419J-12D01*
G01*
X492801Y1043409D02*
G03*
X627198Y956591I67199J-43409D01*
G01*
X903521Y1328719D02*
G03*
X847800Y1299700I-2102J-63971D01*
G01*
X754598Y1450644D02*
G03*
X768700Y1506700I-104316J56045D01*
G01*
X1527199Y2356591D02*
G03*
X1392802Y2443409I-67199J43409D01*
G01*
X1116479Y2071281D02*
G03*
X1172200Y2100300I2102J63971D01*
G01*
X1265402Y1949357D02*
G03*
X1251300Y1893300I104316J-56045D01*
G01*
X768700D02*
G03*
X754598Y1949357I-118419J12D01*
G01*
X847800Y2100300D02*
G03*
X903521Y2071281I53619J34952D01*
G01*
X627198Y2443409D02*
G03*
X492801Y2356591I-67198J-43409D01*
G01*
X1251300Y1506700D02*
Y1893300D01*
X903521Y2071281D02*
X1116479D01*
X768700Y1506700D02*
Y1893300D01*
X903521Y1328719D02*
X1116479D01*
X1172222Y1299714D02*
X1392706Y956740D01*
X1265404Y1450645D02*
X1527199Y1043409D01*
X627294Y956740D02*
X847778Y1299714D01*
X492801Y1043409D02*
X754596Y1450645D01*
X1172222Y2100286D02*
X1392706Y2443260D01*
X1265404Y1949355D02*
X1527199Y2356591D01*
X492801D02*
X754596Y1949355D01*
X627294Y2443260D02*
X847778Y2100286D01*
D46*
X816250Y1788250D02*
D03*
D47*
X790850Y1813650D02*
D03*
X841650Y1762850D02*
D03*
X790850D02*
D03*
X841650Y1813650D02*
D03*
D48*
X1022700Y1379500D02*
D03*
D49*
X997300D02*
D03*
M02*
