G04 Layer_Physical_Order=4*
G04 Layer_Color=16711680*
%FSLAX44Y44*%
%MOMM*%
G71*
G01*
G75*
%ADD10C,3.0000*%
%ADD17R,0.7000X0.6000*%
%ADD40C,0.3000*%
%ADD41C,0.1500*%
%ADD42C,0.2000*%
%ADD43C,0.2500*%
%ADD46C,0.1000*%
%ADD47C,1.8000*%
%ADD48R,1.8000X1.8000*%
%ADD49C,2.3000*%
%ADD50C,2.1000*%
%ADD51C,0.7000*%
%ADD52C,0.4500*%
%ADD53C,0.5000*%
G04:AMPARAMS|DCode=54|XSize=5mm|YSize=2mm|CornerRadius=0mm|HoleSize=0mm|Usage=FLASHONLY|Rotation=122.735|XOffset=0mm|YOffset=0mm|HoleType=Round|Shape=Rectangle|*
%AMROTATEDRECTD54*
4,1,4,2.1931,-1.5622,0.5107,-2.6437,-2.1931,1.5622,-0.5107,2.6437,2.1931,-1.5622,0.0*
%
%ADD54ROTATEDRECTD54*%

G04:AMPARAMS|DCode=55|XSize=5mm|YSize=2mm|CornerRadius=0mm|HoleSize=0mm|Usage=FLASHONLY|Rotation=57.265|XOffset=0mm|YOffset=0mm|HoleType=Round|Shape=Rectangle|*
%AMROTATEDRECTD55*
4,1,4,-0.5107,-2.6437,-2.1931,-1.5622,0.5107,2.6437,2.1931,1.5622,-0.5107,-2.6437,0.0*
%
%ADD55ROTATEDRECTD55*%

G04:AMPARAMS|DCode=56|XSize=1mm|YSize=1.45mm|CornerRadius=0mm|HoleSize=0mm|Usage=FLASHONLY|Rotation=32.735|XOffset=0mm|YOffset=0mm|HoleType=Round|Shape=Rectangle|*
%AMROTATEDRECTD56*
4,1,4,-0.0285,-0.8802,-0.8126,0.3395,0.0285,0.8802,0.8126,-0.3395,-0.0285,-0.8802,0.0*
%
%ADD56ROTATEDRECTD56*%

G04:AMPARAMS|DCode=57|XSize=1mm|YSize=1.45mm|CornerRadius=0mm|HoleSize=0mm|Usage=FLASHONLY|Rotation=32.735|XOffset=0mm|YOffset=0mm|HoleType=Round|Shape=Rectangle|*
%AMROTATEDRECTD57*
4,1,4,-0.0285,-0.8802,-0.8126,0.3395,0.0285,0.8802,0.8126,-0.3395,-0.0285,-0.8802,0.0*
%
%ADD57ROTATEDRECTD57*%

G04:AMPARAMS|DCode=58|XSize=0.6mm|YSize=0.7mm|CornerRadius=0mm|HoleSize=0mm|Usage=FLASHONLY|Rotation=32.735|XOffset=0mm|YOffset=0mm|HoleType=Round|Shape=Rectangle|*
%AMROTATEDRECTD58*
4,1,4,-0.0631,-0.4566,-0.4416,0.1322,0.0631,0.4566,0.4416,-0.1322,-0.0631,-0.4566,0.0*
%
%ADD58ROTATEDRECTD58*%

G04:AMPARAMS|DCode=59|XSize=1mm|YSize=1.45mm|CornerRadius=0mm|HoleSize=0mm|Usage=FLASHONLY|Rotation=147.265|XOffset=0mm|YOffset=0mm|HoleType=Round|Shape=Rectangle|*
%AMROTATEDRECTD59*
4,1,4,0.8126,0.3395,0.0285,-0.8802,-0.8126,-0.3395,-0.0285,0.8802,0.8126,0.3395,0.0*
%
%ADD59ROTATEDRECTD59*%

G04:AMPARAMS|DCode=60|XSize=0.6mm|YSize=0.7mm|CornerRadius=0mm|HoleSize=0mm|Usage=FLASHONLY|Rotation=147.265|XOffset=0mm|YOffset=0mm|HoleType=Round|Shape=Rectangle|*
%AMROTATEDRECTD60*
4,1,4,0.4416,0.1322,0.0631,-0.4566,-0.4416,-0.1322,-0.0631,0.4566,0.4416,0.1322,0.0*
%
%ADD60ROTATEDRECTD60*%

G04:AMPARAMS|DCode=61|XSize=2mm|YSize=3.6mm|CornerRadius=0mm|HoleSize=0mm|Usage=FLASHONLY|Rotation=32.735|XOffset=0mm|YOffset=0mm|HoleType=Round|Shape=Rectangle|*
%AMROTATEDRECTD61*
4,1,4,0.1322,-2.0549,-1.8145,0.9734,-0.1322,2.0549,1.8145,-0.9734,0.1322,-2.0549,0.0*
%
%ADD61ROTATEDRECTD61*%

G04:AMPARAMS|DCode=62|XSize=2mm|YSize=3.6mm|CornerRadius=0mm|HoleSize=0mm|Usage=FLASHONLY|Rotation=147.265|XOffset=0mm|YOffset=0mm|HoleType=Round|Shape=Rectangle|*
%AMROTATEDRECTD62*
4,1,4,1.8145,0.9734,-0.1322,-2.0549,-1.8145,-0.9734,0.1322,2.0549,1.8145,0.9734,0.0*
%
%ADD62ROTATEDRECTD62*%

G04:AMPARAMS|DCode=63|XSize=0.6mm|YSize=0.7mm|CornerRadius=0mm|HoleSize=0mm|Usage=FLASHONLY|Rotation=32.735|XOffset=0mm|YOffset=0mm|HoleType=Round|Shape=Rectangle|*
%AMROTATEDRECTD63*
4,1,4,-0.0631,-0.4566,-0.4416,0.1322,0.0631,0.4566,0.4416,-0.1322,-0.0631,-0.4566,0.0*
%
%ADD63ROTATEDRECTD63*%

G04:AMPARAMS|DCode=64|XSize=0.7mm|YSize=0.45mm|CornerRadius=0mm|HoleSize=0mm|Usage=FLASHONLY|Rotation=32.735|XOffset=0mm|YOffset=0mm|HoleType=Round|Shape=Rectangle|*
%AMROTATEDRECTD64*
4,1,4,-0.1727,-0.3785,-0.4161,0.0000,0.1727,0.3785,0.4161,0.0000,-0.1727,-0.3785,0.0*
%
%ADD64ROTATEDRECTD64*%

G04:AMPARAMS|DCode=65|XSize=0.7mm|YSize=0.45mm|CornerRadius=0.1575mm|HoleSize=0mm|Usage=FLASHONLY|Rotation=32.735|XOffset=0mm|YOffset=0mm|HoleType=Round|Shape=RoundedRectangle|*
%AMROUNDEDRECTD65*
21,1,0.7000,0.1350,0,0,32.7*
21,1,0.3850,0.4500,0,0,32.7*
1,1,0.3150,0.1984,0.0473*
1,1,0.3150,-0.1254,-0.1609*
1,1,0.3150,-0.1984,-0.0473*
1,1,0.3150,0.1254,0.1609*
%
%ADD65ROUNDEDRECTD65*%
G04:AMPARAMS|DCode=66|XSize=0.7mm|YSize=0.45mm|CornerRadius=0mm|HoleSize=0mm|Usage=FLASHONLY|Rotation=327.265|XOffset=0mm|YOffset=0mm|HoleType=Round|Shape=Rectangle|*
%AMROTATEDRECTD66*
4,1,4,-0.4161,0.0000,-0.1727,0.3785,0.4161,0.0000,0.1727,-0.3785,-0.4161,0.0000,0.0*
%
%ADD66ROTATEDRECTD66*%

G04:AMPARAMS|DCode=67|XSize=0.7mm|YSize=0.45mm|CornerRadius=0.1575mm|HoleSize=0mm|Usage=FLASHONLY|Rotation=327.265|XOffset=0mm|YOffset=0mm|HoleType=Round|Shape=RoundedRectangle|*
%AMROUNDEDRECTD67*
21,1,0.7000,0.1350,0,0,327.3*
21,1,0.3850,0.4500,0,0,327.3*
1,1,0.3150,0.1254,-0.1609*
1,1,0.3150,-0.1984,0.0473*
1,1,0.3150,-0.1254,0.1609*
1,1,0.3150,0.1984,-0.0473*
%
%ADD67ROUNDEDRECTD67*%
%ADD68C,3.0000*%
G36*
X1468677Y2477008D02*
X1477244Y2475552D01*
X1485595Y2473146D01*
X1493624Y2469821D01*
X1501230Y2465617D01*
X1508317Y2460588D01*
X1514797Y2454797D01*
X1520588Y2448317D01*
X1525617Y2441230D01*
X1529821Y2433624D01*
X1533146Y2425595D01*
X1535552Y2417244D01*
X1537008Y2408677D01*
X1537495Y2400000D01*
X1537008Y2391323D01*
X1535552Y2382756D01*
X1533146Y2374405D01*
X1529821Y2366376D01*
X1525757Y2359023D01*
X1525054Y2357977D01*
X1525054Y2357977D01*
X1524372Y2356908D01*
X1263260Y1950733D01*
X1263170Y1950504D01*
X1260025Y1944463D01*
X1255984Y1934707D01*
X1252809Y1924637D01*
X1250524Y1914329D01*
X1249145Y1903860D01*
X1248740Y1894570D01*
X1248685Y1893311D01*
X1248685Y1893300D01*
X1248751Y1892057D01*
Y1507943D01*
X1248685Y1506700D01*
X1248685Y1506689D01*
X1248739Y1505452D01*
X1249145Y1496140D01*
X1250524Y1485671D01*
X1252809Y1475363D01*
X1255984Y1465293D01*
X1260025Y1455537D01*
X1263170Y1449496D01*
X1263260Y1449267D01*
X1524372Y1043092D01*
X1525054Y1042023D01*
Y1042023D01*
X1525054D01*
X1525757Y1040977D01*
X1529821Y1033624D01*
X1533146Y1025595D01*
X1535552Y1017244D01*
X1537008Y1008677D01*
X1537495Y1000000D01*
X1537008Y991323D01*
X1535552Y982756D01*
X1533146Y974405D01*
X1529821Y966376D01*
X1525617Y958770D01*
X1520588Y951683D01*
X1514797Y945203D01*
X1508317Y939412D01*
X1501230Y934383D01*
X1493624Y930179D01*
X1485595Y926854D01*
X1477244Y924448D01*
X1468677Y922992D01*
X1460000Y922505D01*
X1451323Y922992D01*
X1442756Y924448D01*
X1434405Y926854D01*
X1426376Y930179D01*
X1418770Y934383D01*
X1411683Y939412D01*
X1405203Y945203D01*
X1399412Y951683D01*
X1394946Y957976D01*
X1394946Y957976D01*
X1394256Y959042D01*
X1174366Y1301093D01*
X1174260Y1301202D01*
X1170658Y1306279D01*
X1165681Y1311848D01*
X1160111Y1316826D01*
X1154019Y1321148D01*
X1147482Y1324762D01*
X1140581Y1327620D01*
X1133403Y1329688D01*
X1126039Y1330939D01*
X1118580Y1331358D01*
X1116587Y1331246D01*
X1116479Y1331268D01*
X903521D01*
X903412Y1331246D01*
X901420Y1331358D01*
X893961Y1330939D01*
X886597Y1329688D01*
X879419Y1327620D01*
X872518Y1324762D01*
X865981Y1321148D01*
X859889Y1316826D01*
X854319Y1311848D01*
X849341Y1306279D01*
X845740Y1301202D01*
X845634Y1301093D01*
X625744Y959042D01*
X625053Y957976D01*
X625053D01*
X625053Y957976D01*
X620588Y951683D01*
X614797Y945203D01*
X608317Y939412D01*
X601230Y934383D01*
X593624Y930179D01*
X585595Y926854D01*
X577244Y924448D01*
X568677Y922992D01*
X560000Y922505D01*
X551323Y922992D01*
X542756Y924448D01*
X534405Y926854D01*
X526376Y930179D01*
X518770Y934383D01*
X511683Y939412D01*
X505203Y945203D01*
X499412Y951683D01*
X494383Y958770D01*
X490179Y966376D01*
X486854Y974405D01*
X484448Y982756D01*
X482992Y991323D01*
X482505Y1000000D01*
X482992Y1008677D01*
X484448Y1017244D01*
X486854Y1025595D01*
X490179Y1033624D01*
X494243Y1040977D01*
X494946Y1042023D01*
X494946Y1042023D01*
X495628Y1043092D01*
X756740Y1449267D01*
X756830Y1449496D01*
X759975Y1455537D01*
X764016Y1465293D01*
X767191Y1475363D01*
X769476Y1485671D01*
X770855Y1496140D01*
X771260Y1505430D01*
X771315Y1506689D01*
X771315Y1506700D01*
X771249Y1507943D01*
Y1892057D01*
X771315Y1893300D01*
X771315Y1893311D01*
X771261Y1894547D01*
X770855Y1903860D01*
X769476Y1914329D01*
X767191Y1924637D01*
X764016Y1934707D01*
X759975Y1944463D01*
X756830Y1950504D01*
X756740Y1950733D01*
X495628Y2356908D01*
X494946Y2357977D01*
Y2357977D01*
X494946D01*
X494243Y2359023D01*
X490179Y2366376D01*
X486854Y2374405D01*
X484448Y2382756D01*
X482992Y2391323D01*
X482505Y2400000D01*
X482992Y2408677D01*
X484448Y2417244D01*
X486854Y2425595D01*
X490179Y2433624D01*
X494383Y2441230D01*
X499412Y2448317D01*
X505203Y2454797D01*
X511683Y2460588D01*
X518770Y2465617D01*
X526376Y2469821D01*
X534405Y2473146D01*
X542756Y2475552D01*
X551323Y2477008D01*
X560000Y2477495D01*
X568677Y2477008D01*
X577244Y2475552D01*
X585595Y2473146D01*
X593624Y2469821D01*
X601230Y2465617D01*
X608317Y2460588D01*
X614797Y2454797D01*
X620588Y2448317D01*
X625053Y2442024D01*
X625053Y2442024D01*
X625744Y2440958D01*
X845634Y2098907D01*
X845740Y2098798D01*
X849341Y2093721D01*
X854319Y2088152D01*
X859889Y2083174D01*
X865981Y2078852D01*
X872518Y2075238D01*
X879419Y2072380D01*
X886597Y2070312D01*
X893961Y2069061D01*
X901420Y2068642D01*
X903412Y2068754D01*
X903521Y2068732D01*
X1116479D01*
X1116587Y2068754D01*
X1118580Y2068642D01*
X1126039Y2069061D01*
X1133403Y2070312D01*
X1140581Y2072380D01*
X1147482Y2075238D01*
X1154019Y2078852D01*
X1160111Y2083174D01*
X1165681Y2088152D01*
X1170658Y2093721D01*
X1174260Y2098798D01*
X1174366Y2098907D01*
X1394256Y2440958D01*
X1394946Y2442024D01*
X1394946D01*
X1394946Y2442024D01*
X1399412Y2448317D01*
X1405203Y2454797D01*
X1411683Y2460588D01*
X1418770Y2465617D01*
X1426376Y2469821D01*
X1434405Y2473146D01*
X1442756Y2475552D01*
X1451323Y2477008D01*
X1460000Y2477495D01*
X1468677Y2477008D01*
D02*
G37*
%LPC*%
G36*
X1196250Y1663083D02*
X1194592Y1662753D01*
X1193186Y1661814D01*
X1192247Y1660408D01*
X1191917Y1658750D01*
X1192247Y1657092D01*
X1193186Y1655686D01*
X1194592Y1654747D01*
X1196250Y1654417D01*
X1197908Y1654747D01*
X1199314Y1655686D01*
X1200253Y1657092D01*
X1200583Y1658750D01*
X1200253Y1660408D01*
X1199314Y1661814D01*
X1197908Y1662753D01*
X1196250Y1663083D01*
D02*
G37*
G36*
X875391Y1677069D02*
X873245Y1676642D01*
X871426Y1675427D01*
X870210Y1673607D01*
X869784Y1671461D01*
X870210Y1669315D01*
X871426Y1667496D01*
X873245Y1666280D01*
X875391Y1665854D01*
X877537Y1666280D01*
X879357Y1667496D01*
X880572Y1669315D01*
X880999Y1671461D01*
X880572Y1673607D01*
X879357Y1675427D01*
X877537Y1676642D01*
X875391Y1677069D01*
D02*
G37*
G36*
X1171000Y1678033D02*
X1169342Y1677703D01*
X1167936Y1676764D01*
X1166997Y1675358D01*
X1166667Y1673700D01*
X1166997Y1672042D01*
X1167936Y1670636D01*
X1169342Y1669697D01*
X1171000Y1669367D01*
X1172658Y1669697D01*
X1174064Y1670636D01*
X1175003Y1672042D01*
X1175333Y1673700D01*
X1175003Y1675358D01*
X1174064Y1676764D01*
X1172658Y1677703D01*
X1171000Y1678033D01*
D02*
G37*
G36*
X1170700Y1628933D02*
X1169042Y1628603D01*
X1167636Y1627664D01*
X1166697Y1626258D01*
X1166367Y1624600D01*
X1166697Y1622942D01*
X1167636Y1621536D01*
X1169042Y1620597D01*
X1170700Y1620267D01*
X1172358Y1620597D01*
X1173764Y1621536D01*
X1174703Y1622942D01*
X1175033Y1624600D01*
X1174703Y1626258D01*
X1173764Y1627664D01*
X1172358Y1628603D01*
X1170700Y1628933D01*
D02*
G37*
G36*
X875391Y1637069D02*
X873245Y1636642D01*
X871426Y1635426D01*
X870210Y1633607D01*
X869784Y1631461D01*
X870210Y1629315D01*
X871426Y1627496D01*
X873245Y1626280D01*
X875391Y1625853D01*
X877537Y1626280D01*
X879357Y1627496D01*
X880572Y1629315D01*
X880999Y1631461D01*
X880572Y1633607D01*
X879357Y1635426D01*
X877537Y1636642D01*
X875391Y1637069D01*
D02*
G37*
G36*
X885391Y1657069D02*
X883245Y1656642D01*
X881426Y1655427D01*
X880210Y1653607D01*
X879784Y1651461D01*
X880210Y1649315D01*
X881426Y1647496D01*
X883245Y1646280D01*
X885391Y1645854D01*
X887537Y1646280D01*
X889357Y1647496D01*
X890572Y1649315D01*
X890999Y1651461D01*
X890572Y1653607D01*
X889357Y1655427D01*
X887537Y1656642D01*
X885391Y1657069D01*
D02*
G37*
G36*
X875391Y1757069D02*
X873245Y1756642D01*
X871426Y1755427D01*
X870210Y1753607D01*
X869784Y1751461D01*
X870210Y1749315D01*
X871426Y1747496D01*
X873245Y1746281D01*
X875391Y1745854D01*
X877537Y1746281D01*
X879357Y1747496D01*
X880572Y1749315D01*
X880999Y1751461D01*
X880572Y1753607D01*
X879357Y1755427D01*
X877537Y1756642D01*
X875391Y1757069D01*
D02*
G37*
G36*
X1159000Y1890304D02*
X965750D01*
X964677Y1890090D01*
X963767Y1889483D01*
X960017Y1885733D01*
X959410Y1884823D01*
X959196Y1883750D01*
Y1882139D01*
X899800D01*
X899020Y1881984D01*
X898358Y1881542D01*
X897916Y1880880D01*
X897761Y1880100D01*
Y1803003D01*
X897197Y1802158D01*
X896867Y1800500D01*
X897197Y1798842D01*
X897761Y1797997D01*
Y1784627D01*
X897642Y1784603D01*
X896236Y1783664D01*
X895297Y1782258D01*
X894967Y1780600D01*
X895297Y1778942D01*
X896236Y1777536D01*
X897642Y1776597D01*
X897761Y1776573D01*
Y1628448D01*
X897036Y1627964D01*
X896097Y1626558D01*
X895767Y1624900D01*
X896097Y1623242D01*
X897036Y1621836D01*
X897761Y1621352D01*
Y1601569D01*
X895000D01*
X893634Y1601297D01*
X892477Y1600523D01*
X879878Y1587925D01*
X879465Y1587965D01*
X877646Y1589181D01*
X875500Y1589608D01*
X873354Y1589181D01*
X871535Y1587965D01*
X870319Y1586146D01*
X869892Y1584000D01*
X870319Y1581854D01*
X871535Y1580035D01*
X873354Y1578819D01*
X875500Y1578392D01*
X877646Y1578819D01*
X879465Y1580035D01*
X879730Y1580431D01*
X881000D01*
X882366Y1580703D01*
X883523Y1581477D01*
X896478Y1594431D01*
X897761D01*
Y1453100D01*
X897916Y1452320D01*
X898358Y1451658D01*
X899020Y1451216D01*
X899800Y1451061D01*
X1011101Y1451061D01*
X1011159Y1451072D01*
X1011219Y1451064D01*
X1011548Y1451150D01*
X1011881Y1451216D01*
X1011931Y1451249D01*
X1011989Y1451264D01*
X1012373Y1451450D01*
X1012410Y1451478D01*
X1012454Y1451492D01*
X1012726Y1451717D01*
X1013008Y1451930D01*
X1014220Y1452116D01*
X1015000Y1451961D01*
X1112000Y1451961D01*
X1112780Y1452116D01*
X1113011Y1452270D01*
X1113151Y1452164D01*
X1115011Y1451264D01*
X1115069Y1451249D01*
X1115119Y1451216D01*
X1115452Y1451150D01*
X1115781Y1451064D01*
X1115841Y1451072D01*
X1115899Y1451061D01*
X1155432Y1451061D01*
X1155892Y1450500D01*
X1156319Y1448354D01*
X1157535Y1446535D01*
X1159354Y1445319D01*
X1161500Y1444892D01*
X1163646Y1445319D01*
X1165465Y1446535D01*
X1166681Y1448354D01*
X1167108Y1450500D01*
X1166681Y1452646D01*
X1166015Y1453642D01*
X1166076Y1453734D01*
X1166231Y1454514D01*
Y1509538D01*
X1167646Y1509819D01*
X1169465Y1511035D01*
X1170681Y1512854D01*
X1171108Y1515000D01*
X1170681Y1517146D01*
X1169465Y1518965D01*
X1167646Y1520181D01*
X1166231Y1520462D01*
Y1597096D01*
X1173239D01*
X1183567Y1586767D01*
X1184477Y1586160D01*
X1185550Y1585946D01*
X1191762D01*
X1191936Y1585686D01*
X1193342Y1584747D01*
X1195000Y1584417D01*
X1196658Y1584747D01*
X1198064Y1585686D01*
X1199003Y1587092D01*
X1199333Y1588750D01*
X1199003Y1590408D01*
X1198064Y1591814D01*
X1196658Y1592753D01*
X1195000Y1593083D01*
X1193342Y1592753D01*
X1191936Y1591814D01*
X1191762Y1591554D01*
X1186711D01*
X1176383Y1601883D01*
X1175473Y1602490D01*
X1174400Y1602704D01*
X1154741D01*
X1152806Y1604638D01*
X1153224Y1606016D01*
X1154246Y1606219D01*
X1156065Y1607435D01*
X1157281Y1609254D01*
X1157708Y1611400D01*
X1157615Y1611868D01*
X1161873Y1616127D01*
X1162647Y1617284D01*
X1162919Y1618650D01*
Y1720550D01*
X1162893Y1720678D01*
X1164784Y1721251D01*
X1164873Y1721299D01*
X1164973Y1721319D01*
X1165222Y1721485D01*
X1165486Y1721626D01*
X1165550Y1721705D01*
X1165634Y1721761D01*
X1165801Y1722010D01*
X1165991Y1722242D01*
X1166020Y1722338D01*
X1166076Y1722422D01*
X1166135Y1722716D01*
X1166222Y1723003D01*
X1166212Y1723104D01*
X1166231Y1723203D01*
Y1747470D01*
X1167501Y1747977D01*
X1168633Y1747220D01*
X1170389Y1746871D01*
X1172145Y1747220D01*
X1173633Y1748215D01*
X1174628Y1749704D01*
X1174977Y1751459D01*
X1174628Y1753215D01*
X1173633Y1754704D01*
X1172145Y1755698D01*
X1170389Y1756047D01*
X1168633Y1755698D01*
X1167501Y1754942D01*
X1166231Y1755448D01*
Y1798880D01*
X1166464Y1799036D01*
X1167403Y1800442D01*
X1167733Y1802100D01*
X1167403Y1803758D01*
X1166464Y1805164D01*
X1166231Y1805320D01*
Y1843332D01*
X1166981Y1844454D01*
X1167408Y1846600D01*
X1166981Y1848746D01*
X1166231Y1849868D01*
Y1876454D01*
X1166192Y1876650D01*
Y1876729D01*
X1166646Y1876819D01*
X1168465Y1878035D01*
X1169681Y1879854D01*
X1170108Y1882000D01*
X1169681Y1884146D01*
X1168465Y1885965D01*
X1166646Y1887181D01*
X1164500Y1887608D01*
X1163130Y1887335D01*
X1160983Y1889483D01*
X1160073Y1890090D01*
X1159000Y1890304D01*
D02*
G37*
G36*
X790850Y1776467D02*
X787326Y1776003D01*
X784042Y1774642D01*
X781222Y1772478D01*
X779058Y1769658D01*
X777698Y1766374D01*
X777234Y1762850D01*
X777698Y1759326D01*
X779058Y1756042D01*
X781222Y1753222D01*
X784042Y1751058D01*
X787326Y1749698D01*
X790850Y1749234D01*
X794374Y1749698D01*
X797658Y1751058D01*
X800478Y1753222D01*
X802642Y1756042D01*
X804003Y1759326D01*
X804466Y1762850D01*
X804003Y1766374D01*
X802642Y1769658D01*
X800478Y1772478D01*
X797658Y1774642D01*
X794374Y1776003D01*
X790850Y1776467D01*
D02*
G37*
G36*
X885391Y1697069D02*
X883245Y1696642D01*
X881426Y1695427D01*
X880210Y1693607D01*
X879784Y1691461D01*
X880210Y1689315D01*
X881426Y1687496D01*
X883245Y1686280D01*
X885391Y1685854D01*
X887537Y1686280D01*
X889357Y1687496D01*
X890572Y1689315D01*
X890999Y1691461D01*
X890572Y1693607D01*
X889357Y1695427D01*
X887537Y1696642D01*
X885391Y1697069D01*
D02*
G37*
G36*
X875391Y1717069D02*
X873245Y1716642D01*
X871426Y1715427D01*
X870210Y1713607D01*
X869784Y1711461D01*
X870210Y1709315D01*
X871426Y1707496D01*
X873245Y1706281D01*
X875391Y1705854D01*
X877537Y1706281D01*
X879357Y1707496D01*
X880572Y1709315D01*
X880999Y1711461D01*
X880572Y1713607D01*
X879357Y1715427D01*
X877537Y1716642D01*
X875391Y1717069D01*
D02*
G37*
G36*
X885391Y1737069D02*
X883245Y1736642D01*
X881426Y1735427D01*
X880210Y1733607D01*
X879784Y1731461D01*
X880210Y1729315D01*
X881426Y1727496D01*
X883245Y1726281D01*
X885391Y1725854D01*
X887537Y1726281D01*
X889357Y1727496D01*
X890572Y1729315D01*
X890999Y1731461D01*
X890572Y1733607D01*
X889357Y1735427D01*
X887537Y1736642D01*
X885391Y1737069D01*
D02*
G37*
G36*
Y1497069D02*
X883245Y1496642D01*
X881426Y1495426D01*
X880210Y1493607D01*
X879784Y1491461D01*
X880210Y1489315D01*
X881426Y1487496D01*
X883245Y1486280D01*
X885391Y1485853D01*
X887537Y1486280D01*
X889357Y1487496D01*
X890572Y1489315D01*
X890999Y1491461D01*
X890572Y1493607D01*
X889357Y1495426D01*
X887537Y1496642D01*
X885391Y1497069D01*
D02*
G37*
G36*
X875391Y1517069D02*
X873245Y1516642D01*
X871426Y1515426D01*
X870210Y1513607D01*
X869784Y1511461D01*
X870210Y1509315D01*
X871426Y1507496D01*
X873245Y1506280D01*
X875391Y1505853D01*
X877537Y1506280D01*
X879357Y1507496D01*
X880572Y1509315D01*
X880999Y1511461D01*
X880572Y1513607D01*
X879357Y1515426D01*
X877537Y1516642D01*
X875391Y1517069D01*
D02*
G37*
G36*
X1189500Y1520608D02*
X1187354Y1520181D01*
X1185535Y1518965D01*
X1184319Y1517146D01*
X1183892Y1515000D01*
X1184319Y1512854D01*
X1185535Y1511035D01*
X1187354Y1509819D01*
X1189500Y1509392D01*
X1191646Y1509819D01*
X1193465Y1511035D01*
X1194681Y1512854D01*
X1195108Y1515000D01*
X1194681Y1517146D01*
X1193465Y1518965D01*
X1191646Y1520181D01*
X1189500Y1520608D01*
D02*
G37*
G36*
X1227566Y1432822D02*
X1227553Y1432820D01*
X1227541Y1432822D01*
X1122970Y1430244D01*
X1122606Y1430162D01*
X1122240Y1430090D01*
X1122219Y1430075D01*
X1122194Y1430070D01*
X1121889Y1429855D01*
X1121578Y1429648D01*
X1121564Y1429626D01*
X1121543Y1429612D01*
X1121343Y1429296D01*
X1121136Y1428986D01*
X1121131Y1428961D01*
X1121118Y1428939D01*
X1121054Y1428571D01*
X1120981Y1428206D01*
Y1387183D01*
X1119711Y1386798D01*
X1119265Y1387465D01*
X1117446Y1388681D01*
X1115300Y1389108D01*
X1113154Y1388681D01*
X1111335Y1387465D01*
X1110119Y1385646D01*
X1109692Y1383500D01*
X1110119Y1381354D01*
X1111335Y1379535D01*
X1112496Y1378759D01*
Y1376900D01*
X1110700D01*
Y1366900D01*
X1110700D01*
Y1365900D01*
X1110700D01*
Y1355900D01*
X1120981D01*
Y1354206D01*
X1121136Y1353425D01*
X1121578Y1352764D01*
X1122240Y1352322D01*
X1123020Y1352166D01*
X1227602Y1352166D01*
X1227602Y1352166D01*
X1228382Y1352322D01*
X1229044Y1352764D01*
X1229942Y1353662D01*
X1230384Y1354323D01*
X1230539Y1355104D01*
Y1429896D01*
X1230537Y1429909D01*
X1230539Y1429921D01*
X1230459Y1430299D01*
X1230384Y1430677D01*
X1230377Y1430687D01*
X1230374Y1430700D01*
X1230156Y1431017D01*
X1229942Y1431338D01*
X1229931Y1431345D01*
X1229924Y1431356D01*
X1229015Y1432243D01*
X1229004Y1432250D01*
X1228997Y1432260D01*
X1228671Y1432467D01*
X1228348Y1432677D01*
X1228335Y1432679D01*
X1228325Y1432686D01*
X1227944Y1432752D01*
X1227566Y1432822D01*
D02*
G37*
G36*
X1023000Y1432608D02*
X1020854Y1432181D01*
X1019035Y1430965D01*
X1017819Y1429146D01*
X1017392Y1427000D01*
X1017819Y1424854D01*
X1019035Y1423035D01*
X1020854Y1421819D01*
X1023000Y1421392D01*
X1025146Y1421819D01*
X1026965Y1423035D01*
X1028181Y1424854D01*
X1028608Y1427000D01*
X1028181Y1429146D01*
X1026965Y1430965D01*
X1025146Y1432181D01*
X1023000Y1432608D01*
D02*
G37*
G36*
X875391Y1477069D02*
X873245Y1476642D01*
X871426Y1475426D01*
X870210Y1473607D01*
X869784Y1471461D01*
X870210Y1469315D01*
X871426Y1467496D01*
X873245Y1466280D01*
X875391Y1465853D01*
X877537Y1466280D01*
X879357Y1467496D01*
X880572Y1469315D01*
X880999Y1471461D01*
X880572Y1473607D01*
X879357Y1475426D01*
X877537Y1476642D01*
X875391Y1477069D01*
D02*
G37*
G36*
X871750Y1603633D02*
X870092Y1603303D01*
X868686Y1602364D01*
X867747Y1600958D01*
X867417Y1599300D01*
X867747Y1597642D01*
X868686Y1596236D01*
X870092Y1595297D01*
X871750Y1594967D01*
X873408Y1595297D01*
X874814Y1596236D01*
X875753Y1597642D01*
X876083Y1599300D01*
X875753Y1600958D01*
X874814Y1602364D01*
X873408Y1603303D01*
X871750Y1603633D01*
D02*
G37*
G36*
X1183500Y1625693D02*
X1181842Y1625363D01*
X1180436Y1624424D01*
X1179497Y1623018D01*
X1179167Y1621360D01*
X1179497Y1619702D01*
X1180436Y1618296D01*
X1180696Y1618122D01*
Y1609000D01*
X1180910Y1607927D01*
X1181517Y1607017D01*
X1183228Y1605307D01*
X1183167Y1605000D01*
X1183497Y1603342D01*
X1184436Y1601936D01*
X1185842Y1600997D01*
X1187500Y1600667D01*
X1189158Y1600997D01*
X1190564Y1601936D01*
X1191503Y1603342D01*
X1191833Y1605000D01*
X1191503Y1606658D01*
X1190564Y1608064D01*
X1189158Y1609003D01*
X1187500Y1609333D01*
X1187193Y1609272D01*
X1186304Y1610161D01*
Y1618122D01*
X1186564Y1618296D01*
X1187503Y1619702D01*
X1187833Y1621360D01*
X1187503Y1623018D01*
X1186564Y1624424D01*
X1185158Y1625363D01*
X1183500Y1625693D01*
D02*
G37*
G36*
X997300Y1390595D02*
X994428Y1390217D01*
X991753Y1389108D01*
X989455Y1387345D01*
X987691Y1385047D01*
X986583Y1382372D01*
X986205Y1379500D01*
X986583Y1376628D01*
X987691Y1373953D01*
X989455Y1371655D01*
X991753Y1369892D01*
X994428Y1368783D01*
X997300Y1368405D01*
X1000172Y1368783D01*
X1002848Y1369892D01*
X1005145Y1371655D01*
X1006908Y1373953D01*
X1008017Y1376628D01*
X1008395Y1379500D01*
X1008017Y1382372D01*
X1006908Y1385047D01*
X1005145Y1387345D01*
X1002848Y1389108D01*
X1000172Y1390217D01*
X997300Y1390595D01*
D02*
G37*
G36*
X885391Y1537069D02*
X883245Y1536642D01*
X881426Y1535426D01*
X880210Y1533607D01*
X879784Y1531461D01*
X880210Y1529315D01*
X881426Y1527496D01*
X883245Y1526280D01*
X885391Y1525853D01*
X887537Y1526280D01*
X889357Y1527496D01*
X890572Y1529315D01*
X890999Y1531461D01*
X890572Y1533607D01*
X889357Y1535426D01*
X887537Y1536642D01*
X885391Y1537069D01*
D02*
G37*
G36*
X875391Y1557069D02*
X873245Y1556642D01*
X871426Y1555426D01*
X870210Y1553607D01*
X869784Y1551461D01*
X870210Y1549315D01*
X871426Y1547496D01*
X873245Y1546280D01*
X875391Y1545853D01*
X877537Y1546280D01*
X879357Y1547496D01*
X880572Y1549315D01*
X880999Y1551461D01*
X880572Y1553607D01*
X879357Y1555426D01*
X877537Y1556642D01*
X875391Y1557069D01*
D02*
G37*
G36*
X1098300Y1401508D02*
X1096154Y1401081D01*
X1094335Y1399865D01*
X1093119Y1398046D01*
X1092692Y1395900D01*
X1093119Y1393754D01*
X1094335Y1391935D01*
X1096154Y1390719D01*
X1098300Y1390292D01*
X1100446Y1390719D01*
X1102265Y1391935D01*
X1103481Y1393754D01*
X1103908Y1395900D01*
X1103481Y1398046D01*
X1102265Y1399865D01*
X1100446Y1401081D01*
X1098300Y1401508D01*
D02*
G37*
G36*
X1090400Y1917333D02*
X1088742Y1917003D01*
X1087336Y1916064D01*
X1086397Y1914658D01*
X1086067Y1913000D01*
X1086397Y1911342D01*
X1087336Y1909936D01*
X1088742Y1908997D01*
X1090400Y1908667D01*
X1092058Y1908997D01*
X1093464Y1909936D01*
X1094403Y1911342D01*
X1094733Y1913000D01*
X1094403Y1914658D01*
X1093464Y1916064D01*
X1092058Y1917003D01*
X1090400Y1917333D01*
D02*
G37*
G36*
X1324743Y2320435D02*
X1324351Y2320424D01*
X1323961Y2320417D01*
X1323955Y2320414D01*
X1323948Y2320414D01*
X1323590Y2320253D01*
X1323233Y2320097D01*
X1323228Y2320092D01*
X1323221Y2320089D01*
X1322952Y2319805D01*
X1322682Y2319523D01*
X1322679Y2319517D01*
X1322674Y2319512D01*
X1242549Y2192262D01*
X1242412Y2191902D01*
X1242270Y2191545D01*
X1242270Y2191531D01*
X1242265Y2191519D01*
X1242254Y2190709D01*
X1241524Y2190388D01*
X1241524Y2190387D01*
X1241524Y2190387D01*
X1241320Y2190178D01*
X1240969Y2189817D01*
X1240969Y2189817D01*
X1240969Y2189817D01*
X1199611Y2125967D01*
X1199454Y2125572D01*
X1199317Y2125228D01*
Y2125228D01*
X1199317Y2125228D01*
X1199323Y2124805D01*
X1199328Y2124433D01*
X1199329Y2124433D01*
Y2124432D01*
X1199501Y2124032D01*
X1199643Y2123702D01*
X1199643Y2123702D01*
X1199643Y2123702D01*
X1199946Y2123407D01*
X1200214Y2123147D01*
X1276780Y2073527D01*
X1276794Y2073521D01*
X1276805Y2073511D01*
X1277163Y2073375D01*
X1277519Y2073233D01*
X1277535Y2073233D01*
X1277549Y2073228D01*
X1277931Y2073239D01*
X1278315Y2073244D01*
X1278329Y2073250D01*
X1278344Y2073251D01*
X1279582Y2073534D01*
X1279596Y2073541D01*
X1279612Y2073541D01*
X1279958Y2073703D01*
X1280308Y2073860D01*
X1280319Y2073871D01*
X1280333Y2073878D01*
X1280591Y2074160D01*
X1280854Y2074438D01*
X1280860Y2074453D01*
X1280870Y2074464D01*
X1314916Y2130591D01*
X1316168Y2132538D01*
X1316117Y2132571D01*
X1330750Y2156695D01*
X1330878Y2157045D01*
X1331014Y2157391D01*
X1331013Y2157417D01*
X1331022Y2157442D01*
X1331006Y2157815D01*
X1330999Y2158186D01*
X1330989Y2158211D01*
X1330988Y2158237D01*
X1330830Y2158575D01*
X1330682Y2158916D01*
X1330663Y2158934D01*
X1330651Y2158958D01*
X1330377Y2159210D01*
X1330109Y2159468D01*
X1315883Y2168603D01*
X1315616Y2169845D01*
X1386360Y2278815D01*
X1386363Y2278822D01*
X1386368Y2278827D01*
X1386511Y2279193D01*
X1386655Y2279554D01*
X1386655Y2279561D01*
X1386658Y2279568D01*
X1386650Y2279961D01*
X1386644Y2280349D01*
X1386642Y2280356D01*
X1386641Y2280364D01*
X1386484Y2280723D01*
X1386330Y2281080D01*
X1386325Y2281085D01*
X1386322Y2281092D01*
X1386040Y2281363D01*
X1385760Y2281635D01*
X1385753Y2281638D01*
X1385748Y2281643D01*
X1325498Y2320143D01*
X1325491Y2320146D01*
X1325486Y2320151D01*
X1325121Y2320290D01*
X1324757Y2320433D01*
X1324750Y2320433D01*
X1324743Y2320435D01*
D02*
G37*
G36*
X875391Y1877069D02*
X873245Y1876642D01*
X871426Y1875427D01*
X870210Y1873607D01*
X869784Y1871461D01*
X870210Y1869315D01*
X871426Y1867496D01*
X873245Y1866281D01*
X875391Y1865854D01*
X877537Y1866281D01*
X879357Y1867496D01*
X880572Y1869315D01*
X880999Y1871461D01*
X880572Y1873607D01*
X879357Y1875427D01*
X877537Y1876642D01*
X875391Y1877069D01*
D02*
G37*
G36*
Y1837069D02*
X873245Y1836642D01*
X871426Y1835427D01*
X870210Y1833607D01*
X869784Y1831461D01*
X870210Y1829315D01*
X871426Y1827496D01*
X873245Y1826281D01*
X875391Y1825854D01*
X877537Y1826281D01*
X879357Y1827496D01*
X880572Y1829315D01*
X880999Y1831461D01*
X880572Y1833607D01*
X879357Y1835427D01*
X877537Y1836642D01*
X875391Y1837069D01*
D02*
G37*
G36*
X885391Y1857069D02*
X883245Y1856642D01*
X881426Y1855427D01*
X880210Y1853607D01*
X879784Y1851461D01*
X880210Y1849315D01*
X881426Y1847496D01*
X883245Y1846281D01*
X885391Y1845854D01*
X887537Y1846281D01*
X889357Y1847496D01*
X890572Y1849315D01*
X890999Y1851461D01*
X890572Y1853607D01*
X889357Y1855427D01*
X887537Y1856642D01*
X885391Y1857069D01*
D02*
G37*
G36*
X745513Y1325167D02*
X745130Y1325156D01*
X744747Y1325151D01*
X744733Y1325145D01*
X744717Y1325144D01*
X743479Y1324861D01*
X743465Y1324854D01*
X743450Y1324854D01*
X743102Y1324692D01*
X742753Y1324535D01*
X742743Y1324524D01*
X742729Y1324517D01*
X742470Y1324235D01*
X742207Y1323956D01*
X742202Y1323942D01*
X742191Y1323931D01*
X691013Y1239560D01*
X690885Y1239209D01*
X690749Y1238864D01*
X690750Y1238837D01*
X690741Y1238812D01*
X690757Y1238440D01*
X690764Y1238068D01*
X690774Y1238044D01*
X690776Y1238017D01*
X690933Y1237680D01*
X691082Y1237339D01*
X691101Y1237320D01*
X691112Y1237296D01*
X691387Y1237045D01*
X691654Y1236786D01*
X705124Y1228136D01*
X705392Y1226895D01*
X672401Y1176078D01*
X671426Y1175426D01*
X670210Y1173607D01*
X669951Y1172304D01*
X637527Y1122360D01*
X637524Y1122353D01*
X637519Y1122348D01*
X637376Y1121982D01*
X637232Y1121621D01*
X637233Y1121614D01*
X637230Y1121607D01*
X637238Y1121214D01*
X637243Y1120826D01*
X637246Y1120819D01*
X637246Y1120811D01*
X637404Y1120452D01*
X637557Y1120095D01*
X637562Y1120090D01*
X637565Y1120083D01*
X637847Y1119812D01*
X638127Y1119540D01*
X638134Y1119537D01*
X638139Y1119532D01*
X698390Y1081032D01*
X698396Y1081029D01*
X698401Y1081024D01*
X698766Y1080885D01*
X699131Y1080742D01*
X699138Y1080742D01*
X699144Y1080740D01*
X699537Y1080751D01*
X699926Y1080759D01*
X699932Y1080761D01*
X699939Y1080761D01*
X700298Y1080921D01*
X700655Y1081078D01*
X700660Y1081083D01*
X700666Y1081086D01*
X700935Y1081370D01*
X701206Y1081652D01*
X701208Y1081658D01*
X701213Y1081663D01*
X767022Y1186178D01*
X767537Y1186280D01*
X769357Y1187496D01*
X770572Y1189315D01*
X770999Y1191461D01*
X770843Y1192245D01*
X781338Y1208913D01*
X781476Y1209273D01*
X781618Y1209630D01*
X781618Y1209644D01*
X781623Y1209657D01*
X781952Y1210579D01*
X782634Y1210882D01*
X782660Y1210906D01*
X782692Y1210920D01*
X782945Y1211181D01*
X783208Y1211434D01*
X783222Y1211466D01*
X783246Y1211491D01*
X822934Y1272763D01*
X823071Y1273107D01*
X823228Y1273501D01*
Y1273502D01*
X823228Y1273502D01*
X823223Y1273872D01*
X823217Y1274297D01*
X823217Y1274297D01*
Y1274297D01*
X823067Y1274646D01*
X822902Y1275028D01*
X822902Y1275028D01*
X822902Y1275028D01*
X822623Y1275299D01*
X822332Y1275582D01*
X746282Y1324868D01*
X746267Y1324874D01*
X746256Y1324884D01*
X745899Y1325020D01*
X745543Y1325162D01*
X745527Y1325162D01*
X745513Y1325167D01*
D02*
G37*
G36*
X560000Y2462098D02*
X553047Y2461707D01*
X546182Y2460541D01*
X539490Y2458613D01*
X533057Y2455948D01*
X526962Y2452580D01*
X521283Y2448550D01*
X516090Y2443910D01*
X511450Y2438717D01*
X507420Y2433038D01*
X504052Y2426943D01*
X501387Y2420510D01*
X499459Y2413818D01*
X498293Y2406953D01*
X497902Y2400000D01*
X498293Y2393047D01*
X499459Y2386182D01*
X501387Y2379490D01*
X504052Y2373057D01*
X507420Y2366962D01*
X511450Y2361283D01*
X516090Y2356090D01*
X521283Y2351450D01*
X526962Y2347420D01*
X533057Y2344052D01*
X539490Y2341387D01*
X546182Y2339459D01*
X553047Y2338293D01*
X560000Y2337902D01*
X566953Y2338293D01*
X573818Y2339459D01*
X580510Y2341387D01*
X586943Y2344052D01*
X593038Y2347420D01*
X598717Y2351450D01*
X603910Y2356090D01*
X608550Y2361283D01*
X612580Y2366962D01*
X615948Y2373057D01*
X618613Y2379490D01*
X620541Y2386182D01*
X621707Y2393047D01*
X622098Y2400000D01*
X621707Y2406953D01*
X620541Y2413818D01*
X618613Y2420510D01*
X615948Y2426943D01*
X612580Y2433038D01*
X608550Y2438717D01*
X603910Y2443910D01*
X598717Y2448550D01*
X593038Y2452580D01*
X586943Y2455948D01*
X580510Y2458613D01*
X573818Y2460541D01*
X566953Y2461707D01*
X560000Y2462098D01*
D02*
G37*
G36*
X1460000D02*
X1453047Y2461707D01*
X1446182Y2460541D01*
X1439490Y2458613D01*
X1433057Y2455948D01*
X1426962Y2452580D01*
X1421283Y2448550D01*
X1416090Y2443910D01*
X1411450Y2438717D01*
X1407420Y2433038D01*
X1404052Y2426943D01*
X1401387Y2420510D01*
X1399459Y2413818D01*
X1398293Y2406953D01*
X1397902Y2400000D01*
X1398293Y2393047D01*
X1399459Y2386182D01*
X1401387Y2379490D01*
X1404052Y2373057D01*
X1407420Y2366962D01*
X1411450Y2361283D01*
X1416090Y2356090D01*
X1421283Y2351450D01*
X1426962Y2347420D01*
X1433057Y2344052D01*
X1439490Y2341387D01*
X1446182Y2339459D01*
X1453047Y2338293D01*
X1460000Y2337902D01*
X1466953Y2338293D01*
X1473818Y2339459D01*
X1480510Y2341387D01*
X1486943Y2344052D01*
X1493038Y2347420D01*
X1498717Y2351450D01*
X1503910Y2356090D01*
X1508550Y2361283D01*
X1512580Y2366962D01*
X1515948Y2373057D01*
X1518613Y2379490D01*
X1520541Y2386182D01*
X1521707Y2393047D01*
X1522098Y2400000D01*
X1521707Y2406953D01*
X1520541Y2413818D01*
X1518613Y2420510D01*
X1515948Y2426943D01*
X1512580Y2433038D01*
X1508550Y2438717D01*
X1503910Y2443910D01*
X1498717Y2448550D01*
X1493038Y2452580D01*
X1486943Y2455948D01*
X1480510Y2458613D01*
X1473818Y2460541D01*
X1466953Y2461707D01*
X1460000Y2462098D01*
D02*
G37*
G36*
X696261Y2321788D02*
X696254Y2321786D01*
X696247Y2321786D01*
X695883Y2321644D01*
X695518Y2321504D01*
X695512Y2321499D01*
X695506Y2321497D01*
X635256Y2282997D01*
X635251Y2282991D01*
X635244Y2282989D01*
X634964Y2282716D01*
X634682Y2282446D01*
X634679Y2282439D01*
X634674Y2282433D01*
X634519Y2282074D01*
X634363Y2281717D01*
X634362Y2281709D01*
X634360Y2281703D01*
X634354Y2281310D01*
X634346Y2280921D01*
X634349Y2280914D01*
X634349Y2280907D01*
X634494Y2280544D01*
X634636Y2280180D01*
X634641Y2280175D01*
X634644Y2280168D01*
X705270Y2171380D01*
X705005Y2170137D01*
X687831Y2159007D01*
X687539Y2158723D01*
X687261Y2158453D01*
X687260Y2158452D01*
X687260Y2158452D01*
X687114Y2158114D01*
X686945Y2157722D01*
Y2157722D01*
X686945Y2157722D01*
X686940Y2157358D01*
X686934Y2156926D01*
X686934Y2156926D01*
Y2156926D01*
X687091Y2156532D01*
X687228Y2156187D01*
X733255Y2085130D01*
X733529Y2084848D01*
X733802Y2084564D01*
X733806Y2084563D01*
X733809Y2084560D01*
X734169Y2084404D01*
X734532Y2084247D01*
X734536Y2084246D01*
X734540Y2084245D01*
X734933Y2084239D01*
X735328Y2084232D01*
X735331Y2084234D01*
X735335Y2084234D01*
X735703Y2084380D01*
X736068Y2084523D01*
X812677Y2133719D01*
X812945Y2133977D01*
X813219Y2134229D01*
X813231Y2134253D01*
X813250Y2134271D01*
X813398Y2134612D01*
X813556Y2134950D01*
X813557Y2134977D01*
X813568Y2135001D01*
X813574Y2135373D01*
X813590Y2135745D01*
X813581Y2135770D01*
X813582Y2135796D01*
X813446Y2136143D01*
X813318Y2136493D01*
X780325Y2190885D01*
X780304Y2190907D01*
X780293Y2190936D01*
X780036Y2191200D01*
X779787Y2191472D01*
X779760Y2191485D01*
X779738Y2191506D01*
X778821Y2192019D01*
X778723Y2192102D01*
X778729Y2192487D01*
X778739Y2192872D01*
X778734Y2192884D01*
X778735Y2192898D01*
X778592Y2193256D01*
X778455Y2193615D01*
X698330Y2320865D01*
X698325Y2320870D01*
X698322Y2320876D01*
X698051Y2321159D01*
X697783Y2321443D01*
X697776Y2321445D01*
X697771Y2321450D01*
X697413Y2321608D01*
X697056Y2321767D01*
X697049Y2321767D01*
X697043Y2321770D01*
X696653Y2321778D01*
X696261Y2321788D01*
D02*
G37*
G36*
X1460000Y1062098D02*
X1453047Y1061707D01*
X1446182Y1060541D01*
X1439490Y1058613D01*
X1433057Y1055948D01*
X1426962Y1052580D01*
X1421283Y1048550D01*
X1416090Y1043910D01*
X1411450Y1038717D01*
X1407420Y1033038D01*
X1404052Y1026943D01*
X1401387Y1020510D01*
X1399459Y1013818D01*
X1398293Y1006953D01*
X1397902Y1000000D01*
X1398293Y993047D01*
X1399459Y986182D01*
X1401387Y979490D01*
X1404052Y973057D01*
X1407420Y966962D01*
X1411450Y961283D01*
X1416090Y956090D01*
X1421283Y951450D01*
X1426962Y947420D01*
X1433057Y944052D01*
X1439490Y941387D01*
X1446182Y939459D01*
X1453047Y938293D01*
X1460000Y937902D01*
X1466953Y938293D01*
X1473818Y939459D01*
X1480510Y941387D01*
X1486943Y944052D01*
X1493038Y947420D01*
X1498717Y951450D01*
X1503910Y956090D01*
X1508550Y961283D01*
X1512580Y966962D01*
X1515948Y973057D01*
X1518613Y979490D01*
X1520541Y986182D01*
X1521707Y993047D01*
X1522098Y1000000D01*
X1521707Y1006953D01*
X1520541Y1013818D01*
X1518613Y1020510D01*
X1515948Y1026943D01*
X1512580Y1033038D01*
X1508550Y1038717D01*
X1503910Y1043910D01*
X1498717Y1048550D01*
X1493038Y1052580D01*
X1486943Y1055948D01*
X1480510Y1058613D01*
X1473818Y1060541D01*
X1466953Y1061707D01*
X1460000Y1062098D01*
D02*
G37*
G36*
X560000D02*
X553047Y1061707D01*
X546182Y1060541D01*
X539490Y1058613D01*
X533057Y1055948D01*
X526962Y1052580D01*
X521283Y1048550D01*
X516090Y1043910D01*
X511450Y1038717D01*
X507420Y1033038D01*
X504052Y1026943D01*
X501387Y1020510D01*
X499459Y1013818D01*
X498293Y1006953D01*
X497902Y1000000D01*
X498293Y993047D01*
X499459Y986182D01*
X501387Y979490D01*
X504052Y973057D01*
X507420Y966962D01*
X511450Y961283D01*
X516090Y956090D01*
X521283Y951450D01*
X526962Y947420D01*
X533057Y944052D01*
X539490Y941387D01*
X546182Y939459D01*
X553047Y938293D01*
X560000Y937902D01*
X566953Y938293D01*
X573818Y939459D01*
X580510Y941387D01*
X586943Y944052D01*
X593038Y947420D01*
X598717Y951450D01*
X603910Y956090D01*
X608550Y961283D01*
X612580Y966962D01*
X615948Y973057D01*
X618613Y979490D01*
X620541Y986182D01*
X621707Y993047D01*
X622098Y1000000D01*
X621707Y1006953D01*
X620541Y1013818D01*
X618613Y1020510D01*
X615948Y1026943D01*
X612580Y1033038D01*
X608550Y1038717D01*
X603910Y1043910D01*
X598717Y1048550D01*
X593038Y1052580D01*
X586943Y1055948D01*
X580510Y1058613D01*
X573818Y1060541D01*
X566953Y1061707D01*
X560000Y1062098D01*
D02*
G37*
G36*
X816250Y1800858D02*
X812987Y1800428D01*
X809946Y1799169D01*
X807335Y1797165D01*
X805331Y1794554D01*
X804072Y1791513D01*
X803642Y1788250D01*
X804072Y1784987D01*
X805331Y1781946D01*
X807335Y1779335D01*
X809946Y1777331D01*
X812987Y1776072D01*
X816250Y1775642D01*
X819513Y1776072D01*
X822554Y1777331D01*
X825165Y1779335D01*
X827169Y1781946D01*
X828428Y1784987D01*
X828858Y1788250D01*
X828428Y1791513D01*
X827169Y1794554D01*
X825165Y1797165D01*
X822554Y1799169D01*
X819513Y1800428D01*
X816250Y1800858D01*
D02*
G37*
G36*
X883300Y1784933D02*
X881642Y1784603D01*
X880236Y1783664D01*
X879297Y1782258D01*
X878967Y1780600D01*
X879297Y1778942D01*
X880236Y1777536D01*
X881642Y1776597D01*
X883300Y1776267D01*
X884958Y1776597D01*
X886364Y1777536D01*
X887303Y1778942D01*
X887633Y1780600D01*
X887303Y1782258D01*
X886364Y1783664D01*
X884958Y1784603D01*
X883300Y1784933D01*
D02*
G37*
G36*
X887700Y1812533D02*
X886042Y1812203D01*
X884636Y1811264D01*
X883697Y1809858D01*
X883367Y1808200D01*
X883697Y1806542D01*
X884117Y1805913D01*
X883542Y1804503D01*
X882136Y1803564D01*
X881197Y1802158D01*
X880867Y1800500D01*
X881197Y1798842D01*
X882136Y1797436D01*
X883542Y1796497D01*
X885200Y1796167D01*
X886858Y1796497D01*
X888264Y1797436D01*
X889203Y1798842D01*
X889533Y1800500D01*
X889203Y1802158D01*
X888783Y1802787D01*
X889358Y1804197D01*
X890764Y1805136D01*
X891703Y1806542D01*
X892033Y1808200D01*
X891703Y1809858D01*
X890764Y1811264D01*
X889358Y1812203D01*
X887700Y1812533D01*
D02*
G37*
G36*
X841650Y1776467D02*
X838126Y1776003D01*
X834842Y1774642D01*
X832022Y1772478D01*
X829858Y1769658D01*
X828497Y1766374D01*
X828034Y1762850D01*
X828497Y1759326D01*
X829858Y1756042D01*
X832022Y1753222D01*
X834842Y1751058D01*
X838126Y1749698D01*
X841650Y1749234D01*
X845174Y1749698D01*
X848458Y1751058D01*
X851278Y1753222D01*
X853442Y1756042D01*
X854802Y1759326D01*
X855266Y1762850D01*
X854802Y1766374D01*
X853442Y1769658D01*
X851278Y1772478D01*
X848458Y1774642D01*
X845174Y1776003D01*
X841650Y1776467D01*
D02*
G37*
G36*
X1277273Y1322991D02*
X1277259Y1322986D01*
X1277244Y1322986D01*
X1276888Y1322844D01*
X1276530Y1322708D01*
X1276519Y1322697D01*
X1276504Y1322692D01*
X1199939Y1273072D01*
X1199938Y1273072D01*
X1199938Y1273071D01*
X1199675Y1272815D01*
X1199368Y1272517D01*
X1199368Y1272517D01*
X1199368Y1272517D01*
X1199222Y1272178D01*
X1199053Y1271786D01*
Y1271786D01*
X1199053Y1271786D01*
X1199048Y1271422D01*
X1199042Y1270991D01*
X1199042Y1270991D01*
Y1270991D01*
X1199199Y1270596D01*
X1199335Y1270252D01*
X1237346Y1211570D01*
X1237359Y1211557D01*
X1237366Y1211539D01*
X1237636Y1211272D01*
X1237900Y1211000D01*
X1237918Y1210992D01*
X1237931Y1210979D01*
X1238126Y1210850D01*
X1238197Y1210821D01*
X1238255Y1210771D01*
X1238563Y1210671D01*
X1238863Y1210548D01*
X1239245Y1209880D01*
X1239387Y1209522D01*
X1239524Y1209163D01*
X1319649Y1081913D01*
X1319654Y1081908D01*
X1319657Y1081902D01*
X1319928Y1081619D01*
X1320197Y1081336D01*
X1320203Y1081333D01*
X1320208Y1081328D01*
X1320566Y1081171D01*
X1320923Y1081012D01*
X1320930Y1081011D01*
X1320936Y1081009D01*
X1321326Y1081001D01*
X1321718Y1080990D01*
X1321725Y1080992D01*
X1321732Y1080992D01*
X1322096Y1081134D01*
X1322462Y1081274D01*
X1322466Y1081279D01*
X1322473Y1081282D01*
X1382723Y1119782D01*
X1382728Y1119787D01*
X1382735Y1119790D01*
X1383015Y1120062D01*
X1383297Y1120333D01*
X1383300Y1120340D01*
X1383305Y1120345D01*
X1383460Y1120705D01*
X1383616Y1121061D01*
X1383617Y1121069D01*
X1383620Y1121076D01*
X1383625Y1121468D01*
X1383633Y1121857D01*
X1383630Y1121864D01*
X1383630Y1121871D01*
X1383485Y1122234D01*
X1383343Y1122598D01*
X1383338Y1122603D01*
X1383335Y1122610D01*
X1315786Y1226660D01*
X1316053Y1227901D01*
X1329833Y1236750D01*
X1330101Y1237009D01*
X1330376Y1237260D01*
X1330387Y1237284D01*
X1330406Y1237303D01*
X1330555Y1237644D01*
X1330712Y1237981D01*
X1330713Y1238008D01*
X1330724Y1238032D01*
X1330731Y1238404D01*
X1330747Y1238776D01*
X1330738Y1238801D01*
X1330738Y1238828D01*
X1330603Y1239174D01*
X1330475Y1239524D01*
X1328863Y1242181D01*
X1329054Y1242303D01*
X1324366Y1249594D01*
X1284271Y1315694D01*
X1284181Y1316146D01*
X1282965Y1317965D01*
X1282844Y1318046D01*
X1280595Y1321754D01*
X1280584Y1321766D01*
X1280579Y1321780D01*
X1280316Y1322059D01*
X1280057Y1322341D01*
X1280043Y1322348D01*
X1280033Y1322359D01*
X1279684Y1322515D01*
X1279336Y1322677D01*
X1279321Y1322678D01*
X1279307Y1322684D01*
X1278069Y1322968D01*
X1278053Y1322969D01*
X1278039Y1322975D01*
X1277656Y1322980D01*
X1277273Y1322991D01*
D02*
G37*
G36*
X891300Y1777933D02*
X889642Y1777603D01*
X888236Y1776664D01*
X887297Y1775258D01*
X886967Y1773600D01*
X887297Y1771942D01*
X888236Y1770536D01*
X889642Y1769597D01*
X891300Y1769267D01*
X892958Y1769597D01*
X894364Y1770536D01*
X895303Y1771942D01*
X895633Y1773600D01*
X895303Y1775258D01*
X894364Y1776664D01*
X892958Y1777603D01*
X891300Y1777933D01*
D02*
G37*
G36*
X841650Y1827267D02*
X838126Y1826803D01*
X834842Y1825442D01*
X832022Y1823278D01*
X829858Y1820458D01*
X828497Y1817174D01*
X828034Y1813650D01*
X828497Y1810126D01*
X829858Y1806842D01*
X832022Y1804022D01*
X834842Y1801858D01*
X838126Y1800497D01*
X841650Y1800034D01*
X845174Y1800497D01*
X848458Y1801858D01*
X851278Y1804022D01*
X853442Y1806842D01*
X854802Y1810126D01*
X855266Y1813650D01*
X854802Y1817174D01*
X853442Y1820458D01*
X851278Y1823278D01*
X848458Y1825442D01*
X845174Y1826803D01*
X841650Y1827267D01*
D02*
G37*
G36*
X887700Y1824533D02*
X886042Y1824203D01*
X884636Y1823264D01*
X883697Y1821858D01*
X883367Y1820200D01*
X883697Y1818542D01*
X884636Y1817136D01*
X886042Y1816197D01*
X887700Y1815867D01*
X889358Y1816197D01*
X890764Y1817136D01*
X891703Y1818542D01*
X892033Y1820200D01*
X891703Y1821858D01*
X890764Y1823264D01*
X889358Y1824203D01*
X887700Y1824533D01*
D02*
G37*
G36*
X790850Y1827267D02*
X787326Y1826803D01*
X784042Y1825442D01*
X781222Y1823278D01*
X779058Y1820458D01*
X777698Y1817174D01*
X777234Y1813650D01*
X777698Y1810126D01*
X779058Y1806842D01*
X781222Y1804022D01*
X784042Y1801858D01*
X787326Y1800497D01*
X790850Y1800034D01*
X794374Y1800497D01*
X797658Y1801858D01*
X800478Y1804022D01*
X802642Y1806842D01*
X804003Y1810126D01*
X804466Y1813650D01*
X804003Y1817174D01*
X802642Y1820458D01*
X800478Y1823278D01*
X797658Y1825442D01*
X794374Y1826803D01*
X790850Y1827267D01*
D02*
G37*
%LPD*%
G36*
X821223Y1273871D02*
X781535Y1212599D01*
X779823Y1212293D01*
X739045Y1238720D01*
X738371Y1239681D01*
X738820Y1240379D01*
X742968Y1246831D01*
X741485Y1247784D01*
X741220Y1249026D01*
X743723Y1252854D01*
X745605Y1251644D01*
X751554Y1260897D01*
X750527Y1261557D01*
X750265Y1262800D01*
X751094Y1264053D01*
X751400Y1263992D01*
X753546Y1264419D01*
X755365Y1265635D01*
X756581Y1267454D01*
X757008Y1269600D01*
X756581Y1271746D01*
X755365Y1273565D01*
X753546Y1274781D01*
X751400Y1275208D01*
X749254Y1274781D01*
X747435Y1273565D01*
X746219Y1271746D01*
X745792Y1269600D01*
X746219Y1267454D01*
X746420Y1267153D01*
X745049Y1265079D01*
X743142Y1266304D01*
X737194Y1257051D01*
X738247Y1256374D01*
X738512Y1255132D01*
X736010Y1251304D01*
X733715Y1252779D01*
X729589Y1246362D01*
X727974Y1245895D01*
X722471Y1249461D01*
X722097Y1249610D01*
X721734Y1249755D01*
X721733D01*
X721732Y1249755D01*
X721340Y1249750D01*
X720938Y1249745D01*
X720937Y1249744D01*
X720937D01*
X720573Y1249588D01*
X720207Y1249430D01*
X720207Y1249430D01*
X720206Y1249429D01*
X719926Y1249141D01*
X719652Y1248860D01*
X706992Y1229360D01*
X692756Y1238502D01*
X743935Y1322873D01*
X745173Y1323157D01*
X821223Y1273871D01*
D02*
G37*
G36*
X1278851Y1320697D02*
X1328732Y1238466D01*
X1314185Y1229125D01*
X1301210Y1249110D01*
X1300929Y1249399D01*
X1300657Y1249679D01*
X1300656Y1249680D01*
X1300655Y1249680D01*
X1300276Y1249843D01*
X1299926Y1249994D01*
X1299925D01*
X1299924Y1249995D01*
X1299507Y1250000D01*
X1299130Y1250005D01*
X1299129Y1250005D01*
X1299129D01*
X1298752Y1249855D01*
X1298391Y1249711D01*
X1273264Y1233427D01*
X1272023Y1233695D01*
X1268097Y1239801D01*
X1266638Y1238863D01*
X1265399Y1239141D01*
X1262944Y1243076D01*
X1264854Y1244303D01*
X1258905Y1253556D01*
X1257978Y1252960D01*
X1256741Y1253250D01*
X1254348Y1257255D01*
X1254681Y1257754D01*
X1255108Y1259900D01*
X1254681Y1262046D01*
X1253465Y1263865D01*
X1251646Y1265081D01*
X1249500Y1265508D01*
X1247354Y1265081D01*
X1245535Y1263865D01*
X1244319Y1262046D01*
X1243892Y1259900D01*
X1244319Y1257754D01*
X1245535Y1255935D01*
X1247354Y1254719D01*
X1249500Y1254292D01*
X1249576Y1254307D01*
X1252490Y1249432D01*
X1250493Y1248149D01*
X1256442Y1238896D01*
X1257466Y1239554D01*
X1258705Y1239276D01*
X1261160Y1235342D01*
X1258844Y1233853D01*
X1263278Y1226956D01*
X1240771Y1212369D01*
X1239252Y1212550D01*
X1239057Y1212679D01*
X1201047Y1271360D01*
X1277613Y1320981D01*
X1278851Y1320697D01*
D02*
G37*
G36*
X1228500Y1429896D02*
Y1355104D01*
X1227602Y1354206D01*
X1123020Y1354206D01*
Y1428206D01*
X1227591Y1430783D01*
X1228500Y1429896D01*
D02*
G37*
G36*
X779613Y1210000D02*
X699488Y1082750D01*
X639238Y1121250D01*
X721363Y1247750D01*
X779613Y1210000D01*
D02*
G37*
G36*
X1381625Y1121500D02*
X1321375Y1083000D01*
X1241250Y1210250D01*
X1299500Y1248000D01*
X1381625Y1121500D01*
D02*
G37*
G36*
X1283192Y2163524D02*
X1283729Y2162469D01*
X1283363Y2161900D01*
X1279132Y2155319D01*
X1281402Y2153860D01*
X1279018Y2150131D01*
X1277778Y2149860D01*
X1276695Y2150556D01*
X1270746Y2141303D01*
X1272605Y2140108D01*
X1268228Y2133262D01*
X1268000Y2133308D01*
X1265854Y2132881D01*
X1264035Y2131665D01*
X1262819Y2129846D01*
X1262392Y2127700D01*
X1262819Y2125554D01*
X1264035Y2123735D01*
X1265854Y2122519D01*
X1268000Y2122092D01*
X1270146Y2122519D01*
X1271965Y2123735D01*
X1273181Y2125554D01*
X1273608Y2127700D01*
X1273181Y2129846D01*
X1272935Y2130214D01*
X1276838Y2136318D01*
X1278079Y2136590D01*
X1279158Y2135896D01*
X1285107Y2145149D01*
X1283251Y2146341D01*
X1285635Y2150070D01*
X1286876Y2150341D01*
X1288385Y2149371D01*
X1292594Y2155918D01*
X1294156Y2156419D01*
X1301416Y2151714D01*
X1301785Y2151567D01*
X1302154Y2151420D01*
X1302155D01*
X1302155Y2151420D01*
X1302548Y2151425D01*
X1302949Y2151430D01*
X1302950Y2151431D01*
X1302951D01*
X1303314Y2151587D01*
X1303680Y2151745D01*
X1303681Y2151745D01*
X1303682Y2151745D01*
X1303962Y2152034D01*
X1304235Y2152315D01*
X1314016Y2167379D01*
X1329007Y2157752D01*
X1279127Y2075522D01*
X1277889Y2075238D01*
X1201323Y2124859D01*
X1242681Y2188708D01*
X1243923Y2188974D01*
X1283192Y2163524D01*
D02*
G37*
G36*
X1072231Y1864422D02*
Y1828590D01*
X1070258Y1827503D01*
X1068600Y1827833D01*
X1066942Y1827503D01*
X1065536Y1826564D01*
X1064597Y1825158D01*
X1064267Y1823500D01*
X1064328Y1823193D01*
X1060417Y1819283D01*
X1059810Y1818373D01*
X1059596Y1817300D01*
Y1761850D01*
X1059810Y1760777D01*
X1060417Y1759867D01*
X1097767Y1722517D01*
X1097876Y1721413D01*
X1086868Y1710404D01*
X1076739D01*
X1068904Y1718239D01*
Y1727400D01*
X1068690Y1728473D01*
X1068083Y1729383D01*
X1056904Y1740561D01*
Y1766400D01*
X1056690Y1767473D01*
X1056523Y1767724D01*
X1057203Y1768742D01*
X1057533Y1770400D01*
X1057203Y1772058D01*
X1056264Y1773464D01*
X1054858Y1774403D01*
X1053200Y1774733D01*
X1051542Y1774403D01*
X1050136Y1773464D01*
X1049197Y1772058D01*
X1048867Y1770400D01*
X1049197Y1768742D01*
X1050136Y1767336D01*
X1050289Y1767234D01*
X1049737Y1765394D01*
X1049141Y1764825D01*
X1049100Y1764833D01*
X1047442Y1764503D01*
X1046036Y1763564D01*
X1045097Y1762158D01*
X1044919Y1761266D01*
X1044130Y1760288D01*
X1042854Y1759863D01*
X1042000Y1760033D01*
X1040529Y1761780D01*
X1040533Y1761800D01*
X1040203Y1763458D01*
X1039264Y1764864D01*
X1037858Y1765803D01*
X1037761Y1765823D01*
X1036344Y1767202D01*
X1036448Y1767968D01*
X1036633Y1768900D01*
X1036303Y1770558D01*
X1035364Y1771964D01*
X1033958Y1772903D01*
X1032300Y1773233D01*
X1030642Y1772903D01*
X1029236Y1771964D01*
X1029062Y1771704D01*
X1027700D01*
X1026627Y1771490D01*
X1025717Y1770883D01*
X1014267Y1759433D01*
X1013660Y1758523D01*
X1013446Y1757450D01*
Y1752464D01*
X1011853Y1751385D01*
X1011446Y1751296D01*
X1010000Y1751583D01*
X1009967Y1751577D01*
X1009498Y1751887D01*
X1008428Y1753310D01*
X1008632Y1754336D01*
X1008302Y1755994D01*
X1007363Y1757400D01*
X1005957Y1758339D01*
X1004299Y1758669D01*
X1003054Y1758421D01*
X1001649Y1759180D01*
X1001346Y1759436D01*
X1001314Y1761436D01*
X1002253Y1762842D01*
X1002583Y1764500D01*
X1002253Y1766158D01*
X1001314Y1767564D01*
X999908Y1768503D01*
X998250Y1768833D01*
X996592Y1768503D01*
X995186Y1767564D01*
X994247Y1766158D01*
X993917Y1764500D01*
X994247Y1762842D01*
X995186Y1761436D01*
X995446Y1761262D01*
Y1755866D01*
X993446Y1754294D01*
X993250Y1754333D01*
X991592Y1754003D01*
X990186Y1753064D01*
X989247Y1751658D01*
X989091Y1750878D01*
X982054Y1743840D01*
X980054Y1744669D01*
Y1775689D01*
X1042311Y1837946D01*
X1045039D01*
X1046112Y1838160D01*
X1047021Y1838767D01*
X1047450Y1839196D01*
X1059762D01*
X1059936Y1838936D01*
X1061342Y1837997D01*
X1063000Y1837667D01*
X1064658Y1837997D01*
X1066064Y1838936D01*
X1067003Y1840342D01*
X1067333Y1842000D01*
X1067003Y1843658D01*
X1066064Y1845064D01*
X1064658Y1846003D01*
X1063000Y1846333D01*
X1061342Y1846003D01*
X1059936Y1845064D01*
X1059762Y1844804D01*
X1053132D01*
X1052367Y1846652D01*
X1053943Y1848228D01*
X1054250Y1848167D01*
X1055908Y1848497D01*
X1057314Y1849436D01*
X1058253Y1850842D01*
X1058583Y1852500D01*
X1058253Y1854158D01*
X1057314Y1855564D01*
X1055908Y1856503D01*
X1054250Y1856833D01*
X1052592Y1856503D01*
X1052282Y1856297D01*
X1051674Y1856438D01*
X1050219Y1857323D01*
X1050003Y1858408D01*
X1049064Y1859814D01*
X1047658Y1860753D01*
X1046000Y1861083D01*
X1044342Y1860753D01*
X1042936Y1859814D01*
X1042762Y1859554D01*
X1040179D01*
X1039106Y1859340D01*
X1038196Y1858733D01*
X1034017Y1854554D01*
X1033410Y1853644D01*
X1033196Y1852571D01*
Y1852061D01*
X956767Y1775632D01*
X956160Y1774722D01*
X955946Y1773649D01*
X956160Y1772576D01*
X956196Y1772522D01*
Y1767580D01*
X955866Y1767452D01*
X954196Y1767247D01*
X953215Y1768715D01*
X951396Y1769931D01*
X949269Y1770354D01*
Y1820400D01*
X948997Y1821766D01*
X948223Y1822923D01*
X948826Y1825090D01*
X956581Y1832845D01*
X957350Y1832692D01*
X959496Y1833119D01*
X961315Y1834335D01*
X962531Y1836154D01*
X962958Y1838300D01*
X962531Y1840446D01*
X961315Y1842265D01*
X961315Y1842268D01*
X979573Y1860527D01*
X980347Y1861684D01*
X980619Y1863050D01*
Y1870520D01*
X981015Y1870785D01*
X981280Y1871181D01*
X1065472D01*
X1072231Y1864422D01*
D02*
G37*
G36*
X1159319Y1879854D02*
X1160535Y1878035D01*
X1162354Y1876819D01*
X1164192Y1876454D01*
Y1723203D01*
X1162192Y1722596D01*
X1161873Y1723073D01*
X1153673Y1731273D01*
X1152516Y1732047D01*
X1151150Y1732319D01*
X1108828D01*
X1075169Y1765978D01*
Y1770622D01*
X1080132Y1775585D01*
X1080600Y1775492D01*
X1082746Y1775919D01*
X1084565Y1777135D01*
X1084830Y1777531D01*
X1122600D01*
X1123966Y1777803D01*
X1125123Y1778577D01*
X1133632Y1787085D01*
X1134100Y1786992D01*
X1136246Y1787419D01*
X1138065Y1788635D01*
X1139281Y1790454D01*
X1139708Y1792600D01*
X1139281Y1794746D01*
X1138065Y1796565D01*
X1136246Y1797781D01*
X1134100Y1798208D01*
X1133369Y1800101D01*
Y1805470D01*
X1133765Y1805735D01*
X1134981Y1807554D01*
X1135408Y1809700D01*
X1134981Y1811846D01*
X1133765Y1813665D01*
X1131946Y1814881D01*
X1129800Y1815308D01*
X1127654Y1814881D01*
X1125989Y1813769D01*
X1120700D01*
X1119334Y1813497D01*
X1118177Y1812723D01*
X1116822Y1811369D01*
X1110062D01*
X1109234Y1813369D01*
X1112293Y1816428D01*
X1112600Y1816367D01*
X1114258Y1816697D01*
X1115664Y1817636D01*
X1116603Y1819042D01*
X1116933Y1820700D01*
X1116603Y1822358D01*
X1115664Y1823764D01*
X1114258Y1824703D01*
X1112600Y1825033D01*
X1110942Y1824703D01*
X1109536Y1823764D01*
X1108597Y1822358D01*
X1108267Y1820700D01*
X1108328Y1820393D01*
X1105239Y1817304D01*
X1102978D01*
X1102372Y1819304D01*
X1103465Y1820035D01*
X1104681Y1821854D01*
X1105108Y1824000D01*
X1104681Y1826146D01*
X1103465Y1827965D01*
X1101646Y1829181D01*
X1099500Y1829608D01*
X1097354Y1829181D01*
X1095535Y1827965D01*
X1095203Y1827469D01*
X1080678D01*
X1079369Y1828778D01*
Y1865900D01*
X1079097Y1867266D01*
X1078323Y1868423D01*
X1069473Y1877273D01*
X1068316Y1878047D01*
X1068049Y1878100D01*
X1068246Y1880100D01*
X1159270D01*
X1159319Y1879854D01*
D02*
G37*
G36*
X776729Y2192528D02*
X718479Y2154778D01*
X636354Y2281278D01*
X696604Y2319778D01*
X776729Y2192528D01*
D02*
G37*
G36*
X1384650Y2279925D02*
X1302525Y2153425D01*
X1244275Y2191175D01*
X1324400Y2318425D01*
X1384650Y2279925D01*
D02*
G37*
G36*
X778581Y2189827D02*
X811575Y2135435D01*
X734966Y2086239D01*
X688940Y2157296D01*
X706870Y2168916D01*
X716769Y2153668D01*
X717050Y2153379D01*
X717322Y2153099D01*
X717323Y2153098D01*
X717324Y2153098D01*
X717703Y2152935D01*
X718053Y2152784D01*
X718054D01*
X718055Y2152784D01*
X718472Y2152778D01*
X718849Y2152773D01*
X718849Y2152773D01*
X718850D01*
X719227Y2152923D01*
X719588Y2153067D01*
X745324Y2169746D01*
X746870Y2169234D01*
X751103Y2162649D01*
X752597Y2163609D01*
X753837Y2163336D01*
X756216Y2159598D01*
X754346Y2158397D01*
X760295Y2149144D01*
X761363Y2149831D01*
X762604Y2149558D01*
X764693Y2146274D01*
X764441Y2145896D01*
X764014Y2143750D01*
X764441Y2141604D01*
X765656Y2139785D01*
X767476Y2138570D01*
X769622Y2138143D01*
X771768Y2138570D01*
X773587Y2139785D01*
X774802Y2141604D01*
X775229Y2143750D01*
X774802Y2145896D01*
X773587Y2147716D01*
X771768Y2148931D01*
X769622Y2149358D01*
X769405Y2149315D01*
X766837Y2153350D01*
X768707Y2154551D01*
X762758Y2163804D01*
X761690Y2163118D01*
X760450Y2163390D01*
X758071Y2167128D01*
X760356Y2168597D01*
X756101Y2175216D01*
X755760Y2175747D01*
X756256Y2176830D01*
X776874Y2190192D01*
X778581Y2189827D01*
D02*
G37*
G36*
X959196Y1859738D02*
X958936Y1859564D01*
X957997Y1858158D01*
X957667Y1856500D01*
X957997Y1854842D01*
X958936Y1853436D01*
X959311Y1853186D01*
X959695Y1850741D01*
X954827Y1845873D01*
X954053Y1844716D01*
X953781Y1843350D01*
Y1842530D01*
X953385Y1842265D01*
X952169Y1840446D01*
X951742Y1838300D01*
X951895Y1837531D01*
X941857Y1827493D01*
X941139Y1826418D01*
X940886Y1825150D01*
Y1823181D01*
X940631Y1821900D01*
X940903Y1820534D01*
X941677Y1819377D01*
X942131Y1818922D01*
Y1768300D01*
X942403Y1766934D01*
X943177Y1765777D01*
X943735Y1765218D01*
X943642Y1764750D01*
X943710Y1764407D01*
X932777Y1753473D01*
X932003Y1752315D01*
X931731Y1750950D01*
Y1602430D01*
X931335Y1602165D01*
X930936Y1601569D01*
X899800D01*
Y1880100D01*
X959196D01*
Y1859738D01*
D02*
G37*
G36*
X964335Y1582918D02*
X964242Y1582450D01*
X964669Y1580304D01*
X965885Y1578485D01*
X967704Y1577269D01*
X969850Y1576842D01*
X970318Y1576935D01*
X973002Y1574251D01*
X972992Y1574200D01*
X973085Y1573732D01*
X970527Y1571173D01*
X969850Y1571308D01*
X967704Y1570881D01*
X965885Y1569665D01*
X964669Y1567846D01*
X964242Y1565700D01*
X964669Y1563554D01*
X965885Y1561735D01*
X966281Y1561470D01*
Y1517050D01*
X966553Y1515684D01*
X967327Y1514527D01*
X1008277Y1473577D01*
X1009434Y1472803D01*
X1010800Y1472531D01*
X1012961D01*
Y1455100D01*
X1011485Y1453286D01*
X1011101Y1453100D01*
X899800Y1453100D01*
Y1594431D01*
X931203D01*
X931335Y1594235D01*
X933154Y1593019D01*
X935300Y1592592D01*
X937446Y1593019D01*
X939265Y1594235D01*
X939397Y1594431D01*
X952822D01*
X964335Y1582918D01*
D02*
G37*
G36*
X1112000Y1493000D02*
X1112000Y1454000D01*
X1015000Y1454000D01*
X1015000Y1493000D01*
X1112000Y1493000D01*
D02*
G37*
G36*
X1093613Y1810518D02*
X1093869Y1809696D01*
X1093492Y1807800D01*
X1093919Y1805654D01*
X1095135Y1803835D01*
X1096954Y1802619D01*
X1099100Y1802192D01*
X1101246Y1802619D01*
X1103065Y1803835D01*
X1103330Y1804231D01*
X1118300D01*
X1119666Y1804503D01*
X1120823Y1805277D01*
X1122178Y1806631D01*
X1125236D01*
X1125835Y1805735D01*
X1126231Y1805470D01*
Y1796900D01*
X1126503Y1795534D01*
X1127277Y1794377D01*
X1128585Y1793068D01*
X1128492Y1792600D01*
X1128585Y1792132D01*
X1121122Y1784668D01*
X1084830D01*
X1084565Y1785065D01*
X1082746Y1786281D01*
X1080600Y1786708D01*
X1078454Y1786281D01*
X1076635Y1785065D01*
X1075419Y1783246D01*
X1074992Y1781100D01*
X1075085Y1780632D01*
X1069077Y1774623D01*
X1068303Y1773466D01*
X1068031Y1772100D01*
Y1764500D01*
X1068303Y1763134D01*
X1069077Y1761977D01*
X1100206Y1730847D01*
X1099548Y1728677D01*
X1099540Y1728676D01*
X1065204Y1763011D01*
Y1808767D01*
X1067204Y1810246D01*
X1067600Y1810167D01*
X1069258Y1810497D01*
X1070664Y1811436D01*
X1070838Y1811696D01*
X1092984D01*
X1093613Y1810518D01*
D02*
G37*
G36*
X955866Y1762048D02*
X956196Y1761920D01*
Y1723738D01*
X955936Y1723564D01*
X954997Y1722158D01*
X954667Y1720500D01*
X954997Y1718842D01*
X955936Y1717436D01*
X957342Y1716497D01*
X959000Y1716167D01*
X959687Y1716303D01*
X961401Y1714806D01*
X961420Y1714764D01*
X961417Y1714750D01*
X961747Y1713092D01*
X962686Y1711686D01*
X962946Y1711512D01*
Y1710929D01*
X963160Y1709856D01*
X963767Y1708946D01*
X974946Y1697767D01*
X975856Y1697159D01*
X976929Y1696946D01*
X1001262D01*
X1001436Y1696686D01*
X1002842Y1695747D01*
X1004500Y1695417D01*
X1006158Y1695747D01*
X1007564Y1696686D01*
X1008503Y1698092D01*
X1008833Y1699750D01*
X1008503Y1701408D01*
X1007564Y1702814D01*
X1006158Y1703753D01*
X1004500Y1704083D01*
X1002842Y1703753D01*
X1001436Y1702814D01*
X1001262Y1702554D01*
X978090D01*
X968872Y1711772D01*
X969753Y1713092D01*
X970083Y1714750D01*
X969753Y1716408D01*
X968814Y1717814D01*
X968554Y1717988D01*
Y1723953D01*
X970554Y1725022D01*
X970592Y1724997D01*
X972250Y1724667D01*
X972446Y1724706D01*
X974446Y1723134D01*
Y1719750D01*
X974660Y1718677D01*
X975267Y1717767D01*
X976978Y1716057D01*
X976917Y1715750D01*
X977247Y1714092D01*
X978186Y1712686D01*
X979592Y1711747D01*
X981250Y1711417D01*
X982908Y1711747D01*
X984314Y1712686D01*
X985253Y1714092D01*
X985583Y1715750D01*
X985253Y1717408D01*
X984314Y1718814D01*
X982908Y1719753D01*
X981250Y1720083D01*
X980054Y1721650D01*
Y1724831D01*
X982054Y1725660D01*
X983446Y1724267D01*
X984356Y1723660D01*
X985429Y1723446D01*
X997389D01*
X1021496Y1699339D01*
Y1685661D01*
X1007139Y1671304D01*
X997238D01*
X997064Y1671564D01*
X995658Y1672503D01*
X994000Y1672833D01*
X992342Y1672503D01*
X990936Y1671564D01*
X989997Y1670158D01*
X989667Y1668500D01*
X989997Y1666842D01*
X990936Y1665436D01*
X992342Y1664497D01*
X994000Y1664167D01*
X995658Y1664497D01*
X997064Y1665436D01*
X997238Y1665696D01*
X1008300D01*
X1009373Y1665910D01*
X1010283Y1666517D01*
X1022278Y1678512D01*
X1024773Y1678179D01*
X1024936Y1677936D01*
X1026342Y1676997D01*
X1028000Y1676667D01*
X1029658Y1676997D01*
X1031064Y1677936D01*
X1032003Y1679342D01*
X1032333Y1681000D01*
X1033969Y1681951D01*
X1034169Y1682023D01*
X1035709Y1682329D01*
X1037114Y1683268D01*
X1038054Y1684674D01*
X1038384Y1686332D01*
X1038054Y1687991D01*
X1037114Y1689396D01*
X1036854Y1689570D01*
Y1699917D01*
X1038702Y1700682D01*
X1140196Y1599188D01*
Y1590738D01*
X1139936Y1590564D01*
X1138997Y1589158D01*
X1138667Y1587500D01*
X1138997Y1585842D01*
X1139936Y1584436D01*
X1141342Y1583497D01*
X1143000Y1583167D01*
X1144658Y1583497D01*
X1146064Y1584436D01*
X1147003Y1585842D01*
X1147196Y1586811D01*
X1149196Y1586614D01*
Y1569238D01*
X1148936Y1569064D01*
X1147997Y1567658D01*
X1147667Y1566000D01*
X1147997Y1564342D01*
X1148936Y1562936D01*
X1150342Y1561997D01*
X1152000Y1561667D01*
X1153658Y1561997D01*
X1155064Y1562936D01*
X1156003Y1564342D01*
X1156333Y1566000D01*
X1156003Y1567658D01*
X1155064Y1569064D01*
X1154804Y1569238D01*
Y1596529D01*
X1155269Y1597096D01*
X1164192D01*
Y1454514D01*
X1162778Y1453100D01*
X1115899Y1453100D01*
X1114039Y1454000D01*
X1114039Y1493000D01*
X1113884Y1493780D01*
X1113442Y1494442D01*
X1112780Y1494884D01*
X1112000Y1495039D01*
X1015000Y1495039D01*
X1014220Y1494884D01*
X1013558Y1494442D01*
X1013116Y1493780D01*
X1012961Y1493000D01*
Y1481814D01*
X1010961Y1480986D01*
X973419Y1518528D01*
Y1561470D01*
X973815Y1561735D01*
X975031Y1563554D01*
X975458Y1565700D01*
X975406Y1565959D01*
X978132Y1568685D01*
X978600Y1568592D01*
X980746Y1569019D01*
X982565Y1570235D01*
X983781Y1572054D01*
X984208Y1574200D01*
X983781Y1576346D01*
X982565Y1578165D01*
X980746Y1579381D01*
X978600Y1579808D01*
X977715Y1579632D01*
X975365Y1581982D01*
X975458Y1582450D01*
X975031Y1584596D01*
X973815Y1586415D01*
X971996Y1587631D01*
X969850Y1588058D01*
X969382Y1587965D01*
X956823Y1600523D01*
X955666Y1601297D01*
X954300Y1601569D01*
X939664D01*
X939265Y1602165D01*
X938869Y1602430D01*
Y1749471D01*
X948657Y1759260D01*
X949250Y1759142D01*
X951396Y1759569D01*
X953215Y1760785D01*
X954196Y1762253D01*
X955866Y1762048D01*
D02*
G37*
G36*
X1155781Y1719072D02*
Y1620128D01*
X1152568Y1616915D01*
X1152100Y1617008D01*
X1149954Y1616581D01*
X1148135Y1615365D01*
X1146919Y1613546D01*
X1146887Y1613386D01*
X1144717Y1612727D01*
X1132196Y1625248D01*
X1132961Y1627096D01*
X1136062D01*
X1136236Y1626836D01*
X1137642Y1625897D01*
X1139300Y1625567D01*
X1140958Y1625897D01*
X1142364Y1626836D01*
X1142937Y1627694D01*
X1144507Y1627616D01*
X1145044Y1627521D01*
X1145044Y1627521D01*
X1145936Y1626186D01*
X1147342Y1625247D01*
X1149000Y1624917D01*
X1150658Y1625247D01*
X1152064Y1626186D01*
X1153003Y1627592D01*
X1153333Y1629250D01*
X1153003Y1630908D01*
X1152064Y1632314D01*
X1150658Y1633253D01*
X1149000Y1633583D01*
X1148693Y1633522D01*
X1145333Y1636883D01*
X1144423Y1637490D01*
X1143350Y1637704D01*
X1129640D01*
X1085318Y1682026D01*
Y1691906D01*
X1085105Y1692979D01*
X1084497Y1693889D01*
X1082438Y1695948D01*
X1083203Y1697796D01*
X1095300D01*
X1096373Y1698010D01*
X1097283Y1698617D01*
X1111361Y1712696D01*
X1114512D01*
X1114686Y1712436D01*
X1116092Y1711497D01*
X1117750Y1711167D01*
X1119408Y1711497D01*
X1120814Y1712436D01*
X1121037Y1712769D01*
X1123293Y1713252D01*
X1123523Y1713164D01*
X1124277Y1712660D01*
X1125350Y1712446D01*
X1128762D01*
X1128936Y1712186D01*
X1130342Y1711247D01*
X1132000Y1710917D01*
X1132196Y1710956D01*
X1134196Y1709384D01*
Y1706061D01*
X1116525Y1688390D01*
X1115158Y1689303D01*
X1113500Y1689633D01*
X1111842Y1689303D01*
X1110436Y1688364D01*
X1109497Y1686958D01*
X1109167Y1685300D01*
X1109497Y1683642D01*
X1110436Y1682236D01*
X1111842Y1681297D01*
X1113500Y1680967D01*
X1115158Y1681297D01*
X1116564Y1682236D01*
X1116738Y1682496D01*
X1117400D01*
X1118473Y1682710D01*
X1119383Y1683317D01*
X1138983Y1702917D01*
X1139591Y1703827D01*
X1139804Y1704900D01*
Y1717321D01*
X1139590Y1718394D01*
X1138983Y1719304D01*
X1134953Y1723334D01*
X1135718Y1725181D01*
X1149672D01*
X1155781Y1719072D01*
D02*
G37*
D10*
X605000Y2400000D02*
G03*
X605000Y2400000I-45000J0D01*
G01*
X1505000D02*
G03*
X1505000Y2400000I-45000J0D01*
G01*
Y1000000D02*
G03*
X1505000Y1000000I-45000J0D01*
G01*
X605000D02*
G03*
X605000Y1000000I-45000J0D01*
G01*
D17*
X1116200Y1360900D02*
D03*
Y1371900D02*
D03*
D40*
X935300Y1598200D02*
Y1750950D01*
X949100Y1764750D02*
X949250D01*
X935300Y1750950D02*
X949100Y1764750D01*
X881000Y1584000D02*
X895000Y1598000D01*
X875500Y1584000D02*
X881000D01*
X1022700Y1379500D02*
X1040200Y1362000D01*
X1080250D01*
X969850Y1565700D02*
X970100D01*
X978600Y1574200D01*
X978100D02*
X978600D01*
X969850Y1582450D02*
X978100Y1574200D01*
X969850Y1517050D02*
Y1565700D01*
Y1517050D02*
X1010800Y1476100D01*
X1021500D01*
X1024800Y1472800D01*
X954300Y1598000D02*
X969850Y1582450D01*
X895000Y1598000D02*
X935500D01*
X954300D01*
X1152100Y1611400D02*
X1159350Y1618650D01*
Y1720550D01*
X1151150Y1728750D02*
X1159350Y1720550D01*
X977050Y1863050D02*
Y1874750D01*
X957350Y1843350D02*
X977050Y1863050D01*
X957350Y1838300D02*
Y1843350D01*
X977050Y1874750D02*
X1066950D01*
X1075800Y1865900D01*
X1079200Y1823900D02*
X1099400D01*
X1099500Y1824000D01*
X1075800Y1827300D02*
X1079200Y1823900D01*
X1075800Y1827300D02*
Y1865900D01*
X1099100Y1807800D02*
X1118300D01*
X1120700Y1810200D01*
X1129300D01*
X1129800Y1809700D01*
Y1796900D02*
Y1809700D01*
Y1796900D02*
X1134100Y1792600D01*
X1080600Y1781100D02*
X1122600D01*
X1134100Y1792600D01*
X1107350Y1728750D02*
X1151150D01*
X1071600Y1764500D02*
X1107350Y1728750D01*
X1071600Y1764500D02*
Y1772100D01*
X1080600Y1781100D01*
X945700Y1768300D02*
X949250Y1764750D01*
X945700Y1768300D02*
Y1820400D01*
X944200Y1821900D02*
X945700Y1820400D01*
D41*
X1062400Y1761850D02*
Y1817300D01*
X1068600Y1823500D01*
X1067600Y1814500D02*
X1106400D01*
X1183500Y1609000D02*
Y1621360D01*
Y1609000D02*
X1187500Y1605000D01*
X744373Y1258974D02*
X751400Y1269600D01*
X736043Y1246230D02*
X744373Y1258974D01*
X1115300Y1373800D02*
Y1383500D01*
Y1373800D02*
X1116700Y1372400D01*
X1116200Y1371900D02*
X1116700Y1372400D01*
X1249500Y1259900D02*
X1257673Y1246226D01*
X1264988Y1234484D02*
X1265741Y1233236D01*
X1265763Y1233199D01*
X1257673Y1246226D02*
X1265769Y1233252D01*
X761526Y2156474D02*
X769622Y2143750D01*
X753431Y2169198D02*
X761526Y2156474D01*
X1276700Y2141300D02*
X1286626Y2156826D01*
X1268000Y2127700D02*
X1277926Y2143226D01*
X1040179Y1856750D02*
X1046000D01*
X1036000Y1852571D02*
X1040179Y1856750D01*
X958750Y1773649D02*
X1036000Y1850899D01*
Y1852571D01*
X1047250Y1845500D02*
X1054250Y1852500D01*
X1046289Y1842000D02*
X1063000D01*
X1045039Y1840750D02*
X1046289Y1842000D01*
X1041149Y1840750D02*
X1045039D01*
X977250Y1776850D02*
X1041149Y1840750D01*
X977250Y1719750D02*
Y1776850D01*
X1044839Y1845500D02*
X1047250D01*
X1043589Y1844250D02*
X1044839Y1845500D01*
X1039700Y1844250D02*
X1043589D01*
X972250Y1776800D02*
X1039700Y1844250D01*
X972250Y1729250D02*
Y1776800D01*
X965750Y1775250D02*
X1041000Y1850500D01*
X965750Y1714750D02*
Y1775250D01*
Y1710929D02*
Y1714750D01*
Y1710929D02*
X976929Y1699750D01*
X1004000D01*
X1004250Y1700000D01*
X982500Y1729179D02*
X985429Y1726250D01*
X982500Y1729179D02*
Y1740321D01*
X992179Y1750000D01*
X993250D01*
X977250Y1719750D02*
X981250Y1715750D01*
X959000Y1720500D02*
Y1773399D01*
X958750Y1773649D02*
X959000Y1773399D01*
X1129821Y1724500D02*
X1137000Y1717321D01*
X1099750Y1724500D02*
X1129821D01*
X1185550Y1588750D02*
X1195000D01*
X1004299Y1744230D02*
Y1754336D01*
X998250Y1745050D02*
Y1764500D01*
X1152000Y1566000D02*
Y1596529D01*
X1153579Y1599900D02*
X1174400D01*
X1185550Y1588750D01*
X1010000Y1743479D02*
Y1747250D01*
Y1743479D02*
X1153579Y1599900D01*
X1004299Y1744230D02*
X1152000Y1596529D01*
X1034051Y1686332D02*
Y1704350D01*
X1143000Y1587500D02*
Y1600350D01*
X1000600Y1742750D02*
X1143000Y1600350D01*
X988500Y1739250D02*
X999150D01*
X1034051Y1704350D01*
X998250Y1745050D02*
X1000550Y1742750D01*
X1000600D01*
X987500Y1731250D02*
X999850D01*
X1028000Y1703100D01*
Y1681000D02*
Y1703100D01*
X1101429Y1721000D02*
X1119600D01*
X1125350Y1715250D01*
X1132000D01*
X985429Y1726250D02*
X998550D01*
X1024300Y1700500D01*
X994000Y1668500D02*
X1008300D01*
X1024300Y1684500D01*
Y1700500D01*
X1110200Y1715500D02*
X1117750D01*
X1128529Y1629900D02*
X1139300D01*
X1128479Y1634900D02*
X1143350D01*
X1149000Y1629250D01*
X1082514Y1680864D02*
X1128479Y1634900D01*
X1069929Y1688500D02*
X1073900D01*
X1055600Y1712728D02*
X1071328Y1697000D01*
X1079015Y1679414D02*
X1128529Y1629900D01*
X1079015Y1679414D02*
Y1690457D01*
X1082514Y1680864D02*
Y1691906D01*
X1052100Y1711279D02*
Y1720751D01*
X1055600Y1712728D02*
Y1722200D01*
X1059100Y1714178D02*
Y1723650D01*
X1062600Y1715628D02*
Y1725100D01*
X1052100Y1711279D02*
X1069879Y1693500D01*
X1075971D01*
X1079015Y1690457D01*
X1071328Y1697000D02*
X1077421D01*
X1082514Y1691906D01*
X1062600Y1715628D02*
X1074128Y1704100D01*
X1091600D01*
X1103500Y1716000D01*
X1072678Y1700600D02*
X1095300D01*
X1059100Y1714178D02*
X1072678Y1700600D01*
X1095300D02*
X1110200Y1715500D01*
X1066100Y1717077D02*
Y1727400D01*
Y1717077D02*
X1075577Y1707600D01*
X1088029D02*
X1101429Y1721000D01*
X1075577Y1707600D02*
X1088029D01*
X1113500Y1685300D02*
X1117400D01*
X1137000Y1704900D01*
Y1717321D01*
X1062400Y1761850D02*
X1099750Y1724500D01*
X1021250Y1744250D02*
X1047100Y1718400D01*
X1016250Y1742179D02*
X1069929Y1688500D01*
X1031400Y1746400D02*
X1055600Y1722200D01*
X1016250Y1742179D02*
Y1757450D01*
X1027700Y1768900D02*
X1032300D01*
X1016250Y1757450D02*
X1027700Y1768900D01*
X1026300Y1746551D02*
X1052100Y1720751D01*
X1026329Y1762800D02*
X1030614D01*
X1106400Y1814500D02*
X1112600Y1820700D01*
X962000Y1856500D02*
Y1883750D01*
X1021250Y1744250D02*
Y1757721D01*
X1026329Y1762800D01*
X1031615Y1761800D02*
X1036200D01*
X1030614Y1762800D02*
X1031615Y1761800D01*
X1031400Y1746400D02*
Y1754400D01*
X1028300Y1757500D02*
X1031400Y1754400D01*
X1026300Y1746551D02*
Y1749200D01*
X1042000Y1740750D02*
Y1755700D01*
Y1740750D02*
X1059100Y1723650D01*
X1054100Y1739400D02*
X1066100Y1727400D01*
X1053200Y1767300D02*
Y1770400D01*
X1054100Y1739400D02*
Y1766400D01*
X1053200Y1767300D02*
X1054100Y1766400D01*
X1049100Y1738600D02*
Y1760500D01*
Y1738600D02*
X1062600Y1725100D01*
X1159000Y1887500D02*
X1164500Y1882000D01*
X962000Y1883750D02*
X965750Y1887500D01*
X1159000D01*
D42*
X1133100Y1360900D02*
X1133300Y1360700D01*
X1116200Y1360900D02*
X1133100D01*
D43*
X935300Y1598200D02*
X935500Y1598000D01*
X944200Y1825150D02*
X957350Y1838300D01*
X944200Y1821900D02*
Y1825150D01*
D46*
X627198Y2443409D02*
G03*
X492801Y2356591I-67198J-43409D01*
G01*
X847800Y2100300D02*
G03*
X903521Y2071281I53619J34952D01*
G01*
X768700Y1893300D02*
G03*
X754598Y1949357I-118419J12D01*
G01*
X1265402D02*
G03*
X1251300Y1893300I104316J-56045D01*
G01*
X1116479Y2071281D02*
G03*
X1172200Y2100300I2102J63971D01*
G01*
X1527199Y2356591D02*
G03*
X1392802Y2443409I-67199J43409D01*
G01*
X754598Y1450644D02*
G03*
X768700Y1506700I-104316J56045D01*
G01*
X903521Y1328719D02*
G03*
X847800Y1299700I-2102J-63971D01*
G01*
X492801Y1043409D02*
G03*
X627198Y956591I67199J-43409D01*
G01*
X1251300Y1506700D02*
G03*
X1265402Y1450644I118419J-12D01*
G01*
X1172200Y1299700D02*
G03*
X1116479Y1328719I-53619J-34952D01*
G01*
X1392802Y956591D02*
G03*
X1527199Y1043409I67198J43409D01*
G01*
X627294Y2443260D02*
X847778Y2100286D01*
X492801Y2356591D02*
X754596Y1949355D01*
X1265404D02*
X1527199Y2356591D01*
X1172222Y2100286D02*
X1392706Y2443260D01*
X492801Y1043409D02*
X754596Y1450645D01*
X627294Y956740D02*
X847778Y1299714D01*
X1265404Y1450645D02*
X1527199Y1043409D01*
X1172222Y1299714D02*
X1392706Y956740D01*
X903521Y1328719D02*
X1116479D01*
X768700Y1506700D02*
Y1893300D01*
X903521Y2071281D02*
X1116479D01*
X1251300Y1506700D02*
Y1893300D01*
D47*
X997300Y1379500D02*
D03*
D48*
X1022700D02*
D03*
D49*
X841650Y1813650D02*
D03*
X790850Y1762850D02*
D03*
X841650D02*
D03*
X790850Y1813650D02*
D03*
D50*
X816250Y1788250D02*
D03*
D51*
X1098300Y1395900D02*
D03*
X751400Y1269600D02*
D03*
X1115300Y1383500D02*
D03*
X1207000Y1416200D02*
D03*
X1216000D02*
D03*
Y1424950D02*
D03*
X1207000Y1424700D02*
D03*
X1198250D02*
D03*
X1249500Y1259900D02*
D03*
X777800Y2123600D02*
D03*
X740600Y2143200D02*
D03*
X1277200Y2085600D02*
D03*
X1211000Y2126600D02*
D03*
X1244300Y2178700D02*
D03*
X1284400Y2175500D02*
D03*
X734200Y2175900D02*
D03*
X769200Y2195300D02*
D03*
X646400Y2279000D02*
D03*
X1254600Y2193400D02*
D03*
X743200Y2097000D02*
D03*
X792600Y2147100D02*
D03*
X710600Y2155700D02*
D03*
X739800Y2123900D02*
D03*
X774400Y2177700D02*
D03*
X769622Y2143750D02*
D03*
X1268000Y2127700D02*
D03*
X1148250Y1873500D02*
D03*
X949250Y1764750D02*
D03*
X1060000Y1484000D02*
D03*
X1051750D02*
D03*
X1043750D02*
D03*
X1068000D02*
D03*
X875500Y1584000D02*
D03*
X1310800Y2154500D02*
D03*
X1281900Y2114900D02*
D03*
X1240200Y2142600D02*
D03*
X1292700Y2136600D02*
D03*
X1240700Y2110700D02*
D03*
X1132800Y1416500D02*
D03*
X1144050Y1422250D02*
D03*
X1154300Y1422000D02*
D03*
X1154050Y1411250D02*
D03*
X1143800Y1411500D02*
D03*
X1197650Y1375600D02*
D03*
X1206400D02*
D03*
X1215400Y1375850D02*
D03*
Y1367100D02*
D03*
X1206400D02*
D03*
X1154250Y1376750D02*
D03*
X1164750Y1376250D02*
D03*
X1165000Y1386500D02*
D03*
X1154250Y1386250D02*
D03*
X1144250D02*
D03*
X1164500Y1882000D02*
D03*
X905000Y1584000D02*
D03*
X838000Y1604750D02*
D03*
X1335392Y1171461D02*
D03*
X1325392Y1191461D02*
D03*
X1315392Y1131461D02*
D03*
X1325392Y1111461D02*
D03*
X1295392Y1211461D02*
D03*
X1305392Y1151461D02*
D03*
X1295392Y1131461D02*
D03*
X1275391Y1171461D02*
D03*
X1285392Y1151461D02*
D03*
X1255391Y1211461D02*
D03*
X1265391Y1191461D02*
D03*
X1310750Y1215250D02*
D03*
X710000Y1215000D02*
D03*
X765391Y1191461D02*
D03*
X735391Y1211461D02*
D03*
X745391Y1191461D02*
D03*
X735391Y1171461D02*
D03*
X725391Y1151461D02*
D03*
X715391Y1131461D02*
D03*
X705391Y1111461D02*
D03*
X695391Y1091461D02*
D03*
X675391Y1171461D02*
D03*
X685391Y1111461D02*
D03*
X665391Y1151461D02*
D03*
X969850Y1582450D02*
D03*
X978600Y1574200D02*
D03*
X969850Y1565700D02*
D03*
X560000Y2445000D02*
D03*
X515000Y2400000D02*
D03*
X605000D02*
D03*
X560000Y2355000D02*
D03*
X527500Y2430000D02*
D03*
X592500Y2427500D02*
D03*
Y2370000D02*
D03*
X530000Y2367500D02*
D03*
X1460000Y2445000D02*
D03*
X1415000Y2400000D02*
D03*
X1505000D02*
D03*
X1460000Y2355000D02*
D03*
X1427500Y2430000D02*
D03*
X1492500Y2427500D02*
D03*
Y2370000D02*
D03*
X1430000Y2367500D02*
D03*
X1460000Y1045000D02*
D03*
X1415000Y1000000D02*
D03*
X1505000D02*
D03*
X1460000Y955000D02*
D03*
X1427500Y1030000D02*
D03*
X1492500Y1027500D02*
D03*
Y970000D02*
D03*
X1430000Y967500D02*
D03*
X530000D02*
D03*
X592500Y970000D02*
D03*
Y1027500D02*
D03*
X527500Y1030000D02*
D03*
X560000Y955000D02*
D03*
X605000Y1000000D02*
D03*
X515000D02*
D03*
X560000Y1045000D02*
D03*
X1007998Y1489997D02*
D03*
X1023000Y1427000D02*
D03*
X1100000Y1484000D02*
D03*
X1092000D02*
D03*
X1084000D02*
D03*
X1076000D02*
D03*
X1085250Y1562300D02*
D03*
X1111500Y1596300D02*
D03*
Y1556800D02*
D03*
X938750Y1521750D02*
D03*
X1161500Y1450500D02*
D03*
X1278750Y1258500D02*
D03*
X1250200Y1296800D02*
D03*
X1279000Y1314000D02*
D03*
X1266000Y1305500D02*
D03*
X1277750Y1283750D02*
D03*
X1260100Y1278800D02*
D03*
X1293250Y1268250D02*
D03*
X1213250Y1269500D02*
D03*
X1230250Y1246250D02*
D03*
X1242750Y1225250D02*
D03*
X1189500Y1515000D02*
D03*
X1165500Y1515000D02*
D03*
X778884Y1224990D02*
D03*
X791384Y1245990D02*
D03*
X808384Y1269240D02*
D03*
X731400Y1258200D02*
D03*
X705900Y1239000D02*
D03*
X766384Y1270240D02*
D03*
X743884Y1283490D02*
D03*
X755634Y1305240D02*
D03*
X742634Y1313740D02*
D03*
X779750Y1287000D02*
D03*
X1115750Y1745250D02*
D03*
X969100Y1844300D02*
D03*
X978850Y1845300D02*
D03*
X947000Y1752750D02*
D03*
X948250Y1738500D02*
D03*
X1085500Y1598800D02*
D03*
X1124100Y1519300D02*
D03*
X1122100Y1482900D02*
D03*
X1152600Y1495600D02*
D03*
X1142198Y1622097D02*
D03*
X1152100Y1611400D02*
D03*
X935300Y1598200D02*
D03*
X1313100Y1245600D02*
D03*
X1080600Y1781100D02*
D03*
X1134100Y1792600D02*
D03*
X1099100Y1807800D02*
D03*
X1099500Y1824000D02*
D03*
X1084300Y1796800D02*
D03*
X1099400D02*
D03*
X1084450Y1835000D02*
D03*
X1100100Y1834900D02*
D03*
X1129800Y1809700D02*
D03*
X1110200Y1769500D02*
D03*
X1080700Y1769800D02*
D03*
X1065842Y1745758D02*
D03*
X1046100Y1790000D02*
D03*
X1029100D02*
D03*
X1012100D02*
D03*
X1029300Y1808000D02*
D03*
X1046300D02*
D03*
Y1825000D02*
D03*
X957350Y1838300D02*
D03*
X977050Y1874750D02*
D03*
X735391Y1271461D02*
D03*
X755391Y2111461D02*
D03*
X765391Y2131461D02*
D03*
X795391Y1271461D02*
D03*
X875391Y1471461D02*
D03*
X885391Y1491461D02*
D03*
X875391Y1511461D02*
D03*
X885391Y1531461D02*
D03*
X875391Y1551461D02*
D03*
Y1631461D02*
D03*
X885391Y1651461D02*
D03*
X875391Y1671461D02*
D03*
X885391Y1691461D02*
D03*
X875391Y1711461D02*
D03*
X885391Y1731461D02*
D03*
X875391Y1751461D02*
D03*
Y1831461D02*
D03*
X885391Y1851461D02*
D03*
X875391Y1871461D02*
D03*
X915391Y1471461D02*
D03*
X925391Y1491461D02*
D03*
X915391Y1511461D02*
D03*
X925391Y1531461D02*
D03*
X915391Y1551461D02*
D03*
X925391Y1571461D02*
D03*
X915391Y1751461D02*
D03*
Y1831461D02*
D03*
X925391Y1851461D02*
D03*
X915391Y1871461D02*
D03*
X935391Y1471461D02*
D03*
X945391Y1491461D02*
D03*
X935391Y1551461D02*
D03*
X945391Y1571461D02*
D03*
X935391Y1831461D02*
D03*
X945391Y1851461D02*
D03*
X935391Y1871461D02*
D03*
X955391Y1471461D02*
D03*
Y1551461D02*
D03*
X995391Y1511461D02*
D03*
X1005391Y1531461D02*
D03*
X1015391Y1551461D02*
D03*
X1045391Y1611461D02*
D03*
X1125391Y1851461D02*
D03*
X1145391Y1651461D02*
D03*
X1135391Y1831461D02*
D03*
X1155391Y1471461D02*
D03*
X1185391Y1371461D02*
D03*
Y1411461D02*
D03*
X1195391Y1391461D02*
D03*
X1215391D02*
D03*
X1225391Y2131461D02*
D03*
X1245391D02*
D03*
X1265391Y1291461D02*
D03*
Y2091461D02*
D03*
X1255391Y2151462D02*
D03*
X1275391Y1271461D02*
D03*
X555390Y1071460D02*
D03*
X535390Y2311460D02*
D03*
X595390Y1071460D02*
D03*
X575390Y1111460D02*
D03*
X595390Y1151460D02*
D03*
Y2271460D02*
D03*
X575390Y2311460D02*
D03*
X635390Y991460D02*
D03*
Y1071460D02*
D03*
X615390Y1111460D02*
D03*
Y1191460D02*
D03*
X635390Y1231460D02*
D03*
X615390Y2231460D02*
D03*
Y2311460D02*
D03*
X635390Y2351460D02*
D03*
X655390Y1031460D02*
D03*
X675390Y1071460D02*
D03*
X655390Y1271460D02*
D03*
X675390Y2111460D02*
D03*
X655390Y2151460D02*
D03*
X675390Y2191460D02*
D03*
X655390Y2311460D02*
D03*
X675390Y2351460D02*
D03*
X715390Y2031460D02*
D03*
X695390Y2071460D02*
D03*
X735390Y1351460D02*
D03*
X755390Y1391460D02*
D03*
Y2031460D02*
D03*
X735390Y2071460D02*
D03*
X775390Y1351460D02*
D03*
Y1431460D02*
D03*
X795390Y1551460D02*
D03*
Y1631460D02*
D03*
Y1711460D02*
D03*
Y1871460D02*
D03*
Y1951460D02*
D03*
X775390Y1991460D02*
D03*
X795390Y2031460D02*
D03*
X775390Y2071460D02*
D03*
X795390Y2111460D02*
D03*
X835390Y1311460D02*
D03*
X815390Y1351460D02*
D03*
X835390Y1391460D02*
D03*
X815390Y1431460D02*
D03*
X835390Y1471460D02*
D03*
X815390Y1511460D02*
D03*
X835390Y1551460D02*
D03*
X815390Y1591460D02*
D03*
X835390Y1631460D02*
D03*
X815390Y1671460D02*
D03*
X835390Y1711460D02*
D03*
X815390Y1751460D02*
D03*
Y1831460D02*
D03*
X835390Y1871460D02*
D03*
X815390Y1911460D02*
D03*
X835390Y1951460D02*
D03*
X815390Y1991460D02*
D03*
X835390Y2031460D02*
D03*
X815390Y2071460D02*
D03*
X855390Y1351460D02*
D03*
X875390Y1391460D02*
D03*
X855390Y1431460D02*
D03*
Y1511460D02*
D03*
Y1591460D02*
D03*
Y1671460D02*
D03*
Y1831460D02*
D03*
Y1911460D02*
D03*
X875390Y1951460D02*
D03*
X855390Y1991460D02*
D03*
X875390Y2031460D02*
D03*
X895390Y1351460D02*
D03*
X915390Y1391460D02*
D03*
X895390Y1431460D02*
D03*
Y1911460D02*
D03*
X915390Y1951460D02*
D03*
X895390Y1991460D02*
D03*
X935390Y1351460D02*
D03*
X955390Y1391460D02*
D03*
X935390Y1911460D02*
D03*
X955390Y1951460D02*
D03*
Y2031460D02*
D03*
X975390Y1351460D02*
D03*
Y1911460D02*
D03*
X995390Y1951460D02*
D03*
X975390Y1991460D02*
D03*
X995390Y2031460D02*
D03*
X1015390Y1351460D02*
D03*
X1035390Y1951460D02*
D03*
X1015390Y1991460D02*
D03*
X1035390Y2031460D02*
D03*
X1055390Y1351460D02*
D03*
Y1431460D02*
D03*
Y1911460D02*
D03*
X1075390Y1951460D02*
D03*
X1055390Y1991460D02*
D03*
X1075390Y2031460D02*
D03*
X1095390Y1991460D02*
D03*
X1115390Y2031460D02*
D03*
X1135390Y1911460D02*
D03*
X1155390Y1951460D02*
D03*
Y2031460D02*
D03*
X1195390Y1311460D02*
D03*
Y1471460D02*
D03*
X1175390Y1911460D02*
D03*
X1195390Y1951460D02*
D03*
X1175390Y1991460D02*
D03*
Y2071460D02*
D03*
X1195390Y2111460D02*
D03*
X1235390Y1471460D02*
D03*
X1215390Y1511460D02*
D03*
X1235390Y1551460D02*
D03*
Y1631460D02*
D03*
X1215390Y1671460D02*
D03*
X1235390Y1711460D02*
D03*
X1215390Y1751460D02*
D03*
X1235390Y1791460D02*
D03*
X1215390Y1831460D02*
D03*
Y1911460D02*
D03*
X1235390Y1951460D02*
D03*
X1215390Y1991460D02*
D03*
X1235390Y2031460D02*
D03*
X1255390Y1351460D02*
D03*
X1275390Y1391460D02*
D03*
X1255390Y1991460D02*
D03*
X1275390Y2031460D02*
D03*
X1255390Y2071460D02*
D03*
X1295390Y1351460D02*
D03*
Y2071460D02*
D03*
X1355390Y1071460D02*
D03*
X1335390Y1271460D02*
D03*
X1355390Y2111460D02*
D03*
Y2351460D02*
D03*
X1375390Y1031460D02*
D03*
X1395390Y1071460D02*
D03*
Y1231460D02*
D03*
X1375390Y2151460D02*
D03*
X1395390Y2191460D02*
D03*
X1375390Y2311460D02*
D03*
X1395390Y2351460D02*
D03*
X1375390Y2391460D02*
D03*
X1435390Y1071460D02*
D03*
X1415390Y1111460D02*
D03*
X1435390Y1151460D02*
D03*
X1415390Y1191460D02*
D03*
Y2231460D02*
D03*
X1435390Y2271460D02*
D03*
X1415390Y2311460D02*
D03*
X1475390Y1071460D02*
D03*
X1455390Y1111460D02*
D03*
Y2311460D02*
D03*
D52*
X1067600Y1814500D02*
D03*
X1068600Y1823500D02*
D03*
X1010900Y1849100D02*
D03*
X1183500Y1621360D02*
D03*
X1163400Y1802100D02*
D03*
X1113500Y1685300D02*
D03*
X1136600Y1686400D02*
D03*
X924800Y1691200D02*
D03*
X948300Y1713200D02*
D03*
X1170700Y1624600D02*
D03*
X1143000Y1587500D02*
D03*
X1195000Y1588750D02*
D03*
X1028000Y1681000D02*
D03*
X1004299Y1754336D02*
D03*
X998250Y1764500D02*
D03*
X1010000Y1747250D02*
D03*
X1046000Y1856750D02*
D03*
X1054250Y1852500D02*
D03*
X980750Y1706250D02*
D03*
X1004500Y1699750D02*
D03*
X994000Y1668500D02*
D03*
X987500Y1731250D02*
D03*
X993250Y1750000D02*
D03*
X965750Y1714750D02*
D03*
X1123250Y1839250D02*
D03*
X1063800Y1858200D02*
D03*
X972250Y1729000D02*
D03*
X959000Y1720500D02*
D03*
X981250Y1715750D02*
D03*
X988500Y1739250D02*
D03*
X1187500Y1605000D02*
D03*
X1152000Y1566000D02*
D03*
X1117750Y1715500D02*
D03*
X1132000Y1715250D02*
D03*
X1103500Y1716000D02*
D03*
X1063000Y1842000D02*
D03*
X1041000Y1850500D02*
D03*
X995500Y1707250D02*
D03*
X1034051Y1686332D02*
D03*
X1047100Y1718400D02*
D03*
X981700Y1588300D02*
D03*
X1031400Y1608700D02*
D03*
X975000Y1643300D02*
D03*
X1083400Y1635800D02*
D03*
X1022500Y1626400D02*
D03*
X996000Y1623300D02*
D03*
X1022300Y1644100D02*
D03*
X992400Y1648700D02*
D03*
X1044200Y1645100D02*
D03*
X958100Y1633200D02*
D03*
X924000Y1632300D02*
D03*
X964100Y1627700D02*
D03*
X955400Y1620200D02*
D03*
X1149000Y1629250D02*
D03*
X1073900Y1688500D02*
D03*
X1139300Y1629900D02*
D03*
X1153600Y1680600D02*
D03*
X1088400Y1694300D02*
D03*
X1110600Y1702300D02*
D03*
X1104500Y1678200D02*
D03*
X1058400Y1655000D02*
D03*
X1090500Y1720600D02*
D03*
X1124800Y1702500D02*
D03*
X1059200Y1666900D02*
D03*
X962100Y1652500D02*
D03*
X991000Y1681400D02*
D03*
X972500Y1683200D02*
D03*
X1040600Y1673900D02*
D03*
X957400Y1688000D02*
D03*
X948600Y1655500D02*
D03*
X1116400Y1658900D02*
D03*
X1171000Y1673700D02*
D03*
X1145400Y1722800D02*
D03*
X1075200Y1719100D02*
D03*
X1028300Y1757500D02*
D03*
X1036200Y1761800D02*
D03*
X1042000Y1755700D02*
D03*
X1032300Y1768900D02*
D03*
X1026300Y1749200D02*
D03*
X1112600Y1820700D02*
D03*
X1103000Y1626300D02*
D03*
X1196250Y1658750D02*
D03*
X871750Y1599300D02*
D03*
X900100Y1624900D02*
D03*
X962000Y1856500D02*
D03*
X984898Y1866796D02*
D03*
X968400Y1867700D02*
D03*
X967500Y1878000D02*
D03*
X964300Y1797300D02*
D03*
X964900Y1786900D02*
D03*
X979200Y1808500D02*
D03*
X976300Y1819600D02*
D03*
X963100Y1819100D02*
D03*
Y1808400D02*
D03*
X899300Y1780600D02*
D03*
X891300Y1773600D02*
D03*
X883300Y1780600D02*
D03*
X923400Y1780500D02*
D03*
X931400Y1773500D02*
D03*
X939400Y1780500D02*
D03*
X939100Y1798100D02*
D03*
X923100D02*
D03*
X887700Y1808200D02*
D03*
X903700D02*
D03*
X887700Y1820200D02*
D03*
X903700D02*
D03*
X885200Y1800500D02*
D03*
X901200D02*
D03*
X918800Y1807900D02*
D03*
X934800D02*
D03*
X918800Y1819900D02*
D03*
X934800D02*
D03*
X954000Y1776750D02*
D03*
X1090400Y1913000D02*
D03*
X1053200Y1770400D02*
D03*
X1049100Y1760500D02*
D03*
D53*
X1275389Y1241459D02*
D03*
X1245389D02*
D03*
X1215389Y2141459D02*
D03*
X1230389Y1271459D02*
D03*
X1185389Y1421459D02*
D03*
Y1361459D02*
D03*
X1170389Y1751459D02*
D03*
X780389Y1271459D02*
D03*
X765389Y1241459D02*
D03*
X755391Y2191462D02*
D03*
X735391Y2231462D02*
D03*
X745391Y2211462D02*
D03*
X715391Y2271462D02*
D03*
X725391Y2251462D02*
D03*
X695391Y2311462D02*
D03*
X705391Y2291462D02*
D03*
X695391Y2271462D02*
D03*
X705391Y2251462D02*
D03*
X685391Y2291462D02*
D03*
X675391Y2231462D02*
D03*
X685391Y2211462D02*
D03*
X1375392Y2271462D02*
D03*
X1335392Y2231462D02*
D03*
X1325392Y2291462D02*
D03*
X1315392Y2271462D02*
D03*
X1325392Y2211462D02*
D03*
X1315392Y2191462D02*
D03*
X1305392Y2251462D02*
D03*
X1295392Y2191462D02*
D03*
X1285392Y2251462D02*
D03*
X1275391Y2231462D02*
D03*
D54*
X1344339Y1133688D02*
D03*
X1386398Y1160725D02*
D03*
X633602Y2239274D02*
D03*
X675661Y2266312D02*
D03*
D55*
Y1133688D02*
D03*
X633602Y1160725D02*
D03*
X1386398Y2239274D02*
D03*
X1344339Y2266312D02*
D03*
D56*
X1290578Y1289757D02*
D03*
X1307822Y1300843D02*
D03*
X714922Y2127643D02*
D03*
X697678Y2116557D02*
D03*
X726722Y2108843D02*
D03*
X709478Y2097757D02*
D03*
D57*
X1302578Y1270857D02*
D03*
X1319822Y1281943D02*
D03*
D58*
X1323127Y1262474D02*
D03*
X1313873Y1256526D02*
D03*
X1331127Y1250174D02*
D03*
X1321873Y1244226D02*
D03*
X695773Y2136926D02*
D03*
X705026Y2142874D02*
D03*
X687874Y2148826D02*
D03*
X697126Y2154774D02*
D03*
X1266926Y1252174D02*
D03*
X1257673Y1246226D02*
D03*
D59*
X730422Y1288257D02*
D03*
X713178Y1299343D02*
D03*
X718422Y1269757D02*
D03*
X701178Y1280843D02*
D03*
X1305278Y2128543D02*
D03*
X1322522Y2117457D02*
D03*
X1293378Y2109943D02*
D03*
X1310622Y2098857D02*
D03*
D60*
X689874Y1248674D02*
D03*
X699127Y1242726D02*
D03*
X697973Y1261074D02*
D03*
X707226Y1255126D02*
D03*
X1324026Y2138026D02*
D03*
X1314774Y2143974D02*
D03*
X1331826Y2149926D02*
D03*
X1322574Y2155874D02*
D03*
X753626Y1253026D02*
D03*
X744373Y1258974D02*
D03*
X1268673Y2149174D02*
D03*
X1277926Y2143226D02*
D03*
D61*
X1353700Y1215386D02*
D03*
X1296500Y1178614D02*
D03*
X657900Y2180114D02*
D03*
X715100Y2216886D02*
D03*
D62*
X664600Y1215886D02*
D03*
X721800Y1179114D02*
D03*
X1361600Y2179864D02*
D03*
X1304400Y2216636D02*
D03*
D63*
X752273Y2150526D02*
D03*
X761526Y2156474D02*
D03*
D64*
X1291094Y1238239D02*
D03*
X1285957Y1246230D02*
D03*
X1265769Y1233252D02*
D03*
X1296231Y1230248D02*
D03*
X1270906Y1225261D02*
D03*
X728106Y2164211D02*
D03*
X733243Y2156220D02*
D03*
X753431Y2169198D02*
D03*
X722969Y2172202D02*
D03*
X748294Y2177189D02*
D03*
D65*
X1276043Y1217270D02*
D03*
X743157Y2185180D02*
D03*
D66*
X751094Y1225261D02*
D03*
X756231Y1233252D02*
D03*
X736043Y1246230D02*
D03*
X745957Y1217270D02*
D03*
X730906Y1238239D02*
D03*
X1271006Y2176889D02*
D03*
X1265869Y2168898D02*
D03*
X1286057Y2155920D02*
D03*
X1276143Y2184880D02*
D03*
X1291194Y2163911D02*
D03*
D67*
X725769Y1230248D02*
D03*
X1296331Y2171902D02*
D03*
D68*
X1085700Y1370400D02*
D03*
X1145700D02*
D03*
M02*
