M48
;Layer_Color=9474304
;FILE_FORMAT=4:4
METRIC,LZ
;TYPE=PLATED
T1F00S00C0.3000
T2F00S00C1.1000
T3F00S00C1.5000
T4F00S00C1.7000
;TYPE=NON_PLATED
T5F00S00C6.0000
%
T01
X0053Y009675
X0056Y00955
X005925Y0097
X00605Y01
X0063539Y0099146
X0065539Y0103146
X0067539Y0107146
X0063539
X0059539
X0055539
X0056Y01045
X005275Y0103
X00515Y01
X005925Y010275
X0057539Y0111146
X0061539
X0059539Y0115146
X0061539Y0119146
X0063539Y0123146
X007059Y01239
X0071Y01215
X00735391Y01211461
X00745391Y01191461
X00765391
X00778884Y0122499
X00765389Y01241459
X00791384Y0124599
X00735391Y01171461
X00725391Y01151461
X00715391Y01131461
X00705391Y01111461
X00685391
X00695391Y01091461
X00665391Y01151461
X00675391Y01171461
X01265391Y01191461
X01255391Y01211461
X0124275Y0122525
X01245389Y01241459
X0123025Y0124625
X01275389Y01241459
X013131Y012456
X0131075Y0121525
X01295392Y01211461
X01325392Y01191461
X01335392Y01171461
X01305392Y01151461
X01285392
X01295392Y01131461
X01315392
X01325392Y01111461
X0135539Y0107146
X0139539
X0143539
X0147539
X0146Y01045
X014275Y0103
X01415Y01
X0143Y009675
X0146Y00955
X014925Y0097
X01505Y01
X014925Y010275
X0137539Y0103146
X0141539Y0111146
X0145539
X0143539Y0115146
X0141539Y0119146
X0139539Y0123146
X01275391Y01171461
X0127875Y012585
X01275391Y01271461
X0127775Y0128375
X0129325Y0126825
X0133539Y0127146
X01279Y01314
X0129539Y0135146
X0127539Y0139146
X01215391Y01391461
X012154Y0137585
Y013671
X012064
Y013756
X0119765
X01185391Y01371461
X01185389Y01361459
X0116475Y0137625
X01165Y013865
X0115425Y0138625
Y0137675
X0114425Y0138625
X011438Y014115
X0115405Y0141125
X011543Y01422
X0114405Y0142225
X011328Y014165
X011153Y013835
X010983Y013959
X0105539Y0143146
X01023Y01427
X0104375Y01484
X0105175
X0106
X01068
X01076
X01084
X01092
X011
X011221Y014829
X011241Y015193
X011655Y01515
X011895Y01515
X0121539Y0151146
X0123539Y0147146
X0119539
X01155391Y01471461
X011526Y014956
X011615Y014505
X01185389Y01421459
X01185391Y01411461
X0119825Y014247
X01207
Y014162
X01216
Y0142495
X01195391Y01391461
X0119539Y0131146
X0121325Y012695
X01230389Y01271459
X012495Y012599
X012601Y012788
X01265391Y01291461
X01266Y013055
X012502Y012968
X0125539Y0135146
X0105539
X0101539
X0097539
X0093539
X0089539
X0091539Y0139146
X0095539
X00955391Y01471461
X00935391
X00915391
X00925391Y01491461
X00945391
X0093875Y0152175
X00925391Y01531461
X00915391Y01511461
Y01551461
X00935391
X00955391
X0096985Y015657
Y0158245
X009786Y015742
X009817Y015883
X00996Y016233
X009924Y016487
X00975Y016433
X009621Y016525
X009581Y016332
X009641Y016277
X009554Y016202
X009353Y015982
X00925391Y01571461
X00945391
X00905Y01584
X009001Y016249
X00924Y016323
X00885391Y01651461
Y01531461
Y01491461
X0089539Y0143146
X01007998Y01489997
X00995391Y01511461
X01005391Y01531461
X01015391Y01551461
X010314Y016087
X01045391Y01611461
X010442Y016451
X010223Y016441
X010225Y016264
X010834Y016358
X01103Y016263
X011115Y015963
X010855Y015988
X0108525Y015623
X011115Y015568
X01152Y01566
X01143Y015875
X011521Y016114
X01142198Y01622097
X011393Y016299
X01149Y0162925
X01145391Y01651461
X011707Y016246
X011835Y0162136
X011875Y01605
X01195Y0158875
X0123539Y0155146
Y0163146
X00875391Y01631461
X0087175Y015993
X008755Y01584
X0085539Y0159146
X00838Y0160475
X0083539Y0163146
X0079539
X0081539Y0159146
X0083539Y0155146
X0079539
X0081539Y0151146
X0085539
X00875391Y01511461
Y01471461
X0083539Y0147146
X0081539Y0143146
X0077539
X0075539Y0139146
X0073539Y0135146
X0077539
X0081539
X0085539
X0087539Y0139146
X0083539
X0085539Y0143146
X0083539Y0131146
X00808384Y0126924
X00795391Y01271461
X00780389Y01271459
X00766384Y0127024
X007514Y012696
X00735391Y01271461
X007314Y012582
X00743884Y0128349
X00742634Y0131374
X00755634Y0130524
X0077975Y01287
X0065539Y0127146
X00875391Y01551461
Y01671461
X0085539Y0167146
X0081539
X0083539Y0171146
X0079539
X0081539Y0175146
X00875391Y01751461
Y01711461
Y01831461
X0085539Y0183146
X0081539
X0083539Y0187146
X0079539
X0081539Y0191146
X0085539
X00875391Y01871461
X0087539Y0195146
X0083539
X0079539
X0077539Y0199146
X0081539
X0085539
X0087539Y0203146
X0083539
X0079539
X0075539
X0071539
X0089539Y0199146
X0091539Y0195146
X0095539
X0099539
X0103539
X0107539
X010904Y01913
X0105539Y0191146
X0105425Y018525
X01046Y0185675
X01041Y018505
X010638Y018582
X01063Y01842
X010686Y018235
X010676Y018145
X010463Y01808
X010293
X010291Y0179
X010461
X010532Y017704
X010491Y017605
X01042Y017557
X010362Y017618
X010323Y017689
X010283Y017575
X010263Y017492
X0101Y0174725
X01004299Y01754336
X0099325Y0175
X009885Y0173925
X009875Y0173125
X0097225Y01729
X0096575Y0171475
X00959Y017205
X009483Y017132
X0094825Y017385
X00947Y0175275
X0094925Y0176475
X00954Y0177675
X009394Y017805
X009314Y017735
X009234Y017805
X009231Y017981
X009188Y018079
Y018199
X00915391Y01831461
X00935391
X009348Y018199
Y018079
X009391Y017981
X009643Y017973
X009649Y017869
X009631Y018084
Y018191
X009763Y018196
X009792Y018085
X0097885Y018453
X009691Y018443
X0095735Y018383
X00962Y018565
X009684Y018677
X009675Y01878
X0097705Y0187475
X00984898Y01866796
X010109Y018491
X010463Y01825
X0108445Y01835
X011001Y018349
X010995Y01824
X011126Y018207
X010991Y018078
X010994Y017968
X010843
X010806Y017811
X010807Y017698
X011102Y017695
X0111575Y0174525
X0111775Y017155
X01132Y0171525
X011248Y017025
X011106Y017023
X011135Y016853
X011045Y016782
X011164Y016589
X011366Y016864
X011536Y016806
X01171Y016737
X0119625Y0165875
X0121539Y0167146
X0123539Y0171146
X0121539Y0175146
X01170389Y01751459
X011454Y017228
X011035Y01716
X010905Y017206
X010752Y017191
X010471Y017184
X01034051Y01686332
X01028Y01681
X010406Y016739
X010592Y016669
X010584Y01655
X010739Y016885
X010884Y016943
X01065842Y01745758
X0099825Y017645
X010121Y0179
X010045Y0169975
X009955Y0170725
X0098075Y0170625
X0098125Y0171575
X009725Y016832
X009574Y01688
X009248Y016912
X00885391Y01691461
Y01731461
X008913Y017736
X008833Y017806
X008993
X009012Y018005
X009037Y018082
Y018202
X008877
Y018082
X008852Y018005
X00885391Y01851461
X00925391
X00945391
X00935391Y01871461
X00915391
X0093539Y0191146
X0089539
X0097539
Y0199146
X0101539
X0105539
X0109539
X0111539Y0203146
X0107539
X0103539
X0099539
X0095539
X0115539
X0117539Y0199146
X0121539
X0125539
X0123539Y0195146
X0119539
X0115539
X0113539Y0191146
X0117539
X0121539
Y0183146
X0123539Y0179146
X011634Y018021
X011341Y017926
X011298Y018097
X01135391Y01831461
X0112325Y0183925
X01125391Y01851461
X0114825Y018735
X011645Y01882
X0123539Y0203146
X00991Y016814
X00994Y016685
X009486Y016555
X00915391Y01751461
X0127539Y0203146
X012772Y020856
X0129539Y0207146
X012819Y021149
X012927Y021366
X013108Y021545
X01315392Y02191462
X01295392
X012844Y021755
X01275391Y02231462
X01285392Y02251462
X01305392
X01315392Y02271462
X01325392Y02291462
X0137539Y0231146
X01375392Y02271462
X0143539Y0227146
X0141539Y0223146
X0139539Y0219146
X0137539Y0215146
X0135539Y0211146
X01325392Y02211462
X01335392Y02231462
X0135539Y0235146
X0139539
X0143Y023675
X0146Y02355
X014925Y0237
X01505Y024
X014925Y024275
X0146Y02445
X014275Y0243
X01415Y024
X0137539Y0239146
X0141539Y0231146
X0145539
X012546Y021934
X012443Y021787
X01255391Y02151462
X012402Y021426
X01245391Y02131461
X01225391
X01211Y021266
X01215389Y02141459
X0119539Y0211146
X012407Y021107
X01265391Y02091461
X0125539Y0207146
X01268Y021277
X0117539Y0207146
X0081539
X0077539
X0073539
X007432Y02097
X00755391Y02111461
X007398Y021239
X007406Y021432
X00769622Y0214375
X00765391Y02131461
X007778Y021236
X0079539Y0211146
X007926Y021471
X007744Y021777
X007692Y021953
X00755391Y02191462
X00745391Y02211462
X00735391Y02231462
X00725391Y02251462
X00705391
X00715391Y02271462
X00695391
X00705391Y02291462
X00685391
X00695391Y02311462
X0065539Y0231146
X0061539
X0057539
X0053539
X0053Y023675
X0056Y02355
X005925Y0237
X00605Y024
X005925Y024275
X0056Y02445
X005275Y0243
X00515Y024
X0063539Y0235146
X0067539
X006464Y02279
X0059539Y0227146
X0061539Y0223146
X00675391Y02231462
X00685391Y02211462
X0067539Y0219146
X0065539Y0215146
X007106Y021557
X007342Y021759
X0067539Y0211146
X0069539Y0207146
T02
X009973Y013795
X010227
T03
X0081625Y0178825
T04
X0079085Y0176285
X0084165
Y0181365
X0079085
T05
X0056Y01
X0146
Y024
X0056
M30
