G04 Layer_Color=16711935*
%FSLAX44Y44*%
%MOMM*%
G71*
G01*
G75*
%ADD43C,0.2540*%
%ADD72R,0.8000X0.7000*%
%ADD99C,1.9000*%
%ADD100R,1.9000X1.9000*%
%ADD101C,0.1000*%
%ADD102C,2.4000*%
%ADD103C,2.2000*%
%ADD104C,0.6000*%
G04:AMPARAMS|DCode=105|XSize=1.1mm|YSize=1.55mm|CornerRadius=0mm|HoleSize=0mm|Usage=FLASHONLY|Rotation=32.936|XOffset=0mm|YOffset=0mm|HoleType=Round|Shape=Rectangle|*
%AMROTATEDRECTD105*
4,1,4,-0.0402,-0.9495,-0.8830,0.3514,0.0402,0.9495,0.8830,-0.3514,-0.0402,-0.9495,0.0*
%
%ADD105ROTATEDRECTD105*%

G04:AMPARAMS|DCode=106|XSize=1.1mm|YSize=1.55mm|CornerRadius=0mm|HoleSize=0mm|Usage=FLASHONLY|Rotation=32.936|XOffset=0mm|YOffset=0mm|HoleType=Round|Shape=Rectangle|*
%AMROTATEDRECTD106*
4,1,4,-0.0402,-0.9495,-0.8830,0.3514,0.0402,0.9495,0.8830,-0.3514,-0.0402,-0.9495,0.0*
%
%ADD106ROTATEDRECTD106*%

G04:AMPARAMS|DCode=107|XSize=0.7mm|YSize=0.8mm|CornerRadius=0mm|HoleSize=0mm|Usage=FLASHONLY|Rotation=32.936|XOffset=0mm|YOffset=0mm|HoleType=Round|Shape=Rectangle|*
%AMROTATEDRECTD107*
4,1,4,-0.0763,-0.5260,-0.5112,0.1454,0.0763,0.5260,0.5112,-0.1454,-0.0763,-0.5260,0.0*
%
%ADD107ROTATEDRECTD107*%

G04:AMPARAMS|DCode=108|XSize=1.1mm|YSize=1.55mm|CornerRadius=0mm|HoleSize=0mm|Usage=FLASHONLY|Rotation=147.064|XOffset=0mm|YOffset=0mm|HoleType=Round|Shape=Rectangle|*
%AMROTATEDRECTD108*
4,1,4,0.8830,0.3514,0.0402,-0.9495,-0.8830,-0.3514,-0.0402,0.9495,0.8830,0.3514,0.0*
%
%ADD108ROTATEDRECTD108*%

G04:AMPARAMS|DCode=109|XSize=0.7mm|YSize=0.8mm|CornerRadius=0mm|HoleSize=0mm|Usage=FLASHONLY|Rotation=147.064|XOffset=0mm|YOffset=0mm|HoleType=Round|Shape=Rectangle|*
%AMROTATEDRECTD109*
4,1,4,0.5112,0.1454,0.0763,-0.5260,-0.5112,-0.1454,-0.0763,0.5260,0.5112,0.1454,0.0*
%
%ADD109ROTATEDRECTD109*%

G04:AMPARAMS|DCode=110|XSize=2.1mm|YSize=3.7mm|CornerRadius=0mm|HoleSize=0mm|Usage=FLASHONLY|Rotation=32.936|XOffset=0mm|YOffset=0mm|HoleType=Round|Shape=Rectangle|*
%AMROTATEDRECTD110*
4,1,4,0.1246,-2.1235,-1.8871,0.9818,-0.1246,2.1235,1.8871,-0.9818,0.1246,-2.1235,0.0*
%
%ADD110ROTATEDRECTD110*%

G04:AMPARAMS|DCode=111|XSize=2.1mm|YSize=3.7mm|CornerRadius=0mm|HoleSize=0mm|Usage=FLASHONLY|Rotation=147.064|XOffset=0mm|YOffset=0mm|HoleType=Round|Shape=Rectangle|*
%AMROTATEDRECTD111*
4,1,4,1.8871,0.9818,-0.1246,-2.1235,-1.8871,-0.9818,0.1246,2.1235,1.8871,0.9818,0.0*
%
%ADD111ROTATEDRECTD111*%

G04:AMPARAMS|DCode=112|XSize=2.1mm|YSize=3.7mm|CornerRadius=0mm|HoleSize=0mm|Usage=FLASHONLY|Rotation=32.936|XOffset=0mm|YOffset=0mm|HoleType=Round|Shape=Rectangle|*
%AMROTATEDRECTD112*
4,1,4,0.1246,-2.1235,-1.8871,0.9818,-0.1246,2.1235,1.8871,-0.9818,0.1246,-2.1235,0.0*
%
%ADD112ROTATEDRECTD112*%

G04:AMPARAMS|DCode=113|XSize=0.7mm|YSize=0.8mm|CornerRadius=0mm|HoleSize=0mm|Usage=FLASHONLY|Rotation=147.064|XOffset=0mm|YOffset=0mm|HoleType=Round|Shape=Rectangle|*
%AMROTATEDRECTD113*
4,1,4,0.5112,0.1454,0.0763,-0.5260,-0.5112,-0.1454,-0.0763,0.5260,0.5112,0.1454,0.0*
%
%ADD113ROTATEDRECTD113*%

G04:AMPARAMS|DCode=114|XSize=0.7mm|YSize=0.8mm|CornerRadius=0mm|HoleSize=0mm|Usage=FLASHONLY|Rotation=32.936|XOffset=0mm|YOffset=0mm|HoleType=Round|Shape=Rectangle|*
%AMROTATEDRECTD114*
4,1,4,-0.0763,-0.5260,-0.5112,0.1454,0.0763,0.5260,0.5112,-0.1454,-0.0763,-0.5260,0.0*
%
%ADD114ROTATEDRECTD114*%

G04:AMPARAMS|DCode=115|XSize=0.8mm|YSize=0.55mm|CornerRadius=0mm|HoleSize=0mm|Usage=FLASHONLY|Rotation=32.936|XOffset=0mm|YOffset=0mm|HoleType=Round|Shape=Rectangle|*
%AMROTATEDRECTD115*
4,1,4,-0.1862,-0.4483,-0.4852,0.0133,0.1862,0.4483,0.4852,-0.0133,-0.1862,-0.4483,0.0*
%
%ADD115ROTATEDRECTD115*%

G04:AMPARAMS|DCode=116|XSize=0.8mm|YSize=0.55mm|CornerRadius=0.2075mm|HoleSize=0mm|Usage=FLASHONLY|Rotation=32.936|XOffset=0mm|YOffset=0mm|HoleType=Round|Shape=RoundedRectangle|*
%AMROUNDEDRECTD116*
21,1,0.8000,0.1350,0,0,32.9*
21,1,0.3850,0.5500,0,0,32.9*
1,1,0.4150,0.1983,0.0480*
1,1,0.4150,-0.1249,-0.1613*
1,1,0.4150,-0.1983,-0.0480*
1,1,0.4150,0.1249,0.1613*
%
%ADD116ROUNDEDRECTD116*%
G04:AMPARAMS|DCode=117|XSize=0.8mm|YSize=0.55mm|CornerRadius=0mm|HoleSize=0mm|Usage=FLASHONLY|Rotation=327.064|XOffset=0mm|YOffset=0mm|HoleType=Round|Shape=Rectangle|*
%AMROTATEDRECTD117*
4,1,4,-0.4852,-0.0133,-0.1862,0.4483,0.4852,0.0133,0.1862,-0.4483,-0.4852,-0.0133,0.0*
%
%ADD117ROTATEDRECTD117*%

G04:AMPARAMS|DCode=118|XSize=0.8mm|YSize=0.55mm|CornerRadius=0.2075mm|HoleSize=0mm|Usage=FLASHONLY|Rotation=327.064|XOffset=0mm|YOffset=0mm|HoleType=Round|Shape=RoundedRectangle|*
%AMROUNDEDRECTD118*
21,1,0.8000,0.1350,0,0,327.1*
21,1,0.3850,0.5500,0,0,327.1*
1,1,0.4150,0.1249,-0.1613*
1,1,0.4150,-0.1983,0.0480*
1,1,0.4150,-0.1249,0.1613*
1,1,0.4150,0.1983,-0.0480*
%
%ADD118ROUNDEDRECTD118*%
%ADD119C,3.1000*%
G04:AMPARAMS|DCode=120|XSize=5.1mm|YSize=2.1mm|CornerRadius=0mm|HoleSize=0mm|Usage=FLASHONLY|Rotation=302.936|XOffset=0mm|YOffset=0mm|HoleType=Round|Shape=Rectangle|*
%AMROTATEDRECTD120*
4,1,4,-2.2677,1.5693,-0.5052,2.7111,2.2677,-1.5693,0.5052,-2.7111,-2.2677,1.5693,0.0*
%
%ADD120ROTATEDRECTD120*%

G04:AMPARAMS|DCode=121|XSize=5.1mm|YSize=2.1mm|CornerRadius=0mm|HoleSize=0mm|Usage=FLASHONLY|Rotation=237.064|XOffset=0mm|YOffset=0mm|HoleType=Round|Shape=Rectangle|*
%AMROTATEDRECTD121*
4,1,4,0.5052,2.7111,2.2677,1.5693,-0.5052,-2.7111,-2.2677,-1.5693,0.5052,2.7111,0.0*
%
%ADD121ROTATEDRECTD121*%

D43*
X623250Y2443500D02*
G03*
X484250Y2363500I-67341J-43750D01*
G01*
X846279Y2099019D02*
G03*
X902000Y2070000I53619J34952D01*
G01*
X770000Y1887238D02*
G03*
X755890Y1943326I-118485J12D01*
G01*
X1260856Y1936902D02*
G03*
X1250250Y1894741I78458J-42152D01*
G01*
X1118000Y2070000D02*
G03*
X1173721Y2099019I2102J63971D01*
G01*
X1535750Y2363500D02*
G03*
X1396750Y2443500I-71658J36250D01*
G01*
X755906Y1456698D02*
G03*
X770016Y1512786I-104375J56076D01*
G01*
X901797Y1330073D02*
G03*
X846366Y1301205I-2091J-63639D01*
G01*
X484266Y1036525D02*
G03*
X623266Y956525I71658J-36250D01*
G01*
X1250250Y1513011D02*
G03*
X1264360Y1456924I118485J-12D01*
G01*
X1174358Y1300137D02*
G03*
X1117036Y1329989I-55160J-35956D01*
G01*
X1397000Y956750D02*
G03*
X1536000Y1036750I67341J43750D01*
G01*
X623250Y2443500D02*
X846238Y2098992D01*
X484250Y2363500D02*
X754899Y1945332D01*
X755957Y1943363D01*
X1265101Y1945332D02*
X1535750Y2363500D01*
X1173762Y2098992D02*
X1396750Y2443500D01*
X754915Y1454692D02*
X755973Y1456661D01*
X484266Y1036525D02*
X754915Y1454692D01*
X623266Y956525D02*
X846254Y1301032D01*
X1264293Y1456887D02*
X1265351Y1454918D01*
X1536000Y1036750D01*
X1174741Y1300131D02*
X1397000Y956750D01*
X902000Y2070000D02*
X1118000D01*
X770000Y1887238D02*
X770016D01*
X770000Y1513250D02*
X770016D01*
Y1887238D01*
X1250250Y1513011D02*
Y1894750D01*
X899707Y1330025D02*
X1117036D01*
X1260636Y1937022D02*
X1265101Y1945332D01*
D72*
X1110500Y1357500D02*
D03*
Y1368500D02*
D03*
D99*
X997300Y1379500D02*
D03*
D100*
X1022700D02*
D03*
D101*
X560000Y2400000D02*
D03*
X1460000D02*
D03*
X560000Y1000000D02*
D03*
X1460000D02*
D03*
D102*
X841650Y1813650D02*
D03*
X790850Y1762850D02*
D03*
X841650D02*
D03*
X790850Y1813650D02*
D03*
D103*
X816250Y1788250D02*
D03*
D104*
X1140389Y1841459D02*
D03*
Y1781459D02*
D03*
X1125389Y1751459D02*
D03*
X1140389Y1721459D02*
D03*
Y1661459D02*
D03*
X1125389Y1511459D02*
D03*
X1140389Y1481459D02*
D03*
X1065389Y1631459D02*
D03*
X1080389Y1541459D02*
D03*
X1050389Y1661459D02*
D03*
Y1541459D02*
D03*
X1005389Y1571459D02*
D03*
X1020389Y1541459D02*
D03*
X1005389Y1511459D02*
D03*
X975389Y1571459D02*
D03*
X990389Y1541459D02*
D03*
X945389Y1871459D02*
D03*
X960389Y1661459D02*
D03*
Y1601459D02*
D03*
X945389Y1571459D02*
D03*
X960389Y1541459D02*
D03*
X915389Y1871459D02*
D03*
X930389Y1841459D02*
D03*
X915389Y1751459D02*
D03*
X930389Y1601459D02*
D03*
X915389Y1571459D02*
D03*
X930389Y1541459D02*
D03*
X915389Y1511459D02*
D03*
X930389Y1481459D02*
D03*
D105*
X1289897Y1295427D02*
D03*
X1307103Y1306573D02*
D03*
X748397Y2144427D02*
D03*
X765603Y2155573D02*
D03*
D106*
X1303397Y1275427D02*
D03*
X1320603Y1286573D02*
D03*
X760647Y2125927D02*
D03*
X777853Y2137073D02*
D03*
D107*
X1331366Y1270490D02*
D03*
X1322134Y1264510D02*
D03*
X1340116Y1257490D02*
D03*
X1330884Y1251510D02*
D03*
X749616Y2169240D02*
D03*
X740384Y2163260D02*
D03*
X740616Y2182490D02*
D03*
X731384Y2176510D02*
D03*
X1266366Y1253490D02*
D03*
X1257134Y1247510D02*
D03*
D108*
X732353Y1297677D02*
D03*
X715147Y1308823D02*
D03*
X718603Y1277177D02*
D03*
X701397Y1288323D02*
D03*
X1271853Y2140927D02*
D03*
X1254647Y2152073D02*
D03*
X1258603Y2121427D02*
D03*
X1241397Y2132573D02*
D03*
D109*
X681134Y1256740D02*
D03*
X690366Y1250760D02*
D03*
X690384Y1270240D02*
D03*
X699616Y1264260D02*
D03*
X1269634Y2167490D02*
D03*
X1278866Y2161510D02*
D03*
X1279134Y2180490D02*
D03*
X1288366Y2174510D02*
D03*
X1312884Y2113240D02*
D03*
X1322116Y2107260D02*
D03*
D110*
X1361785Y1220236D02*
D03*
X1304715Y1183264D02*
D03*
D111*
X658964Y1219986D02*
D03*
X716036Y1183014D02*
D03*
X1304465Y2216736D02*
D03*
X1361535Y2179764D02*
D03*
D112*
X715035Y2216986D02*
D03*
X657964Y2180014D02*
D03*
D113*
X755116Y1254510D02*
D03*
X745884Y1260490D02*
D03*
D114*
X706384Y2117260D02*
D03*
X715616Y2123240D02*
D03*
D115*
X1291071Y1238274D02*
D03*
X1285906Y1246248D02*
D03*
X1265763Y1233199D02*
D03*
X1296237Y1230301D02*
D03*
X1270929Y1225226D02*
D03*
X681429Y2131726D02*
D03*
X686594Y2123752D02*
D03*
X706737Y2136801D02*
D03*
X676264Y2139699D02*
D03*
X701571Y2144774D02*
D03*
D116*
X1276094Y1217252D02*
D03*
X696406Y2152748D02*
D03*
D117*
X751071Y1225226D02*
D03*
X756236Y1233199D02*
D03*
X736094Y1246248D02*
D03*
X745906Y1217252D02*
D03*
X730929Y1238274D02*
D03*
X1316179Y2142274D02*
D03*
X1311013Y2134301D02*
D03*
X1331156Y2121252D02*
D03*
X1321344Y2150248D02*
D03*
X1336321Y2129226D02*
D03*
D118*
X725763Y1230301D02*
D03*
X1341487Y2137199D02*
D03*
D119*
X1080250Y1362000D02*
D03*
X1140250D02*
D03*
D120*
X634166Y2239534D02*
D03*
X676130Y2266719D02*
D03*
X1343870Y1133281D02*
D03*
X1385834Y1160466D02*
D03*
D121*
Y2239534D02*
D03*
X1343870Y2266719D02*
D03*
X676130Y1133281D02*
D03*
X634166Y1160466D02*
D03*
M02*
