G04 Layer_Color=16711935*
%FSLAX44Y44*%
%MOMM*%
G71*
G01*
G75*
%ADD43C,0.2540*%
%ADD79R,0.7760X0.6760*%
%ADD100C,2.0760*%
%ADD101C,2.2760*%
%ADD102C,0.0760*%
%ADD103R,1.8760X1.8760*%
%ADD104C,1.8760*%
%ADD105C,0.7760*%
%ADD106C,0.5760*%
G04:AMPARAMS|DCode=107|XSize=5.076mm|YSize=2.076mm|CornerRadius=0mm|HoleSize=0mm|Usage=FLASHONLY|Rotation=122.936|XOffset=0mm|YOffset=0mm|HoleType=Round|Shape=Rectangle|*
%AMROTATEDRECTD107*
4,1,4,2.2511,-1.5657,0.5087,-2.6944,-2.2511,1.5657,-0.5087,2.6944,2.2511,-1.5657,0.0*
%
%ADD107ROTATEDRECTD107*%

G04:AMPARAMS|DCode=108|XSize=5.076mm|YSize=2.076mm|CornerRadius=0mm|HoleSize=0mm|Usage=FLASHONLY|Rotation=57.064|XOffset=0mm|YOffset=0mm|HoleType=Round|Shape=Rectangle|*
%AMROTATEDRECTD108*
4,1,4,-0.5087,-2.6944,-2.2511,-1.5657,0.5087,2.6944,2.2511,1.5657,-0.5087,-2.6944,0.0*
%
%ADD108ROTATEDRECTD108*%

%ADD109C,3.0760*%
G04:AMPARAMS|DCode=110|XSize=0.776mm|YSize=0.526mm|CornerRadius=0mm|HoleSize=0mm|Usage=FLASHONLY|Rotation=212.936|XOffset=0mm|YOffset=0mm|HoleType=Round|Shape=Rectangle|*
%AMROTATEDRECTD110*
4,1,4,0.1827,0.4317,0.4686,-0.0098,-0.1827,-0.4317,-0.4686,0.0098,0.1827,0.4317,0.0*
%
%ADD110ROTATEDRECTD110*%

G04:AMPARAMS|DCode=111|XSize=0.776mm|YSize=0.526mm|CornerRadius=0.1955mm|HoleSize=0mm|Usage=FLASHONLY|Rotation=212.936|XOffset=0mm|YOffset=0mm|HoleType=Round|Shape=RoundedRectangle|*
%AMROUNDEDRECTD111*
21,1,0.7760,0.1350,0,0,212.9*
21,1,0.3850,0.5260,0,0,212.9*
1,1,0.3910,-0.1983,-0.0480*
1,1,0.3910,0.1249,0.1613*
1,1,0.3910,0.1983,0.0480*
1,1,0.3910,-0.1249,-0.1613*
%
%ADD111ROUNDEDRECTD111*%
G04:AMPARAMS|DCode=112|XSize=0.776mm|YSize=0.526mm|CornerRadius=0mm|HoleSize=0mm|Usage=FLASHONLY|Rotation=147.064|XOffset=0mm|YOffset=0mm|HoleType=Round|Shape=Rectangle|*
%AMROTATEDRECTD112*
4,1,4,0.4686,0.0098,0.1827,-0.4317,-0.4686,-0.0098,-0.1827,0.4317,0.4686,0.0098,0.0*
%
%ADD112ROTATEDRECTD112*%

G04:AMPARAMS|DCode=113|XSize=0.776mm|YSize=0.526mm|CornerRadius=0.1955mm|HoleSize=0mm|Usage=FLASHONLY|Rotation=147.064|XOffset=0mm|YOffset=0mm|HoleType=Round|Shape=RoundedRectangle|*
%AMROUNDEDRECTD113*
21,1,0.7760,0.1350,0,0,147.1*
21,1,0.3850,0.5260,0,0,147.1*
1,1,0.3910,-0.1249,0.1613*
1,1,0.3910,0.1983,-0.0480*
1,1,0.3910,0.1249,-0.1613*
1,1,0.3910,-0.1983,0.0480*
%
%ADD113ROUNDEDRECTD113*%
G04:AMPARAMS|DCode=114|XSize=0.676mm|YSize=0.776mm|CornerRadius=0mm|HoleSize=0mm|Usage=FLASHONLY|Rotation=32.936|XOffset=0mm|YOffset=0mm|HoleType=Round|Shape=Rectangle|*
%AMROTATEDRECTD114*
4,1,4,-0.0727,-0.5094,-0.4946,0.1419,0.0727,0.5094,0.4946,-0.1419,-0.0727,-0.5094,0.0*
%
%ADD114ROTATEDRECTD114*%

G04:AMPARAMS|DCode=115|XSize=0.676mm|YSize=0.776mm|CornerRadius=0mm|HoleSize=0mm|Usage=FLASHONLY|Rotation=327.064|XOffset=0mm|YOffset=0mm|HoleType=Round|Shape=Rectangle|*
%AMROTATEDRECTD115*
4,1,4,-0.4946,-0.1419,-0.0727,0.5094,0.4946,0.1419,0.0727,-0.5094,-0.4946,-0.1419,0.0*
%
%ADD115ROTATEDRECTD115*%

G04:AMPARAMS|DCode=116|XSize=2.076mm|YSize=3.676mm|CornerRadius=0mm|HoleSize=0mm|Usage=FLASHONLY|Rotation=32.936|XOffset=0mm|YOffset=0mm|HoleType=Round|Shape=Rectangle|*
%AMROTATEDRECTD116*
4,1,4,0.1281,-2.1070,-1.8705,0.9782,-0.1281,2.1070,1.8705,-0.9782,0.1281,-2.1070,0.0*
%
%ADD116ROTATEDRECTD116*%

G04:AMPARAMS|DCode=117|XSize=2.076mm|YSize=3.676mm|CornerRadius=0mm|HoleSize=0mm|Usage=FLASHONLY|Rotation=147.064|XOffset=0mm|YOffset=0mm|HoleType=Round|Shape=Rectangle|*
%AMROTATEDRECTD117*
4,1,4,1.8705,0.9782,-0.1281,-2.1070,-1.8705,-0.9782,0.1281,2.1070,1.8705,0.9782,0.0*
%
%ADD117ROTATEDRECTD117*%

G04:AMPARAMS|DCode=118|XSize=2.076mm|YSize=3.676mm|CornerRadius=0mm|HoleSize=0mm|Usage=FLASHONLY|Rotation=32.936|XOffset=0mm|YOffset=0mm|HoleType=Round|Shape=Rectangle|*
%AMROTATEDRECTD118*
4,1,4,0.1281,-2.1070,-1.8705,0.9782,-0.1281,2.1070,1.8705,-0.9782,0.1281,-2.1070,0.0*
%
%ADD118ROTATEDRECTD118*%

G04:AMPARAMS|DCode=119|XSize=0.676mm|YSize=0.776mm|CornerRadius=0mm|HoleSize=0mm|Usage=FLASHONLY|Rotation=32.936|XOffset=0mm|YOffset=0mm|HoleType=Round|Shape=Rectangle|*
%AMROTATEDRECTD119*
4,1,4,-0.0727,-0.5094,-0.4946,0.1419,0.0727,0.5094,0.4946,-0.1419,-0.0727,-0.5094,0.0*
%
%ADD119ROTATEDRECTD119*%

G04:AMPARAMS|DCode=120|XSize=1.076mm|YSize=1.526mm|CornerRadius=0mm|HoleSize=0mm|Usage=FLASHONLY|Rotation=32.936|XOffset=0mm|YOffset=0mm|HoleType=Round|Shape=Rectangle|*
%AMROTATEDRECTD120*
4,1,4,-0.0367,-0.9329,-0.8664,0.3479,0.0367,0.9329,0.8664,-0.3479,-0.0367,-0.9329,0.0*
%
%ADD120ROTATEDRECTD120*%

G04:AMPARAMS|DCode=121|XSize=1.076mm|YSize=1.526mm|CornerRadius=0mm|HoleSize=0mm|Usage=FLASHONLY|Rotation=32.936|XOffset=0mm|YOffset=0mm|HoleType=Round|Shape=Rectangle|*
%AMROTATEDRECTD121*
4,1,4,-0.0367,-0.9329,-0.8664,0.3479,0.0367,0.9329,0.8664,-0.3479,-0.0367,-0.9329,0.0*
%
%ADD121ROTATEDRECTD121*%

G04:AMPARAMS|DCode=122|XSize=1.076mm|YSize=1.526mm|CornerRadius=0mm|HoleSize=0mm|Usage=FLASHONLY|Rotation=147.064|XOffset=0mm|YOffset=0mm|HoleType=Round|Shape=Rectangle|*
%AMROTATEDRECTD122*
4,1,4,0.8664,0.3479,0.0367,-0.9329,-0.8664,-0.3479,-0.0367,0.9329,0.8664,0.3479,0.0*
%
%ADD122ROTATEDRECTD122*%

G04:AMPARAMS|DCode=123|XSize=0.676mm|YSize=0.776mm|CornerRadius=0mm|HoleSize=0mm|Usage=FLASHONLY|Rotation=32.936|XOffset=0mm|YOffset=0mm|HoleType=Round|Shape=Rectangle|*
%AMROTATEDRECTD123*
4,1,4,-0.0727,-0.5094,-0.4946,0.1419,0.0727,0.5094,0.4946,-0.1419,-0.0727,-0.5094,0.0*
%
%ADD123ROTATEDRECTD123*%

G04:AMPARAMS|DCode=124|XSize=1.076mm|YSize=1.526mm|CornerRadius=0mm|HoleSize=0mm|Usage=FLASHONLY|Rotation=32.936|XOffset=0mm|YOffset=0mm|HoleType=Round|Shape=Rectangle|*
%AMROTATEDRECTD124*
4,1,4,-0.0367,-0.9329,-0.8664,0.3479,0.0367,0.9329,0.8664,-0.3479,-0.0367,-0.9329,0.0*
%
%ADD124ROTATEDRECTD124*%

D43*
X1397000Y956750D02*
G03*
X1536000Y1036750I67341J43750D01*
G01*
X1174358Y1300137D02*
G03*
X1117036Y1329989I-55160J-35956D01*
G01*
X1250250Y1513011D02*
G03*
X1264360Y1456924I118485J-12D01*
G01*
X484266Y1036525D02*
G03*
X623266Y956525I71658J-36250D01*
G01*
X901797Y1330073D02*
G03*
X846366Y1301205I-2091J-63639D01*
G01*
X755906Y1456698D02*
G03*
X770016Y1512786I-104375J56076D01*
G01*
X1535750Y2363500D02*
G03*
X1396750Y2443500I-71658J36250D01*
G01*
X1118000Y2070000D02*
G03*
X1173721Y2099019I2102J63971D01*
G01*
X1260856Y1936902D02*
G03*
X1250250Y1894741I78458J-42152D01*
G01*
X770000Y1887238D02*
G03*
X755890Y1943326I-118485J12D01*
G01*
X846279Y2099019D02*
G03*
X902000Y2070000I53619J34952D01*
G01*
X623250Y2443500D02*
G03*
X484250Y2363500I-67341J-43750D01*
G01*
X1260636Y1937022D02*
X1265101Y1945332D01*
X899707Y1330025D02*
X1117036D01*
X1250250Y1513011D02*
Y1894750D01*
X770016Y1513250D02*
Y1887238D01*
X770000Y1513250D02*
X770016D01*
X770000Y1887238D02*
X770016D01*
X902000Y2070000D02*
X1118000D01*
X1174741Y1300131D02*
X1397000Y956750D01*
X1265351Y1454918D02*
X1536000Y1036750D01*
X1264293Y1456887D02*
X1265351Y1454918D01*
X623266Y956525D02*
X846254Y1301032D01*
X484266Y1036525D02*
X754915Y1454692D01*
X755973Y1456661D01*
X1173762Y2098992D02*
X1396750Y2443500D01*
X1265101Y1945332D02*
X1535750Y2363500D01*
X754899Y1945332D02*
X755957Y1943363D01*
X484250Y2363500D02*
X754899Y1945332D01*
X623250Y2443500D02*
X846238Y2098992D01*
D79*
X1110500Y1368500D02*
D03*
Y1357500D02*
D03*
D100*
X816250Y1788250D02*
D03*
D101*
X790850Y1813650D02*
D03*
X841650Y1762850D02*
D03*
X790850D02*
D03*
X841650Y1813650D02*
D03*
D102*
X1460000Y1000000D02*
D03*
X560000D02*
D03*
X1460000Y2400000D02*
D03*
X560000D02*
D03*
D103*
X1022700Y1379500D02*
D03*
D104*
X997300D02*
D03*
D105*
X665391Y1151461D02*
D03*
X685391Y1111461D02*
D03*
X675391Y1171461D02*
D03*
X695391Y1091461D02*
D03*
X705391Y1111461D02*
D03*
X715391Y1131461D02*
D03*
X725391Y1151461D02*
D03*
X735391Y1171461D02*
D03*
X745391Y1191461D02*
D03*
X735391Y1211461D02*
D03*
X765391Y1191461D02*
D03*
X1265391D02*
D03*
X1255391Y1211461D02*
D03*
X1285392Y1151461D02*
D03*
X1275391Y1171461D02*
D03*
X1295392Y1131461D02*
D03*
X1305392Y1151461D02*
D03*
X1295392Y1211461D02*
D03*
X1325392Y1111461D02*
D03*
X1315392Y1131461D02*
D03*
X1325392Y1191461D02*
D03*
X1335392Y1171461D02*
D03*
X1315392Y2171462D02*
D03*
X1325392Y2191462D02*
D03*
X1345392Y2151462D02*
D03*
Y2191462D02*
D03*
X1355392Y2131461D02*
D03*
Y2211462D02*
D03*
X1395392D02*
D03*
X1405392Y2231462D02*
D03*
X1415392Y2211462D02*
D03*
X1425392Y2231462D02*
D03*
X607250Y2232500D02*
D03*
X627250Y2192500D02*
D03*
X617250Y2212500D02*
D03*
X637250Y2172500D02*
D03*
X657250Y2132500D02*
D03*
X667250Y2152500D02*
D03*
X657250Y2212500D02*
D03*
X687250Y2192500D02*
D03*
X677250Y2212500D02*
D03*
X697250Y2172500D02*
D03*
X565390Y1091460D02*
D03*
X590390Y1141460D02*
D03*
X565390Y2291460D02*
D03*
X590390Y2341460D02*
D03*
X640390Y1041460D02*
D03*
X615390Y1091460D02*
D03*
Y1191460D02*
D03*
X640390Y1241460D02*
D03*
X615390Y2291460D02*
D03*
X640390Y2341460D02*
D03*
X665390Y1091460D02*
D03*
Y1191460D02*
D03*
Y1291460D02*
D03*
X690390Y1341460D02*
D03*
X740390D02*
D03*
Y2241460D02*
D03*
X790390Y1341460D02*
D03*
X765390Y1391460D02*
D03*
X790390Y1441460D02*
D03*
Y1541460D02*
D03*
Y1641460D02*
D03*
Y1741460D02*
D03*
Y1841460D02*
D03*
Y1941460D02*
D03*
X765390Y1991460D02*
D03*
X790390Y2041460D02*
D03*
X765390Y2191460D02*
D03*
X815390Y1291460D02*
D03*
X840390Y1341460D02*
D03*
Y1441460D02*
D03*
X815390Y1491460D02*
D03*
X840390Y1541460D02*
D03*
X815390Y1591460D02*
D03*
X840390Y1641460D02*
D03*
X815390Y1691460D02*
D03*
X840390Y1741460D02*
D03*
Y1841460D02*
D03*
X815390Y1991460D02*
D03*
X840390Y2041460D02*
D03*
X815390Y2091460D02*
D03*
X890390Y1341460D02*
D03*
X865390Y1391460D02*
D03*
X890390Y1441460D02*
D03*
Y1941460D02*
D03*
X865390Y1991460D02*
D03*
X890390Y2041460D02*
D03*
X940390Y1341460D02*
D03*
X915390Y1391460D02*
D03*
X940390Y1941460D02*
D03*
X915390Y1991460D02*
D03*
X940390Y2041460D02*
D03*
X990390Y1341460D02*
D03*
X965390Y1391460D02*
D03*
X990390Y1441460D02*
D03*
Y1941460D02*
D03*
X965390Y1991460D02*
D03*
X990390Y2041460D02*
D03*
X1040390Y1341460D02*
D03*
Y1441460D02*
D03*
Y1941460D02*
D03*
X1015390Y1991460D02*
D03*
X1040390Y2041460D02*
D03*
X1065390Y1991460D02*
D03*
X1090390Y2041460D02*
D03*
X1140390Y1941460D02*
D03*
X1115390Y1991460D02*
D03*
X1140390Y2041460D02*
D03*
X1190390Y1441460D02*
D03*
Y1841460D02*
D03*
Y1941460D02*
D03*
X1165390Y1991460D02*
D03*
X1215390Y1291460D02*
D03*
X1240390Y1341460D02*
D03*
Y1441460D02*
D03*
X1215390Y1491460D02*
D03*
Y1691460D02*
D03*
Y1791460D02*
D03*
X1240390Y1941460D02*
D03*
X1215390Y1991460D02*
D03*
X1240390Y2041460D02*
D03*
X1215390Y2091460D02*
D03*
X1290390Y1341460D02*
D03*
X1265390Y1391460D02*
D03*
Y1991460D02*
D03*
X1290390Y2041460D02*
D03*
X1265390Y2191460D02*
D03*
X1290390Y2241460D02*
D03*
X1340390Y1241460D02*
D03*
X1315390Y2191460D02*
D03*
Y2291460D02*
D03*
X1340390Y2341460D02*
D03*
X1390390Y1041460D02*
D03*
X1365390Y1091460D02*
D03*
Y1191460D02*
D03*
X1390390Y1241460D02*
D03*
Y2341460D02*
D03*
X1415390Y1091460D02*
D03*
X1440390Y1141460D02*
D03*
X1415390Y1191460D02*
D03*
Y2191460D02*
D03*
Y2291460D02*
D03*
X1465390Y1091460D02*
D03*
Y2291460D02*
D03*
X1490390Y2341460D02*
D03*
D106*
X930389Y1481459D02*
D03*
X915389Y1511459D02*
D03*
X930389Y1541459D02*
D03*
X915389Y1571459D02*
D03*
X930389Y1601459D02*
D03*
X915389Y1751459D02*
D03*
X930389Y1841459D02*
D03*
X915389Y1871459D02*
D03*
X960389Y1541459D02*
D03*
X945389Y1571459D02*
D03*
X960389Y1601459D02*
D03*
Y1661459D02*
D03*
X945389Y1871459D02*
D03*
X990389Y1541459D02*
D03*
X975389Y1571459D02*
D03*
X1005389Y1511459D02*
D03*
X1020389Y1541459D02*
D03*
X1005389Y1571459D02*
D03*
X1050389Y1541459D02*
D03*
Y1661459D02*
D03*
X1080389Y1541459D02*
D03*
X1065389Y1631459D02*
D03*
X1140389Y1481459D02*
D03*
X1125389Y1511459D02*
D03*
X1140389Y1661459D02*
D03*
Y1721459D02*
D03*
X1125389Y1751459D02*
D03*
X1140389Y1781459D02*
D03*
Y1841459D02*
D03*
D107*
X1385834Y1160466D02*
D03*
X1343870Y1133281D02*
D03*
X676130Y2266719D02*
D03*
X634166Y2239534D02*
D03*
D108*
Y1160466D02*
D03*
X676130Y1133281D02*
D03*
X1343870Y2266719D02*
D03*
X1385834Y2239534D02*
D03*
D109*
X1140250Y1362000D02*
D03*
X1080250D02*
D03*
D110*
X701571Y2144774D02*
D03*
X676264Y2139699D02*
D03*
X706737Y2136801D02*
D03*
X686594Y2123752D02*
D03*
X681429Y2131726D02*
D03*
X1270929Y1225226D02*
D03*
X1296237Y1230301D02*
D03*
X1265763Y1233199D02*
D03*
X1285906Y1246248D02*
D03*
X1291071Y1238274D02*
D03*
D111*
X696406Y2152748D02*
D03*
X1276094Y1217252D02*
D03*
D112*
X1336321Y2129226D02*
D03*
X1321344Y2150248D02*
D03*
X1331156Y2121252D02*
D03*
X1311013Y2134301D02*
D03*
X1316179Y2142274D02*
D03*
X730929Y1238274D02*
D03*
X745906Y1217252D02*
D03*
X736094Y1246248D02*
D03*
X756236Y1233199D02*
D03*
X751071Y1225226D02*
D03*
D113*
X1341487Y2137199D02*
D03*
X725763Y1230301D02*
D03*
D114*
X715616Y2123240D02*
D03*
X706384Y2117260D02*
D03*
X1257134Y1247510D02*
D03*
X1266366Y1253490D02*
D03*
D115*
X1322116Y2107260D02*
D03*
X1312884Y2113240D02*
D03*
X745884Y1260490D02*
D03*
X755116Y1254510D02*
D03*
X1288366Y2174510D02*
D03*
X1279134Y2180490D02*
D03*
X1278866Y2161510D02*
D03*
X1269634Y2167490D02*
D03*
X699616Y1264260D02*
D03*
X690384Y1270240D02*
D03*
X690366Y1250760D02*
D03*
X681134Y1256740D02*
D03*
D116*
X657964Y2180014D02*
D03*
X715035Y2216986D02*
D03*
D117*
X1361535Y2179764D02*
D03*
X1304465Y2216736D02*
D03*
X716036Y1183014D02*
D03*
X658964Y1219986D02*
D03*
D118*
X1304715Y1183264D02*
D03*
X1361785Y1220236D02*
D03*
D119*
X731384Y2176510D02*
D03*
X740616Y2182490D02*
D03*
X740384Y2163260D02*
D03*
X749616Y2169240D02*
D03*
D120*
X777853Y2137073D02*
D03*
X760647Y2125927D02*
D03*
D121*
X765603Y2155573D02*
D03*
X748397Y2144427D02*
D03*
X1307103Y1306573D02*
D03*
X1289897Y1295427D02*
D03*
D122*
X1241397Y2132573D02*
D03*
X1258603Y2121427D02*
D03*
X1254647Y2152073D02*
D03*
X1271853Y2140927D02*
D03*
X701397Y1288323D02*
D03*
X718603Y1277177D02*
D03*
X715147Y1308823D02*
D03*
X732353Y1297677D02*
D03*
D123*
X1330884Y1251510D02*
D03*
X1340116Y1257490D02*
D03*
X1322134Y1264510D02*
D03*
X1331366Y1270490D02*
D03*
D124*
X1320603Y1286573D02*
D03*
X1303397Y1275427D02*
D03*
M02*
