G04 Layer_Color=8388736*
%FSLAX44Y44*%
%MOMM*%
G71*
G01*
G75*
%ADD43C,0.2540*%
%ADD73C,0.5000*%
%ADD74R,0.8000X0.7000*%
%ADD75R,0.7000X0.8000*%
%ADD76C,2.1000*%
%ADD77R,1.1000X1.6500*%
%ADD78R,1.1000X1.5500*%
%ADD79R,1.5500X1.1000*%
%ADD80R,1.3200X1.3500*%
%ADD81R,2.2800X2.1000*%
%ADD82O,2.5000X0.8500*%
%ADD83R,2.5000X0.8500*%
%ADD84R,6.4000X2.2500*%
%ADD85R,0.3750X0.4000*%
%ADD86R,0.4000X0.3750*%
%ADD87R,1.2000X1.4000*%
%ADD88R,0.8000X0.6000*%
%ADD89R,0.5750X0.3500*%
%ADD90R,0.3500X0.5750*%
%ADD91R,0.4500X0.4500*%
%ADD92R,0.9000X1.0000*%
%ADD93R,0.4000X0.7000*%
%ADD94R,1.7000X0.8000*%
%ADD95R,0.9500X0.8500*%
G04:AMPARAMS|DCode=96|XSize=0.95mm|YSize=0.85mm|CornerRadius=0.2375mm|HoleSize=0mm|Usage=FLASHONLY|Rotation=0.000|XOffset=0mm|YOffset=0mm|HoleType=Round|Shape=RoundedRectangle|*
%AMROUNDEDRECTD96*
21,1,0.9500,0.3750,0,0,0.0*
21,1,0.4750,0.8500,0,0,0.0*
1,1,0.4750,0.2375,-0.1875*
1,1,0.4750,-0.2375,-0.1875*
1,1,0.4750,-0.2375,0.1875*
1,1,0.4750,0.2375,0.1875*
%
%ADD96ROUNDEDRECTD96*%
%ADD97R,0.7260X0.3760*%
%ADD98R,0.3760X0.7260*%
%ADD99R,5.4760X5.4760*%
%ADD100R,1.1000X0.6500*%
%ADD101C,1.9000*%
%ADD102R,1.9000X1.9000*%
%ADD103C,0.1000*%
%ADD104C,2.4000*%
%ADD105C,2.2000*%
D43*
X623250Y2443500D02*
G03*
X484250Y2363500I-67341J-43750D01*
G01*
X846279Y2099019D02*
G03*
X902000Y2070000I53619J34952D01*
G01*
X770000Y1887238D02*
G03*
X755890Y1943326I-118485J12D01*
G01*
X1260856Y1936902D02*
G03*
X1250250Y1894741I78458J-42152D01*
G01*
X1118000Y2070000D02*
G03*
X1173721Y2099019I2102J63971D01*
G01*
X1535750Y2363500D02*
G03*
X1396750Y2443500I-71658J36250D01*
G01*
X755906Y1456698D02*
G03*
X770016Y1512786I-104375J56076D01*
G01*
X901797Y1330073D02*
G03*
X846366Y1301205I-2091J-63639D01*
G01*
X484266Y1036525D02*
G03*
X623266Y956525I71658J-36250D01*
G01*
X1250250Y1513011D02*
G03*
X1264360Y1456924I118485J-12D01*
G01*
X1174358Y1300137D02*
G03*
X1117036Y1329989I-55160J-35956D01*
G01*
X1397000Y956750D02*
G03*
X1536000Y1036750I67341J43750D01*
G01*
X623250Y2443500D02*
X846238Y2098992D01*
X484250Y2363500D02*
X754899Y1945332D01*
X755957Y1943363D01*
X1265101Y1945332D02*
X1535750Y2363500D01*
X1173762Y2098992D02*
X1396750Y2443500D01*
X754915Y1454692D02*
X755973Y1456661D01*
X484266Y1036525D02*
X754915Y1454692D01*
X623266Y956525D02*
X846254Y1301032D01*
X1264293Y1456887D02*
X1265351Y1454918D01*
X1536000Y1036750D01*
X1174741Y1300131D02*
X1397000Y956750D01*
X902000Y2070000D02*
X1118000D01*
X770000Y1887238D02*
X770016D01*
X770000Y1513250D02*
X770016D01*
Y1887238D01*
X1250250Y1513011D02*
Y1894750D01*
X899707Y1330025D02*
X1117036D01*
X1260636Y1937022D02*
X1265101Y1945332D01*
D73*
X612250Y999750D02*
G03*
X612250Y999750I-52500J0D01*
G01*
X1512500Y1000000D02*
G03*
X1512500Y1000000I-52500J0D01*
G01*
Y2400000D02*
G03*
X1512500Y2400000I-52500J0D01*
G01*
X612500D02*
G03*
X612500Y2400000I-52500J0D01*
G01*
D74*
X1035500Y1879750D02*
D03*
Y1890750D02*
D03*
X1049750Y1879750D02*
D03*
Y1890750D02*
D03*
X1021250Y1879750D02*
D03*
Y1890750D02*
D03*
X1064000Y1879750D02*
D03*
Y1890750D02*
D03*
X1123250Y1818000D02*
D03*
Y1807000D02*
D03*
X1072500Y1700750D02*
D03*
Y1711750D02*
D03*
X1087000Y1700750D02*
D03*
Y1711750D02*
D03*
X987500Y1704500D02*
D03*
Y1693500D02*
D03*
X973500Y1704500D02*
D03*
Y1693500D02*
D03*
X944750Y1780000D02*
D03*
Y1791000D02*
D03*
X904750Y1791500D02*
D03*
Y1780500D02*
D03*
X1086500Y1807000D02*
D03*
Y1818000D02*
D03*
X1100750Y1807000D02*
D03*
Y1818000D02*
D03*
X1086250Y1789750D02*
D03*
Y1778750D02*
D03*
X1100750Y1789750D02*
D03*
Y1778750D02*
D03*
X1069250Y1748500D02*
D03*
Y1737500D02*
D03*
X1055000Y1748250D02*
D03*
Y1737250D02*
D03*
X963500Y1841000D02*
D03*
Y1830000D02*
D03*
X977750Y1841000D02*
D03*
Y1830000D02*
D03*
X1041000Y1737250D02*
D03*
Y1748250D02*
D03*
X1117750Y1697000D02*
D03*
Y1708000D02*
D03*
X1103500Y1697000D02*
D03*
Y1708000D02*
D03*
X1132000Y1697000D02*
D03*
Y1708000D02*
D03*
X1111500Y1587500D02*
D03*
Y1598500D02*
D03*
Y1626500D02*
D03*
Y1637500D02*
D03*
Y1547500D02*
D03*
Y1558500D02*
D03*
X913000Y1598500D02*
D03*
Y1609500D02*
D03*
X857250Y1604750D02*
D03*
Y1615750D02*
D03*
X971750Y1869250D02*
D03*
Y1858250D02*
D03*
X871750Y1615750D02*
D03*
Y1604750D02*
D03*
D75*
X970002Y1791252D02*
D03*
X959002D02*
D03*
X1048250Y1675250D02*
D03*
X1059250D02*
D03*
X1012750Y1680250D02*
D03*
X1001750D02*
D03*
X1086250Y1763250D02*
D03*
X1097250D02*
D03*
X956250Y1752750D02*
D03*
X967250D02*
D03*
X956250Y1738500D02*
D03*
X967250D02*
D03*
X961000Y1776750D02*
D03*
X972000D02*
D03*
X929252Y1813502D02*
D03*
X940252D02*
D03*
X919252Y1791002D02*
D03*
X930252D02*
D03*
X913500Y1633000D02*
D03*
X902500D02*
D03*
X886250Y1584000D02*
D03*
X897250D02*
D03*
D76*
X796250Y2009000D02*
D03*
X1201250Y1403500D02*
D03*
X819250Y1405000D02*
D03*
X1188750Y2006750D02*
D03*
X1140500Y1452000D02*
D03*
X952500Y1379500D02*
D03*
X930750Y1440750D02*
D03*
X1067500Y1379500D02*
D03*
X1078000Y1436750D02*
D03*
X975000Y1662500D02*
D03*
X1019750Y1736250D02*
D03*
X1088250Y1674000D02*
D03*
X1138250Y1741750D02*
D03*
X1033750Y1657500D02*
D03*
X1005500Y1652250D02*
D03*
X910000Y1725500D02*
D03*
X936250Y1669500D02*
D03*
X900750Y1672500D02*
D03*
X910000Y1701000D02*
D03*
D77*
X1164250Y1731750D02*
D03*
Y1784250D02*
D03*
X1196250D02*
D03*
Y1731750D02*
D03*
X1164250Y1816750D02*
D03*
Y1869250D02*
D03*
X1196250D02*
D03*
Y1816750D02*
D03*
X1164250Y1645750D02*
D03*
Y1698250D02*
D03*
X1196250D02*
D03*
Y1645750D02*
D03*
D78*
X973250Y1521500D02*
D03*
X952750D02*
D03*
X1106500Y1745250D02*
D03*
X1086000D02*
D03*
D79*
X1023000Y1440250D02*
D03*
Y1460750D02*
D03*
X886750Y1812750D02*
D03*
Y1792250D02*
D03*
D80*
X1000498Y1456250D02*
D03*
X1000500Y1426750D02*
D03*
D81*
X969000Y1452500D02*
D03*
Y1490500D02*
D03*
D82*
X1208250Y1582750D02*
D03*
Y1570050D02*
D03*
Y1557351D02*
D03*
X1169250D02*
D03*
Y1570050D02*
D03*
X1208250Y1595149D02*
D03*
X1169250Y1595449D02*
D03*
Y1582750D02*
D03*
X1208250Y1608149D02*
D03*
D83*
X1169250D02*
D03*
D84*
X1071000Y1509750D02*
D03*
Y1468250D02*
D03*
D85*
X966595Y1764750D02*
D03*
X971875D02*
D03*
D86*
X951750Y1834905D02*
D03*
Y1829625D02*
D03*
D87*
X1058500Y1586000D02*
D03*
X1042500D02*
D03*
X1058500Y1608000D02*
D03*
X1042500D02*
D03*
X1058500Y1564000D02*
D03*
X1042500D02*
D03*
D88*
X1026000Y1480000D02*
D03*
Y1499000D02*
D03*
X1000000Y1480000D02*
D03*
Y1489500D02*
D03*
Y1499000D02*
D03*
D89*
X1059130Y1705000D02*
D03*
Y1695000D02*
D03*
Y1700000D02*
D03*
X1040875D02*
D03*
Y1695000D02*
D03*
Y1705000D02*
D03*
D90*
X1057500Y1688380D02*
D03*
X1052500D02*
D03*
X1047500D02*
D03*
X1042500D02*
D03*
Y1711625D02*
D03*
X1047500D02*
D03*
X1052500D02*
D03*
X1057500D02*
D03*
D91*
X1006750Y1692750D02*
D03*
Y1707250D02*
D03*
X1013250Y1692750D02*
D03*
Y1707250D02*
D03*
X1000250Y1692750D02*
D03*
Y1707250D02*
D03*
X1019750Y1692750D02*
D03*
Y1707250D02*
D03*
D92*
X1076250Y1598500D02*
D03*
X1096250Y1589000D02*
D03*
Y1608000D02*
D03*
X1076250Y1637500D02*
D03*
X1096250Y1628000D02*
D03*
Y1647000D02*
D03*
X1076250Y1558500D02*
D03*
X1096250Y1549000D02*
D03*
Y1568000D02*
D03*
D93*
X884500Y1597500D02*
D03*
Y1616500D02*
D03*
X891000Y1597500D02*
D03*
X897500D02*
D03*
X891000Y1616500D02*
D03*
X897500D02*
D03*
X1183000Y1522750D02*
D03*
Y1541750D02*
D03*
X1189500Y1522750D02*
D03*
X1196000D02*
D03*
X1189500Y1541750D02*
D03*
X1196000D02*
D03*
X1159000Y1522750D02*
D03*
Y1541750D02*
D03*
X1165500Y1522750D02*
D03*
X1172000D02*
D03*
X1165500Y1541750D02*
D03*
X1172000D02*
D03*
D94*
X1084000Y1901750D02*
D03*
X1107000Y1846750D02*
D03*
Y1901750D02*
D03*
X1084000Y1846750D02*
D03*
D95*
X1000250Y1869000D02*
D03*
Y1858500D02*
D03*
X986750Y1869000D02*
D03*
D96*
Y1858500D02*
D03*
D97*
X1062250Y1810500D02*
D03*
Y1815500D02*
D03*
Y1795500D02*
D03*
X994750Y1790500D02*
D03*
X1062250Y1785500D02*
D03*
Y1780500D02*
D03*
X994750Y1835500D02*
D03*
Y1830500D02*
D03*
Y1825500D02*
D03*
Y1820500D02*
D03*
Y1800500D02*
D03*
Y1805500D02*
D03*
X1062250D02*
D03*
Y1800500D02*
D03*
Y1820500D02*
D03*
Y1825500D02*
D03*
Y1830500D02*
D03*
Y1835500D02*
D03*
X994750Y1780500D02*
D03*
Y1785500D02*
D03*
X1062250Y1790500D02*
D03*
X994750Y1795500D02*
D03*
Y1815500D02*
D03*
Y1810500D02*
D03*
D98*
X1021000Y1841750D02*
D03*
X1041000Y1774250D02*
D03*
X1011000Y1841750D02*
D03*
X1006000D02*
D03*
X1001000Y1774250D02*
D03*
X1056000D02*
D03*
X1051000D02*
D03*
X1046000D02*
D03*
X1016000Y1841750D02*
D03*
X1031000Y1774250D02*
D03*
X1036000Y1841750D02*
D03*
X1026000Y1774250D02*
D03*
Y1841750D02*
D03*
X1036000Y1774250D02*
D03*
X1031000Y1841750D02*
D03*
X1016000Y1774250D02*
D03*
X1046000Y1841750D02*
D03*
X1051000D02*
D03*
X1056000D02*
D03*
X1001000D02*
D03*
X1006000Y1774250D02*
D03*
X1011000D02*
D03*
X1041000Y1841750D02*
D03*
X1021000Y1774250D02*
D03*
D99*
X1028500Y1808000D02*
D03*
D100*
X1024500Y1578500D02*
D03*
Y1587000D02*
D03*
Y1595500D02*
D03*
X995500D02*
D03*
Y1587000D02*
D03*
Y1578500D02*
D03*
D101*
X997300Y1379500D02*
D03*
D102*
X1022700D02*
D03*
D103*
X560000Y2400000D02*
D03*
X1460000D02*
D03*
X560000Y1000000D02*
D03*
X1460000D02*
D03*
D104*
X841650Y1813650D02*
D03*
X790850Y1762850D02*
D03*
X841650D02*
D03*
X790850Y1813650D02*
D03*
D105*
X816250Y1788250D02*
D03*
M02*
