G04 Layer_Color=65535*
%FSLAX44Y44*%
%MOMM*%
G71*
G01*
G75*
%ADD41C,0.3000*%
%ADD43C,0.2540*%
%ADD70C,0.1000*%
%ADD71C,0.4000*%
D41*
X1000000Y1512000D02*
Y1513166D01*
X1001166D01*
Y1512000D01*
X1000000D01*
X1037000Y1676000D02*
X1035834D01*
Y1677166D01*
X1037000D01*
Y1676000D01*
X999250Y1718000D02*
X998084D01*
Y1719166D01*
X999250D01*
Y1718000D01*
X874000Y1592000D02*
X872834D01*
Y1593166D01*
X874000D01*
Y1592000D01*
X1126750Y1845000D02*
X1125584D01*
Y1846166D01*
X1126750D01*
Y1845000D01*
X1064750Y1854000D02*
X1065916D01*
Y1852834D01*
X1064750D01*
Y1854000D01*
X1183250Y1511000D02*
X1182084D01*
Y1512166D01*
X1183250D01*
Y1511000D01*
X1159250D02*
X1158084D01*
Y1512166D01*
X1159250D01*
Y1511000D01*
X1025000Y1567500D02*
Y1566334D01*
X1023834D01*
Y1567500D01*
X1025000D01*
D43*
X1059500Y1419696D02*
X1062039Y1422235D01*
X1067118D01*
X1069657Y1419696D01*
Y1417157D01*
X1067118Y1414617D01*
X1064578D01*
X1067118D01*
X1069657Y1412078D01*
Y1409539D01*
X1067118Y1407000D01*
X1062039D01*
X1059500Y1409539D01*
X1074735Y1422235D02*
Y1412078D01*
X1079813Y1407000D01*
X1084892Y1412078D01*
Y1422235D01*
X1089970Y1419696D02*
X1092509Y1422235D01*
X1097588D01*
X1100127Y1419696D01*
Y1417157D01*
X1097588Y1414617D01*
X1095049D01*
X1097588D01*
X1100127Y1412078D01*
Y1409539D01*
X1097588Y1407000D01*
X1092509D01*
X1089970Y1409539D01*
X1042000Y1361485D02*
Y1346250D01*
X1049617D01*
X1052157Y1348789D01*
Y1351328D01*
X1049617Y1353867D01*
X1042000D01*
X1049617D01*
X1052157Y1356407D01*
Y1358946D01*
X1049617Y1361485D01*
X1042000D01*
X1057235Y1346250D02*
Y1356407D01*
X1062313Y1361485D01*
X1067392Y1356407D01*
Y1346250D01*
Y1353867D01*
X1057235D01*
X1072470Y1361485D02*
X1082627D01*
X1077549D01*
Y1346250D01*
X1087705Y1361485D02*
X1097862D01*
X1092784D01*
Y1346250D01*
X938157Y1359696D02*
X935618Y1362235D01*
X930539D01*
X928000Y1359696D01*
Y1349539D01*
X930539Y1347000D01*
X935618D01*
X938157Y1349539D01*
Y1354617D01*
X933078D01*
X943235Y1347000D02*
Y1362235D01*
X953392Y1347000D01*
Y1362235D01*
X958470D02*
Y1347000D01*
X966088D01*
X968627Y1349539D01*
Y1359696D01*
X966088Y1362235D01*
X958470D01*
X623250Y2443500D02*
G03*
X484250Y2363500I-67341J-43750D01*
G01*
X846279Y2099019D02*
G03*
X902000Y2070000I53619J34952D01*
G01*
X770000Y1887238D02*
G03*
X755890Y1943326I-118485J12D01*
G01*
X1260856Y1936902D02*
G03*
X1250250Y1894741I78458J-42152D01*
G01*
X1118000Y2070000D02*
G03*
X1173721Y2099019I2102J63971D01*
G01*
X1535750Y2363500D02*
G03*
X1396750Y2443500I-71658J36250D01*
G01*
X755906Y1456698D02*
G03*
X770016Y1512786I-104375J56076D01*
G01*
X901797Y1330073D02*
G03*
X846366Y1301205I-2091J-63639D01*
G01*
X484266Y1036525D02*
G03*
X623266Y956525I71658J-36250D01*
G01*
X1250250Y1513011D02*
G03*
X1264360Y1456924I118485J-12D01*
G01*
X1174358Y1300137D02*
G03*
X1117036Y1329989I-55160J-35956D01*
G01*
X1397000Y956750D02*
G03*
X1536000Y1036750I67341J43750D01*
G01*
X623250Y2443500D02*
X846238Y2098992D01*
X484250Y2363500D02*
X754899Y1945332D01*
X755957Y1943363D01*
X1265101Y1945332D02*
X1535750Y2363500D01*
X1173762Y2098992D02*
X1396750Y2443500D01*
X754915Y1454692D02*
X755973Y1456661D01*
X484266Y1036525D02*
X754915Y1454692D01*
X623266Y956525D02*
X846254Y1301032D01*
X1264293Y1456887D02*
X1265351Y1454918D01*
X1536000Y1036750D01*
X1174741Y1300131D02*
X1397000Y956750D01*
X902000Y2070000D02*
X1118000D01*
X770000Y1887238D02*
X770016D01*
X770000Y1513250D02*
X770016D01*
Y1887238D01*
X1250250Y1513011D02*
Y1894750D01*
X899707Y1330025D02*
X1117036D01*
X1260636Y1937022D02*
X1265101Y1945332D01*
D70*
X945500Y1532500D02*
G03*
X945500Y1510500I29250J-11000D01*
G01*
X982000D02*
G03*
X982000Y1532500I-29250J11000D01*
G01*
X1034000Y1468000D02*
G03*
X1012000Y1468000I-11000J-29250D01*
G01*
Y1431500D02*
G03*
X1034000Y1431500I11000J29250D01*
G01*
X1065250Y1694500D02*
G03*
X1079500Y1694500I7125J16166D01*
G01*
Y1718000D02*
G03*
X1065250Y1718000I-7125J-16166D01*
G01*
X1079750Y1694500D02*
G03*
X1094000Y1694500I7125J16166D01*
G01*
Y1718000D02*
G03*
X1079750Y1718000I-7125J-16166D01*
G01*
X1042000Y1682500D02*
G03*
X1042000Y1668250I16166J-7125D01*
G01*
X1065500D02*
G03*
X1065500Y1682500I-16166J7125D01*
G01*
X994750Y1710750D02*
G03*
X980500Y1710750I-7125J-16166D01*
G01*
Y1687250D02*
G03*
X994750Y1687250I7125J16166D01*
G01*
X980750Y1710750D02*
G03*
X966500Y1710750I-7125J-16166D01*
G01*
Y1687250D02*
G03*
X980750Y1687250I7125J16166D01*
G01*
X1019000Y1673000D02*
G03*
X1019000Y1687250I-16166J7125D01*
G01*
X995500D02*
G03*
X995500Y1673000I16166J-7125D01*
G01*
X875750Y1785000D02*
G03*
X897750Y1785000I11000J29250D01*
G01*
Y1821500D02*
G03*
X875750Y1821500I-11000J-29250D01*
G01*
X937500Y1773750D02*
G03*
X951750Y1773750I7125J16166D01*
G01*
Y1797250D02*
G03*
X937500Y1797250I-7125J-16166D01*
G01*
X912000Y1797750D02*
G03*
X897750Y1797750I-7125J-16166D01*
G01*
Y1774250D02*
G03*
X912000Y1774250I7125J16166D01*
G01*
X1079250Y1800750D02*
G03*
X1093500Y1800750I7125J16166D01*
G01*
Y1824250D02*
G03*
X1079250Y1824250I-7125J-16166D01*
G01*
X1093500Y1800750D02*
G03*
X1107750Y1800750I7125J16166D01*
G01*
Y1824250D02*
G03*
X1093500Y1824250I-7125J-16166D01*
G01*
Y1796000D02*
G03*
X1079250Y1796000I-7125J-16166D01*
G01*
Y1772500D02*
G03*
X1093500Y1772500I7125J16166D01*
G01*
X1108000Y1796000D02*
G03*
X1093750Y1796000I-7125J-16166D01*
G01*
Y1772500D02*
G03*
X1108000Y1772500I7125J16166D01*
G01*
X1080000Y1770500D02*
G03*
X1080000Y1756250I16166J-7125D01*
G01*
X1103500D02*
G03*
X1103500Y1770500I-16166J7125D01*
G01*
X1078750Y1756250D02*
G03*
X1078750Y1734250I29250J-11000D01*
G01*
X1115250D02*
G03*
X1115250Y1756250I-29250J11000D01*
G01*
X1076500Y1754750D02*
G03*
X1062250Y1754750I-7125J-16166D01*
G01*
Y1731250D02*
G03*
X1076500Y1731250I7125J16166D01*
G01*
X1062250Y1754500D02*
G03*
X1048000Y1754500I-7125J-16166D01*
G01*
Y1731000D02*
G03*
X1062250Y1731000I7125J16166D01*
G01*
X950000Y1760000D02*
G03*
X950000Y1745750I16166J-7125D01*
G01*
X973500D02*
G03*
X973500Y1760000I-16166J7125D01*
G01*
X950000Y1745750D02*
G03*
X950000Y1731500I16166J-7125D01*
G01*
X973500D02*
G03*
X973500Y1745750I-16166J7125D01*
G01*
X954750Y1784000D02*
G03*
X954750Y1769750I16166J-7125D01*
G01*
X978250D02*
G03*
X978250Y1784000I-16166J7125D01*
G01*
X970750Y1847250D02*
G03*
X956500Y1847250I-7125J-16166D01*
G01*
Y1823750D02*
G03*
X970750Y1823750I7125J16166D01*
G01*
X985000Y1847250D02*
G03*
X970750Y1847250I-7125J-16166D01*
G01*
Y1823750D02*
G03*
X985000Y1823750I7125J16166D01*
G01*
X1033750Y1731000D02*
G03*
X1048000Y1731000I7125J16166D01*
G01*
Y1754500D02*
G03*
X1033750Y1754500I-7125J-16166D01*
G01*
X1042500Y1872500D02*
Y1898000D01*
X1028250Y1872500D02*
Y1898000D01*
X1042500D01*
X1028250Y1872500D02*
X1042500D01*
X1056750D02*
Y1898000D01*
X1042500Y1872500D02*
Y1898000D01*
X1056750D01*
X1042500Y1872500D02*
X1056750D01*
X1028250D02*
Y1898000D01*
X1014000Y1872500D02*
Y1898000D01*
X1028250D01*
X1014000Y1872500D02*
X1028250D01*
X1071000D02*
Y1898000D01*
X1056750Y1872500D02*
Y1898000D01*
X1071000D01*
X1056750Y1872500D02*
X1071000D01*
X977250Y1784000D02*
Y1798250D01*
X951750Y1784000D02*
X977250D01*
X951750D02*
Y1796148D01*
X953852Y1798250D01*
X977250D01*
X1116250Y1799750D02*
Y1825250D01*
X1130500Y1799750D02*
Y1825250D01*
X1116250Y1799750D02*
X1130500D01*
X1116250Y1825250D02*
X1130500D01*
X1037750Y1364750D02*
Y1394500D01*
X983000D02*
X1037750D01*
X983000Y1364750D02*
X1037750D01*
X983000D02*
Y1394500D01*
X1155000Y1720250D02*
Y1795750D01*
Y1720250D02*
X1205500D01*
Y1776500D01*
X1155000Y1795750D02*
X1205500D01*
Y1776500D02*
Y1795750D01*
X1155000Y1805250D02*
Y1880750D01*
Y1805250D02*
X1205500D01*
Y1861500D01*
X1155000Y1880750D02*
X1205500D01*
Y1861500D02*
Y1880750D01*
X945500Y1532500D02*
X982000D01*
X945500Y1510500D02*
X982000D01*
X1034000Y1431500D02*
Y1468000D01*
X1012000Y1431500D02*
Y1468000D01*
X1079500Y1694500D02*
Y1718000D01*
X1065250Y1694500D02*
Y1718000D01*
X1094000Y1694500D02*
Y1718000D01*
X1079750Y1694500D02*
Y1718000D01*
X1042000Y1668250D02*
X1065500D01*
X1042000Y1682500D02*
X1065500D01*
X980500Y1687250D02*
Y1710750D01*
X994750Y1687250D02*
Y1710750D01*
X966500Y1687250D02*
Y1710750D01*
X980750Y1687250D02*
Y1710750D01*
X995500Y1687250D02*
X1019000D01*
X995500Y1673000D02*
X1019000D01*
X875750Y1785000D02*
Y1821500D01*
X897750Y1785000D02*
Y1821500D01*
X951750Y1773750D02*
Y1797250D01*
X937500Y1773750D02*
Y1797250D01*
X897750Y1774250D02*
Y1797750D01*
X912000Y1774250D02*
Y1797750D01*
X1093500Y1800750D02*
Y1824250D01*
X1079250Y1800750D02*
Y1824250D01*
X1107750Y1800750D02*
Y1824250D01*
X1093500Y1800750D02*
Y1824250D01*
X1079250Y1772500D02*
Y1796000D01*
X1093500Y1772500D02*
Y1796000D01*
X1093750Y1772500D02*
Y1796000D01*
X1108000Y1772500D02*
Y1796000D01*
X1080000Y1756250D02*
X1103500D01*
X1080000Y1770500D02*
X1103500D01*
X1078750Y1756250D02*
X1115250D01*
X1078750Y1734250D02*
X1115250D01*
X1062250Y1731250D02*
Y1754750D01*
X1076500Y1731250D02*
Y1754750D01*
X1048000Y1731000D02*
Y1754500D01*
X1062250Y1731000D02*
Y1754500D01*
X950000Y1745750D02*
X973500D01*
X950000Y1760000D02*
X973500D01*
X950000Y1731500D02*
X973500D01*
X950000Y1745750D02*
X973500D01*
X954750Y1769750D02*
X978250D01*
X954750Y1784000D02*
X978250D01*
X956500Y1823750D02*
Y1847250D01*
X970750Y1823750D02*
Y1847250D01*
X970750Y1823750D02*
Y1847250D01*
X985000Y1823750D02*
Y1847250D01*
X1048000Y1731000D02*
Y1754500D01*
X1033750Y1731000D02*
Y1754500D01*
X990248Y1416750D02*
X1010748D01*
X990248D02*
Y1466250D01*
X1010748Y1416750D02*
Y1466250D01*
X990248D02*
X1010748D01*
X990250Y1469250D02*
X1010750D01*
X990248Y1466250D02*
Y1469248D01*
X1010748Y1466250D02*
Y1469248D01*
X949000Y1504500D02*
Y1508000D01*
X989000D01*
Y1504500D02*
Y1508000D01*
X949000Y1504500D02*
X989000D01*
Y1438500D02*
Y1504500D01*
X949000Y1438500D02*
Y1504500D01*
Y1438500D02*
X989000D01*
X1153500Y1548249D02*
Y1617249D01*
Y1548249D02*
X1224000D01*
Y1617249D01*
X1153500D02*
X1224000D01*
X1106500Y1453500D02*
Y1524500D01*
X1035500D02*
X1106500D01*
X1035500Y1453500D02*
Y1524250D01*
Y1453500D02*
X1106500D01*
X924102Y1820500D02*
X947500D01*
X922000Y1818398D02*
X924102Y1820500D01*
X922000Y1806250D02*
Y1818398D01*
Y1806250D02*
X947500D01*
Y1820500D01*
X914102Y1798000D02*
X937500D01*
X912000Y1795898D02*
X914102Y1798000D01*
X912000Y1783750D02*
Y1795898D01*
Y1783750D02*
X937500D01*
Y1798000D01*
X971625Y1760000D02*
X975250D01*
X976625Y1761375D01*
Y1769500D01*
X970625D02*
X976625D01*
X961875Y1760000D02*
X971625D01*
X961875D02*
Y1769500D01*
X970625D01*
X947000Y1826250D02*
Y1829875D01*
Y1826250D02*
X948375Y1824875D01*
X956500D01*
Y1830875D01*
X947000Y1829875D02*
Y1839625D01*
X956500D01*
Y1830875D02*
Y1839625D01*
X1033250Y1596250D02*
X1067750D01*
X1033250Y1575750D02*
Y1596250D01*
Y1575750D02*
X1067750D01*
Y1596250D01*
X1033250Y1618250D02*
X1067750D01*
X1033250Y1597750D02*
Y1618250D01*
Y1597750D02*
X1067750D01*
Y1618250D01*
X1033250Y1574250D02*
X1067750D01*
X1033250Y1553750D02*
Y1574250D01*
Y1553750D02*
X1067750D01*
Y1574250D01*
X1110750Y1715250D02*
X1125000D01*
X1110750Y1689750D02*
X1125000D01*
Y1715250D01*
X1110750Y1689750D02*
Y1715250D01*
X1096500D02*
X1110750D01*
X1096500Y1689750D02*
X1110750D01*
Y1715250D01*
X1096500Y1689750D02*
Y1715250D01*
X1125000D02*
X1139250D01*
X1125000Y1689750D02*
X1139250D01*
Y1715250D01*
X1125000Y1689750D02*
Y1715250D01*
X1104500Y1605750D02*
X1118750D01*
X1104500Y1580250D02*
X1118750D01*
Y1605750D01*
X1104500Y1580250D02*
Y1605750D01*
Y1644750D02*
X1118750D01*
X1104500Y1619250D02*
X1118750D01*
Y1644750D01*
X1104500Y1619250D02*
Y1644750D01*
Y1565750D02*
X1118750D01*
X1104500Y1540250D02*
X1118750D01*
Y1565750D01*
X1104500Y1540250D02*
Y1565750D01*
X906000Y1616750D02*
X920250D01*
X906000Y1591250D02*
X920250D01*
Y1616750D01*
X906000Y1591250D02*
Y1616750D01*
X850250Y1623000D02*
X864500D01*
X850250Y1597500D02*
X864500D01*
Y1623000D01*
X850250Y1597500D02*
Y1623000D01*
X895250Y1626000D02*
Y1640250D01*
X920750Y1626000D02*
Y1640250D01*
X895250D02*
X920750D01*
X895250Y1626000D02*
X920750D01*
X904500Y1576750D02*
Y1591000D01*
X879000Y1576750D02*
Y1591000D01*
Y1576750D02*
X904500D01*
X879000Y1591000D02*
X904500D01*
X964500Y1851000D02*
X978750D01*
X964500Y1876500D02*
X978750D01*
X964500Y1851000D02*
Y1876500D01*
X978750Y1851000D02*
Y1876500D01*
X993000Y1506500D02*
X1033000D01*
X993000Y1472500D02*
Y1506500D01*
X1033000Y1472500D02*
Y1506500D01*
X993000Y1472500D02*
X1033000D01*
X1034750Y1717750D02*
X1065250D01*
Y1682250D02*
Y1717750D01*
X1034750Y1682250D02*
Y1717750D01*
Y1682250D02*
X1065250D01*
X994750Y1687250D02*
Y1694750D01*
Y1687250D02*
X1025250D01*
X994750Y1694750D02*
Y1712750D01*
X1025250Y1687250D02*
Y1712750D01*
X994750D02*
X1025250D01*
X1104500Y1580250D02*
Y1616750D01*
X1068000D02*
X1104500D01*
X1068000Y1580250D02*
X1104500D01*
X1068000D02*
Y1616750D01*
X1104500Y1619250D02*
Y1655750D01*
X1068000D02*
X1104500D01*
X1068000Y1619250D02*
X1104500D01*
X1068000D02*
Y1655750D01*
X1104500Y1540250D02*
Y1576750D01*
X1068000D02*
X1104500D01*
X1068000Y1540250D02*
X1104500D01*
X1068000D02*
Y1576750D01*
X879000Y1591000D02*
Y1623000D01*
X903000D01*
Y1591000D02*
Y1623000D01*
X879000Y1591000D02*
X903000D01*
X1118750Y1831500D02*
Y1917000D01*
X1072250D02*
X1118750D01*
X1072250Y1831500D02*
X1118750D01*
X1072250D02*
Y1917000D01*
X1008250Y1851000D02*
Y1876250D01*
X988000Y1876500D02*
X1008250D01*
X1004500Y1851000D02*
X1008250D01*
X978750Y1876500D02*
X988000D01*
X978750Y1851000D02*
X1004500D01*
X978750D02*
Y1876500D01*
X864500Y1597500D02*
X878750D01*
X864500Y1623000D02*
X878750D01*
X864500Y1597500D02*
Y1623000D01*
X878750Y1597500D02*
Y1623000D01*
X1155000Y1634250D02*
Y1709750D01*
Y1634250D02*
X1205500D01*
Y1690500D01*
X1155000Y1709750D02*
X1205500D01*
Y1690500D02*
Y1709750D01*
X1069250Y1821000D02*
Y1848750D01*
X987750D02*
X1069250D01*
Y1767250D02*
Y1821000D01*
X987750Y1767250D02*
X1069000D01*
X987750D02*
Y1848750D01*
X1177500Y1516250D02*
Y1548250D01*
X1201500D01*
Y1516250D02*
Y1548250D01*
X1177500Y1516250D02*
X1201500D01*
X1153500D02*
Y1548250D01*
X1177500D01*
Y1516250D02*
Y1548250D01*
X1153500Y1516250D02*
X1177500D01*
X986750Y1572000D02*
X1033250D01*
Y1602000D01*
X986750D02*
X1033000D01*
X986750Y1572250D02*
Y1602000D01*
X855500Y1749000D02*
Y1827500D01*
X777000D02*
X855500D01*
X777000Y1749000D02*
X855500D01*
X777000D02*
Y1827500D01*
D71*
X1044250Y1376500D02*
Y1379832D01*
X1047582D01*
Y1376500D01*
X1044250D01*
X1163750Y1625750D02*
X1166249D01*
Y1623251D01*
X1163750D01*
Y1625750D01*
M02*
