G04 Layer_Physical_Order=4*
G04 Layer_Color=16711680*
%FSLAX44Y44*%
%MOMM*%
G71*
G01*
G75*
%ADD10C,3.0000*%
%ADD12R,0.7000X0.6000*%
%ADD39C,0.1500*%
%ADD41C,0.3000*%
%ADD43C,0.2540*%
%ADD44C,1.8000*%
%ADD45R,1.8000X1.8000*%
%ADD46C,2.2000*%
%ADD47C,2.0000*%
%ADD48C,0.4500*%
%ADD49C,0.7000*%
%ADD50C,0.5000*%
G04:AMPARAMS|DCode=51|XSize=1mm|YSize=1.45mm|CornerRadius=0mm|HoleSize=0mm|Usage=FLASHONLY|Rotation=32.936|XOffset=0mm|YOffset=0mm|HoleType=Round|Shape=Rectangle|*
%AMROTATEDRECTD51*
4,1,4,-0.0255,-0.8803,-0.8138,0.3366,0.0255,0.8803,0.8138,-0.3366,-0.0255,-0.8803,0.0*
%
%ADD51ROTATEDRECTD51*%

G04:AMPARAMS|DCode=52|XSize=1mm|YSize=1.45mm|CornerRadius=0mm|HoleSize=0mm|Usage=FLASHONLY|Rotation=32.936|XOffset=0mm|YOffset=0mm|HoleType=Round|Shape=Rectangle|*
%AMROTATEDRECTD52*
4,1,4,-0.0255,-0.8803,-0.8138,0.3366,0.0255,0.8803,0.8138,-0.3366,-0.0255,-0.8803,0.0*
%
%ADD52ROTATEDRECTD52*%

G04:AMPARAMS|DCode=53|XSize=0.6mm|YSize=0.7mm|CornerRadius=0mm|HoleSize=0mm|Usage=FLASHONLY|Rotation=32.936|XOffset=0mm|YOffset=0mm|HoleType=Round|Shape=Rectangle|*
%AMROTATEDRECTD53*
4,1,4,-0.0615,-0.4569,-0.4421,0.1306,0.0615,0.4569,0.4421,-0.1306,-0.0615,-0.4569,0.0*
%
%ADD53ROTATEDRECTD53*%

G04:AMPARAMS|DCode=54|XSize=1mm|YSize=1.45mm|CornerRadius=0mm|HoleSize=0mm|Usage=FLASHONLY|Rotation=147.064|XOffset=0mm|YOffset=0mm|HoleType=Round|Shape=Rectangle|*
%AMROTATEDRECTD54*
4,1,4,0.8138,0.3366,0.0255,-0.8803,-0.8138,-0.3366,-0.0255,0.8803,0.8138,0.3366,0.0*
%
%ADD54ROTATEDRECTD54*%

G04:AMPARAMS|DCode=55|XSize=0.6mm|YSize=0.7mm|CornerRadius=0mm|HoleSize=0mm|Usage=FLASHONLY|Rotation=147.064|XOffset=0mm|YOffset=0mm|HoleType=Round|Shape=Rectangle|*
%AMROTATEDRECTD55*
4,1,4,0.4421,0.1306,0.0615,-0.4569,-0.4421,-0.1306,-0.0615,0.4569,0.4421,0.1306,0.0*
%
%ADD55ROTATEDRECTD55*%

G04:AMPARAMS|DCode=56|XSize=1mm|YSize=1.45mm|CornerRadius=0mm|HoleSize=0mm|Usage=FLASHONLY|Rotation=32.936|XOffset=0mm|YOffset=0mm|HoleType=Round|Shape=Rectangle|*
%AMROTATEDRECTD56*
4,1,4,-0.0255,-0.8803,-0.8138,0.3366,0.0255,0.8803,0.8138,-0.3366,-0.0255,-0.8803,0.0*
%
%ADD56ROTATEDRECTD56*%

G04:AMPARAMS|DCode=57|XSize=0.6mm|YSize=0.7mm|CornerRadius=0mm|HoleSize=0mm|Usage=FLASHONLY|Rotation=32.936|XOffset=0mm|YOffset=0mm|HoleType=Round|Shape=Rectangle|*
%AMROTATEDRECTD57*
4,1,4,-0.0615,-0.4569,-0.4421,0.1306,0.0615,0.4569,0.4421,-0.1306,-0.0615,-0.4569,0.0*
%
%ADD57ROTATEDRECTD57*%

G04:AMPARAMS|DCode=58|XSize=2mm|YSize=3.6mm|CornerRadius=0mm|HoleSize=0mm|Usage=FLASHONLY|Rotation=32.936|XOffset=0mm|YOffset=0mm|HoleType=Round|Shape=Rectangle|*
%AMROTATEDRECTD58*
4,1,4,0.1394,-2.0544,-1.8179,0.9670,-0.1394,2.0544,1.8179,-0.9670,0.1394,-2.0544,0.0*
%
%ADD58ROTATEDRECTD58*%

G04:AMPARAMS|DCode=59|XSize=2mm|YSize=3.6mm|CornerRadius=0mm|HoleSize=0mm|Usage=FLASHONLY|Rotation=147.064|XOffset=0mm|YOffset=0mm|HoleType=Round|Shape=Rectangle|*
%AMROTATEDRECTD59*
4,1,4,1.8179,0.9670,-0.1394,-2.0544,-1.8179,-0.9670,0.1394,2.0544,1.8179,0.9670,0.0*
%
%ADD59ROTATEDRECTD59*%

G04:AMPARAMS|DCode=60|XSize=2mm|YSize=3.6mm|CornerRadius=0mm|HoleSize=0mm|Usage=FLASHONLY|Rotation=32.936|XOffset=0mm|YOffset=0mm|HoleType=Round|Shape=Rectangle|*
%AMROTATEDRECTD60*
4,1,4,0.1394,-2.0544,-1.8179,0.9670,-0.1394,2.0544,1.8179,-0.9670,0.1394,-2.0544,0.0*
%
%ADD60ROTATEDRECTD60*%

G04:AMPARAMS|DCode=61|XSize=0.6mm|YSize=0.7mm|CornerRadius=0mm|HoleSize=0mm|Usage=FLASHONLY|Rotation=147.064|XOffset=0mm|YOffset=0mm|HoleType=Round|Shape=Rectangle|*
%AMROTATEDRECTD61*
4,1,4,0.4421,0.1306,0.0615,-0.4569,-0.4421,-0.1306,-0.0615,0.4569,0.4421,0.1306,0.0*
%
%ADD61ROTATEDRECTD61*%

G04:AMPARAMS|DCode=62|XSize=0.6mm|YSize=0.7mm|CornerRadius=0mm|HoleSize=0mm|Usage=FLASHONLY|Rotation=32.936|XOffset=0mm|YOffset=0mm|HoleType=Round|Shape=Rectangle|*
%AMROTATEDRECTD62*
4,1,4,-0.0615,-0.4569,-0.4421,0.1306,0.0615,0.4569,0.4421,-0.1306,-0.0615,-0.4569,0.0*
%
%ADD62ROTATEDRECTD62*%

G04:AMPARAMS|DCode=63|XSize=0.7mm|YSize=0.45mm|CornerRadius=0mm|HoleSize=0mm|Usage=FLASHONLY|Rotation=32.936|XOffset=0mm|YOffset=0mm|HoleType=Round|Shape=Rectangle|*
%AMROTATEDRECTD63*
4,1,4,-0.1714,-0.3791,-0.4161,-0.0015,0.1714,0.3791,0.4161,0.0015,-0.1714,-0.3791,0.0*
%
%ADD63ROTATEDRECTD63*%

G04:AMPARAMS|DCode=64|XSize=0.7mm|YSize=0.45mm|CornerRadius=0.1575mm|HoleSize=0mm|Usage=FLASHONLY|Rotation=32.936|XOffset=0mm|YOffset=0mm|HoleType=Round|Shape=RoundedRectangle|*
%AMROUNDEDRECTD64*
21,1,0.7000,0.1350,0,0,32.9*
21,1,0.3850,0.4500,0,0,32.9*
1,1,0.3150,0.1983,0.0480*
1,1,0.3150,-0.1249,-0.1613*
1,1,0.3150,-0.1983,-0.0480*
1,1,0.3150,0.1249,0.1613*
%
%ADD64ROUNDEDRECTD64*%
G04:AMPARAMS|DCode=65|XSize=0.7mm|YSize=0.45mm|CornerRadius=0mm|HoleSize=0mm|Usage=FLASHONLY|Rotation=327.064|XOffset=0mm|YOffset=0mm|HoleType=Round|Shape=Rectangle|*
%AMROTATEDRECTD65*
4,1,4,-0.4161,0.0015,-0.1714,0.3791,0.4161,-0.0015,0.1714,-0.3791,-0.4161,0.0015,0.0*
%
%ADD65ROTATEDRECTD65*%

G04:AMPARAMS|DCode=66|XSize=0.7mm|YSize=0.45mm|CornerRadius=0.1575mm|HoleSize=0mm|Usage=FLASHONLY|Rotation=327.064|XOffset=0mm|YOffset=0mm|HoleType=Round|Shape=RoundedRectangle|*
%AMROUNDEDRECTD66*
21,1,0.7000,0.1350,0,0,327.1*
21,1,0.3850,0.4500,0,0,327.1*
1,1,0.3150,0.1249,-0.1613*
1,1,0.3150,-0.1983,0.0480*
1,1,0.3150,-0.1249,0.1613*
1,1,0.3150,0.1983,-0.0480*
%
%ADD66ROUNDEDRECTD66*%
%ADD67C,3.0000*%
G04:AMPARAMS|DCode=68|XSize=5mm|YSize=2mm|CornerRadius=0mm|HoleSize=0mm|Usage=FLASHONLY|Rotation=302.936|XOffset=0mm|YOffset=0mm|HoleType=Round|Shape=Rectangle|*
%AMROTATEDRECTD68*
4,1,4,-2.1985,1.5545,-0.5200,2.6419,2.1985,-1.5545,0.5200,-2.6419,-2.1985,1.5545,0.0*
%
%ADD68ROTATEDRECTD68*%

G04:AMPARAMS|DCode=69|XSize=5mm|YSize=2mm|CornerRadius=0mm|HoleSize=0mm|Usage=FLASHONLY|Rotation=237.064|XOffset=0mm|YOffset=0mm|HoleType=Round|Shape=Rectangle|*
%AMROTATEDRECTD69*
4,1,4,0.5200,2.6419,2.1985,1.5545,-0.5200,-2.6419,-2.1985,-1.5545,0.5200,2.6419,0.0*
%
%ADD69ROTATEDRECTD69*%

G36*
X1286581Y1326054D02*
X1296199Y1311174D01*
X1295452Y1310690D01*
X1306097Y1294257D01*
X1306097D01*
X1307299Y1293999D01*
X1309295Y1290912D01*
X1308952Y1290690D01*
X1319597Y1274257D01*
X1319597D01*
X1320134Y1274142D01*
X1336281Y1249159D01*
X1312036Y1233446D01*
X1301672Y1249410D01*
X1301313Y1249779D01*
X1300969Y1250133D01*
X1300968Y1250133D01*
X1300967Y1250134D01*
X1300507Y1250332D01*
X1300041Y1250533D01*
X1300040Y1250533D01*
X1300039Y1250533D01*
X1299538Y1250540D01*
X1299030Y1250547D01*
X1299030Y1250546D01*
X1299028Y1250546D01*
X1298550Y1250356D01*
X1298092Y1250173D01*
X1298090Y1250172D01*
X1298090Y1250172D01*
X1298090Y1250172D01*
X1273400Y1234172D01*
X1272158Y1234437D01*
X1268228Y1240503D01*
X1265963Y1239035D01*
X1263246Y1243201D01*
X1263510Y1244443D01*
X1265068Y1245452D01*
X1258500Y1255591D01*
X1258500D01*
X1258272Y1255687D01*
X1257940Y1257357D01*
X1256605Y1259355D01*
X1254607Y1260690D01*
X1252250Y1261158D01*
X1249893Y1260690D01*
X1247895Y1259355D01*
X1246560Y1257357D01*
X1246092Y1255000D01*
X1246560Y1252643D01*
X1247895Y1250645D01*
X1249202Y1249772D01*
X1249200Y1249567D01*
Y1249567D01*
X1255768Y1239428D01*
X1257124Y1240307D01*
X1259841Y1236141D01*
X1259577Y1234898D01*
X1258090Y1233935D01*
X1262509Y1227113D01*
X1240792Y1213039D01*
X1239554Y1213321D01*
X1204111Y1271318D01*
X1285337Y1326308D01*
X1286581Y1326054D01*
D02*
G37*
G36*
X817523Y1271059D02*
X781982Y1212901D01*
X781788Y1212769D01*
X780293Y1212572D01*
X738867Y1239419D01*
X743767Y1246984D01*
X742389Y1247877D01*
X742140Y1249122D01*
X745278Y1253687D01*
X747250Y1252409D01*
X753614Y1262234D01*
X754605Y1262895D01*
X755940Y1264893D01*
X756408Y1267250D01*
X755940Y1269607D01*
X754605Y1271605D01*
X752607Y1272940D01*
X750250Y1273408D01*
X747893Y1272940D01*
X745895Y1271605D01*
X744560Y1269607D01*
X744282Y1268207D01*
X737950Y1258433D01*
X738881Y1257831D01*
X739129Y1256585D01*
X735992Y1252021D01*
X733629Y1253552D01*
X729218Y1246743D01*
X727976Y1246477D01*
X722660Y1249922D01*
X722660Y1249922D01*
X722660Y1249922D01*
X722658Y1249923D01*
X722200Y1250106D01*
X721722Y1250296D01*
X721721Y1250296D01*
X721720Y1250297D01*
X721212Y1250290D01*
X720711Y1250283D01*
X720710Y1250283D01*
X720709Y1250283D01*
X720237Y1250079D01*
X719783Y1249884D01*
X719782Y1249883D01*
X719781Y1249883D01*
X719429Y1249521D01*
X719078Y1249160D01*
X708971Y1233593D01*
X685353Y1248899D01*
X716119Y1296500D01*
X716153Y1296507D01*
X716153D01*
X726798Y1312940D01*
X726760Y1312965D01*
X735053Y1325795D01*
X736297Y1326048D01*
X817523Y1271059D01*
D02*
G37*
G36*
X1472716Y2476295D02*
X1481232Y2474848D01*
X1489533Y2472457D01*
X1497513Y2469151D01*
X1505074Y2464973D01*
X1512119Y2459974D01*
X1518560Y2454218D01*
X1524316Y2447777D01*
X1529314Y2440732D01*
X1533493Y2433172D01*
X1536799Y2425191D01*
X1539190Y2416890D01*
X1540637Y2408374D01*
X1541121Y2399750D01*
X1540637Y2391125D01*
X1539190Y2382609D01*
X1536799Y2374308D01*
X1533493Y2366328D01*
X1532816Y2365102D01*
X1262302Y1947144D01*
X1262252Y1947016D01*
X1262164Y1946910D01*
X1257699Y1938600D01*
X1257319Y1937356D01*
X1257320Y1937347D01*
X1253906Y1930128D01*
X1250849Y1921586D01*
X1248645Y1912785D01*
X1247314Y1903811D01*
X1246930Y1896005D01*
X1246869Y1894750D01*
X1246869Y1894741D01*
X1246916Y1893490D01*
Y1514261D01*
X1246864Y1513012D01*
X1246864Y1513000D01*
X1246918Y1511764D01*
X1247328Y1502378D01*
X1248715Y1491837D01*
X1251017Y1481458D01*
X1254214Y1471318D01*
X1258282Y1461495D01*
X1261148Y1455990D01*
X1261356Y1455309D01*
X1262414Y1453340D01*
X1262502Y1453234D01*
X1262552Y1453106D01*
X1533065Y1035148D01*
X1533743Y1033922D01*
X1537048Y1025942D01*
X1539440Y1017641D01*
X1540887Y1009125D01*
X1541371Y1000500D01*
X1540887Y991876D01*
X1539440Y983360D01*
X1537048Y975059D01*
X1533743Y967078D01*
X1529564Y959518D01*
X1524566Y952473D01*
X1518810Y946032D01*
X1512369Y940276D01*
X1505324Y935277D01*
X1497763Y931099D01*
X1489783Y927793D01*
X1481482Y925402D01*
X1472966Y923955D01*
X1464341Y923471D01*
X1455717Y923955D01*
X1447201Y925402D01*
X1438900Y927793D01*
X1430920Y931099D01*
X1423359Y935277D01*
X1416314Y940276D01*
X1409873Y946032D01*
X1404117Y952473D01*
X1399801Y958556D01*
X1399799Y958562D01*
X1321371Y1079729D01*
X1321491Y1080164D01*
X1321999Y1081097D01*
X1322096Y1081134D01*
X1322462Y1081274D01*
X1322466Y1081279D01*
X1322473Y1081282D01*
X1382723Y1119782D01*
X1382728Y1119787D01*
X1382735Y1119790D01*
X1383015Y1120062D01*
X1383297Y1120333D01*
X1383300Y1120340D01*
X1383305Y1120345D01*
X1383460Y1120705D01*
X1383616Y1121061D01*
X1383617Y1121069D01*
X1383620Y1121076D01*
X1383625Y1121468D01*
X1383633Y1121857D01*
X1383630Y1121864D01*
X1383630Y1121871D01*
X1383485Y1122234D01*
X1383343Y1122598D01*
X1383338Y1122603D01*
X1383335Y1122610D01*
X1313330Y1230442D01*
X1313294Y1230693D01*
X1313750Y1232127D01*
X1337390Y1247447D01*
X1337680Y1247729D01*
X1337959Y1248000D01*
X1337960Y1248001D01*
X1337961Y1248002D01*
X1338118Y1248367D01*
X1338275Y1248730D01*
X1338275Y1248732D01*
X1338276Y1248733D01*
X1338281Y1249132D01*
X1338287Y1249526D01*
X1338287Y1249527D01*
X1338287Y1249528D01*
X1338138Y1249903D01*
X1337994Y1250266D01*
X1321846Y1275249D01*
X1321846Y1275249D01*
X1321846Y1275250D01*
X1321555Y1275549D01*
X1321292Y1275820D01*
X1321292Y1275820D01*
X1321292Y1275821D01*
X1320951Y1275968D01*
X1320906Y1275987D01*
X1311294Y1290826D01*
X1311295Y1290889D01*
X1311300Y1291279D01*
X1311300Y1291281D01*
X1311300Y1291282D01*
X1311151Y1291656D01*
X1311007Y1292019D01*
X1309012Y1295106D01*
X1309012Y1295107D01*
X1309011Y1295107D01*
X1308721Y1295406D01*
X1308458Y1295677D01*
X1308457Y1295678D01*
X1308457Y1295678D01*
X1308108Y1295829D01*
X1307728Y1295993D01*
X1307727D01*
X1307726Y1295993D01*
X1307350Y1296074D01*
X1298053Y1310424D01*
X1298192Y1310746D01*
X1298192Y1310747D01*
X1298193Y1310748D01*
X1298198Y1311139D01*
X1298204Y1311541D01*
X1298204Y1311542D01*
X1298204Y1311543D01*
X1298056Y1311916D01*
X1297911Y1312281D01*
X1288294Y1327161D01*
X1288286Y1327169D01*
X1288282Y1327179D01*
X1288009Y1327455D01*
X1287740Y1327732D01*
X1287730Y1327737D01*
X1287722Y1327744D01*
X1287366Y1327894D01*
X1287009Y1328048D01*
X1286998Y1328048D01*
X1286988Y1328052D01*
X1285744Y1328306D01*
X1285733Y1328306D01*
X1285722Y1328310D01*
X1285336Y1328308D01*
X1284948Y1328309D01*
X1284938Y1328305D01*
X1284927Y1328305D01*
X1284571Y1328155D01*
X1284211Y1328008D01*
X1284204Y1328000D01*
X1284194Y1327996D01*
X1202968Y1273007D01*
X1202721Y1272757D01*
X1202463Y1272519D01*
X1202442Y1272475D01*
X1202409Y1272441D01*
X1202276Y1272116D01*
X1202129Y1271797D01*
X1202127Y1271749D01*
X1202109Y1271704D01*
X1202111Y1271353D01*
X1202096Y1271002D01*
X1202113Y1270956D01*
X1202113Y1270908D01*
X1202250Y1270585D01*
X1202371Y1270255D01*
X1237814Y1212258D01*
X1237823Y1212248D01*
X1237828Y1212235D01*
X1238093Y1211955D01*
X1238353Y1211673D01*
X1238366Y1211667D01*
X1238375Y1211657D01*
X1238726Y1211500D01*
X1239075Y1211339D01*
X1239256Y1210676D01*
X1239250Y1210291D01*
X1239240Y1209906D01*
X1239245Y1209894D01*
X1239245Y1209880D01*
X1239387Y1209522D01*
X1239524Y1209163D01*
X1254504Y1185374D01*
X1253434Y1184690D01*
X1177540Y1301943D01*
X1176634Y1302876D01*
X1176421Y1302968D01*
X1173319Y1307340D01*
X1168146Y1313129D01*
X1162358Y1318301D01*
X1156027Y1322793D01*
X1149233Y1326548D01*
X1142061Y1329519D01*
X1134602Y1331668D01*
X1126948Y1332968D01*
X1119198Y1333404D01*
X1117336Y1333299D01*
X1117036Y1333359D01*
X903170D01*
X901906Y1333385D01*
D01*
X900657Y1333429D01*
X899707Y1333483D01*
X892200Y1333061D01*
X884787Y1331801D01*
X877562Y1329720D01*
X870616Y1326843D01*
X864035Y1323206D01*
X857903Y1318855D01*
X852297Y1313844D01*
X847286Y1308238D01*
X843583Y1303019D01*
X843583Y1303019D01*
X843455Y1302844D01*
X842884Y1301962D01*
X796380Y1230115D01*
X795305Y1230791D01*
X819263Y1269995D01*
X819384Y1270325D01*
X819521Y1270649D01*
X819521Y1270697D01*
X819538Y1270742D01*
X819523Y1271093D01*
X819526Y1271444D01*
X819507Y1271489D01*
X819505Y1271537D01*
X819358Y1271856D01*
X819225Y1272181D01*
X819192Y1272215D01*
X819171Y1272259D01*
X818913Y1272497D01*
X818666Y1272747D01*
X737440Y1327737D01*
X737430Y1327741D01*
X737422Y1327749D01*
X737063Y1327896D01*
X736707Y1328046D01*
X736696Y1328046D01*
X736686Y1328050D01*
X736298Y1328048D01*
X735912Y1328050D01*
X735901Y1328046D01*
X735890Y1328046D01*
X734646Y1327793D01*
X734636Y1327788D01*
X734625Y1327788D01*
X734270Y1327635D01*
X733912Y1327485D01*
X733904Y1327477D01*
X733894Y1327473D01*
X733625Y1327195D01*
X733352Y1326920D01*
X733348Y1326909D01*
X733340Y1326901D01*
X725050Y1314074D01*
X725049Y1314074D01*
X725049Y1314074D01*
X725048Y1314072D01*
X724963Y1313858D01*
X714495Y1297699D01*
X714407Y1297608D01*
X714407Y1297607D01*
X714406Y1297607D01*
X683642Y1250008D01*
X683641Y1250008D01*
X683641Y1250008D01*
X683640Y1250006D01*
X683498Y1249647D01*
X683347Y1249269D01*
X683347Y1249268D01*
X683347Y1249266D01*
X683349Y1249124D01*
X683179Y1248862D01*
X683354Y1248749D01*
X683358Y1248473D01*
X683359Y1248472D01*
X683359Y1248471D01*
X683514Y1248112D01*
X683673Y1247742D01*
X683674Y1247741D01*
X683675Y1247740D01*
X683954Y1247469D01*
X684244Y1247188D01*
X707257Y1232273D01*
X707713Y1230840D01*
X707677Y1230588D01*
X672202Y1175945D01*
X671426Y1175426D01*
X670210Y1173607D01*
X670001Y1172554D01*
X637415Y1122360D01*
X637412Y1122353D01*
X637407Y1122348D01*
X637264Y1121982D01*
X637120Y1121621D01*
X637120Y1121614D01*
X637117Y1121607D01*
X637125Y1121214D01*
X637130Y1120826D01*
X637133Y1120819D01*
X637133Y1120811D01*
X637291Y1120452D01*
X637445Y1120095D01*
X637450Y1120090D01*
X637453Y1120083D01*
X637735Y1119812D01*
X638015Y1119540D01*
X638022Y1119537D01*
X638027Y1119532D01*
X698277Y1081032D01*
X698283Y1081029D01*
X698288Y1081024D01*
X698351Y1081001D01*
X698814Y1080135D01*
X698919Y1079643D01*
X698909Y1079525D01*
X620467Y958336D01*
X620465Y958331D01*
X616149Y952248D01*
X610393Y945807D01*
X603952Y940051D01*
X596907Y935052D01*
X589346Y930874D01*
X581366Y927568D01*
X573065Y925177D01*
X564549Y923730D01*
X555924Y923245D01*
X547300Y923730D01*
X538784Y925177D01*
X530483Y927568D01*
X522503Y930874D01*
X514942Y935052D01*
X507897Y940051D01*
X501456Y945807D01*
X495700Y952248D01*
X490702Y959293D01*
X486523Y966853D01*
X483217Y974834D01*
X480826Y983134D01*
X479379Y991650D01*
X478895Y1000275D01*
X479379Y1008900D01*
X480826Y1017416D01*
X483217Y1025716D01*
X486523Y1033697D01*
X487200Y1034922D01*
X757714Y1452881D01*
X757764Y1453008D01*
X757852Y1453114D01*
X758910Y1455083D01*
X759118Y1455765D01*
X761984Y1461270D01*
X766052Y1471093D01*
X769249Y1481232D01*
X771551Y1491612D01*
X772938Y1502153D01*
X773347Y1511518D01*
X773402Y1512775D01*
X773401Y1512787D01*
X773350Y1513250D01*
Y1885983D01*
X773385Y1887238D01*
X773386Y1887250D01*
X773332Y1888486D01*
X772922Y1897872D01*
X771535Y1908413D01*
X769233Y1918792D01*
X766036Y1928932D01*
X761968Y1938755D01*
X759102Y1944260D01*
X758894Y1944941D01*
X757836Y1946910D01*
X757748Y1947016D01*
X757698Y1947144D01*
X487184Y2365102D01*
X486507Y2366328D01*
X483201Y2374308D01*
X480810Y2382609D01*
X479363Y2391125D01*
X478879Y2399750D01*
X479363Y2408374D01*
X480810Y2416890D01*
X483201Y2425191D01*
X486507Y2433172D01*
X490686Y2440732D01*
X495684Y2447777D01*
X501440Y2454218D01*
X507881Y2459974D01*
X514926Y2464973D01*
X522486Y2469151D01*
X530467Y2472457D01*
X538768Y2474848D01*
X547284Y2476295D01*
X555909Y2476779D01*
X564533Y2476295D01*
X573049Y2474848D01*
X581350Y2472457D01*
X589330Y2469151D01*
X596891Y2464973D01*
X603936Y2459974D01*
X610377Y2454218D01*
X616133Y2447777D01*
X620449Y2441694D01*
X620451Y2441688D01*
X843439Y2097181D01*
X843712Y2096900D01*
X847217Y2091959D01*
X852252Y2086325D01*
X857887Y2081290D01*
X864049Y2076917D01*
X870663Y2073262D01*
X877644Y2070371D01*
X884905Y2068279D01*
X892354Y2067013D01*
X899898Y2066590D01*
X901837Y2066698D01*
X902000Y2066666D01*
X1118000D01*
X1118163Y2066698D01*
X1120102Y2066590D01*
X1127646Y2067013D01*
X1135095Y2068279D01*
X1142356Y2070371D01*
X1149337Y2073262D01*
X1155951Y2076917D01*
X1162113Y2081290D01*
X1167748Y2086325D01*
X1172783Y2091959D01*
X1176288Y2096900D01*
X1176561Y2097181D01*
X1399549Y2441688D01*
X1399551Y2441694D01*
X1403867Y2447777D01*
X1409623Y2454218D01*
X1416064Y2459974D01*
X1423109Y2464973D01*
X1430670Y2469151D01*
X1438650Y2472457D01*
X1446951Y2474848D01*
X1455467Y2476295D01*
X1464091Y2476779D01*
X1472716Y2476295D01*
D02*
G37*
G36*
X1381625Y1121500D02*
X1321375Y1083000D01*
X1241250Y1210250D01*
X1299500Y1248000D01*
X1381625Y1121500D01*
D02*
G37*
G36*
X779500Y1210000D02*
X699375Y1082750D01*
X639125Y1121250D01*
X721250Y1247750D01*
X779500Y1210000D01*
D02*
G37*
%LPC*%
G36*
X1196250Y1664358D02*
X1194104Y1663931D01*
X1192285Y1662715D01*
X1191069Y1660896D01*
X1190642Y1658750D01*
X1191069Y1656604D01*
X1192285Y1654785D01*
X1194104Y1653569D01*
X1196250Y1653142D01*
X1198396Y1653569D01*
X1200215Y1654785D01*
X1201431Y1656604D01*
X1201858Y1658750D01*
X1201431Y1660896D01*
X1200215Y1662715D01*
X1198396Y1663931D01*
X1196250Y1664358D01*
D02*
G37*
G36*
X790850Y1775962D02*
X787456Y1775515D01*
X784294Y1774205D01*
X781578Y1772122D01*
X779494Y1769406D01*
X778185Y1766244D01*
X777738Y1762850D01*
X778185Y1759456D01*
X779494Y1756294D01*
X781578Y1753578D01*
X784294Y1751494D01*
X787456Y1750185D01*
X790850Y1749738D01*
X794244Y1750185D01*
X797406Y1751494D01*
X800122Y1753578D01*
X802206Y1756294D01*
X803515Y1759456D01*
X803962Y1762850D01*
X803515Y1766244D01*
X802206Y1769406D01*
X800122Y1772122D01*
X797406Y1774205D01*
X794244Y1775515D01*
X790850Y1775962D01*
D02*
G37*
G36*
X1196250Y1690858D02*
X1194104Y1690431D01*
X1192285Y1689215D01*
X1191069Y1687396D01*
X1190642Y1685250D01*
X1191069Y1683104D01*
X1192285Y1681285D01*
X1194104Y1680069D01*
X1196250Y1679642D01*
X1198396Y1680069D01*
X1200215Y1681285D01*
X1201431Y1683104D01*
X1201858Y1685250D01*
X1201431Y1687396D01*
X1200215Y1689215D01*
X1198396Y1690431D01*
X1196250Y1690858D01*
D02*
G37*
G36*
X1196500Y1750608D02*
X1194354Y1750181D01*
X1192535Y1748965D01*
X1191319Y1747146D01*
X1190892Y1745000D01*
X1191319Y1742854D01*
X1192535Y1741035D01*
X1194354Y1739819D01*
X1196500Y1739392D01*
X1198646Y1739819D01*
X1200465Y1741035D01*
X1201681Y1742854D01*
X1202108Y1745000D01*
X1201681Y1747146D01*
X1200465Y1748965D01*
X1198646Y1750181D01*
X1196500Y1750608D01*
D02*
G37*
G36*
X841650Y1775962D02*
X838256Y1775515D01*
X835094Y1774205D01*
X832378Y1772122D01*
X830294Y1769406D01*
X828985Y1766244D01*
X828538Y1762850D01*
X828985Y1759456D01*
X830294Y1756294D01*
X832378Y1753578D01*
X835094Y1751494D01*
X838256Y1750185D01*
X841650Y1749738D01*
X845044Y1750185D01*
X848206Y1751494D01*
X850922Y1753578D01*
X853006Y1756294D01*
X854315Y1759456D01*
X854762Y1762850D01*
X854315Y1766244D01*
X853006Y1769406D01*
X850922Y1772122D01*
X848206Y1774205D01*
X845044Y1775515D01*
X841650Y1775962D01*
D02*
G37*
G36*
X790850Y1826762D02*
X787456Y1826315D01*
X784294Y1825005D01*
X781578Y1822922D01*
X779494Y1820206D01*
X778185Y1817044D01*
X777738Y1813650D01*
X778185Y1810256D01*
X779494Y1807094D01*
X781578Y1804378D01*
X784294Y1802294D01*
X787456Y1800985D01*
X790850Y1800538D01*
X794244Y1800985D01*
X797406Y1802294D01*
X800122Y1804378D01*
X802206Y1807094D01*
X803515Y1810256D01*
X803962Y1813650D01*
X803515Y1817044D01*
X802206Y1820206D01*
X800122Y1822922D01*
X797406Y1825005D01*
X794244Y1826315D01*
X790850Y1826762D01*
D02*
G37*
G36*
X841650D02*
X838256Y1826315D01*
X835094Y1825005D01*
X832378Y1822922D01*
X830294Y1820206D01*
X828985Y1817044D01*
X828538Y1813650D01*
X828985Y1810256D01*
X830294Y1807094D01*
X832378Y1804378D01*
X835094Y1802294D01*
X838256Y1800985D01*
X841650Y1800538D01*
X845044Y1800985D01*
X848206Y1802294D01*
X850922Y1804378D01*
X853006Y1807094D01*
X854315Y1810256D01*
X854762Y1813650D01*
X854315Y1817044D01*
X853006Y1820206D01*
X850922Y1822922D01*
X848206Y1825005D01*
X845044Y1826315D01*
X841650Y1826762D01*
D02*
G37*
G36*
X1196250Y1777108D02*
X1194104Y1776681D01*
X1192285Y1775465D01*
X1191069Y1773646D01*
X1190642Y1771500D01*
X1191069Y1769354D01*
X1192285Y1767535D01*
X1194104Y1766319D01*
X1196250Y1765892D01*
X1198396Y1766319D01*
X1200215Y1767535D01*
X1201431Y1769354D01*
X1201858Y1771500D01*
X1201431Y1773646D01*
X1200215Y1775465D01*
X1198396Y1776681D01*
X1196250Y1777108D01*
D02*
G37*
G36*
X816250Y1800354D02*
X813117Y1799941D01*
X810198Y1798732D01*
X807691Y1796808D01*
X805768Y1794302D01*
X804559Y1791383D01*
X804146Y1788250D01*
X804559Y1785117D01*
X805768Y1782198D01*
X807691Y1779691D01*
X810198Y1777768D01*
X813117Y1776559D01*
X816250Y1776146D01*
X819383Y1776559D01*
X822302Y1777768D01*
X824809Y1779691D01*
X826732Y1782198D01*
X827941Y1785117D01*
X828354Y1788250D01*
X827941Y1791383D01*
X826732Y1794302D01*
X824809Y1796808D01*
X822302Y1798732D01*
X819383Y1799941D01*
X816250Y1800354D01*
D02*
G37*
G36*
X1208250Y1624858D02*
X1206104Y1624431D01*
X1204285Y1623215D01*
X1203069Y1621396D01*
X1202642Y1619250D01*
X1203069Y1617104D01*
X1204285Y1615285D01*
X1206104Y1614069D01*
X1208250Y1613642D01*
X1210396Y1614069D01*
X1212215Y1615285D01*
X1213431Y1617104D01*
X1213858Y1619250D01*
X1213431Y1621396D01*
X1212215Y1623215D01*
X1210396Y1624431D01*
X1208250Y1624858D01*
D02*
G37*
G36*
X1111000Y1391608D02*
X1108854Y1391181D01*
X1107035Y1389965D01*
X1105819Y1388146D01*
X1105392Y1386000D01*
X1105819Y1383854D01*
X1107035Y1382035D01*
X1108196Y1381259D01*
Y1373500D01*
X1105000D01*
Y1363770D01*
X1105000Y1363500D01*
Y1362500D01*
X1105000Y1362230D01*
Y1352500D01*
X1107696D01*
Y1350238D01*
X1107436Y1350064D01*
X1106497Y1348658D01*
X1106167Y1347000D01*
X1106497Y1345342D01*
X1107436Y1343936D01*
X1108842Y1342997D01*
X1110500Y1342667D01*
X1112158Y1342997D01*
X1113564Y1343936D01*
X1114503Y1345342D01*
X1114833Y1347000D01*
X1114503Y1348658D01*
X1113564Y1350064D01*
X1113304Y1350238D01*
Y1352500D01*
X1116000D01*
Y1362230D01*
X1116000Y1362500D01*
Y1363500D01*
X1116000Y1363770D01*
Y1373500D01*
X1113804D01*
Y1381259D01*
X1114965Y1382035D01*
X1116181Y1383854D01*
X1116608Y1386000D01*
X1116181Y1388146D01*
X1114965Y1389965D01*
X1113146Y1391181D01*
X1111000Y1391608D01*
D02*
G37*
G36*
X1164965Y1421039D02*
X1164185Y1420884D01*
X1163523Y1420442D01*
X1163523Y1420442D01*
X1120058Y1376977D01*
X1119616Y1376315D01*
X1119461Y1375535D01*
Y1345000D01*
X1119616Y1344220D01*
X1120058Y1343558D01*
X1120720Y1343116D01*
X1121500Y1342961D01*
X1225976Y1342961D01*
X1226078Y1342981D01*
X1226180Y1342971D01*
X1226465Y1343058D01*
X1226757Y1343116D01*
X1226843Y1343173D01*
X1226941Y1343203D01*
X1227171Y1343393D01*
X1227418Y1343558D01*
X1227476Y1343644D01*
X1227555Y1343709D01*
X1228359Y1344692D01*
X1228408Y1344783D01*
X1228480Y1344857D01*
X1228593Y1345132D01*
X1228733Y1345395D01*
X1228743Y1345497D01*
X1228782Y1345593D01*
X1228781Y1345891D01*
X1228809Y1346187D01*
X1228779Y1346285D01*
X1228779Y1346388D01*
X1213978Y1419405D01*
X1213902Y1419587D01*
X1213864Y1419780D01*
X1213750Y1419950D01*
X1213671Y1420139D01*
X1213531Y1420278D01*
X1213422Y1420442D01*
X1213251Y1420556D01*
X1213106Y1420700D01*
X1212924Y1420774D01*
X1212760Y1420884D01*
X1212559Y1420924D01*
X1212370Y1421001D01*
X1212173Y1421001D01*
X1211980Y1421039D01*
X1164965Y1421039D01*
X1164965Y1421039D01*
D02*
G37*
G36*
X560000Y1062098D02*
X553047Y1061707D01*
X546182Y1060541D01*
X539490Y1058613D01*
X533057Y1055948D01*
X526962Y1052580D01*
X521283Y1048550D01*
X516090Y1043910D01*
X511450Y1038717D01*
X507420Y1033038D01*
X504052Y1026943D01*
X501387Y1020510D01*
X499459Y1013818D01*
X498293Y1006953D01*
X497902Y1000000D01*
X498293Y993047D01*
X499459Y986182D01*
X501387Y979490D01*
X504052Y973057D01*
X507420Y966962D01*
X511450Y961283D01*
X516090Y956090D01*
X521283Y951450D01*
X526962Y947420D01*
X533057Y944052D01*
X539490Y941387D01*
X546182Y939459D01*
X553047Y938293D01*
X560000Y937902D01*
X566953Y938293D01*
X573818Y939459D01*
X580510Y941387D01*
X586943Y944052D01*
X593038Y947420D01*
X598717Y951450D01*
X603910Y956090D01*
X608550Y961283D01*
X612580Y966962D01*
X615948Y973057D01*
X618613Y979490D01*
X620541Y986182D01*
X621707Y993047D01*
X622098Y1000000D01*
X621707Y1006953D01*
X620541Y1013818D01*
X618613Y1020510D01*
X615948Y1026943D01*
X612580Y1033038D01*
X608550Y1038717D01*
X603910Y1043910D01*
X598717Y1048550D01*
X593038Y1052580D01*
X586943Y1055948D01*
X580510Y1058613D01*
X573818Y1060541D01*
X566953Y1061707D01*
X560000Y1062098D01*
D02*
G37*
G36*
X1460000D02*
X1453047Y1061707D01*
X1446182Y1060541D01*
X1439490Y1058613D01*
X1433057Y1055948D01*
X1426962Y1052580D01*
X1421283Y1048550D01*
X1416090Y1043910D01*
X1411450Y1038717D01*
X1407420Y1033038D01*
X1404052Y1026943D01*
X1401387Y1020510D01*
X1399459Y1013818D01*
X1398293Y1006953D01*
X1397902Y1000000D01*
X1398293Y993047D01*
X1399459Y986182D01*
X1401387Y979490D01*
X1404052Y973057D01*
X1407420Y966962D01*
X1411450Y961283D01*
X1416090Y956090D01*
X1421283Y951450D01*
X1426962Y947420D01*
X1433057Y944052D01*
X1439490Y941387D01*
X1446182Y939459D01*
X1453047Y938293D01*
X1460000Y937902D01*
X1466953Y938293D01*
X1473818Y939459D01*
X1480510Y941387D01*
X1486943Y944052D01*
X1493038Y947420D01*
X1498717Y951450D01*
X1503910Y956090D01*
X1508550Y961283D01*
X1512580Y966962D01*
X1515948Y973057D01*
X1518613Y979490D01*
X1520541Y986182D01*
X1521707Y993047D01*
X1522098Y1000000D01*
X1521707Y1006953D01*
X1520541Y1013818D01*
X1518613Y1020510D01*
X1515948Y1026943D01*
X1512580Y1033038D01*
X1508550Y1038717D01*
X1503910Y1043910D01*
X1498717Y1048550D01*
X1493038Y1052580D01*
X1486943Y1055948D01*
X1480510Y1058613D01*
X1473818Y1060541D01*
X1466953Y1061707D01*
X1460000Y1062098D01*
D02*
G37*
G36*
X997300Y1390595D02*
X994428Y1390217D01*
X991753Y1389108D01*
X989455Y1387345D01*
X987691Y1385047D01*
X986583Y1382372D01*
X986205Y1379500D01*
X986583Y1376628D01*
X987691Y1373953D01*
X989455Y1371655D01*
X991753Y1369892D01*
X994428Y1368783D01*
X997300Y1368405D01*
X1000172Y1368783D01*
X1002848Y1369892D01*
X1005145Y1371655D01*
X1006908Y1373953D01*
X1008017Y1376628D01*
X1008395Y1379500D01*
X1008017Y1382372D01*
X1006908Y1385047D01*
X1005145Y1387345D01*
X1002848Y1389108D01*
X1000172Y1390217D01*
X997300Y1390595D01*
D02*
G37*
G36*
X1189500Y1520608D02*
X1187354Y1520181D01*
X1185535Y1518965D01*
X1184319Y1517146D01*
X1183892Y1515000D01*
X1184319Y1512854D01*
X1185535Y1511035D01*
X1187354Y1509819D01*
X1189500Y1509392D01*
X1191646Y1509819D01*
X1193465Y1511035D01*
X1194681Y1512854D01*
X1195108Y1515000D01*
X1194681Y1517146D01*
X1193465Y1518965D01*
X1191646Y1520181D01*
X1189500Y1520608D01*
D02*
G37*
G36*
X868000Y1600858D02*
X865854Y1600431D01*
X864035Y1599215D01*
X862819Y1597396D01*
X862392Y1595250D01*
X862819Y1593104D01*
X864035Y1591285D01*
X865854Y1590069D01*
X868000Y1589642D01*
X870146Y1590069D01*
X871965Y1591285D01*
X873181Y1593104D01*
X873608Y1595250D01*
X873181Y1597396D01*
X871965Y1599215D01*
X870146Y1600431D01*
X868000Y1600858D01*
D02*
G37*
G36*
X928000Y1385108D02*
X925854Y1384681D01*
X924035Y1383465D01*
X922819Y1381646D01*
X922392Y1379500D01*
X922819Y1377354D01*
X924035Y1375535D01*
X925854Y1374319D01*
X928000Y1373892D01*
X930146Y1374319D01*
X931965Y1375535D01*
X933181Y1377354D01*
X933608Y1379500D01*
X933181Y1381646D01*
X931965Y1383465D01*
X930146Y1384681D01*
X928000Y1385108D01*
D02*
G37*
G36*
X1023000Y1432608D02*
X1020854Y1432181D01*
X1019035Y1430965D01*
X1017819Y1429146D01*
X1017392Y1427000D01*
X1017819Y1424854D01*
X1019035Y1423035D01*
X1020854Y1421819D01*
X1023000Y1421392D01*
X1025146Y1421819D01*
X1026965Y1423035D01*
X1028181Y1424854D01*
X1028608Y1427000D01*
X1028181Y1429146D01*
X1026965Y1430965D01*
X1025146Y1432181D01*
X1023000Y1432608D01*
D02*
G37*
G36*
X1084000Y1916108D02*
X1081854Y1915681D01*
X1080035Y1914465D01*
X1078819Y1912646D01*
X1078392Y1910500D01*
X1078819Y1908354D01*
X1080035Y1906535D01*
X1081854Y1905319D01*
X1084000Y1904892D01*
X1086146Y1905319D01*
X1087965Y1906535D01*
X1089181Y1908354D01*
X1089608Y1910500D01*
X1089181Y1912646D01*
X1087965Y1914465D01*
X1086146Y1915681D01*
X1084000Y1916108D01*
D02*
G37*
G36*
X1159000Y1890304D02*
X965750D01*
X964677Y1890090D01*
X963767Y1889483D01*
X960017Y1885733D01*
X959410Y1884823D01*
X959196Y1883750D01*
Y1883605D01*
X958298Y1882489D01*
X898421Y1882489D01*
X898225Y1882449D01*
X898024Y1882450D01*
X897838Y1882373D01*
X897641Y1882333D01*
X897616Y1882317D01*
X897616Y1882317D01*
X897504Y1882270D01*
X897362Y1882175D01*
X897289Y1882145D01*
X897264Y1882129D01*
X897208Y1882073D01*
X896842Y1881828D01*
X896598Y1881463D01*
X896542Y1881407D01*
X896525Y1881382D01*
X896513Y1881352D01*
X896491Y1881328D01*
X896468Y1881268D01*
X896400Y1881167D01*
X896353Y1881054D01*
X896353Y1881054D01*
X896337Y1881029D01*
X896298Y1880832D01*
X896221Y1880647D01*
Y1880614D01*
X896209Y1880584D01*
X896209Y1880584D01*
X896214Y1880415D01*
X896181Y1880249D01*
Y1776185D01*
X896200Y1776091D01*
X896190Y1775997D01*
X896277Y1775704D01*
X896337Y1775405D01*
X896390Y1775325D01*
X896417Y1775234D01*
X896609Y1774997D01*
X896779Y1774743D01*
X896858Y1774690D01*
X896918Y1774616D01*
X897766Y1773912D01*
X897919Y1773829D01*
X898051Y1773714D01*
X898269Y1773588D01*
X898486Y1773515D01*
X898860Y1772870D01*
X898958Y1772500D01*
X898859Y1772128D01*
X898486Y1771485D01*
X898269Y1771412D01*
X898050Y1771285D01*
X897918Y1771170D01*
X897765Y1771087D01*
X896918Y1770384D01*
X896858Y1770310D01*
X896779Y1770257D01*
X896609Y1770003D01*
X896417Y1769766D01*
X896390Y1769675D01*
X896337Y1769595D01*
X896277Y1769296D01*
X896190Y1769003D01*
X896200Y1768909D01*
X896181Y1768815D01*
Y1601569D01*
X895000D01*
X893634Y1601297D01*
X892477Y1600523D01*
X879878Y1587925D01*
X879465Y1587965D01*
X877646Y1589181D01*
X875500Y1589608D01*
X873354Y1589181D01*
X871535Y1587965D01*
X870319Y1586146D01*
X869892Y1584000D01*
X870319Y1581854D01*
X871535Y1580035D01*
X873354Y1578819D01*
X875500Y1578392D01*
X877646Y1578819D01*
X879465Y1580035D01*
X879730Y1580431D01*
X881000D01*
X882366Y1580703D01*
X883523Y1581477D01*
X895008Y1592961D01*
X896181Y1592475D01*
Y1586470D01*
X896186Y1586445D01*
X896182Y1586420D01*
X896264Y1586055D01*
X896337Y1585689D01*
X896351Y1585668D01*
X896356Y1585643D01*
X896571Y1585338D01*
X896779Y1585028D01*
X896800Y1585014D01*
X896815Y1584993D01*
X897063Y1584756D01*
X897078Y1584734D01*
X897149Y1584595D01*
X897210Y1584346D01*
X897210Y1583654D01*
X897149Y1583405D01*
X897078Y1583266D01*
X897063Y1583244D01*
X896814Y1583007D01*
X896800Y1582986D01*
X896779Y1582972D01*
X896571Y1582662D01*
X896356Y1582357D01*
X896351Y1582332D01*
X896337Y1582310D01*
X896264Y1581945D01*
X896182Y1581580D01*
X896186Y1581555D01*
X896181Y1581530D01*
Y1454554D01*
X896250Y1454207D01*
X896304Y1453857D01*
X896706Y1452753D01*
X896729Y1452714D01*
X896738Y1452669D01*
X896935Y1452375D01*
X897118Y1452072D01*
X897155Y1452045D01*
X897180Y1452007D01*
X897475Y1451811D01*
X897760Y1451602D01*
X897804Y1451591D01*
X897842Y1451566D01*
X898189Y1451496D01*
X898533Y1451412D01*
X898578Y1451419D01*
X898622Y1451410D01*
X905143D01*
X1155145Y1451410D01*
X1155892Y1450500D01*
X1156319Y1448354D01*
X1157535Y1446535D01*
X1159354Y1445319D01*
X1161500Y1444892D01*
X1163646Y1445319D01*
X1165465Y1446535D01*
X1166681Y1448354D01*
X1167108Y1450500D01*
X1166681Y1452646D01*
X1165465Y1454465D01*
X1164640Y1455017D01*
X1164440Y1456314D01*
X1164477Y1456406D01*
X1164510Y1456569D01*
X1164549Y1456663D01*
X1164556Y1456696D01*
Y1456696D01*
X1164556Y1456697D01*
X1164566Y1456729D01*
X1164575Y1456831D01*
X1164623Y1456991D01*
X1164633Y1457089D01*
X1164626Y1457154D01*
X1164633Y1457186D01*
X1164629Y1457203D01*
X1164652Y1457317D01*
Y1508696D01*
X1165500Y1509392D01*
X1167646Y1509819D01*
X1169465Y1511035D01*
X1170681Y1512854D01*
X1171108Y1515000D01*
X1170681Y1517146D01*
X1169465Y1518965D01*
X1167646Y1520181D01*
X1165500Y1520608D01*
X1164652Y1521304D01*
Y1595036D01*
X1184749D01*
X1190728Y1589057D01*
X1190667Y1588750D01*
X1190997Y1587092D01*
X1191936Y1585686D01*
X1193342Y1584747D01*
X1195000Y1584417D01*
X1196658Y1584747D01*
X1198064Y1585686D01*
X1199003Y1587092D01*
X1199333Y1588750D01*
X1199003Y1590408D01*
X1198064Y1591814D01*
X1196658Y1592753D01*
X1195000Y1593083D01*
X1194693Y1593022D01*
X1188204Y1599512D01*
X1188413Y1600613D01*
X1188590Y1600884D01*
X1189158Y1600997D01*
X1190564Y1601936D01*
X1191503Y1603342D01*
X1191833Y1605000D01*
X1191503Y1606658D01*
X1190564Y1608064D01*
X1189158Y1609003D01*
X1187500Y1609333D01*
X1187193Y1609272D01*
X1186304Y1610161D01*
Y1636762D01*
X1186564Y1636936D01*
X1187503Y1638342D01*
X1187833Y1640000D01*
X1187503Y1641658D01*
X1186564Y1643064D01*
X1185158Y1644003D01*
X1183500Y1644333D01*
X1181842Y1644003D01*
X1180436Y1643064D01*
X1179497Y1641658D01*
X1179167Y1640000D01*
X1179497Y1638342D01*
X1180436Y1636936D01*
X1180696Y1636762D01*
Y1609000D01*
X1180910Y1607927D01*
X1181517Y1607017D01*
X1183228Y1605307D01*
X1183167Y1605000D01*
X1183497Y1603342D01*
X1184436Y1601936D01*
X1184470Y1601913D01*
X1184085Y1600643D01*
X1164652D01*
Y1876422D01*
X1166646Y1876819D01*
X1168465Y1878035D01*
X1169681Y1879854D01*
X1170108Y1882000D01*
X1169681Y1884146D01*
X1168465Y1885965D01*
X1166646Y1887181D01*
X1164500Y1887608D01*
X1163130Y1887335D01*
X1160983Y1889483D01*
X1160073Y1890090D01*
X1159000Y1890304D01*
D02*
G37*
G36*
X1106750Y1918608D02*
X1104604Y1918181D01*
X1102785Y1916965D01*
X1101569Y1915146D01*
X1101142Y1913000D01*
X1101569Y1910854D01*
X1102785Y1909035D01*
X1104604Y1907819D01*
X1106750Y1907392D01*
X1108896Y1907819D01*
X1110715Y1909035D01*
X1111931Y1910854D01*
X1112358Y1913000D01*
X1111931Y1915146D01*
X1110715Y1916965D01*
X1108896Y1918181D01*
X1106750Y1918608D01*
D02*
G37*
G36*
X1196750Y1835108D02*
X1194604Y1834681D01*
X1192785Y1833465D01*
X1191569Y1831646D01*
X1191142Y1829500D01*
X1191569Y1827354D01*
X1192785Y1825535D01*
X1194604Y1824319D01*
X1196750Y1823892D01*
X1198896Y1824319D01*
X1200715Y1825535D01*
X1201931Y1827354D01*
X1202358Y1829500D01*
X1201931Y1831646D01*
X1200715Y1833465D01*
X1198896Y1834681D01*
X1196750Y1835108D01*
D02*
G37*
G36*
X1196500Y1861608D02*
X1194354Y1861181D01*
X1192535Y1859965D01*
X1191319Y1858146D01*
X1190892Y1856000D01*
X1191319Y1853854D01*
X1192535Y1852035D01*
X1194354Y1850819D01*
X1196500Y1850392D01*
X1198646Y1850819D01*
X1200465Y1852035D01*
X1201681Y1853854D01*
X1202108Y1856000D01*
X1201681Y1858146D01*
X1200465Y1859965D01*
X1198646Y1861181D01*
X1196500Y1861608D01*
D02*
G37*
G36*
X560000Y2462098D02*
X553047Y2461707D01*
X546182Y2460541D01*
X539490Y2458613D01*
X533057Y2455948D01*
X526962Y2452580D01*
X521283Y2448550D01*
X516090Y2443910D01*
X511450Y2438717D01*
X507420Y2433038D01*
X504052Y2426943D01*
X501387Y2420510D01*
X499459Y2413818D01*
X498293Y2406953D01*
X497902Y2400000D01*
X498293Y2393047D01*
X499459Y2386182D01*
X501387Y2379490D01*
X504052Y2373057D01*
X507420Y2366962D01*
X511450Y2361283D01*
X516090Y2356090D01*
X521283Y2351450D01*
X526962Y2347420D01*
X533057Y2344052D01*
X539490Y2341387D01*
X546182Y2339459D01*
X553047Y2338293D01*
X560000Y2337902D01*
X566953Y2338293D01*
X573818Y2339459D01*
X580510Y2341387D01*
X586943Y2344052D01*
X593038Y2347420D01*
X598717Y2351450D01*
X603910Y2356090D01*
X608550Y2361283D01*
X612580Y2366962D01*
X615948Y2373057D01*
X618613Y2379490D01*
X620541Y2386182D01*
X621707Y2393047D01*
X622098Y2400000D01*
X621707Y2406953D01*
X620541Y2413818D01*
X618613Y2420510D01*
X615948Y2426943D01*
X612580Y2433038D01*
X608550Y2438717D01*
X603910Y2443910D01*
X598717Y2448550D01*
X593038Y2452580D01*
X586943Y2455948D01*
X580510Y2458613D01*
X573818Y2460541D01*
X566953Y2461707D01*
X560000Y2462098D01*
D02*
G37*
G36*
X1460000D02*
X1453047Y2461707D01*
X1446182Y2460541D01*
X1439490Y2458613D01*
X1433057Y2455948D01*
X1426962Y2452580D01*
X1421283Y2448550D01*
X1416090Y2443910D01*
X1411450Y2438717D01*
X1407420Y2433038D01*
X1404052Y2426943D01*
X1401387Y2420510D01*
X1399459Y2413818D01*
X1398293Y2406953D01*
X1397902Y2400000D01*
X1398293Y2393047D01*
X1399459Y2386182D01*
X1401387Y2379490D01*
X1404052Y2373057D01*
X1407420Y2366962D01*
X1411450Y2361283D01*
X1416090Y2356090D01*
X1421283Y2351450D01*
X1426962Y2347420D01*
X1433057Y2344052D01*
X1439490Y2341387D01*
X1446182Y2339459D01*
X1453047Y2338293D01*
X1460000Y2337902D01*
X1466953Y2338293D01*
X1473818Y2339459D01*
X1480510Y2341387D01*
X1486943Y2344052D01*
X1493038Y2347420D01*
X1498717Y2351450D01*
X1503910Y2356090D01*
X1508550Y2361283D01*
X1512580Y2366962D01*
X1515948Y2373057D01*
X1518613Y2379490D01*
X1520541Y2386182D01*
X1521707Y2393047D01*
X1522098Y2400000D01*
X1521707Y2406953D01*
X1520541Y2413818D01*
X1518613Y2420510D01*
X1515948Y2426943D01*
X1512580Y2433038D01*
X1508550Y2438717D01*
X1503910Y2443910D01*
X1498717Y2448550D01*
X1493038Y2452580D01*
X1486943Y2455948D01*
X1480510Y2458613D01*
X1473818Y2460541D01*
X1466953Y2461707D01*
X1460000Y2462098D01*
D02*
G37*
G36*
X640961Y2282288D02*
X640954Y2282286D01*
X640947Y2282286D01*
X640583Y2282144D01*
X640218Y2282004D01*
X640212Y2281999D01*
X640206Y2281997D01*
X579956Y2243497D01*
X579951Y2243491D01*
X579944Y2243489D01*
X579664Y2243216D01*
X579382Y2242946D01*
X579379Y2242939D01*
X579374Y2242934D01*
X579219Y2242574D01*
X579063Y2242217D01*
X579062Y2242209D01*
X579059Y2242202D01*
X579054Y2241810D01*
X579046Y2241421D01*
X579049Y2241414D01*
X579049Y2241407D01*
X579194Y2241044D01*
X579336Y2240680D01*
X579341Y2240675D01*
X579344Y2240668D01*
X661469Y2114168D01*
X661750Y2113879D01*
X662022Y2113599D01*
X662023Y2113598D01*
X662024Y2113598D01*
X662319Y2113471D01*
X662311Y2113282D01*
X662321Y2113253D01*
X662321Y2113222D01*
X662457Y2112880D01*
X662583Y2112534D01*
X708072Y2037542D01*
X708083Y2037530D01*
X708088Y2037516D01*
X708351Y2037238D01*
X708610Y2036955D01*
X708624Y2036949D01*
X708634Y2036937D01*
X708983Y2036781D01*
X709331Y2036619D01*
X709346Y2036618D01*
X709360Y2036612D01*
X710598Y2036328D01*
X710614Y2036328D01*
X710628Y2036322D01*
X711012Y2036316D01*
X711394Y2036305D01*
X711408Y2036311D01*
X711423Y2036310D01*
X711779Y2036452D01*
X712137Y2036588D01*
X712148Y2036599D01*
X712163Y2036604D01*
X792210Y2088481D01*
X792502Y2088764D01*
X792780Y2089035D01*
X792781Y2089035D01*
X792781Y2089035D01*
X792926Y2089374D01*
X793095Y2089766D01*
Y2089766D01*
X793095Y2089766D01*
X793101Y2090130D01*
X793107Y2090561D01*
X793107Y2090562D01*
Y2090562D01*
X792950Y2090956D01*
X792813Y2091301D01*
X747472Y2161298D01*
X747571Y2161362D01*
X741590Y2170594D01*
X741590D01*
X741429Y2170629D01*
X732212Y2184859D01*
X731939Y2185139D01*
X731664Y2185425D01*
X731660Y2185426D01*
X731657Y2185429D01*
X731298Y2185584D01*
X730934Y2185742D01*
X730930Y2185742D01*
X730926Y2185744D01*
X730536Y2185750D01*
X730139Y2185757D01*
X730135Y2185755D01*
X730131Y2185755D01*
X729768Y2185611D01*
X729398Y2185466D01*
X711655Y2174071D01*
X710415Y2174347D01*
X643030Y2281365D01*
X643025Y2281370D01*
X643022Y2281376D01*
X642751Y2281659D01*
X642483Y2281942D01*
X642476Y2281945D01*
X642471Y2281950D01*
X642113Y2282108D01*
X641756Y2282267D01*
X641749Y2282267D01*
X641743Y2282270D01*
X641353Y2282278D01*
X640961Y2282288D01*
D02*
G37*
G36*
X1377289Y2280788D02*
X1376897Y2280778D01*
X1376507Y2280770D01*
X1376501Y2280767D01*
X1376494Y2280767D01*
X1376136Y2280607D01*
X1375779Y2280450D01*
X1375774Y2280445D01*
X1375768Y2280443D01*
X1375498Y2280158D01*
X1375228Y2279876D01*
X1375225Y2279870D01*
X1375220Y2279865D01*
X1322508Y2196149D01*
X1321426Y2195427D01*
X1320211Y2193608D01*
X1319889Y2191991D01*
X1309492Y2175478D01*
X1308252Y2175202D01*
X1291102Y2186216D01*
X1290737Y2186359D01*
X1290369Y2186505D01*
X1290365Y2186505D01*
X1290361Y2186507D01*
X1289971Y2186500D01*
X1289574Y2186494D01*
X1289570Y2186492D01*
X1289566Y2186492D01*
X1289207Y2186336D01*
X1288843Y2186179D01*
X1288840Y2186176D01*
X1288836Y2186175D01*
X1288564Y2185892D01*
X1288289Y2185609D01*
X1227688Y2092051D01*
X1227688Y2092051D01*
X1227688Y2092051D01*
X1227687Y2092051D01*
X1227573Y2091764D01*
X1227393Y2091312D01*
Y2091311D01*
X1227393Y2091311D01*
X1227398Y2090988D01*
X1227404Y2090516D01*
X1227405Y2090516D01*
Y2090516D01*
X1227531Y2090222D01*
X1227719Y2089785D01*
X1227719Y2089785D01*
X1227720Y2089785D01*
X1227998Y2089514D01*
X1228290Y2089231D01*
X1308337Y2037354D01*
X1308352Y2037349D01*
X1308363Y2037338D01*
X1308720Y2037202D01*
X1309077Y2037060D01*
X1309092Y2037061D01*
X1309106Y2037055D01*
X1309489Y2037066D01*
X1309872Y2037072D01*
X1309886Y2037078D01*
X1309902Y2037078D01*
X1311140Y2037362D01*
X1311154Y2037368D01*
X1311169Y2037369D01*
X1311517Y2037531D01*
X1311866Y2037687D01*
X1311876Y2037699D01*
X1311890Y2037705D01*
X1312149Y2037988D01*
X1312412Y2038266D01*
X1312417Y2038280D01*
X1312428Y2038292D01*
X1355734Y2109684D01*
X1355795Y2109852D01*
X1355891Y2110002D01*
X1355929Y2110222D01*
X1356006Y2110432D01*
X1355998Y2110610D01*
X1356029Y2110786D01*
X1356003Y2112002D01*
X1356226Y2112098D01*
X1356227Y2112099D01*
X1356228Y2112099D01*
X1356508Y2112387D01*
X1356781Y2112668D01*
X1417569Y2206302D01*
X1419357Y2207496D01*
X1420572Y2209316D01*
X1420999Y2211462D01*
X1420981Y2211556D01*
X1438906Y2239168D01*
X1438909Y2239175D01*
X1438914Y2239180D01*
X1439057Y2239546D01*
X1439201Y2239907D01*
X1439201Y2239914D01*
X1439204Y2239921D01*
X1439196Y2240314D01*
X1439191Y2240703D01*
X1439188Y2240709D01*
X1439187Y2240717D01*
X1439030Y2241077D01*
X1438876Y2241434D01*
X1438871Y2241439D01*
X1438868Y2241446D01*
X1438586Y2241716D01*
X1438306Y2241989D01*
X1438299Y2241991D01*
X1438294Y2241997D01*
X1378044Y2280497D01*
X1378038Y2280499D01*
X1378033Y2280504D01*
X1377667Y2280644D01*
X1377303Y2280786D01*
X1377296Y2280786D01*
X1377289Y2280788D01*
D02*
G37*
%LPD*%
G36*
X1159319Y1879854D02*
X1160535Y1878035D01*
X1162354Y1876819D01*
X1162613Y1876768D01*
Y1876422D01*
Y1600643D01*
X1143501D01*
X1092573Y1651571D01*
X1060586Y1683559D01*
X1061395Y1684545D01*
X1061842Y1684247D01*
X1063500Y1683917D01*
X1065158Y1684247D01*
X1066564Y1685186D01*
X1067503Y1686592D01*
X1067833Y1688250D01*
X1067503Y1689908D01*
X1066564Y1691314D01*
X1065158Y1692253D01*
X1063500Y1692583D01*
X1061842Y1692253D01*
X1060436Y1691314D01*
X1060262Y1691054D01*
X1058161D01*
X1050054Y1699161D01*
Y1701195D01*
X1051324Y1702101D01*
X1052250Y1701917D01*
X1053908Y1702247D01*
X1055314Y1703186D01*
X1056253Y1704592D01*
X1056583Y1706250D01*
X1056253Y1707908D01*
X1055314Y1709314D01*
X1055229Y1709371D01*
Y1712447D01*
X1056402Y1712933D01*
X1064142Y1705193D01*
X1063980Y1704657D01*
X1063634Y1703905D01*
X1062376Y1703064D01*
X1061437Y1701658D01*
X1061107Y1700000D01*
X1061437Y1698342D01*
X1062376Y1696936D01*
X1063782Y1695997D01*
X1065440Y1695667D01*
X1067098Y1695997D01*
X1068504Y1696936D01*
X1069345Y1698194D01*
X1070097Y1698540D01*
X1070633Y1698703D01*
X1140721Y1628614D01*
Y1623213D01*
X1140461Y1623039D01*
X1139522Y1621633D01*
X1139192Y1619975D01*
X1139522Y1618317D01*
X1140461Y1616911D01*
X1141867Y1615972D01*
X1143525Y1615642D01*
X1145183Y1615972D01*
X1146589Y1616911D01*
X1147529Y1618317D01*
X1147858Y1619975D01*
X1147529Y1621633D01*
X1146589Y1623039D01*
X1146329Y1623213D01*
Y1624512D01*
X1147599Y1625195D01*
X1149000Y1624917D01*
X1150658Y1625247D01*
X1152064Y1626186D01*
X1153003Y1627592D01*
X1153333Y1629250D01*
X1153003Y1630908D01*
X1152064Y1632314D01*
X1150658Y1633253D01*
X1149000Y1633583D01*
X1148693Y1633522D01*
X1092494Y1689722D01*
X1092996Y1691015D01*
X1094158Y1691247D01*
X1095564Y1692186D01*
X1096503Y1693592D01*
X1096833Y1695250D01*
X1096503Y1696908D01*
X1095564Y1698314D01*
X1094158Y1699253D01*
X1092500Y1699583D01*
X1090842Y1699253D01*
X1089436Y1698314D01*
X1088497Y1696908D01*
X1088265Y1695746D01*
X1086972Y1695244D01*
X1059463Y1722753D01*
X1060088Y1723923D01*
X1061500Y1723642D01*
X1063646Y1724069D01*
X1065465Y1725285D01*
X1066681Y1727104D01*
X1067070Y1729058D01*
X1068212Y1729712D01*
X1088906Y1709017D01*
X1089816Y1708410D01*
X1090889Y1708196D01*
X1105571D01*
X1106644Y1708410D01*
X1107554Y1709017D01*
X1111232Y1712696D01*
X1114512D01*
X1114686Y1712436D01*
X1116092Y1711497D01*
X1117750Y1711167D01*
X1119408Y1711497D01*
X1120814Y1712436D01*
X1121339Y1713221D01*
X1122877Y1713478D01*
X1123088Y1713267D01*
X1123998Y1712660D01*
X1125071Y1712446D01*
X1128762D01*
X1128936Y1712186D01*
X1129721Y1711661D01*
X1129978Y1710123D01*
X1111517Y1691662D01*
X1110910Y1690752D01*
X1110696Y1689679D01*
Y1680238D01*
X1110436Y1680064D01*
X1109497Y1678658D01*
X1109167Y1677000D01*
X1109497Y1675342D01*
X1110436Y1673936D01*
X1111842Y1672997D01*
X1113500Y1672667D01*
X1115158Y1672997D01*
X1116564Y1673936D01*
X1117503Y1675342D01*
X1117833Y1677000D01*
X1117503Y1678658D01*
X1116564Y1680064D01*
X1116304Y1680238D01*
Y1688518D01*
X1138983Y1711196D01*
X1139590Y1712106D01*
X1139804Y1713179D01*
Y1716391D01*
X1140389Y1716871D01*
X1142145Y1717220D01*
X1143633Y1718215D01*
X1144628Y1719704D01*
X1144977Y1721459D01*
X1144628Y1723215D01*
X1143633Y1724704D01*
X1142145Y1725698D01*
X1140389Y1726047D01*
X1138633Y1725698D01*
X1137145Y1724704D01*
X1136438Y1723645D01*
X1134973Y1723313D01*
X1131804Y1726483D01*
X1130894Y1727090D01*
X1129821Y1727304D01*
X1100911D01*
X1073054Y1755161D01*
Y1763750D01*
X1072840Y1764823D01*
X1072233Y1765733D01*
X1072054Y1765911D01*
Y1815955D01*
X1073319Y1816104D01*
X1074535Y1814285D01*
X1076354Y1813069D01*
X1078500Y1812642D01*
X1080646Y1813069D01*
X1082465Y1814285D01*
X1083681Y1816104D01*
X1084108Y1818250D01*
X1083681Y1820396D01*
X1082465Y1822215D01*
X1080646Y1823431D01*
X1078500Y1823858D01*
X1076354Y1823431D01*
X1074535Y1822215D01*
X1073319Y1820396D01*
X1072054Y1820545D01*
Y1822262D01*
X1072314Y1822436D01*
X1073253Y1823842D01*
X1073583Y1825500D01*
X1073253Y1827158D01*
X1072314Y1828564D01*
X1070908Y1829503D01*
X1069250Y1829833D01*
X1067592Y1829503D01*
X1066186Y1828564D01*
X1065247Y1827158D01*
X1064917Y1825500D01*
X1065247Y1823842D01*
X1066186Y1822436D01*
X1066446Y1822262D01*
Y1764750D01*
X1066660Y1763677D01*
X1067267Y1762767D01*
X1067446Y1762589D01*
Y1754000D01*
X1067660Y1752927D01*
X1068268Y1752017D01*
X1095307Y1724977D01*
X1094821Y1723804D01*
X1092161D01*
X1055304Y1760661D01*
Y1763262D01*
X1055564Y1763436D01*
X1056503Y1764842D01*
X1056833Y1766500D01*
X1056503Y1768158D01*
X1055564Y1769564D01*
X1054158Y1770503D01*
X1052500Y1770833D01*
X1050842Y1770503D01*
X1049436Y1769564D01*
X1048497Y1768158D01*
X1048167Y1766500D01*
X1048276Y1765951D01*
X1047917Y1765559D01*
X1047160Y1765053D01*
X1045750Y1765333D01*
X1044092Y1765003D01*
X1042686Y1764064D01*
X1041747Y1762658D01*
X1041417Y1761000D01*
X1041700Y1759574D01*
X1041142Y1758517D01*
X1039867Y1758484D01*
X1039814Y1758564D01*
X1038408Y1759503D01*
X1036750Y1759833D01*
X1035824Y1759649D01*
X1034554Y1760555D01*
Y1762494D01*
X1035500Y1763417D01*
X1037158Y1763747D01*
X1038564Y1764686D01*
X1039503Y1766092D01*
X1039833Y1767750D01*
X1039503Y1769408D01*
X1038564Y1770814D01*
X1037158Y1771753D01*
X1035500Y1772083D01*
X1033842Y1771753D01*
X1032436Y1770814D01*
X1031497Y1769408D01*
X1031167Y1767750D01*
X1031228Y1767443D01*
X1029767Y1765983D01*
X1029160Y1765073D01*
X1028946Y1764000D01*
Y1762257D01*
X1027676Y1761445D01*
X1026550Y1761669D01*
X1024892Y1761339D01*
X1023486Y1760400D01*
X1022547Y1758994D01*
X1022217Y1757336D01*
X1022346Y1756686D01*
X1021433Y1755374D01*
X1021395Y1755368D01*
X1020414Y1756149D01*
X1020583Y1757000D01*
X1020253Y1758658D01*
X1019314Y1760064D01*
X1017908Y1761003D01*
X1016250Y1761333D01*
X1014592Y1761003D01*
X1013186Y1760064D01*
X1012247Y1758658D01*
X1011917Y1757000D01*
X1012247Y1755342D01*
X1013186Y1753936D01*
X1013446Y1753762D01*
Y1751586D01*
X1012176Y1750907D01*
X1011658Y1751253D01*
X1010000Y1751583D01*
X1008961Y1751376D01*
X1008197Y1752520D01*
X1008302Y1752677D01*
X1008632Y1754336D01*
X1008302Y1755994D01*
X1007363Y1757400D01*
X1005957Y1758339D01*
X1004299Y1758669D01*
X1002641Y1758339D01*
X1002324Y1758127D01*
X1001054Y1758806D01*
Y1761262D01*
X1001314Y1761436D01*
X1002253Y1762842D01*
X1002583Y1764500D01*
X1002253Y1766158D01*
X1001314Y1767564D01*
X999908Y1768503D01*
X998250Y1768833D01*
X996592Y1768503D01*
X995186Y1767564D01*
X994247Y1766158D01*
X993917Y1764500D01*
X994247Y1762842D01*
X995186Y1761436D01*
X995446Y1761262D01*
Y1755055D01*
X994176Y1754149D01*
X993250Y1754333D01*
X991592Y1754003D01*
X990186Y1753064D01*
X989247Y1751658D01*
X989091Y1750878D01*
X981324Y1743110D01*
X980054Y1743636D01*
Y1775689D01*
X1042311Y1837946D01*
X1045039D01*
X1046112Y1838160D01*
X1047021Y1838767D01*
X1047450Y1839196D01*
X1059762D01*
X1059936Y1838936D01*
X1061342Y1837997D01*
X1063000Y1837667D01*
X1064658Y1837997D01*
X1066064Y1838936D01*
X1067003Y1840342D01*
X1067333Y1842000D01*
X1067003Y1843658D01*
X1066064Y1845064D01*
X1065544Y1845411D01*
X1066040Y1846608D01*
X1067000Y1846417D01*
X1068658Y1846747D01*
X1070064Y1847686D01*
X1071003Y1849092D01*
X1071333Y1850750D01*
X1071003Y1852408D01*
X1070064Y1853814D01*
X1069440Y1854231D01*
X1069497Y1855721D01*
X1070715Y1856535D01*
X1071931Y1858354D01*
X1072358Y1860500D01*
X1071931Y1862646D01*
X1070715Y1864465D01*
X1068896Y1865681D01*
X1066750Y1866108D01*
X1064604Y1865681D01*
X1062785Y1864465D01*
X1061569Y1862646D01*
X1061142Y1860500D01*
X1061569Y1858354D01*
X1062785Y1856535D01*
X1064253Y1855553D01*
X1064410Y1854411D01*
X1064340Y1854084D01*
X1063936Y1853814D01*
X1062997Y1852408D01*
X1062667Y1850750D01*
X1062997Y1849092D01*
X1063936Y1847686D01*
X1064456Y1847339D01*
X1063960Y1846142D01*
X1063000Y1846333D01*
X1061342Y1846003D01*
X1059936Y1845064D01*
X1059762Y1844804D01*
X1052178D01*
X1051692Y1845977D01*
X1053943Y1848228D01*
X1054250Y1848167D01*
X1055908Y1848497D01*
X1057314Y1849436D01*
X1058253Y1850842D01*
X1058583Y1852500D01*
X1058253Y1854158D01*
X1057314Y1855564D01*
X1055908Y1856503D01*
X1054250Y1856833D01*
X1052592Y1856503D01*
X1051424Y1855723D01*
X1050528Y1856121D01*
X1050254Y1856353D01*
X1050333Y1856750D01*
X1050003Y1858408D01*
X1049064Y1859814D01*
X1047658Y1860753D01*
X1046000Y1861083D01*
X1044342Y1860753D01*
X1042936Y1859814D01*
X1042762Y1859554D01*
X1040179D01*
X1039106Y1859340D01*
X1038196Y1858733D01*
X1034017Y1854554D01*
X1033410Y1853644D01*
X1033196Y1852571D01*
Y1852061D01*
X981924Y1800789D01*
X980451Y1801111D01*
X979814Y1802064D01*
X978408Y1803003D01*
X976750Y1803333D01*
X975092Y1803003D01*
X973686Y1802064D01*
X972747Y1800658D01*
X972417Y1799000D01*
X972747Y1797342D01*
X973686Y1795936D01*
X974639Y1795299D01*
X974961Y1793826D01*
X956767Y1775632D01*
X956160Y1774722D01*
X955946Y1773649D01*
X956160Y1772576D01*
X956196Y1772522D01*
Y1723738D01*
X955936Y1723564D01*
X954997Y1722158D01*
X954667Y1720500D01*
X954997Y1718842D01*
X955936Y1717436D01*
X957342Y1716497D01*
X959000Y1716167D01*
X960462Y1716458D01*
X961141Y1716022D01*
X961583Y1715587D01*
X961417Y1714750D01*
X961747Y1713092D01*
X962686Y1711686D01*
X962946Y1711512D01*
Y1710929D01*
X963160Y1709856D01*
X963767Y1708946D01*
X974946Y1697767D01*
X975856Y1697159D01*
X976929Y1696946D01*
X1001262D01*
X1001436Y1696686D01*
X1002842Y1695747D01*
X1004500Y1695417D01*
X1006158Y1695747D01*
X1007564Y1696686D01*
X1008503Y1698092D01*
X1008743Y1699296D01*
X1010016Y1699819D01*
X1017946Y1691889D01*
Y1689411D01*
X999839Y1671304D01*
X997238D01*
X997064Y1671564D01*
X995658Y1672503D01*
X994000Y1672833D01*
X992342Y1672503D01*
X990936Y1671564D01*
X989997Y1670158D01*
X989667Y1668500D01*
X989997Y1666842D01*
X990936Y1665436D01*
X992342Y1664497D01*
X994000Y1664167D01*
X995658Y1664497D01*
X997064Y1665436D01*
X997238Y1665696D01*
X1001000D01*
X1002073Y1665910D01*
X1002983Y1666517D01*
X1022733Y1686267D01*
X1023340Y1687177D01*
X1023554Y1688250D01*
Y1688504D01*
X1024824Y1689149D01*
X1025196Y1688877D01*
Y1684238D01*
X1024936Y1684064D01*
X1023997Y1682658D01*
X1023667Y1681000D01*
X1023997Y1679342D01*
X1024936Y1677936D01*
X1026342Y1676997D01*
X1028000Y1676667D01*
X1029658Y1676997D01*
X1031064Y1677936D01*
X1032003Y1679342D01*
X1032333Y1681000D01*
X1032324Y1681048D01*
X1033404Y1682128D01*
X1034051Y1681999D01*
X1035709Y1682329D01*
X1037114Y1683268D01*
X1038054Y1684674D01*
X1038351Y1686167D01*
X1038904Y1686494D01*
X1039603Y1686711D01*
X1112094Y1614220D01*
X1111785Y1613642D01*
X1111425Y1613093D01*
X1109354Y1612681D01*
X1107535Y1611465D01*
X1106319Y1609646D01*
X1105892Y1607500D01*
X1106319Y1605354D01*
X1107535Y1603535D01*
X1109354Y1602319D01*
X1111500Y1601892D01*
X1113646Y1602319D01*
X1115465Y1603535D01*
X1116681Y1605354D01*
X1117093Y1607425D01*
X1117642Y1607785D01*
X1118220Y1608094D01*
X1138691Y1587623D01*
X1138667Y1587500D01*
X1138997Y1585842D01*
X1139936Y1584436D01*
X1141342Y1583497D01*
X1143000Y1583167D01*
X1144658Y1583497D01*
X1146064Y1584436D01*
X1147003Y1585842D01*
X1147333Y1587500D01*
X1147272Y1587806D01*
X1148386Y1588392D01*
X1149196Y1587749D01*
Y1569238D01*
X1148936Y1569064D01*
X1147997Y1567658D01*
X1147667Y1566000D01*
X1147997Y1564342D01*
X1148936Y1562936D01*
X1150342Y1561997D01*
X1152000Y1561667D01*
X1153658Y1561997D01*
X1155064Y1562936D01*
X1156003Y1564342D01*
X1156333Y1566000D01*
X1156003Y1567658D01*
X1155064Y1569064D01*
X1154804Y1569238D01*
Y1589000D01*
X1154590Y1590073D01*
X1153983Y1590983D01*
X1151103Y1593862D01*
X1151589Y1595036D01*
X1162613D01*
Y1521734D01*
Y1519686D01*
X1161535Y1518965D01*
X1160319Y1517146D01*
X1159892Y1515000D01*
X1160319Y1512854D01*
X1161535Y1511035D01*
X1162613Y1510314D01*
Y1508266D01*
X1162613Y1508266D01*
X1162613D01*
Y1457317D01*
X1162603Y1457285D01*
X1162594Y1457186D01*
X1162556Y1457095D01*
X1162549Y1457061D01*
X1162426Y1456829D01*
X1162335Y1456527D01*
X1162219Y1456233D01*
X1161500Y1456108D01*
X1159354Y1455681D01*
X1157535Y1454465D01*
X1156856Y1453449D01*
X905143Y1453450D01*
X898622D01*
X898221Y1454554D01*
Y1581530D01*
X898530Y1581825D01*
X898888Y1581833D01*
X900029Y1581540D01*
X901035Y1580035D01*
X902854Y1578819D01*
X905000Y1578392D01*
X907146Y1578819D01*
X908965Y1580035D01*
X910181Y1581854D01*
X910608Y1584000D01*
X910181Y1586146D01*
X908965Y1587965D01*
X907146Y1589181D01*
X905000Y1589608D01*
X902854Y1589181D01*
X901035Y1587965D01*
X900029Y1586460D01*
X898888Y1586167D01*
X898530Y1586175D01*
X898221Y1586470D01*
Y1592339D01*
X898221Y1592339D01*
X898221Y1592339D01*
Y1768815D01*
X899068Y1769518D01*
X899287Y1769645D01*
X899380Y1769672D01*
X899997Y1769510D01*
X900164Y1769380D01*
X900309Y1769246D01*
X900785Y1768535D01*
X902604Y1767319D01*
X904750Y1766892D01*
X906896Y1767319D01*
X908715Y1768535D01*
X909931Y1770354D01*
X910358Y1772500D01*
X909931Y1774646D01*
X908715Y1776465D01*
X906896Y1777681D01*
X904750Y1778108D01*
X902604Y1777681D01*
X900785Y1776465D01*
X900309Y1775754D01*
X900164Y1775620D01*
X899997Y1775490D01*
X899380Y1775328D01*
X899287Y1775355D01*
X899069Y1775481D01*
X898221Y1776185D01*
Y1880249D01*
X898221Y1880249D01*
X898237Y1880274D01*
X898284Y1880386D01*
X898397Y1880433D01*
X898421Y1880450D01*
X958298Y1880450D01*
X959196Y1879552D01*
Y1862991D01*
X958035Y1862215D01*
X956819Y1860396D01*
X956392Y1858250D01*
X956819Y1856104D01*
X958035Y1854285D01*
X959377Y1853388D01*
X959529Y1852021D01*
X959491Y1851900D01*
X958319Y1850146D01*
X957892Y1848000D01*
X958319Y1845854D01*
X959535Y1844035D01*
X961354Y1842819D01*
X963500Y1842392D01*
X965646Y1842819D01*
X967465Y1844035D01*
X967945Y1844753D01*
X969285Y1845035D01*
X969464Y1844915D01*
X971104Y1843819D01*
X973250Y1843392D01*
X975396Y1843819D01*
X977215Y1845035D01*
X978431Y1846854D01*
X978858Y1849000D01*
X978431Y1851146D01*
X977215Y1852965D01*
X975396Y1854181D01*
X973250Y1854608D01*
X971104Y1854181D01*
X969285Y1852965D01*
X968805Y1852247D01*
X967465Y1851965D01*
X967286Y1852085D01*
X966123Y1852862D01*
X965971Y1854229D01*
X966009Y1854350D01*
X967181Y1856104D01*
X967608Y1858250D01*
X967181Y1860396D01*
X965965Y1862215D01*
X964804Y1862991D01*
Y1880450D01*
X979785D01*
X980827Y1879180D01*
X980642Y1878250D01*
X981069Y1876104D01*
X982285Y1874285D01*
X984104Y1873069D01*
X986250Y1872642D01*
X988396Y1873069D01*
X990215Y1874285D01*
X991431Y1876104D01*
X991858Y1878250D01*
X991673Y1879180D01*
X992715Y1880450D01*
X1074702D01*
X1075069Y1878604D01*
X1076285Y1876785D01*
X1078104Y1875569D01*
X1080250Y1875142D01*
X1082396Y1875569D01*
X1084215Y1876785D01*
X1085431Y1878604D01*
X1085798Y1880450D01*
X1097863D01*
X1098642Y1879500D01*
X1099069Y1877354D01*
X1100285Y1875535D01*
X1102104Y1874319D01*
X1104250Y1873892D01*
X1106396Y1874319D01*
X1108215Y1875535D01*
X1109431Y1877354D01*
X1109858Y1879500D01*
X1110637Y1880450D01*
X1159201D01*
X1159319Y1879854D01*
D02*
G37*
G36*
X721429Y2153028D02*
X663179Y2115278D01*
X581054Y2241778D01*
X641304Y2280278D01*
X721429Y2153028D01*
D02*
G37*
G36*
X1437196Y2240278D02*
X1355071Y2113778D01*
X1296821Y2151528D01*
X1376946Y2278778D01*
X1437196Y2240278D01*
D02*
G37*
G36*
X791101Y2090192D02*
X711054Y2038316D01*
X709816Y2038599D01*
X664326Y2113592D01*
X699417Y2136333D01*
X700659Y2136068D01*
X704431Y2130244D01*
X706711Y2131721D01*
X709757Y2127070D01*
X709494Y2125828D01*
X708429Y2125138D01*
X714410Y2115906D01*
X715468Y2116591D01*
X716014Y2116473D01*
X716819Y2115396D01*
X716392Y2113250D01*
X716819Y2111104D01*
X718035Y2109285D01*
X719854Y2108069D01*
X722000Y2107642D01*
X724146Y2108069D01*
X725965Y2109285D01*
X727181Y2111104D01*
X727608Y2113250D01*
X727181Y2115396D01*
X725965Y2117215D01*
X724146Y2118431D01*
X722000Y2118858D01*
X721773Y2118813D01*
X720931Y2120130D01*
X722803Y2121343D01*
X716822Y2130575D01*
X714956Y2129366D01*
X711911Y2134017D01*
X712173Y2135260D01*
X713663Y2136225D01*
X709401Y2142803D01*
X722538Y2151317D01*
X722813Y2151585D01*
X723093Y2151850D01*
X723099Y2151862D01*
X723109Y2151872D01*
X723260Y2152224D01*
X723418Y2152576D01*
X723418Y2152590D01*
X723423Y2152602D01*
X723429Y2152987D01*
X723439Y2153372D01*
X723434Y2153384D01*
X723434Y2153398D01*
X723292Y2153756D01*
X723155Y2154115D01*
X711982Y2171858D01*
X730500Y2183750D01*
X791101Y2090192D01*
D02*
G37*
G36*
X1307924Y2172989D02*
X1295095Y2152615D01*
X1294958Y2152255D01*
X1294816Y2151898D01*
X1294816Y2151884D01*
X1294811Y2151872D01*
X1294821Y2151486D01*
X1294827Y2151102D01*
X1294832Y2151090D01*
X1294832Y2151076D01*
X1294990Y2150724D01*
X1295141Y2150372D01*
X1295151Y2150362D01*
X1295157Y2150350D01*
X1295437Y2150085D01*
X1295712Y2149817D01*
X1328182Y2128774D01*
X1328851Y2127810D01*
X1328403Y2127118D01*
X1324229Y2120676D01*
X1326497Y2119207D01*
X1323235Y2114159D01*
X1321993Y2113892D01*
X1320910Y2114594D01*
X1314929Y2105362D01*
X1315192Y2105192D01*
X1314934Y2103846D01*
X1314104Y2103681D01*
X1312285Y2102465D01*
X1311069Y2100646D01*
X1310642Y2098500D01*
X1311069Y2096354D01*
X1312285Y2094535D01*
X1314104Y2093319D01*
X1316250Y2092892D01*
X1318396Y2093319D01*
X1320215Y2094535D01*
X1321431Y2096354D01*
X1321858Y2098500D01*
X1321661Y2099488D01*
X1322802Y2100262D01*
X1323322Y2099925D01*
X1329303Y2109157D01*
X1327454Y2110355D01*
X1330715Y2115403D01*
X1331957Y2115670D01*
X1333461Y2114695D01*
X1337634Y2121136D01*
X1339236Y2121611D01*
X1353962Y2112067D01*
X1353990Y2110742D01*
X1310684Y2039349D01*
X1309446Y2039066D01*
X1229399Y2090942D01*
X1290000Y2184500D01*
X1307924Y2172989D01*
D02*
G37*
G36*
X1211980Y1419000D02*
X1226780Y1345983D01*
X1225976Y1345000D01*
X1121500Y1345000D01*
Y1375535D01*
X1164965Y1419000D01*
X1211980Y1419000D01*
D02*
G37*
%LPC*%
G36*
X975389Y1576048D02*
X973633Y1575698D01*
X972145Y1574704D01*
X971150Y1573215D01*
X970801Y1571459D01*
X971150Y1569704D01*
X972145Y1568215D01*
X973633Y1567220D01*
X975389Y1566871D01*
X977145Y1567220D01*
X978634Y1568215D01*
X979628Y1569704D01*
X979977Y1571459D01*
X979628Y1573215D01*
X978634Y1574704D01*
X977145Y1575698D01*
X975389Y1576048D01*
D02*
G37*
G36*
X1005389D02*
X1003633Y1575698D01*
X1002145Y1574704D01*
X1001150Y1573215D01*
X1000801Y1571459D01*
X1001150Y1569704D01*
X1002145Y1568215D01*
X1003633Y1567220D01*
X1005389Y1566871D01*
X1007145Y1567220D01*
X1008634Y1568215D01*
X1009628Y1569704D01*
X1009977Y1571459D01*
X1009628Y1573215D01*
X1008634Y1574704D01*
X1007145Y1575698D01*
X1005389Y1576048D01*
D02*
G37*
G36*
X1085250Y1579108D02*
X1083104Y1578681D01*
X1081285Y1577465D01*
X1080069Y1575646D01*
X1079642Y1573500D01*
X1080069Y1571354D01*
X1081285Y1569535D01*
X1083104Y1568319D01*
X1085250Y1567892D01*
X1087396Y1568319D01*
X1089215Y1569535D01*
X1090431Y1571354D01*
X1090858Y1573500D01*
X1090431Y1575646D01*
X1089215Y1577465D01*
X1087396Y1578681D01*
X1085250Y1579108D01*
D02*
G37*
G36*
X1111500Y1573608D02*
X1109354Y1573181D01*
X1107535Y1571965D01*
X1106319Y1570146D01*
X1105892Y1568000D01*
X1106319Y1565854D01*
X1107535Y1564035D01*
X1109354Y1562819D01*
X1111500Y1562392D01*
X1113646Y1562819D01*
X1115465Y1564035D01*
X1116681Y1565854D01*
X1117108Y1568000D01*
X1116681Y1570146D01*
X1115465Y1571965D01*
X1113646Y1573181D01*
X1111500Y1573608D01*
D02*
G37*
G36*
X915389Y1576048D02*
X913633Y1575698D01*
X912145Y1574704D01*
X911150Y1573215D01*
X910801Y1571459D01*
X911150Y1569704D01*
X912145Y1568215D01*
X913633Y1567220D01*
X915389Y1566871D01*
X917145Y1567220D01*
X918634Y1568215D01*
X919628Y1569704D01*
X919977Y1571459D01*
X919628Y1573215D01*
X918634Y1574704D01*
X917145Y1575698D01*
X915389Y1576048D01*
D02*
G37*
G36*
X945389D02*
X943633Y1575698D01*
X942145Y1574704D01*
X941150Y1573215D01*
X940801Y1571459D01*
X941150Y1569704D01*
X942145Y1568215D01*
X943633Y1567220D01*
X945389Y1566871D01*
X947145Y1567220D01*
X948634Y1568215D01*
X949628Y1569704D01*
X949977Y1571459D01*
X949628Y1573215D01*
X948634Y1574704D01*
X947145Y1575698D01*
X945389Y1576048D01*
D02*
G37*
G36*
X930389Y1606048D02*
X928633Y1605698D01*
X927145Y1604704D01*
X926150Y1603215D01*
X925801Y1601459D01*
X926150Y1599704D01*
X927145Y1598215D01*
X928633Y1597220D01*
X930389Y1596871D01*
X932145Y1597220D01*
X933634Y1598215D01*
X934628Y1599704D01*
X934977Y1601459D01*
X934628Y1603215D01*
X933634Y1604704D01*
X932145Y1605698D01*
X930389Y1606048D01*
D02*
G37*
G36*
X960389D02*
X958633Y1605698D01*
X957145Y1604704D01*
X956150Y1603215D01*
X955801Y1601459D01*
X956150Y1599704D01*
X957145Y1598215D01*
X958633Y1597220D01*
X960389Y1596871D01*
X962145Y1597220D01*
X963634Y1598215D01*
X964628Y1599704D01*
X964977Y1601459D01*
X964628Y1603215D01*
X963634Y1604704D01*
X962145Y1605698D01*
X960389Y1606048D01*
D02*
G37*
G36*
X1085250Y1613608D02*
X1083104Y1613181D01*
X1081285Y1611965D01*
X1080069Y1610146D01*
X1079642Y1608000D01*
X1080069Y1605854D01*
X1081285Y1604035D01*
X1083104Y1602819D01*
X1085250Y1602392D01*
X1087396Y1602819D01*
X1089215Y1604035D01*
X1090431Y1605854D01*
X1090858Y1608000D01*
X1090431Y1610146D01*
X1089215Y1611965D01*
X1087396Y1613181D01*
X1085250Y1613608D01*
D02*
G37*
G36*
X1148250Y1879108D02*
X1146104Y1878681D01*
X1144285Y1877465D01*
X1143069Y1875646D01*
X1142642Y1873500D01*
X1143069Y1871354D01*
X1144285Y1869535D01*
X1146104Y1868319D01*
X1148250Y1867892D01*
X1150396Y1868319D01*
X1152215Y1869535D01*
X1153431Y1871354D01*
X1153858Y1873500D01*
X1153431Y1875646D01*
X1152215Y1877465D01*
X1150396Y1878681D01*
X1148250Y1879108D01*
D02*
G37*
G36*
X1065389Y1636048D02*
X1063633Y1635698D01*
X1062145Y1634704D01*
X1061150Y1633215D01*
X1060801Y1631459D01*
X1061150Y1629704D01*
X1062145Y1628215D01*
X1063633Y1627220D01*
X1065389Y1626871D01*
X1067145Y1627220D01*
X1068633Y1628215D01*
X1069628Y1629704D01*
X1069977Y1631459D01*
X1069628Y1633215D01*
X1068633Y1634704D01*
X1067145Y1635698D01*
X1065389Y1636048D01*
D02*
G37*
G36*
X945389Y1876047D02*
X943633Y1875698D01*
X942145Y1874704D01*
X941150Y1873215D01*
X940801Y1871459D01*
X941150Y1869703D01*
X942145Y1868215D01*
X943633Y1867220D01*
X945389Y1866871D01*
X947145Y1867220D01*
X948634Y1868215D01*
X949628Y1869703D01*
X949977Y1871459D01*
X949628Y1873215D01*
X948634Y1874704D01*
X947145Y1875698D01*
X945389Y1876047D01*
D02*
G37*
G36*
X915389Y1516048D02*
X913633Y1515698D01*
X912145Y1514704D01*
X911150Y1513215D01*
X910801Y1511459D01*
X911150Y1509704D01*
X912145Y1508215D01*
X913633Y1507220D01*
X915389Y1506871D01*
X917145Y1507220D01*
X918634Y1508215D01*
X919628Y1509704D01*
X919977Y1511459D01*
X919628Y1513215D01*
X918634Y1514704D01*
X917145Y1515698D01*
X915389Y1516048D01*
D02*
G37*
G36*
X1005389D02*
X1003633Y1515698D01*
X1002145Y1514704D01*
X1001150Y1513215D01*
X1000801Y1511459D01*
X1001150Y1509704D01*
X1002145Y1508215D01*
X1003633Y1507220D01*
X1005389Y1506871D01*
X1007145Y1507220D01*
X1008634Y1508215D01*
X1009628Y1509704D01*
X1009977Y1511459D01*
X1009628Y1513215D01*
X1008634Y1514704D01*
X1007145Y1515698D01*
X1005389Y1516048D01*
D02*
G37*
G36*
X1125389D02*
X1123633Y1515698D01*
X1122145Y1514704D01*
X1121150Y1513215D01*
X1120801Y1511459D01*
X1121150Y1509704D01*
X1122145Y1508215D01*
X1123633Y1507220D01*
X1125389Y1506871D01*
X1127145Y1507220D01*
X1128633Y1508215D01*
X1129628Y1509704D01*
X1129977Y1511459D01*
X1129628Y1513215D01*
X1128633Y1514704D01*
X1127145Y1515698D01*
X1125389Y1516048D01*
D02*
G37*
G36*
X930389Y1486048D02*
X928633Y1485698D01*
X927145Y1484704D01*
X926150Y1483215D01*
X925801Y1481459D01*
X926150Y1479704D01*
X927145Y1478215D01*
X928633Y1477220D01*
X930389Y1476871D01*
X932145Y1477220D01*
X933634Y1478215D01*
X934628Y1479704D01*
X934977Y1481459D01*
X934628Y1483215D01*
X933634Y1484704D01*
X932145Y1485698D01*
X930389Y1486048D01*
D02*
G37*
G36*
X1140389D02*
X1138633Y1485698D01*
X1137145Y1484704D01*
X1136150Y1483215D01*
X1135801Y1481459D01*
X1136150Y1479704D01*
X1137145Y1478215D01*
X1138633Y1477220D01*
X1140389Y1476871D01*
X1142145Y1477220D01*
X1143633Y1478215D01*
X1144628Y1479704D01*
X1144977Y1481459D01*
X1144628Y1483215D01*
X1143633Y1484704D01*
X1142145Y1485698D01*
X1140389Y1486048D01*
D02*
G37*
G36*
X1007998Y1495605D02*
X1005852Y1495178D01*
X1004033Y1493962D01*
X1002817Y1492143D01*
X1002390Y1489997D01*
X1002817Y1487851D01*
X1004033Y1486032D01*
X1005852Y1484816D01*
X1007998Y1484389D01*
X1010144Y1484816D01*
X1011963Y1486032D01*
X1013179Y1487851D01*
X1013606Y1489997D01*
X1013179Y1492143D01*
X1011963Y1493962D01*
X1010144Y1495178D01*
X1007998Y1495605D01*
D02*
G37*
G36*
X938750Y1527358D02*
X936604Y1526931D01*
X934785Y1525715D01*
X933569Y1523896D01*
X933142Y1521750D01*
X933569Y1519604D01*
X934785Y1517785D01*
X936604Y1516569D01*
X938750Y1516142D01*
X940896Y1516569D01*
X942715Y1517785D01*
X943931Y1519604D01*
X944358Y1521750D01*
X943931Y1523896D01*
X942715Y1525715D01*
X940896Y1526931D01*
X938750Y1527358D01*
D02*
G37*
G36*
X1020389Y1546048D02*
X1018633Y1545698D01*
X1017145Y1544704D01*
X1016150Y1543215D01*
X1015801Y1541459D01*
X1016150Y1539704D01*
X1017145Y1538215D01*
X1018633Y1537220D01*
X1020389Y1536871D01*
X1022145Y1537220D01*
X1023634Y1538215D01*
X1024628Y1539704D01*
X1024977Y1541459D01*
X1024628Y1543215D01*
X1023634Y1544704D01*
X1022145Y1545698D01*
X1020389Y1546048D01*
D02*
G37*
G36*
X1050389D02*
X1048633Y1545698D01*
X1047145Y1544704D01*
X1046150Y1543215D01*
X1045801Y1541459D01*
X1046150Y1539704D01*
X1047145Y1538215D01*
X1048633Y1537220D01*
X1050389Y1536871D01*
X1052145Y1537220D01*
X1053634Y1538215D01*
X1054628Y1539704D01*
X1054977Y1541459D01*
X1054628Y1543215D01*
X1053634Y1544704D01*
X1052145Y1545698D01*
X1050389Y1546048D01*
D02*
G37*
G36*
X1080389D02*
X1078633Y1545698D01*
X1077145Y1544704D01*
X1076150Y1543215D01*
X1075801Y1541459D01*
X1076150Y1539704D01*
X1077145Y1538215D01*
X1078633Y1537220D01*
X1080389Y1536871D01*
X1082145Y1537220D01*
X1083633Y1538215D01*
X1084628Y1539704D01*
X1084977Y1541459D01*
X1084628Y1543215D01*
X1083633Y1544704D01*
X1082145Y1545698D01*
X1080389Y1546048D01*
D02*
G37*
G36*
X930389D02*
X928633Y1545698D01*
X927145Y1544704D01*
X926150Y1543215D01*
X925801Y1541459D01*
X926150Y1539704D01*
X927145Y1538215D01*
X928633Y1537220D01*
X930389Y1536871D01*
X932145Y1537220D01*
X933634Y1538215D01*
X934628Y1539704D01*
X934977Y1541459D01*
X934628Y1543215D01*
X933634Y1544704D01*
X932145Y1545698D01*
X930389Y1546048D01*
D02*
G37*
G36*
X960389D02*
X958633Y1545698D01*
X957145Y1544704D01*
X956150Y1543215D01*
X955801Y1541459D01*
X956150Y1539704D01*
X957145Y1538215D01*
X958633Y1537220D01*
X960389Y1536871D01*
X962145Y1537220D01*
X963634Y1538215D01*
X964628Y1539704D01*
X964977Y1541459D01*
X964628Y1543215D01*
X963634Y1544704D01*
X962145Y1545698D01*
X960389Y1546048D01*
D02*
G37*
G36*
X990389D02*
X988633Y1545698D01*
X987145Y1544704D01*
X986150Y1543215D01*
X985801Y1541459D01*
X986150Y1539704D01*
X987145Y1538215D01*
X988633Y1537220D01*
X990389Y1536871D01*
X992145Y1537220D01*
X993634Y1538215D01*
X994628Y1539704D01*
X994977Y1541459D01*
X994628Y1543215D01*
X993634Y1544704D01*
X992145Y1545698D01*
X990389Y1546048D01*
D02*
G37*
G36*
X912250Y1802583D02*
X910592Y1802253D01*
X909186Y1801314D01*
X908247Y1799908D01*
X907917Y1798250D01*
X908247Y1796592D01*
X909186Y1795186D01*
X910592Y1794247D01*
X912250Y1793917D01*
X913908Y1794247D01*
X915314Y1795186D01*
X916253Y1796592D01*
X916583Y1798250D01*
X916253Y1799908D01*
X915314Y1801314D01*
X913908Y1802253D01*
X912250Y1802583D01*
D02*
G37*
G36*
X952000Y1801833D02*
X950342Y1801503D01*
X948936Y1800564D01*
X947997Y1799158D01*
X947667Y1797500D01*
X947997Y1795842D01*
X948936Y1794436D01*
X950342Y1793497D01*
X952000Y1793167D01*
X953658Y1793497D01*
X955064Y1794436D01*
X956003Y1795842D01*
X956333Y1797500D01*
X956003Y1799158D01*
X955064Y1800564D01*
X953658Y1801503D01*
X952000Y1801833D01*
D02*
G37*
G36*
X1104750Y1836333D02*
X1103092Y1836003D01*
X1101686Y1835064D01*
X1100747Y1833658D01*
X1100417Y1832000D01*
X1100747Y1830342D01*
X1101686Y1828936D01*
X1103092Y1827997D01*
X1104750Y1827667D01*
X1106408Y1827997D01*
X1107814Y1828936D01*
X1108753Y1830342D01*
X1109083Y1832000D01*
X1108753Y1833658D01*
X1107814Y1835064D01*
X1106408Y1836003D01*
X1104750Y1836333D01*
D02*
G37*
G36*
X937250Y1802583D02*
X935592Y1802253D01*
X934186Y1801314D01*
X933247Y1799908D01*
X932917Y1798250D01*
X933247Y1796592D01*
X934186Y1795186D01*
X935592Y1794247D01*
X937250Y1793917D01*
X938908Y1794247D01*
X940314Y1795186D01*
X941253Y1796592D01*
X941583Y1798250D01*
X941253Y1799908D01*
X940314Y1801314D01*
X938908Y1802253D01*
X937250Y1802583D01*
D02*
G37*
G36*
X1048500Y1793608D02*
X1046354Y1793181D01*
X1044535Y1791965D01*
X1043319Y1790146D01*
X1042892Y1788000D01*
X1043319Y1785854D01*
X1044535Y1784035D01*
X1046354Y1782819D01*
X1048500Y1782392D01*
X1050646Y1782819D01*
X1052465Y1784035D01*
X1053681Y1785854D01*
X1054108Y1788000D01*
X1053681Y1790146D01*
X1052465Y1791965D01*
X1050646Y1793181D01*
X1048500Y1793608D01*
D02*
G37*
G36*
X953250Y1788083D02*
X951592Y1787753D01*
X950186Y1786814D01*
X949247Y1785408D01*
X948917Y1783750D01*
X949247Y1782092D01*
X950186Y1780686D01*
X951592Y1779747D01*
X953250Y1779417D01*
X954908Y1779747D01*
X956314Y1780686D01*
X957253Y1782092D01*
X957583Y1783750D01*
X957253Y1785408D01*
X956314Y1786814D01*
X954908Y1787753D01*
X953250Y1788083D01*
D02*
G37*
G36*
X913750Y1787583D02*
X912092Y1787253D01*
X910686Y1786314D01*
X909747Y1784908D01*
X909417Y1783250D01*
X909747Y1781592D01*
X910686Y1780186D01*
X912092Y1779247D01*
X913750Y1778917D01*
X915408Y1779247D01*
X916814Y1780186D01*
X917753Y1781592D01*
X918083Y1783250D01*
X917753Y1784908D01*
X916814Y1786314D01*
X915408Y1787253D01*
X913750Y1787583D01*
D02*
G37*
G36*
X1028500Y1793608D02*
X1026354Y1793181D01*
X1024535Y1791965D01*
X1023319Y1790146D01*
X1022892Y1788000D01*
X1023319Y1785854D01*
X1024535Y1784035D01*
X1026354Y1782819D01*
X1028500Y1782392D01*
X1030646Y1782819D01*
X1032465Y1784035D01*
X1033681Y1785854D01*
X1034108Y1788000D01*
X1033681Y1790146D01*
X1032465Y1791965D01*
X1030646Y1793181D01*
X1028500Y1793608D01*
D02*
G37*
G36*
X1008500D02*
X1006354Y1793181D01*
X1004535Y1791965D01*
X1003319Y1790146D01*
X1002892Y1788000D01*
X1003319Y1785854D01*
X1004535Y1784035D01*
X1006354Y1782819D01*
X1008500Y1782392D01*
X1010646Y1782819D01*
X1012465Y1784035D01*
X1013681Y1785854D01*
X1014108Y1788000D01*
X1013681Y1790146D01*
X1012465Y1791965D01*
X1010646Y1793181D01*
X1008500Y1793608D01*
D02*
G37*
G36*
X1028500Y1813608D02*
X1026354Y1813181D01*
X1024535Y1811965D01*
X1023319Y1810146D01*
X1022892Y1808000D01*
X1023319Y1805854D01*
X1024535Y1804035D01*
X1026354Y1802819D01*
X1028500Y1802392D01*
X1030646Y1802819D01*
X1032465Y1804035D01*
X1033681Y1805854D01*
X1034108Y1808000D01*
X1033681Y1810146D01*
X1032465Y1811965D01*
X1030646Y1813181D01*
X1028500Y1813608D01*
D02*
G37*
G36*
X955500Y1826333D02*
X953842Y1826003D01*
X952436Y1825064D01*
X951497Y1823658D01*
X951167Y1822000D01*
X951497Y1820342D01*
X952436Y1818936D01*
X953842Y1817997D01*
X955500Y1817667D01*
X957158Y1817997D01*
X958564Y1818936D01*
X959503Y1820342D01*
X959833Y1822000D01*
X959503Y1823658D01*
X958564Y1825064D01*
X957158Y1826003D01*
X955500Y1826333D01*
D02*
G37*
G36*
X909000Y1824333D02*
X907342Y1824003D01*
X905936Y1823064D01*
X904997Y1821658D01*
X904667Y1820000D01*
X904997Y1818342D01*
X905936Y1816936D01*
X907342Y1815997D01*
X909000Y1815667D01*
X910658Y1815997D01*
X912064Y1816936D01*
X913003Y1818342D01*
X913333Y1820000D01*
X913003Y1821658D01*
X912064Y1823064D01*
X910658Y1824003D01*
X909000Y1824333D01*
D02*
G37*
G36*
X1048500Y1833608D02*
X1046354Y1833181D01*
X1044535Y1831965D01*
X1043319Y1830146D01*
X1042892Y1828000D01*
X1043319Y1825854D01*
X1044535Y1824035D01*
X1046354Y1822819D01*
X1048500Y1822392D01*
X1050646Y1822819D01*
X1052465Y1824035D01*
X1053681Y1825854D01*
X1054108Y1828000D01*
X1053681Y1830146D01*
X1052465Y1831965D01*
X1050646Y1833181D01*
X1048500Y1833608D01*
D02*
G37*
G36*
X979750Y1826333D02*
X978092Y1826003D01*
X976686Y1825064D01*
X975747Y1823658D01*
X975417Y1822000D01*
X975747Y1820342D01*
X976686Y1818936D01*
X978092Y1817997D01*
X979750Y1817667D01*
X981408Y1817997D01*
X982814Y1818936D01*
X983753Y1820342D01*
X984083Y1822000D01*
X983753Y1823658D01*
X982814Y1825064D01*
X981408Y1826003D01*
X979750Y1826333D01*
D02*
G37*
G36*
X1111304Y1824697D02*
X1109158Y1824270D01*
X1107339Y1823054D01*
X1106123Y1821235D01*
X1105696Y1819089D01*
X1106123Y1816943D01*
X1107339Y1815123D01*
X1109158Y1813908D01*
X1111304Y1813481D01*
X1113450Y1813908D01*
X1115269Y1815123D01*
X1116485Y1816943D01*
X1116912Y1819089D01*
X1116485Y1821235D01*
X1115269Y1823054D01*
X1113450Y1824270D01*
X1111304Y1824697D01*
D02*
G37*
G36*
X921250Y1811083D02*
X919592Y1810753D01*
X918186Y1809814D01*
X917247Y1808408D01*
X916917Y1806750D01*
X917247Y1805092D01*
X918186Y1803686D01*
X919592Y1802747D01*
X921250Y1802417D01*
X922908Y1802747D01*
X924314Y1803686D01*
X925253Y1805092D01*
X925583Y1806750D01*
X925253Y1808408D01*
X924314Y1809814D01*
X922908Y1810753D01*
X921250Y1811083D01*
D02*
G37*
G36*
X1048500Y1813608D02*
X1046354Y1813181D01*
X1044535Y1811965D01*
X1043319Y1810146D01*
X1042892Y1808000D01*
X1043319Y1805854D01*
X1044535Y1804035D01*
X1046354Y1802819D01*
X1048500Y1802392D01*
X1050646Y1802819D01*
X1052465Y1804035D01*
X1053681Y1805854D01*
X1054108Y1808000D01*
X1053681Y1810146D01*
X1052465Y1811965D01*
X1050646Y1813181D01*
X1048500Y1813608D01*
D02*
G37*
G36*
X949000Y1813333D02*
X947342Y1813003D01*
X945936Y1812064D01*
X944997Y1810658D01*
X944667Y1809000D01*
X944997Y1807342D01*
X945936Y1805936D01*
X947342Y1804997D01*
X949000Y1804667D01*
X950658Y1804997D01*
X952064Y1805936D01*
X953003Y1807342D01*
X953333Y1809000D01*
X953003Y1810658D01*
X952064Y1812064D01*
X950658Y1813003D01*
X949000Y1813333D01*
D02*
G37*
G36*
X966750Y1813083D02*
X965092Y1812753D01*
X963686Y1811814D01*
X962747Y1810408D01*
X962417Y1808750D01*
X962747Y1807092D01*
X963686Y1805686D01*
X964472Y1805161D01*
X964633Y1805053D01*
X964137Y1803857D01*
X963944Y1803896D01*
X963000Y1804083D01*
X961342Y1803753D01*
X959936Y1802814D01*
X958997Y1801408D01*
X958667Y1799750D01*
X958997Y1798092D01*
X959936Y1796686D01*
X961342Y1795747D01*
X963000Y1795417D01*
X964658Y1795747D01*
X966064Y1796686D01*
X967003Y1798092D01*
X967333Y1799750D01*
X967003Y1801408D01*
X966064Y1802814D01*
X965278Y1803339D01*
X965117Y1803447D01*
X965613Y1804643D01*
X965806Y1804604D01*
X966750Y1804417D01*
X968408Y1804747D01*
X969814Y1805686D01*
X970753Y1807092D01*
X971083Y1808750D01*
X970753Y1810408D01*
X969814Y1811814D01*
X968408Y1812753D01*
X966750Y1813083D01*
D02*
G37*
G36*
X1140389Y1846047D02*
X1138633Y1845698D01*
X1137145Y1844704D01*
X1136150Y1843215D01*
X1135801Y1841459D01*
X1136150Y1839703D01*
X1137145Y1838215D01*
X1138633Y1837220D01*
X1140389Y1836871D01*
X1142145Y1837220D01*
X1143633Y1838215D01*
X1144628Y1839703D01*
X1144977Y1841459D01*
X1144628Y1843215D01*
X1143633Y1844704D01*
X1142145Y1845698D01*
X1140389Y1846047D01*
D02*
G37*
G36*
X948250Y1744108D02*
X946104Y1743681D01*
X944285Y1742465D01*
X943069Y1740646D01*
X942642Y1738500D01*
X943069Y1736354D01*
X944285Y1734535D01*
X946104Y1733319D01*
X948250Y1732892D01*
X950396Y1733319D01*
X952215Y1734535D01*
X953431Y1736354D01*
X953858Y1738500D01*
X953431Y1740646D01*
X952215Y1742465D01*
X950396Y1743681D01*
X948250Y1744108D01*
D02*
G37*
G36*
X915389Y1756047D02*
X913633Y1755698D01*
X912145Y1754704D01*
X911150Y1753215D01*
X910801Y1751459D01*
X911150Y1749704D01*
X912145Y1748215D01*
X913633Y1747220D01*
X915389Y1746871D01*
X917145Y1747220D01*
X918634Y1748215D01*
X919628Y1749704D01*
X919977Y1751459D01*
X919628Y1753215D01*
X918634Y1754704D01*
X917145Y1755698D01*
X915389Y1756047D01*
D02*
G37*
G36*
X1115750Y1750858D02*
X1113604Y1750431D01*
X1111785Y1749215D01*
X1110569Y1747396D01*
X1110142Y1745250D01*
X1110569Y1743104D01*
X1111785Y1741285D01*
X1113604Y1740069D01*
X1115750Y1739642D01*
X1117896Y1740069D01*
X1119715Y1741285D01*
X1120931Y1743104D01*
X1121358Y1745250D01*
X1120931Y1747396D01*
X1119715Y1749215D01*
X1117896Y1750431D01*
X1115750Y1750858D01*
D02*
G37*
G36*
X1140389Y1666047D02*
X1138633Y1665698D01*
X1137145Y1664704D01*
X1136150Y1663215D01*
X1135801Y1661459D01*
X1136150Y1659704D01*
X1137145Y1658215D01*
X1138633Y1657220D01*
X1140389Y1656871D01*
X1142145Y1657220D01*
X1143633Y1658215D01*
X1144628Y1659704D01*
X1144977Y1661459D01*
X1144628Y1663215D01*
X1143633Y1664704D01*
X1142145Y1665698D01*
X1140389Y1666047D01*
D02*
G37*
G36*
X915389Y1876047D02*
X913633Y1875698D01*
X912145Y1874704D01*
X911150Y1873215D01*
X910801Y1871459D01*
X911150Y1869703D01*
X912145Y1868215D01*
X913633Y1867220D01*
X915389Y1866871D01*
X917145Y1867220D01*
X918634Y1868215D01*
X919628Y1869703D01*
X919977Y1871459D01*
X919628Y1873215D01*
X918634Y1874704D01*
X917145Y1875698D01*
X915389Y1876047D01*
D02*
G37*
G36*
X1111500Y1653108D02*
X1109354Y1652681D01*
X1107535Y1651465D01*
X1106319Y1649646D01*
X1105892Y1647500D01*
X1106319Y1645354D01*
X1107535Y1643535D01*
X1109354Y1642319D01*
X1111500Y1641892D01*
X1113646Y1642319D01*
X1115465Y1643535D01*
X1116681Y1645354D01*
X1117108Y1647500D01*
X1116681Y1649646D01*
X1115465Y1651465D01*
X1113646Y1652681D01*
X1111500Y1653108D01*
D02*
G37*
G36*
X1050389Y1666047D02*
X1048633Y1665698D01*
X1047145Y1664704D01*
X1046150Y1663215D01*
X1045801Y1661459D01*
X1046150Y1659704D01*
X1047145Y1658215D01*
X1048633Y1657220D01*
X1050389Y1656871D01*
X1052145Y1657220D01*
X1053634Y1658215D01*
X1054628Y1659704D01*
X1054977Y1661459D01*
X1054628Y1663215D01*
X1053634Y1664704D01*
X1052145Y1665698D01*
X1050389Y1666047D01*
D02*
G37*
G36*
X960389D02*
X958633Y1665698D01*
X957145Y1664704D01*
X956150Y1663215D01*
X955801Y1661459D01*
X956150Y1659704D01*
X957145Y1658215D01*
X958633Y1657220D01*
X960389Y1656871D01*
X962145Y1657220D01*
X963634Y1658215D01*
X964628Y1659704D01*
X964977Y1661459D01*
X964628Y1663215D01*
X963634Y1664704D01*
X962145Y1665698D01*
X960389Y1666047D01*
D02*
G37*
G36*
X1125389Y1756047D02*
X1123633Y1755698D01*
X1122145Y1754704D01*
X1121150Y1753215D01*
X1120801Y1751459D01*
X1121150Y1749704D01*
X1122145Y1748215D01*
X1123633Y1747220D01*
X1125389Y1746871D01*
X1127145Y1747220D01*
X1128633Y1748215D01*
X1129628Y1749704D01*
X1129977Y1751459D01*
X1129628Y1753215D01*
X1128633Y1754704D01*
X1127145Y1755698D01*
X1125389Y1756047D01*
D02*
G37*
G36*
X936750Y1785358D02*
X934604Y1784931D01*
X932785Y1783715D01*
X931569Y1781896D01*
X931142Y1779750D01*
X931569Y1777604D01*
X932785Y1775785D01*
X934604Y1774569D01*
X936750Y1774142D01*
X938896Y1774569D01*
X940715Y1775785D01*
X941931Y1777604D01*
X942358Y1779750D01*
X941931Y1781896D01*
X940715Y1783715D01*
X938896Y1784931D01*
X936750Y1785358D01*
D02*
G37*
G36*
X1110750Y1782858D02*
X1108604Y1782431D01*
X1106785Y1781215D01*
X1105569Y1779396D01*
X1105142Y1777250D01*
X1105569Y1775104D01*
X1106785Y1773285D01*
X1108604Y1772069D01*
X1110750Y1771642D01*
X1112896Y1772069D01*
X1114715Y1773285D01*
X1115931Y1775104D01*
X1116358Y1777250D01*
X1115931Y1779396D01*
X1114715Y1781215D01*
X1112896Y1782431D01*
X1110750Y1782858D01*
D02*
G37*
G36*
X1140389Y1786047D02*
X1138633Y1785698D01*
X1137145Y1784704D01*
X1136150Y1783215D01*
X1135801Y1781459D01*
X1136150Y1779704D01*
X1137145Y1778215D01*
X1138633Y1777220D01*
X1140389Y1776871D01*
X1142145Y1777220D01*
X1143633Y1778215D01*
X1144628Y1779704D01*
X1144977Y1781459D01*
X1144628Y1783215D01*
X1143633Y1784704D01*
X1142145Y1785698D01*
X1140389Y1786047D01*
D02*
G37*
G36*
X1076250Y1840083D02*
X1074592Y1839753D01*
X1073186Y1838814D01*
X1072247Y1837408D01*
X1071917Y1835750D01*
X1072247Y1834092D01*
X1073186Y1832686D01*
X1074592Y1831747D01*
X1076250Y1831417D01*
X1077908Y1831747D01*
X1079314Y1832686D01*
X1080253Y1834092D01*
X1080583Y1835750D01*
X1080253Y1837408D01*
X1079314Y1838814D01*
X1077908Y1839753D01*
X1076250Y1840083D01*
D02*
G37*
G36*
X1091750Y1842333D02*
X1090092Y1842003D01*
X1088686Y1841064D01*
X1087747Y1839658D01*
X1087417Y1838000D01*
X1087747Y1836342D01*
X1088686Y1834936D01*
X1090092Y1833997D01*
X1091750Y1833667D01*
X1093408Y1833997D01*
X1094814Y1834936D01*
X1095753Y1836342D01*
X1096083Y1838000D01*
X1095753Y1839658D01*
X1094814Y1841064D01*
X1093408Y1842003D01*
X1091750Y1842333D01*
D02*
G37*
G36*
X930389Y1846047D02*
X928633Y1845698D01*
X927145Y1844704D01*
X926150Y1843215D01*
X925801Y1841459D01*
X926150Y1839703D01*
X927145Y1838215D01*
X928633Y1837220D01*
X930389Y1836871D01*
X932145Y1837220D01*
X933634Y1838215D01*
X934628Y1839703D01*
X934977Y1841459D01*
X934628Y1843215D01*
X933634Y1844704D01*
X932145Y1845698D01*
X930389Y1846047D01*
D02*
G37*
G36*
X947000Y1758358D02*
X944854Y1757931D01*
X943035Y1756715D01*
X941819Y1754896D01*
X941392Y1752750D01*
X941819Y1750604D01*
X943035Y1748785D01*
X944854Y1747569D01*
X947000Y1747142D01*
X949146Y1747569D01*
X950965Y1748785D01*
X952181Y1750604D01*
X952608Y1752750D01*
X952181Y1754896D01*
X950965Y1756715D01*
X949146Y1757931D01*
X947000Y1758358D01*
D02*
G37*
G36*
X1104250Y1768858D02*
X1102104Y1768431D01*
X1100285Y1767215D01*
X1099069Y1765396D01*
X1098642Y1763250D01*
X1099069Y1761104D01*
X1100285Y1759285D01*
X1102104Y1758069D01*
X1104250Y1757642D01*
X1106396Y1758069D01*
X1108215Y1759285D01*
X1109431Y1761104D01*
X1109858Y1763250D01*
X1109431Y1765396D01*
X1108215Y1767215D01*
X1106396Y1768431D01*
X1104250Y1768858D01*
D02*
G37*
G36*
X1123250Y1843583D02*
X1121592Y1843253D01*
X1120186Y1842314D01*
X1119247Y1840908D01*
X1118917Y1839250D01*
X1119247Y1837592D01*
X1120186Y1836186D01*
X1121592Y1835247D01*
X1123250Y1834917D01*
X1124908Y1835247D01*
X1126314Y1836186D01*
X1127253Y1837592D01*
X1127583Y1839250D01*
X1127253Y1840908D01*
X1126314Y1842314D01*
X1124908Y1843253D01*
X1123250Y1843583D01*
D02*
G37*
%LPD*%
D10*
X605000Y2400000D02*
G03*
X605000Y2400000I-45000J0D01*
G01*
X1505000D02*
G03*
X1505000Y2400000I-45000J0D01*
G01*
Y1000000D02*
G03*
X1505000Y1000000I-45000J0D01*
G01*
X605000D02*
G03*
X605000Y1000000I-45000J0D01*
G01*
D12*
X1110500Y1357500D02*
D03*
Y1368500D02*
D03*
D39*
X1142779Y1587500D02*
X1143000D01*
X997000Y1733279D02*
X1142779Y1587500D01*
X1185911Y1597840D02*
X1195000Y1588750D01*
X1142339Y1597840D02*
X1185911D01*
X1110500Y1368500D02*
X1111000Y1369000D01*
Y1386000D01*
X1091000Y1721000D02*
X1119321D01*
X1052500Y1759500D02*
X1091000Y1721000D01*
X1052500Y1759500D02*
Y1766500D01*
X1046003Y1760836D02*
X1090839Y1716000D01*
X1046389Y1755500D02*
X1090889Y1711000D01*
X1036750Y1755500D02*
X1046389D01*
X1090839Y1716000D02*
X1103500D01*
X1090889Y1711000D02*
X1105571D01*
X1070250Y1754000D02*
X1099750Y1724500D01*
X1069250Y1764750D02*
Y1825500D01*
X1070250Y1754000D02*
Y1763750D01*
X1069250Y1764750D02*
X1070250Y1763750D01*
X987500Y1731250D02*
X1028000Y1690750D01*
Y1681000D02*
Y1690750D01*
X1031750Y1764000D02*
X1035500Y1767750D01*
X1031750Y1746500D02*
Y1764000D01*
X1026550Y1746750D02*
X1143525Y1629775D01*
X1031750Y1746500D02*
X1149000Y1629250D01*
X1026550Y1746750D02*
Y1757336D01*
X1016250Y1747151D02*
Y1757000D01*
X1021250Y1747101D02*
Y1750500D01*
X1016250Y1747151D02*
X1048925Y1714476D01*
X1021250Y1747101D02*
X1052425Y1715925D01*
X1010000Y1730179D02*
X1090590Y1649589D01*
X1010000Y1730179D02*
Y1747250D01*
X1004299Y1730930D02*
X1141200Y1594029D01*
X1004299Y1730930D02*
Y1754336D01*
X998250Y1747929D02*
Y1764500D01*
X997000Y1746679D02*
X998250Y1747929D01*
X997000Y1733279D02*
Y1746679D01*
X993500Y1731830D02*
Y1734250D01*
X988500Y1739250D02*
X993500Y1734250D01*
Y1731830D02*
X1034051Y1691279D01*
X1040179Y1856750D02*
X1046000D01*
X1036000Y1852571D02*
X1040179Y1856750D01*
X958750Y1773649D02*
X1036000Y1850899D01*
Y1852571D01*
X1047250Y1845500D02*
X1054250Y1852500D01*
X1046289Y1842000D02*
X1063000D01*
X1045039Y1840750D02*
X1046289Y1842000D01*
X1041149Y1840750D02*
X1045039D01*
X977250Y1776850D02*
X1041149Y1840750D01*
X977250Y1719750D02*
Y1776850D01*
X1044839Y1845500D02*
X1047250D01*
X1043589Y1844250D02*
X1044839Y1845500D01*
X1039700Y1844250D02*
X1043589D01*
X972250Y1776800D02*
X1039700Y1844250D01*
X972250Y1729250D02*
Y1776800D01*
X965750Y1775250D02*
X1041000Y1850500D01*
X965750Y1714750D02*
Y1775250D01*
Y1710929D02*
Y1714750D01*
Y1710929D02*
X976929Y1699750D01*
X1004000D01*
X1004250Y1700000D01*
X994000Y1668500D02*
X1001000D01*
X1020750Y1688250D01*
Y1693050D01*
X987550Y1726250D02*
X1020750Y1693050D01*
X985429Y1726250D02*
X987550D01*
X982500Y1729179D02*
X985429Y1726250D01*
X982500Y1729179D02*
Y1740321D01*
X992179Y1750000D01*
X993250D01*
X977250Y1719750D02*
X981250Y1715750D01*
X1110500Y1346750D02*
Y1357500D01*
X959000Y1720500D02*
Y1773399D01*
X958750Y1773649D02*
X959000Y1773399D01*
X1034051Y1686332D02*
Y1691279D01*
X1047250Y1698000D02*
X1057000Y1688250D01*
X1047250Y1698000D02*
Y1708321D01*
X1057000Y1688250D02*
X1063500D01*
X1141200Y1594029D02*
X1146971D01*
X1183500Y1609000D02*
Y1640000D01*
Y1609000D02*
X1187500Y1605000D01*
X1146971Y1594029D02*
X1152000Y1589000D01*
Y1566000D02*
Y1589000D01*
X1143525Y1619975D02*
Y1629775D01*
X1090590Y1649589D02*
X1142339Y1597840D01*
X1047250Y1708321D02*
X1048925Y1709996D01*
Y1714476D01*
X1052250Y1706250D02*
X1052425Y1706425D01*
Y1715925D01*
X1125071Y1715250D02*
X1132000D01*
X1119321Y1721000D02*
X1125071Y1715250D01*
X1110071Y1715500D02*
X1117750D01*
X1105571Y1711000D02*
X1110071Y1715500D01*
X1159000Y1887500D02*
X1164500Y1882000D01*
X965750Y1887500D02*
X1159000D01*
X962000Y1883750D02*
X965750Y1887500D01*
X962000Y1858250D02*
Y1883750D01*
X1316250Y2098500D02*
X1322116Y2107260D01*
X715616Y2123240D02*
X722000Y2113250D01*
X736094Y1246248D02*
X745884Y1260490D01*
X1264988Y1234484D02*
X1265763Y1233199D01*
X706737Y2136801D02*
X715616Y2123240D01*
X1322116Y2107260D02*
X1331156Y2121252D01*
X1252250Y1255000D02*
X1257134Y1247510D01*
X1257785Y1245436D02*
X1265763Y1233199D01*
X745884Y1260490D02*
X750250Y1267250D01*
X1113500Y1677000D02*
Y1689679D01*
X1137000Y1713179D01*
Y1717321D01*
X1129821Y1724500D02*
X1137000Y1717321D01*
X1099750Y1724500D02*
X1129821D01*
D41*
X895000Y1598000D02*
X904500D01*
X881000Y1584000D02*
X895000Y1598000D01*
X875500Y1584000D02*
X881000D01*
X1022700Y1379500D02*
X1040200Y1362000D01*
X1080250D01*
D43*
X623250Y2443500D02*
G03*
X484250Y2363500I-67341J-43750D01*
G01*
X846279Y2099019D02*
G03*
X902000Y2070000I53619J34952D01*
G01*
X770000Y1887238D02*
G03*
X755890Y1943326I-118485J12D01*
G01*
X1260856Y1936902D02*
G03*
X1250250Y1894741I78458J-42152D01*
G01*
X1118000Y2070000D02*
G03*
X1173721Y2099019I2102J63971D01*
G01*
X1535750Y2363500D02*
G03*
X1396750Y2443500I-71658J36250D01*
G01*
X755906Y1456698D02*
G03*
X770016Y1512786I-104375J56076D01*
G01*
X901797Y1330073D02*
G03*
X846366Y1301205I-2091J-63639D01*
G01*
X484266Y1036525D02*
G03*
X623266Y956525I71658J-36250D01*
G01*
X1250250Y1513011D02*
G03*
X1264360Y1456924I118485J-12D01*
G01*
X1174358Y1300137D02*
G03*
X1117036Y1329989I-55160J-35956D01*
G01*
X1397000Y956750D02*
G03*
X1536000Y1036750I67341J43750D01*
G01*
X623250Y2443500D02*
X846238Y2098992D01*
X484250Y2363500D02*
X754899Y1945332D01*
X755957Y1943363D01*
X1265101Y1945332D02*
X1535750Y2363500D01*
X1173762Y2098992D02*
X1396750Y2443500D01*
X754915Y1454692D02*
X755973Y1456661D01*
X484266Y1036525D02*
X754915Y1454692D01*
X623266Y956525D02*
X846254Y1301032D01*
X1264293Y1456887D02*
X1265351Y1454918D01*
X1536000Y1036750D01*
X1174741Y1300131D02*
X1397000Y956750D01*
X902000Y2070000D02*
X1118000D01*
X770000Y1887238D02*
X770016D01*
X770000Y1513250D02*
X770016D01*
Y1887238D01*
X1250250Y1513011D02*
Y1894750D01*
X899707Y1330025D02*
X1117036D01*
X1260636Y1937022D02*
X1265101Y1945332D01*
D44*
X997300Y1379500D02*
D03*
D45*
X1022700D02*
D03*
D46*
X841650Y1813650D02*
D03*
X790850Y1762850D02*
D03*
X841650D02*
D03*
X790850Y1813650D02*
D03*
D47*
X816250Y1788250D02*
D03*
D48*
X1143000Y1587500D02*
D03*
X1195000Y1588750D02*
D03*
X1036750Y1755500D02*
D03*
X1045750Y1761000D02*
D03*
X1028000Y1681000D02*
D03*
X1026550Y1757336D02*
D03*
X1016250Y1757000D02*
D03*
X1021250Y1750500D02*
D03*
X1072750Y1693250D02*
D03*
X1004299Y1754336D02*
D03*
X998250Y1764500D02*
D03*
X1010000Y1747250D02*
D03*
X1046000Y1856750D02*
D03*
X1054250Y1852500D02*
D03*
X980750Y1706250D02*
D03*
X1110500Y1347000D02*
D03*
X1004500Y1699750D02*
D03*
X994000Y1668500D02*
D03*
X987500Y1731250D02*
D03*
X993250Y1750000D02*
D03*
X965750Y1714750D02*
D03*
X1123250Y1839250D02*
D03*
X1091750Y1838000D02*
D03*
X1076250Y1835750D02*
D03*
X1067000Y1850750D02*
D03*
X1104750Y1832000D02*
D03*
X972250Y1729000D02*
D03*
X959000Y1720500D02*
D03*
X981250Y1715750D02*
D03*
X988500Y1739250D02*
D03*
X1034051Y1686332D02*
D03*
X1063500Y1688250D02*
D03*
X1183500Y1640000D02*
D03*
X1187500Y1605000D02*
D03*
X1152000Y1566000D02*
D03*
X1149000Y1629250D02*
D03*
X1143525Y1619975D02*
D03*
X1052250Y1706250D02*
D03*
X1052500Y1766500D02*
D03*
X1117750Y1715500D02*
D03*
X1132000Y1715250D02*
D03*
X1103500Y1716000D02*
D03*
X1069250Y1825500D02*
D03*
X1035500Y1767750D02*
D03*
X1063000Y1842000D02*
D03*
X1041000Y1850500D02*
D03*
X976750Y1799000D02*
D03*
X963000Y1799750D02*
D03*
X953250Y1783750D02*
D03*
X952000Y1797500D02*
D03*
X937250Y1798250D02*
D03*
X912250D02*
D03*
X913750Y1783250D02*
D03*
X909000Y1820000D02*
D03*
X955500Y1822000D02*
D03*
X979750D02*
D03*
X921250Y1806750D02*
D03*
X949000Y1809000D02*
D03*
X966750Y1808750D02*
D03*
X1072500Y1717500D02*
D03*
X995500Y1707250D02*
D03*
X1065440Y1700000D02*
D03*
X1092500Y1695250D02*
D03*
X1113500Y1677000D02*
D03*
D49*
X1048500Y1828000D02*
D03*
Y1808000D02*
D03*
Y1788000D02*
D03*
X1008500D02*
D03*
X1028500D02*
D03*
X1028500Y1808000D02*
D03*
X1490390Y2341460D02*
D03*
X1465390Y2291460D02*
D03*
Y1091460D02*
D03*
X1415390Y2291460D02*
D03*
Y2191460D02*
D03*
Y1191460D02*
D03*
X1440390Y1141460D02*
D03*
X1415390Y1091460D02*
D03*
X1390390Y2341460D02*
D03*
Y1241460D02*
D03*
X1365390Y1191460D02*
D03*
Y1091460D02*
D03*
X1390390Y1041460D02*
D03*
X1340390Y2341460D02*
D03*
X1315390Y2291460D02*
D03*
Y2191460D02*
D03*
X1340390Y1241460D02*
D03*
X1290390Y2241460D02*
D03*
X1265390Y2191460D02*
D03*
X1290390Y2041460D02*
D03*
X1265390Y1991460D02*
D03*
Y1391460D02*
D03*
X1290390Y1341460D02*
D03*
X1215390Y2091460D02*
D03*
X1240390Y2041460D02*
D03*
X1215390Y1991460D02*
D03*
X1240390Y1941460D02*
D03*
X1215390Y1791460D02*
D03*
Y1691460D02*
D03*
Y1491460D02*
D03*
X1240390Y1441460D02*
D03*
Y1341460D02*
D03*
X1215390Y1291460D02*
D03*
X1165390Y1991460D02*
D03*
X1190390Y1941460D02*
D03*
Y1841460D02*
D03*
Y1441460D02*
D03*
X1140390Y2041460D02*
D03*
X1115390Y1991460D02*
D03*
X1140390Y1941460D02*
D03*
X1090390Y2041460D02*
D03*
X1065390Y1991460D02*
D03*
X1040390Y2041460D02*
D03*
X1015390Y1991460D02*
D03*
X1040390Y1941460D02*
D03*
Y1441460D02*
D03*
Y1341460D02*
D03*
X990390Y2041460D02*
D03*
X965390Y1991460D02*
D03*
X990390Y1941460D02*
D03*
Y1441460D02*
D03*
X965390Y1391460D02*
D03*
X990390Y1341460D02*
D03*
X940390Y2041460D02*
D03*
X915390Y1991460D02*
D03*
X940390Y1941460D02*
D03*
X915390Y1391460D02*
D03*
X940390Y1341460D02*
D03*
X890390Y2041460D02*
D03*
X865390Y1991460D02*
D03*
X890390Y1941460D02*
D03*
Y1441460D02*
D03*
X865390Y1391460D02*
D03*
X890390Y1341460D02*
D03*
X815390Y2091460D02*
D03*
X840390Y2041460D02*
D03*
X815390Y1991460D02*
D03*
X840390Y1841460D02*
D03*
Y1741460D02*
D03*
X815390Y1691460D02*
D03*
X840390Y1641460D02*
D03*
X815390Y1591460D02*
D03*
X840390Y1541460D02*
D03*
X815390Y1491460D02*
D03*
X840390Y1441460D02*
D03*
Y1341460D02*
D03*
X815390Y1291460D02*
D03*
X765390Y2191460D02*
D03*
X790390Y2041460D02*
D03*
X765390Y1991460D02*
D03*
X790390Y1941460D02*
D03*
Y1841460D02*
D03*
Y1741460D02*
D03*
Y1641460D02*
D03*
Y1541460D02*
D03*
Y1441460D02*
D03*
X765390Y1391460D02*
D03*
X790390Y1341460D02*
D03*
X740390Y2241460D02*
D03*
Y1341460D02*
D03*
X690390D02*
D03*
X665390Y1291460D02*
D03*
Y1191460D02*
D03*
Y1091460D02*
D03*
X640390Y2341460D02*
D03*
X615390Y2291460D02*
D03*
X640390Y1241460D02*
D03*
X615390Y1191460D02*
D03*
Y1091460D02*
D03*
X640390Y1041460D02*
D03*
X590390Y2341460D02*
D03*
X565390Y2291460D02*
D03*
X590390Y1141460D02*
D03*
X565390Y1091460D02*
D03*
X1111000Y1386000D02*
D03*
X1011000Y1669250D02*
D03*
X1148250Y1873500D02*
D03*
X1104250Y1879500D02*
D03*
X1080250Y1880750D02*
D03*
X949250Y1764750D02*
D03*
X1060000Y1484000D02*
D03*
X1051750D02*
D03*
X1043750D02*
D03*
X1068000D02*
D03*
X973500Y1685000D02*
D03*
X875500Y1584000D02*
D03*
X1148556Y1608828D02*
D03*
X1315750Y2076500D02*
D03*
X1278750Y2076250D02*
D03*
X1275500Y2119500D02*
D03*
X1291500Y2142500D02*
D03*
X1301000Y2115500D02*
D03*
X1344500Y2106750D02*
D03*
X1305500Y2047500D02*
D03*
X1253000Y2083000D02*
D03*
X1163500Y1409000D02*
D03*
X1174750Y1414750D02*
D03*
X1185000Y1414500D02*
D03*
X1184750Y1403750D02*
D03*
X1174500Y1404000D02*
D03*
X1199000Y1360500D02*
D03*
X1207750D02*
D03*
X1216750Y1360750D02*
D03*
Y1352000D02*
D03*
X1207750D02*
D03*
X1154250Y1376750D02*
D03*
X1164750Y1376250D02*
D03*
X1165000Y1386500D02*
D03*
X1154250Y1386250D02*
D03*
X1144250D02*
D03*
X636750Y2302750D02*
D03*
X1066750Y1860500D02*
D03*
X1208250Y1619250D02*
D03*
X1095500Y1745000D02*
D03*
X1078500Y1818250D02*
D03*
X1164500Y1882000D02*
D03*
X697250Y2172500D02*
D03*
X677250Y2212500D02*
D03*
X687250Y2192500D02*
D03*
X657250Y2212500D02*
D03*
X667250Y2152500D02*
D03*
X657250Y2132500D02*
D03*
X637250Y2172500D02*
D03*
X617250Y2212500D02*
D03*
X627250Y2192500D02*
D03*
X607250Y2232500D02*
D03*
X707250Y2079750D02*
D03*
X732000Y2085250D02*
D03*
X757750Y2097000D02*
D03*
X742250Y2126250D02*
D03*
X726000Y2164500D02*
D03*
X783000Y2091000D02*
D03*
X711000Y2049750D02*
D03*
X673000Y2110250D02*
D03*
X693500Y2110000D02*
D03*
X1316250Y2098500D02*
D03*
X722000Y2113250D02*
D03*
X986250Y1878250D02*
D03*
X1106750Y1913000D02*
D03*
X1084000Y1910500D02*
D03*
X905000Y1584000D02*
D03*
X838000Y1604750D02*
D03*
X868000Y1595250D02*
D03*
X1425392Y2231462D02*
D03*
X1415392Y2211462D02*
D03*
X1405392Y2231462D02*
D03*
X1395392Y2211462D02*
D03*
X1355392D02*
D03*
Y2131461D02*
D03*
X1345392Y2191462D02*
D03*
Y2151462D02*
D03*
X1325392Y2191462D02*
D03*
X1315392Y2171462D02*
D03*
X1367571Y2147778D02*
D03*
X651929Y2148028D02*
D03*
X1335392Y1171461D02*
D03*
X1325392Y1191461D02*
D03*
X1315392Y1131461D02*
D03*
X1325392Y1111461D02*
D03*
X1295392Y1211461D02*
D03*
X1305392Y1151461D02*
D03*
X1295392Y1131461D02*
D03*
X1275391Y1171461D02*
D03*
X1285392Y1151461D02*
D03*
X1255391Y1211461D02*
D03*
X1265391Y1191461D02*
D03*
X1310750Y1215250D02*
D03*
X710000Y1215000D02*
D03*
X765391Y1191461D02*
D03*
X735391Y1211461D02*
D03*
X745391Y1191461D02*
D03*
X735391Y1171461D02*
D03*
X725391Y1151461D02*
D03*
X715391Y1131461D02*
D03*
X705391Y1111461D02*
D03*
X695391Y1091461D02*
D03*
X675391Y1171461D02*
D03*
X685391Y1111461D02*
D03*
X665391Y1151461D02*
D03*
X969750Y1595250D02*
D03*
X978500Y1587000D02*
D03*
X969750Y1578500D02*
D03*
X560000Y2445000D02*
D03*
X515000Y2400000D02*
D03*
X605000D02*
D03*
X560000Y2355000D02*
D03*
X527500Y2430000D02*
D03*
X592500Y2427500D02*
D03*
Y2370000D02*
D03*
X530000Y2367500D02*
D03*
X1460000Y2445000D02*
D03*
X1415000Y2400000D02*
D03*
X1505000D02*
D03*
X1460000Y2355000D02*
D03*
X1427500Y2430000D02*
D03*
X1492500Y2427500D02*
D03*
Y2370000D02*
D03*
X1430000Y2367500D02*
D03*
X1460000Y1045000D02*
D03*
X1415000Y1000000D02*
D03*
X1505000D02*
D03*
X1460000Y955000D02*
D03*
X1427500Y1030000D02*
D03*
X1492500Y1027500D02*
D03*
Y970000D02*
D03*
X1430000Y967500D02*
D03*
X530000D02*
D03*
X592500Y970000D02*
D03*
Y1027500D02*
D03*
X527500Y1030000D02*
D03*
X560000Y955000D02*
D03*
X605000Y1000000D02*
D03*
X515000D02*
D03*
X560000Y1045000D02*
D03*
X1007998Y1489997D02*
D03*
X1023000Y1427000D02*
D03*
X1100000Y1484000D02*
D03*
X1092000D02*
D03*
X1084000D02*
D03*
X1076000D02*
D03*
X1085250Y1573500D02*
D03*
X1111500Y1647500D02*
D03*
Y1607500D02*
D03*
X1085250Y1608000D02*
D03*
X1111500Y1568000D02*
D03*
X938750Y1521750D02*
D03*
X1161500Y1450500D02*
D03*
X928000Y1379500D02*
D03*
X1278750Y1258500D02*
D03*
X1244500Y1290250D02*
D03*
X1279000Y1314000D02*
D03*
X1266000Y1305500D02*
D03*
X1277750Y1283750D02*
D03*
X1255250Y1270500D02*
D03*
X1314750Y1249000D02*
D03*
X1293250Y1268250D02*
D03*
X1252250Y1255000D02*
D03*
X1213250Y1269500D02*
D03*
X1230250Y1246250D02*
D03*
X1242750Y1225250D02*
D03*
X1196250Y1771500D02*
D03*
X1189500Y1515000D02*
D03*
X1165500Y1515000D02*
D03*
X750250Y1267250D02*
D03*
X778884Y1224990D02*
D03*
X791384Y1245990D02*
D03*
X808384Y1269240D02*
D03*
X728384Y1267990D02*
D03*
X706884Y1248740D02*
D03*
X766384Y1270240D02*
D03*
X743884Y1283490D02*
D03*
X755634Y1305240D02*
D03*
X742634Y1313740D02*
D03*
X779750Y1287000D02*
D03*
X1196250Y1685250D02*
D03*
X1196250Y1658750D02*
D03*
X1196500Y1745000D02*
D03*
X1196750Y1829500D02*
D03*
X1196500Y1856000D02*
D03*
X1111250Y1807000D02*
D03*
X1110000Y1789750D02*
D03*
X1110750Y1777250D02*
D03*
X1115750Y1745250D02*
D03*
X1104250Y1763250D02*
D03*
X1064000Y1757250D02*
D03*
X951750Y1842000D02*
D03*
X963500Y1848000D02*
D03*
X973250Y1849000D02*
D03*
X904750Y1772500D02*
D03*
X936750Y1779750D02*
D03*
X971750Y1877250D02*
D03*
X947000Y1752750D02*
D03*
X948250Y1738500D02*
D03*
X1111304Y1819089D02*
D03*
X962000Y1858250D02*
D03*
X1061500Y1729250D02*
D03*
D50*
X1140389Y1841459D02*
D03*
Y1781459D02*
D03*
X1125389Y1751459D02*
D03*
X1140389Y1721459D02*
D03*
Y1661459D02*
D03*
X1125389Y1511459D02*
D03*
X1140389Y1481459D02*
D03*
X1065389Y1631459D02*
D03*
X1080389Y1541459D02*
D03*
X1050389Y1661459D02*
D03*
Y1541459D02*
D03*
X1005389Y1571459D02*
D03*
X1020389Y1541459D02*
D03*
X1005389Y1511459D02*
D03*
X975389Y1571459D02*
D03*
X990389Y1541459D02*
D03*
X945389Y1871459D02*
D03*
X960389Y1661459D02*
D03*
Y1601459D02*
D03*
X945389Y1571459D02*
D03*
X960389Y1541459D02*
D03*
X915389Y1871459D02*
D03*
X930389Y1841459D02*
D03*
X915389Y1751459D02*
D03*
X930389Y1601459D02*
D03*
X915389Y1571459D02*
D03*
X930389Y1541459D02*
D03*
X915389Y1511459D02*
D03*
X930389Y1481459D02*
D03*
D51*
X1289897Y1295427D02*
D03*
X1307103Y1306573D02*
D03*
X748397Y2144427D02*
D03*
X765603Y2155573D02*
D03*
D52*
X1303397Y1275427D02*
D03*
X1320603Y1286573D02*
D03*
D53*
X1331366Y1270490D02*
D03*
X1322134Y1264510D02*
D03*
X1340116Y1257490D02*
D03*
X1330884Y1251510D02*
D03*
X1266366Y1253490D02*
D03*
X1257134Y1247510D02*
D03*
D54*
X732353Y1297677D02*
D03*
X715147Y1308823D02*
D03*
X718603Y1277177D02*
D03*
X701397Y1288323D02*
D03*
X1271853Y2140927D02*
D03*
X1254647Y2152073D02*
D03*
X1258603Y2121427D02*
D03*
X1241397Y2132573D02*
D03*
D55*
X681134Y1256740D02*
D03*
X690366Y1250760D02*
D03*
X690384Y1270240D02*
D03*
X699616Y1264260D02*
D03*
X1269634Y2167490D02*
D03*
X1278866Y2161510D02*
D03*
X1279134Y2180490D02*
D03*
X1288366Y2174510D02*
D03*
X1312884Y2113240D02*
D03*
X1322116Y2107260D02*
D03*
D56*
X760647Y2125927D02*
D03*
X777853Y2137073D02*
D03*
D57*
X749616Y2169240D02*
D03*
X740384Y2163260D02*
D03*
X740616Y2182490D02*
D03*
X731384Y2176510D02*
D03*
D58*
X1361785Y1220236D02*
D03*
X1304715Y1183264D02*
D03*
D59*
X658964Y1219986D02*
D03*
X716036Y1183014D02*
D03*
X1304465Y2216736D02*
D03*
X1361535Y2179764D02*
D03*
D60*
X715035Y2216986D02*
D03*
X657964Y2180014D02*
D03*
D61*
X755116Y1254510D02*
D03*
X745884Y1260490D02*
D03*
D62*
X706384Y2117260D02*
D03*
X715616Y2123240D02*
D03*
D63*
X1291071Y1238274D02*
D03*
X1285906Y1246248D02*
D03*
X1265763Y1233199D02*
D03*
X1296237Y1230301D02*
D03*
X1270929Y1225226D02*
D03*
X681429Y2131726D02*
D03*
X686594Y2123752D02*
D03*
X706737Y2136801D02*
D03*
X676264Y2139699D02*
D03*
X701571Y2144774D02*
D03*
D64*
X1276094Y1217252D02*
D03*
X696406Y2152748D02*
D03*
D65*
X751071Y1225226D02*
D03*
X756236Y1233199D02*
D03*
X736094Y1246248D02*
D03*
X745906Y1217252D02*
D03*
X730929Y1238274D02*
D03*
X1316179Y2142274D02*
D03*
X1311013Y2134301D02*
D03*
X1331156Y2121252D02*
D03*
X1321344Y2150248D02*
D03*
X1336321Y2129226D02*
D03*
D66*
X725763Y1230301D02*
D03*
X1341487Y2137199D02*
D03*
D67*
X1080250Y1362000D02*
D03*
X1140250D02*
D03*
D68*
X634166Y2239534D02*
D03*
X676130Y2266719D02*
D03*
X1343870Y1133281D02*
D03*
X1385834Y1160466D02*
D03*
D69*
Y2239534D02*
D03*
X1343870Y2266719D02*
D03*
X676130Y1133281D02*
D03*
X634166Y1160466D02*
D03*
M02*
