G04 Layer_Color=8388736*
%FSLAX44Y44*%
%MOMM*%
G71*
G01*
G75*
%ADD43C,0.2540*%
%ADD71C,0.5000*%
%ADD73R,1.0760X0.6260*%
%ADD74R,0.3760X0.6760*%
%ADD75R,5.4760X5.4760*%
%ADD76R,0.3760X0.7260*%
%ADD77R,0.7260X0.3760*%
%ADD78R,1.0760X1.6260*%
%ADD79R,0.7760X0.6760*%
%ADD80R,0.9260X0.8260*%
G04:AMPARAMS|DCode=81|XSize=0.926mm|YSize=0.826mm|CornerRadius=0.2255mm|HoleSize=0mm|Usage=FLASHONLY|Rotation=0.000|XOffset=0mm|YOffset=0mm|HoleType=Round|Shape=RoundedRectangle|*
%AMROUNDEDRECTD81*
21,1,0.9260,0.3750,0,0,0.0*
21,1,0.4750,0.8260,0,0,0.0*
1,1,0.4510,0.2375,-0.1875*
1,1,0.4510,-0.2375,-0.1875*
1,1,0.4510,-0.2375,0.1875*
1,1,0.4510,0.2375,0.1875*
%
%ADD81ROUNDEDRECTD81*%
%ADD82R,1.6760X0.7760*%
%ADD83R,0.8760X0.9760*%
%ADD84R,0.4260X0.4260*%
%ADD85R,0.3260X0.5510*%
%ADD86R,0.5510X0.3260*%
%ADD87R,0.7760X0.5760*%
%ADD88R,0.6760X0.7760*%
%ADD89R,1.1760X1.3760*%
%ADD90C,2.0760*%
%ADD91R,0.3760X0.3510*%
%ADD92R,0.3510X0.3760*%
%ADD93R,6.3760X2.2260*%
%ADD94O,2.4760X0.8260*%
%ADD95R,2.4760X0.8260*%
%ADD96R,2.2560X2.0760*%
%ADD97R,1.2960X1.3260*%
%ADD98R,1.0760X1.5260*%
%ADD99R,1.5260X1.0760*%
%ADD100C,2.0760*%
%ADD101C,2.2760*%
%ADD102C,0.0760*%
%ADD103R,1.8760X1.8760*%
%ADD104C,1.8760*%
%ADD105C,0.7760*%
%ADD106C,0.5760*%
D43*
X1397000Y956750D02*
G03*
X1536000Y1036750I67341J43750D01*
G01*
X1174358Y1300137D02*
G03*
X1117036Y1329989I-55160J-35956D01*
G01*
X1250250Y1513011D02*
G03*
X1264360Y1456924I118485J-12D01*
G01*
X484266Y1036525D02*
G03*
X623266Y956525I71658J-36250D01*
G01*
X901797Y1330073D02*
G03*
X846366Y1301205I-2091J-63639D01*
G01*
X755906Y1456698D02*
G03*
X770016Y1512786I-104375J56076D01*
G01*
X1535750Y2363500D02*
G03*
X1396750Y2443500I-71658J36250D01*
G01*
X1118000Y2070000D02*
G03*
X1173721Y2099019I2102J63971D01*
G01*
X1260856Y1936902D02*
G03*
X1250250Y1894741I78458J-42152D01*
G01*
X770000Y1887238D02*
G03*
X755890Y1943326I-118485J12D01*
G01*
X846279Y2099019D02*
G03*
X902000Y2070000I53619J34952D01*
G01*
X623250Y2443500D02*
G03*
X484250Y2363500I-67341J-43750D01*
G01*
X1260636Y1937022D02*
X1265101Y1945332D01*
X899707Y1330025D02*
X1117036D01*
X1250250Y1513011D02*
Y1894750D01*
X770016Y1513250D02*
Y1887238D01*
X770000Y1513250D02*
X770016D01*
X770000Y1887238D02*
X770016D01*
X902000Y2070000D02*
X1118000D01*
X1174741Y1300131D02*
X1397000Y956750D01*
X1265351Y1454918D02*
X1536000Y1036750D01*
X1264293Y1456887D02*
X1265351Y1454918D01*
X623266Y956525D02*
X846254Y1301032D01*
X484266Y1036525D02*
X754915Y1454692D01*
X755973Y1456661D01*
X1173762Y2098992D02*
X1396750Y2443500D01*
X1265101Y1945332D02*
X1535750Y2363500D01*
X754899Y1945332D02*
X755957Y1943363D01*
X484250Y2363500D02*
X754899Y1945332D01*
X623250Y2443500D02*
X846238Y2098992D01*
D71*
X612500Y2400000D02*
G03*
X612500Y2400000I-52500J0D01*
G01*
X1512500D02*
G03*
X1512500Y2400000I-52500J0D01*
G01*
Y1000000D02*
G03*
X1512500Y1000000I-52500J0D01*
G01*
X612250Y999750D02*
G03*
X612250Y999750I-52500J0D01*
G01*
D73*
X995500Y1578500D02*
D03*
Y1587000D02*
D03*
Y1595500D02*
D03*
X1024500D02*
D03*
Y1587000D02*
D03*
Y1578500D02*
D03*
D74*
X1172000Y1541750D02*
D03*
X1165500D02*
D03*
X1172000Y1522750D02*
D03*
X1165500D02*
D03*
X1159000Y1541750D02*
D03*
Y1522750D02*
D03*
X1196000Y1541750D02*
D03*
X1189500D02*
D03*
X1196000Y1522750D02*
D03*
X1189500D02*
D03*
X1183000Y1541750D02*
D03*
Y1522750D02*
D03*
X897500Y1616500D02*
D03*
X891000D02*
D03*
X897500Y1597500D02*
D03*
X891000D02*
D03*
X884500Y1616500D02*
D03*
Y1597500D02*
D03*
D75*
X1028500Y1808000D02*
D03*
D76*
X1021000Y1774250D02*
D03*
X1041000Y1841750D02*
D03*
X1011000Y1774250D02*
D03*
X1006000D02*
D03*
X1001000Y1841750D02*
D03*
X1056000D02*
D03*
X1051000D02*
D03*
X1046000D02*
D03*
X1016000Y1774250D02*
D03*
X1031000Y1841750D02*
D03*
X1036000Y1774250D02*
D03*
X1026000Y1841750D02*
D03*
Y1774250D02*
D03*
X1036000Y1841750D02*
D03*
X1031000Y1774250D02*
D03*
X1016000Y1841750D02*
D03*
X1046000Y1774250D02*
D03*
X1051000D02*
D03*
X1056000D02*
D03*
X1001000D02*
D03*
X1006000Y1841750D02*
D03*
X1011000D02*
D03*
X1041000Y1774250D02*
D03*
X1021000Y1841750D02*
D03*
D77*
X994750Y1810500D02*
D03*
Y1815500D02*
D03*
Y1795500D02*
D03*
X1062250Y1790500D02*
D03*
X994750Y1785500D02*
D03*
Y1780500D02*
D03*
X1062250Y1835500D02*
D03*
Y1830500D02*
D03*
Y1825500D02*
D03*
Y1820500D02*
D03*
Y1800500D02*
D03*
Y1805500D02*
D03*
X994750D02*
D03*
Y1800500D02*
D03*
Y1820500D02*
D03*
Y1825500D02*
D03*
Y1830500D02*
D03*
Y1835500D02*
D03*
X1062250Y1780500D02*
D03*
Y1785500D02*
D03*
X994750Y1790500D02*
D03*
X1062250Y1795500D02*
D03*
Y1815500D02*
D03*
Y1810500D02*
D03*
D78*
X1196250Y1645750D02*
D03*
Y1698250D02*
D03*
X1164250D02*
D03*
Y1645750D02*
D03*
X1196250Y1816750D02*
D03*
Y1869250D02*
D03*
X1164250D02*
D03*
Y1816750D02*
D03*
X1196250Y1731750D02*
D03*
Y1784250D02*
D03*
X1164250D02*
D03*
Y1731750D02*
D03*
D79*
X871750Y1604750D02*
D03*
Y1615750D02*
D03*
X971750Y1858250D02*
D03*
Y1869250D02*
D03*
X857250Y1615750D02*
D03*
Y1604750D02*
D03*
X913000Y1609500D02*
D03*
Y1598500D02*
D03*
X1111500Y1558500D02*
D03*
Y1547500D02*
D03*
Y1637500D02*
D03*
Y1626500D02*
D03*
Y1598500D02*
D03*
Y1587500D02*
D03*
X1132000Y1708000D02*
D03*
Y1697000D02*
D03*
X1103500Y1708000D02*
D03*
Y1697000D02*
D03*
X1117750Y1708000D02*
D03*
Y1697000D02*
D03*
X1041000Y1748250D02*
D03*
Y1737250D02*
D03*
X977750Y1830000D02*
D03*
Y1841000D02*
D03*
X963500Y1830000D02*
D03*
Y1841000D02*
D03*
X1055000Y1737250D02*
D03*
Y1748250D02*
D03*
X1069250Y1737500D02*
D03*
Y1748500D02*
D03*
X1100750Y1778750D02*
D03*
Y1789750D02*
D03*
X1086250Y1778750D02*
D03*
Y1789750D02*
D03*
X1100750Y1818000D02*
D03*
Y1807000D02*
D03*
X1086500Y1818000D02*
D03*
Y1807000D02*
D03*
X904750Y1780500D02*
D03*
Y1791500D02*
D03*
X944750Y1791000D02*
D03*
Y1780000D02*
D03*
X973500Y1693500D02*
D03*
Y1704500D02*
D03*
X987500Y1693500D02*
D03*
Y1704500D02*
D03*
X1087000Y1711750D02*
D03*
Y1700750D02*
D03*
X1072500Y1711750D02*
D03*
Y1700750D02*
D03*
X1123250Y1807000D02*
D03*
Y1818000D02*
D03*
X1064000Y1890750D02*
D03*
Y1879750D02*
D03*
X1021250Y1890750D02*
D03*
Y1879750D02*
D03*
X1049750Y1890750D02*
D03*
Y1879750D02*
D03*
X1035500Y1890750D02*
D03*
Y1879750D02*
D03*
D80*
X986750Y1869000D02*
D03*
X1000250Y1858500D02*
D03*
Y1869000D02*
D03*
D81*
X986750Y1858500D02*
D03*
D82*
X1084000Y1846750D02*
D03*
X1107000Y1901750D02*
D03*
Y1846750D02*
D03*
X1084000Y1901750D02*
D03*
D83*
X1096250Y1568000D02*
D03*
Y1549000D02*
D03*
X1076250Y1558500D02*
D03*
X1096250Y1647000D02*
D03*
Y1628000D02*
D03*
X1076250Y1637500D02*
D03*
X1096250Y1608000D02*
D03*
Y1589000D02*
D03*
X1076250Y1598500D02*
D03*
D84*
X1019750Y1707250D02*
D03*
Y1692750D02*
D03*
X1000250Y1707250D02*
D03*
Y1692750D02*
D03*
X1013250Y1707250D02*
D03*
Y1692750D02*
D03*
X1006750Y1707250D02*
D03*
Y1692750D02*
D03*
D85*
X1057500Y1711625D02*
D03*
X1052500D02*
D03*
X1047500D02*
D03*
X1042500D02*
D03*
Y1688380D02*
D03*
X1047500D02*
D03*
X1052500D02*
D03*
X1057500D02*
D03*
D86*
X1040875Y1705000D02*
D03*
Y1695000D02*
D03*
Y1700000D02*
D03*
X1059130D02*
D03*
Y1695000D02*
D03*
Y1705000D02*
D03*
D87*
X1000000Y1499000D02*
D03*
Y1489500D02*
D03*
Y1480000D02*
D03*
X1026000Y1499000D02*
D03*
Y1480000D02*
D03*
D88*
X897250Y1584000D02*
D03*
X886250D02*
D03*
X902500Y1633000D02*
D03*
X913500D02*
D03*
X930252Y1791002D02*
D03*
X919252D02*
D03*
X940252Y1813502D02*
D03*
X929252D02*
D03*
X972000Y1776750D02*
D03*
X961000D02*
D03*
X967250Y1738500D02*
D03*
X956250D02*
D03*
X967250Y1752750D02*
D03*
X956250D02*
D03*
X1097250Y1763250D02*
D03*
X1086250D02*
D03*
X1001750Y1680250D02*
D03*
X1012750D02*
D03*
X1059250Y1675250D02*
D03*
X1048250D02*
D03*
X959002Y1791252D02*
D03*
X970002D02*
D03*
D89*
X1042500Y1564000D02*
D03*
X1058500D02*
D03*
X1042500Y1608000D02*
D03*
X1058500D02*
D03*
X1042500Y1586000D02*
D03*
X1058500D02*
D03*
D90*
X910000Y1701000D02*
D03*
X900750Y1672500D02*
D03*
X936250Y1669500D02*
D03*
X910000Y1725500D02*
D03*
X1005500Y1652250D02*
D03*
X1033750Y1657500D02*
D03*
X1138250Y1741750D02*
D03*
X1088250Y1674000D02*
D03*
X1019750Y1736250D02*
D03*
X975000Y1662500D02*
D03*
X1078000Y1436750D02*
D03*
X1067500Y1379500D02*
D03*
X930750Y1440750D02*
D03*
X952500Y1379500D02*
D03*
X1140500Y1452000D02*
D03*
X1188750Y2006750D02*
D03*
X819250Y1405000D02*
D03*
X1201250Y1403500D02*
D03*
X796250Y2009000D02*
D03*
D91*
X951750Y1829625D02*
D03*
Y1834905D02*
D03*
D92*
X971875Y1764750D02*
D03*
X966595D02*
D03*
D93*
X1071000Y1468250D02*
D03*
Y1509750D02*
D03*
D94*
X1208250Y1608149D02*
D03*
X1169250Y1582750D02*
D03*
Y1595449D02*
D03*
X1208250Y1595149D02*
D03*
X1169250Y1570050D02*
D03*
Y1557351D02*
D03*
X1208250D02*
D03*
Y1570050D02*
D03*
Y1582750D02*
D03*
D95*
X1169250Y1608149D02*
D03*
D96*
X969000Y1490500D02*
D03*
Y1452500D02*
D03*
D97*
X1000500Y1426750D02*
D03*
X1000498Y1456250D02*
D03*
D98*
X1086000Y1745250D02*
D03*
X1106500D02*
D03*
X952750Y1521500D02*
D03*
X973250D02*
D03*
D99*
X886750Y1792250D02*
D03*
Y1812750D02*
D03*
X1023000Y1460750D02*
D03*
Y1440250D02*
D03*
D100*
X816250Y1788250D02*
D03*
D101*
X790850Y1813650D02*
D03*
X841650Y1762850D02*
D03*
X790850D02*
D03*
X841650Y1813650D02*
D03*
D102*
X1460000Y1000000D02*
D03*
X560000D02*
D03*
X1460000Y2400000D02*
D03*
X560000D02*
D03*
D103*
X1022700Y1379500D02*
D03*
D104*
X997300D02*
D03*
D105*
X665391Y1151461D02*
D03*
X685391Y1111461D02*
D03*
X675391Y1171461D02*
D03*
X695391Y1091461D02*
D03*
X705391Y1111461D02*
D03*
X715391Y1131461D02*
D03*
X725391Y1151461D02*
D03*
X735391Y1171461D02*
D03*
X745391Y1191461D02*
D03*
X735391Y1211461D02*
D03*
X765391Y1191461D02*
D03*
X1265391D02*
D03*
X1255391Y1211461D02*
D03*
X1285392Y1151461D02*
D03*
X1275391Y1171461D02*
D03*
X1295392Y1131461D02*
D03*
X1305392Y1151461D02*
D03*
X1295392Y1211461D02*
D03*
X1325392Y1111461D02*
D03*
X1315392Y1131461D02*
D03*
X1325392Y1191461D02*
D03*
X1335392Y1171461D02*
D03*
X1315392Y2171462D02*
D03*
X1325392Y2191462D02*
D03*
X1345392Y2151462D02*
D03*
Y2191462D02*
D03*
X1355392Y2131461D02*
D03*
Y2211462D02*
D03*
X1395392D02*
D03*
X1405392Y2231462D02*
D03*
X1415392Y2211462D02*
D03*
X1425392Y2231462D02*
D03*
X607250Y2232500D02*
D03*
X627250Y2192500D02*
D03*
X617250Y2212500D02*
D03*
X637250Y2172500D02*
D03*
X657250Y2132500D02*
D03*
X667250Y2152500D02*
D03*
X657250Y2212500D02*
D03*
X687250Y2192500D02*
D03*
X677250Y2212500D02*
D03*
X697250Y2172500D02*
D03*
X565390Y1091460D02*
D03*
X590390Y1141460D02*
D03*
X565390Y2291460D02*
D03*
X590390Y2341460D02*
D03*
X640390Y1041460D02*
D03*
X615390Y1091460D02*
D03*
Y1191460D02*
D03*
X640390Y1241460D02*
D03*
X615390Y2291460D02*
D03*
X640390Y2341460D02*
D03*
X665390Y1091460D02*
D03*
Y1191460D02*
D03*
Y1291460D02*
D03*
X690390Y1341460D02*
D03*
X740390D02*
D03*
Y2241460D02*
D03*
X790390Y1341460D02*
D03*
X765390Y1391460D02*
D03*
X790390Y1441460D02*
D03*
Y1541460D02*
D03*
Y1641460D02*
D03*
Y1741460D02*
D03*
Y1841460D02*
D03*
Y1941460D02*
D03*
X765390Y1991460D02*
D03*
X790390Y2041460D02*
D03*
X765390Y2191460D02*
D03*
X815390Y1291460D02*
D03*
X840390Y1341460D02*
D03*
Y1441460D02*
D03*
X815390Y1491460D02*
D03*
X840390Y1541460D02*
D03*
X815390Y1591460D02*
D03*
X840390Y1641460D02*
D03*
X815390Y1691460D02*
D03*
X840390Y1741460D02*
D03*
Y1841460D02*
D03*
X815390Y1991460D02*
D03*
X840390Y2041460D02*
D03*
X815390Y2091460D02*
D03*
X890390Y1341460D02*
D03*
X865390Y1391460D02*
D03*
X890390Y1441460D02*
D03*
Y1941460D02*
D03*
X865390Y1991460D02*
D03*
X890390Y2041460D02*
D03*
X940390Y1341460D02*
D03*
X915390Y1391460D02*
D03*
X940390Y1941460D02*
D03*
X915390Y1991460D02*
D03*
X940390Y2041460D02*
D03*
X990390Y1341460D02*
D03*
X965390Y1391460D02*
D03*
X990390Y1441460D02*
D03*
Y1941460D02*
D03*
X965390Y1991460D02*
D03*
X990390Y2041460D02*
D03*
X1040390Y1341460D02*
D03*
Y1441460D02*
D03*
Y1941460D02*
D03*
X1015390Y1991460D02*
D03*
X1040390Y2041460D02*
D03*
X1065390Y1991460D02*
D03*
X1090390Y2041460D02*
D03*
X1140390Y1941460D02*
D03*
X1115390Y1991460D02*
D03*
X1140390Y2041460D02*
D03*
X1190390Y1441460D02*
D03*
Y1841460D02*
D03*
Y1941460D02*
D03*
X1165390Y1991460D02*
D03*
X1215390Y1291460D02*
D03*
X1240390Y1341460D02*
D03*
Y1441460D02*
D03*
X1215390Y1491460D02*
D03*
Y1691460D02*
D03*
Y1791460D02*
D03*
X1240390Y1941460D02*
D03*
X1215390Y1991460D02*
D03*
X1240390Y2041460D02*
D03*
X1215390Y2091460D02*
D03*
X1290390Y1341460D02*
D03*
X1265390Y1391460D02*
D03*
Y1991460D02*
D03*
X1290390Y2041460D02*
D03*
X1265390Y2191460D02*
D03*
X1290390Y2241460D02*
D03*
X1340390Y1241460D02*
D03*
X1315390Y2191460D02*
D03*
Y2291460D02*
D03*
X1340390Y2341460D02*
D03*
X1390390Y1041460D02*
D03*
X1365390Y1091460D02*
D03*
Y1191460D02*
D03*
X1390390Y1241460D02*
D03*
Y2341460D02*
D03*
X1415390Y1091460D02*
D03*
X1440390Y1141460D02*
D03*
X1415390Y1191460D02*
D03*
Y2191460D02*
D03*
Y2291460D02*
D03*
X1465390Y1091460D02*
D03*
Y2291460D02*
D03*
X1490390Y2341460D02*
D03*
D106*
X930389Y1481459D02*
D03*
X915389Y1511459D02*
D03*
X930389Y1541459D02*
D03*
X915389Y1571459D02*
D03*
X930389Y1601459D02*
D03*
X915389Y1751459D02*
D03*
X930389Y1841459D02*
D03*
X915389Y1871459D02*
D03*
X960389Y1541459D02*
D03*
X945389Y1571459D02*
D03*
X960389Y1601459D02*
D03*
Y1661459D02*
D03*
X945389Y1871459D02*
D03*
X990389Y1541459D02*
D03*
X975389Y1571459D02*
D03*
X1005389Y1511459D02*
D03*
X1020389Y1541459D02*
D03*
X1005389Y1571459D02*
D03*
X1050389Y1541459D02*
D03*
Y1661459D02*
D03*
X1080389Y1541459D02*
D03*
X1065389Y1631459D02*
D03*
X1140389Y1481459D02*
D03*
X1125389Y1511459D02*
D03*
X1140389Y1661459D02*
D03*
Y1721459D02*
D03*
X1125389Y1751459D02*
D03*
X1140389Y1781459D02*
D03*
Y1841459D02*
D03*
M02*
