G04 Layer_Physical_Order=1*
G04 Layer_Color=255*
%FSLAX44Y44*%
%MOMM*%
G71*
G01*
G75*
%ADD10C,0.2934*%
%ADD11C,3.0000*%
%ADD12R,1.0000X0.5500*%
%ADD13R,0.3000X0.6000*%
%ADD14R,5.4000X5.4000*%
%ADD15R,0.3000X0.6500*%
%ADD16R,0.6500X0.3000*%
%ADD17R,1.0000X1.5500*%
%ADD18R,0.7000X0.6000*%
%ADD19R,0.8500X0.7500*%
G04:AMPARAMS|DCode=20|XSize=0.85mm|YSize=0.75mm|CornerRadius=0.1875mm|HoleSize=0mm|Usage=FLASHONLY|Rotation=0.000|XOffset=0mm|YOffset=0mm|HoleType=Round|Shape=RoundedRectangle|*
%AMROUNDEDRECTD20*
21,1,0.8500,0.3750,0,0,0.0*
21,1,0.4750,0.7500,0,0,0.0*
1,1,0.3750,0.2375,-0.1875*
1,1,0.3750,-0.2375,-0.1875*
1,1,0.3750,-0.2375,0.1875*
1,1,0.3750,0.2375,0.1875*
%
%ADD20ROUNDEDRECTD20*%
%ADD21R,1.6000X0.7000*%
%ADD22R,0.8000X0.9000*%
%ADD23R,0.3500X0.3500*%
%ADD24R,0.2500X0.4750*%
%ADD25R,0.4750X0.2500*%
%ADD26R,0.7000X0.5000*%
%ADD27R,0.6000X0.7000*%
%ADD28R,1.1000X1.3000*%
%ADD29C,2.0000*%
%ADD30R,0.3000X0.2750*%
%ADD31R,0.2750X0.3000*%
%ADD32R,6.3000X2.1500*%
%ADD33O,2.4000X0.7500*%
%ADD34R,2.4000X0.7500*%
%ADD35R,2.1800X2.0000*%
%ADD36R,1.2200X1.2500*%
%ADD37R,1.0000X1.4500*%
%ADD38R,1.4500X1.0000*%
%ADD39C,0.1500*%
%ADD40C,0.2000*%
%ADD41C,0.3000*%
%ADD42C,0.2500*%
%ADD43C,0.2540*%
%ADD44C,2.0000*%
%ADD45C,2.2000*%
%ADD46R,1.8000X1.8000*%
%ADD47C,1.8000*%
%ADD48C,0.4500*%
%ADD49C,0.7000*%
%ADD50C,0.5000*%
G36*
X1134946Y1810089D02*
Y1798851D01*
X1135160Y1797778D01*
X1135767Y1796868D01*
X1150196Y1782439D01*
Y1747586D01*
X1148926Y1747333D01*
X1148732Y1747802D01*
X1146808Y1750309D01*
X1144302Y1752232D01*
X1141383Y1753441D01*
X1138250Y1753854D01*
X1135117Y1753441D01*
X1132198Y1752232D01*
X1129691Y1750309D01*
X1127768Y1747802D01*
X1126559Y1744883D01*
X1126146Y1741750D01*
X1126559Y1738617D01*
X1127768Y1735698D01*
X1127970Y1735435D01*
X1118339Y1725804D01*
X1059500D01*
X1058427Y1725591D01*
X1057517Y1724983D01*
X1050517Y1717983D01*
X1049910Y1717073D01*
X1049696Y1716000D01*
X1039250D01*
Y1708250D01*
X1036500D01*
X1036500Y1708250D01*
Y1708250D01*
X1035539Y1708927D01*
X1021268Y1723197D01*
X1021676Y1724400D01*
X1022883Y1724559D01*
X1025802Y1725768D01*
X1028308Y1727691D01*
X1030232Y1730198D01*
X1031441Y1733117D01*
X1031854Y1736250D01*
X1031441Y1739383D01*
X1030232Y1742302D01*
X1028308Y1744809D01*
X1025802Y1746732D01*
X1025464Y1746872D01*
X1024988Y1748444D01*
X1025253Y1748842D01*
X1025583Y1750500D01*
X1025293Y1751958D01*
X1025735Y1752644D01*
X1026166Y1753079D01*
X1026550Y1753002D01*
X1028208Y1753332D01*
X1029614Y1754272D01*
X1030554Y1755677D01*
X1030883Y1757336D01*
X1030554Y1758994D01*
X1029614Y1760400D01*
X1029354Y1760574D01*
Y1765000D01*
X1030324Y1765970D01*
X1031795Y1765645D01*
X1032436Y1764686D01*
X1033842Y1763747D01*
X1034042Y1762412D01*
X1033946Y1761929D01*
Y1758738D01*
X1033686Y1758564D01*
X1032747Y1757158D01*
X1032417Y1755500D01*
X1032747Y1753842D01*
X1033686Y1752436D01*
X1035092Y1751497D01*
X1035500Y1751415D01*
Y1743250D01*
X1046500D01*
Y1746453D01*
X1048327Y1748280D01*
X1049500Y1747794D01*
Y1743250D01*
X1060500D01*
Y1744681D01*
X1063750D01*
Y1743500D01*
X1074750D01*
Y1748953D01*
X1076523Y1750727D01*
X1077297Y1751884D01*
X1077569Y1753250D01*
Y1765225D01*
X1078742Y1765711D01*
X1081250Y1763203D01*
Y1757750D01*
X1082431D01*
Y1754500D01*
X1079000D01*
Y1736000D01*
X1093000D01*
Y1738645D01*
X1094270Y1739637D01*
X1095500Y1739392D01*
X1097646Y1739819D01*
X1099465Y1741035D01*
X1100681Y1742854D01*
X1101108Y1745000D01*
X1100681Y1747146D01*
X1099465Y1748965D01*
X1097646Y1750181D01*
X1095500Y1750608D01*
X1094270Y1750363D01*
X1093000Y1751355D01*
Y1754500D01*
X1089569D01*
Y1757750D01*
X1091250D01*
Y1768750D01*
X1085797D01*
X1082819Y1771728D01*
Y1784750D01*
X1091750D01*
Y1786181D01*
X1095250D01*
Y1784750D01*
X1106250D01*
X1106250Y1784750D01*
Y1784750D01*
X1107433Y1784851D01*
X1107854Y1784569D01*
X1110000Y1784142D01*
X1112146Y1784569D01*
X1113965Y1785785D01*
X1115181Y1787604D01*
X1115608Y1789750D01*
X1115181Y1791896D01*
X1113965Y1793715D01*
X1112146Y1794931D01*
X1110000Y1795358D01*
X1107854Y1794931D01*
X1107424Y1794644D01*
X1106250Y1794750D01*
Y1794750D01*
X1106250Y1794750D01*
X1095250D01*
Y1793319D01*
X1091750D01*
Y1794750D01*
X1089819D01*
Y1797750D01*
X1089547Y1799116D01*
X1088773Y1800273D01*
X1088220Y1800827D01*
X1088706Y1802000D01*
X1092000D01*
Y1803431D01*
X1095250D01*
Y1802000D01*
X1106250D01*
Y1802315D01*
X1106666Y1802605D01*
X1107520Y1802878D01*
X1109104Y1801819D01*
X1111250Y1801392D01*
X1113396Y1801819D01*
X1115215Y1803035D01*
X1115480Y1803431D01*
X1117750D01*
Y1802000D01*
X1128750D01*
Y1812000D01*
X1128750D01*
Y1813000D01*
X1128750D01*
Y1814758D01*
X1130020Y1815015D01*
X1134946Y1810089D01*
D02*
G37*
G36*
X989500Y1809035D02*
X974774D01*
Y1809038D01*
X972623Y1808755D01*
X970619Y1807924D01*
X968898Y1806604D01*
X967577Y1804883D01*
X966747Y1802878D01*
X966464Y1800727D01*
X966467D01*
Y1797650D01*
X965630Y1796813D01*
X965197Y1796752D01*
X964002Y1796752D01*
X963732Y1796752D01*
X954002D01*
Y1794535D01*
X950250D01*
Y1796000D01*
X939250D01*
Y1794536D01*
X935252D01*
Y1796502D01*
X925522D01*
X925252Y1796502D01*
X924252D01*
X923982Y1796502D01*
X914252D01*
Y1795035D01*
X910250D01*
Y1796500D01*
X899250D01*
Y1795035D01*
X896000D01*
Y1799250D01*
X877500D01*
Y1785250D01*
X896000D01*
Y1787965D01*
X899250D01*
Y1786500D01*
X910250D01*
Y1787965D01*
X914252D01*
Y1785502D01*
X923982D01*
X924252Y1785502D01*
X925252D01*
X925522Y1785502D01*
X935252D01*
Y1787467D01*
X939250D01*
Y1786000D01*
X950250D01*
Y1787465D01*
X954002D01*
Y1785752D01*
X963732D01*
X964002Y1785752D01*
X965002D01*
X965272Y1785752D01*
X973431D01*
Y1783228D01*
X972453Y1782250D01*
X967000D01*
Y1771250D01*
X968561D01*
Y1768250D01*
X963220D01*
Y1768064D01*
X953651D01*
X953215Y1768715D01*
X951396Y1769931D01*
X949250Y1770358D01*
X947104Y1769931D01*
X945285Y1768715D01*
X944069Y1766896D01*
X943642Y1764750D01*
X944069Y1762604D01*
X945285Y1760785D01*
X947104Y1759569D01*
X949250Y1759142D01*
X951396Y1759569D01*
X953215Y1760785D01*
X953651Y1761436D01*
X963220D01*
Y1761250D01*
X963281D01*
Y1758250D01*
X962250D01*
Y1747250D01*
X963681D01*
Y1744000D01*
X962250D01*
Y1733000D01*
X962250Y1733000D01*
X962250D01*
X962072Y1731804D01*
X927000D01*
X925927Y1731590D01*
X925017Y1730983D01*
X922907Y1728873D01*
X922791Y1728850D01*
X921451Y1729212D01*
X920482Y1731552D01*
X918559Y1734059D01*
X916052Y1735982D01*
X913133Y1737191D01*
X910000Y1737604D01*
X906867Y1737191D01*
X903948Y1735982D01*
X901441Y1734059D01*
X899518Y1731552D01*
X898309Y1728633D01*
X897896Y1725500D01*
X898309Y1722367D01*
X899518Y1719448D01*
X901441Y1716942D01*
X903948Y1715018D01*
X906628Y1713908D01*
X906733Y1713374D01*
Y1713126D01*
X906628Y1712592D01*
X903948Y1711482D01*
X901441Y1709559D01*
X899518Y1707052D01*
X898309Y1704133D01*
X897896Y1701000D01*
X898309Y1697867D01*
X899518Y1694948D01*
X901441Y1692442D01*
X903948Y1690518D01*
X906867Y1689309D01*
X910000Y1688896D01*
X913133Y1689309D01*
X916052Y1690518D01*
X918559Y1692442D01*
X920482Y1694948D01*
X921691Y1697867D01*
X922104Y1701000D01*
X921691Y1704133D01*
X920482Y1707052D01*
X920280Y1707315D01*
X930661Y1717696D01*
X955762D01*
X955936Y1717436D01*
X957342Y1716497D01*
X958296Y1716307D01*
X958714Y1714929D01*
X919089Y1675304D01*
X912484D01*
X912441Y1675633D01*
X911232Y1678552D01*
X909308Y1681059D01*
X906802Y1682982D01*
X903883Y1684191D01*
X900750Y1684604D01*
X897617Y1684191D01*
X894698Y1682982D01*
X892191Y1681059D01*
X890268Y1678552D01*
X889059Y1675633D01*
X888646Y1672500D01*
X889059Y1669367D01*
X890268Y1666448D01*
X892191Y1663941D01*
X894698Y1662018D01*
X897617Y1660809D01*
X900750Y1660397D01*
X903883Y1660809D01*
X906802Y1662018D01*
X909308Y1663941D01*
X911232Y1666448D01*
X912441Y1669367D01*
X912484Y1669696D01*
X920250D01*
X921323Y1669910D01*
X922233Y1670517D01*
X923116Y1671400D01*
X924318Y1670807D01*
X924146Y1669500D01*
X924559Y1666367D01*
X925768Y1663448D01*
X927691Y1660941D01*
X930198Y1659018D01*
X933117Y1657809D01*
X936250Y1657396D01*
X939383Y1657809D01*
X942302Y1659018D01*
X944809Y1660941D01*
X946732Y1663448D01*
X947941Y1666367D01*
X948354Y1669500D01*
X947941Y1672633D01*
X946732Y1675552D01*
X946530Y1675815D01*
X947733Y1677017D01*
X948340Y1677927D01*
X948554Y1679000D01*
Y1686089D01*
X975411Y1712946D01*
X978012D01*
X978186Y1712686D01*
X979592Y1711747D01*
X981250Y1711417D01*
X982908Y1711747D01*
X984314Y1712686D01*
X985156Y1713946D01*
X999339D01*
X1003000Y1710285D01*
Y1703785D01*
X1002842Y1703753D01*
X1001436Y1702814D01*
X1000497Y1701408D01*
X1000167Y1699750D01*
X1000497Y1698092D01*
X1000712Y1697770D01*
X1000033Y1696500D01*
X996500D01*
Y1695809D01*
X993000D01*
Y1698500D01*
X982000D01*
Y1696559D01*
X979000D01*
Y1698500D01*
X968000D01*
Y1688500D01*
X968000Y1688500D01*
X968000D01*
X968498Y1687413D01*
X968319Y1687146D01*
X967892Y1685000D01*
X968319Y1682854D01*
X969535Y1681035D01*
X971354Y1679819D01*
X973500Y1679392D01*
X975646Y1679819D01*
X977465Y1681035D01*
X978681Y1682854D01*
X979108Y1685000D01*
X978681Y1687146D01*
X978512Y1687399D01*
X979000Y1688500D01*
X979000D01*
X979000Y1688500D01*
Y1690441D01*
X982000D01*
Y1688500D01*
X993000D01*
Y1689691D01*
X996500D01*
Y1689000D01*
X1004000D01*
Y1695006D01*
X1004500Y1695417D01*
X1006158Y1695747D01*
X1007564Y1696686D01*
X1007738Y1696946D01*
X1008415D01*
X1009500Y1696500D01*
Y1689000D01*
X1009691D01*
Y1685750D01*
X1007750D01*
Y1674750D01*
X1007750Y1674750D01*
X1007750D01*
X1007496Y1673523D01*
X1007035Y1673215D01*
X1005819Y1671396D01*
X1005392Y1669250D01*
X1005819Y1667104D01*
X1006926Y1665447D01*
X1006720Y1664829D01*
X1006318Y1664246D01*
X1005500Y1664354D01*
X1002367Y1663941D01*
X999448Y1662732D01*
X996942Y1660809D01*
X995018Y1658302D01*
X993809Y1655383D01*
X993396Y1652250D01*
X993809Y1649117D01*
X995018Y1646198D01*
X996942Y1643692D01*
X999448Y1641768D01*
X1002367Y1640559D01*
X1005500Y1640146D01*
X1008633Y1640559D01*
X1011552Y1641768D01*
X1014059Y1643692D01*
X1015982Y1646198D01*
X1017191Y1649117D01*
X1017604Y1652250D01*
X1017191Y1655383D01*
X1016018Y1658214D01*
X1022694Y1664890D01*
X1023651Y1664051D01*
X1023268Y1663552D01*
X1022059Y1660633D01*
X1021646Y1657500D01*
X1022059Y1654367D01*
X1023268Y1651448D01*
X1025191Y1648941D01*
X1027698Y1647018D01*
X1030617Y1645809D01*
X1033750Y1645397D01*
X1036883Y1645809D01*
X1039802Y1647018D01*
X1042309Y1648941D01*
X1044232Y1651448D01*
X1045441Y1654367D01*
X1045854Y1657500D01*
X1045441Y1660633D01*
X1044232Y1663552D01*
X1042309Y1666059D01*
X1039802Y1667982D01*
X1036883Y1669191D01*
X1036554Y1669234D01*
Y1678196D01*
X1040750D01*
X1041823Y1678410D01*
X1041980Y1678515D01*
X1043250Y1677836D01*
Y1669750D01*
X1053250D01*
Y1680750D01*
X1050559D01*
Y1684005D01*
X1060750D01*
X1060750Y1684005D01*
X1062020Y1684211D01*
X1063500Y1683917D01*
X1065158Y1684247D01*
X1066564Y1685186D01*
X1066738Y1685446D01*
X1072839D01*
X1077970Y1680315D01*
X1077768Y1680052D01*
X1076559Y1677133D01*
X1076146Y1674000D01*
X1076559Y1670867D01*
X1077768Y1667948D01*
X1079691Y1665441D01*
X1082198Y1663518D01*
X1085117Y1662309D01*
X1088250Y1661896D01*
X1091383Y1662309D01*
X1094302Y1663518D01*
X1096808Y1665441D01*
X1098732Y1667948D01*
X1099941Y1670867D01*
X1100354Y1674000D01*
X1099941Y1677133D01*
X1098732Y1680052D01*
X1096808Y1682558D01*
X1094302Y1684482D01*
X1091383Y1685691D01*
X1088250Y1686104D01*
X1085117Y1685691D01*
X1082198Y1684482D01*
X1081935Y1684280D01*
X1075983Y1690233D01*
X1075951Y1690391D01*
X1076753Y1691592D01*
X1077083Y1693250D01*
X1076753Y1694908D01*
X1075814Y1696314D01*
X1074408Y1697253D01*
X1072750Y1697583D01*
X1071092Y1697253D01*
X1069881Y1696445D01*
X1069413Y1696913D01*
X1068420Y1697576D01*
X1067250Y1697809D01*
X1067250Y1697809D01*
X1063505D01*
Y1698250D01*
X1054755D01*
Y1698250D01*
X1053616Y1697933D01*
X1053080Y1697826D01*
X1052087Y1697163D01*
X1050337Y1695413D01*
X1049674Y1694420D01*
X1049441Y1693250D01*
X1048361Y1692755D01*
X1045250D01*
Y1696750D01*
Y1707250D01*
X1047115D01*
X1047920Y1706268D01*
X1047917Y1706250D01*
X1048247Y1704592D01*
X1049186Y1703186D01*
X1050592Y1702247D01*
X1052250Y1701917D01*
X1053908Y1702247D01*
X1055314Y1703186D01*
X1056253Y1704592D01*
X1056583Y1706250D01*
X1056580Y1706268D01*
X1057385Y1707250D01*
X1060750D01*
Y1708691D01*
X1067000D01*
Y1706750D01*
X1078000D01*
Y1708691D01*
X1081500D01*
Y1706750D01*
X1092500D01*
Y1716750D01*
X1081500D01*
Y1714809D01*
X1078000D01*
Y1716750D01*
X1077449D01*
X1076833Y1717500D01*
X1076550Y1718926D01*
X1077221Y1720196D01*
X1099844D01*
X1100186Y1719543D01*
X1100344Y1718926D01*
X1099497Y1717658D01*
X1099167Y1716000D01*
X1099497Y1714342D01*
X1099645Y1714120D01*
X1099046Y1713000D01*
X1098000D01*
Y1703000D01*
X1098000D01*
Y1702000D01*
X1098000D01*
Y1692000D01*
X1104535D01*
X1107617Y1688918D01*
X1108527Y1688310D01*
X1109600Y1688096D01*
X1117739D01*
X1119196Y1686639D01*
Y1633161D01*
X1118061Y1632027D01*
X1117000Y1631500D01*
Y1631500D01*
X1117000Y1631500D01*
X1106000D01*
Y1630069D01*
X1102250D01*
Y1634500D01*
X1090250D01*
Y1621500D01*
X1102250D01*
Y1622931D01*
X1106000D01*
Y1621500D01*
X1117000D01*
Y1623796D01*
X1117573Y1623910D01*
X1118483Y1624517D01*
X1121523Y1627558D01*
X1122696Y1627072D01*
Y1595661D01*
X1118270Y1591235D01*
X1117000Y1591761D01*
Y1592500D01*
X1106000D01*
Y1591069D01*
X1102250D01*
Y1595500D01*
X1090250D01*
Y1582500D01*
X1102250D01*
Y1583931D01*
X1106000D01*
Y1582500D01*
X1117000D01*
Y1584696D01*
X1118500D01*
X1119573Y1584910D01*
X1120483Y1585517D01*
X1126023Y1591058D01*
X1127196Y1590571D01*
Y1550911D01*
X1126589Y1550304D01*
X1117000D01*
Y1552500D01*
X1106000D01*
Y1551069D01*
X1102250D01*
Y1555500D01*
X1090250D01*
Y1542500D01*
X1102250D01*
Y1543931D01*
X1106000D01*
Y1542500D01*
X1117000D01*
Y1544696D01*
X1127750D01*
X1128823Y1544910D01*
X1129426Y1545313D01*
X1130696Y1544847D01*
Y1476411D01*
X1119267Y1464983D01*
X1118660Y1464073D01*
X1118446Y1463000D01*
Y1455939D01*
X1117548Y1455041D01*
X1114039D01*
X1114039Y1493000D01*
X1113884Y1493780D01*
X1113442Y1494558D01*
X1113884Y1495220D01*
X1114039Y1496000D01*
Y1531000D01*
X1113884Y1531780D01*
X1113442Y1532442D01*
X1112780Y1532884D01*
X1112000Y1533039D01*
X1015000Y1533039D01*
X1014220Y1532884D01*
X1013558Y1532442D01*
X1013116Y1531780D01*
X1012961Y1531000D01*
Y1496000D01*
X1013116Y1495220D01*
X1013558Y1494442D01*
X1013116Y1493780D01*
X1012961Y1493000D01*
X1012961Y1458176D01*
X1009868Y1455083D01*
X1008598Y1455143D01*
Y1464500D01*
X1004033D01*
Y1475500D01*
X1005500D01*
Y1484500D01*
X994500D01*
Y1483535D01*
X981900D01*
Y1486965D01*
X982001D01*
X983354Y1487234D01*
X984501Y1488000D01*
X991998Y1495498D01*
X994500D01*
Y1494500D01*
X1005500D01*
Y1503500D01*
X994500D01*
Y1502567D01*
X990534D01*
X989181Y1502298D01*
X988034Y1501532D01*
X983073Y1496571D01*
X981900Y1497057D01*
Y1502500D01*
X976785D01*
Y1512250D01*
X980250D01*
Y1530750D01*
X966250D01*
Y1512250D01*
X969715D01*
Y1502500D01*
X956100D01*
Y1478500D01*
X976001D01*
X977001Y1477500D01*
X978147Y1476734D01*
X979500Y1476465D01*
X979500Y1476465D01*
X994500D01*
Y1475500D01*
X996964D01*
Y1464500D01*
X992398D01*
Y1455939D01*
X991500Y1455041D01*
X981900D01*
Y1464500D01*
X956100D01*
Y1456035D01*
X942500D01*
X941147Y1455766D01*
X940063Y1455041D01*
X870683Y1455041D01*
X870683Y1571196D01*
X905750D01*
X906823Y1571410D01*
X907733Y1572017D01*
X914983Y1579267D01*
X915591Y1580177D01*
X915804Y1581250D01*
Y1593500D01*
X918500D01*
Y1603500D01*
X918500Y1603500D01*
Y1604500D01*
X918500D01*
X918500Y1604770D01*
Y1614500D01*
X915804D01*
Y1627500D01*
X918500D01*
Y1630196D01*
X1046000D01*
X1047073Y1630410D01*
X1047983Y1631017D01*
X1069411Y1652446D01*
X1103750D01*
X1104823Y1652660D01*
X1105733Y1653267D01*
X1115483Y1663017D01*
X1116090Y1663927D01*
X1116304Y1665000D01*
Y1673762D01*
X1116564Y1673936D01*
X1117503Y1675342D01*
X1117833Y1677000D01*
X1117503Y1678658D01*
X1116564Y1680064D01*
X1115158Y1681003D01*
X1113500Y1681333D01*
X1111842Y1681003D01*
X1110436Y1680064D01*
X1109497Y1678658D01*
X1109167Y1677000D01*
X1109497Y1675342D01*
X1110436Y1673936D01*
X1110696Y1673762D01*
Y1666161D01*
X1102589Y1658054D01*
X1068250D01*
X1067177Y1657840D01*
X1066267Y1657233D01*
X1044839Y1635804D01*
X918500D01*
Y1638500D01*
X908500D01*
Y1627500D01*
X910196D01*
Y1614500D01*
X907500D01*
Y1607965D01*
X902231Y1602696D01*
X901000Y1602500D01*
Y1602500D01*
X901000Y1602500D01*
X887500D01*
Y1593143D01*
X884267Y1589911D01*
X883993Y1589500D01*
X881250D01*
Y1587569D01*
X879730D01*
X879465Y1587965D01*
X877646Y1589181D01*
X875500Y1589608D01*
X873354Y1589181D01*
X871953Y1588245D01*
X870683Y1588802D01*
Y1610750D01*
X877250D01*
Y1613696D01*
X881000D01*
Y1611500D01*
X894500D01*
Y1621500D01*
X881000D01*
Y1619304D01*
X877250D01*
Y1620750D01*
X871581D01*
X870683Y1621648D01*
X870683Y1809020D01*
X872216Y1809222D01*
X872250Y1809215D01*
X877500D01*
Y1805750D01*
X896000D01*
Y1809967D01*
X924252D01*
Y1808002D01*
X934252D01*
Y1808002D01*
X935252D01*
Y1808002D01*
X945252D01*
Y1811965D01*
X989500D01*
Y1809035D01*
D02*
G37*
G36*
X1149196Y1845671D02*
Y1793029D01*
X1148023Y1792543D01*
X1140554Y1800012D01*
Y1811250D01*
X1140340Y1812323D01*
X1139733Y1813233D01*
X1132983Y1819983D01*
X1132073Y1820590D01*
X1131000Y1820804D01*
X1128750D01*
Y1823000D01*
X1122215D01*
X1116233Y1828983D01*
X1115323Y1829590D01*
X1114250Y1829804D01*
X1099678D01*
X1099192Y1830977D01*
X1107483Y1839267D01*
X1108090Y1840177D01*
X1108304Y1841250D01*
X1117000D01*
Y1852250D01*
X1097000D01*
Y1841250D01*
X1099875D01*
X1100361Y1840077D01*
X1093589Y1833304D01*
X1071815D01*
X1071289Y1834574D01*
X1077965Y1841250D01*
X1094000D01*
Y1852250D01*
X1074000D01*
Y1845215D01*
X1068508Y1839723D01*
X1068089Y1839785D01*
X1068033Y1839814D01*
X1067175Y1841204D01*
X1067333Y1842000D01*
X1067003Y1843658D01*
X1066064Y1845064D01*
X1064658Y1846003D01*
X1063000Y1846333D01*
X1061342Y1846003D01*
X1060770Y1845621D01*
X1059500Y1846300D01*
Y1847000D01*
X1054894D01*
X1054769Y1848270D01*
X1055908Y1848497D01*
X1057314Y1849436D01*
X1058253Y1850842D01*
X1058583Y1852500D01*
X1058253Y1854158D01*
X1057314Y1855564D01*
X1055908Y1856503D01*
X1054250Y1856833D01*
X1052592Y1856503D01*
X1051424Y1855723D01*
X1050528Y1856121D01*
X1050254Y1856353D01*
X1050333Y1856750D01*
X1050003Y1858408D01*
X1049064Y1859814D01*
X1048023Y1860510D01*
X1047666Y1861948D01*
X1049663Y1863946D01*
X1130921D01*
X1149196Y1845671D01*
D02*
G37*
G36*
X1112000Y1493000D02*
X1112000Y1454000D01*
X1015000Y1454000D01*
X1015000Y1493000D01*
X1112000Y1493000D01*
D02*
G37*
G36*
X1015750Y1887366D02*
Y1885750D01*
X1015750D01*
Y1884750D01*
X1015750D01*
Y1878215D01*
X1010517Y1872983D01*
X1009910Y1872073D01*
X1009780Y1871422D01*
X1009758Y1871396D01*
X1008778Y1870895D01*
X1008426Y1870854D01*
X1008073Y1871090D01*
X1007000Y1871304D01*
X1006500D01*
Y1874750D01*
X994000D01*
Y1863250D01*
X1005946D01*
Y1855911D01*
X1004017Y1853983D01*
X1003410Y1853073D01*
X1003196Y1852000D01*
Y1847000D01*
X997500D01*
X997500Y1847000D01*
Y1847000D01*
X996443Y1847522D01*
X991557Y1852409D01*
X991681Y1853672D01*
X991919Y1853831D01*
X992775Y1855113D01*
X993076Y1856625D01*
Y1860375D01*
X992775Y1861887D01*
X991919Y1863169D01*
X990637Y1864025D01*
X989125Y1864326D01*
X984375D01*
X982863Y1864025D01*
X981581Y1863169D01*
X980725Y1861887D01*
X980424Y1860375D01*
Y1859168D01*
X979251Y1858682D01*
X978733Y1859200D01*
X977823Y1859808D01*
X977250Y1859922D01*
Y1862980D01*
X977250Y1863250D01*
Y1864250D01*
X977250Y1864520D01*
Y1874250D01*
X977250Y1874250D01*
X977014Y1875520D01*
X977358Y1877250D01*
X976931Y1879396D01*
X975715Y1881215D01*
X973896Y1882431D01*
X971750Y1882858D01*
X969604Y1882431D01*
X967785Y1881215D01*
X966569Y1879396D01*
X966142Y1877250D01*
X966486Y1875520D01*
X966250Y1874250D01*
X966250D01*
X966250Y1874250D01*
Y1864520D01*
X966250Y1864250D01*
Y1863250D01*
X964980Y1862874D01*
X964146Y1863431D01*
X962000Y1863858D01*
X959854Y1863431D01*
X958035Y1862215D01*
X956819Y1860396D01*
X956392Y1858250D01*
X956819Y1856104D01*
X958035Y1854285D01*
X959854Y1853069D01*
X962000Y1852642D01*
X964146Y1853069D01*
X964980Y1853626D01*
X966250Y1853250D01*
Y1853250D01*
X966250Y1853250D01*
X976752D01*
X989880Y1840123D01*
X989500Y1839000D01*
X989500D01*
X989500Y1839000D01*
Y1834069D01*
X983250D01*
Y1835000D01*
X972250D01*
Y1833569D01*
X969000D01*
Y1835000D01*
X958000D01*
Y1832939D01*
X955250D01*
Y1837724D01*
X955715Y1838035D01*
X956931Y1839854D01*
X957358Y1842000D01*
X956931Y1844146D01*
X955715Y1845965D01*
X953896Y1847181D01*
X951750Y1847608D01*
X949604Y1847181D01*
X947785Y1845965D01*
X946569Y1844146D01*
X946142Y1842000D01*
X946569Y1839854D01*
X947785Y1838035D01*
X948250Y1837724D01*
Y1826250D01*
X955250D01*
Y1826311D01*
X958000D01*
Y1825000D01*
X969000D01*
Y1826431D01*
X972250D01*
Y1825000D01*
X983250D01*
Y1826931D01*
X994750D01*
X995095Y1827000D01*
X1000000D01*
Y1836500D01*
X1057000D01*
Y1832000D01*
Y1822000D01*
Y1812000D01*
Y1802000D01*
Y1792000D01*
X1061905D01*
X1062250Y1791931D01*
X1075681D01*
Y1787275D01*
X1074508Y1786789D01*
X1073273Y1788023D01*
X1072116Y1788797D01*
X1070750Y1789069D01*
X1062250D01*
X1061905Y1789000D01*
X1057000D01*
Y1779500D01*
X1000000D01*
Y1792000D01*
Y1802000D01*
Y1812000D01*
Y1824000D01*
X989500D01*
Y1819035D01*
X940252D01*
X940085Y1819002D01*
X935252D01*
Y1819002D01*
X934252D01*
Y1819002D01*
X924252D01*
Y1817036D01*
X896000D01*
Y1819750D01*
X877500D01*
Y1816285D01*
X872250D01*
Y1816291D01*
X871624Y1816229D01*
X870683Y1817082D01*
X870683Y1887366D01*
X1015750D01*
D02*
G37*
G36*
X1472716Y2476295D02*
X1481232Y2474848D01*
X1489533Y2472457D01*
X1497513Y2469151D01*
X1505074Y2464973D01*
X1512119Y2459974D01*
X1518560Y2454218D01*
X1524316Y2447777D01*
X1529314Y2440732D01*
X1533493Y2433172D01*
X1536799Y2425191D01*
X1539190Y2416890D01*
X1540637Y2408374D01*
X1541121Y2399750D01*
X1540637Y2391125D01*
X1539190Y2382609D01*
X1536799Y2374308D01*
X1533493Y2366328D01*
X1532816Y2365102D01*
X1262302Y1947144D01*
X1262252Y1947016D01*
X1262164Y1946910D01*
X1257699Y1938600D01*
X1257319Y1937356D01*
X1257320Y1937347D01*
X1253906Y1930128D01*
X1250849Y1921586D01*
X1248645Y1912785D01*
X1247314Y1903811D01*
X1246930Y1896005D01*
X1246869Y1894750D01*
X1246869Y1894741D01*
X1246916Y1893490D01*
Y1883919D01*
X1245743Y1883433D01*
X1236443Y1892733D01*
X1235533Y1893340D01*
X1234460Y1893554D01*
X1069500D01*
Y1895750D01*
X1058500D01*
Y1885750D01*
X1058500D01*
Y1884750D01*
X1058500D01*
Y1878215D01*
X1057322Y1877037D01*
X1055915D01*
X1055250Y1877702D01*
Y1884480D01*
X1055250Y1884750D01*
Y1885750D01*
X1055250Y1886020D01*
Y1895750D01*
X1054011D01*
X1053485Y1897020D01*
X1174000Y2017535D01*
X1178470Y2013065D01*
X1178268Y2012802D01*
X1177059Y2009883D01*
X1176646Y2006750D01*
X1177059Y2003617D01*
X1178268Y2000698D01*
X1180191Y1998192D01*
X1182698Y1996268D01*
X1185617Y1995059D01*
X1188750Y1994646D01*
X1191883Y1995059D01*
X1194802Y1996268D01*
X1197309Y1998192D01*
X1199232Y2000698D01*
X1200441Y2003617D01*
X1200854Y2006750D01*
X1200441Y2009883D01*
X1199232Y2012802D01*
X1197309Y2015309D01*
X1194802Y2017232D01*
X1191883Y2018441D01*
X1188750Y2018854D01*
X1185617Y2018441D01*
X1182698Y2017232D01*
X1182435Y2017030D01*
X1178600Y2020865D01*
Y2022135D01*
X1252161Y2095696D01*
X1311509D01*
X1312285Y2094535D01*
X1314104Y2093319D01*
X1316250Y2092892D01*
X1318396Y2093319D01*
X1320215Y2094535D01*
X1321431Y2096354D01*
X1321858Y2098500D01*
X1321431Y2100646D01*
X1320215Y2102465D01*
X1318396Y2103681D01*
X1316250Y2104108D01*
X1314104Y2103681D01*
X1312285Y2102465D01*
X1311509Y2101304D01*
X1251000D01*
X1249927Y2101090D01*
X1249017Y2100483D01*
X1172017Y2023483D01*
X1172017Y2023483D01*
X1047767Y1899233D01*
X1047160Y1898323D01*
X1046946Y1897250D01*
Y1895750D01*
X1044250D01*
Y1886020D01*
X1044250Y1885750D01*
Y1884750D01*
X1044250Y1884480D01*
Y1881988D01*
X1043868Y1881733D01*
X1042173Y1880038D01*
X1041000Y1880524D01*
Y1884750D01*
X1041000D01*
Y1885750D01*
X1041000D01*
Y1895750D01*
X1034465D01*
X1003983Y1926233D01*
X1003073Y1926840D01*
X1002000Y1927054D01*
X855911D01*
X787090Y1995875D01*
X789935Y1998720D01*
X790198Y1998518D01*
X793117Y1997309D01*
X796250Y1996896D01*
X799383Y1997309D01*
X802302Y1998518D01*
X804809Y2000441D01*
X806732Y2002948D01*
X807941Y2005867D01*
X808354Y2009000D01*
X807941Y2012133D01*
X806732Y2015052D01*
X804809Y2017558D01*
X802302Y2019482D01*
X799383Y2020691D01*
X796250Y2021104D01*
X793117Y2020691D01*
X790198Y2019482D01*
X787691Y2017558D01*
X785768Y2015052D01*
X784559Y2012133D01*
X784146Y2009000D01*
X784559Y2005867D01*
X785768Y2002948D01*
X785970Y2002685D01*
X783125Y1999840D01*
X724804Y2058161D01*
Y2108509D01*
X725965Y2109285D01*
X727181Y2111104D01*
X727608Y2113250D01*
X727181Y2115396D01*
X725965Y2117215D01*
X724146Y2118431D01*
X722000Y2118858D01*
X719854Y2118431D01*
X718035Y2117215D01*
X716819Y2115396D01*
X716392Y2113250D01*
X716819Y2111104D01*
X718035Y2109285D01*
X719196Y2108509D01*
Y2057000D01*
X719410Y2055927D01*
X720017Y2055017D01*
X781017Y1994017D01*
X852767Y1922267D01*
X853677Y1921660D01*
X854750Y1921446D01*
X1000839D01*
X1025361Y1896923D01*
X1024875Y1895750D01*
X1015750D01*
Y1893554D01*
X788556D01*
X787483Y1893340D01*
X786573Y1892733D01*
X774523Y1880683D01*
X773350Y1881169D01*
Y1885983D01*
X773385Y1887238D01*
X773386Y1887250D01*
X773332Y1888486D01*
X772922Y1897872D01*
X771535Y1908413D01*
X769233Y1918792D01*
X766036Y1928932D01*
X761968Y1938755D01*
X759102Y1944260D01*
X758894Y1944941D01*
X757836Y1946910D01*
X757748Y1947016D01*
X757698Y1947144D01*
X487184Y2365102D01*
X486507Y2366328D01*
X483201Y2374308D01*
X480810Y2382609D01*
X479363Y2391125D01*
X478879Y2399750D01*
X479363Y2408374D01*
X480810Y2416890D01*
X483201Y2425191D01*
X486507Y2433172D01*
X490686Y2440732D01*
X495684Y2447777D01*
X501440Y2454218D01*
X507881Y2459974D01*
X514926Y2464973D01*
X522486Y2469151D01*
X530467Y2472457D01*
X538768Y2474848D01*
X547284Y2476295D01*
X555909Y2476779D01*
X564533Y2476295D01*
X573049Y2474848D01*
X581350Y2472457D01*
X589330Y2469151D01*
X596891Y2464973D01*
X603936Y2459974D01*
X610377Y2454218D01*
X616133Y2447777D01*
X620449Y2441694D01*
X620451Y2441688D01*
X843439Y2097181D01*
X843712Y2096900D01*
X847217Y2091959D01*
X852252Y2086325D01*
X857887Y2081290D01*
X864049Y2076917D01*
X870663Y2073262D01*
X877644Y2070371D01*
X884905Y2068279D01*
X892354Y2067013D01*
X899898Y2066590D01*
X901837Y2066698D01*
X902000Y2066666D01*
X1118000D01*
X1118163Y2066698D01*
X1120102Y2066590D01*
X1127646Y2067013D01*
X1135095Y2068279D01*
X1142356Y2070371D01*
X1149337Y2073262D01*
X1155951Y2076917D01*
X1162113Y2081290D01*
X1167748Y2086325D01*
X1172783Y2091959D01*
X1176288Y2096900D01*
X1176561Y2097181D01*
X1399549Y2441688D01*
X1399551Y2441694D01*
X1403867Y2447777D01*
X1409623Y2454218D01*
X1416064Y2459974D01*
X1423109Y2464973D01*
X1430670Y2469151D01*
X1438650Y2472457D01*
X1446951Y2474848D01*
X1455467Y2476295D01*
X1464091Y2476779D01*
X1472716Y2476295D01*
D02*
G37*
G36*
X1117750Y1819535D02*
Y1813000D01*
X1117750D01*
Y1812000D01*
X1117750D01*
Y1810569D01*
X1115480D01*
X1115215Y1810965D01*
X1113396Y1812181D01*
X1111250Y1812608D01*
X1109104Y1812181D01*
X1107520Y1811122D01*
X1106666Y1811396D01*
X1106250Y1811685D01*
Y1812000D01*
X1095250D01*
Y1810569D01*
X1092000D01*
Y1812000D01*
X1081000D01*
Y1809069D01*
X1067500D01*
Y1817696D01*
X1071321D01*
X1072394Y1817910D01*
X1073304Y1818517D01*
X1078982Y1824196D01*
X1113089D01*
X1117750Y1819535D01*
D02*
G37*
G36*
X1160346Y1887366D02*
X1160731Y1886096D01*
X1160535Y1885965D01*
X1159319Y1884146D01*
X1158892Y1882000D01*
X1159236Y1880270D01*
X1158479Y1879000D01*
X1157250D01*
Y1859500D01*
X1161446D01*
Y1826500D01*
X1158304D01*
Y1851500D01*
X1158090Y1852573D01*
X1157483Y1853483D01*
X1138483Y1872483D01*
X1137573Y1873090D01*
X1136500Y1873304D01*
X1064515D01*
X1063836Y1874574D01*
X1063954Y1874750D01*
X1069500D01*
Y1884750D01*
X1069500D01*
Y1885750D01*
X1069890Y1886859D01*
X1070398Y1887366D01*
X1160346D01*
D02*
G37*
G36*
X1112000Y1496000D02*
X1015000Y1496000D01*
Y1531000D01*
X1112000Y1531000D01*
Y1496000D01*
D02*
G37*
G36*
X1381562Y1121500D02*
X1321313Y1083000D01*
X1241188Y1210250D01*
X1299438Y1248000D01*
X1381562Y1121500D01*
D02*
G37*
G36*
X1157250Y1702796D02*
Y1688500D01*
X1161446D01*
Y1655500D01*
X1157250D01*
Y1637054D01*
X1146929D01*
X1145856Y1636840D01*
X1144946Y1636233D01*
X1142017Y1633304D01*
X1141410Y1632394D01*
X1141196Y1631321D01*
Y1623530D01*
X1140461Y1623039D01*
X1139522Y1621633D01*
X1139192Y1619975D01*
X1139522Y1618317D01*
X1140461Y1616911D01*
X1141406Y1616279D01*
X1141727Y1614803D01*
X1140323Y1613400D01*
X1139716Y1612490D01*
X1139502Y1611417D01*
Y1601194D01*
X1139716Y1600121D01*
X1140323Y1599211D01*
X1152808Y1586727D01*
X1152321Y1585554D01*
X1150000D01*
X1148927Y1585340D01*
X1148017Y1584733D01*
X1147331Y1584046D01*
X1146345Y1584856D01*
X1147003Y1585842D01*
X1147333Y1587500D01*
X1147003Y1589158D01*
X1146064Y1590564D01*
X1144658Y1591503D01*
X1143000Y1591833D01*
X1141342Y1591503D01*
X1139936Y1590564D01*
X1138997Y1589158D01*
X1138667Y1587500D01*
X1138997Y1585842D01*
X1139936Y1584436D01*
X1140196Y1584262D01*
Y1524750D01*
X1140410Y1523677D01*
X1141017Y1522767D01*
X1162017Y1501767D01*
X1162927Y1501160D01*
X1164000Y1500946D01*
X1175785D01*
X1176683Y1500048D01*
X1176683Y1455939D01*
X1175785Y1455041D01*
X1124054Y1455041D01*
Y1461839D01*
X1135483Y1473267D01*
X1136090Y1474177D01*
X1136304Y1475250D01*
Y1671339D01*
X1154983Y1690017D01*
X1155590Y1690927D01*
X1155804Y1692000D01*
Y1702235D01*
X1157074Y1702914D01*
X1157250Y1702796D01*
D02*
G37*
G36*
X1243426Y1877819D02*
Y1520141D01*
X1231017Y1507733D01*
X1230410Y1506823D01*
X1230196Y1505750D01*
Y1406304D01*
X1212984D01*
X1212941Y1406633D01*
X1211732Y1409552D01*
X1209809Y1412059D01*
X1207302Y1413982D01*
X1204383Y1415191D01*
X1201250Y1415604D01*
X1198117Y1415191D01*
X1195198Y1413982D01*
X1192691Y1412059D01*
X1190768Y1409552D01*
X1190128Y1408006D01*
X1188924Y1407748D01*
X1187873Y1408563D01*
Y1409805D01*
X1188965Y1410535D01*
X1190181Y1412354D01*
X1190608Y1414500D01*
X1190181Y1416646D01*
X1188965Y1418465D01*
X1187146Y1419681D01*
X1185000Y1420108D01*
X1182854Y1419681D01*
X1181035Y1418465D01*
X1180722Y1417998D01*
X1179195D01*
X1178715Y1418715D01*
X1176896Y1419931D01*
X1174750Y1420358D01*
X1172604Y1419931D01*
X1170785Y1418715D01*
X1169569Y1416896D01*
X1169142Y1414750D01*
X1169569Y1412604D01*
X1170785Y1410785D01*
X1171627Y1410222D01*
Y1408695D01*
X1170535Y1407965D01*
X1170054Y1407245D01*
X1168857Y1407741D01*
X1169108Y1409000D01*
X1168681Y1411146D01*
X1167465Y1412965D01*
X1165646Y1414181D01*
X1163500Y1414608D01*
X1161354Y1414181D01*
X1159535Y1412965D01*
X1158319Y1411146D01*
X1157892Y1409000D01*
X1158319Y1406854D01*
X1159535Y1405035D01*
X1161354Y1403819D01*
X1163500Y1403392D01*
X1165646Y1403819D01*
X1167465Y1405035D01*
X1167946Y1405755D01*
X1169143Y1405259D01*
X1168892Y1404000D01*
X1169319Y1401854D01*
X1170535Y1400035D01*
X1172354Y1398819D01*
X1174500Y1398392D01*
X1176646Y1398819D01*
X1178465Y1400035D01*
X1178778Y1400502D01*
X1180305D01*
X1180785Y1399785D01*
X1182604Y1398569D01*
X1184750Y1398142D01*
X1186896Y1398569D01*
X1188488Y1399633D01*
X1189506Y1399527D01*
X1189969Y1399376D01*
X1190768Y1397448D01*
X1192691Y1394942D01*
X1195198Y1393018D01*
X1198117Y1391809D01*
X1201250Y1391396D01*
X1204383Y1391809D01*
X1207302Y1393018D01*
X1209809Y1394942D01*
X1211732Y1397448D01*
X1212941Y1400367D01*
X1212984Y1400696D01*
X1230196D01*
Y1274250D01*
X1230410Y1273177D01*
X1231017Y1272267D01*
X1246915Y1256370D01*
X1246642Y1255000D01*
X1247069Y1252854D01*
X1248285Y1251035D01*
X1250104Y1249819D01*
X1252250Y1249392D01*
X1254396Y1249819D01*
X1256215Y1251035D01*
X1257431Y1252854D01*
X1257858Y1255000D01*
X1257431Y1257146D01*
X1256215Y1258965D01*
X1254396Y1260181D01*
X1252250Y1260608D01*
X1250880Y1260335D01*
X1235804Y1275411D01*
Y1404250D01*
Y1504589D01*
X1245414Y1514199D01*
X1246694Y1513759D01*
X1246864Y1513012D01*
X1246864Y1513000D01*
X1246919Y1511743D01*
X1247328Y1502378D01*
X1248715Y1491837D01*
X1251017Y1481458D01*
X1254214Y1471318D01*
X1258282Y1461495D01*
X1261148Y1455990D01*
X1261356Y1455309D01*
X1262414Y1453340D01*
X1262502Y1453234D01*
X1262552Y1453106D01*
X1533065Y1035148D01*
X1533743Y1033922D01*
X1537048Y1025942D01*
X1539440Y1017641D01*
X1540887Y1009125D01*
X1541371Y1000500D01*
X1540887Y991876D01*
X1539440Y983360D01*
X1537048Y975059D01*
X1533743Y967078D01*
X1529564Y959518D01*
X1524566Y952473D01*
X1518810Y946032D01*
X1512369Y940276D01*
X1505324Y935277D01*
X1497763Y931099D01*
X1489783Y927793D01*
X1481482Y925402D01*
X1472966Y923955D01*
X1464341Y923471D01*
X1455717Y923955D01*
X1447201Y925402D01*
X1438900Y927793D01*
X1430920Y931099D01*
X1423359Y935277D01*
X1416314Y940276D01*
X1409873Y946032D01*
X1404117Y952473D01*
X1399801Y958556D01*
X1399799Y958562D01*
X1321373Y1079727D01*
X1321459Y1080113D01*
X1321986Y1081116D01*
X1322033Y1081134D01*
X1322399Y1081274D01*
X1322404Y1081279D01*
X1322410Y1081282D01*
X1382661Y1119782D01*
X1382666Y1119787D01*
X1382673Y1119790D01*
X1382953Y1120062D01*
X1383235Y1120333D01*
X1383237Y1120340D01*
X1383243Y1120345D01*
X1383398Y1120705D01*
X1383554Y1121061D01*
X1383554Y1121069D01*
X1383557Y1121076D01*
X1383562Y1121468D01*
X1383570Y1121857D01*
X1383568Y1121864D01*
X1383568Y1121871D01*
X1383423Y1122234D01*
X1383281Y1122598D01*
X1383276Y1122603D01*
X1383273Y1122610D01*
X1301148Y1249110D01*
X1300866Y1249399D01*
X1300594Y1249679D01*
X1300593Y1249680D01*
X1300593Y1249680D01*
X1300213Y1249843D01*
X1299863Y1249994D01*
X1299863D01*
X1299862Y1249995D01*
X1299444Y1250000D01*
X1299068Y1250005D01*
X1299067Y1250005D01*
X1299066D01*
X1298689Y1249855D01*
X1298329Y1249711D01*
X1240079Y1211961D01*
X1239803Y1211693D01*
X1239523Y1211428D01*
X1239518Y1211416D01*
X1239508Y1211407D01*
X1239356Y1211054D01*
X1239199Y1210702D01*
X1239199Y1210688D01*
X1239193Y1210676D01*
X1239188Y1210291D01*
X1239177Y1209906D01*
X1239182Y1209894D01*
X1239182Y1209880D01*
X1239325Y1209522D01*
X1239462Y1209163D01*
X1252206Y1188924D01*
X1251136Y1188241D01*
X1177540Y1301943D01*
X1176634Y1302876D01*
X1176421Y1302968D01*
X1173319Y1307340D01*
X1168146Y1313129D01*
X1162358Y1318301D01*
X1156027Y1322793D01*
X1149233Y1326548D01*
X1142061Y1329519D01*
X1134602Y1331668D01*
X1126948Y1332968D01*
X1119198Y1333404D01*
X1117336Y1333299D01*
X1117036Y1333359D01*
X903170D01*
X901906Y1333385D01*
D01*
X900657Y1333429D01*
X899707Y1333483D01*
X892200Y1333061D01*
X884787Y1331801D01*
X877562Y1329720D01*
X870616Y1326843D01*
X864035Y1323206D01*
X857903Y1318855D01*
X852297Y1313844D01*
X847286Y1308238D01*
X843583Y1303019D01*
X843583Y1303019D01*
X843455Y1302844D01*
X842884Y1301962D01*
X782637Y1208883D01*
X781503Y1209468D01*
X781568Y1209630D01*
X781568Y1209644D01*
X781572Y1209657D01*
X781562Y1210042D01*
X781557Y1210426D01*
X781551Y1210438D01*
X781551Y1210452D01*
X781394Y1210804D01*
X781242Y1211157D01*
X781232Y1211166D01*
X781227Y1211178D01*
X780947Y1211443D01*
X780671Y1211711D01*
X722421Y1249461D01*
X722047Y1249610D01*
X721684Y1249755D01*
X721683D01*
X721682Y1249755D01*
X721290Y1249750D01*
X720888Y1249745D01*
X720887Y1249744D01*
X720887D01*
X720523Y1249588D01*
X720157Y1249430D01*
X720157Y1249430D01*
X720156Y1249429D01*
X719876Y1249141D01*
X719602Y1248860D01*
X672313Y1176019D01*
X671426Y1175426D01*
X670210Y1173607D01*
X669973Y1172415D01*
X637477Y1122360D01*
X637474Y1122353D01*
X637469Y1122348D01*
X637326Y1121982D01*
X637182Y1121621D01*
X637183Y1121614D01*
X637180Y1121607D01*
X637188Y1121214D01*
X637193Y1120826D01*
X637196Y1120819D01*
X637196Y1120811D01*
X637354Y1120452D01*
X637507Y1120095D01*
X637512Y1120090D01*
X637515Y1120083D01*
X637797Y1119812D01*
X638077Y1119540D01*
X638084Y1119537D01*
X638089Y1119532D01*
X698339Y1081032D01*
X698346Y1081029D01*
X698351Y1081024D01*
X698363Y1081020D01*
X698850Y1080076D01*
X698929Y1079602D01*
X698921Y1079545D01*
X620467Y958336D01*
X620465Y958331D01*
X616149Y952248D01*
X610393Y945807D01*
X603952Y940051D01*
X596907Y935052D01*
X589346Y930874D01*
X581366Y927568D01*
X573065Y925177D01*
X564549Y923730D01*
X555924Y923245D01*
X547300Y923730D01*
X538784Y925177D01*
X530483Y927568D01*
X522503Y930874D01*
X514942Y935052D01*
X507897Y940051D01*
X501456Y945807D01*
X495700Y952248D01*
X490702Y959293D01*
X486523Y966853D01*
X483217Y974834D01*
X480826Y983134D01*
X479379Y991650D01*
X478895Y1000275D01*
X479379Y1008900D01*
X480826Y1017416D01*
X483217Y1025716D01*
X486523Y1033697D01*
X487200Y1034922D01*
X757714Y1452881D01*
X757764Y1453008D01*
X757852Y1453114D01*
X758910Y1455083D01*
X759118Y1455765D01*
X761984Y1461270D01*
X766052Y1471093D01*
X769249Y1481232D01*
X771551Y1491612D01*
X772938Y1502153D01*
X773347Y1511518D01*
X773402Y1512775D01*
X773401Y1512787D01*
X773350Y1513250D01*
Y1517525D01*
X774523Y1518011D01*
X797696Y1494839D01*
Y1405000D01*
Y1318661D01*
X751620Y1272585D01*
X750250Y1272858D01*
X748104Y1272431D01*
X746285Y1271215D01*
X745069Y1269396D01*
X744642Y1267250D01*
X745069Y1265104D01*
X746285Y1263285D01*
X748104Y1262069D01*
X750250Y1261642D01*
X752396Y1262069D01*
X754215Y1263285D01*
X755431Y1265104D01*
X755858Y1267250D01*
X755585Y1268620D01*
X760328Y1273363D01*
X761315Y1272553D01*
X761203Y1272386D01*
X760776Y1270240D01*
X761203Y1268094D01*
X762419Y1266275D01*
X764238Y1265060D01*
X766384Y1264633D01*
X768530Y1265060D01*
X770349Y1266275D01*
X771565Y1268094D01*
X771992Y1270240D01*
X771565Y1272386D01*
X770349Y1274206D01*
X768530Y1275421D01*
X766384Y1275848D01*
X764238Y1275421D01*
X764071Y1275310D01*
X763261Y1276296D01*
X773033Y1286068D01*
X774411Y1285650D01*
X774569Y1284854D01*
X775785Y1283035D01*
X777604Y1281819D01*
X779750Y1281392D01*
X781896Y1281819D01*
X783715Y1283035D01*
X784931Y1284854D01*
X785358Y1287000D01*
X784931Y1289146D01*
X783715Y1290965D01*
X781896Y1292181D01*
X781100Y1292339D01*
X780682Y1293717D01*
X802483Y1315517D01*
X803090Y1316427D01*
X803304Y1317500D01*
Y1402196D01*
X807516D01*
X807559Y1401867D01*
X808768Y1398948D01*
X810692Y1396441D01*
X813198Y1394518D01*
X816117Y1393309D01*
X819250Y1392897D01*
X822383Y1393309D01*
X825302Y1394518D01*
X827809Y1396441D01*
X829732Y1398948D01*
X830941Y1401867D01*
X831354Y1405000D01*
X830941Y1408133D01*
X829732Y1411052D01*
X827809Y1413559D01*
X825302Y1415482D01*
X822383Y1416691D01*
X819250Y1417104D01*
X816117Y1416691D01*
X813198Y1415482D01*
X810692Y1413559D01*
X808768Y1411052D01*
X807559Y1408133D01*
X807516Y1407804D01*
X803304D01*
Y1496000D01*
X803090Y1497073D01*
X802483Y1497983D01*
X776840Y1523625D01*
Y1759941D01*
X778110Y1760024D01*
X778185Y1759456D01*
X779494Y1756294D01*
X781578Y1753578D01*
X784294Y1751494D01*
X787456Y1750185D01*
X790850Y1749738D01*
X794244Y1750185D01*
X797406Y1751494D01*
X800122Y1753578D01*
X802206Y1756294D01*
X803515Y1759456D01*
X803962Y1762850D01*
X803515Y1766244D01*
X802206Y1769406D01*
X800122Y1772122D01*
X797406Y1774205D01*
X794244Y1775515D01*
X790850Y1775962D01*
X787456Y1775515D01*
X784294Y1774205D01*
X781578Y1772122D01*
X779494Y1769406D01*
X778185Y1766244D01*
X778110Y1765676D01*
X776840Y1765759D01*
Y1810741D01*
X778110Y1810824D01*
X778185Y1810256D01*
X779494Y1807094D01*
X781578Y1804378D01*
X784294Y1802294D01*
X787456Y1800985D01*
X790850Y1800538D01*
X794244Y1800985D01*
X797406Y1802294D01*
X800122Y1804378D01*
X802206Y1807094D01*
X803515Y1810256D01*
X803962Y1813650D01*
X803515Y1817044D01*
X802206Y1820206D01*
X800122Y1822922D01*
X797406Y1825005D01*
X794244Y1826315D01*
X790850Y1826762D01*
X787456Y1826315D01*
X784294Y1825005D01*
X781578Y1822922D01*
X779494Y1820206D01*
X778185Y1817044D01*
X778110Y1816476D01*
X776840Y1816559D01*
Y1875069D01*
X789717Y1887946D01*
X867614D01*
X868644Y1886676D01*
X868644Y1817082D01*
X868654Y1817032D01*
X868646Y1816982D01*
X868731Y1816644D01*
X868799Y1816301D01*
X867782Y1815546D01*
X866399Y1815127D01*
X863755Y1813714D01*
X861438Y1811812D01*
X859537Y1809495D01*
X858123Y1806852D01*
X857253Y1803983D01*
X856960Y1801000D01*
X856960D01*
X856825Y1799786D01*
X856671Y1798610D01*
X855748Y1796382D01*
X854280Y1794470D01*
X852368Y1793002D01*
X850140Y1792079D01*
X847810Y1791773D01*
X847750Y1791785D01*
X827775D01*
X826732Y1794302D01*
X824809Y1796808D01*
X822302Y1798732D01*
X819383Y1799941D01*
X816250Y1800354D01*
X813117Y1799941D01*
X810198Y1798732D01*
X807691Y1796808D01*
X805768Y1794302D01*
X804559Y1791383D01*
X804146Y1788250D01*
X804559Y1785117D01*
X805768Y1782198D01*
X807691Y1779691D01*
X810198Y1777768D01*
X813117Y1776559D01*
X816250Y1776146D01*
X819383Y1776559D01*
X822302Y1777768D01*
X824809Y1779691D01*
X826732Y1782198D01*
X827775Y1784715D01*
X847750D01*
Y1784705D01*
X850929Y1785018D01*
X853986Y1785945D01*
X856803Y1787451D01*
X859273Y1789478D01*
X861299Y1791947D01*
X862805Y1794764D01*
X863732Y1797821D01*
X864045Y1801000D01*
X864045D01*
X864183Y1802213D01*
X864304Y1803129D01*
X865126Y1805113D01*
X866433Y1806817D01*
X867374Y1807539D01*
X868644Y1806913D01*
X868644Y1621648D01*
X868644Y1621648D01*
X867527Y1620750D01*
X866250D01*
Y1618554D01*
X862750D01*
Y1620750D01*
X851750D01*
Y1610750D01*
X862750D01*
Y1612946D01*
X866250D01*
Y1610750D01*
X866250D01*
Y1609750D01*
X866250D01*
Y1600510D01*
X865854Y1600431D01*
X864035Y1599215D01*
X862819Y1597396D01*
X862392Y1595250D01*
X862819Y1593104D01*
X864035Y1591285D01*
X865854Y1590069D01*
X868000Y1589642D01*
X868706Y1588488D01*
X868717Y1588433D01*
X868783Y1588062D01*
X868795Y1588043D01*
X868799Y1588022D01*
X869008Y1587708D01*
X869211Y1587391D01*
X869229Y1587379D01*
X869241Y1587360D01*
X869491Y1587193D01*
X870200Y1586556D01*
X870319Y1586146D01*
X869892Y1584000D01*
X870319Y1581854D01*
X870199Y1581443D01*
X869491Y1580807D01*
X869241Y1580640D01*
X869229Y1580622D01*
X869211Y1580609D01*
X869008Y1580291D01*
X868799Y1579978D01*
X868795Y1579957D01*
X868783Y1579938D01*
X868717Y1579568D01*
X868644Y1579198D01*
Y1577702D01*
X868644Y1577702D01*
X868799Y1576922D01*
X869241Y1576260D01*
X870139Y1575362D01*
X870800Y1574920D01*
X871581Y1574765D01*
X904588D01*
X904589Y1574765D01*
X905369Y1574920D01*
X906031Y1575362D01*
X911638Y1580970D01*
X912080Y1581631D01*
X912235Y1582411D01*
Y1593500D01*
X912080Y1594280D01*
X911638Y1594942D01*
X910976Y1595384D01*
X910196Y1595539D01*
X909539D01*
Y1598375D01*
X909384Y1599156D01*
X908942Y1599817D01*
X908815Y1601349D01*
X911965Y1604500D01*
X915718D01*
X916461Y1603500D01*
Y1595539D01*
X915804D01*
X915023Y1595384D01*
X914362Y1594942D01*
X913920Y1594280D01*
X913765Y1593500D01*
Y1581451D01*
X913670Y1580973D01*
X913399Y1580567D01*
X906433Y1573601D01*
X906027Y1573330D01*
X905549Y1573235D01*
X870683D01*
X869902Y1573080D01*
X869241Y1572638D01*
X868799Y1571976D01*
X868644Y1571196D01*
X868644Y1455041D01*
X868799Y1454261D01*
X869241Y1453599D01*
X869902Y1453157D01*
X870683Y1453002D01*
X925653Y1453002D01*
X925906Y1451732D01*
X924698Y1451232D01*
X922191Y1449308D01*
X920268Y1446802D01*
X919059Y1443883D01*
X918646Y1440750D01*
X919059Y1437617D01*
X920268Y1434698D01*
X922191Y1432191D01*
X924698Y1430268D01*
X927617Y1429059D01*
X930750Y1428646D01*
X933883Y1429059D01*
X936802Y1430268D01*
X939308Y1432191D01*
X941232Y1434698D01*
X942441Y1437617D01*
X942854Y1440750D01*
X942441Y1443883D01*
X941399Y1446400D01*
X943964Y1448965D01*
X956100D01*
Y1440500D01*
X965465D01*
Y1407800D01*
X965734Y1406447D01*
X966501Y1405300D01*
X987417Y1384384D01*
X986583Y1382372D01*
X986205Y1379500D01*
X986583Y1376628D01*
X987691Y1373953D01*
X989455Y1371655D01*
X991753Y1369892D01*
X994428Y1368783D01*
X997300Y1368405D01*
X1000172Y1368783D01*
X1002848Y1369892D01*
X1005145Y1371655D01*
X1006908Y1373953D01*
X1008017Y1376628D01*
X1008395Y1379500D01*
X1008017Y1382372D01*
X1006908Y1385047D01*
X1005145Y1387345D01*
X1002848Y1389108D01*
X1000172Y1390217D01*
X997300Y1390595D01*
X994428Y1390217D01*
X992416Y1389383D01*
X972535Y1409264D01*
Y1440500D01*
X981900D01*
Y1453002D01*
X991500D01*
X991500Y1453002D01*
X992398Y1451886D01*
Y1448000D01*
X1007666D01*
Y1438631D01*
X1004035Y1435000D01*
X992400D01*
Y1418500D01*
X1008600D01*
Y1430135D01*
X1012480Y1434015D01*
X1013750Y1433489D01*
Y1433250D01*
X1019465D01*
Y1431253D01*
X1019035Y1430965D01*
X1017819Y1429146D01*
X1017392Y1427000D01*
X1017819Y1424854D01*
X1019035Y1423035D01*
X1020854Y1421819D01*
X1023000Y1421392D01*
X1025146Y1421819D01*
X1026965Y1423035D01*
X1028181Y1424854D01*
X1028608Y1427000D01*
X1028181Y1429146D01*
X1026965Y1430965D01*
X1026535Y1431253D01*
Y1433250D01*
X1032250D01*
Y1447250D01*
X1014334D01*
Y1450119D01*
X1016176Y1451961D01*
X1074941Y1451961D01*
Y1448451D01*
X1074867Y1448441D01*
X1071948Y1447232D01*
X1069442Y1445309D01*
X1067518Y1442802D01*
X1066309Y1439883D01*
X1065896Y1436750D01*
X1066309Y1433617D01*
X1067518Y1430698D01*
X1069442Y1428192D01*
X1071948Y1426268D01*
X1074867Y1425059D01*
X1078000Y1424646D01*
X1081133Y1425059D01*
X1084052Y1426268D01*
X1086559Y1428192D01*
X1088482Y1430698D01*
X1089691Y1433617D01*
X1090104Y1436750D01*
X1089691Y1439883D01*
X1088482Y1442802D01*
X1086559Y1445309D01*
X1084052Y1447232D01*
X1081133Y1448441D01*
X1081059Y1448451D01*
Y1451063D01*
X1081957Y1451961D01*
X1112000D01*
X1112780Y1452116D01*
X1113442Y1452558D01*
X1113774Y1453055D01*
X1114039Y1453002D01*
X1117548D01*
X1117548Y1453002D01*
X1118446Y1451886D01*
Y1397411D01*
X1112370Y1391335D01*
X1111000Y1391608D01*
X1108854Y1391181D01*
X1107035Y1389965D01*
X1105819Y1388146D01*
X1105392Y1386000D01*
X1105819Y1383854D01*
X1107035Y1382035D01*
X1108854Y1380819D01*
X1111000Y1380392D01*
X1113146Y1380819D01*
X1114965Y1382035D01*
X1116181Y1383854D01*
X1116608Y1386000D01*
X1116335Y1387370D01*
X1123233Y1394267D01*
X1123840Y1395177D01*
X1124054Y1396250D01*
Y1452104D01*
X1124952Y1453002D01*
X1127565D01*
X1128403Y1452047D01*
X1128396Y1452000D01*
X1128809Y1448867D01*
X1130018Y1445948D01*
X1131942Y1443441D01*
X1134448Y1441518D01*
X1137367Y1440309D01*
X1140500Y1439896D01*
X1143633Y1440309D01*
X1146552Y1441518D01*
X1149059Y1443441D01*
X1150982Y1445948D01*
X1151706Y1447696D01*
X1156759D01*
X1157535Y1446535D01*
X1159354Y1445319D01*
X1161500Y1444892D01*
X1163646Y1445319D01*
X1165465Y1446535D01*
X1166681Y1448354D01*
X1167108Y1450500D01*
X1166863Y1451732D01*
X1167854Y1453002D01*
X1175785D01*
X1175785Y1453002D01*
X1176565Y1453157D01*
X1177227Y1453599D01*
X1178125Y1454497D01*
X1178567Y1455159D01*
X1178722Y1455939D01*
X1178722Y1500048D01*
X1178722Y1500048D01*
X1179838Y1500946D01*
X1187750D01*
X1188823Y1501160D01*
X1189733Y1501767D01*
X1198233Y1510267D01*
X1198840Y1511177D01*
X1199054Y1512250D01*
Y1517750D01*
X1199500D01*
Y1519946D01*
X1216250D01*
X1217323Y1520160D01*
X1218233Y1520767D01*
X1228483Y1531017D01*
X1229090Y1531927D01*
X1229304Y1533000D01*
Y1567250D01*
X1229090Y1568323D01*
X1228483Y1569233D01*
X1225483Y1572233D01*
X1224573Y1572840D01*
X1223500Y1573054D01*
X1221408D01*
X1220646Y1574196D01*
X1218744Y1575466D01*
X1217305Y1575753D01*
Y1577047D01*
X1218744Y1577334D01*
X1220646Y1578604D01*
X1221542Y1579946D01*
X1223500D01*
X1224573Y1580160D01*
X1225483Y1580767D01*
X1226733Y1582017D01*
X1227340Y1582927D01*
X1227554Y1584000D01*
Y1585262D01*
X1227814Y1585436D01*
X1228753Y1586842D01*
X1229083Y1588500D01*
X1228753Y1590158D01*
X1227814Y1591564D01*
X1226408Y1592503D01*
X1224750Y1592833D01*
X1223092Y1592503D01*
X1223032Y1592464D01*
X1221994Y1593298D01*
X1222363Y1595149D01*
X1221916Y1597393D01*
X1220646Y1599295D01*
X1218744Y1600566D01*
X1216500Y1601012D01*
X1200000D01*
X1198837Y1600781D01*
X1198355Y1601319D01*
X1199019Y1602482D01*
X1200000Y1602287D01*
X1216500D01*
X1218744Y1602733D01*
X1220646Y1604004D01*
X1221916Y1605906D01*
X1222363Y1608149D01*
X1221916Y1610393D01*
X1220646Y1612295D01*
X1218744Y1613566D01*
X1216500Y1614012D01*
X1212596D01*
X1212211Y1615282D01*
X1212215Y1615285D01*
X1213431Y1617104D01*
X1213858Y1619250D01*
X1213431Y1621396D01*
X1212215Y1623215D01*
X1210396Y1624431D01*
X1208250Y1624858D01*
X1206104Y1624431D01*
X1204285Y1623215D01*
X1203069Y1621396D01*
X1202642Y1619250D01*
X1203069Y1617104D01*
X1204285Y1615285D01*
X1204289Y1615282D01*
X1203904Y1614012D01*
X1200000D01*
X1197757Y1613566D01*
X1197476Y1613378D01*
X1196195Y1614049D01*
X1196090Y1614573D01*
X1195483Y1615483D01*
X1174733Y1636233D01*
X1173823Y1636840D01*
X1172750Y1637054D01*
X1171250D01*
Y1655500D01*
X1167054D01*
Y1688500D01*
X1171250D01*
Y1708000D01*
X1160965D01*
X1159304Y1709661D01*
Y1722000D01*
X1171250D01*
Y1741500D01*
X1167054D01*
Y1774500D01*
X1171250D01*
Y1794000D01*
X1160965D01*
X1158304Y1796661D01*
Y1807000D01*
X1167535D01*
X1180696Y1793839D01*
Y1643238D01*
X1180436Y1643064D01*
X1179497Y1641658D01*
X1179167Y1640000D01*
X1179497Y1638342D01*
X1180436Y1636936D01*
X1181842Y1635997D01*
X1183500Y1635667D01*
X1185158Y1635997D01*
X1186564Y1636936D01*
X1187503Y1638342D01*
X1187833Y1640000D01*
X1187503Y1641658D01*
X1186564Y1643064D01*
X1186304Y1643238D01*
Y1795000D01*
X1186090Y1796073D01*
X1185483Y1796983D01*
X1171250Y1811215D01*
Y1826500D01*
X1167054D01*
Y1859500D01*
X1171250D01*
Y1879000D01*
X1170521D01*
X1169764Y1880270D01*
X1170108Y1882000D01*
X1169681Y1884146D01*
X1168465Y1885965D01*
X1167401Y1886676D01*
X1167787Y1887946D01*
X1233298D01*
X1243426Y1877819D01*
D02*
G37*
G36*
X779563Y1210000D02*
X699437Y1082750D01*
X639188Y1121250D01*
X721312Y1247750D01*
X779563Y1210000D01*
D02*
G37*
G36*
X907500Y1598375D02*
Y1593500D01*
X910196D01*
Y1582411D01*
X904589Y1576804D01*
X871581D01*
X870683Y1577702D01*
Y1579198D01*
X871953Y1579755D01*
X873354Y1578819D01*
X875500Y1578392D01*
X877646Y1578819D01*
X879465Y1580035D01*
X879730Y1580431D01*
X881250D01*
Y1578500D01*
X891250D01*
Y1588963D01*
X892983Y1590695D01*
X893590Y1591605D01*
X893768Y1592500D01*
X901000D01*
Y1594696D01*
X902073Y1594910D01*
X902983Y1595517D01*
X906327Y1598861D01*
X907500Y1598375D01*
D02*
G37*
G36*
X1176683Y1536539D02*
Y1527961D01*
X1175500Y1527750D01*
X1175413Y1527750D01*
X1168500D01*
Y1517750D01*
X1175413D01*
X1176683Y1517539D01*
Y1506554D01*
X1165161D01*
X1155048Y1516667D01*
X1155761Y1517750D01*
X1162500D01*
Y1527750D01*
X1161804D01*
Y1533361D01*
X1161590Y1534434D01*
X1160983Y1535343D01*
X1160750Y1535577D01*
X1161236Y1536750D01*
X1175413D01*
X1176683Y1536539D01*
D02*
G37*
%LPC*%
G36*
X1216750Y1366358D02*
X1214604Y1365931D01*
X1212986Y1364850D01*
X1212561Y1364721D01*
X1211283Y1364754D01*
X1209896Y1365681D01*
X1207750Y1366108D01*
X1205604Y1365681D01*
X1203785Y1364465D01*
X1202965D01*
X1201146Y1365681D01*
X1199000Y1366108D01*
X1196854Y1365681D01*
X1195035Y1364465D01*
X1193819Y1362646D01*
X1193392Y1360500D01*
X1193819Y1358354D01*
X1195035Y1356535D01*
X1196854Y1355319D01*
X1199000Y1354892D01*
X1201146Y1355319D01*
X1202374Y1356140D01*
X1203289Y1355224D01*
X1202569Y1354146D01*
X1202142Y1352000D01*
X1202569Y1349854D01*
X1203785Y1348035D01*
X1205604Y1346819D01*
X1207750Y1346392D01*
X1209896Y1346819D01*
X1211399Y1347823D01*
X1212250Y1347953D01*
X1213101Y1347823D01*
X1214604Y1346819D01*
X1216750Y1346392D01*
X1218896Y1346819D01*
X1220715Y1348035D01*
X1221931Y1349854D01*
X1222358Y1352000D01*
X1221931Y1354146D01*
X1220715Y1355965D01*
Y1356785D01*
X1221931Y1358604D01*
X1222358Y1360750D01*
X1221931Y1362896D01*
X1220715Y1364715D01*
X1218896Y1365931D01*
X1216750Y1366358D01*
D02*
G37*
G36*
X1110500Y1351333D02*
X1108842Y1351003D01*
X1107436Y1350064D01*
X1106497Y1348658D01*
X1106167Y1347000D01*
X1106497Y1345342D01*
X1107436Y1343936D01*
X1108842Y1342997D01*
X1110500Y1342667D01*
X1112158Y1342997D01*
X1113564Y1343936D01*
X1114503Y1345342D01*
X1114833Y1347000D01*
X1114503Y1348658D01*
X1113564Y1350064D01*
X1112158Y1351003D01*
X1110500Y1351333D01*
D02*
G37*
G36*
X1279000Y1319608D02*
X1276854Y1319181D01*
X1275035Y1317965D01*
X1273819Y1316146D01*
X1273392Y1314000D01*
X1273819Y1311854D01*
X1275035Y1310035D01*
X1276854Y1308819D01*
X1279000Y1308392D01*
X1281146Y1308819D01*
X1282965Y1310035D01*
X1284181Y1311854D01*
X1284608Y1314000D01*
X1284181Y1316146D01*
X1282965Y1317965D01*
X1281146Y1319181D01*
X1279000Y1319608D01*
D02*
G37*
G36*
X969750Y1600858D02*
X967604Y1600431D01*
X965785Y1599215D01*
X964569Y1597396D01*
X964142Y1595250D01*
X964569Y1593104D01*
X965785Y1591285D01*
X967604Y1590069D01*
X969750Y1589642D01*
X971896Y1590069D01*
X972822Y1590688D01*
X973737Y1589772D01*
X973319Y1589146D01*
X972892Y1587000D01*
X973319Y1584854D01*
X974039Y1583776D01*
X973124Y1582861D01*
X971896Y1583681D01*
X969750Y1584108D01*
X967604Y1583681D01*
X965785Y1582465D01*
X964569Y1580646D01*
X964142Y1578500D01*
X964569Y1576354D01*
X965785Y1574535D01*
X967604Y1573319D01*
X969750Y1572892D01*
X971896Y1573319D01*
X973715Y1574535D01*
X974137Y1575166D01*
X988500D01*
Y1573750D01*
X1002500D01*
Y1582250D01*
Y1590750D01*
Y1600250D01*
X988500D01*
Y1598584D01*
X974137D01*
X973715Y1599215D01*
X971896Y1600431D01*
X969750Y1600858D01*
D02*
G37*
G36*
X1165000Y1392108D02*
X1162854Y1391681D01*
X1161035Y1390465D01*
X1160305Y1389373D01*
X1158778D01*
X1158215Y1390215D01*
X1156396Y1391431D01*
X1154250Y1391858D01*
X1152104Y1391431D01*
X1150285Y1390215D01*
X1149885Y1389617D01*
X1148615D01*
X1148215Y1390215D01*
X1146396Y1391431D01*
X1144250Y1391858D01*
X1142104Y1391431D01*
X1140285Y1390215D01*
X1139069Y1388396D01*
X1138642Y1386250D01*
X1139069Y1384104D01*
X1140285Y1382285D01*
X1142104Y1381069D01*
X1144250Y1380642D01*
X1146396Y1381069D01*
X1148215Y1382285D01*
X1148615Y1382883D01*
X1149885D01*
X1150285Y1382285D01*
X1150509Y1382135D01*
Y1380865D01*
X1150285Y1380715D01*
X1149069Y1378896D01*
X1148642Y1376750D01*
X1149069Y1374604D01*
X1150285Y1372785D01*
X1152104Y1371569D01*
X1154250Y1371142D01*
X1156396Y1371569D01*
X1158215Y1372785D01*
X1158569Y1373315D01*
X1160097D01*
X1160785Y1372285D01*
X1162604Y1371069D01*
X1164750Y1370642D01*
X1166896Y1371069D01*
X1168715Y1372285D01*
X1169931Y1374104D01*
X1170358Y1376250D01*
X1169931Y1378396D01*
X1168715Y1380215D01*
X1168248Y1380528D01*
Y1382055D01*
X1168965Y1382535D01*
X1170181Y1384354D01*
X1170608Y1386500D01*
X1170181Y1388646D01*
X1168965Y1390465D01*
X1167146Y1391681D01*
X1165000Y1392108D01*
D02*
G37*
G36*
X1082250Y1644000D02*
X1070250D01*
Y1631000D01*
X1072681D01*
Y1627228D01*
X1061953Y1616500D01*
X1051270D01*
X1051000Y1616500D01*
X1050000D01*
X1049730Y1616500D01*
X1035000D01*
Y1605547D01*
X1029703Y1600250D01*
X1017500D01*
Y1590750D01*
Y1582250D01*
Y1573750D01*
X1027703D01*
X1035000Y1566453D01*
Y1555500D01*
X1049730D01*
X1050000Y1555500D01*
X1051000D01*
X1051270Y1555500D01*
X1066000D01*
Y1560431D01*
X1069272D01*
X1070250Y1559453D01*
Y1552000D01*
X1082250D01*
Y1565000D01*
X1074797D01*
X1073273Y1566523D01*
X1072116Y1567297D01*
X1070750Y1567569D01*
X1066000D01*
Y1572500D01*
X1051270D01*
X1051000Y1572500D01*
X1050000D01*
X1049730Y1572500D01*
X1039047D01*
X1035317Y1576230D01*
X1035843Y1577500D01*
X1035921Y1577500D01*
X1049730D01*
X1050000Y1577500D01*
X1051000D01*
X1051270Y1577500D01*
X1066000D01*
Y1588453D01*
X1069120Y1591573D01*
X1070250Y1592000D01*
Y1592000D01*
X1070250Y1592000D01*
X1082250D01*
Y1605000D01*
X1070250D01*
Y1601919D01*
X1069634Y1601797D01*
X1068477Y1601023D01*
X1067270Y1599817D01*
X1066000Y1600343D01*
Y1610453D01*
X1078773Y1623227D01*
X1079547Y1624384D01*
X1079819Y1625750D01*
Y1631000D01*
X1082250D01*
Y1644000D01*
D02*
G37*
G36*
X952500Y1391604D02*
X949367Y1391191D01*
X946448Y1389982D01*
X943941Y1388058D01*
X942018Y1385552D01*
X940809Y1382633D01*
X940766Y1382304D01*
X932741D01*
X931965Y1383465D01*
X930146Y1384681D01*
X928000Y1385108D01*
X925854Y1384681D01*
X924035Y1383465D01*
X922819Y1381646D01*
X922392Y1379500D01*
X922819Y1377354D01*
X924035Y1375535D01*
X925854Y1374319D01*
X928000Y1373892D01*
X930146Y1374319D01*
X931965Y1375535D01*
X932741Y1376696D01*
X940766D01*
X940809Y1376367D01*
X942018Y1373448D01*
X943941Y1370941D01*
X946448Y1369018D01*
X949367Y1367809D01*
X952500Y1367397D01*
X955633Y1367809D01*
X958552Y1369018D01*
X961059Y1370941D01*
X962982Y1373448D01*
X964191Y1376367D01*
X964604Y1379500D01*
X964191Y1382633D01*
X962982Y1385552D01*
X961059Y1388058D01*
X958552Y1389982D01*
X955633Y1391191D01*
X952500Y1391604D01*
D02*
G37*
G36*
X742634Y1319348D02*
X740488Y1318921D01*
X738669Y1317706D01*
X737453Y1315886D01*
X737026Y1313740D01*
X737453Y1311594D01*
X738669Y1309775D01*
X740488Y1308560D01*
X742634Y1308133D01*
X744780Y1308560D01*
X746599Y1309775D01*
X747815Y1311594D01*
X748242Y1313740D01*
X747815Y1315886D01*
X746599Y1317706D01*
X744780Y1318921D01*
X742634Y1319348D01*
D02*
G37*
G36*
X706884Y1254348D02*
X704738Y1253921D01*
X702919Y1252706D01*
X701703Y1250886D01*
X701276Y1248740D01*
X701703Y1246594D01*
X702919Y1244775D01*
X704738Y1243559D01*
X706884Y1243133D01*
X709030Y1243559D01*
X710849Y1244775D01*
X712065Y1246594D01*
X712492Y1248740D01*
X712065Y1250886D01*
X710849Y1252706D01*
X709030Y1253921D01*
X706884Y1254348D01*
D02*
G37*
G36*
X1230250Y1251858D02*
X1228104Y1251431D01*
X1226285Y1250215D01*
X1225069Y1248396D01*
X1224642Y1246250D01*
X1225069Y1244104D01*
X1226285Y1242285D01*
X1228104Y1241069D01*
X1230250Y1240642D01*
X1232396Y1241069D01*
X1234215Y1242285D01*
X1235431Y1244104D01*
X1235858Y1246250D01*
X1235431Y1248396D01*
X1234215Y1250215D01*
X1232396Y1251431D01*
X1230250Y1251858D01*
D02*
G37*
G36*
X1278750Y1264108D02*
X1276604Y1263681D01*
X1274785Y1262465D01*
X1273569Y1260646D01*
X1273142Y1258500D01*
X1273569Y1256354D01*
X1274785Y1254535D01*
X1276604Y1253319D01*
X1278750Y1252892D01*
X1280896Y1253319D01*
X1282715Y1254535D01*
X1283931Y1256354D01*
X1284358Y1258500D01*
X1283931Y1260646D01*
X1282715Y1262465D01*
X1280896Y1263681D01*
X1278750Y1264108D01*
D02*
G37*
G36*
X1314750Y1254608D02*
X1312604Y1254181D01*
X1310785Y1252965D01*
X1309569Y1251146D01*
X1309142Y1249000D01*
X1309569Y1246854D01*
X1310785Y1245035D01*
X1312604Y1243819D01*
X1314750Y1243392D01*
X1316896Y1243819D01*
X1318715Y1245035D01*
X1319931Y1246854D01*
X1320358Y1249000D01*
X1319931Y1251146D01*
X1318715Y1252965D01*
X1316896Y1254181D01*
X1314750Y1254608D01*
D02*
G37*
G36*
X791384Y1251598D02*
X789238Y1251171D01*
X787419Y1249956D01*
X786203Y1248136D01*
X785776Y1245990D01*
X786203Y1243844D01*
X787419Y1242025D01*
X789238Y1240809D01*
X791384Y1240383D01*
X793530Y1240809D01*
X795349Y1242025D01*
X796565Y1243844D01*
X796992Y1245990D01*
X796565Y1248136D01*
X795349Y1249956D01*
X793530Y1251171D01*
X791384Y1251598D01*
D02*
G37*
G36*
X1460000Y1062098D02*
X1453047Y1061707D01*
X1446182Y1060541D01*
X1439490Y1058613D01*
X1433057Y1055948D01*
X1426962Y1052580D01*
X1421283Y1048550D01*
X1416090Y1043910D01*
X1411450Y1038717D01*
X1407420Y1033038D01*
X1404052Y1026943D01*
X1401387Y1020510D01*
X1399459Y1013818D01*
X1398293Y1006953D01*
X1397902Y1000000D01*
X1398293Y993047D01*
X1399459Y986182D01*
X1401387Y979490D01*
X1404052Y973057D01*
X1407420Y966962D01*
X1411450Y961283D01*
X1416090Y956090D01*
X1421283Y951450D01*
X1426962Y947420D01*
X1433057Y944052D01*
X1439490Y941387D01*
X1446182Y939459D01*
X1453047Y938293D01*
X1460000Y937902D01*
X1466953Y938293D01*
X1473818Y939459D01*
X1480510Y941387D01*
X1486943Y944052D01*
X1493038Y947420D01*
X1498717Y951450D01*
X1503910Y956090D01*
X1508550Y961283D01*
X1512580Y966962D01*
X1515948Y973057D01*
X1518613Y979490D01*
X1520541Y986182D01*
X1521707Y993047D01*
X1522098Y1000000D01*
X1521707Y1006953D01*
X1520541Y1013818D01*
X1518613Y1020510D01*
X1515948Y1026943D01*
X1512580Y1033038D01*
X1508550Y1038717D01*
X1503910Y1043910D01*
X1498717Y1048550D01*
X1493038Y1052580D01*
X1486943Y1055948D01*
X1480510Y1058613D01*
X1473818Y1060541D01*
X1466953Y1061707D01*
X1460000Y1062098D01*
D02*
G37*
G36*
X560000D02*
X553047Y1061707D01*
X546182Y1060541D01*
X539490Y1058613D01*
X533057Y1055948D01*
X526962Y1052580D01*
X521283Y1048550D01*
X516090Y1043910D01*
X511450Y1038717D01*
X507420Y1033038D01*
X504052Y1026943D01*
X501387Y1020510D01*
X499459Y1013818D01*
X498293Y1006953D01*
X497902Y1000000D01*
X498293Y993047D01*
X499459Y986182D01*
X501387Y979490D01*
X504052Y973057D01*
X507420Y966962D01*
X511450Y961283D01*
X516090Y956090D01*
X521283Y951450D01*
X526962Y947420D01*
X533057Y944052D01*
X539490Y941387D01*
X546182Y939459D01*
X553047Y938293D01*
X560000Y937902D01*
X566953Y938293D01*
X573818Y939459D01*
X580510Y941387D01*
X586943Y944052D01*
X593038Y947420D01*
X598717Y951450D01*
X603910Y956090D01*
X608550Y961283D01*
X612580Y966962D01*
X615948Y973057D01*
X618613Y979490D01*
X620541Y986182D01*
X621707Y993047D01*
X622098Y1000000D01*
X621707Y1006953D01*
X620541Y1013818D01*
X618613Y1020510D01*
X615948Y1026943D01*
X612580Y1033038D01*
X608550Y1038717D01*
X603910Y1043910D01*
X598717Y1048550D01*
X593038Y1052580D01*
X586943Y1055948D01*
X580510Y1058613D01*
X573818Y1060541D01*
X566953Y1061707D01*
X560000Y1062098D01*
D02*
G37*
G36*
X1242750Y1230858D02*
X1240604Y1230431D01*
X1238785Y1229215D01*
X1237569Y1227396D01*
X1237142Y1225250D01*
X1237569Y1223104D01*
X1238785Y1221285D01*
X1240604Y1220069D01*
X1242750Y1219642D01*
X1244896Y1220069D01*
X1246715Y1221285D01*
X1247931Y1223104D01*
X1248358Y1225250D01*
X1247931Y1227396D01*
X1246715Y1229215D01*
X1244896Y1230431D01*
X1242750Y1230858D01*
D02*
G37*
G36*
X778884Y1230598D02*
X776738Y1230171D01*
X774919Y1228956D01*
X773703Y1227136D01*
X773276Y1224990D01*
X773703Y1222844D01*
X774919Y1221025D01*
X776738Y1219809D01*
X778884Y1219383D01*
X781030Y1219809D01*
X782849Y1221025D01*
X784065Y1222844D01*
X784492Y1224990D01*
X784065Y1227136D01*
X782849Y1228956D01*
X781030Y1230171D01*
X778884Y1230598D01*
D02*
G37*
G36*
X728384Y1273598D02*
X726238Y1273171D01*
X724419Y1271956D01*
X723203Y1270136D01*
X722776Y1267990D01*
X723203Y1265844D01*
X724419Y1264025D01*
X726238Y1262810D01*
X728384Y1262383D01*
X730530Y1262810D01*
X732349Y1264025D01*
X733565Y1265844D01*
X733992Y1267990D01*
X733565Y1270136D01*
X732349Y1271956D01*
X730530Y1273171D01*
X728384Y1273598D01*
D02*
G37*
G36*
X1244500Y1295858D02*
X1242354Y1295431D01*
X1240535Y1294215D01*
X1239319Y1292396D01*
X1238892Y1290250D01*
X1239319Y1288104D01*
X1240535Y1286285D01*
X1242354Y1285069D01*
X1244500Y1284642D01*
X1246646Y1285069D01*
X1248465Y1286285D01*
X1249681Y1288104D01*
X1250108Y1290250D01*
X1249681Y1292396D01*
X1248465Y1294215D01*
X1246646Y1295431D01*
X1244500Y1295858D01*
D02*
G37*
G36*
X1277750Y1289358D02*
X1275604Y1288931D01*
X1273785Y1287715D01*
X1272569Y1285896D01*
X1272142Y1283750D01*
X1272569Y1281604D01*
X1273785Y1279785D01*
X1275604Y1278569D01*
X1277750Y1278142D01*
X1279896Y1278569D01*
X1281715Y1279785D01*
X1282931Y1281604D01*
X1283358Y1283750D01*
X1282931Y1285896D01*
X1281715Y1287715D01*
X1279896Y1288931D01*
X1277750Y1289358D01*
D02*
G37*
G36*
X1266000Y1311108D02*
X1263854Y1310681D01*
X1262035Y1309465D01*
X1260819Y1307646D01*
X1260392Y1305500D01*
X1260819Y1303354D01*
X1262035Y1301535D01*
X1263854Y1300319D01*
X1266000Y1299892D01*
X1268146Y1300319D01*
X1269965Y1301535D01*
X1271181Y1303354D01*
X1271608Y1305500D01*
X1271181Y1307646D01*
X1269965Y1309465D01*
X1268146Y1310681D01*
X1266000Y1311108D01*
D02*
G37*
G36*
X755634Y1310848D02*
X753488Y1310421D01*
X751669Y1309206D01*
X750453Y1307386D01*
X750026Y1305240D01*
X750453Y1303094D01*
X751669Y1301275D01*
X753488Y1300060D01*
X755634Y1299633D01*
X757780Y1300060D01*
X759599Y1301275D01*
X760815Y1303094D01*
X761242Y1305240D01*
X760815Y1307386D01*
X759599Y1309206D01*
X757780Y1310421D01*
X755634Y1310848D01*
D02*
G37*
G36*
X743884Y1289098D02*
X741738Y1288671D01*
X739919Y1287456D01*
X738703Y1285636D01*
X738276Y1283490D01*
X738703Y1281344D01*
X739919Y1279525D01*
X741738Y1278309D01*
X743884Y1277883D01*
X746030Y1278309D01*
X747849Y1279525D01*
X749065Y1281344D01*
X749492Y1283490D01*
X749065Y1285636D01*
X747849Y1287456D01*
X746030Y1288671D01*
X743884Y1289098D01*
D02*
G37*
G36*
X808384Y1274848D02*
X806238Y1274421D01*
X804419Y1273206D01*
X803203Y1271386D01*
X802776Y1269240D01*
X803203Y1267094D01*
X804419Y1265275D01*
X806238Y1264060D01*
X808384Y1263633D01*
X810530Y1264060D01*
X812349Y1265275D01*
X813565Y1267094D01*
X813992Y1269240D01*
X813565Y1271386D01*
X812349Y1273206D01*
X810530Y1274421D01*
X808384Y1274848D01*
D02*
G37*
G36*
X1293250Y1273858D02*
X1291104Y1273431D01*
X1289285Y1272215D01*
X1288069Y1270396D01*
X1287642Y1268250D01*
X1288069Y1266104D01*
X1289285Y1264285D01*
X1291104Y1263069D01*
X1293250Y1262642D01*
X1295396Y1263069D01*
X1297215Y1264285D01*
X1298431Y1266104D01*
X1298858Y1268250D01*
X1298431Y1270396D01*
X1297215Y1272215D01*
X1295396Y1273431D01*
X1293250Y1273858D01*
D02*
G37*
G36*
X1255250Y1276108D02*
X1253104Y1275681D01*
X1251285Y1274465D01*
X1250069Y1272646D01*
X1249642Y1270500D01*
X1250069Y1268354D01*
X1251285Y1266535D01*
X1253104Y1265319D01*
X1255250Y1264892D01*
X1257396Y1265319D01*
X1259215Y1266535D01*
X1260431Y1268354D01*
X1260858Y1270500D01*
X1260431Y1272646D01*
X1259215Y1274465D01*
X1257396Y1275681D01*
X1255250Y1276108D01*
D02*
G37*
G36*
X1213250Y1275108D02*
X1211104Y1274681D01*
X1209285Y1273465D01*
X1208069Y1271646D01*
X1207642Y1269500D01*
X1208069Y1267354D01*
X1209285Y1265535D01*
X1211104Y1264319D01*
X1213250Y1263892D01*
X1215396Y1264319D01*
X1217215Y1265535D01*
X1218431Y1267354D01*
X1218858Y1269500D01*
X1218431Y1271646D01*
X1217215Y1273465D01*
X1215396Y1274681D01*
X1213250Y1275108D01*
D02*
G37*
G36*
X693500Y2115608D02*
X691354Y2115181D01*
X689535Y2113965D01*
X688319Y2112146D01*
X687892Y2110000D01*
X688319Y2107854D01*
X689535Y2106035D01*
X691354Y2104819D01*
X693500Y2104392D01*
X695646Y2104819D01*
X697465Y2106035D01*
X698681Y2107854D01*
X699108Y2110000D01*
X698681Y2112146D01*
X697465Y2113965D01*
X695646Y2115181D01*
X693500Y2115608D01*
D02*
G37*
G36*
X1344500Y2112358D02*
X1342354Y2111931D01*
X1340535Y2110715D01*
X1339319Y2108896D01*
X1338892Y2106750D01*
X1339319Y2104604D01*
X1340535Y2102785D01*
X1342354Y2101569D01*
X1344500Y2101142D01*
X1346646Y2101569D01*
X1348465Y2102785D01*
X1349681Y2104604D01*
X1350108Y2106750D01*
X1349681Y2108896D01*
X1348465Y2110715D01*
X1346646Y2111931D01*
X1344500Y2112358D01*
D02*
G37*
G36*
X1301000Y2121108D02*
X1298854Y2120681D01*
X1297035Y2119465D01*
X1295819Y2117646D01*
X1295392Y2115500D01*
X1295819Y2113354D01*
X1297035Y2111535D01*
X1298854Y2110319D01*
X1301000Y2109892D01*
X1303146Y2110319D01*
X1304965Y2111535D01*
X1306181Y2113354D01*
X1306608Y2115500D01*
X1306181Y2117646D01*
X1304965Y2119465D01*
X1303146Y2120681D01*
X1301000Y2121108D01*
D02*
G37*
G36*
X673000Y2115858D02*
X670854Y2115431D01*
X669035Y2114215D01*
X667819Y2112396D01*
X667392Y2110250D01*
X667819Y2108104D01*
X669035Y2106285D01*
X670854Y2105069D01*
X673000Y2104642D01*
X675146Y2105069D01*
X676965Y2106285D01*
X678181Y2108104D01*
X678608Y2110250D01*
X678181Y2112396D01*
X676965Y2114215D01*
X675146Y2115431D01*
X673000Y2115858D01*
D02*
G37*
G36*
X732000Y2090858D02*
X729854Y2090431D01*
X728035Y2089215D01*
X726819Y2087396D01*
X726392Y2085250D01*
X726819Y2083104D01*
X728035Y2081285D01*
X729854Y2080069D01*
X732000Y2079642D01*
X734146Y2080069D01*
X735965Y2081285D01*
X737181Y2083104D01*
X737608Y2085250D01*
X737181Y2087396D01*
X735965Y2089215D01*
X734146Y2090431D01*
X732000Y2090858D01*
D02*
G37*
G36*
X1253000Y2088608D02*
X1250854Y2088181D01*
X1249035Y2086965D01*
X1247819Y2085146D01*
X1247392Y2083000D01*
X1247819Y2080854D01*
X1249035Y2079035D01*
X1250854Y2077819D01*
X1253000Y2077392D01*
X1255146Y2077819D01*
X1256965Y2079035D01*
X1258181Y2080854D01*
X1258608Y2083000D01*
X1258181Y2085146D01*
X1256965Y2086965D01*
X1255146Y2088181D01*
X1253000Y2088608D01*
D02*
G37*
G36*
X757750Y2102608D02*
X755604Y2102181D01*
X753785Y2100965D01*
X752569Y2099146D01*
X752142Y2097000D01*
X752569Y2094854D01*
X753785Y2093035D01*
X755604Y2091819D01*
X757750Y2091392D01*
X759896Y2091819D01*
X761715Y2093035D01*
X762931Y2094854D01*
X763358Y2097000D01*
X762931Y2099146D01*
X761715Y2100965D01*
X759896Y2102181D01*
X757750Y2102608D01*
D02*
G37*
G36*
X783000Y2096608D02*
X780854Y2096181D01*
X779035Y2094965D01*
X777819Y2093146D01*
X777392Y2091000D01*
X777819Y2088854D01*
X779035Y2087035D01*
X780854Y2085819D01*
X783000Y2085392D01*
X785146Y2085819D01*
X786965Y2087035D01*
X788181Y2088854D01*
X788608Y2091000D01*
X788181Y2093146D01*
X786965Y2094965D01*
X785146Y2096181D01*
X783000Y2096608D01*
D02*
G37*
G36*
X641023Y2282288D02*
X641017Y2282286D01*
X641010Y2282286D01*
X640646Y2282144D01*
X640280Y2282004D01*
X640275Y2281999D01*
X640268Y2281997D01*
X580019Y2243497D01*
X580013Y2243491D01*
X580006Y2243489D01*
X579726Y2243216D01*
X579445Y2242946D01*
X579441Y2242939D01*
X579436Y2242934D01*
X579282Y2242574D01*
X579125Y2242217D01*
X579125Y2242209D01*
X579122Y2242202D01*
X579117Y2241810D01*
X579109Y2241421D01*
X579112Y2241414D01*
X579111Y2241407D01*
X579256Y2241044D01*
X579398Y2240680D01*
X579403Y2240675D01*
X579406Y2240668D01*
X661531Y2114168D01*
X661813Y2113879D01*
X662085Y2113599D01*
X662086Y2113598D01*
X662086Y2113598D01*
X662466Y2113435D01*
X662816Y2113284D01*
X662816D01*
X662817Y2113284D01*
X663235Y2113278D01*
X663611Y2113273D01*
X663612Y2113273D01*
X663613D01*
X663990Y2113423D01*
X664351Y2113567D01*
X722600Y2151317D01*
X722876Y2151585D01*
X723156Y2151850D01*
X723161Y2151862D01*
X723171Y2151872D01*
X723323Y2152224D01*
X723480Y2152576D01*
X723480Y2152590D01*
X723486Y2152602D01*
X723491Y2152987D01*
X723502Y2153372D01*
X723497Y2153384D01*
X723497Y2153398D01*
X723354Y2153756D01*
X723217Y2154115D01*
X643092Y2281365D01*
X643087Y2281370D01*
X643085Y2281376D01*
X642813Y2281659D01*
X642545Y2281942D01*
X642539Y2281945D01*
X642534Y2281950D01*
X642175Y2282108D01*
X641818Y2282267D01*
X641812Y2282267D01*
X641805Y2282270D01*
X641416Y2282278D01*
X641023Y2282288D01*
D02*
G37*
G36*
X726000Y2170108D02*
X723854Y2169681D01*
X722035Y2168465D01*
X720819Y2166646D01*
X720392Y2164500D01*
X720819Y2162354D01*
X722035Y2160535D01*
X723854Y2159319D01*
X726000Y2158892D01*
X728146Y2159319D01*
X729965Y2160535D01*
X731181Y2162354D01*
X731608Y2164500D01*
X731181Y2166646D01*
X729965Y2168465D01*
X728146Y2169681D01*
X726000Y2170108D01*
D02*
G37*
G36*
X1460000Y2462098D02*
X1453047Y2461707D01*
X1446182Y2460541D01*
X1439490Y2458613D01*
X1433057Y2455948D01*
X1426962Y2452580D01*
X1421283Y2448550D01*
X1416090Y2443910D01*
X1411450Y2438717D01*
X1407420Y2433038D01*
X1404052Y2426943D01*
X1401387Y2420510D01*
X1399459Y2413818D01*
X1398293Y2406953D01*
X1397902Y2400000D01*
X1398293Y2393047D01*
X1399459Y2386182D01*
X1401387Y2379490D01*
X1404052Y2373057D01*
X1407420Y2366962D01*
X1411450Y2361283D01*
X1416090Y2356090D01*
X1421283Y2351450D01*
X1426962Y2347420D01*
X1433057Y2344052D01*
X1439490Y2341387D01*
X1446182Y2339459D01*
X1453047Y2338293D01*
X1460000Y2337902D01*
X1466953Y2338293D01*
X1473818Y2339459D01*
X1480510Y2341387D01*
X1486943Y2344052D01*
X1493038Y2347420D01*
X1498717Y2351450D01*
X1503910Y2356090D01*
X1508550Y2361283D01*
X1512580Y2366962D01*
X1515948Y2373057D01*
X1518613Y2379490D01*
X1520541Y2386182D01*
X1521707Y2393047D01*
X1522098Y2400000D01*
X1521707Y2406953D01*
X1520541Y2413818D01*
X1518613Y2420510D01*
X1515948Y2426943D01*
X1512580Y2433038D01*
X1508550Y2438717D01*
X1503910Y2443910D01*
X1498717Y2448550D01*
X1493038Y2452580D01*
X1486943Y2455948D01*
X1480510Y2458613D01*
X1473818Y2460541D01*
X1466953Y2461707D01*
X1460000Y2462098D01*
D02*
G37*
G36*
X560000D02*
X553047Y2461707D01*
X546182Y2460541D01*
X539490Y2458613D01*
X533057Y2455948D01*
X526962Y2452580D01*
X521283Y2448550D01*
X516090Y2443910D01*
X511450Y2438717D01*
X507420Y2433038D01*
X504052Y2426943D01*
X501387Y2420510D01*
X499459Y2413818D01*
X498293Y2406953D01*
X497902Y2400000D01*
X498293Y2393047D01*
X499459Y2386182D01*
X501387Y2379490D01*
X504052Y2373057D01*
X507420Y2366962D01*
X511450Y2361283D01*
X516090Y2356090D01*
X521283Y2351450D01*
X526962Y2347420D01*
X533057Y2344052D01*
X539490Y2341387D01*
X546182Y2339459D01*
X553047Y2338293D01*
X560000Y2337902D01*
X566953Y2338293D01*
X573818Y2339459D01*
X580510Y2341387D01*
X586943Y2344052D01*
X593038Y2347420D01*
X598717Y2351450D01*
X603910Y2356090D01*
X608550Y2361283D01*
X612580Y2366962D01*
X615948Y2373057D01*
X618613Y2379490D01*
X620541Y2386182D01*
X621707Y2393047D01*
X622098Y2400000D01*
X621707Y2406953D01*
X620541Y2413818D01*
X618613Y2420510D01*
X615948Y2426943D01*
X612580Y2433038D01*
X608550Y2438717D01*
X603910Y2443910D01*
X598717Y2448550D01*
X593038Y2452580D01*
X586943Y2455948D01*
X580510Y2458613D01*
X573818Y2460541D01*
X566953Y2461707D01*
X560000Y2462098D01*
D02*
G37*
G36*
X1275500Y2125108D02*
X1273354Y2124681D01*
X1271535Y2123465D01*
X1270319Y2121646D01*
X1269892Y2119500D01*
X1270319Y2117354D01*
X1271535Y2115535D01*
X1273354Y2114319D01*
X1275500Y2113892D01*
X1277646Y2114319D01*
X1279465Y2115535D01*
X1280681Y2117354D01*
X1281108Y2119500D01*
X1280681Y2121646D01*
X1279465Y2123465D01*
X1277646Y2124681D01*
X1275500Y2125108D01*
D02*
G37*
G36*
X1377227Y2280788D02*
X1376834Y2280778D01*
X1376445Y2280770D01*
X1376438Y2280767D01*
X1376432Y2280767D01*
X1376073Y2280607D01*
X1375716Y2280450D01*
X1375711Y2280445D01*
X1375705Y2280443D01*
X1375436Y2280158D01*
X1375165Y2279876D01*
X1375163Y2279870D01*
X1375158Y2279865D01*
X1322400Y2196077D01*
X1321426Y2195427D01*
X1320211Y2193608D01*
X1319918Y2192136D01*
X1295033Y2152615D01*
X1294895Y2152255D01*
X1294753Y2151898D01*
X1294753Y2151884D01*
X1294748Y2151872D01*
X1294759Y2151486D01*
X1294764Y2151102D01*
X1294770Y2151090D01*
X1294770Y2151076D01*
X1294927Y2150724D01*
X1295079Y2150372D01*
X1295089Y2150362D01*
X1295094Y2150350D01*
X1295374Y2150085D01*
X1295650Y2149817D01*
X1353900Y2112067D01*
X1354274Y2111918D01*
X1354637Y2111773D01*
X1354638D01*
X1354639Y2111773D01*
X1355031Y2111778D01*
X1355433Y2111784D01*
X1355434Y2111784D01*
X1355434D01*
X1355798Y2111941D01*
X1356164Y2112098D01*
X1356164Y2112099D01*
X1356165Y2112099D01*
X1356445Y2112387D01*
X1356719Y2112668D01*
X1417487Y2206271D01*
X1417538Y2206281D01*
X1419357Y2207496D01*
X1420572Y2209316D01*
X1420999Y2211462D01*
X1420966Y2211630D01*
X1438844Y2239168D01*
X1438847Y2239175D01*
X1438852Y2239180D01*
X1438995Y2239546D01*
X1439139Y2239907D01*
X1439138Y2239914D01*
X1439141Y2239921D01*
X1439133Y2240314D01*
X1439128Y2240703D01*
X1439125Y2240709D01*
X1439125Y2240717D01*
X1438967Y2241077D01*
X1438814Y2241434D01*
X1438808Y2241439D01*
X1438806Y2241446D01*
X1438524Y2241716D01*
X1438244Y2241989D01*
X1438237Y2241991D01*
X1438232Y2241997D01*
X1377982Y2280497D01*
X1377975Y2280499D01*
X1377970Y2280504D01*
X1377605Y2280644D01*
X1377240Y2280786D01*
X1377233Y2280786D01*
X1377227Y2280788D01*
D02*
G37*
G36*
X1291500Y2148108D02*
X1289354Y2147681D01*
X1287535Y2146465D01*
X1286319Y2144646D01*
X1285892Y2142500D01*
X1286319Y2140354D01*
X1287535Y2138535D01*
X1289354Y2137319D01*
X1291500Y2136892D01*
X1293646Y2137319D01*
X1295465Y2138535D01*
X1296681Y2140354D01*
X1297108Y2142500D01*
X1296681Y2144646D01*
X1295465Y2146465D01*
X1293646Y2147681D01*
X1291500Y2148108D01*
D02*
G37*
G36*
X742250Y2131858D02*
X740104Y2131431D01*
X738285Y2130215D01*
X737069Y2128396D01*
X736642Y2126250D01*
X737069Y2124104D01*
X738285Y2122285D01*
X740104Y2121069D01*
X742250Y2120642D01*
X744396Y2121069D01*
X746215Y2122285D01*
X747431Y2124104D01*
X747858Y2126250D01*
X747431Y2128396D01*
X746215Y2130215D01*
X744396Y2131431D01*
X742250Y2131858D01*
D02*
G37*
G36*
X1203250Y1794000D02*
X1189250D01*
Y1774500D01*
X1190229D01*
X1190986Y1773230D01*
X1190642Y1771500D01*
X1191069Y1769354D01*
X1192285Y1767535D01*
X1194104Y1766319D01*
X1196250Y1765892D01*
X1198396Y1766319D01*
X1200215Y1767535D01*
X1201431Y1769354D01*
X1201858Y1771500D01*
X1201514Y1773230D01*
X1202271Y1774500D01*
X1203250D01*
Y1794000D01*
D02*
G37*
G36*
X841650Y1775962D02*
X838256Y1775515D01*
X835094Y1774205D01*
X832378Y1772122D01*
X830294Y1769406D01*
X828985Y1766244D01*
X828538Y1762850D01*
X828985Y1759456D01*
X830294Y1756294D01*
X832378Y1753578D01*
X835094Y1751494D01*
X838256Y1750185D01*
X841650Y1749738D01*
X845044Y1750185D01*
X848206Y1751494D01*
X850922Y1753578D01*
X853006Y1756294D01*
X854315Y1759456D01*
X854762Y1762850D01*
X854315Y1766244D01*
X853006Y1769406D01*
X850922Y1772122D01*
X848206Y1774205D01*
X845044Y1775515D01*
X841650Y1775962D01*
D02*
G37*
G36*
X1196750Y1835108D02*
X1194604Y1834681D01*
X1192785Y1833465D01*
X1191569Y1831646D01*
X1191142Y1829500D01*
X1191486Y1827770D01*
X1190729Y1826500D01*
X1189250D01*
Y1807000D01*
X1203250D01*
Y1826500D01*
X1202771D01*
X1202014Y1827770D01*
X1202358Y1829500D01*
X1201931Y1831646D01*
X1200715Y1833465D01*
X1198896Y1834681D01*
X1196750Y1835108D01*
D02*
G37*
G36*
X841650Y1826762D02*
X838256Y1826315D01*
X835094Y1825005D01*
X832378Y1822922D01*
X830294Y1820206D01*
X828985Y1817044D01*
X828538Y1813650D01*
X828985Y1810256D01*
X830294Y1807094D01*
X832378Y1804378D01*
X835094Y1802294D01*
X838256Y1800985D01*
X841650Y1800538D01*
X845044Y1800985D01*
X848206Y1802294D01*
X850922Y1804378D01*
X853006Y1807094D01*
X854315Y1810256D01*
X854762Y1813650D01*
X854315Y1817044D01*
X853006Y1820206D01*
X850922Y1822922D01*
X848206Y1825005D01*
X845044Y1826315D01*
X841650Y1826762D01*
D02*
G37*
G36*
X975000Y1674604D02*
X971867Y1674191D01*
X968948Y1672982D01*
X966441Y1671059D01*
X964518Y1668552D01*
X963309Y1665633D01*
X962896Y1662500D01*
X963309Y1659367D01*
X964518Y1656448D01*
X966441Y1653941D01*
X968948Y1652018D01*
X971867Y1650809D01*
X975000Y1650396D01*
X978133Y1650809D01*
X981052Y1652018D01*
X983559Y1653941D01*
X985482Y1656448D01*
X986691Y1659367D01*
X986734Y1659696D01*
X988000D01*
X989073Y1659910D01*
X989983Y1660517D01*
X993693Y1664228D01*
X994000Y1664167D01*
X995658Y1664497D01*
X997064Y1665436D01*
X998003Y1666842D01*
X998333Y1668500D01*
X998003Y1670158D01*
X997064Y1671564D01*
X995658Y1672503D01*
X994000Y1672833D01*
X992342Y1672503D01*
X990936Y1671564D01*
X989997Y1670158D01*
X989667Y1668500D01*
X989728Y1668193D01*
X987803Y1666268D01*
X986305Y1666566D01*
X985482Y1668552D01*
X983559Y1671059D01*
X981052Y1672982D01*
X978133Y1674191D01*
X975000Y1674604D01*
D02*
G37*
G36*
X1196250Y1664358D02*
X1194104Y1663931D01*
X1192285Y1662715D01*
X1191069Y1660896D01*
X1190642Y1658750D01*
X1191036Y1656770D01*
X1190824Y1656146D01*
X1190479Y1655500D01*
X1189250D01*
Y1636000D01*
X1203250D01*
Y1655500D01*
X1202021D01*
X1201676Y1656146D01*
X1201464Y1656770D01*
X1201858Y1658750D01*
X1201431Y1660896D01*
X1200215Y1662715D01*
X1198396Y1663931D01*
X1196250Y1664358D01*
D02*
G37*
G36*
X1196500Y1750608D02*
X1194354Y1750181D01*
X1192535Y1748965D01*
X1191319Y1747146D01*
X1190892Y1745000D01*
X1191319Y1742854D01*
X1191476Y1742620D01*
X1190877Y1741500D01*
X1189250D01*
Y1722000D01*
X1203250D01*
Y1741500D01*
X1202123D01*
X1201525Y1742620D01*
X1201681Y1742854D01*
X1202108Y1745000D01*
X1201681Y1747146D01*
X1200465Y1748965D01*
X1198646Y1750181D01*
X1196500Y1750608D01*
D02*
G37*
G36*
X1203250Y1708000D02*
X1189250D01*
Y1688500D01*
X1190479D01*
X1190825Y1687853D01*
X1191036Y1687230D01*
X1190642Y1685250D01*
X1191069Y1683104D01*
X1192285Y1681285D01*
X1194104Y1680069D01*
X1196250Y1679642D01*
X1198396Y1680069D01*
X1200215Y1681285D01*
X1201431Y1683104D01*
X1201858Y1685250D01*
X1201464Y1687230D01*
X1201675Y1687853D01*
X1202021Y1688500D01*
X1203250D01*
Y1708000D01*
D02*
G37*
G36*
X711000Y2055358D02*
X708854Y2054931D01*
X707035Y2053715D01*
X705819Y2051896D01*
X705392Y2049750D01*
X705819Y2047604D01*
X707035Y2045785D01*
X708854Y2044569D01*
X711000Y2044142D01*
X713146Y2044569D01*
X714965Y2045785D01*
X716181Y2047604D01*
X716608Y2049750D01*
X716181Y2051896D01*
X714965Y2053715D01*
X713146Y2054931D01*
X711000Y2055358D01*
D02*
G37*
G36*
X1305500Y2053108D02*
X1303354Y2052681D01*
X1301535Y2051465D01*
X1300319Y2049646D01*
X1299892Y2047500D01*
X1300319Y2045354D01*
X1301535Y2043535D01*
X1303354Y2042319D01*
X1305500Y2041892D01*
X1307646Y2042319D01*
X1309465Y2043535D01*
X1310681Y2045354D01*
X1311108Y2047500D01*
X1310681Y2049646D01*
X1309465Y2051465D01*
X1307646Y2052681D01*
X1305500Y2053108D01*
D02*
G37*
G36*
X1278750Y2081858D02*
X1276604Y2081431D01*
X1274785Y2080215D01*
X1273569Y2078396D01*
X1273142Y2076250D01*
X1273569Y2074104D01*
X1274785Y2072285D01*
X1276604Y2071069D01*
X1278750Y2070642D01*
X1280896Y2071069D01*
X1282715Y2072285D01*
X1283931Y2074104D01*
X1284358Y2076250D01*
X1283931Y2078396D01*
X1282715Y2080215D01*
X1280896Y2081431D01*
X1278750Y2081858D01*
D02*
G37*
G36*
X707250Y2085358D02*
X705104Y2084931D01*
X703285Y2083715D01*
X702069Y2081896D01*
X701642Y2079750D01*
X702069Y2077604D01*
X703285Y2075785D01*
X705104Y2074569D01*
X707250Y2074142D01*
X709396Y2074569D01*
X711215Y2075785D01*
X712431Y2077604D01*
X712858Y2079750D01*
X712431Y2081896D01*
X711215Y2083715D01*
X709396Y2084931D01*
X707250Y2085358D01*
D02*
G37*
G36*
X1315750Y2082108D02*
X1313604Y2081681D01*
X1311785Y2080465D01*
X1310569Y2078646D01*
X1310142Y2076500D01*
X1310569Y2074354D01*
X1311785Y2072535D01*
X1313604Y2071319D01*
X1315750Y2070892D01*
X1317896Y2071319D01*
X1319715Y2072535D01*
X1320931Y2074354D01*
X1321358Y2076500D01*
X1320931Y2078646D01*
X1319715Y2080465D01*
X1317896Y2081681D01*
X1315750Y2082108D01*
D02*
G37*
G36*
X1084000Y1916108D02*
X1081854Y1915681D01*
X1080035Y1914465D01*
X1078819Y1912646D01*
X1078392Y1910500D01*
X1078786Y1908520D01*
X1078575Y1907897D01*
X1078229Y1907250D01*
X1074000D01*
Y1896250D01*
X1094000D01*
Y1907250D01*
X1089771D01*
X1089425Y1907897D01*
X1089214Y1908520D01*
X1089608Y1910500D01*
X1089181Y1912646D01*
X1087965Y1914465D01*
X1086146Y1915681D01*
X1084000Y1916108D01*
D02*
G37*
G36*
X1203250Y1879000D02*
X1189250D01*
Y1859500D01*
X1190877D01*
X1191476Y1858380D01*
X1191319Y1858146D01*
X1190892Y1856000D01*
X1191319Y1853854D01*
X1192535Y1852035D01*
X1194354Y1850819D01*
X1196500Y1850392D01*
X1198646Y1850819D01*
X1200465Y1852035D01*
X1201681Y1853854D01*
X1202108Y1856000D01*
X1201681Y1858146D01*
X1201525Y1858380D01*
X1202123Y1859500D01*
X1203250D01*
Y1879000D01*
D02*
G37*
G36*
X1106750Y1918608D02*
X1104604Y1918181D01*
X1102785Y1916965D01*
X1101569Y1915146D01*
X1101142Y1913000D01*
X1101569Y1910854D01*
X1102785Y1909035D01*
X1103555Y1908520D01*
X1103170Y1907250D01*
X1097000D01*
Y1896250D01*
X1117000D01*
Y1907250D01*
X1110330D01*
X1109945Y1908520D01*
X1110715Y1909035D01*
X1111931Y1910854D01*
X1112358Y1913000D01*
X1111931Y1915146D01*
X1110715Y1916965D01*
X1108896Y1918181D01*
X1106750Y1918608D01*
D02*
G37*
%LPD*%
G36*
X1437133Y2240278D02*
X1355009Y2113778D01*
X1296759Y2151528D01*
X1376884Y2278778D01*
X1437133Y2240278D01*
D02*
G37*
G36*
X721491Y2153028D02*
X663242Y2115278D01*
X581116Y2241778D01*
X641367Y2280278D01*
X721491Y2153028D01*
D02*
G37*
D10*
X872250Y1812750D02*
G03*
X860500Y1801000I0J-11750D01*
G01*
X847750Y1788250D02*
G03*
X860500Y1801000I0J12750D01*
G01*
X974774Y1805500D02*
G03*
X970002Y1800727I0J-4773D01*
G01*
Y1791252D02*
Y1800727D01*
X886750Y1813502D02*
X929252D01*
X872250Y1812750D02*
X886750D01*
X816250Y1788250D02*
X847750D01*
X974774Y1805500D02*
X994750D01*
X944750Y1791000D02*
X959002D01*
Y1791252D01*
X944750Y1791000D02*
Y1791002D01*
X930252D02*
X944750D01*
X930252Y1791000D02*
Y1791002D01*
X904750Y1791500D02*
X919252D01*
X886750D02*
X904750D01*
X886750D02*
Y1792250D01*
Y1812750D02*
Y1813502D01*
X940252Y1815500D02*
X994750D01*
X940252Y1813502D02*
Y1815500D01*
X816250Y1788250D02*
X816311Y1788311D01*
X1085250Y1573500D02*
X1090750D01*
X1096250Y1568000D01*
X1000497Y1489997D02*
X1007998D01*
X1000000Y1489500D02*
X1000497Y1489997D01*
X1023000Y1427000D02*
Y1440250D01*
X1000000Y1480000D02*
X1000498Y1479502D01*
Y1456250D02*
Y1479502D01*
X969000Y1490500D02*
X973250Y1494750D01*
Y1521500D01*
X942500Y1452500D02*
X969000D01*
X930750Y1440750D02*
X942500Y1452500D01*
X969000Y1407800D02*
Y1452500D01*
Y1407800D02*
X997300Y1379500D01*
X969000Y1490500D02*
X982001D01*
X990534Y1499033D01*
X999967D01*
X1000000Y1499000D01*
X969000Y1490500D02*
X979500Y1480000D01*
X1000000D01*
D11*
X605000Y2400000D02*
G03*
X605000Y2400000I-45000J0D01*
G01*
X1505000D02*
G03*
X1505000Y2400000I-45000J0D01*
G01*
Y1000000D02*
G03*
X1505000Y1000000I-45000J0D01*
G01*
X605000D02*
G03*
X605000Y1000000I-45000J0D01*
G01*
D12*
X995500Y1578500D02*
D03*
Y1587000D02*
D03*
Y1595500D02*
D03*
X1024500D02*
D03*
Y1587000D02*
D03*
Y1578500D02*
D03*
D13*
X1172000Y1541750D02*
D03*
X1165500D02*
D03*
X1172000Y1522750D02*
D03*
X1165500D02*
D03*
X1159000Y1541750D02*
D03*
Y1522750D02*
D03*
X1196000Y1541750D02*
D03*
X1189500D02*
D03*
X1196000Y1522750D02*
D03*
X1189500D02*
D03*
X1183000Y1541750D02*
D03*
Y1522750D02*
D03*
X897500Y1616500D02*
D03*
X891000D02*
D03*
X897500Y1597500D02*
D03*
X891000D02*
D03*
X884500Y1616500D02*
D03*
Y1597500D02*
D03*
D14*
X1028500Y1808000D02*
D03*
D15*
X1021000Y1774250D02*
D03*
X1041000Y1841750D02*
D03*
X1011000Y1774250D02*
D03*
X1006000D02*
D03*
X1001000Y1841750D02*
D03*
X1056000D02*
D03*
X1051000D02*
D03*
X1046000D02*
D03*
X1016000Y1774250D02*
D03*
X1031000Y1841750D02*
D03*
X1036000Y1774250D02*
D03*
X1026000Y1841750D02*
D03*
Y1774250D02*
D03*
X1036000Y1841750D02*
D03*
X1031000Y1774250D02*
D03*
X1016000Y1841750D02*
D03*
X1046000Y1774250D02*
D03*
X1051000D02*
D03*
X1056000D02*
D03*
X1001000D02*
D03*
X1006000Y1841750D02*
D03*
X1011000D02*
D03*
X1041000Y1774250D02*
D03*
X1021000Y1841750D02*
D03*
D16*
X994750Y1810500D02*
D03*
Y1815500D02*
D03*
Y1795500D02*
D03*
X1062250Y1790500D02*
D03*
X994750Y1785500D02*
D03*
Y1780500D02*
D03*
X1062250Y1835500D02*
D03*
Y1830500D02*
D03*
Y1825500D02*
D03*
Y1820500D02*
D03*
Y1800500D02*
D03*
Y1805500D02*
D03*
X994750D02*
D03*
Y1800500D02*
D03*
Y1820500D02*
D03*
Y1825500D02*
D03*
Y1830500D02*
D03*
Y1835500D02*
D03*
X1062250Y1780500D02*
D03*
Y1785500D02*
D03*
X994750Y1790500D02*
D03*
X1062250Y1795500D02*
D03*
Y1815500D02*
D03*
Y1810500D02*
D03*
D17*
X1196250Y1645750D02*
D03*
Y1698250D02*
D03*
X1164250D02*
D03*
Y1645750D02*
D03*
X1196250Y1816750D02*
D03*
Y1869250D02*
D03*
X1164250D02*
D03*
Y1816750D02*
D03*
X1196250Y1731750D02*
D03*
Y1784250D02*
D03*
X1164250D02*
D03*
Y1731750D02*
D03*
D18*
X871750Y1604750D02*
D03*
Y1615750D02*
D03*
X971750Y1858250D02*
D03*
Y1869250D02*
D03*
X857250Y1615750D02*
D03*
Y1604750D02*
D03*
X913000Y1609500D02*
D03*
Y1598500D02*
D03*
X1111500Y1558500D02*
D03*
Y1547500D02*
D03*
Y1637500D02*
D03*
Y1626500D02*
D03*
Y1598500D02*
D03*
Y1587500D02*
D03*
X1132000Y1708000D02*
D03*
Y1697000D02*
D03*
X1103500Y1708000D02*
D03*
Y1697000D02*
D03*
X1117750Y1708000D02*
D03*
Y1697000D02*
D03*
X1041000Y1748250D02*
D03*
Y1737250D02*
D03*
X977750Y1830000D02*
D03*
Y1841000D02*
D03*
X963500Y1830000D02*
D03*
Y1841000D02*
D03*
X1055000Y1737250D02*
D03*
Y1748250D02*
D03*
X1069250Y1737500D02*
D03*
Y1748500D02*
D03*
X1100750Y1778750D02*
D03*
Y1789750D02*
D03*
X1086250Y1778750D02*
D03*
Y1789750D02*
D03*
X1100750Y1818000D02*
D03*
Y1807000D02*
D03*
X1086500Y1818000D02*
D03*
Y1807000D02*
D03*
X904750Y1780500D02*
D03*
Y1791500D02*
D03*
X944750Y1791000D02*
D03*
Y1780000D02*
D03*
X973500Y1693500D02*
D03*
Y1704500D02*
D03*
X987500Y1693500D02*
D03*
Y1704500D02*
D03*
X1087000Y1711750D02*
D03*
Y1700750D02*
D03*
X1072500Y1711750D02*
D03*
Y1700750D02*
D03*
X1123250Y1807000D02*
D03*
Y1818000D02*
D03*
X1064000Y1890750D02*
D03*
Y1879750D02*
D03*
X1021250Y1890750D02*
D03*
Y1879750D02*
D03*
X1049750Y1890750D02*
D03*
Y1879750D02*
D03*
X1035500Y1890750D02*
D03*
Y1879750D02*
D03*
D19*
X986750Y1869000D02*
D03*
X1000250Y1858500D02*
D03*
Y1869000D02*
D03*
D20*
X986750Y1858500D02*
D03*
D21*
X1084000Y1846750D02*
D03*
X1107000Y1901750D02*
D03*
Y1846750D02*
D03*
X1084000Y1901750D02*
D03*
D22*
X1096250Y1568000D02*
D03*
Y1549000D02*
D03*
X1076250Y1558500D02*
D03*
X1096250Y1647000D02*
D03*
Y1628000D02*
D03*
X1076250Y1637500D02*
D03*
X1096250Y1608000D02*
D03*
Y1589000D02*
D03*
X1076250Y1598500D02*
D03*
D23*
X1019750Y1707250D02*
D03*
Y1692750D02*
D03*
X1000250Y1707250D02*
D03*
Y1692750D02*
D03*
X1013250Y1707250D02*
D03*
Y1692750D02*
D03*
X1006750Y1707250D02*
D03*
Y1692750D02*
D03*
D24*
X1057500Y1711625D02*
D03*
X1052500D02*
D03*
X1047500D02*
D03*
X1042500D02*
D03*
Y1688380D02*
D03*
X1047500D02*
D03*
X1052500D02*
D03*
X1057500D02*
D03*
D25*
X1040875Y1705000D02*
D03*
Y1695000D02*
D03*
Y1700000D02*
D03*
X1059130D02*
D03*
Y1695000D02*
D03*
Y1705000D02*
D03*
D26*
X1000000Y1499000D02*
D03*
Y1489500D02*
D03*
Y1480000D02*
D03*
X1026000Y1499000D02*
D03*
Y1480000D02*
D03*
D27*
X897250Y1584000D02*
D03*
X886250D02*
D03*
X902500Y1633000D02*
D03*
X913500D02*
D03*
X930252Y1791002D02*
D03*
X919252D02*
D03*
X940252Y1813502D02*
D03*
X929252D02*
D03*
X972000Y1776750D02*
D03*
X961000D02*
D03*
X967250Y1738500D02*
D03*
X956250D02*
D03*
X967250Y1752750D02*
D03*
X956250D02*
D03*
X1097250Y1763250D02*
D03*
X1086250D02*
D03*
X1001750Y1680250D02*
D03*
X1012750D02*
D03*
X1059250Y1675250D02*
D03*
X1048250D02*
D03*
X959002Y1791252D02*
D03*
X970002D02*
D03*
D28*
X1042500Y1564000D02*
D03*
X1058500D02*
D03*
X1042500Y1608000D02*
D03*
X1058500D02*
D03*
X1042500Y1586000D02*
D03*
X1058500D02*
D03*
D29*
X910000Y1701000D02*
D03*
X900750Y1672500D02*
D03*
X936250Y1669500D02*
D03*
X910000Y1725500D02*
D03*
X1005500Y1652250D02*
D03*
X1033750Y1657500D02*
D03*
X1138250Y1741750D02*
D03*
X1088250Y1674000D02*
D03*
X1019750Y1736250D02*
D03*
X975000Y1662500D02*
D03*
X1078000Y1436750D02*
D03*
X1067500Y1379500D02*
D03*
X930750Y1440750D02*
D03*
X952500Y1379500D02*
D03*
X1140500Y1452000D02*
D03*
X1188750Y2006750D02*
D03*
X819250Y1405000D02*
D03*
X1201250Y1403500D02*
D03*
X796250Y2009000D02*
D03*
D30*
X951750Y1829625D02*
D03*
Y1834905D02*
D03*
D31*
X971875Y1764750D02*
D03*
X966595D02*
D03*
D32*
X1071000Y1468250D02*
D03*
Y1509750D02*
D03*
D33*
X1208250Y1608149D02*
D03*
X1169250Y1582750D02*
D03*
Y1595449D02*
D03*
X1208250Y1595149D02*
D03*
X1169250Y1570050D02*
D03*
Y1557351D02*
D03*
X1208250D02*
D03*
Y1570050D02*
D03*
Y1582750D02*
D03*
D34*
X1169250Y1608149D02*
D03*
D35*
X969000Y1490500D02*
D03*
Y1452500D02*
D03*
D36*
X1000500Y1426750D02*
D03*
X1000498Y1456250D02*
D03*
D37*
X1086000Y1745250D02*
D03*
X1106500D02*
D03*
X952750Y1521500D02*
D03*
X973250D02*
D03*
D38*
X886750Y1792250D02*
D03*
Y1812750D02*
D03*
X1023000Y1460750D02*
D03*
Y1440250D02*
D03*
D39*
X1113500Y1665000D02*
Y1677000D01*
X1103750Y1655250D02*
X1113500Y1665000D01*
X1068250Y1655250D02*
X1103750D01*
X1046000Y1633000D02*
X1068250Y1655250D01*
X913500Y1633000D02*
X1046000D01*
X995500Y1707250D02*
X1000250D01*
X962000Y1858250D02*
X971750D01*
X1159000Y1522750D02*
Y1533361D01*
Y1541750D02*
Y1550158D01*
X1193500Y1576750D02*
X1199000Y1582250D01*
X1208450Y1570250D02*
X1223500D01*
X1173375Y1543125D02*
X1175125D01*
X1186500Y1554500D01*
Y1591000D01*
X1182051Y1595449D02*
X1186500Y1591000D01*
X1190000Y1591750D02*
X1193399Y1595149D01*
X1190000Y1552500D02*
Y1591750D01*
X1183000Y1545500D02*
X1190000Y1552500D01*
X1193500Y1554658D02*
Y1576750D01*
Y1554658D02*
X1196000Y1552158D01*
Y1541750D02*
Y1552158D01*
X1183000Y1541750D02*
Y1545500D01*
X1234460Y1890750D02*
X1246230Y1878980D01*
Y1518980D02*
Y1878980D01*
X1233000Y1505750D02*
X1246230Y1518980D01*
X774036Y1876230D02*
X788556Y1890750D01*
X774036Y1522464D02*
Y1876230D01*
Y1522464D02*
X800500Y1496000D01*
X1043039Y1867000D02*
X1046538Y1870500D01*
X1043000Y1867000D02*
X1043039D01*
X1031000Y1855000D02*
X1043000Y1867000D01*
X1041589Y1870500D02*
X1045089Y1874000D01*
X1041550Y1870500D02*
X1041589D01*
X1026000Y1854950D02*
X1041550Y1870500D01*
X1041750Y1875650D02*
X1045851Y1879750D01*
X1041750Y1875611D02*
Y1875650D01*
X1040139Y1874000D02*
X1041750Y1875611D01*
X1040101Y1874000D02*
X1040139D01*
X1021000Y1854899D02*
X1040101Y1874000D01*
X1026000Y1841750D02*
Y1854950D01*
X1045851Y1879750D02*
X1049750D01*
X1021000Y1841750D02*
Y1854899D01*
X1031000Y1841750D02*
Y1855000D01*
X1016000Y1860250D02*
X1035500Y1879750D01*
X1016000Y1841750D02*
Y1860250D01*
X1012500Y1853000D02*
Y1871000D01*
X1011000Y1851500D02*
X1012500Y1853000D01*
X1011000Y1841750D02*
Y1851500D01*
X1008750Y1854750D02*
Y1866750D01*
X1006000Y1852000D02*
X1008750Y1854750D01*
X1006000Y1841750D02*
Y1852000D01*
X1012500Y1871000D02*
X1021250Y1879750D01*
X1000250Y1869000D02*
X1000750Y1868500D01*
X1007000D01*
X1008750Y1866750D01*
X987770Y1868980D02*
Y1869000D01*
Y1868980D02*
X993750Y1863000D01*
Y1859250D02*
Y1863000D01*
Y1859250D02*
X994500Y1858500D01*
X1000250D01*
X998250Y1841750D02*
X1001000D01*
X987108Y1852892D02*
X998250Y1841750D01*
X987108Y1852892D02*
Y1858142D01*
X971750Y1858250D02*
X972782Y1857218D01*
X976750D01*
X994500Y1839468D01*
Y1835750D02*
Y1839468D01*
X986750Y1858500D02*
X987108Y1858142D01*
X971750Y1869250D02*
Y1877250D01*
X994500Y1835750D02*
X994750Y1835500D01*
X1196500Y1856000D02*
Y1866250D01*
X1196750Y1819250D02*
Y1829500D01*
X1196500Y1734750D02*
Y1745000D01*
X1196250Y1648500D02*
Y1658750D01*
X1196250Y1685250D02*
Y1695500D01*
X800500Y1405000D02*
Y1496000D01*
Y1317500D02*
Y1405000D01*
X750250Y1267250D02*
X800500Y1317500D01*
X788556Y1890750D02*
X1021250D01*
X1162199Y1595449D02*
X1169250D01*
X1189500Y1515000D02*
Y1522750D01*
X1165500Y1515000D02*
Y1522750D01*
X1196000D02*
X1216250D01*
X1208250Y1570050D02*
X1208450Y1570250D01*
X1223500D02*
X1226500Y1567250D01*
Y1533000D02*
Y1567250D01*
X1216250Y1522750D02*
X1226500Y1533000D01*
X1196250Y1771500D02*
Y1781750D01*
X1233000Y1404250D02*
Y1505750D01*
Y1274250D02*
Y1404250D01*
X1232250Y1403500D02*
X1233000Y1404250D01*
X1201250Y1403500D02*
X1232250D01*
X1233000Y1274250D02*
X1252250Y1255000D01*
X1064000Y1890750D02*
X1234460D01*
X800500Y1405000D02*
X819250D01*
X928000Y1379500D02*
X952500D01*
X1142000Y1450500D02*
X1161500D01*
X938750Y1521750D02*
X952500D01*
X1035511Y1842239D02*
X1036000Y1841750D01*
X857250Y1615750D02*
X871750D01*
X913000Y1581250D02*
Y1598500D01*
X905750Y1574000D02*
X913000Y1581250D01*
X868750Y1574000D02*
X905750D01*
X838000Y1604750D02*
X868750Y1574000D01*
X901000Y1597500D02*
X913000Y1609500D01*
X897500Y1597500D02*
X901000D01*
X913000Y1632500D02*
X913500Y1633000D01*
X913000Y1609500D02*
Y1632500D01*
X897250Y1584000D02*
X905000D01*
X902500Y1627500D02*
Y1633000D01*
X897500Y1622500D02*
X902500Y1627500D01*
X897500Y1616500D02*
Y1622500D01*
X884500Y1616500D02*
X891000D01*
X872500D02*
X884500D01*
X868000Y1595250D02*
X871750Y1599000D01*
Y1604750D01*
X838000D02*
X857250D01*
X1084000Y1901750D02*
Y1910500D01*
X1106750Y1902000D02*
X1107000Y1901750D01*
X1106750Y1902000D02*
Y1913000D01*
X1000250Y1869000D02*
X1000607D01*
X986750D02*
X987770D01*
X986250Y1869500D02*
X986750Y1869000D01*
X986250Y1869500D02*
Y1878250D01*
X1062250Y1835500D02*
X1068250D01*
X1079500Y1846750D02*
X1084000D01*
X1051000Y1841750D02*
X1051250Y1842000D01*
X1056000Y1841750D02*
Y1843750D01*
X722000Y2057000D02*
Y2113250D01*
X854750Y1924250D02*
X1002000D01*
X1035500Y1890750D01*
X783250Y1996000D02*
X796250Y2009000D01*
X783000Y1996000D02*
X783250D01*
X722000Y2057000D02*
X783000Y1996000D01*
X854750Y1924250D01*
X1049750Y1890750D02*
Y1897250D01*
X1251000Y2098500D02*
X1316250D01*
X1049750Y1897250D02*
X1174000Y2021500D01*
Y2021500D02*
X1251000Y2098500D01*
X1174000Y2021500D02*
X1188750Y2006750D01*
X1164500Y1869500D02*
Y1882000D01*
X1164250Y1869250D02*
X1164500Y1869500D01*
X1164250Y1816750D02*
Y1869250D01*
X1136500Y1870500D02*
X1155500Y1851500D01*
Y1795500D02*
Y1851500D01*
Y1795500D02*
X1164250Y1786750D01*
Y1784250D02*
Y1786750D01*
Y1731750D02*
Y1784250D01*
X1132083Y1866750D02*
X1152000Y1846833D01*
Y1789550D02*
Y1846833D01*
Y1789550D02*
X1156500Y1785050D01*
X1161250Y1701250D02*
X1164250Y1698250D01*
X1161250Y1701250D02*
Y1703750D01*
X1156500Y1708500D02*
X1161250Y1703750D01*
X1156500Y1708500D02*
Y1785050D01*
X1164250Y1645750D02*
Y1698250D01*
X1041000Y1841750D02*
X1041000Y1841750D01*
Y1850500D01*
X1041000Y1850500D02*
X1041000Y1850500D01*
X1051000Y1841750D02*
Y1849250D01*
X1056250Y1842000D02*
X1063000D01*
X1056000Y1841750D02*
X1056250Y1842000D01*
X1045750Y1774000D02*
X1046000Y1774250D01*
X1035500Y1767750D02*
Y1773750D01*
X1036000Y1774250D01*
X1068250Y1835500D02*
X1079500Y1846750D01*
X1062250Y1820500D02*
X1063000Y1819750D01*
X1062250Y1825500D02*
X1062500Y1825250D01*
X1062250Y1825500D02*
X1069250D01*
X1062250Y1825500D02*
X1062250Y1825500D01*
X1062250Y1820500D02*
X1071321D01*
X1077821Y1827000D01*
X1114250D01*
X1123250Y1818000D01*
X1103500Y1708000D02*
Y1716000D01*
X1132000Y1708000D02*
Y1715250D01*
X1117750Y1708000D02*
Y1715500D01*
X1111500Y1547500D02*
X1127750D01*
X1103500Y1697000D02*
X1109600Y1690900D01*
X1118900D01*
X1208250Y1608149D02*
Y1619250D01*
X1030250Y1769861D02*
Y1773500D01*
X1031000Y1774250D01*
X1005250Y1773500D02*
X1006000Y1774250D01*
X1004299Y1761549D02*
X1010500Y1767750D01*
Y1773750D01*
X1011000Y1774250D01*
X1015250Y1773500D02*
X1016000Y1774250D01*
X1010000Y1760000D02*
X1015250Y1765250D01*
Y1773500D01*
X1025250Y1769811D02*
Y1773500D01*
X1026000Y1774250D01*
X1020250Y1773500D02*
X1021000Y1774250D01*
X1020250Y1769861D02*
Y1773500D01*
X1018750Y1768361D02*
X1020250Y1769861D01*
X1164000Y1503750D02*
X1187750D01*
X1196250Y1512250D01*
Y1522500D01*
X1196000Y1522750D02*
X1196250Y1522500D01*
X1143000Y1524750D02*
X1164000Y1503750D01*
X1146750Y1579500D02*
X1150000Y1582750D01*
X1146750Y1545611D02*
X1159000Y1533361D01*
X1143000Y1524750D02*
Y1587500D01*
X1146750Y1545611D02*
Y1579500D01*
X1156750Y1566750D02*
X1160050Y1570050D01*
X1154500Y1554658D02*
Y1560043D01*
X1156750Y1562293D01*
Y1566750D01*
X1154500Y1554658D02*
X1159000Y1550158D01*
X1152000Y1566000D02*
X1156050Y1570050D01*
X1160050D01*
X1169250D01*
X1160750Y1582750D02*
X1169250D01*
X1150000D02*
X1160750D01*
X1143525Y1619975D02*
X1144000Y1620450D01*
Y1631321D01*
X1146929Y1634250D01*
X1172750D01*
X1193399Y1595149D02*
X1198101D01*
X1200101D02*
X1208250D01*
X1193500Y1601750D02*
X1200101Y1595149D01*
X1193500Y1601750D02*
Y1613500D01*
X1172750Y1634250D02*
X1193500Y1613500D01*
X1169250Y1595449D02*
X1177949D01*
X1187500Y1605000D01*
X1177949Y1595449D02*
X1182051D01*
X1164250Y1814250D02*
Y1816750D01*
Y1814250D02*
X1183500Y1795000D01*
Y1640000D02*
Y1795000D01*
X1052250Y1706250D02*
Y1711375D01*
X1057630Y1688250D02*
X1063500D01*
X987510Y1795500D02*
X994750D01*
X981250Y1789240D02*
X987510Y1795500D01*
X981250Y1746000D02*
Y1789240D01*
X987460Y1790500D02*
X994750D01*
X994000Y1784750D02*
X994750Y1785500D01*
X1040625Y1700250D02*
X1040875Y1700000D01*
X990361Y1784750D02*
X994000D01*
X979750Y1744500D02*
X981250Y1746000D01*
X979750Y1739000D02*
Y1744500D01*
X1034051Y1693050D02*
X1036000Y1695000D01*
X1040875D01*
X1040750Y1681000D02*
X1042500Y1682750D01*
Y1688380D01*
X972250Y1729000D02*
X977000Y1724250D01*
X1006750Y1707250D02*
Y1710500D01*
X1013250Y1707250D02*
Y1709750D01*
X977000Y1724250D02*
X1005500D01*
X1019750Y1710000D01*
Y1707250D02*
Y1710000D01*
Y1692750D02*
Y1696000D01*
X1062250Y1830500D02*
X1094750D01*
X1105500Y1841250D01*
Y1845250D01*
X1107000Y1846750D01*
X927000Y1729000D02*
X972250D01*
X910000Y1725500D02*
X923500D01*
X927000Y1729000D01*
X910000Y1701000D02*
X929500Y1720500D01*
X959000D01*
X959250Y1720750D01*
X974250Y1715750D02*
X981250D01*
X900750Y1672500D02*
X920250D01*
X962500Y1714750D01*
X965750D01*
X936250Y1669500D02*
X945750Y1679000D01*
Y1687250D01*
X974250Y1715750D01*
X1074000Y1688250D02*
X1088250Y1674000D01*
X1063500Y1688250D02*
X1074000D01*
X1034051Y1686332D02*
Y1686653D01*
X1029621Y1691082D02*
X1034051Y1686653D01*
X1025479Y1691082D02*
X1029621D01*
X1034051Y1686653D02*
Y1693050D01*
X1033750Y1681000D02*
X1040750D01*
X1035500Y1705000D02*
X1040875D01*
X1035300Y1700250D02*
X1040625D01*
X1013000Y1727500D02*
X1035500Y1705000D01*
X1052500Y1711625D02*
Y1716000D01*
X1059500Y1723000D01*
X1119500D01*
X1138250Y1741750D01*
X985250Y1788290D02*
X987460Y1790500D01*
X985250Y1742500D02*
X988500Y1739250D01*
X985250Y1742500D02*
Y1788290D01*
X988750Y1783139D02*
X990361Y1784750D01*
X999250Y1741250D02*
X1013000Y1727500D01*
X988750Y1754500D02*
Y1783139D01*
Y1754500D02*
X993250Y1750000D01*
Y1742300D02*
Y1750000D01*
Y1742300D02*
X1035300Y1700250D01*
X979750Y1739000D02*
X987500Y1731250D01*
X975000Y1662500D02*
X988000D01*
X994000Y1668500D01*
X1004500Y1699750D02*
X1016000D01*
X1019750Y1696000D01*
X975250Y1706250D02*
X980750D01*
X973500Y1704500D02*
X975250Y1706250D01*
X1149000Y1618111D02*
Y1629250D01*
X1142306Y1611417D02*
X1149000Y1618111D01*
X1142306Y1601194D02*
Y1611417D01*
Y1601194D02*
X1160750Y1582750D01*
X886250Y1584000D02*
Y1587928D01*
X891000Y1592678D01*
Y1597500D01*
X1035511Y1842239D02*
Y1847150D01*
X1034750Y1847911D02*
X1035511Y1847150D01*
X1034750Y1847911D02*
Y1853089D01*
X1038411Y1856750D01*
X1038502D01*
X1045089Y1874000D02*
X1058250D01*
X1064000Y1879750D01*
X1046538Y1870500D02*
X1136500D01*
X1051000Y1849250D02*
X1054250Y1852500D01*
X1048502Y1866750D02*
X1132083D01*
X1038502Y1856750D02*
X1048502Y1866750D01*
X1046000Y1851750D02*
Y1856750D01*
X1046000Y1841750D02*
Y1851750D01*
X1046000Y1851750D02*
X1046000Y1851750D01*
X981250Y1715750D02*
X982250Y1716750D01*
X1000500D01*
X1006750Y1710500D01*
X959250Y1720750D02*
X1002250D01*
X1013250Y1709750D01*
X1005500Y1652250D02*
X1006089D01*
X1022550Y1668711D01*
X1013000Y1727500D02*
X1019750Y1736250D01*
X1003639Y1768250D02*
X1005250Y1769861D01*
Y1773500D01*
X998750Y1768250D02*
X1003639D01*
X987500Y1704500D02*
X988000Y1705000D01*
X993250Y1779000D02*
X994750Y1780500D01*
X993250Y1757500D02*
Y1779000D01*
Y1757500D02*
X999250Y1751500D01*
Y1741250D02*
Y1751500D01*
X998250Y1764500D02*
Y1767750D01*
X998750Y1768250D01*
X1004299Y1754336D02*
Y1761549D01*
X1010000Y1747250D02*
Y1760000D01*
X1016250Y1759179D02*
X1018750Y1761679D01*
Y1768361D01*
X1016250Y1757000D02*
Y1759179D01*
X1021250Y1750500D02*
Y1759229D01*
X1026550Y1757336D02*
Y1766161D01*
X1021250Y1759229D02*
X1023050Y1761029D01*
Y1767611D01*
X1026550Y1766161D02*
X1030250Y1769861D01*
X1023050Y1767611D02*
X1025250Y1769811D01*
X1022550Y1668711D02*
Y1683629D01*
X1022500Y1683679D02*
X1022550Y1683629D01*
X1022500Y1683679D02*
Y1688103D01*
X1025479Y1691082D01*
X1028000Y1681000D02*
X1033750D01*
Y1657500D02*
Y1681000D01*
X1041000Y1766179D02*
Y1774250D01*
X1036750Y1761929D02*
X1041000Y1766179D01*
X1050250Y1773500D02*
X1051000Y1774250D01*
X1050250Y1768750D02*
X1052500Y1766500D01*
X1050250Y1768750D02*
Y1773500D01*
X1045750Y1761000D02*
Y1774000D01*
X1036750Y1755500D02*
Y1761929D01*
X1123250Y1818000D02*
X1131000D01*
X1137750Y1811250D01*
Y1798851D02*
Y1811250D01*
Y1798851D02*
X1153000Y1783601D01*
X1111500Y1626500D02*
X1116500D01*
X1117750Y1697000D02*
X1125500Y1689250D01*
X1116500Y1626500D02*
X1122000Y1632000D01*
Y1687800D01*
X1118900Y1690900D02*
X1122000Y1687800D01*
X1118500Y1587500D02*
X1125500Y1594500D01*
Y1689250D01*
X1111500Y1587500D02*
X1118500D01*
X1127750Y1547500D02*
X1130000Y1549750D01*
Y1695000D01*
X1132000Y1697000D01*
X1133500Y1672500D02*
X1153000Y1692000D01*
X1133500Y1475250D02*
Y1672500D01*
X1121250Y1463000D02*
X1133500Y1475250D01*
X1121250Y1396250D02*
Y1463000D01*
X1111000Y1386000D02*
X1121250Y1396250D01*
X1153000Y1692000D02*
Y1783601D01*
X1195000Y1588750D02*
X1199000Y1584750D01*
Y1582250D02*
Y1584750D01*
D40*
X1092500Y1695250D02*
Y1695250D01*
X1087000Y1700750D02*
X1092500Y1695250D01*
X1072500Y1700750D02*
X1087000D01*
X1071750Y1700000D02*
X1072500Y1700750D01*
X1059130Y1700000D02*
X1071750D01*
X1059130D02*
Y1705000D01*
X1072500Y1711750D02*
Y1717500D01*
X1047500Y1676000D02*
Y1688380D01*
X1052500D01*
X1057625Y1711750D02*
X1072500D01*
X1057500Y1711625D02*
X1057625Y1711750D01*
X1072500D02*
X1087000D01*
X1012750Y1692250D02*
X1013250Y1692750D01*
X1012750Y1680250D02*
Y1692250D01*
X973500Y1693500D02*
X987500D01*
X988250Y1692750D02*
X1000250D01*
X987500Y1693500D02*
X988250Y1692750D01*
X973500Y1685000D02*
Y1693500D01*
X1012750Y1680250D02*
X1013250Y1679750D01*
X1011000Y1677500D02*
X1013250Y1679750D01*
X1011000Y1669250D02*
Y1677500D01*
X1052500Y1688380D02*
Y1693250D01*
X1054250Y1695000D02*
X1059130D01*
X1052500Y1693250D02*
X1054250Y1695000D01*
X1067250Y1694750D02*
X1068750Y1693250D01*
X1059380Y1694750D02*
X1067250D01*
X1059130Y1695000D02*
X1059380Y1694750D01*
X1068750Y1693250D02*
X1072750D01*
X1078000Y1436750D02*
Y1461250D01*
X1071000Y1468250D02*
X1078000Y1461250D01*
D41*
X1057250Y1729250D02*
X1061500D01*
X1055000Y1731500D02*
X1057250Y1729250D01*
X1055000Y1731500D02*
Y1737250D01*
X1077250Y1795500D02*
X1079250Y1793500D01*
Y1770250D02*
Y1793500D01*
Y1770250D02*
X1086250Y1763250D01*
X986500Y1800500D02*
X994750D01*
X977000Y1791000D02*
X986500Y1800500D01*
X977000Y1781750D02*
Y1791000D01*
X972000Y1776750D02*
X977000Y1781750D01*
X1101839Y1819089D02*
X1111304D01*
X1100750Y1818000D02*
X1101839Y1819089D01*
X1041000Y1748250D02*
X1043250D01*
X1055000Y1737250D02*
X1069000D01*
X1041000D02*
X1055000D01*
X948250Y1738500D02*
X956250D01*
X947000Y1752750D02*
X956250D01*
X971875Y1776625D02*
X972000Y1776750D01*
X967250Y1738500D02*
Y1752750D01*
X936750Y1779750D02*
X944750D01*
X904750Y1772500D02*
Y1780500D01*
X973250Y1845500D02*
X977750Y1841000D01*
X973250Y1845500D02*
Y1849000D01*
X963500Y1841000D02*
Y1848000D01*
X963125Y1829625D02*
X963500Y1830000D01*
X963500Y1830000D01*
X977750D01*
X978250Y1830500D01*
X994750D01*
X1055000Y1748250D02*
X1064000Y1757250D01*
X1055000Y1748250D02*
X1069000D01*
X1070750Y1785500D02*
X1074000Y1782250D01*
Y1753250D02*
Y1782250D01*
X1069250Y1748500D02*
X1074000Y1753250D01*
X1062250Y1785500D02*
X1070750D01*
X994750Y1825500D02*
X1011000D01*
X1046000Y1790500D02*
X1062250D01*
X1106500Y1745250D02*
X1115750D01*
X1097250Y1763250D02*
X1104250D01*
X1100750Y1778750D02*
X1102250Y1777250D01*
X1110750D01*
X1086250Y1778750D02*
X1100750D01*
X1062250Y1795500D02*
X1077250D01*
X1086000Y1763000D02*
X1086250Y1763250D01*
X1086000Y1745250D02*
Y1763000D01*
X1062250Y1800500D02*
X1083500D01*
X1062250Y1805500D02*
X1085000D01*
X1100750Y1807000D02*
X1111250D01*
X1100750Y1789750D02*
X1110000D01*
X1086250D02*
X1100750D01*
X1086250D02*
Y1797750D01*
X1083500Y1800500D02*
X1086250Y1797750D01*
X1086500Y1807000D02*
X1100750D01*
X1085000Y1805500D02*
X1086500Y1807000D01*
X1028000Y1578500D02*
X1042500Y1564000D01*
X1024500Y1578500D02*
X1028000D01*
X1024500Y1587000D02*
X1025500Y1586000D01*
X1042500D01*
X1024500Y1595500D02*
X1030000D01*
X1042500Y1608000D01*
X1058500D02*
X1076250Y1625750D01*
Y1637500D01*
X1058500Y1586000D02*
X1071000Y1598500D01*
X1076250D01*
X1058500Y1564000D02*
X1070750D01*
X1076250Y1558500D01*
X1022700Y1379500D02*
X1067500D01*
X1111500Y1559000D02*
Y1568000D01*
Y1598500D02*
Y1607500D01*
X1085250Y1608000D02*
X1096250D01*
X1111500Y1637500D02*
Y1647500D01*
X1096250Y1628000D02*
X1097750Y1626500D01*
X1111500D01*
X1096250Y1589000D02*
X1097750Y1587500D01*
X1111500D01*
X1096250Y1549000D02*
X1097750Y1547500D01*
X1111500D01*
X1086250Y1818250D02*
X1086500Y1818000D01*
X1078500Y1818250D02*
X1086250D01*
X1111250Y1807000D02*
X1123250D01*
X1086000Y1745250D02*
X1086250Y1745000D01*
X1095500D01*
X1047500Y1676000D02*
X1048250Y1675250D01*
X1168571Y1608828D02*
X1169250Y1608149D01*
X1148556Y1608828D02*
X1168571D01*
X875500Y1584000D02*
X886250D01*
X1043250Y1748250D02*
X1058250Y1763250D01*
Y1772000D01*
X1056000Y1774250D02*
X1058250Y1772000D01*
D42*
X971875Y1764750D02*
Y1776625D01*
X966595Y1753405D02*
Y1764750D01*
X951750Y1834905D02*
Y1842000D01*
Y1829625D02*
X963125D01*
X949250Y1764750D02*
X966595D01*
D43*
X969750Y1578500D02*
X995500D01*
X978500Y1587000D02*
X995500D01*
X1000500Y1426750D02*
X1011000Y1437250D01*
Y1451500D01*
X1020250Y1460750D01*
X1023000D01*
X969750Y1595250D02*
X995500D01*
X1397000Y956750D02*
G03*
X1536000Y1036750I67341J43750D01*
G01*
X1174358Y1300137D02*
G03*
X1117036Y1329989I-55160J-35956D01*
G01*
X1250250Y1513011D02*
G03*
X1264360Y1456924I118485J-12D01*
G01*
X484266Y1036525D02*
G03*
X623266Y956525I71658J-36250D01*
G01*
X901797Y1330073D02*
G03*
X846366Y1301205I-2091J-63639D01*
G01*
X755906Y1456698D02*
G03*
X770016Y1512786I-104375J56076D01*
G01*
X1535750Y2363500D02*
G03*
X1396750Y2443500I-71658J36250D01*
G01*
X1118000Y2070000D02*
G03*
X1173721Y2099019I2102J63971D01*
G01*
X1260856Y1936902D02*
G03*
X1250250Y1894741I78458J-42152D01*
G01*
X770000Y1887238D02*
G03*
X755890Y1943326I-118485J12D01*
G01*
X846279Y2099019D02*
G03*
X902000Y2070000I53619J34952D01*
G01*
X623250Y2443500D02*
G03*
X484250Y2363500I-67341J-43750D01*
G01*
X1260636Y1937022D02*
X1265101Y1945332D01*
X899707Y1330025D02*
X1117036D01*
X1250250Y1513011D02*
Y1894750D01*
X770016Y1513250D02*
Y1887238D01*
X770000Y1513250D02*
X770016D01*
X770000Y1887238D02*
X770016D01*
X902000Y2070000D02*
X1118000D01*
X1174741Y1300131D02*
X1397000Y956750D01*
X1265351Y1454918D02*
X1536000Y1036750D01*
X1264293Y1456887D02*
X1265351Y1454918D01*
X623266Y956525D02*
X846254Y1301032D01*
X484266Y1036525D02*
X754915Y1454692D01*
X755973Y1456661D01*
X1173762Y2098992D02*
X1396750Y2443500D01*
X1265101Y1945332D02*
X1535750Y2363500D01*
X754899Y1945332D02*
X755957Y1943363D01*
X484250Y2363500D02*
X754899Y1945332D01*
X623250Y2443500D02*
X846238Y2098992D01*
D44*
X816250Y1788250D02*
D03*
D45*
X790850Y1813650D02*
D03*
X841650Y1762850D02*
D03*
X790850D02*
D03*
X841650Y1813650D02*
D03*
D46*
X1022700Y1379500D02*
D03*
D47*
X997300D02*
D03*
D48*
X1113500Y1677000D02*
D03*
X1092500Y1695250D02*
D03*
X1065440Y1700000D02*
D03*
X995500Y1707250D02*
D03*
X1072500Y1717500D02*
D03*
X966750Y1808750D02*
D03*
X949000Y1809000D02*
D03*
X921250Y1806750D02*
D03*
X979750Y1822000D02*
D03*
X955500D02*
D03*
X909000Y1820000D02*
D03*
X913750Y1783250D02*
D03*
X912250Y1798250D02*
D03*
X937250D02*
D03*
X952000Y1797500D02*
D03*
X953250Y1783750D02*
D03*
X963000Y1799750D02*
D03*
X976750Y1799000D02*
D03*
X1041000Y1850500D02*
D03*
X1063000Y1842000D02*
D03*
X1035500Y1767750D02*
D03*
X1069250Y1825500D02*
D03*
X1103500Y1716000D02*
D03*
X1132000Y1715250D02*
D03*
X1117750Y1715500D02*
D03*
X1052500Y1766500D02*
D03*
X1052250Y1706250D02*
D03*
X1143525Y1619975D02*
D03*
X1149000Y1629250D02*
D03*
X1143000Y1587500D02*
D03*
X1152000Y1566000D02*
D03*
X1187500Y1605000D02*
D03*
X1183500Y1640000D02*
D03*
X1063500Y1688250D02*
D03*
X1034051Y1686332D02*
D03*
X988500Y1739250D02*
D03*
X981250Y1715750D02*
D03*
X959000Y1720500D02*
D03*
X972250Y1729000D02*
D03*
X1104750Y1832000D02*
D03*
X1067000Y1850750D02*
D03*
X1076250Y1835750D02*
D03*
X1091750Y1838000D02*
D03*
X1123250Y1839250D02*
D03*
X965750Y1714750D02*
D03*
X993250Y1750000D02*
D03*
X987500Y1731250D02*
D03*
X994000Y1668500D02*
D03*
X1004500Y1699750D02*
D03*
X1110500Y1347000D02*
D03*
X980750Y1706250D02*
D03*
X1054250Y1852500D02*
D03*
X1046000Y1856750D02*
D03*
X1010000Y1747250D02*
D03*
X998250Y1764500D02*
D03*
X1004299Y1754336D02*
D03*
X1072750Y1693250D02*
D03*
X1021250Y1750500D02*
D03*
X1016250Y1757000D02*
D03*
X1026550Y1757336D02*
D03*
X1028000Y1681000D02*
D03*
X1045750Y1761000D02*
D03*
X1036750Y1755500D02*
D03*
X1195000Y1588750D02*
D03*
D49*
X1061500Y1729250D02*
D03*
X962000Y1858250D02*
D03*
X1111304Y1819089D02*
D03*
X948250Y1738500D02*
D03*
X947000Y1752750D02*
D03*
X971750Y1877250D02*
D03*
X936750Y1779750D02*
D03*
X904750Y1772500D02*
D03*
X973250Y1849000D02*
D03*
X963500Y1848000D02*
D03*
X951750Y1842000D02*
D03*
X1064000Y1757250D02*
D03*
X1104250Y1763250D02*
D03*
X1115750Y1745250D02*
D03*
X1110750Y1777250D02*
D03*
X1110000Y1789750D02*
D03*
X1111250Y1807000D02*
D03*
X1196500Y1856000D02*
D03*
X1196750Y1829500D02*
D03*
X1196500Y1745000D02*
D03*
X1196250Y1658750D02*
D03*
X1196250Y1685250D02*
D03*
X779750Y1287000D02*
D03*
X742634Y1313740D02*
D03*
X755634Y1305240D02*
D03*
X743884Y1283490D02*
D03*
X766384Y1270240D02*
D03*
X706884Y1248740D02*
D03*
X728384Y1267990D02*
D03*
X808384Y1269240D02*
D03*
X791384Y1245990D02*
D03*
X778884Y1224990D02*
D03*
X750250Y1267250D02*
D03*
X1165500Y1515000D02*
D03*
X1189500Y1515000D02*
D03*
X1196250Y1771500D02*
D03*
X1242750Y1225250D02*
D03*
X1230250Y1246250D02*
D03*
X1213250Y1269500D02*
D03*
X1252250Y1255000D02*
D03*
X1293250Y1268250D02*
D03*
X1314750Y1249000D02*
D03*
X1255250Y1270500D02*
D03*
X1277750Y1283750D02*
D03*
X1266000Y1305500D02*
D03*
X1279000Y1314000D02*
D03*
X1244500Y1290250D02*
D03*
X1278750Y1258500D02*
D03*
X928000Y1379500D02*
D03*
X1161500Y1450500D02*
D03*
X938750Y1521750D02*
D03*
X1111500Y1568000D02*
D03*
X1085250Y1608000D02*
D03*
X1111500Y1607500D02*
D03*
Y1647500D02*
D03*
X1085250Y1573500D02*
D03*
X1076000Y1484000D02*
D03*
X1084000D02*
D03*
X1092000D02*
D03*
X1100000D02*
D03*
X1023000Y1427000D02*
D03*
X1007998Y1489997D02*
D03*
X560000Y1045000D02*
D03*
X515000Y1000000D02*
D03*
X605000D02*
D03*
X560000Y955000D02*
D03*
X527500Y1030000D02*
D03*
X592500Y1027500D02*
D03*
Y970000D02*
D03*
X530000Y967500D02*
D03*
X1430000D02*
D03*
X1492500Y970000D02*
D03*
Y1027500D02*
D03*
X1427500Y1030000D02*
D03*
X1460000Y955000D02*
D03*
X1505000Y1000000D02*
D03*
X1415000D02*
D03*
X1460000Y1045000D02*
D03*
X1430000Y2367500D02*
D03*
X1492500Y2370000D02*
D03*
Y2427500D02*
D03*
X1427500Y2430000D02*
D03*
X1460000Y2355000D02*
D03*
X1505000Y2400000D02*
D03*
X1415000D02*
D03*
X1460000Y2445000D02*
D03*
X530000Y2367500D02*
D03*
X592500Y2370000D02*
D03*
Y2427500D02*
D03*
X527500Y2430000D02*
D03*
X560000Y2355000D02*
D03*
X605000Y2400000D02*
D03*
X515000D02*
D03*
X560000Y2445000D02*
D03*
X969750Y1578500D02*
D03*
X978500Y1587000D02*
D03*
X969750Y1595250D02*
D03*
X665391Y1151461D02*
D03*
X685391Y1111461D02*
D03*
X675391Y1171461D02*
D03*
X695391Y1091461D02*
D03*
X705391Y1111461D02*
D03*
X715391Y1131461D02*
D03*
X725391Y1151461D02*
D03*
X735391Y1171461D02*
D03*
X745391Y1191461D02*
D03*
X735391Y1211461D02*
D03*
X765391Y1191461D02*
D03*
X710000Y1215000D02*
D03*
X1310750Y1215250D02*
D03*
X1265391Y1191461D02*
D03*
X1255391Y1211461D02*
D03*
X1285392Y1151461D02*
D03*
X1275391Y1171461D02*
D03*
X1295392Y1131461D02*
D03*
X1305392Y1151461D02*
D03*
X1295392Y1211461D02*
D03*
X1325392Y1111461D02*
D03*
X1315392Y1131461D02*
D03*
X1325392Y1191461D02*
D03*
X1335392Y1171461D02*
D03*
X651929Y2148028D02*
D03*
X1367571Y2147778D02*
D03*
X1315392Y2171462D02*
D03*
X1325392Y2191462D02*
D03*
X1345392Y2151462D02*
D03*
Y2191462D02*
D03*
X1355392Y2131461D02*
D03*
Y2211462D02*
D03*
X1395392D02*
D03*
X1405392Y2231462D02*
D03*
X1415392Y2211462D02*
D03*
X1425392Y2231462D02*
D03*
X868000Y1595250D02*
D03*
X838000Y1604750D02*
D03*
X905000Y1584000D02*
D03*
X1084000Y1910500D02*
D03*
X1106750Y1913000D02*
D03*
X986250Y1878250D02*
D03*
X722000Y2113250D02*
D03*
X1316250Y2098500D02*
D03*
X693500Y2110000D02*
D03*
X673000Y2110250D02*
D03*
X711000Y2049750D02*
D03*
X783000Y2091000D02*
D03*
X726000Y2164500D02*
D03*
X742250Y2126250D02*
D03*
X757750Y2097000D02*
D03*
X732000Y2085250D02*
D03*
X707250Y2079750D02*
D03*
X607250Y2232500D02*
D03*
X627250Y2192500D02*
D03*
X617250Y2212500D02*
D03*
X637250Y2172500D02*
D03*
X657250Y2132500D02*
D03*
X667250Y2152500D02*
D03*
X657250Y2212500D02*
D03*
X687250Y2192500D02*
D03*
X677250Y2212500D02*
D03*
X697250Y2172500D02*
D03*
X1164500Y1882000D02*
D03*
X1078500Y1818250D02*
D03*
X1095500Y1745000D02*
D03*
X1208250Y1619250D02*
D03*
X1066750Y1860500D02*
D03*
X636750Y2302750D02*
D03*
X1144250Y1386250D02*
D03*
X1154250D02*
D03*
X1165000Y1386500D02*
D03*
X1164750Y1376250D02*
D03*
X1154250Y1376750D02*
D03*
X1207750Y1352000D02*
D03*
X1216750D02*
D03*
Y1360750D02*
D03*
X1207750Y1360500D02*
D03*
X1199000D02*
D03*
X1174500Y1404000D02*
D03*
X1184750Y1403750D02*
D03*
X1185000Y1414500D02*
D03*
X1174750Y1414750D02*
D03*
X1163500Y1409000D02*
D03*
X1253000Y2083000D02*
D03*
X1305500Y2047500D02*
D03*
X1344500Y2106750D02*
D03*
X1301000Y2115500D02*
D03*
X1291500Y2142500D02*
D03*
X1275500Y2119500D02*
D03*
X1278750Y2076250D02*
D03*
X1315750Y2076500D02*
D03*
X1148556Y1608828D02*
D03*
X875500Y1584000D02*
D03*
X973500Y1685000D02*
D03*
X1068000Y1484000D02*
D03*
X1043750D02*
D03*
X1051750D02*
D03*
X1060000D02*
D03*
X949250Y1764750D02*
D03*
X1080250Y1880750D02*
D03*
X1104250Y1879500D02*
D03*
X1148250Y1873500D02*
D03*
X1011000Y1669250D02*
D03*
X1111000Y1386000D02*
D03*
X565390Y1091460D02*
D03*
X590390Y1141460D02*
D03*
X565390Y2291460D02*
D03*
X590390Y2341460D02*
D03*
X640390Y1041460D02*
D03*
X615390Y1091460D02*
D03*
Y1191460D02*
D03*
X640390Y1241460D02*
D03*
X615390Y2291460D02*
D03*
X640390Y2341460D02*
D03*
X665390Y1091460D02*
D03*
Y1191460D02*
D03*
Y1291460D02*
D03*
X690390Y1341460D02*
D03*
X740390D02*
D03*
Y2241460D02*
D03*
X790390Y1341460D02*
D03*
X765390Y1391460D02*
D03*
X790390Y1441460D02*
D03*
Y1541460D02*
D03*
Y1641460D02*
D03*
Y1741460D02*
D03*
Y1841460D02*
D03*
Y1941460D02*
D03*
X765390Y1991460D02*
D03*
X790390Y2041460D02*
D03*
X765390Y2191460D02*
D03*
X815390Y1291460D02*
D03*
X840390Y1341460D02*
D03*
Y1441460D02*
D03*
X815390Y1491460D02*
D03*
X840390Y1541460D02*
D03*
X815390Y1591460D02*
D03*
X840390Y1641460D02*
D03*
X815390Y1691460D02*
D03*
X840390Y1741460D02*
D03*
Y1841460D02*
D03*
X815390Y1991460D02*
D03*
X840390Y2041460D02*
D03*
X815390Y2091460D02*
D03*
X890390Y1341460D02*
D03*
X865390Y1391460D02*
D03*
X890390Y1441460D02*
D03*
Y1941460D02*
D03*
X865390Y1991460D02*
D03*
X890390Y2041460D02*
D03*
X940390Y1341460D02*
D03*
X915390Y1391460D02*
D03*
X940390Y1941460D02*
D03*
X915390Y1991460D02*
D03*
X940390Y2041460D02*
D03*
X990390Y1341460D02*
D03*
X965390Y1391460D02*
D03*
X990390Y1441460D02*
D03*
Y1941460D02*
D03*
X965390Y1991460D02*
D03*
X990390Y2041460D02*
D03*
X1040390Y1341460D02*
D03*
Y1441460D02*
D03*
Y1941460D02*
D03*
X1015390Y1991460D02*
D03*
X1040390Y2041460D02*
D03*
X1065390Y1991460D02*
D03*
X1090390Y2041460D02*
D03*
X1140390Y1941460D02*
D03*
X1115390Y1991460D02*
D03*
X1140390Y2041460D02*
D03*
X1190390Y1441460D02*
D03*
Y1841460D02*
D03*
Y1941460D02*
D03*
X1165390Y1991460D02*
D03*
X1215390Y1291460D02*
D03*
X1240390Y1341460D02*
D03*
Y1441460D02*
D03*
X1215390Y1491460D02*
D03*
Y1691460D02*
D03*
Y1791460D02*
D03*
X1240390Y1941460D02*
D03*
X1215390Y1991460D02*
D03*
X1240390Y2041460D02*
D03*
X1215390Y2091460D02*
D03*
X1290390Y1341460D02*
D03*
X1265390Y1391460D02*
D03*
Y1991460D02*
D03*
X1290390Y2041460D02*
D03*
X1265390Y2191460D02*
D03*
X1290390Y2241460D02*
D03*
X1340390Y1241460D02*
D03*
X1315390Y2191460D02*
D03*
Y2291460D02*
D03*
X1340390Y2341460D02*
D03*
X1390390Y1041460D02*
D03*
X1365390Y1091460D02*
D03*
Y1191460D02*
D03*
X1390390Y1241460D02*
D03*
Y2341460D02*
D03*
X1415390Y1091460D02*
D03*
X1440390Y1141460D02*
D03*
X1415390Y1191460D02*
D03*
Y2191460D02*
D03*
Y2291460D02*
D03*
X1465390Y1091460D02*
D03*
Y2291460D02*
D03*
X1490390Y2341460D02*
D03*
X1028500Y1808000D02*
D03*
X1028500Y1788000D02*
D03*
X1008500D02*
D03*
X1048500D02*
D03*
Y1808000D02*
D03*
Y1828000D02*
D03*
D50*
X930389Y1481459D02*
D03*
X915389Y1511459D02*
D03*
X930389Y1541459D02*
D03*
X915389Y1571459D02*
D03*
X930389Y1601459D02*
D03*
X915389Y1751459D02*
D03*
X930389Y1841459D02*
D03*
X915389Y1871459D02*
D03*
X960389Y1541459D02*
D03*
X945389Y1571459D02*
D03*
X960389Y1601459D02*
D03*
Y1661459D02*
D03*
X945389Y1871459D02*
D03*
X990389Y1541459D02*
D03*
X975389Y1571459D02*
D03*
X1005389Y1511459D02*
D03*
X1020389Y1541459D02*
D03*
X1005389Y1571459D02*
D03*
X1050389Y1541459D02*
D03*
Y1661459D02*
D03*
X1080389Y1541459D02*
D03*
X1065389Y1631459D02*
D03*
X1140389Y1481459D02*
D03*
X1125389Y1511459D02*
D03*
X1140389Y1661459D02*
D03*
Y1721459D02*
D03*
X1125389Y1751459D02*
D03*
X1140389Y1781459D02*
D03*
Y1841459D02*
D03*
M02*
