M48
;Layer_Color=9474304
;FILE_FORMAT=4:4
METRIC,LZ
;TYPE=PLATED
T1F00S00C0.3000
T2F00S00C1.1000
T3F00S00C1.5000
T4F00S00C1.7000
;TYPE=NON_PLATED
T5F00S00C6.0000
%
T01
X0053Y009675
X0056Y00955
X005925Y0097
X00605Y01
X005925Y010275
X0056Y01045
X005275Y0103
X00515Y01
X0056539Y0109146
X0061539
X0066539
X00695391Y01091461
X00705391Y01111461
X00685391
X00715391Y01131461
X00725391Y01151461
X00735391Y01171461
X00745391Y01191461
X00765391
X00778884Y0122499
X00791384Y0124599
X00706884Y0124874
X0071Y01215
X00735391Y01211461
X0066539Y0119146
X00675391Y01171461
X00665391Y01151461
X0059039Y0114146
X0061539Y0119146
X0064039Y0124146
Y0104146
X01265391Y01191461
X01255391Y01211461
X0124275Y0122525
X0123025Y0124625
X0125225Y01255
X0131475Y01249
X0134039Y0124146
X0139039
X0141539Y0119146
X0136539
X01325392Y01191461
X01335392Y01171461
X01305392Y01151461
X01285392
X01295392Y01131461
X01315392
X01325392Y01111461
X0136539Y0109146
X0141539
X0146539
X0146Y01045
X014275Y0103
X01415Y01
X0143Y009675
X0146Y00955
X014925Y0097
X01505Y01
X014925Y010275
X0139039Y0104146
X0144039Y0114146
X01275391Y01171461
X01295392Y01211461
X0131075Y0121525
X0129325Y0126825
X0127875Y012585
X0127775Y0128375
X01279Y01314
X0129039Y0134146
X0124039
X0121675Y01352
Y0136075
X0120775Y013605
Y01352
X01199Y013605
X0116475Y0137625
X01165Y013865
X0115425Y0138625
Y0137675
X0114425Y0138625
X01111Y01386
X011105Y01347
X0104039Y0134146
X0099039
X0094039
X0089039
X0091539Y0139146
X00928Y013795
X0096539Y0139146
X0099039Y0144146
X01023Y01427
X0104039Y0144146
X0104375Y01484
X0105175
X0106
X01068
X01076
X01084
X01092
X011
X01140389Y01481459
X01125389Y01511459
X011655Y01515
X011895Y01515
X0121539Y0149146
X0124039Y0144146
X0119039
X01185Y014145
X0117475Y0141475
X011745Y01404
X0118475Y0140375
X011635Y01409
X011615Y014505
X01152Y01566
X01143Y015875
X01148556Y01608828
X01143525Y01619975
X01149Y0162925
X011614Y016317
X011707Y016246
X011835Y0164
X011875Y01605
X01195Y0158875
X0120825Y0161925
X011115Y016075
X0108525Y01608
X0108525Y015735
X011115Y01568
X01080389Y01541459
X01050389
X01020389
X00990389
X00960389
X00930389
X0093875Y0152175
X00915389Y01511459
X00930389Y01481459
X0089039Y0144146
X00915389Y01571459
X00905Y01584
X00930389Y01601459
X00960389
X0096975Y0159525
Y015785
X00975389Y01571459
X009785Y01587
X01005389Y01571459
Y01511459
X01007998Y01489997
X00945389Y01571459
X01065389Y01631459
X011115Y016475
X0126539Y0139146
X01266Y013055
X012445Y0129025
X0121539Y0129146
X0121325Y012695
X0125525Y012705
X00808384Y0126924
X0081539Y0129146
X0077975Y01287
X00766384Y0127024
X0075025Y0126725
X00728384Y0126799
X00743884Y0128349
X00742634Y0131374
X00755634Y0130524
X0074039Y0134146
X0079039
X0084039
X0086539Y0139146
X0084039Y0144146
X0079039
X0081539Y0149146
X0084039Y0154146
X0079039
X0081539Y0159146
X00838Y0160475
X0084039Y0164146
X0079039
X00868Y0159525
X008755Y01584
X0076539Y0139146
X0069039Y0134146
X0066539Y0129146
X0081539Y0169146
X0084039Y0174146
X0079039
Y0184146
X0084039
X0079039Y0194146
X0081539Y0199146
X0086539
X0084039Y0204146
X0079039
X0076539Y0199146
X0091539
X0096539
X0101539
X0106539
X0111539
X0116539
X0121539
X0126539
X0124039Y0204146
Y0194146
X0119039
X0114039
X0110675Y01913
X01084Y019105
X0108025Y0188075
X0110425Y018795
X0110475Y01832
X0109175Y01838
X0107625Y0183575
X0106925Y018255
X010785Y0181825
X01111304Y01819089
X0111125Y01807
X0111Y0178975
X0111075Y0177725
X0110425Y0176325
X010955Y01745
X0111575Y0174525
X01125389Y01751459
X01132Y0171525
X0111775Y017155
X011035Y01716
X010925Y0169525
X0107275Y0169325
X0106544Y017
X010635Y0168825
X0105225Y0170625
X010725Y017175
X010615Y0172925
X01064Y0175725
X010525Y017665
X0104575Y01761
X0103675Y017555
X0102655Y01757336
X0101625Y01757
X0102125Y017505
X0101Y0174725
X01004299Y01754336
X0099325Y0175
X009885Y0173925
X009875Y0173125
X0097225Y01729
X0096575Y0171475
X00959Y017205
X009483Y017132
X0094825Y017385
X00947Y0175275
X0094925Y0176475
X0093675Y0177975
X009281Y018031
X009547Y018034
X009555Y01822
X0095175Y01842
X009635Y01848
X0097325Y01849
X00962Y0185825
X0097175Y0187725
X0098625Y0187825
X009985Y018514
X01041Y018505
X01046Y0185675
X0105425Y018525
X01067Y0185075
X0106675Y018605
X01063Y01842
X010485Y01828
Y01808
X010285
X010285Y01788
X010485
X010355Y0176775
X0099825Y017645
X010085Y01788
X0097675Y01799
X0097975Y01822
X00930389Y01841459
X00909Y0182
X009003Y018033
X0090475Y017725
X00915389Y01751459
X009248Y016912
X009735Y01685
X0098075Y0170625
X0098125Y0171575
X009955Y0170725
X010045Y0169975
X01011Y0166925
X00994Y016685
X00960389Y01661459
X01028Y01681
X01034051Y01686332
X01050389Y01661459
X011135Y016853
X011366Y016864
X01140389Y01661459
X0119625Y0165875
X0119625Y0168525
X0121539Y0169146
X011965Y01745
X0119625Y017715
X0121539Y0179146
X0119675Y018295
X0119039Y0184146
X011965Y01856
X011645Y01882
X0114825Y018735
X01140389Y01841459
X0112325Y0183925
X011316Y018069
X011457Y01803
X01140389Y01781459
Y01721459
X0104039Y0194146
X0099039
X0094039
X0089039
X00915389Y01871459
X00945389
X0094039Y0204146
X0099039
X0104039
X0109039
X0114039
X0089039
X0129039
X013055Y020475
X0131575Y020765
X0131625Y020985
X01301Y021155
X012755Y021195
X012915Y021425
X01315392Y02171462
X0131539Y0219146
X01325392Y02191462
X01345392
X01355392Y02211462
X01395392
X01415392
X0141539Y0219146
X01405392Y02231462
X01425392
X0141539Y0229146
X0146539
X0146Y02355
X0143Y023675
X01415Y024
X014275Y0243
X0146Y02445
X014925Y024275
X01505Y024
X014925Y0237
X0149039Y0234146
X0139039
X0134039
X0131539Y0229146
X0129039Y0224146
X01345392Y02151462
X01367571Y02147778
X01355392Y02131461
X013445Y0210675
X0127875Y0207625
X01253Y02083
X0121539Y0209146
X0126539Y0219146
X0076539
X00726Y021645
X0069725Y021725
X0068725Y021925
X0067725Y022125
X0065725
X0061725
X0062725Y021925
X0063725Y021725
X00651929Y02148028
X0066725Y021525
X0065725Y021325
X00673Y0211025
X006935Y0211
X00722Y0211325
X0074225Y0212625
X0075775Y02097
X00783Y02091
X0081539Y0209146
X00732Y0208525
X0070725Y0207975
X00711Y0204975
X0074039Y0224146
X0060725Y022325
X0061539Y0229146
X0063675Y0230275
X0064039Y0234146
X0059039
X005925Y0237
X00605Y024
X005925Y024275
X0056Y02445
X005275Y0243
X00515Y024
X0053Y023675
X0056Y02355
X0056539Y0229146
T02
X009973Y013795
X010227
T03
X0081625Y0178825
T04
X0079085Y0176285
X0084165
Y0181365
X0079085
T05
X0056Y01
X0146
Y024
X0056
M30
