G04 Layer_Color=32896*
%FSLAX44Y44*%
%MOMM*%
G71*
G01*
G75*
%ADD41C,0.3000*%
%ADD43C,0.2540*%
%ADD68C,0.1000*%
%ADD69C,0.4000*%
D41*
X1010000Y2000000D02*
X1160000D01*
X860000D02*
X1160000D01*
X860000Y1400000D02*
Y2000000D01*
Y1400000D02*
X1160000D01*
Y2000000D01*
X1262937Y1208134D02*
X1263571Y1207155D01*
X1264550Y1207789D01*
X1263916Y1208768D01*
X1262937Y1208134D01*
X712063Y1238581D02*
X711429Y1237602D01*
X712408Y1236968D01*
X713042Y1237947D01*
X712063Y1238581D01*
X1355187Y2128919D02*
X1355821Y2129898D01*
X1354842Y2130532D01*
X1354208Y2129553D01*
X1355187Y2128919D01*
X709563Y2161866D02*
X708929Y2162845D01*
X707950Y2162211D01*
X708584Y2161232D01*
X709563Y2161866D01*
D43*
X623250Y2443500D02*
G03*
X484250Y2363500I-67341J-43750D01*
G01*
X846279Y2099019D02*
G03*
X902000Y2070000I53619J34952D01*
G01*
X770000Y1887238D02*
G03*
X755890Y1943326I-118485J12D01*
G01*
X1260856Y1936902D02*
G03*
X1250250Y1894741I78458J-42152D01*
G01*
X1118000Y2070000D02*
G03*
X1173721Y2099019I2102J63971D01*
G01*
X1535750Y2363500D02*
G03*
X1396750Y2443500I-71658J36250D01*
G01*
X755906Y1456698D02*
G03*
X770016Y1512786I-104375J56076D01*
G01*
X901797Y1330073D02*
G03*
X846366Y1301205I-2091J-63639D01*
G01*
X484266Y1036525D02*
G03*
X623266Y956525I71658J-36250D01*
G01*
X1250250Y1513011D02*
G03*
X1264360Y1456924I118485J-12D01*
G01*
X1174358Y1300137D02*
G03*
X1117036Y1329989I-55160J-35956D01*
G01*
X1397000Y956750D02*
G03*
X1536000Y1036750I67341J43750D01*
G01*
X623250Y2443500D02*
X846238Y2098992D01*
X484250Y2363500D02*
X754899Y1945332D01*
X755957Y1943363D01*
X1265101Y1945332D02*
X1535750Y2363500D01*
X1173762Y2098992D02*
X1396750Y2443500D01*
X754915Y1454692D02*
X755973Y1456661D01*
X484266Y1036525D02*
X754915Y1454692D01*
X623266Y956525D02*
X846254Y1301032D01*
X1264293Y1456887D02*
X1265351Y1454918D01*
X1536000Y1036750D01*
X1174741Y1300131D02*
X1397000Y956750D01*
X902000Y2070000D02*
X1118000D01*
X770000Y1887238D02*
X770016D01*
X770000Y1513250D02*
X770016D01*
Y1887238D01*
X1250250Y1513011D02*
Y1894750D01*
X899707Y1330025D02*
X1117036D01*
X1260636Y1937022D02*
X1265101Y1945332D01*
D68*
X1320427Y1302098D02*
G03*
X1308466Y1320562I-30530J-6671D01*
G01*
X1277832Y1300717D02*
G03*
X1289793Y1282253I30530J6671D01*
G01*
X1333927Y1282098D02*
G03*
X1321966Y1300562I-30530J-6671D01*
G01*
X1291332Y1280717D02*
G03*
X1303293Y1262253I30530J6671D01*
G01*
X1340553Y1267804D02*
G03*
X1332806Y1279763I-17442J-2810D01*
G01*
X1313083Y1266986D02*
G03*
X1320830Y1255027I17442J2810D01*
G01*
X1349303Y1254804D02*
G03*
X1341556Y1266764I-17442J-2810D01*
G01*
X1321833Y1253987D02*
G03*
X1329580Y1242027I17442J2810D01*
G01*
X713784Y1322812D02*
G03*
X701823Y1304348I18568J-25135D01*
G01*
X732457Y1284503D02*
G03*
X744418Y1302967I-18568J25135D01*
G01*
X700034Y1302312D02*
G03*
X688073Y1283848I18568J-25135D01*
G01*
X718707Y1264003D02*
G03*
X730668Y1282467I-18568J25135D01*
G01*
X679830Y1266223D02*
G03*
X672083Y1254264I9694J-14770D01*
G01*
X691806Y1241487D02*
G03*
X699553Y1253446I-9694J14770D01*
G01*
X689080Y1279723D02*
G03*
X681333Y1267764I9694J-14770D01*
G01*
X701056Y1254986D02*
G03*
X708803Y1266946I-9694J14770D01*
G01*
X1253284Y2166062D02*
G03*
X1241323Y2147598I18568J-25135D01*
G01*
X1271957Y2127753D02*
G03*
X1283918Y2146217I-18568J25135D01*
G01*
X1240034Y2146562D02*
G03*
X1228073Y2128098I18568J-25135D01*
G01*
X1258707Y2108253D02*
G03*
X1270668Y2126717I-18568J25135D01*
G01*
X1268330Y2176973D02*
G03*
X1260583Y2165013I9694J-14770D01*
G01*
X1280306Y2152237D02*
G03*
X1288053Y2164196I-9694J14770D01*
G01*
X1277830Y2189973D02*
G03*
X1270083Y2178013I9694J-14770D01*
G01*
X1289806Y2165237D02*
G03*
X1297553Y2177196I-9694J14770D01*
G01*
X778927Y2151098D02*
G03*
X766966Y2169562I-30530J-6671D01*
G01*
X736332Y2149717D02*
G03*
X748293Y2131253I30530J6671D01*
G01*
X791177Y2132598D02*
G03*
X779216Y2151062I-30530J-6671D01*
G01*
X748582Y2131217D02*
G03*
X760543Y2112753I30530J6671D01*
G01*
X758803Y2166554D02*
G03*
X751056Y2178513I-17442J-2810D01*
G01*
X731333Y2165737D02*
G03*
X739080Y2153777I17442J2810D01*
G01*
X749803Y2179804D02*
G03*
X742056Y2191763I-17442J-2810D01*
G01*
X722333Y2178987D02*
G03*
X730080Y2167027I17442J2810D01*
G01*
X1103500Y1350250D02*
Y1375750D01*
X1117750Y1350250D02*
Y1375750D01*
X1103500D02*
X1117750D01*
X1103500Y1350250D02*
X1117750D01*
X1277832Y1300717D02*
X1308466Y1320562D01*
X1289793Y1282253D02*
X1320427Y1302098D01*
X1291332Y1280717D02*
X1321966Y1300562D01*
X1303293Y1262253D02*
X1333927Y1282098D01*
X1320830Y1255027D02*
X1340553Y1267804D01*
X1313083Y1266986D02*
X1332806Y1279763D01*
X1329580Y1242027D02*
X1349303Y1254804D01*
X1321833Y1253987D02*
X1341556Y1266764D01*
X701823Y1304348D02*
X732457Y1284503D01*
X713784Y1322812D02*
X744418Y1302967D01*
X688073Y1283848D02*
X718707Y1264003D01*
X700034Y1302312D02*
X730668Y1282467D01*
X679830Y1266223D02*
X699553Y1253446D01*
X672083Y1254264D02*
X691806Y1241487D01*
X689080Y1279723D02*
X708803Y1266946D01*
X681333Y1267764D02*
X701056Y1254986D01*
X1241323Y2147598D02*
X1271957Y2127753D01*
X1253284Y2166062D02*
X1283918Y2146217D01*
X1228073Y2128098D02*
X1258707Y2108253D01*
X1240034Y2146562D02*
X1270668Y2126717D01*
X1268330Y2176973D02*
X1288053Y2164196D01*
X1260583Y2165014D02*
X1280306Y2152237D01*
X1277830Y2189973D02*
X1297553Y2177196D01*
X1270082Y2178014D02*
X1289806Y2165237D01*
X736332Y2149717D02*
X766966Y2169562D01*
X748293Y2131253D02*
X778927Y2151098D01*
X748582Y2131217D02*
X779216Y2151062D01*
X760543Y2112753D02*
X791177Y2132598D01*
X739080Y2153777D02*
X758803Y2166554D01*
X731333Y2165737D02*
X751056Y2178513D01*
X730080Y2167027D02*
X749803Y2179804D01*
X722333Y2178987D02*
X742056Y2191763D01*
X1354840Y1256247D02*
X1357777Y1258150D01*
X1391811Y1199176D02*
X1394749Y1201079D01*
X1357777Y1258150D02*
X1394749Y1201079D01*
X1311660Y1147253D02*
X1391811Y1199176D01*
X1274689Y1204324D02*
X1311660Y1147253D01*
X1354840Y1256247D02*
X1391811Y1199176D01*
X1274689Y1204324D02*
X1354840Y1256247D01*
X626001Y1200829D02*
X628939Y1198926D01*
X662973Y1257900D02*
X665910Y1255997D01*
X626001Y1200829D02*
X662973Y1257900D01*
X665910Y1255997D02*
X746061Y1204074D01*
X709090Y1147003D02*
X746061Y1204074D01*
X628939Y1198926D02*
X665910Y1255997D01*
X628939Y1198926D02*
X709090Y1147003D01*
X1271501Y2197579D02*
X1274439Y2195676D01*
X1308473Y2254650D02*
X1311410Y2252747D01*
X1271501Y2197579D02*
X1308473Y2254650D01*
X1311410Y2252747D02*
X1391561Y2200824D01*
X1354590Y2143753D02*
X1391561Y2200824D01*
X1274439Y2195676D02*
X1311410Y2252747D01*
X1274439Y2195676D02*
X1354590Y2143753D01*
X708090Y2252997D02*
X711027Y2254900D01*
X745061Y2195926D02*
X747999Y2197829D01*
X711027Y2254900D02*
X747999Y2197829D01*
X664910Y2144003D02*
X745061Y2195926D01*
X627939Y2201074D02*
X664910Y2144003D01*
X708090Y2252997D02*
X745061Y2195926D01*
X627939Y2201074D02*
X708090Y2252997D01*
X1254855Y1237693D02*
X1276257Y1251557D01*
X1247107Y1249652D02*
X1268509Y1263517D01*
X1247107Y1249652D02*
X1254855Y1237693D01*
X1268509Y1263517D02*
X1276257Y1251557D01*
X735993Y1258557D02*
X757395Y1244693D01*
X743741Y1270517D02*
X765143Y1256653D01*
X735993Y1258557D02*
X743741Y1270517D01*
X757395Y1244693D02*
X765143Y1256653D01*
X1310605Y2123057D02*
X1332007Y2109193D01*
X1302857Y2111098D02*
X1324259Y2097233D01*
X1332007Y2109193D01*
X1302857Y2111098D02*
X1310605Y2123057D01*
X696493Y2119193D02*
X717895Y2133057D01*
X704241Y2107233D02*
X725643Y2121097D01*
X717895Y2133057D02*
X725643Y2121097D01*
X696493Y2119193D02*
X704241Y2107233D01*
X1274359Y1206596D02*
X1306671Y1227529D01*
X1255329Y1235971D02*
X1274359Y1206596D01*
X1255329Y1235971D02*
X1287641Y1256904D01*
X1306671Y1227529D01*
X715329Y1227529D02*
X747641Y1206596D01*
X715329Y1227529D02*
X734359Y1256904D01*
X766671Y1235971D01*
X747641Y1206596D02*
X766671Y1235971D01*
X1319609Y2160904D02*
X1351921Y2139971D01*
X1332891Y2110596D02*
X1351921Y2139971D01*
X1300579Y2131529D02*
X1332891Y2110596D01*
X1300579Y2131529D02*
X1319609Y2160904D01*
X665829Y2142471D02*
X698141Y2163404D01*
X717171Y2134029D01*
X684859Y2113096D02*
X717171Y2134029D01*
X665829Y2142471D02*
X684859Y2113096D01*
D69*
X1053000Y1362750D02*
X1049668D01*
Y1359418D01*
X1053000D01*
Y1362750D01*
M02*
